<svg width="18" height="16" viewBox="0 0 18 16" fill="none" xmlns="http://www.w3.org/2000/svg">
<path d="M18 0.75C18 0.34375 17.6562 0 17.25 0H13.25C12.5625 0 12.2188 0.8125 12.7188 1.28125L13.8125 2.40625L6.21875 10.0312C5.90625 10.3125 5.90625 10.7812 6.21875 11.0938L6.90625 11.7812C7.21875 12.0938 7.6875 12.0938 7.96875 11.7812L15.5938 4.1875L16.7188 5.28125C17.1875 5.75 18 5.4375 18 4.75V0.75ZM12.7188 8.46875L12.2188 8.96875C12.0938 9.09375 12 9.34375 12 9.5V14H2V4H10.25C10.4062 4 10.6562 3.90625 10.75 3.78125L11.25 3.28125C11.75 2.8125 11.4062 2 10.75 2H1.5C0.65625 2 0 2.6875 0 3.5V14.5C0 15.3438 0.65625 16 1.5 16H12.5C13.3125 16 14 15.3438 14 14.5V9C14 8.34375 13.1875 8 12.7188 8.46875Z" fill="black"/>
</svg>
