<svg width="20" height="20" viewBox="0 0 20 20" fill="none" xmlns="http://www.w3.org/2000/svg">
<path d="M9.99981 19.7001C15.357 19.7001 19.6998 15.3572 19.6998 10C19.6998 4.64289 15.357 0.300049 9.99981 0.300049C4.64264 0.300049 0.299805 4.64289 0.299805 10C0.299805 15.3572 4.64264 19.7001 9.99981 19.7001Z" fill="url(#paint0_linear_7176:130242)"/>
<path d="M14.2447 13.8652L10.9647 5.9352C10.7797 5.5252 10.5047 5.3252 10.1422 5.3252H9.85221C9.48971 5.3252 9.21471 5.5252 9.02971 5.9352L7.60221 9.3902H6.52221C6.19971 9.3927 5.93721 9.6527 5.93471 9.9777V9.9852C5.93721 10.3077 6.19971 10.5702 6.52221 10.5727H7.10221L5.73971 13.8652C5.71471 13.9377 5.69971 14.0127 5.69971 14.0902C5.69971 14.2752 5.75721 14.4202 5.85971 14.5327C5.96221 14.6452 6.10971 14.7002 6.29471 14.7002C6.41721 14.6977 6.53471 14.6602 6.63221 14.5877C6.73721 14.5152 6.80971 14.4102 6.86721 14.2902L8.36721 10.5702H9.40721C9.72971 10.5677 9.99221 10.3077 9.99471 9.9827V9.9677C9.99221 9.6452 9.72971 9.3827 9.40721 9.3802H8.85221L9.99721 6.5277L13.1172 14.2877C13.1747 14.4077 13.2472 14.5127 13.3522 14.5852C13.4497 14.6577 13.5697 14.6952 13.6897 14.6977C13.8747 14.6977 14.0197 14.6427 14.1247 14.5302C14.2297 14.4177 14.2847 14.2727 14.2847 14.0877C14.2872 14.0127 14.2747 13.9352 14.2447 13.8652Z" fill="white"/>
<defs>
<linearGradient id="paint0_linear_7176:130242" x1="17.232" y1="3.91471" x2="2.79838" y2="16.0591" gradientUnits="userSpaceOnUse">
<stop stop-color="#B6509E"/>
<stop offset="1" stop-color="#2EBAC6"/>
</linearGradient>
</defs>
</svg>
