<svg width="20" height="20" viewBox="0 0 20 20" fill="none" xmlns="http://www.w3.org/2000/svg">
<path d="M11.9069 1.72693C6.08916 0.437984 3.76689 6.02361 3.7347 6.65415C3.70251 7.2847 3.91224 7.52383 4.51987 7.64132C5.12751 7.75881 6.05714 7.18665 7.35458 7.62657C8.65202 8.06648 9.10414 9.10101 9.38783 9.40557C9.67152 9.71014 10.1792 10.029 10.6965 9.80278C11.2138 9.57656 12.0892 9.03534 13.5291 9.28522C14.9689 9.53509 15.3166 10.4503 15.8047 10.6728C16.2928 10.8952 16.7951 10.8931 17.1061 10.2461C17.4171 9.59915 17.7246 3.01587 11.9069 1.72693Z" fill="black"/>
<rect width="2.73382" height="0.653113" rx="0.326557" transform="matrix(0.499448 0.866344 -0.866342 0.499451 5.50977 8.11719)" fill="black"/>
<rect width="2.73382" height="0.653115" rx="0.326558" transform="matrix(-0.866342 0.49945 0.499449 0.866343 14.7666 10.6035)" fill="black"/>
<path fill-rule="evenodd" clip-rule="evenodd" d="M11.9998 12.217C11.9998 12.8891 11.455 13.4339 10.7829 13.4339C10.1107 13.4339 9.56588 12.8891 9.56588 12.217C9.56588 11.5449 10.1107 11 10.7829 11C11.455 11 11.9998 11.5449 11.9998 12.217ZM9.14618 12.2323C9.14618 13.1368 9.87912 13.8697 10.7836 13.8541C11.0643 13.8541 11.3294 13.7917 11.5633 13.6514C11.7349 14.088 11.8284 14.5715 11.8284 15.0705C11.844 17.2381 10.0974 18.9847 7.92981 19.0003C5.76218 19.0159 4 17.2693 4 15.1017C4 12.9341 5.74658 11.1719 7.91422 11.1719C8.41324 11.1719 8.89667 11.2654 9.34891 11.437C9.22415 11.6709 9.14618 11.9516 9.14618 12.2323Z" fill="black"/>
</svg>
