<svg width="17" height="27" viewBox="0 0 17 27" fill="none" xmlns="http://www.w3.org/2000/svg">
<rect x="17" y="27" width="2" height="2" transform="rotate(-180 17 27)" fill="#C4C4C4"/>
<rect x="7" y="27" width="2" height="2" transform="rotate(-180 7 27)" fill="#C4C4C4"/>
<rect x="17" y="17" width="2" height="2" transform="rotate(-180 17 17)" fill="#C4C4C4"/>
<rect x="7" y="17" width="2" height="2" transform="rotate(-180 7 17)" fill="#C4C4C4"/>
<rect x="17" y="7" width="2" height="2" transform="rotate(-180 17 7)" fill="#C4C4C4"/>
<rect x="7" y="7" width="2" height="2" transform="rotate(-180 7 7)" fill="#C4C4C4"/>
<rect x="17" y="22" width="2" height="2" transform="rotate(-180 17 22)" fill="#C4C4C4"/>
<rect x="7" y="22" width="2" height="2" transform="rotate(-180 7 22)" fill="#C4C4C4"/>
<rect x="17" y="12" width="2" height="2" transform="rotate(-180 17 12)" fill="#C4C4C4"/>
<rect x="7" y="12" width="2" height="2" transform="rotate(-180 7 12)" fill="#C4C4C4"/>
<rect x="17" y="2" width="2" height="2" transform="rotate(-180 17 2)" fill="#C4C4C4"/>
<rect x="7" y="2" width="2" height="2" transform="rotate(-180 7 2)" fill="#C4C4C4"/>
<rect x="12" y="27" width="2" height="2" transform="rotate(-180 12 27)" fill="#C4C4C4"/>
<rect x="2" y="27" width="2" height="2" transform="rotate(-180 2 27)" fill="#C4C4C4"/>
<rect x="12" y="17" width="2" height="2" transform="rotate(-180 12 17)" fill="#C4C4C4"/>
<rect x="2" y="17" width="2" height="2" transform="rotate(-180 2 17)" fill="#C4C4C4"/>
<rect x="12" y="7" width="2" height="2" transform="rotate(-180 12 7)" fill="#C4C4C4"/>
<rect x="2" y="7" width="2" height="2" transform="rotate(-180 2 7)" fill="#C4C4C4"/>
<rect x="12" y="22" width="2" height="2" transform="rotate(-180 12 22)" fill="#C4C4C4"/>
<rect x="2" y="22" width="2" height="2" transform="rotate(-180 2 22)" fill="#C4C4C4"/>
<rect x="12" y="12" width="2" height="2" transform="rotate(-180 12 12)" fill="#C4C4C4"/>
<rect x="2" y="12" width="2" height="2" transform="rotate(-180 2 12)" fill="#C4C4C4"/>
<rect x="12" y="2" width="2" height="2" transform="rotate(-180 12 2)" fill="#C4C4C4"/>
<rect x="2" y="2" width="2" height="2" transform="rotate(-180 2 2)" fill="#C4C4C4"/>
</svg>
