<svg width="76" height="76" viewBox="0 0 76 76" fill="none" xmlns="http://www.w3.org/2000/svg">
<g clip-path="url(#clip0)">
<path opacity="0.2" d="M44.5189 74.5542C40.63 76.4819 34.2411 76.4819 30.3522 74.5542C26.4633 72.6265 26.4633 69.3735 30.3522 67.4458C34.2411 65.5181 40.63 65.5181 44.5189 67.4458C48.4078 69.3735 48.4078 72.6265 44.5189 74.5542Z" fill="url(#paint0_linear)"/>
<path d="M33.3383 68.3095C32.4512 68.5313 34.0037 71.0818 33.1165 71.1927C30.1224 71.4145 25.1321 68.3095 22.8034 66.9788C20.3637 65.5371 18.2567 63.4301 16.8151 60.436C13.9318 55.0022 13.2665 47.4614 14.819 39.477C17.7022 23.8409 28.6808 10.2009 39.992 7.76126C40.8791 7.53948 41.7663 7.42858 42.6534 7.42858C45.204 7.31769 47.5328 7.65037 49.6398 8.64842C52.523 9.97915 57.735 11.8643 59.5093 15.1912C62.3926 20.625 60.2856 28.6094 58.7331 36.7046C55.628 52.2298 44.7604 65.8698 33.3383 68.3095Z" fill="url(#paint1_linear)"/>
<path d="M39.3263 71.3042C38.4392 71.526 37.552 71.6369 36.7758 71.6369C30.7875 71.9696 25.7973 69.0863 22.8031 63.3198C19.809 57.886 19.1436 50.4561 20.6961 42.3608C23.6903 26.8357 34.5579 13.1957 45.98 10.756C46.8672 10.5342 47.7543 10.4233 48.5306 10.4233C54.6297 10.0906 59.5091 12.9739 62.5032 18.7404C65.3865 24.1742 66.0518 31.715 64.4993 39.6994C61.6161 55.2246 50.6376 68.7537 39.3263 71.3042Z" fill="url(#paint2_linear)"/>
<path d="M62.7252 39.6987C59.5092 55.6674 48.0871 69.1965 36.9977 69.8619C25.9083 70.5272 19.4764 58.218 22.5815 42.2492C22.6924 41.5839 22.9142 40.9185 23.0251 40.2531C24.4667 34.043 27.239 28.2766 30.6767 23.619C33.3382 20.0704 36.4432 17.0762 39.6592 15.0801C42.3206 13.4167 44.9821 12.4187 47.7545 12.1969C47.8653 12.1969 48.0871 12.1969 48.198 12.1969C59.2874 11.4206 65.8302 23.7299 62.7252 39.6987Z" fill="white"/>
<path d="M22.8026 43.9134C22.9135 43.248 23.1353 42.5827 23.2462 41.9173C24.6878 35.7072 27.4601 29.9407 30.8979 25.2832C33.5593 21.7346 36.6644 18.7404 39.8803 16.7443C42.5417 15.0809 45.2032 14.0829 47.9756 13.8611C48.0864 13.8611 48.3082 13.8611 48.4191 13.8611C56.5144 13.3066 62.17 19.8494 63.3898 29.4972C62.6136 18.8513 56.8471 11.6432 48.3082 12.0868C48.1973 12.0868 47.9756 12.0868 47.8647 12.0868C45.2032 12.3086 42.4308 13.3066 39.7694 14.97C36.5535 16.9661 33.4484 19.9603 30.787 23.5089C27.3492 28.1664 24.5769 33.9329 23.1353 40.143C22.9135 40.8084 22.8026 41.4737 22.6917 42.1391C21.8045 46.464 21.6936 50.4562 22.1372 54.0048C21.9154 51.0106 22.0263 47.5729 22.8026 43.9134Z" fill="url(#paint3_linear)"/>
<g filter="url(#filter0_d)">
<path d="M24.0227 42.2496C24.1336 41.5842 24.3554 40.9189 24.4662 40.2535C25.9079 34.0434 28.6802 28.2769 32.1179 23.6194C34.7794 20.0708 37.8844 17.0766 41.1004 15.0805C43.7618 13.4171 46.4233 12.4191 49.1956 12.1973C49.3065 12.1973 49.5283 12.1973 49.6392 12.1973H49.7501C49.1956 12.1973 48.7521 12.1973 48.1976 12.1973C48.0867 12.1973 47.8649 12.1973 47.754 12.1973C45.0926 12.4191 42.3202 13.4171 39.6587 15.0805C36.4428 17.0766 33.3378 20.0708 30.6763 23.6194C27.2386 28.2769 24.4662 34.0434 23.0246 40.2535C22.8028 40.9189 22.6919 41.5842 22.581 42.2496C19.476 58.1075 25.9079 70.4167 36.8864 69.8622C26.795 69.4187 21.0285 57.4421 24.0227 42.2496Z" fill="url(#paint4_linear)"/>
</g>
<path d="M56.404 22.399L56.0713 21.29L36.1104 47.3502L36.7757 48.0155L56.404 22.399Z" fill="#707070" fill-opacity="0.2"/>
<path d="M41.7658 41.1407L35.7776 45.5765L29.3457 47.7944V47.2399L34.5577 43.0259L41.5441 39.9209L41.7658 41.1407Z" fill="#707070" fill-opacity="0.2"/>
<path d="M41.9885 39.5877L42.9865 26.3913L41.9885 19.0723L41.5449 19.2941L40.5469 26.724L41.434 39.9204L41.9885 39.5877Z" fill="#707070" fill-opacity="0.2"/>
<path d="M42.0988 37.8135C41.1008 37.9244 40.1027 39.0333 39.8809 40.4749C39.6591 41.8057 40.2136 42.9146 41.1008 42.9146C42.0988 42.8037 43.0969 41.6948 43.3187 40.2531C43.5404 38.8115 42.986 37.8135 42.0988 37.8135Z" fill="#707070" fill-opacity="0.2"/>
<path d="M48.3087 12.0863C48.1978 12.0863 48.0869 12.0863 47.8651 12.0863C58.511 11.9754 64.6102 23.952 61.616 39.2554C58.6219 54.8914 47.0889 68.0879 36.1104 68.7532C32.1182 68.975 28.6804 67.5334 26.1299 64.8719C28.7913 68.3096 32.4509 70.1948 36.9975 69.9731C48.0869 69.3077 59.509 55.7786 62.6141 39.8098C65.83 23.7302 59.2872 11.4209 48.3087 12.0863Z" fill="url(#paint5_linear)" fill-opacity="0.6"/>
<path d="M43.2076 18.7403L42.0986 19.4057V15.1917L43.2076 14.5264V18.7403Z" fill="#707070"/>
<path d="M50.7486 18.8512L49.6396 18.5186L50.8595 14.5264L51.9684 14.7482L50.7486 18.8512Z" fill="#707070"/>
<path d="M33.3384 67.0905L32.2295 66.8687L33.4493 62.7656L34.5583 63.0983L33.3384 67.0905Z" fill="#707070"/>
<path d="M56.072 24.506L55.5176 23.397L58.2899 20.292L58.8444 21.4009L56.072 24.506Z" fill="#707070"/>
<path d="M51.6353 57.8865L52.4116 56.9993L50.3046 53.3398L49.5283 54.227L51.6353 57.8865Z" fill="#707070"/>
<path d="M35.2232 25.7258L35.9995 24.9495L33.8925 21.29L33.1162 22.1772L35.2232 25.7258Z" fill="#707070"/>
<path d="M58.9545 45.0221L59.3981 43.8023L55.5168 42.6934L55.0732 43.8023L58.9545 45.0221Z" fill="#707070"/>
<path d="M29.1245 38.0358L29.568 36.9269L25.6867 35.707L25.2432 36.816L29.1245 38.0358Z" fill="#707070"/>
<path d="M25.575 60.7687L25.0205 59.6597L27.7929 56.5547L28.3473 57.6636L25.575 60.7687Z" fill="#707070"/>
<path d="M43.2076 65.8702L42.0986 66.5356V62.4325L43.2076 61.6562V65.8702Z" fill="#707070"/>
<path d="M57.7344 32.4906V31.0489L61.1721 28.8311V30.2727L57.7344 32.4906Z" fill="#707070"/>
<path d="M22.1377 52.8949V51.4532L25.6863 49.2354V50.5661L22.1377 52.8949Z" fill="#707070"/>
<path d="M57.4026 22.9537L57.0699 21.8447L36.998 48.0158L37.7743 48.5702L57.4026 22.9537Z" fill="#EC3643"/>
<path d="M43.0969 38.4795C42.0988 38.5904 41.1008 39.6993 40.879 41.141C40.6572 42.4717 41.2117 43.5806 42.0988 43.5806C43.0969 43.4697 44.0949 42.3608 44.3167 40.9192C44.6494 39.4775 44.0949 38.4795 43.0969 38.4795Z" fill="#707070"/>
<path d="M42.8752 41.3624L36.776 45.7982L30.4551 48.0161V47.4616L35.6671 43.2476L42.6534 40.1426L42.8752 41.3624Z" fill="#707070"/>
<path d="M43.0965 39.8099L44.0945 26.5026L43.0965 19.1836L42.542 19.4054L41.5439 26.9462L42.4311 40.1426L43.0965 39.8099Z" fill="#707070"/>
<path d="M37.0253 30.855L34.9683 31.3692L31.8828 28.2838L33.9398 27.7695L37.0253 30.855Z" fill="url(#paint6_linear)"/>
<path d="M33.9402 27.7682L37.0257 30.8537L36.923 1.95312L3.18848 21.4944V46.1782L33.9402 27.7682Z" fill="url(#paint7_linear)"/>
<path d="M36.9228 1.95413L3.18832 21.4954L0 19.6442L33.7345 0L36.9228 1.95413Z" fill="url(#paint8_linear)" fill-opacity="0.5"/>
<path d="M3.18832 21.4951L0 19.541V44.2248L3.18832 46.0761V21.4951Z" fill="url(#paint9_linear)"/>
<path d="M15.6937 31.9931L10.2852 35.094V33.5075L12.088 29.6133C12.5928 28.5316 12.8812 27.8105 13.0976 27.3057C13.3139 26.8009 13.386 26.3683 13.5303 26.0077C13.6024 25.6471 13.6745 25.2144 13.6745 24.8539C13.6745 24.4212 13.6024 24.1327 13.386 24.0606C13.2418 23.9164 13.0255 23.9885 12.737 24.1327C12.5207 24.277 12.2322 24.4933 12.088 24.7096C11.8716 24.9981 11.6553 25.3587 11.2947 25.9356L10.2852 25.2866C10.7899 24.4212 11.2226 23.7001 11.6553 23.2674C12.088 22.8347 12.5207 22.402 13.0255 22.1857C13.8187 21.6809 14.4677 21.6088 14.9004 21.8972C15.3331 22.1857 15.5494 22.7626 15.5494 23.7001C15.5494 24.1327 15.4773 24.5654 15.4052 24.9981C15.3331 25.4308 15.1889 25.8635 15.0446 26.3683C14.9004 26.873 14.6841 27.3778 14.3956 27.9547C14.1072 28.5316 13.4581 29.8297 12.4486 31.921V31.9931L15.7658 30.1181V31.9931H15.6937Z" fill="white"/>
<path d="M22.6161 25.6475L21.6065 26.2244V28.6042L19.8037 29.6137V27.234L16.5586 29.109V27.3782L19.5874 18.5083L21.6065 17.3545V24.4937L22.6161 23.9168V25.6475ZM19.8037 25.5033V23.1236V22.0419L19.8758 21.0323H19.8037C19.6595 21.6813 19.4431 22.2582 19.2989 22.8351L18.073 26.4408L19.8037 25.5033Z" fill="white"/>
<path d="M27.3757 25.2154V20.0954C27.3757 18.8695 27.0873 18.3647 26.5104 18.7252C26.0777 18.9416 25.7892 19.3743 25.645 19.9512C25.5008 20.5281 25.3565 21.3213 25.3565 22.2588V26.3692L23.5537 27.4509V15.4801L25.3565 14.3984V17.0666C25.3565 17.4272 25.3565 18.0041 25.2844 18.9416L25.3565 18.8695C25.7171 17.7878 26.294 17.0666 27.0151 16.6339C27.7363 16.2013 28.2411 16.2013 28.6016 16.4897C28.9622 16.7782 29.1064 17.4993 29.1064 18.5089V24.0616L27.3757 25.2154Z" fill="white"/>
</g>
<defs>
<filter id="filter0_d" x="1.7998" y="2.19727" width="67.9503" height="97.683" filterUnits="userSpaceOnUse" color-interpolation-filters="sRGB">
<feFlood flood-opacity="0" result="BackgroundImageFix"/>
<feColorMatrix in="SourceAlpha" type="matrix" values="0 0 0 0 0 0 0 0 0 0 0 0 0 0 0 0 0 0 127 0"/>
<feOffset dy="10"/>
<feGaussianBlur stdDeviation="10"/>
<feColorMatrix type="matrix" values="0 0 0 0 0.531573 0 0 0 0 0.470652 0 0 0 0 0.675284 0 0 0 0.2 0"/>
<feBlend mode="normal" in2="BackgroundImageFix" result="effect1_dropShadow"/>
<feBlend mode="normal" in="SourceGraphic" in2="effect1_dropShadow" result="shape"/>
</filter>
<linearGradient id="paint0_linear" x1="31.072" y1="62.947" x2="37.8116" y2="78.8699" gradientUnits="userSpaceOnUse">
<stop stop-color="#CFC2BA"/>
<stop offset="0.6" stop-color="#BAAEA8"/>
<stop offset="1" stop-color="#B3A7A1"/>
</linearGradient>
<linearGradient id="paint1_linear" x1="20.2479" y1="18.7885" x2="62.4582" y2="49.8448" gradientUnits="userSpaceOnUse">
<stop stop-color="#BCEB00"/>
<stop offset="1" stop-color="#00EAEA"/>
</linearGradient>
<linearGradient id="paint2_linear" x1="25.9289" y1="21.3264" x2="66.5579" y2="51.453" gradientUnits="userSpaceOnUse">
<stop stop-color="#BCEB00"/>
<stop offset="1" stop-color="#00EAEA"/>
</linearGradient>
<linearGradient id="paint3_linear" x1="27.4052" y1="19.5484" x2="56.4681" y2="48.3124" gradientUnits="userSpaceOnUse">
<stop stop-color="#BCEB00"/>
<stop offset="1" stop-color="#00EAEA"/>
</linearGradient>
<linearGradient id="paint4_linear" x1="25.5179" y1="22.4871" x2="56.893" y2="37.6899" gradientUnits="userSpaceOnUse">
<stop stop-color="#BCEB00"/>
<stop offset="1" stop-color="#00EAEA"/>
</linearGradient>
<linearGradient id="paint5_linear" x1="31.0924" y1="22.3945" x2="67.6429" y2="45.9316" gradientUnits="userSpaceOnUse">
<stop stop-color="#BCEB00"/>
<stop offset="1" stop-color="#00EAEA"/>
</linearGradient>
<linearGradient id="paint6_linear" x1="32.5669" y1="28.4117" x2="34.911" y2="31.7603" gradientUnits="userSpaceOnUse">
<stop stop-color="#BCEB00"/>
<stop offset="1" stop-color="#00EAEA"/>
</linearGradient>
<linearGradient id="paint7_linear" x1="8.57902" y1="9.84227" x2="35.4457" y2="38.7865" gradientUnits="userSpaceOnUse">
<stop stop-color="#C6EE27"/>
<stop offset="1" stop-color="#28F7F7"/>
</linearGradient>
<linearGradient id="paint8_linear" x1="4.91169" y1="3.83449" x2="17.8666" y2="26.0871" gradientUnits="userSpaceOnUse">
<stop stop-color="#BCEB00"/>
<stop offset="1" stop-color="#00EAEA"/>
</linearGradient>
<linearGradient id="paint9_linear" x1="0.424129" y1="24.2745" x2="4.78053" y2="24.7979" gradientUnits="userSpaceOnUse">
<stop stop-color="#BCEB00"/>
<stop offset="1" stop-color="#00EAEA"/>
</linearGradient>
<clipPath id="clip0">
<rect width="76" height="76" fill="white"/>
</clipPath>
</defs>
</svg>
