<svg width="62" height="62" viewBox="0 0 62 62" fill="none" xmlns="http://www.w3.org/2000/svg">
<g filter="url(#filter0_dd)">
<path d="M11.2299 10H14.9578C15.2842 10 15.5972 10.1296 15.8279 10.3604L39.6904 34.2229L34.2224 39.691L10.3599 15.8284C10.1291 15.5976 9.99946 15.2847 9.99946 14.9583V11.2305C9.99946 10.5509 10.5504 10 11.2299 10V10Z" fill="black"/>
<path d="M47.0952 41.6389C47.8255 42.3691 48.2139 43.3235 48.2503 44.2862C49.2012 44.3128 50.1442 44.6879 50.87 45.4136C52.3767 46.9203 52.3767 49.3632 50.87 50.8699C49.3633 52.3766 46.9204 52.3766 45.4137 50.8699C44.6923 50.1485 44.3173 49.2125 44.2867 48.2674C43.3414 48.2369 42.4053 47.8615 41.6838 47.14L39.4493 44.9054L44.9056 39.4492L47.0952 41.6389Z" fill="black"/>
<path d="M29.2646 38.208L23.7975 32.7408L22.3149 34.2234L27.782 39.6906L29.2646 38.208Z" fill="black"/>
<path d="M38.2082 29.2598L32.7401 23.7918L46.1715 10.3604C46.4023 10.1296 46.7152 10 47.0416 10H50.7695C51.4491 10 52 10.5509 52 11.2305V14.9583C52 15.2847 51.8704 15.5976 51.6396 15.8283L38.2082 29.2598Z" fill="black"/>
<path d="M13.7496 44.2863C13.7861 43.3236 14.1746 42.3691 14.9047 41.639L17.0945 39.4492L22.5508 44.9054L20.3162 47.14C19.5947 47.8615 18.6586 48.2369 17.7133 48.2674C17.6827 49.2125 17.3077 50.1485 16.5863 50.8699C15.0796 52.3766 12.6367 52.3766 11.13 50.8699C9.6233 49.3633 9.6233 46.9204 11.13 45.4136C11.8558 44.688 12.7987 44.3128 13.7496 44.2863Z" fill="black"/>
<path d="M15.6318 32.7656C16.1123 32.2851 16.8914 32.2852 17.3719 32.7656L29.2343 44.628C29.7149 45.1085 29.7149 45.8877 29.2343 46.3681C28.7539 46.8486 27.9747 46.8486 27.4942 46.3681L15.6318 34.5058C15.1512 34.0253 15.1512 33.2462 15.6318 32.7656Z" fill="black"/>
<path d="M44.6285 32.7656C45.1089 32.2852 45.8881 32.2851 46.3686 32.7656C46.8491 33.2462 46.8491 34.0252 46.3686 34.5058L34.5061 46.3681C34.0257 46.8486 33.2465 46.8486 32.766 46.3681C32.2855 45.8877 32.2855 45.1085 32.766 44.628L44.6285 32.7656Z" fill="black"/>
</g>
<defs>
<filter id="filter0_dd" x="0.649511" y="0.65" width="60.7006" height="60.6999" filterUnits="userSpaceOnUse" color-interpolation-filters="sRGB">
<feFlood flood-opacity="0" result="BackgroundImageFix"/>
<feColorMatrix in="SourceAlpha" type="matrix" values="0 0 0 0 0 0 0 0 0 0 0 0 0 0 0 0 0 0 127 0" result="hardAlpha"/>
<feOffset dx="-2" dy="-2"/>
<feGaussianBlur stdDeviation="3.675"/>
<feColorMatrix type="matrix" values="0 0 0 0 0.74902 0 0 0 0 0.937255 0 0 0 0 0 0 0 0 1 0"/>
<feBlend mode="normal" in2="BackgroundImageFix" result="effect1_dropShadow"/>
<feColorMatrix in="SourceAlpha" type="matrix" values="0 0 0 0 0 0 0 0 0 0 0 0 0 0 0 0 0 0 127 0" result="hardAlpha"/>
<feOffset dx="2" dy="2"/>
<feGaussianBlur stdDeviation="3.675"/>
<feColorMatrix type="matrix" values="0 0 0 0 0.364706 0 0 0 0 0.968627 0 0 0 0 0.643137 0 0 0 1 0"/>
<feBlend mode="normal" in2="effect1_dropShadow" result="effect2_dropShadow"/>
<feBlend mode="normal" in="SourceGraphic" in2="effect2_dropShadow" result="shape"/>
</filter>
</defs>
</svg>
