<svg width="42" height="42" viewBox="0 0 42 42" fill="none" xmlns="http://www.w3.org/2000/svg">
<rect width="42" height="42" rx="21" fill="#38D3E9"/>
<path d="M26.3538 16.1328C25.6319 16.1 25.0413 16.7234 25.0413 17.4453V20.3H24.7788V14.525C24.7788 13.8031 24.1554 13.1797 23.4335 13.2125C22.7116 13.2125 22.1538 13.8031 22.1538 14.4922V20.3H21.8913V13.2453C21.8913 12.5234 21.2679 11.9 20.546 11.9328C19.8241 11.9328 19.2663 12.5234 19.2663 13.2125V20.3H19.0038V14.5578C19.0038 13.8359 18.3804 13.2125 17.6585 13.2453C16.9366 13.2453 16.3788 13.8359 16.3788 14.525V22.2688L15.3288 20.8578C14.9023 20.2672 14.0819 20.1359 13.4913 20.5625C12.9007 20.9891 12.7694 21.8094 13.196 22.4L17.3304 28.0766C17.5929 28.4375 18.1507 28.7 18.6101 28.7H25.0741C25.796 28.7 26.4523 28.2078 26.6163 27.4859L27.4694 23.8109C27.5679 23.4172 27.6335 22.7609 27.6335 22.3672V17.4125C27.6663 16.7234 27.0757 16.1328 26.3538 16.1328Z" fill="white"/>
</svg>
