<svg width="76" height="76" viewBox="0 0 76 76" fill="none" xmlns="http://www.w3.org/2000/svg">
<g clip-path="url(#clip0)">
<path opacity="0.2" d="M49.1979 74.5542C46.0868 76.4819 40.9757 76.4819 37.8646 74.5542C34.7535 72.6265 34.7535 69.3735 37.8646 67.4458C40.9757 65.5181 46.0868 65.5181 49.1979 67.4458C52.309 69.3735 52.309 72.6265 49.1979 74.5542Z" fill="url(#paint0_linear)"/>
<path d="M43.7722 10.582L25.0127 42.164L43.7722 53.5643L62.5317 42.164L43.7722 10.582Z" fill="url(#paint1_linear)"/>
<path d="M43.7722 56.7325L25.0127 44.9873L43.7722 72.2256L62.5317 44.9873L43.7722 56.7325Z" fill="url(#paint2_linear)"/>
<path d="M43.7722 10.582L25.0127 42.164L43.7722 53.5643L62.5317 42.164L43.7722 10.582Z" fill="url(#paint3_linear)"/>
<g opacity="0.5" filter="url(#filter0_d)">
<path d="M43.7722 53.5643L25.0127 42.164L43.7722 10.582V53.5643Z" fill="url(#paint4_linear)"/>
</g>
<path d="M43.7722 72.2256L25.0127 44.9873L43.7722 56.7325V72.2256Z" fill="url(#paint5_linear)"/>
<path opacity="0.53" d="M25.0127 42.1646L43.7722 53.5649V33.8379L25.0127 42.1646Z" fill="#D9FAFF"/>
<path opacity="0.15" d="M43.7725 33.8379V53.5649L62.532 42.1646L43.7725 33.8379Z" fill="#D9FAFF"/>
<path d="M43.2912 30.4644L41.2603 30.9721L38.2139 27.9257L40.2448 27.418L43.2912 30.4644Z" fill="url(#paint6_linear)"/>
<path d="M40.2445 27.417L43.2909 30.4634L43.1895 1.92871L2.88574 25.0126V49.0633L40.2445 27.417Z" fill="url(#paint7_linear)"/>
<path d="M43.1894 1.9294L2.88608 25.0127L0 23.0886L40.0414 0L43.1894 1.9294Z" fill="url(#paint8_linear)" fill-opacity="0.5"/>
<path d="M2.88585 25.0129L0 23.0889V47.1395L2.88585 49.0637V25.0129Z" fill="url(#paint9_linear)"/>
<path d="M12.0835 31.9319L9.7493 33.2795L9.7632 34.9738L12.5203 33.382L12.5311 34.7003L8.28976 37.149L8.23144 30.0399L12.4812 27.5863L12.4921 28.9095L9.72655 30.5062L9.73884 32.0051L12.0731 30.6575L12.0835 31.9319ZM15.4029 30.5207L14.5994 30.9846L14.62 33.4943L13.1358 34.3512L13.0775 27.2421L15.5005 25.8431C16.2306 25.4216 16.803 25.2792 17.2177 25.4159C17.6323 25.5526 17.8425 25.9627 17.8481 26.6463C17.8521 27.1411 17.7681 27.6017 17.596 28.0281C17.4267 28.4529 17.1582 28.8728 16.7906 29.2878L18.0996 31.4117L18.1002 31.485L16.5102 32.403L15.4029 30.5207ZM14.5886 29.6614L15.5273 29.1194C15.8093 28.9566 16.02 28.7499 16.1596 28.4993C16.3019 28.2438 16.3718 27.963 16.3693 27.657C16.3668 27.351 16.293 27.1533 16.1478 27.0638C16.0026 26.971 15.7904 27.0052 15.5113 27.1663L14.5726 27.7083L14.5886 29.6614ZM23.7468 25.8064C23.7312 26.3125 23.6192 26.8171 23.4109 27.32C23.2025 27.8196 22.9075 28.2843 22.5258 28.714C22.147 29.142 21.7123 29.4977 21.2217 29.7809C20.4127 30.248 19.773 30.3115 19.3029 29.9713C18.8328 29.6312 18.5931 28.9061 18.584 27.7961L18.5811 27.4446C18.5754 26.748 18.6747 26.0791 18.8791 25.4378C19.0862 24.7917 19.386 24.2131 19.7783 23.702C20.1706 23.1877 20.6262 22.7808 21.1449 22.4813C21.8919 22.05 22.4943 21.9312 22.9519 22.1248C23.4095 22.3153 23.6725 22.7913 23.7411 23.553L22.2611 24.4075C22.2462 23.9811 22.1493 23.7247 21.9701 23.6385C21.791 23.5522 21.5195 23.6141 21.1559 23.824C20.7866 24.0373 20.5173 24.353 20.3479 24.7713C20.1786 25.1896 20.0925 25.7511 20.0898 26.4558L20.0939 26.9587C20.1002 27.7172 20.1864 28.2119 20.3525 28.443C20.5215 28.6725 20.8076 28.6709 21.2107 28.4381C21.5518 28.2412 21.8118 27.9979 21.9907 27.7082C22.1696 27.4185 22.2631 27.0685 22.271 26.6584L23.7468 25.8064ZM27.1676 23.8117L24.6262 25.279L24.6158 24.0046L27.1572 22.5374L27.1676 23.8117ZM32.5748 23.128L28.2785 25.6085L28.2697 24.5343L30.229 20.9895C30.7115 20.0667 30.9511 19.4165 30.948 19.0389C30.9455 18.7329 30.8858 18.5335 30.7689 18.4407C30.652 18.348 30.4837 18.3651 30.2638 18.492C30.0467 18.6173 29.8714 18.8265 29.7378 19.1194C29.6043 19.4092 29.5388 19.7135 29.5414 20.0325L28.1121 20.8577C28.1085 20.4215 28.1997 19.965 28.3855 19.4881C28.5714 19.008 28.8312 18.5669 29.1649 18.1649C29.4987 17.7629 29.8728 17.4423 30.2872 17.203C30.9525 16.8189 31.4656 16.7009 31.8265 16.849C32.1903 16.9954 32.3749 17.4007 32.3803 18.0647C32.3826 18.3447 32.3398 18.6442 32.2518 18.9632C32.1637 19.2789 32.025 19.6386 31.8357 20.0422C31.6492 20.441 31.3466 21.0066 30.9277 21.739L30.1414 23.2575L32.5644 21.8586L32.5748 23.128ZM37.545 17.3396C37.5529 18.2998 37.3715 19.1486 37.0008 19.8859C36.633 20.6215 36.1094 21.1855 35.43 21.5778C34.7449 21.9733 34.2128 22.0172 33.8336 21.7096C33.4543 21.402 33.2608 20.7713 33.253 19.8176L33.2423 18.5188C33.2344 17.5586 33.4144 16.7106 33.7823 15.9749C34.1529 15.2377 34.6794 14.6721 35.3616 14.2782C36.0438 13.8843 36.5745 13.8412 36.9538 14.1488C37.333 14.4564 37.5266 15.0887 37.5344 16.0457L37.545 17.3396ZM36.1076 16.6536C36.1034 16.1425 36.0425 15.7951 35.9249 15.6111C35.8072 15.424 35.6229 15.4028 35.372 15.5477C35.1267 15.6893 34.9487 15.9098 34.8379 16.2093C34.7298 16.5071 34.6735 16.8961 34.669 17.3762L34.6839 19.1926C34.6882 19.7232 34.7492 20.0788 34.8668 20.2594C34.9844 20.4368 35.1687 20.4531 35.4196 20.3083C35.662 20.1683 35.84 19.9461 35.9537 19.6418C36.0673 19.3342 36.1234 18.924 36.122 18.4113L36.1076 16.6536Z" fill="white"/>
</g>
<defs>
<filter id="filter0_d" x="5.0127" y="0.582031" width="58.7595" height="82.9823" filterUnits="userSpaceOnUse" color-interpolation-filters="sRGB">
<feFlood flood-opacity="0" result="BackgroundImageFix"/>
<feColorMatrix in="SourceAlpha" type="matrix" values="0 0 0 0 0 0 0 0 0 0 0 0 0 0 0 0 0 0 127 0"/>
<feOffset dy="10"/>
<feGaussianBlur stdDeviation="10"/>
<feColorMatrix type="matrix" values="0 0 0 0 0.531573 0 0 0 0 0.470652 0 0 0 0 0.675284 0 0 0 0.2 0"/>
<feBlend mode="normal" in2="BackgroundImageFix" result="effect1_dropShadow"/>
<feBlend mode="normal" in="SourceGraphic" in2="effect1_dropShadow" result="shape"/>
</filter>
<linearGradient id="paint0_linear" x1="38.4404" y1="62.947" x2="46.2016" y2="77.6163" gradientUnits="userSpaceOnUse">
<stop stop-color="#CFC2BA"/>
<stop offset="0.6" stop-color="#BAAEA8"/>
<stop offset="1" stop-color="#B3A7A1"/>
</linearGradient>
<linearGradient id="paint1_linear" x1="-16.495" y1="32.0699" x2="21.0261" y2="32.0699" gradientUnits="userSpaceOnUse">
<stop stop-color="#4FE0D6"/>
<stop offset="1" stop-color="#4FABE2"/>
</linearGradient>
<linearGradient id="paint2_linear" x1="31.008" y1="49.8462" x2="44.5014" y2="76.0966" gradientUnits="userSpaceOnUse">
<stop stop-color="#C6EE27"/>
<stop offset="1" stop-color="#28F7F7"/>
</linearGradient>
<linearGradient id="paint3_linear" x1="31.008" y1="18.2495" x2="56.6288" y2="49.8357" gradientUnits="userSpaceOnUse">
<stop offset="0.0677083" stop-color="#C6EE27"/>
<stop offset="1" stop-color="#28F7F7"/>
</linearGradient>
<linearGradient id="paint4_linear" x1="28.0103" y1="18.2495" x2="51.4026" y2="32.6689" gradientUnits="userSpaceOnUse">
<stop stop-color="#C6EE27"/>
<stop offset="1" stop-color="#28F7F7"/>
</linearGradient>
<linearGradient id="paint5_linear" x1="28.0103" y1="49.8462" x2="44.5971" y2="65.9804" gradientUnits="userSpaceOnUse">
<stop stop-color="#C6EE27"/>
<stop offset="1" stop-color="#28F7F7"/>
</linearGradient>
<linearGradient id="paint6_linear" x1="38.8893" y1="28.052" x2="41.2037" y2="31.3583" gradientUnits="userSpaceOnUse">
<stop stop-color="#BCEB00"/>
<stop offset="1" stop-color="#00EAEA"/>
</linearGradient>
<linearGradient id="paint7_linear" x1="15.2043" y1="9.718" x2="41.7309" y2="38.2959" gradientUnits="userSpaceOnUse">
<stop stop-color="#C6EE27"/>
<stop offset="1" stop-color="#28F7F7"/>
</linearGradient>
<linearGradient id="paint8_linear" x1="11.5851" y1="3.78595" x2="24.376" y2="25.7569" gradientUnits="userSpaceOnUse">
<stop stop-color="#BCEB00"/>
<stop offset="1" stop-color="#00EAEA"/>
</linearGradient>
<linearGradient id="paint9_linear" x1="0.383892" y1="27.7224" x2="4.33516" y2="28.1614" gradientUnits="userSpaceOnUse">
<stop stop-color="#BCEB00"/>
<stop offset="1" stop-color="#00EAEA"/>
</linearGradient>
<clipPath id="clip0">
<rect width="76" height="76" fill="white"/>
</clipPath>
</defs>
</svg>
