<svg width="61" height="55" viewBox="0 0 61 55" fill="none" xmlns="http://www.w3.org/2000/svg">
<g filter="url(#filter0_dd)">
<path d="M21.4264 25.96V21.4434H15.0443V20.2057H21.1632V15.8846H15.0443V14.6251H21.3606V10.3257H10V25.96H21.4264Z" fill="white"/>
<path d="M28.1262 21.1611H29.0034C30.1 21.1611 30.5167 21.4869 30.5167 22.7029V24.9611C30.5167 25.4823 30.6483 25.808 30.9115 25.96H36.0873C35.89 25.7863 35.6926 25.504 35.6926 25.048V22.464C35.6926 20.7486 35.1443 19.728 34.1135 19.1851C35.3417 18.4251 36.0654 17.2309 36.0654 15.32C36.0654 13.3223 35.2539 11.8023 33.4117 10.9554C32.4686 10.5211 31.2624 10.3257 29.7052 10.3257H23.0819V25.96H28.1262V21.1611ZM28.1262 14.56H29.5736C30.5167 14.56 30.8895 14.9943 30.8895 15.6674C30.8895 16.2971 30.5386 16.8183 29.5736 16.8183H28.1262V14.56Z" fill="white"/>
<path d="M43.9819 26.2857C46.7672 26.2857 48.9165 25.4823 50.1227 23.528C50.7149 22.5291 51 21.2263 51 19.576V18.7943H45.5171V19.3589C45.4952 20.8789 45.1004 21.6389 44.0696 21.6389C42.9511 21.6389 42.6002 20.9006 42.6002 18.9463V17.296C42.6002 15.32 42.9511 14.56 44.0696 14.56C45.1881 14.56 45.5171 15.2114 45.5171 16.7314V17.2309H50.9561V16.2754C50.9561 11.9326 48.4121 10 44.0915 10C41.3501 10 39.2666 10.912 38.0823 12.9749C37.534 13.9954 37.2269 15.32 37.2269 16.9486V19.5109C37.2269 24.3314 39.464 26.2857 43.9819 26.2857Z" fill="white"/>
<path d="M16.3298 44.6743H29.3791V40.0709H22.3829C22.4487 39.8103 23.2382 39.5714 24.3348 39.2457C25.4533 38.92 26.6815 38.464 27.7781 37.6389C28.8308 36.8137 29.5545 35.6411 29.5545 33.8171C29.5545 30.6469 27.4052 28.736 22.975 28.736C18.4133 28.736 16.3956 30.7337 16.3956 34.1863V35.0114H21.6591V34.4686C21.6591 33.6869 21.9223 33.0354 23.0408 33.0354C23.9181 33.0354 24.3567 33.3829 24.3567 34.1211C24.3567 34.7291 23.7427 35.1417 22.7777 35.4674C22.3171 35.6411 21.7907 35.8149 21.2424 35.9886C20.102 36.3577 18.8958 36.8137 17.9308 37.5737C16.9658 38.2903 16.3298 39.376 16.3298 40.9829V44.6743Z" fill="white"/>
<path d="M37.368 45C40.0437 45 42.1272 44.0011 43.3334 41.8731C43.9256 40.7874 44.2107 39.4629 44.2107 37.8343V35.88C44.2107 32.6011 42.9387 30.5166 40.8771 29.496C39.8244 28.9749 38.6839 28.7143 37.368 28.7143C34.6266 28.7143 32.5211 29.7131 31.3807 31.8411C30.8324 32.9269 30.5254 34.2514 30.5254 35.88V37.8343C30.5254 42.7417 33.1133 45 37.368 45ZM37.368 40.44C36.2495 40.44 35.8986 39.5497 35.8986 37.5954V36.1189C35.8986 34.1429 36.2495 33.2743 37.368 33.2743C38.4865 33.2743 38.8155 34.0777 38.8155 36.1189V37.5954C38.8155 39.6366 38.4865 40.44 37.368 40.44Z" fill="white"/>
</g>
<defs>
<filter id="filter0_dd" x="0.65" y="0.65" width="59.7" height="53.7" filterUnits="userSpaceOnUse" color-interpolation-filters="sRGB">
<feFlood flood-opacity="0" result="BackgroundImageFix"/>
<feColorMatrix in="SourceAlpha" type="matrix" values="0 0 0 0 0 0 0 0 0 0 0 0 0 0 0 0 0 0 127 0"/>
<feOffset dx="-2" dy="-2"/>
<feGaussianBlur stdDeviation="3.675"/>
<feColorMatrix type="matrix" values="0 0 0 0 0.74902 0 0 0 0 0.937255 0 0 0 0 0 0 0 0 1 0"/>
<feBlend mode="normal" in2="BackgroundImageFix" result="effect1_dropShadow"/>
<feColorMatrix in="SourceAlpha" type="matrix" values="0 0 0 0 0 0 0 0 0 0 0 0 0 0 0 0 0 0 127 0"/>
<feOffset dx="2" dy="2"/>
<feGaussianBlur stdDeviation="3.675"/>
<feColorMatrix type="matrix" values="0 0 0 0 0.364706 0 0 0 0 0.968627 0 0 0 0 0.643137 0 0 0 1 0"/>
<feBlend mode="normal" in2="effect1_dropShadow" result="effect2_dropShadow"/>
<feBlend mode="normal" in="SourceGraphic" in2="effect2_dropShadow" result="shape"/>
</filter>
</defs>
</svg>
