<svg width="27" height="22" viewBox="0 0 27 22" fill="none" xmlns="http://www.w3.org/2000/svg">
<path d="M25.4166 0.502546C22.8478 0.648327 17.7422 1.17895 14.5903 3.10833C14.3728 3.24145 14.2495 3.47817 14.2495 3.72567V20.7821C14.2495 21.3235 14.8416 21.6657 15.3408 21.4144C18.5836 19.7822 23.2734 19.3369 25.5923 19.215C26.3841 19.1733 26.9995 18.5386 26.9995 17.7779V1.94161C27 1.11145 26.28 0.453796 25.4166 0.502546ZM12.4092 3.10833C9.25781 1.17895 4.15219 0.648796 1.58344 0.502546C0.72 0.453796 0 1.11145 0 1.94161V17.7783C0 18.5396 0.615469 19.1743 1.40719 19.2155C3.72703 19.3374 8.41922 19.7832 11.662 21.4163C12.1598 21.6671 12.75 21.3254 12.75 20.7854V3.71723C12.75 3.46926 12.6272 3.24192 12.4092 3.10833Z" fill="white"/>
</svg>
