<svg width="20" height="20" viewBox="0 0 20 20" fill="none" xmlns="http://www.w3.org/2000/svg">
<path d="M10 18C13.294 18 16 15.3896 16 12.0392C16 11.2168 15.958 10.3352 15.502 8.9648C15.046 7.5944 14.9544 7.4176 14.4724 6.5712C14.2953 8.05573 13.456 8.79615 13.0461 9.11143C12.9803 9.16199 12.8684 9.11525 12.8503 9.0343C12.7025 8.37316 12.0846 6.33888 11.2072 5.0532C10.2148 3.6 8.8652 2.6468 8.074 2C8.074 3.228 7.7288 5.0536 7.234 5.984C6.7396 6.914 6.6468 6.948 6.0288 7.64C5.4112 8.332 5.1276 8.546 4.6108 9.386C4.0944 10.226 4 11.3448 4 12.1672C4 15.5176 6.706 18 10 18Z" stroke="#FF4949"/>
</svg>
