<svg width="64" height="64" viewBox="0 0 64 64" fill="none" xmlns="http://www.w3.org/2000/svg">
<g filter="url(#filter0_dd)">
<path d="M35.1428 11.5714V10.7859C35.1428 10.3518 34.791 10 34.3572 10H12.7859C11.5 10 10 10.5 10 12.7859V46.9286C10 47.3627 10.3518 47.7141 10.7859 47.7141H13.1428V13.9286C13.1428 12.6268 14.1982 11.5714 15.5 11.5714H35.1428Z" fill="black"/>
<path d="M42.2142 19.4284H43.4607L41.4287 17.3965V18.6426C41.4287 19.0766 41.7805 19.4284 42.2142 19.4284Z" fill="black"/>
<path d="M39.857 14.714V13.9284C39.857 13.4944 39.5052 13.1426 39.0711 13.1426H17C15.5 13.1426 14.7139 14 14.7139 15.5V50.0712C14.7139 50.5052 15.0657 50.8571 15.4997 50.8571H17.857V17.0712C17.857 15.7694 18.912 14.714 20.2139 14.714H39.857Z" fill="black"/>
<path d="M37.5001 47.1904C37.5001 44.2165 39.531 41.9405 41.1632 40.112C42.274 38.8665 43.3237 37.6913 43.3237 36.7477C43.3469 35.2377 43.0451 33.7408 42.4391 32.3578C42.2814 32.0486 42.3455 31.6723 42.5966 31.4326C42.8477 31.1929 43.2263 31.1463 43.5281 31.3181C43.6067 31.3638 43.9931 31.587 44.5715 31.9563V21.0003H42.2142C40.9124 21.0003 39.8573 19.9449 39.8573 18.643V16.2861H22.2142C20.5 16.2861 19.4287 17 19.4287 19.0717V53.2144C19.4287 53.6485 19.7805 54.0003 20.2142 54.0003H40.6224C38.6307 52.5679 37.5001 50.2187 37.5001 47.1904Z" fill="black"/>
<path d="M43.7861 51.014C43.7861 52.4478 44.52 53.9886 46.1289 53.9997H46.1635C47.7681 53.9832 48.5003 52.4454 48.5003 51.014C48.5003 49.2305 46.9752 47.3573 46.143 46.4688C45.3112 47.3573 43.7861 49.2305 43.7861 51.014Z" fill="black"/>
<path d="M44.576 33.8506C44.7885 34.8016 44.8952 35.7728 44.8949 36.7469C44.8949 38.2901 43.6522 39.6823 42.3352 41.158C40.8055 42.8723 39.0713 44.8153 39.0713 47.1897C39.0713 50.2918 40.3842 52.4393 42.7585 53.4104C42.397 52.6635 42.2107 51.8438 42.2141 51.0139C42.2141 47.8712 45.478 44.8979 45.617 44.773C45.9161 44.5038 46.3696 44.5038 46.6684 44.773C46.8073 44.8979 50.0713 47.8712 50.0713 51.0139C50.076 51.8602 49.8826 52.6961 49.5063 53.4544C51.833 52.6393 53.9999 50.6927 53.9999 46.2407C53.9999 40.9653 47.7631 36.0286 44.576 33.8506Z" fill="black"/>
</g>
<defs>
<filter id="filter0_dd" x="0.65" y="0.65" width="62.6999" height="62.7003" filterUnits="userSpaceOnUse" color-interpolation-filters="sRGB">
<feFlood flood-opacity="0" result="BackgroundImageFix"/>
<feColorMatrix in="SourceAlpha" type="matrix" values="0 0 0 0 0 0 0 0 0 0 0 0 0 0 0 0 0 0 127 0" result="hardAlpha"/>
<feOffset dx="-2" dy="-2"/>
<feGaussianBlur stdDeviation="3.675"/>
<feColorMatrix type="matrix" values="0 0 0 0 0.74902 0 0 0 0 0.937255 0 0 0 0 0 0 0 0 1 0"/>
<feBlend mode="normal" in2="BackgroundImageFix" result="effect1_dropShadow"/>
<feColorMatrix in="SourceAlpha" type="matrix" values="0 0 0 0 0 0 0 0 0 0 0 0 0 0 0 0 0 0 127 0" result="hardAlpha"/>
<feOffset dx="2" dy="2"/>
<feGaussianBlur stdDeviation="3.675"/>
<feColorMatrix type="matrix" values="0 0 0 0 0.364706 0 0 0 0 0.968627 0 0 0 0 0.643137 0 0 0 1 0"/>
<feBlend mode="normal" in2="effect1_dropShadow" result="effect2_dropShadow"/>
<feBlend mode="normal" in="SourceGraphic" in2="effect2_dropShadow" result="shape"/>
</filter>
</defs>
</svg>
