<svg width="20" height="20" viewBox="0 0 20 20" fill="none" xmlns="http://www.w3.org/2000/svg">
<path fill-rule="evenodd" clip-rule="evenodd" d="M16 9.25H14.5C14.0858 9.25 13.75 9.58579 13.75 10C13.75 10.4142 14.0858 10.75 14.5 10.75H16C17.5188 10.75 18.75 9.51878 18.75 8V5C18.75 3.48122 17.5188 2.25 16 2.25H4C2.48122 2.25 1.25 3.48122 1.25 5V8C1.25 9.51878 2.48122 10.75 4 10.75H5.5C5.91421 10.75 6.25 10.4142 6.25 10C6.25 9.58579 5.91421 9.25 5.5 9.25H4C3.30964 9.25 2.75 8.69035 2.75 8L2.75 5C2.75 4.30964 3.30964 3.75 4 3.75L16 3.75C16.6904 3.75 17.25 4.30965 17.25 5V8C17.25 8.69036 16.6904 9.25 16 9.25ZM9.46884 18.5295L5.46967 14.5303C5.17678 14.2374 5.17678 13.7626 5.46967 13.4697C5.76256 13.1768 6.23744 13.1768 6.53033 13.4697L9.25 16.1893V7C9.25 6.58579 9.58579 6.25 10 6.25C10.4142 6.25 10.75 6.58579 10.75 7V16.1893L13.4697 13.4697C13.7626 13.1768 14.2374 13.1768 14.5303 13.4697C14.8232 13.7626 14.8232 14.2374 14.5303 14.5303L10.5308 18.5298L10.5303 18.5303C10.5287 18.532 10.5271 18.5336 10.5254 18.5352C10.4552 18.6041 10.3749 18.6565 10.2892 18.6922M9.46884 18.5295C9.47185 18.5325 9.47488 18.5355 9.47793 18.5385C9.47828 18.5388 9.47863 18.5391 9.47899 18.5395C9.54829 18.6065 9.62732 18.6575 9.71143 18.6925C9.80026 18.7295 9.89774 18.75 10 18.75C10.0129 18.75 10.0258 18.7497 10.0386 18.749C10.1265 18.7446 10.2104 18.725 10.2878 18.6928" fill="#FF4949"/>
</svg>
