<svg width="14" height="11" viewBox="0 0 14 11" fill="none" xmlns="http://www.w3.org/2000/svg">
<path d="M9.07812 7.5H10.1445C10.3086 7.5 10.5 7.33594 10.5 7.17188V3.48047C10.5 3.31641 10.3086 3.125 10.1445 3.125H9.07812C8.91406 3.125 8.75 3.31641 8.75 3.48047V7.17188C8.75 7.33594 8.91406 7.5 9.07812 7.5ZM11.7031 7.5H12.7695C12.9336 7.5 13.125 7.33594 13.125 7.17188V0.855469C13.125 0.691406 12.9336 0.5 12.7695 0.5H11.7031C11.5391 0.5 11.375 0.691406 11.375 0.855469V7.17188C11.375 7.33594 11.5391 7.5 11.7031 7.5ZM3.82812 7.5H4.89453C5.05859 7.5 5.25 7.33594 5.25 7.17188V5.23047C5.25 5.06641 5.05859 4.875 4.89453 4.875H3.82812C3.66406 4.875 3.5 5.06641 3.5 5.23047V7.17188C3.5 7.33594 3.66406 7.5 3.82812 7.5ZM6.45312 7.5H7.51953C7.68359 7.5 7.875 7.33594 7.875 7.17188V1.73047C7.875 1.56641 7.68359 1.375 7.51953 1.375H6.45312C6.28906 1.375 6.125 1.56641 6.125 1.73047V7.17188C6.125 7.33594 6.28906 7.5 6.45312 7.5ZM13.5625 9.25H1.75V0.9375C1.75 0.71875 1.53125 0.5 1.3125 0.5H0.4375C0.191406 0.5 0 0.71875 0 0.9375V10.125C0 10.6172 0.382812 11 0.875 11H13.5625C13.7812 11 14 10.8086 14 10.5625V9.6875C14 9.46875 13.7812 9.25 13.5625 9.25Z" fill="black"/>
</svg>
