<svg width="612" height="393" viewBox="0 0 612 393" fill="none" xmlns="http://www.w3.org/2000/svg">
<g filter="url(#filter0_d)">
<rect x="36" y="26" width="540" height="321" rx="12" fill="white"/>
</g>
<path d="M86.8716 80V71.1579H90.4463C91.0021 71.1579 91.4905 71.2674 91.9116 71.4863C92.3326 71.7053 92.6653 72.0168 92.9095 72.4211C93.1537 72.8168 93.2758 73.2884 93.2758 73.8358V74.0126C93.2758 74.5516 93.1495 75.0232 92.8968 75.4274C92.6526 75.8316 92.3158 76.1432 91.8863 76.3621C91.4653 76.5811 90.9853 76.6905 90.4463 76.6905H88.4V80H86.8716ZM88.4 75.3137H90.2947C90.7326 75.3137 91.0821 75.1958 91.3432 74.96C91.6126 74.7242 91.7474 74.4 91.7474 73.9874V73.8611C91.7474 73.4484 91.6168 73.1242 91.3558 72.8884C91.0947 72.6526 90.7411 72.5347 90.2947 72.5347H88.4V75.3137ZM97.3286 80.1768C96.7054 80.1768 96.1454 80.0505 95.6486 79.7979C95.1601 79.5368 94.7728 79.1705 94.4864 78.6989C94.2086 78.2189 94.0696 77.6463 94.0696 76.9811V76.7789C94.0696 76.1137 94.2086 75.5411 94.4864 75.0611C94.7728 74.5811 95.1601 74.2147 95.6486 73.9621C96.1454 73.7095 96.7054 73.5832 97.3286 73.5832C97.9517 73.5832 98.5075 73.7095 98.9959 73.9621C99.4843 74.2147 99.8675 74.5811 100.145 75.0611C100.432 75.5411 100.575 76.1137 100.575 76.7789V76.9811C100.575 77.6463 100.432 78.2189 100.145 78.6989C99.8675 79.1705 99.4843 79.5368 98.9959 79.7979C98.5075 80.0505 97.9517 80.1768 97.3286 80.1768ZM97.3286 78.8884C97.8591 78.8884 98.2928 78.72 98.6296 78.3832C98.9664 78.0379 99.1349 77.5579 99.1349 76.9432V76.8168C99.1349 76.2021 98.9664 75.7263 98.6296 75.3895C98.2928 75.0442 97.8591 74.8716 97.3286 74.8716C96.798 74.8716 96.3643 75.0442 96.0275 75.3895C95.6907 75.7263 95.5222 76.2021 95.5222 76.8168V76.9432C95.5222 77.5579 95.6907 78.0379 96.0275 78.3832C96.3643 78.72 96.798 78.8884 97.3286 78.8884ZM102.119 80V71.1579H103.572V80H102.119ZM106.108 82.5263V81.2632H109.556C109.792 81.2632 109.91 81.1368 109.91 80.8842V79.1411H109.695C109.628 79.2926 109.518 79.4442 109.367 79.5958C109.215 79.7389 109.013 79.8611 108.76 79.9621C108.508 80.0547 108.188 80.1011 107.8 80.1011C107.32 80.1011 106.895 79.9958 106.525 79.7853C106.154 79.5663 105.868 79.2632 105.666 78.8758C105.464 78.48 105.363 78.0211 105.363 77.4989V73.76H106.803V77.3853C106.803 77.8905 106.925 78.2653 107.169 78.5095C107.421 78.7537 107.775 78.8758 108.23 78.8758C108.744 78.8758 109.148 78.7074 109.443 78.3705C109.746 78.0337 109.897 77.5495 109.897 76.9179V73.76H111.337V81.1874C111.337 81.6 111.219 81.9242 110.984 82.16C110.748 82.4042 110.428 82.5263 110.024 82.5263H106.108ZM113.184 80V73.76H114.612V74.4547H114.827C114.936 74.2442 115.117 74.0589 115.37 73.8989C115.631 73.7305 115.976 73.6463 116.405 73.6463C116.86 73.6463 117.227 73.7389 117.504 73.9242C117.782 74.1095 117.993 74.3453 118.136 74.6316H118.338C118.481 74.3453 118.688 74.1095 118.957 73.9242C119.227 73.7389 119.61 73.6463 120.107 73.6463C120.494 73.6463 120.843 73.7305 121.155 73.8989C121.475 74.0674 121.728 74.3158 121.913 74.6442C122.107 74.9726 122.203 75.3811 122.203 75.8695V80H120.751V75.9705C120.751 75.6084 120.654 75.3347 120.46 75.1495C120.267 74.9558 119.997 74.8589 119.652 74.8589C119.273 74.8589 118.97 74.9853 118.742 75.2379C118.523 75.4821 118.414 75.8358 118.414 76.2989V80H116.974V75.9705C116.974 75.6084 116.877 75.3347 116.683 75.1495C116.49 74.9558 116.22 74.8589 115.875 74.8589C115.488 74.8589 115.184 74.9853 114.965 75.2379C114.747 75.4821 114.637 75.8358 114.637 76.2989V80H113.184ZM126.946 80.1768C126.323 80.1768 125.763 80.0505 125.266 79.7979C124.778 79.5368 124.39 79.1705 124.104 78.6989C123.826 78.2189 123.687 77.6463 123.687 76.9811V76.7789C123.687 76.1137 123.826 75.5411 124.104 75.0611C124.39 74.5811 124.778 74.2147 125.266 73.9621C125.763 73.7095 126.323 73.5832 126.946 73.5832C127.569 73.5832 128.125 73.7095 128.614 73.9621C129.102 74.2147 129.485 74.5811 129.763 75.0611C130.049 75.5411 130.192 76.1137 130.192 76.7789V76.9811C130.192 77.6463 130.049 78.2189 129.763 78.6989C129.485 79.1705 129.102 79.5368 128.614 79.7979C128.125 80.0505 127.569 80.1768 126.946 80.1768ZM126.946 78.8884C127.477 78.8884 127.91 78.72 128.247 78.3832C128.584 78.0379 128.752 77.5579 128.752 76.9432V76.8168C128.752 76.2021 128.584 75.7263 128.247 75.3895C127.91 75.0442 127.477 74.8716 126.946 74.8716C126.416 74.8716 125.982 75.0442 125.645 75.3895C125.308 75.7263 125.14 76.2021 125.14 76.8168V76.9432C125.14 77.5579 125.308 78.0379 125.645 78.3832C125.982 78.72 126.416 78.8884 126.946 78.8884ZM131.737 80V73.76L133.164 73.76V74.48H133.379C133.472 74.2189 133.628 74.0295 133.847 73.9116C134.065 73.7937 134.327 73.7347 134.63 73.7347H135.388V75.0232H134.604C134.183 75.0232 133.842 75.1368 133.581 75.3642C133.32 75.5832 133.19 75.9242 133.19 76.3874V80H131.737ZM136.671 82.5263V73.76H138.099V74.5811H138.313C138.457 74.32 138.684 74.0884 138.995 73.8863C139.315 73.6842 139.77 73.5832 140.36 73.5832C140.865 73.5832 141.332 73.7095 141.762 73.9621C142.2 74.2063 142.549 74.5684 142.81 75.0484C143.071 75.5284 143.202 76.1053 143.202 76.7789V76.9811C143.202 77.6547 143.071 78.2316 142.81 78.7116C142.549 79.1916 142.204 79.5579 141.774 79.8105C141.345 80.0547 140.873 80.1768 140.36 80.1768C139.964 80.1768 139.631 80.1305 139.362 80.0379C139.101 79.9453 138.886 79.8232 138.718 79.6716C138.558 79.52 138.431 79.3684 138.339 79.2168H138.124V82.5263H136.671ZM139.93 78.9137C140.461 78.9137 140.894 78.7453 141.231 78.4084C141.577 78.0632 141.749 77.5747 141.749 76.9432V76.8168C141.749 76.1768 141.577 75.6884 141.231 75.3516C140.886 75.0147 140.452 74.8463 139.93 74.8463C139.408 74.8463 138.97 75.0147 138.617 75.3516C138.271 75.6884 138.099 76.1768 138.099 76.8168V76.9432C138.099 77.5747 138.271 78.0632 138.617 78.4084C138.97 78.7453 139.408 78.9137 139.93 78.9137ZM144.739 80V71.1579H146.191V74.5811H146.406C146.473 74.4379 146.583 74.2947 146.735 74.1516C146.886 74.0084 147.084 73.8905 147.328 73.7979C147.581 73.7053 147.897 73.6589 148.276 73.6589C148.756 73.6589 149.181 73.7684 149.551 73.9874C149.922 74.1979 150.208 74.4968 150.41 74.8842C150.621 75.2716 150.726 75.7305 150.726 76.2611V80H149.273V76.3747C149.273 75.8695 149.147 75.4947 148.895 75.2505C148.65 74.9979 148.301 74.8716 147.846 74.8716C147.332 74.8716 146.928 75.0442 146.633 75.3895C146.339 75.7263 146.191 76.2105 146.191 76.8421V80H144.739ZM155.679 80V71.1579H159.254C159.81 71.1579 160.298 71.2674 160.719 71.4863C161.14 71.7053 161.473 72.0168 161.717 72.4211C161.961 72.8168 162.083 73.2884 162.083 73.8358V74.0126C162.083 74.5516 161.957 75.0232 161.704 75.4274C161.46 75.8316 161.123 76.1432 160.694 76.3621C160.273 76.5811 159.793 76.6905 159.254 76.6905H157.208V80H155.679ZM157.208 75.3137H159.102C159.54 75.3137 159.89 75.1958 160.151 74.96C160.42 74.7242 160.555 74.4 160.555 73.9874V73.8611C160.555 73.4484 160.424 73.1242 160.163 72.8884C159.902 72.6526 159.549 72.5347 159.102 72.5347H157.208V75.3137ZM163.341 80V73.76H164.768V74.48H164.983C165.075 74.2189 165.231 74.0295 165.45 73.9116C165.669 73.7937 165.93 73.7347 166.233 73.7347H166.991V75.0232H166.208C165.787 75.0232 165.446 75.1368 165.185 75.3642C164.924 75.5832 164.793 75.9242 164.793 76.3874V80H163.341ZM168.275 80V73.76H169.728V80H168.275ZM168.995 72.9642C168.734 72.9642 168.506 72.88 168.313 72.7116C168.128 72.5347 168.035 72.3032 168.035 72.0168C168.035 71.7305 168.128 71.5032 168.313 71.3347C168.506 71.1579 168.734 71.0695 168.995 71.0695C169.273 71.0695 169.5 71.1579 169.677 71.3347C169.862 71.5032 169.955 71.7305 169.955 72.0168C169.955 72.3032 169.862 72.5347 169.677 72.7116C169.5 72.88 169.273 72.9642 168.995 72.9642ZM174.486 80.1768C173.88 80.1768 173.333 80.0505 172.844 79.7979C172.356 79.5453 171.968 79.1789 171.682 78.6989C171.404 78.2189 171.265 77.6421 171.265 76.9684V76.7916C171.265 76.1179 171.404 75.5411 171.682 75.0611C171.968 74.5811 172.356 74.2147 172.844 73.9621C173.333 73.7095 173.88 73.5832 174.486 73.5832C175.084 73.5832 175.594 73.6884 176.015 73.8989C176.444 74.1095 176.79 74.4 177.051 74.7705C177.312 75.1326 177.48 75.5411 177.556 75.9958L176.154 76.2863C176.12 76.0253 176.04 75.7895 175.914 75.5789C175.787 75.36 175.606 75.1874 175.371 75.0611C175.143 74.9347 174.861 74.8716 174.524 74.8716C174.179 74.8716 173.867 74.9474 173.59 75.0989C173.32 75.2421 173.105 75.4611 172.945 75.7558C172.794 76.0505 172.718 76.4042 172.718 76.8168V76.9432C172.718 77.3558 172.794 77.7095 172.945 78.0042C173.105 78.2905 173.32 78.5095 173.59 78.6611C173.867 78.8126 174.179 78.8884 174.524 78.8884C175.038 78.8884 175.425 78.7579 175.686 78.4968C175.956 78.2274 176.124 77.8821 176.192 77.4611L177.594 77.7895C177.493 78.2274 177.312 78.6274 177.051 78.9895C176.79 79.3516 176.444 79.6421 176.015 79.8611C175.594 80.0716 175.084 80.1768 174.486 80.1768ZM181.862 80.1768C181.238 80.1768 180.687 80.0463 180.207 79.7853C179.735 79.5158 179.365 79.1411 179.095 78.6611C178.834 78.1726 178.704 77.6042 178.704 76.9558V76.8042C178.704 76.1474 178.834 75.5789 179.095 75.0989C179.356 74.6189 179.723 74.2484 180.194 73.9874C180.666 73.7179 181.209 73.5832 181.824 73.5832C182.43 73.5832 182.961 73.7179 183.415 73.9874C183.87 74.2484 184.224 74.6189 184.476 75.0989C184.729 75.5789 184.855 76.1389 184.855 76.7789V77.2968H180.169C180.186 77.7853 180.358 78.1768 180.687 78.4716C181.015 78.7663 181.419 78.9137 181.899 78.9137C182.371 78.9137 182.721 78.8126 182.948 78.6105C183.175 78.4 183.348 78.1642 183.466 77.9032L184.666 78.5221C184.548 78.7495 184.375 78.9937 184.148 79.2547C183.929 79.5074 183.634 79.7263 183.264 79.9116C182.893 80.0884 182.426 80.1768 181.862 80.1768ZM180.182 76.1979H183.377C183.344 75.7853 183.184 75.4568 182.897 75.2126C182.619 74.9684 182.257 74.8463 181.811 74.8463C181.348 74.8463 180.977 74.9684 180.699 75.2126C180.422 75.4568 180.249 75.7853 180.182 76.1979Z" fill="black"/>
<path d="M460.26 310.36C459.586 310.36 458.988 310.243 458.466 310.007C457.952 309.763 457.548 309.413 457.253 308.958C456.958 308.504 456.811 307.948 456.811 307.291V306.963H458.314V307.291C458.314 307.872 458.491 308.306 458.845 308.592C459.198 308.878 459.67 309.021 460.26 309.021C460.857 309.021 461.308 308.899 461.611 308.655C461.914 308.411 462.066 308.095 462.066 307.708C462.066 307.447 461.994 307.236 461.851 307.076C461.708 306.908 461.497 306.773 461.22 306.672C460.95 306.571 460.622 306.474 460.234 306.381L459.855 306.306C459.274 306.171 458.769 306.003 458.34 305.8C457.918 305.59 457.594 305.32 457.367 304.992C457.14 304.664 457.026 304.234 457.026 303.704C457.026 303.173 457.152 302.718 457.405 302.339C457.657 301.96 458.015 301.67 458.478 301.468C458.942 301.266 459.485 301.165 460.108 301.165C460.731 301.165 461.287 301.27 461.775 301.48C462.264 301.691 462.647 302.007 462.925 302.428C463.211 302.849 463.354 303.375 463.354 304.007V304.424H461.851V304.007C461.851 303.645 461.78 303.354 461.636 303.135C461.493 302.916 461.291 302.756 461.03 302.655C460.769 302.554 460.462 302.504 460.108 302.504C459.586 302.504 459.19 302.605 458.921 302.807C458.651 303.009 458.516 303.295 458.516 303.666C458.516 303.901 458.575 304.104 458.693 304.272C458.82 304.432 459.001 304.567 459.236 304.676C459.481 304.777 459.784 304.866 460.146 304.941L460.525 305.03C461.131 305.165 461.662 305.337 462.116 305.548C462.571 305.75 462.925 306.019 463.177 306.356C463.438 306.693 463.569 307.131 463.569 307.67C463.569 308.2 463.43 308.668 463.152 309.072C462.883 309.476 462.5 309.792 462.003 310.019C461.514 310.247 460.933 310.36 460.26 310.36ZM467.338 310.285C466.858 310.285 466.433 310.179 466.062 309.969C465.692 309.75 465.406 309.447 465.204 309.059C465.001 308.664 464.9 308.205 464.9 307.683V303.944H466.34V307.569C466.34 308.074 466.462 308.449 466.707 308.693C466.959 308.937 467.313 309.059 467.768 309.059C468.281 309.059 468.686 308.891 468.98 308.554C469.284 308.217 469.435 307.733 469.435 307.101V303.944H470.875V310.184H469.46V309.312H469.246C469.136 309.539 468.934 309.758 468.639 309.969C468.353 310.179 467.919 310.285 467.338 310.285ZM472.722 312.71V303.944H474.15V304.765H474.364C474.508 304.504 474.735 304.272 475.046 304.07C475.366 303.868 475.821 303.767 476.411 303.767C476.916 303.767 477.383 303.893 477.813 304.146C478.251 304.39 478.6 304.752 478.861 305.232C479.122 305.712 479.253 306.289 479.253 306.963V307.165C479.253 307.838 479.122 308.415 478.861 308.895C478.6 309.375 478.255 309.741 477.825 309.994C477.396 310.238 476.924 310.36 476.411 310.36C476.015 310.36 475.682 310.314 475.413 310.221C475.152 310.129 474.937 310.007 474.769 309.855C474.609 309.704 474.482 309.552 474.39 309.4H474.175V312.71H472.722ZM475.981 309.097C476.512 309.097 476.945 308.929 477.282 308.592C477.628 308.247 477.8 307.758 477.8 307.127V307C477.8 306.36 477.628 305.872 477.282 305.535C476.937 305.198 476.503 305.03 475.981 305.03C475.459 305.03 475.021 305.198 474.668 305.535C474.322 305.872 474.15 306.36 474.15 307V307.127C474.15 307.758 474.322 308.247 474.668 308.592C475.021 308.929 475.459 309.097 475.981 309.097ZM480.79 312.71V303.944H482.217V304.765H482.432C482.575 304.504 482.802 304.272 483.114 304.07C483.434 303.868 483.889 303.767 484.478 303.767C484.983 303.767 485.451 303.893 485.88 304.146C486.318 304.39 486.668 304.752 486.929 305.232C487.19 305.712 487.32 306.289 487.32 306.963V307.165C487.32 307.838 487.19 308.415 486.929 308.895C486.668 309.375 486.322 309.741 485.893 309.994C485.463 310.238 484.992 310.36 484.478 310.36C484.082 310.36 483.75 310.314 483.48 310.221C483.219 310.129 483.004 310.007 482.836 309.855C482.676 309.704 482.55 309.552 482.457 309.4H482.242V312.71H480.79ZM484.049 309.097C484.579 309.097 485.013 308.929 485.35 308.592C485.695 308.247 485.868 307.758 485.868 307.127V307C485.868 306.36 485.695 305.872 485.35 305.535C485.004 305.198 484.571 305.03 484.049 305.03C483.527 305.03 483.089 305.198 482.735 305.535C482.39 305.872 482.217 306.36 482.217 307V307.127C482.217 307.758 482.39 308.247 482.735 308.592C483.089 308.929 483.527 309.097 484.049 309.097ZM488.857 310.184V301.341H490.31V310.184H488.857ZM492.845 312.71V311.447H496.294C496.53 311.447 496.648 311.32 496.648 311.068V309.325H496.433C496.365 309.476 496.256 309.628 496.104 309.779C495.953 309.923 495.751 310.045 495.498 310.146C495.245 310.238 494.925 310.285 494.538 310.285C494.058 310.285 493.633 310.179 493.262 309.969C492.892 309.75 492.605 309.447 492.403 309.059C492.201 308.664 492.1 308.205 492.1 307.683V303.944H493.54V307.569C493.54 308.074 493.662 308.449 493.907 308.693C494.159 308.937 494.513 309.059 494.968 309.059C495.481 309.059 495.885 308.891 496.18 308.554C496.483 308.217 496.635 307.733 496.635 307.101V303.944H498.075V311.371C498.075 311.784 497.957 312.108 497.721 312.344C497.485 312.588 497.165 312.71 496.761 312.71H492.845Z" fill="black"/>
<g opacity="0.5">
<path opacity="0.60681" d="M268.526 98.2145V265.829" stroke="#8097B1" stroke-width="0.526316" stroke-linecap="square" stroke-dasharray="2.11 2.11 2.11"/>
<path opacity="0.60681" d="M192.526 98.2145V265.829" stroke="#8097B1" stroke-width="0.526316" stroke-linecap="square" stroke-dasharray="2.11 2.11 2.11"/>
<path opacity="0.60681" d="M345.526 98.2145V265.829" stroke="#8097B1" stroke-width="0.526316" stroke-linecap="square" stroke-dasharray="2.11 2.11 2.11"/>
<path opacity="0.60681" d="M421.526 98.2145V265.829" stroke="#8097B1" stroke-width="0.526316" stroke-linecap="square" stroke-dasharray="2.11 2.11 2.11"/>
<path opacity="0.60681" d="M498.526 98.2145V265.829" stroke="#8097B1" stroke-width="0.526316" stroke-linecap="square" stroke-dasharray="2.11 2.11 2.11"/>
</g>
<g opacity="0.5">
<path opacity="0.756413" d="M116 169.447H498.105" stroke="#8097B1" stroke-width="0.526316" stroke-linecap="square" stroke-dasharray="2.11 2.11 2.11 2.11"/>
<path opacity="0.756413" d="M116 217.342H498.105" stroke="#8097B1" stroke-width="0.526316" stroke-linecap="square" stroke-dasharray="2.11 2.11 2.11 2.11"/>
<path opacity="0.756413" d="M116 121.552H497.053" stroke="#8097B1" stroke-width="0.526316" stroke-linecap="square" stroke-dasharray="2.11 2.11 2.11 2.11"/>
</g>
<path d="M114.5 97.9996V266" stroke="#E0E7FF" stroke-linecap="square"/>
<path d="M114.948 265.763H498.106" stroke="#E0E7FF" stroke-linecap="square"/>
<g opacity="0.3">
<path d="M94.9116 222.196C93.801 222.196 92.9143 221.869 92.2516 221.216C91.5983 220.553 91.2716 219.564 91.2716 218.248V215.952C91.2716 214.645 91.5983 213.66 92.2516 212.998C92.9143 212.335 93.801 212.004 94.9116 212.004C96.0316 212.004 96.9183 212.335 97.5716 212.998C98.2343 213.66 98.5656 214.645 98.5656 215.952V218.248C98.5656 219.564 98.2343 220.553 97.5716 221.216C96.9183 221.869 96.0316 222.196 94.9116 222.196ZM94.9116 221.174C95.7516 221.174 96.3816 220.922 96.8016 220.418C97.2216 219.914 97.4316 219.209 97.4316 218.304V215.882C97.4316 214.976 97.217 214.276 96.7876 213.782C96.3583 213.278 95.733 213.026 94.9116 213.026C94.0903 213.026 93.465 213.278 93.0356 213.782C92.6156 214.286 92.4056 214.986 92.4056 215.882V218.304C92.4056 219.218 92.6156 219.928 93.0356 220.432C93.4556 220.926 94.081 221.174 94.9116 221.174ZM100.946 222.196C100.675 222.196 100.446 222.107 100.26 221.93C100.082 221.752 99.9936 221.524 99.9936 221.244C99.9936 220.964 100.082 220.735 100.26 220.558C100.446 220.38 100.675 220.292 100.946 220.292C101.226 220.292 101.454 220.38 101.632 220.558C101.809 220.735 101.898 220.964 101.898 221.244C101.898 221.524 101.809 221.752 101.632 221.93C101.454 222.107 101.226 222.196 100.946 222.196ZM105.746 222V212.956H105.536L103.632 216.442H102.4L104.738 212.2H106.88V222H105.746Z" fill="black"/>
<path d="M91.7534 175.196C90.6428 175.196 89.7561 174.869 89.0934 174.216C88.4401 173.553 88.1134 172.564 88.1134 171.248V168.952C88.1134 167.645 88.4401 166.66 89.0934 165.998C89.7561 165.335 90.6428 165.004 91.7534 165.004C92.8734 165.004 93.7601 165.335 94.4134 165.998C95.0761 166.66 95.4074 167.645 95.4074 168.952V171.248C95.4074 172.564 95.0761 173.553 94.4134 174.216C93.7601 174.869 92.8734 175.196 91.7534 175.196ZM91.7534 174.174C92.5934 174.174 93.2234 173.922 93.6434 173.418C94.0634 172.914 94.2734 172.209 94.2734 171.304V168.882C94.2734 167.976 94.0588 167.276 93.6294 166.782C93.2001 166.278 92.5748 166.026 91.7534 166.026C90.9321 166.026 90.3068 166.278 89.8774 166.782C89.4574 167.286 89.2474 167.986 89.2474 168.882V171.304C89.2474 172.218 89.4574 172.928 89.8774 173.432C90.2974 173.926 90.9228 174.174 91.7534 174.174ZM97.7874 175.196C97.5168 175.196 97.2881 175.107 97.1014 174.93C96.9241 174.752 96.8354 174.524 96.8354 174.244C96.8354 173.964 96.9241 173.735 97.1014 173.558C97.2881 173.38 97.5168 173.292 97.7874 173.292C98.0674 173.292 98.2961 173.38 98.4734 173.558C98.6508 173.735 98.7394 173.964 98.7394 174.244C98.7394 174.524 98.6508 174.752 98.4734 174.93C98.2961 175.107 98.0674 175.196 97.7874 175.196ZM100.306 175V173.978C100.306 173.278 100.428 172.718 100.67 172.298C100.922 171.878 101.268 171.542 101.706 171.29C102.154 171.028 102.686 170.804 103.302 170.618L104.072 170.38C104.492 170.249 104.861 170.09 105.178 169.904C105.496 169.708 105.743 169.465 105.92 169.176C106.098 168.877 106.186 168.513 106.186 168.084V168.028C106.186 167.412 105.972 166.926 105.542 166.572C105.113 166.208 104.562 166.026 103.89 166.026C103.181 166.026 102.602 166.217 102.154 166.6C101.706 166.973 101.482 167.542 101.482 168.308V168.504H100.362V168.322C100.362 167.612 100.516 167.01 100.824 166.516C101.132 166.021 101.552 165.648 102.084 165.396C102.616 165.134 103.218 165.004 103.89 165.004C104.562 165.004 105.155 165.13 105.668 165.382C106.191 165.634 106.597 165.984 106.886 166.432C107.176 166.88 107.32 167.402 107.32 168V168.126C107.32 168.76 107.194 169.288 106.942 169.708C106.69 170.118 106.34 170.454 105.892 170.716C105.454 170.977 104.936 171.201 104.338 171.388L103.582 171.626C103.106 171.775 102.71 171.934 102.392 172.102C102.084 172.26 101.851 172.466 101.692 172.718C101.534 172.97 101.454 173.31 101.454 173.74V173.978H107.236V175H100.306Z" fill="black"/>
<path d="M91.7398 126.196C90.6291 126.196 89.7424 125.869 89.0798 125.216C88.4264 124.553 88.0998 123.564 88.0998 122.248V119.952C88.0998 118.645 88.4264 117.66 89.0798 116.998C89.7424 116.335 90.6291 116.004 91.7398 116.004C92.8598 116.004 93.7464 116.335 94.3998 116.998C95.0624 117.66 95.3938 118.645 95.3938 119.952V122.248C95.3938 123.564 95.0624 124.553 94.3998 125.216C93.7464 125.869 92.8598 126.196 91.7398 126.196ZM91.7398 125.174C92.5798 125.174 93.2098 124.922 93.6298 124.418C94.0498 123.914 94.2598 123.209 94.2598 122.304V119.882C94.2598 118.976 94.0451 118.276 93.6158 117.782C93.1864 117.278 92.5611 117.026 91.7398 117.026C90.9184 117.026 90.2931 117.278 89.8638 117.782C89.4438 118.286 89.2338 118.986 89.2338 119.882V122.304C89.2338 123.218 89.4438 123.928 89.8638 124.432C90.2838 124.926 90.9091 125.174 91.7398 125.174ZM97.7738 126.196C97.5031 126.196 97.2744 126.107 97.0878 125.93C96.9104 125.752 96.8218 125.524 96.8218 125.244C96.8218 124.964 96.9104 124.735 97.0878 124.558C97.2744 124.38 97.5031 124.292 97.7738 124.292C98.0538 124.292 98.2824 124.38 98.4598 124.558C98.6371 124.735 98.7258 124.964 98.7258 125.244C98.7258 125.524 98.6371 125.752 98.4598 125.93C98.2824 126.107 98.0538 126.196 97.7738 126.196ZM103.793 126.196C103.102 126.196 102.481 126.065 101.931 125.804C101.389 125.542 100.96 125.164 100.643 124.67C100.335 124.175 100.181 123.578 100.181 122.878V122.612H101.315V122.864C101.315 123.582 101.543 124.147 102.001 124.558C102.458 124.968 103.055 125.174 103.793 125.174C104.539 125.174 105.118 124.982 105.529 124.6C105.949 124.208 106.159 123.718 106.159 123.13V123.018C106.159 122.588 106.056 122.243 105.851 121.982C105.645 121.711 105.365 121.515 105.011 121.394C104.665 121.263 104.283 121.198 103.863 121.198H102.267V119.784L106.005 117.39V117.222H100.419V116.2H107.209V117.782L103.555 120.134V120.302H104.255C104.805 120.302 105.309 120.404 105.767 120.61C106.233 120.806 106.602 121.104 106.873 121.506C107.153 121.898 107.293 122.392 107.293 122.99V123.144C107.293 123.76 107.148 124.296 106.859 124.754C106.569 125.211 106.163 125.566 105.641 125.818C105.118 126.07 104.502 126.196 103.793 126.196Z" fill="black"/>
</g>
<g opacity="0.3">
<path d="M116.811 286.222C115.7 286.222 114.814 285.895 114.151 285.242C113.498 284.579 113.171 283.59 113.171 282.274V279.978C113.171 278.671 113.498 277.687 114.151 277.024C114.814 276.361 115.7 276.03 116.811 276.03C117.931 276.03 118.818 276.361 119.471 277.024C120.134 277.687 120.465 278.671 120.465 279.978V282.274C120.465 283.59 120.134 284.579 119.471 285.242C118.818 285.895 117.931 286.222 116.811 286.222ZM116.811 285.2C117.651 285.2 118.281 284.948 118.701 284.444C119.121 283.94 119.331 283.235 119.331 282.33V279.908C119.331 279.003 119.116 278.303 118.687 277.808C118.258 277.304 117.632 277.052 116.811 277.052C115.99 277.052 115.364 277.304 114.935 277.808C114.515 278.312 114.305 279.012 114.305 279.908V282.33C114.305 283.245 114.515 283.954 114.935 284.458C115.355 284.953 115.98 285.2 116.811 285.2Z" fill="black"/>
<path d="M176.071 286V284.978C176.071 284.278 176.192 283.718 176.435 283.298C176.687 282.878 177.032 282.542 177.471 282.29C177.919 282.028 178.451 281.804 179.067 281.618L179.837 281.38C180.257 281.249 180.626 281.09 180.943 280.904C181.26 280.708 181.508 280.465 181.685 280.176C181.862 279.877 181.951 279.513 181.951 279.084V279.028C181.951 278.412 181.736 277.926 181.307 277.572C180.878 277.208 180.327 277.026 179.655 277.026C178.946 277.026 178.367 277.217 177.919 277.6C177.471 277.973 177.247 278.542 177.247 279.308V279.504H176.127V279.322C176.127 278.612 176.281 278.01 176.589 277.516C176.897 277.021 177.317 276.648 177.849 276.396C178.381 276.134 178.983 276.004 179.655 276.004C180.327 276.004 180.92 276.13 181.433 276.382C181.956 276.634 182.362 276.984 182.651 277.432C182.94 277.88 183.085 278.402 183.085 279V279.126C183.085 279.76 182.959 280.288 182.707 280.708C182.455 281.118 182.105 281.454 181.657 281.716C181.218 281.977 180.7 282.201 180.103 282.388L179.347 282.626C178.871 282.775 178.474 282.934 178.157 283.102C177.849 283.26 177.616 283.466 177.457 283.718C177.298 283.97 177.219 284.31 177.219 284.74V284.978H183.001V286H176.071ZM188.245 286.196C187.134 286.196 186.247 285.869 185.585 285.216C184.931 284.553 184.605 283.564 184.605 282.248V279.952C184.605 278.645 184.931 277.66 185.585 276.998C186.247 276.335 187.134 276.004 188.245 276.004C189.365 276.004 190.251 276.335 190.905 276.998C191.567 277.66 191.899 278.645 191.899 279.952V282.248C191.899 283.564 191.567 284.553 190.905 285.216C190.251 285.869 189.365 286.196 188.245 286.196ZM188.245 285.174C189.085 285.174 189.715 284.922 190.135 284.418C190.555 283.914 190.765 283.209 190.765 282.304V279.882C190.765 278.976 190.55 278.276 190.121 277.782C189.691 277.278 189.066 277.026 188.245 277.026C187.423 277.026 186.798 277.278 186.369 277.782C185.949 278.286 185.739 278.986 185.739 279.882V282.304C185.739 283.218 185.949 283.928 186.369 284.432C186.789 284.926 187.414 285.174 188.245 285.174ZM197.213 286.196C196.103 286.196 195.216 285.869 194.553 285.216C193.9 284.553 193.573 283.564 193.573 282.248V279.952C193.573 278.645 193.9 277.66 194.553 276.998C195.216 276.335 196.103 276.004 197.213 276.004C198.333 276.004 199.22 276.335 199.873 276.998C200.536 277.66 200.867 278.645 200.867 279.952V282.248C200.867 283.564 200.536 284.553 199.873 285.216C199.22 285.869 198.333 286.196 197.213 286.196ZM197.213 285.174C198.053 285.174 198.683 284.922 199.103 284.418C199.523 283.914 199.733 283.209 199.733 282.304V279.882C199.733 278.976 199.519 278.276 199.089 277.782C198.66 277.278 198.035 277.026 197.213 277.026C196.392 277.026 195.767 277.278 195.337 277.782C194.917 278.286 194.707 278.986 194.707 279.882V282.304C194.707 283.218 194.917 283.928 195.337 284.432C195.757 284.926 196.383 285.174 197.213 285.174ZM206.182 286.196C205.071 286.196 204.185 285.869 203.522 285.216C202.869 284.553 202.542 283.564 202.542 282.248V279.952C202.542 278.645 202.869 277.66 203.522 276.998C204.185 276.335 205.071 276.004 206.182 276.004C207.302 276.004 208.189 276.335 208.842 276.998C209.505 277.66 209.836 278.645 209.836 279.952V282.248C209.836 283.564 209.505 284.553 208.842 285.216C208.189 285.869 207.302 286.196 206.182 286.196ZM206.182 285.174C207.022 285.174 207.652 284.922 208.072 284.418C208.492 283.914 208.702 283.209 208.702 282.304V279.882C208.702 278.976 208.487 278.276 208.058 277.782C207.629 277.278 207.003 277.026 206.182 277.026C205.361 277.026 204.735 277.278 204.306 277.782C203.886 278.286 203.676 278.986 203.676 279.882V282.304C203.676 283.218 203.886 283.928 204.306 284.432C204.726 284.926 205.351 285.174 206.182 285.174Z" fill="black"/>
<path d="M255.73 286V283.998H250.62V282.654L254.736 276.2H256.864V282.976H258.544V283.998H256.864V286H255.73ZM251.754 282.976H255.73V276.886H255.534L251.754 282.808V282.976ZM263.402 286.196C262.291 286.196 261.405 285.869 260.742 285.216C260.089 284.553 259.762 283.564 259.762 282.248V279.952C259.762 278.645 260.089 277.66 260.742 276.998C261.405 276.335 262.291 276.004 263.402 276.004C264.522 276.004 265.409 276.335 266.062 276.998C266.725 277.66 267.056 278.645 267.056 279.952V282.248C267.056 283.564 266.725 284.553 266.062 285.216C265.409 285.869 264.522 286.196 263.402 286.196ZM263.402 285.174C264.242 285.174 264.872 284.922 265.292 284.418C265.712 283.914 265.922 283.209 265.922 282.304V279.882C265.922 278.976 265.707 278.276 265.278 277.782C264.849 277.278 264.223 277.026 263.402 277.026C262.581 277.026 261.955 277.278 261.526 277.782C261.106 278.286 260.896 278.986 260.896 279.882V282.304C260.896 283.218 261.106 283.928 261.526 284.432C261.946 284.926 262.571 285.174 263.402 285.174ZM272.371 286.196C271.26 286.196 270.373 285.869 269.711 285.216C269.057 284.553 268.731 283.564 268.731 282.248V279.952C268.731 278.645 269.057 277.66 269.711 276.998C270.373 276.335 271.26 276.004 272.371 276.004C273.491 276.004 274.377 276.335 275.031 276.998C275.693 277.66 276.025 278.645 276.025 279.952V282.248C276.025 283.564 275.693 284.553 275.031 285.216C274.377 285.869 273.491 286.196 272.371 286.196ZM272.371 285.174C273.211 285.174 273.841 284.922 274.261 284.418C274.681 283.914 274.891 283.209 274.891 282.304V279.882C274.891 278.976 274.676 278.276 274.247 277.782C273.817 277.278 273.192 277.026 272.371 277.026C271.549 277.026 270.924 277.278 270.495 277.782C270.075 278.286 269.865 278.986 269.865 279.882V282.304C269.865 283.218 270.075 283.928 270.495 284.432C270.915 284.926 271.54 285.174 272.371 285.174ZM281.339 286.196C280.229 286.196 279.342 285.869 278.679 285.216C278.026 284.553 277.699 283.564 277.699 282.248V279.952C277.699 278.645 278.026 277.66 278.679 276.998C279.342 276.335 280.229 276.004 281.339 276.004C282.459 276.004 283.346 276.335 283.999 276.998C284.662 277.66 284.993 278.645 284.993 279.952V282.248C284.993 283.564 284.662 284.553 283.999 285.216C283.346 285.869 282.459 286.196 281.339 286.196ZM281.339 285.174C282.179 285.174 282.809 284.922 283.229 284.418C283.649 283.914 283.859 283.209 283.859 282.304V279.882C283.859 278.976 283.645 278.276 283.215 277.782C282.786 277.278 282.161 277.026 281.339 277.026C280.518 277.026 279.893 277.278 279.463 277.782C279.043 278.286 278.833 278.986 278.833 279.882V282.304C278.833 283.218 279.043 283.928 279.463 284.432C279.883 284.926 280.509 285.174 281.339 285.174Z" fill="black"/>
<path d="M331.601 286.196C330.929 286.196 330.327 286.065 329.795 285.804C329.272 285.533 328.857 285.15 328.549 284.656C328.25 284.161 328.101 283.573 328.101 282.892V279.476C328.101 278.738 328.245 278.113 328.535 277.6C328.824 277.086 329.23 276.694 329.753 276.424C330.285 276.144 330.915 276.004 331.643 276.004C332.361 276.004 332.973 276.134 333.477 276.396C333.99 276.648 334.377 276.998 334.639 277.446C334.909 277.884 335.045 278.393 335.045 278.972H333.897C333.897 278.393 333.71 277.926 333.337 277.572C332.963 277.208 332.399 277.026 331.643 277.026C330.877 277.026 330.285 277.236 329.865 277.656C329.445 278.066 329.235 278.636 329.235 279.364V280.722H329.431C329.599 280.442 329.879 280.185 330.271 279.952C330.663 279.709 331.209 279.588 331.909 279.588C332.497 279.588 333.033 279.718 333.519 279.98C334.004 280.241 334.391 280.61 334.681 281.086C334.97 281.562 335.115 282.126 335.115 282.78V282.948C335.115 283.61 334.961 284.184 334.653 284.67C334.354 285.155 333.939 285.533 333.407 285.804C332.875 286.065 332.273 286.196 331.601 286.196ZM331.601 285.174C332.31 285.174 332.884 284.973 333.323 284.572C333.761 284.17 333.981 283.624 333.981 282.934V282.822C333.981 282.355 333.878 281.954 333.673 281.618C333.477 281.282 333.201 281.02 332.847 280.834C332.492 280.638 332.077 280.54 331.601 280.54C331.134 280.54 330.723 280.638 330.369 280.834C330.014 281.02 329.734 281.282 329.529 281.618C329.333 281.954 329.235 282.355 329.235 282.822V282.934C329.235 283.624 329.454 284.17 329.893 284.572C330.331 284.973 330.901 285.174 331.601 285.174ZM340.313 286.196C339.202 286.196 338.316 285.869 337.653 285.216C337 284.553 336.673 283.564 336.673 282.248V279.952C336.673 278.645 337 277.66 337.653 276.998C338.316 276.335 339.202 276.004 340.313 276.004C341.433 276.004 342.32 276.335 342.973 276.998C343.636 277.66 343.967 278.645 343.967 279.952V282.248C343.967 283.564 343.636 284.553 342.973 285.216C342.32 285.869 341.433 286.196 340.313 286.196ZM340.313 285.174C341.153 285.174 341.783 284.922 342.203 284.418C342.623 283.914 342.833 283.209 342.833 282.304V279.882C342.833 278.976 342.618 278.276 342.189 277.782C341.76 277.278 341.134 277.026 340.313 277.026C339.492 277.026 338.866 277.278 338.437 277.782C338.017 278.286 337.807 278.986 337.807 279.882V282.304C337.807 283.218 338.017 283.928 338.437 284.432C338.857 284.926 339.482 285.174 340.313 285.174ZM349.282 286.196C348.171 286.196 347.284 285.869 346.622 285.216C345.968 284.553 345.642 283.564 345.642 282.248V279.952C345.642 278.645 345.968 277.66 346.622 276.998C347.284 276.335 348.171 276.004 349.282 276.004C350.402 276.004 351.288 276.335 351.942 276.998C352.604 277.66 352.936 278.645 352.936 279.952V282.248C352.936 283.564 352.604 284.553 351.942 285.216C351.288 285.869 350.402 286.196 349.282 286.196ZM349.282 285.174C350.122 285.174 350.752 284.922 351.172 284.418C351.592 283.914 351.802 283.209 351.802 282.304V279.882C351.802 278.976 351.587 278.276 351.158 277.782C350.728 277.278 350.103 277.026 349.282 277.026C348.46 277.026 347.835 277.278 347.406 277.782C346.986 278.286 346.776 278.986 346.776 279.882V282.304C346.776 283.218 346.986 283.928 347.406 284.432C347.826 284.926 348.451 285.174 349.282 285.174ZM358.251 286.196C357.14 286.196 356.253 285.869 355.591 285.216C354.937 284.553 354.611 283.564 354.611 282.248V279.952C354.611 278.645 354.937 277.66 355.591 276.998C356.253 276.335 357.14 276.004 358.251 276.004C359.371 276.004 360.257 276.335 360.911 276.998C361.573 277.66 361.905 278.645 361.905 279.952V282.248C361.905 283.564 361.573 284.553 360.911 285.216C360.257 285.869 359.371 286.196 358.251 286.196ZM358.251 285.174C359.091 285.174 359.721 284.922 360.141 284.418C360.561 283.914 360.771 283.209 360.771 282.304V279.882C360.771 278.976 360.556 278.276 360.127 277.782C359.697 277.278 359.072 277.026 358.251 277.026C357.429 277.026 356.804 277.278 356.375 277.782C355.955 278.286 355.745 278.986 355.745 279.882V282.304C355.745 283.218 355.955 283.928 356.375 284.432C356.795 284.926 357.42 285.174 358.251 285.174Z" fill="black"/>
<path d="M408.54 286.196C407.784 286.196 407.126 286.084 406.566 285.86C406.015 285.626 405.586 285.304 405.278 284.894C404.979 284.474 404.83 283.984 404.83 283.424V283.27C404.83 282.784 404.932 282.383 405.138 282.066C405.343 281.748 405.59 281.506 405.88 281.338C406.178 281.16 406.454 281.048 406.706 281.002V280.82C406.454 280.745 406.192 280.624 405.922 280.456C405.66 280.288 405.441 280.059 405.264 279.77C405.096 279.48 405.012 279.126 405.012 278.706V278.552C405.012 278.02 405.161 277.567 405.46 277.194C405.768 276.811 406.188 276.517 406.72 276.312C407.252 276.106 407.858 276.004 408.54 276.004C409.23 276.004 409.837 276.106 410.36 276.312C410.892 276.517 411.307 276.811 411.606 277.194C411.914 277.567 412.068 278.02 412.068 278.552V278.706C412.068 279.126 411.984 279.48 411.816 279.77C411.648 280.059 411.433 280.288 411.172 280.456C410.91 280.624 410.649 280.745 410.388 280.82V281.002C410.649 281.048 410.924 281.16 411.214 281.338C411.503 281.506 411.746 281.748 411.942 282.066C412.147 282.383 412.25 282.784 412.25 283.27V283.424C412.25 283.984 412.1 284.474 411.802 284.894C411.503 285.304 411.074 285.626 410.514 285.86C409.963 286.084 409.305 286.196 408.54 286.196ZM408.54 285.174C409.333 285.174 409.958 285.02 410.416 284.712C410.882 284.404 411.116 283.956 411.116 283.368V283.256C411.116 282.668 410.887 282.22 410.43 281.912C409.972 281.604 409.342 281.45 408.54 281.45C407.746 281.45 407.121 281.604 406.664 281.912C406.206 282.22 405.978 282.668 405.978 283.256V283.368C405.978 283.956 406.206 284.404 406.664 284.712C407.13 285.02 407.756 285.174 408.54 285.174ZM408.54 280.428C409.286 280.428 409.87 280.288 410.29 280.008C410.719 279.718 410.934 279.312 410.934 278.79V278.678C410.934 278.146 410.719 277.74 410.29 277.46C409.86 277.17 409.277 277.026 408.54 277.026C407.802 277.026 407.219 277.17 406.79 277.46C406.36 277.74 406.146 278.146 406.146 278.678V278.79C406.146 279.312 406.36 279.718 406.79 280.008C407.219 280.288 407.802 280.428 408.54 280.428ZM417.388 286.196C416.278 286.196 415.391 285.869 414.728 285.216C414.075 284.553 413.748 283.564 413.748 282.248V279.952C413.748 278.645 414.075 277.66 414.728 276.998C415.391 276.335 416.278 276.004 417.388 276.004C418.508 276.004 419.395 276.335 420.048 276.998C420.711 277.66 421.042 278.645 421.042 279.952V282.248C421.042 283.564 420.711 284.553 420.048 285.216C419.395 285.869 418.508 286.196 417.388 286.196ZM417.388 285.174C418.228 285.174 418.858 284.922 419.278 284.418C419.698 283.914 419.908 283.209 419.908 282.304V279.882C419.908 278.976 419.694 278.276 419.264 277.782C418.835 277.278 418.21 277.026 417.388 277.026C416.567 277.026 415.942 277.278 415.512 277.782C415.092 278.286 414.882 278.986 414.882 279.882V282.304C414.882 283.218 415.092 283.928 415.512 284.432C415.932 284.926 416.558 285.174 417.388 285.174ZM426.357 286.196C425.246 286.196 424.36 285.869 423.697 285.216C423.044 284.553 422.717 283.564 422.717 282.248V279.952C422.717 278.645 423.044 277.66 423.697 276.998C424.36 276.335 425.246 276.004 426.357 276.004C427.477 276.004 428.364 276.335 429.017 276.998C429.68 277.66 430.011 278.645 430.011 279.952V282.248C430.011 283.564 429.68 284.553 429.017 285.216C428.364 285.869 427.477 286.196 426.357 286.196ZM426.357 285.174C427.197 285.174 427.827 284.922 428.247 284.418C428.667 283.914 428.877 283.209 428.877 282.304V279.882C428.877 278.976 428.662 278.276 428.233 277.782C427.804 277.278 427.178 277.026 426.357 277.026C425.536 277.026 424.91 277.278 424.481 277.782C424.061 278.286 423.851 278.986 423.851 279.882V282.304C423.851 283.218 424.061 283.928 424.481 284.432C424.901 284.926 425.526 285.174 426.357 285.174ZM435.326 286.196C434.215 286.196 433.328 285.869 432.666 285.216C432.012 284.553 431.686 283.564 431.686 282.248V279.952C431.686 278.645 432.012 277.66 432.666 276.998C433.328 276.335 434.215 276.004 435.326 276.004C436.446 276.004 437.332 276.335 437.986 276.998C438.648 277.66 438.98 278.645 438.98 279.952V282.248C438.98 283.564 438.648 284.553 437.986 285.216C437.332 285.869 436.446 286.196 435.326 286.196ZM435.326 285.174C436.166 285.174 436.796 284.922 437.216 284.418C437.636 283.914 437.846 283.209 437.846 282.304V279.882C437.846 278.976 437.631 278.276 437.202 277.782C436.772 277.278 436.147 277.026 435.326 277.026C434.504 277.026 433.879 277.278 433.45 277.782C433.03 278.286 432.82 278.986 432.82 279.882V282.304C432.82 283.218 433.03 283.928 433.45 284.432C433.87 284.926 434.495 285.174 435.326 285.174Z" fill="black"/>
<path d="M479.735 286V276.956H479.525L477.621 280.442H476.389L478.727 276.2H480.869V286H479.735ZM486.468 286.196C485.358 286.196 484.471 285.869 483.808 285.216C483.155 284.553 482.828 283.564 482.828 282.248V279.952C482.828 278.645 483.155 277.66 483.808 276.998C484.471 276.335 485.358 276.004 486.468 276.004C487.588 276.004 488.475 276.335 489.128 276.998C489.791 277.66 490.122 278.645 490.122 279.952V282.248C490.122 283.564 489.791 284.553 489.128 285.216C488.475 285.869 487.588 286.196 486.468 286.196ZM486.468 285.174C487.308 285.174 487.938 284.922 488.358 284.418C488.778 283.914 488.988 283.209 488.988 282.304V279.882C488.988 278.976 488.774 278.276 488.344 277.782C487.915 277.278 487.29 277.026 486.468 277.026C485.647 277.026 485.022 277.278 484.592 277.782C484.172 278.286 483.962 278.986 483.962 279.882V282.304C483.962 283.218 484.172 283.928 484.592 284.432C485.012 284.926 485.638 285.174 486.468 285.174ZM495.437 286.196C494.326 286.196 493.44 285.869 492.777 285.216C492.124 284.553 491.797 283.564 491.797 282.248V279.952C491.797 278.645 492.124 277.66 492.777 276.998C493.44 276.335 494.326 276.004 495.437 276.004C496.557 276.004 497.444 276.335 498.097 276.998C498.76 277.66 499.091 278.645 499.091 279.952V282.248C499.091 283.564 498.76 284.553 498.097 285.216C497.444 285.869 496.557 286.196 495.437 286.196ZM495.437 285.174C496.277 285.174 496.907 284.922 497.327 284.418C497.747 283.914 497.957 283.209 497.957 282.304V279.882C497.957 278.976 497.742 278.276 497.313 277.782C496.884 277.278 496.258 277.026 495.437 277.026C494.616 277.026 493.99 277.278 493.561 277.782C493.141 278.286 492.931 278.986 492.931 279.882V282.304C492.931 283.218 493.141 283.928 493.561 284.432C493.981 284.926 494.606 285.174 495.437 285.174ZM504.406 286.196C503.295 286.196 502.408 285.869 501.746 285.216C501.092 284.553 500.766 283.564 500.766 282.248V279.952C500.766 278.645 501.092 277.66 501.746 276.998C502.408 276.335 503.295 276.004 504.406 276.004C505.526 276.004 506.412 276.335 507.066 276.998C507.728 277.66 508.06 278.645 508.06 279.952V282.248C508.06 283.564 507.728 284.553 507.066 285.216C506.412 285.869 505.526 286.196 504.406 286.196ZM504.406 285.174C505.246 285.174 505.876 284.922 506.296 284.418C506.716 283.914 506.926 283.209 506.926 282.304V279.882C506.926 278.976 506.711 278.276 506.282 277.782C505.852 277.278 505.227 277.026 504.406 277.026C503.584 277.026 502.959 277.278 502.53 277.782C502.11 278.286 501.9 278.986 501.9 279.882V282.304C501.9 283.218 502.11 283.928 502.53 284.432C502.95 284.926 503.575 285.174 504.406 285.174ZM513.375 286.196C512.264 286.196 511.377 285.869 510.715 285.216C510.061 284.553 509.735 283.564 509.735 282.248V279.952C509.735 278.645 510.061 277.66 510.715 276.998C511.377 276.335 512.264 276.004 513.375 276.004C514.495 276.004 515.381 276.335 516.035 276.998C516.697 277.66 517.029 278.645 517.029 279.952V282.248C517.029 283.564 516.697 284.553 516.035 285.216C515.381 285.869 514.495 286.196 513.375 286.196ZM513.375 285.174C514.215 285.174 514.845 284.922 515.265 284.418C515.685 283.914 515.895 283.209 515.895 282.304V279.882C515.895 278.976 515.68 278.276 515.251 277.782C514.821 277.278 514.196 277.026 513.375 277.026C512.553 277.026 511.928 277.278 511.499 277.782C511.079 278.286 510.869 278.986 510.869 279.882V282.304C510.869 283.218 511.079 283.928 511.499 284.432C511.919 284.926 512.544 285.174 513.375 285.174Z" fill="black"/>
</g>
<path d="M115 231C177.052 231 248.183 231 318.052 231C387.683 231 441.552 231 498.158 231" stroke="url(#paint0_linear)" stroke-width="3.1579" stroke-linecap="round"/>
<path d="M314.379 237.379C310.885 240.873 305.22 240.873 301.726 237.379C298.232 233.885 298.232 228.22 301.726 224.725C305.22 221.231 310.885 221.231 314.379 224.725C317.874 228.22 317.874 233.885 314.379 237.379Z" fill="white" stroke="url(#paint1_linear)" stroke-width="4.21053"/>
<g filter="url(#filter1_d)">
<path fill-rule="evenodd" clip-rule="evenodd" d="M318.728 202C314.143 208.422 307.776 217.421 307.776 217.421L297.285 202L219.631 202C209.342 202 201 193.658 201 183.369L201 159.631C201 149.342 209.342 141 219.631 141L394.369 141C404.658 141 413 149.342 413 159.631L413 183.369C413 193.658 404.658 202 394.369 202L318.728 202Z" fill="white"/>
</g>
<path d="M227.263 178.75V164.75H232.623C233.463 164.75 234.21 164.916 234.863 165.25C235.53 165.57 236.057 166.03 236.443 166.63C236.83 167.23 237.023 167.956 237.023 168.81V169.07C237.023 169.91 236.823 170.636 236.423 171.25C236.037 171.85 235.51 172.31 234.843 172.63C234.177 172.95 233.437 173.11 232.623 173.11H228.943V178.75H227.263ZM228.943 171.59H232.443C233.337 171.59 234.043 171.37 234.563 170.93C235.083 170.476 235.343 169.843 235.343 169.03V168.83C235.343 168.016 235.083 167.39 234.563 166.95C234.057 166.496 233.35 166.27 232.443 166.27H228.943V171.59ZM239.335 178.75V168.97H240.875V170.17H241.155C241.329 169.743 241.595 169.43 241.955 169.23C242.315 169.03 242.789 168.93 243.375 168.93H244.535V170.37H243.275C242.569 170.37 241.995 170.57 241.555 170.97C241.129 171.356 240.915 171.963 240.915 172.79V178.75H239.335ZM246.874 178.75V168.97H248.454V178.75H246.874ZM247.674 167.45C247.328 167.45 247.034 167.336 246.794 167.11C246.568 166.883 246.454 166.596 246.454 166.25C246.454 165.89 246.568 165.596 246.794 165.37C247.034 165.143 247.328 165.03 247.674 165.03C248.021 165.03 248.308 165.143 248.534 165.37C248.761 165.596 248.874 165.89 248.874 166.25C248.874 166.596 248.761 166.883 248.534 167.11C248.308 167.336 248.021 167.45 247.674 167.45ZM256.277 179.03C255.33 179.03 254.477 178.83 253.717 178.43C252.97 178.016 252.377 177.43 251.937 176.67C251.51 175.91 251.297 175.01 251.297 173.97V173.75C251.297 172.696 251.51 171.796 251.937 171.05C252.377 170.29 252.97 169.71 253.717 169.31C254.477 168.896 255.33 168.69 256.277 168.69C257.21 168.69 258.003 168.863 258.657 169.21C259.323 169.556 259.843 170.016 260.217 170.59C260.603 171.163 260.85 171.776 260.957 172.43L259.417 172.75C259.35 172.27 259.19 171.83 258.937 171.43C258.697 171.03 258.357 170.71 257.917 170.47C257.477 170.23 256.937 170.11 256.297 170.11C255.643 170.11 255.057 170.256 254.537 170.55C254.03 170.843 253.623 171.263 253.317 171.81C253.023 172.356 252.877 173.01 252.877 173.77V173.95C252.877 174.71 253.023 175.363 253.317 175.91C253.623 176.456 254.03 176.876 254.537 177.17C255.057 177.463 255.643 177.61 256.297 177.61C257.27 177.61 258.01 177.356 258.517 176.85C259.037 176.343 259.357 175.716 259.477 174.97L261.037 175.31C260.89 175.95 260.623 176.556 260.237 177.13C259.85 177.703 259.323 178.163 258.657 178.51C258.003 178.856 257.21 179.03 256.277 179.03ZM268.21 179.03C267.223 179.03 266.356 178.823 265.61 178.41C264.863 177.983 264.283 177.39 263.87 176.63C263.456 175.87 263.25 174.99 263.25 173.99V173.75C263.25 172.736 263.456 171.85 263.87 171.09C264.283 170.33 264.856 169.743 265.59 169.33C266.323 168.903 267.163 168.69 268.11 168.69C269.03 168.69 269.843 168.89 270.55 169.29C271.256 169.676 271.81 170.236 272.21 170.97C272.61 171.703 272.81 172.563 272.81 173.55V174.27H264.83C264.87 175.323 265.21 176.15 265.85 176.75C266.49 177.336 267.29 177.63 268.25 177.63C269.09 177.63 269.736 177.436 270.19 177.05C270.643 176.663 270.99 176.203 271.23 175.67L272.59 176.33C272.39 176.743 272.11 177.156 271.75 177.57C271.403 177.983 270.943 178.33 270.37 178.61C269.81 178.89 269.09 179.03 268.21 179.03ZM264.85 172.97H271.21C271.156 172.063 270.843 171.356 270.27 170.85C269.71 170.343 268.99 170.09 268.11 170.09C267.216 170.09 266.483 170.343 265.91 170.85C265.336 171.356 264.983 172.063 264.85 172.97ZM276.426 179.03C276.039 179.03 275.712 178.903 275.446 178.65C275.192 178.396 275.066 178.07 275.066 177.67C275.066 177.27 275.192 176.943 275.446 176.69C275.712 176.436 276.039 176.31 276.426 176.31C276.826 176.31 277.152 176.436 277.406 176.69C277.659 176.943 277.786 177.27 277.786 177.67C277.786 178.07 277.659 178.396 277.406 178.65C277.152 178.903 276.826 179.03 276.426 179.03ZM276.426 171.41C276.039 171.41 275.712 171.283 275.446 171.03C275.192 170.776 275.066 170.45 275.066 170.05C275.066 169.65 275.192 169.323 275.446 169.07C275.712 168.816 276.039 168.69 276.426 168.69C276.826 168.69 277.152 168.816 277.406 169.07C277.659 169.323 277.786 169.65 277.786 170.05C277.786 170.45 277.659 170.776 277.406 171.03C277.152 171.283 276.826 171.41 276.426 171.41ZM290.522 179.03C288.869 179.03 287.542 178.576 286.542 177.67C285.542 176.75 285.042 175.363 285.042 173.51V169.99C285.042 168.19 285.542 166.823 286.542 165.89C287.542 164.943 288.869 164.47 290.522 164.47C292.189 164.47 293.516 164.943 294.502 165.89C295.502 166.823 296.002 168.19 296.002 169.99V173.51C296.002 175.363 295.502 176.75 294.502 177.67C293.516 178.576 292.189 179.03 290.522 179.03ZM290.522 176.75C291.522 176.75 292.256 176.476 292.722 175.93C293.202 175.383 293.442 174.603 293.442 173.59V169.87C293.442 168.843 293.176 168.07 292.642 167.55C292.122 167.016 291.416 166.75 290.522 166.75C289.602 166.75 288.882 167.023 288.362 167.57C287.856 168.116 287.602 168.883 287.602 169.87V173.59C287.602 174.643 287.842 175.436 288.322 175.97C288.816 176.49 289.549 176.75 290.522 176.75ZM299.777 179.03C299.23 179.03 298.77 178.856 298.397 178.51C298.037 178.15 297.857 177.69 297.857 177.13C297.857 176.57 298.037 176.116 298.397 175.77C298.77 175.41 299.23 175.23 299.777 175.23C300.31 175.23 300.757 175.41 301.117 175.77C301.477 176.116 301.657 176.57 301.657 177.13C301.657 177.69 301.477 178.15 301.117 178.51C300.757 178.856 300.31 179.03 299.777 179.03ZM308.979 179.03C307.326 179.03 305.999 178.576 304.999 177.67C303.999 176.75 303.499 175.363 303.499 173.51V169.99C303.499 168.19 303.999 166.823 304.999 165.89C305.999 164.943 307.326 164.47 308.979 164.47C310.646 164.47 311.973 164.943 312.959 165.89C313.959 166.823 314.459 168.19 314.459 169.99V173.51C314.459 175.363 313.959 176.75 312.959 177.67C311.973 178.576 310.646 179.03 308.979 179.03ZM308.979 176.75C309.979 176.75 310.713 176.476 311.179 175.93C311.659 175.383 311.899 174.603 311.899 173.59V169.87C311.899 168.843 311.633 168.07 311.099 167.55C310.579 167.016 309.873 166.75 308.979 166.75C308.059 166.75 307.339 167.023 306.819 167.57C306.313 168.116 306.059 168.883 306.059 169.87V173.59C306.059 174.643 306.299 175.436 306.779 175.97C307.273 176.49 308.006 176.75 308.979 176.75ZM317.698 178.75V178.23C317.698 177.71 317.738 177.27 317.818 176.91C317.898 176.536 318.071 176.116 318.338 175.65L323.038 167.35V167.03H315.598V164.75H325.678V167.79L320.718 176.65C320.544 176.956 320.424 177.23 320.358 177.47C320.291 177.71 320.258 178.003 320.258 178.35V178.75H317.698ZM328.772 178.75V178.23C328.772 177.71 328.812 177.27 328.892 176.91C328.972 176.536 329.145 176.116 329.412 175.65L334.112 167.35V167.03H326.672V164.75H336.752V167.79L331.792 176.65C331.618 176.956 331.498 177.23 331.432 177.47C331.365 177.71 331.332 178.003 331.332 178.35V178.75H328.772ZM339.846 178.75V178.23C339.846 177.71 339.886 177.27 339.966 176.91C340.046 176.536 340.219 176.116 340.486 175.65L345.186 167.35V167.03H337.746V164.75H347.826V167.79L342.866 176.65C342.693 176.956 342.573 177.23 342.506 177.47C342.439 177.71 342.406 178.003 342.406 178.35V178.75H339.846ZM354.698 178.75V164.75H363.698V167.15H357.338V170.49H363.138V172.89H357.338V176.35H363.818V178.75H354.698ZM369.013 178.75V167.15H364.933V164.75H375.733V167.15H371.653V178.75H369.013ZM377.53 178.75V164.75H380.17V170.53H385.37V164.75H388.01V178.75H385.37V172.93H380.17V178.75H377.53Z" fill="black"/>
<defs>
<filter id="filter0_d" x="0" y="0" width="612" height="393" filterUnits="userSpaceOnUse" color-interpolation-filters="sRGB">
<feFlood flood-opacity="0" result="BackgroundImageFix"/>
<feColorMatrix in="SourceAlpha" type="matrix" values="0 0 0 0 0 0 0 0 0 0 0 0 0 0 0 0 0 0 127 0"/>
<feOffset dy="10"/>
<feGaussianBlur stdDeviation="18"/>
<feColorMatrix type="matrix" values="0 0 0 0 0.531573 0 0 0 0 0.470652 0 0 0 0 0.675284 0 0 0 0.14 0"/>
<feBlend mode="normal" in2="BackgroundImageFix" result="effect1_dropShadow"/>
<feBlend mode="normal" in="SourceGraphic" in2="effect1_dropShadow" result="shape"/>
</filter>
<filter id="filter1_d" x="138.895" y="94.4214" width="336.21" height="200.631" filterUnits="userSpaceOnUse" color-interpolation-filters="sRGB">
<feFlood flood-opacity="0" result="BackgroundImageFix"/>
<feColorMatrix in="SourceAlpha" type="matrix" values="0 0 0 0 0 0 0 0 0 0 0 0 0 0 0 0 0 0 127 0"/>
<feOffset dy="15.5262"/>
<feGaussianBlur stdDeviation="31.0524"/>
<feColorMatrix type="matrix" values="0 0 0 0 0.531573 0 0 0 0 0.470652 0 0 0 0 0.675284 0 0 0 0.2 0"/>
<feBlend mode="normal" in2="BackgroundImageFix" result="effect1_dropShadow"/>
<feBlend mode="normal" in="SourceGraphic" in2="effect1_dropShadow" result="shape"/>
</filter>
<linearGradient id="paint0_linear" x1="106" y1="231" x2="503" y2="225" gradientUnits="userSpaceOnUse">
<stop stop-color="#BCEB00"/>
<stop offset="1" stop-color="#00EAEA"/>
</linearGradient>
<linearGradient id="paint1_linear" x1="307.344" y1="220.289" x2="307.344" y2="241.955" gradientUnits="userSpaceOnUse">
<stop stop-color="#BCEB00"/>
<stop offset="1" stop-color="#00EAEA"/>
</linearGradient>
</defs>
</svg>
