<svg width="14" height="15" viewBox="0 0 14 15" fill="none" xmlns="http://www.w3.org/2000/svg">
<path d="M7 0.46875C3.25391 0.46875 0.21875 3.50391 0.21875 7.25C0.21875 10.9961 3.25391 14.0312 7 14.0312C10.7461 14.0312 13.7812 10.9961 13.7812 7.25C13.7812 3.50391 10.7461 0.46875 7 0.46875ZM8.55859 10.0664L6.125 8.28906C6.04297 8.23438 6.01562 8.15234 6.01562 8.04297V3.42188C6.01562 3.25781 6.15234 3.09375 6.34375 3.09375H7.65625C7.82031 3.09375 7.98438 3.25781 7.98438 3.42188V7.19531L9.70703 8.45312C9.84375 8.5625 9.89844 8.78125 9.78906 8.91797L8.99609 9.98438C8.91406 10.1211 8.69531 10.1484 8.55859 10.0664Z" fill="black"/>
</svg>
