<svg width="24" height="24" viewBox="0 0 24 24" fill="none" xmlns="http://www.w3.org/2000/svg">
<circle cx="12" cy="12" r="10.7" stroke="white" stroke-width="0.6"/>
<path fill-rule="evenodd" clip-rule="evenodd" d="M15.1372 7.15894C15.9685 7.48633 16.7895 7.80964 17.5816 8.03817C23.3001 9.5906 20.4973 13.2608 16.618 15.2445C11.8355 17.6809 13.9549 22.7575 13.9549 22.7575C7.75806 24.0728 3.47545 19.1706 3.07812 18.3304C4.11615 16.4264 4.17237 14.5261 4.22396 12.7826C4.31116 9.83565 4.38512 7.33656 9.16376 6.02439C10.0937 5.79844 11.0625 5.88006 12.0433 6.1103C12.0464 6.10955 12.0496 6.10881 12.0528 6.10806C12.0497 6.10782 12.0467 6.10759 12.0437 6.10737C13.173 5.75715 14.5323 5.88664 15.0405 6.95626C15.0757 7.02012 15.1002 7.08022 15.1148 7.13665C15.1161 7.14054 15.1175 7.14444 15.1188 7.14835C15.1184 7.14803 15.1179 7.1477 15.1174 7.14738C15.1177 7.14877 15.1181 7.15017 15.1184 7.15156L15.1372 7.15894ZM11.6894 10.1075C11.8538 9.86217 11.9416 9.57375 11.9416 9.2787C11.9416 8.88305 11.784 8.50361 11.5034 8.22385C11.2228 7.94408 10.8422 7.78691 10.4454 7.78691C10.1495 7.78691 9.86022 7.87441 9.61417 8.03832C9.36812 8.20224 9.17636 8.43523 9.06312 8.70782C8.94988 8.9804 8.92024 9.28035 8.97797 9.56973C9.0357 9.85911 9.1782 10.1249 9.38744 10.3335C9.59669 10.5422 9.86328 10.6843 10.1535 10.7418C10.4437 10.7994 10.7446 10.7698 11.018 10.6569C11.2914 10.544 11.525 10.3528 11.6894 10.1075ZM20.1808 12.3876C19.6456 12.8739 19.0087 13.2339 18.3606 13.5518C17.7044 13.8621 17.0206 14.1103 16.318 14.2933C15.6147 14.4746 14.8812 14.6113 14.1383 14.5442C13.3954 14.4772 12.6361 14.2255 12.1439 13.6704L12.1672 13.6438C12.7705 14.0339 13.4669 14.1713 14.1598 14.1911C14.8622 14.2126 15.5648 14.155 16.2542 14.0193C16.9506 13.8737 17.6318 13.6637 18.289 13.392C18.9466 13.1214 19.5974 12.8077 20.1576 12.3609L20.1808 12.3876Z" fill="white"/>
</svg>
