<svg width="22" height="22" viewBox="0 0 22 22" fill="none" xmlns="http://www.w3.org/2000/svg">
<path d="M19.9259 16.8466C21.093 15.087 21.7103 13.0219 21.6999 10.9126C21.6855 8.08521 20.5454 5.37901 18.5299 3.3889C16.5144 1.39878 13.7885 0.28767 10.9512 0.300103L19.9259 16.8466ZM19.9259 16.8466C18.7588 18.6063 17.0943 19.9816 15.1428 20.7984M19.9259 16.8466L15.1428 20.7984M15.1428 20.7984C13.1913 21.6152 11.0405 21.8368 8.96263 21.4351M15.1428 20.7984L8.96263 21.4351M8.96263 21.4351C6.88473 21.0334 4.97314 20.0265 3.46958 18.5418M8.96263 21.4351L3.46958 18.5418M3.46958 18.5418C1.96603 17.0572 0.938042 15.1615 0.515481 13.0947M3.46958 18.5418L0.515481 13.0947M0.515481 13.0947C0.0929212 11.0278 0.294735 8.88247 1.09544 6.92991M0.515481 13.0947L1.09544 6.92991M1.09544 6.92991C1.89614 4.97733 3.25982 3.30517 5.01415 2.125M1.09544 6.92991L5.01415 2.125M5.01415 2.125C6.76848 0.944838 8.8346 0.309727 10.9512 0.300103L5.01415 2.125Z" stroke="white" stroke-width="0.6"/>
<path d="M17.5154 10.3707C17.5159 10.4615 17.4893 10.5505 17.4391 10.6263C17.3889 10.7021 17.3172 10.7613 17.2331 10.7965C17.1491 10.8318 17.0564 10.8414 16.9669 10.8242C16.8774 10.8069 16.795 10.7637 16.7301 10.6998C16.6653 10.6359 16.6209 10.5544 16.6026 10.4654C16.5843 10.3764 16.593 10.284 16.6274 10.1999C16.6618 10.1158 16.7205 10.0438 16.796 9.99289C16.8716 9.94201 16.9605 9.91458 17.0517 9.91407C17.1739 9.91361 17.2914 9.96141 17.3783 10.047C17.4652 10.1326 17.5145 10.249 17.5154 10.3707Z" fill="white" fill-opacity="0.1"/>
<path d="M11.0437 5.10737C11.5979 5.14688 13.6017 5.79449 14.1188 6.14835C13.6879 4.90296 12.2374 4.73719 11.0437 5.10737Z" fill="white" fill-opacity="0.1"/>
<path d="M11.5594 8.25704C11.5596 8.67638 11.435 9.08635 11.2014 9.43511C10.9678 9.78387 10.6357 10.0558 10.2471 10.2164C9.8585 10.377 9.43082 10.4192 9.01817 10.3375C8.60551 10.2559 8.22641 10.0541 7.92881 9.75772C7.6312 9.46133 7.42846 9.08362 7.34622 8.67238C7.26397 8.26113 7.30593 7.83481 7.46676 7.44733C7.6276 7.05985 7.90011 6.7286 8.24982 6.49549C8.59953 6.26238 9.01073 6.13787 9.43144 6.1377C9.99529 6.1377 10.5361 6.36084 10.9349 6.75808C11.3338 7.15533 11.5581 7.69417 11.5586 8.25618L11.5594 8.25704Z" fill="white" fill-opacity="0.1"/>
<path fill-rule="evenodd" clip-rule="evenodd" d="M16.5816 7.03817C15.7895 6.80964 14.9685 6.48633 14.1372 6.15894L14.1184 6.15156C14.0701 5.94193 13.884 5.68076 13.5073 5.36203C12.96 4.88865 11.9318 4.90068 11.0433 5.1103C10.0625 4.88006 9.09372 4.79844 8.16376 5.02439C3.38511 6.33656 3.31116 8.83565 3.22396 11.7826C3.17237 13.5261 3.11614 15.4264 2.07812 17.3304C2.47545 18.1706 6.75806 23.0728 12.9549 21.7575C12.9549 21.7575 10.8355 16.6809 15.618 14.2445C19.4973 12.2608 22.3001 8.5906 16.5816 7.03817ZM10.9416 8.2787C10.9416 8.57375 10.8538 8.86217 10.6894 9.10749C10.525 9.35281 10.2914 9.54402 10.018 9.65693C9.74458 9.76984 9.44375 9.79938 9.15351 9.74182C8.86328 9.68426 8.59669 9.54218 8.38744 9.33355C8.1782 9.12492 8.0357 8.85911 7.97797 8.56973C7.92024 8.28035 7.94987 7.98041 8.06311 7.70782C8.17635 7.43523 8.36812 7.20224 8.61417 7.03832C8.86022 6.87441 9.14949 6.78691 9.44541 6.78691C9.84222 6.78691 10.2228 6.94408 10.5034 7.22385C10.784 7.50361 10.9416 7.88305 10.9416 8.2787ZM17.3606 12.5518C18.0087 12.2339 18.6456 11.8739 19.1808 11.3876L19.1576 11.3609C18.5974 11.8077 17.9466 12.1214 17.289 12.392C16.6318 12.6637 15.9506 12.8737 15.2542 13.0193C14.5648 13.155 13.8622 13.2126 13.1598 13.1911C12.4669 13.1713 11.7705 13.0339 11.1672 12.6438L11.1439 12.6704C11.6361 13.2255 12.3954 13.4772 13.1383 13.5442C13.8812 13.6113 14.6147 13.4746 15.318 13.2933C16.0206 13.1103 16.7044 12.8621 17.3606 12.5518Z" fill="white"/>
</svg>
