<svg width="18" height="18" viewBox="0 0 18 18" fill="none" xmlns="http://www.w3.org/2000/svg">
<path d="M13.5242 5.75809C12.8733 5.56971 12.1985 5.30259 11.5152 5.03267C11.4759 4.86115 11.324 4.64746 11.0169 4.38668C10.5705 3.99936 9.73191 4.0092 9.00719 4.18072C8.20725 3.99233 7.41716 3.92555 6.6587 4.11042C0.455345 5.81925 3.97281 9.98832 1.69531 14.1792C2.01936 14.8667 5.51222 18.8776 10.5663 17.8014C10.5663 17.8014 8.83778 13.6478 12.7383 11.6543C15.9022 10.0312 18.1882 7.02828 13.5242 5.75809Z" fill="white" fill-opacity="0.4"/>
<path d="M17.6929 8.92857C17.7014 10.6536 17.1981 12.3424 16.2467 13.7814C15.2953 15.2205 13.9385 16.345 12.348 17.0129C10.7574 17.6807 9.00452 17.8619 7.31099 17.5334C5.61746 17.205 4.05937 16.3817 2.83378 15.1677C1.60819 13.9537 0.770155 12.4034 0.425667 10.7131C0.0811801 9.02277 0.245714 7.26823 0.898459 5.67141C1.5512 4.07459 2.66284 2.70721 4.09277 1.74221C5.5227 0.777211 7.20665 0.257945 8.93172 0.250085C11.2441 0.23991 13.4659 1.14834 15.1088 2.7757C16.7517 4.40307 17.6811 6.61617 17.6929 8.92857Z" stroke="#666666" stroke-width="0.5"/>
<path d="M14.2873 8.48627C14.2877 8.56065 14.2661 8.63348 14.2251 8.69555C14.1841 8.75762 14.1256 8.80615 14.0571 8.835C13.9885 8.86385 13.913 8.87172 13.8399 8.85762C13.7669 8.84352 13.6997 8.80808 13.6468 8.75578C13.5939 8.70348 13.5577 8.63667 13.5428 8.56381C13.5279 8.49094 13.5349 8.41528 13.563 8.34641C13.5911 8.27753 13.6389 8.21853 13.7005 8.17686C13.7621 8.13519 13.8347 8.11273 13.9091 8.11231C14.0088 8.11193 14.1046 8.15108 14.1754 8.22117C14.2463 8.29126 14.2865 8.38659 14.2873 8.48627Z" fill="white" fill-opacity="0.1"/>
<path d="M9.00781 4.17836C9.4598 4.21069 11.0941 4.7407 11.5159 5.03031C11.1644 4.01106 9.98137 3.87539 9.00781 4.17836Z" fill="white" fill-opacity="0.1"/>
<path d="M9.42669 6.75659C9.42683 7.09971 9.32522 7.43516 9.13471 7.72053C8.9442 8.0059 8.67335 8.22836 8.3564 8.3598C8.03946 8.49123 7.69066 8.52573 7.3541 8.45893C7.01755 8.39212 6.70837 8.22702 6.46565 7.9845C6.22293 7.74198 6.05758 7.43293 5.9905 7.09643C5.92343 6.75993 5.95764 6.4111 6.08882 6.09405C6.22 5.777 6.44224 5.50596 6.72746 5.31522C7.01267 5.12448 7.34804 5.0226 7.69116 5.02246V5.02246C8.15102 5.02246 8.59207 5.20504 8.91737 5.53008C9.24268 5.85512 9.42562 6.29602 9.42599 6.75589L9.42669 6.75659Z" fill="white" fill-opacity="0.1"/>
<path d="M8.92495 6.77302C8.92495 7.01437 8.85338 7.2503 8.71929 7.45098C8.58521 7.65165 8.39462 7.80806 8.17165 7.90042C7.94867 7.99278 7.70331 8.01695 7.4666 7.96986C7.22988 7.92278 7.01245 7.80655 6.84179 7.63589C6.67113 7.46523 6.55491 7.2478 6.50782 7.01109C6.46074 6.77437 6.4849 6.52902 6.57726 6.30604C6.66963 6.08306 6.82603 5.89248 7.02671 5.75839C7.22738 5.6243 7.46331 5.55273 7.70466 5.55273C8.0283 5.55273 8.33869 5.6813 8.56754 5.91015C8.79638 6.139 8.92495 6.44938 8.92495 6.77302Z" fill="black"/>
<path d="M15.6447 9.31671C15.2081 9.71457 14.6887 10.0091 14.1601 10.2692C13.6249 10.523 13.0672 10.7261 12.4941 10.8758C11.9205 11.0241 11.3223 11.1359 10.7164 11.0811C10.1105 11.0262 9.49122 10.8203 9.08984 10.3662L9.10882 10.3444C9.60087 10.6635 10.1688 10.776 10.734 10.7922C11.3068 10.8098 11.8799 10.7626 12.4421 10.6516C13.0101 10.5325 13.5657 10.3607 14.1017 10.1384C14.6381 9.91701 15.1688 9.66045 15.6257 9.29492L15.6447 9.31671Z" fill="black"/>
</svg>
