<svg width="20" height="20" viewBox="0 0 20 20" fill="none" xmlns="http://www.w3.org/2000/svg">
<path fill-rule="evenodd" clip-rule="evenodd" d="M4.75018 2.00012C3.2314 2.00012 2.00018 3.23134 2.00018 4.75012V5.75012V9.00012V15.2501C2.00018 16.7689 3.23141 18.0001 4.75018 18.0001H15.2502C16.769 18.0001 18.0002 16.7689 18.0002 15.2501V7.75012C18.0002 6.23135 16.769 5.00012 15.2502 5.00012H12.0818L11.2271 3.43334C10.7453 2.54978 9.8192 2.00012 8.81288 2.00012H4.75018ZM10.3731 5.00012L9.91027 4.15157L9.91023 4.15151C9.69128 3.75001 9.27037 3.50012 8.81288 3.50012H4.75018C4.05983 3.50012 3.50018 4.05977 3.50018 4.75012V5.00012H10.3731ZM3.50018 6.50012V9.00012V15.2501C3.50018 15.9405 4.05982 16.5001 4.75018 16.5001H15.2502C15.9406 16.5001 16.5002 15.9405 16.5002 15.2501V7.75012C16.5002 7.05976 15.9406 6.50012 15.2502 6.50012H3.50018Z" fill="black"/>
</svg>
