<svg width="56" height="77" viewBox="0 0 56 77" fill="none" xmlns="http://www.w3.org/2000/svg">
<path d="M31.8184 0.704202L30.8124 0.129343C30.4963 -0.0431144 29.9789 -0.0431144 29.6627 0.129343L0.574859 16.9152C0.258686 17.0877 0 17.5476 0 17.9212V61.4668C0 61.8404 0.258686 62.2716 0.574859 62.4728L1.58086 63.0476C1.89703 63.2201 2.41441 63.2201 2.73058 63.0476L31.8184 46.2618C32.1346 46.0893 32.3933 45.6294 32.3933 45.2558V1.7102C32.3933 1.33655 32.1346 0.87666 31.8184 0.704202Z" fill="#27DEBF"/>
<path d="M31.8184 0.704202L30.8124 0.129343C30.4963 -0.0431144 29.9789 -0.0431144 29.6627 0.129343L0.574859 16.9152C0.258686 17.0877 0 17.5476 0 17.9212V61.4668C0 61.8404 0.258686 62.2716 0.574859 62.4728L1.58086 63.0476C1.89703 63.2201 2.41441 63.2201 2.73058 63.0476L31.8184 46.2618C32.1346 46.0893 32.3933 45.6294 32.3933 45.2558V1.7102C32.3933 1.33655 32.1346 0.87666 31.8184 0.704202Z" fill="#F5F5F5"/>
<path d="M15.4637 26.1708C15.2625 26.0558 4.91504 20.0773 0.172458 17.3467C0.0574859 17.5191 0 17.7203 0 17.9215V61.4671C0 61.8408 0.258686 62.2719 0.574859 62.4731L1.58086 63.048C1.89703 63.2204 2.41441 63.2204 2.73058 63.048L15.5212 55.661C15.5787 44.5375 15.6649 26.2857 15.4637 26.1708Z" fill="#E0E0E0"/>
<path d="M31.8183 1.36537L2.7305 18.1512C2.41433 18.3237 2.15564 18.7836 2.15564 19.1573V62.7028C2.15564 63.0765 2.41433 63.2202 2.7305 63.0477L31.8183 46.2618C32.1345 46.0894 32.3932 45.6295 32.3932 45.2558V1.71029C32.3932 1.33663 32.1345 1.19292 31.8183 1.36537Z" fill="#F5F5F5"/>
<path d="M3.82266 18.7835L30.7548 3.23354C31.071 3.06108 31.3297 3.2048 31.3297 3.57845V40.8868C31.3297 41.2605 31.071 41.6916 30.7548 41.8928L3.82266 57.4427C3.50649 57.6152 3.2478 57.4715 3.2478 57.0978V19.7895C3.2478 19.4158 3.50649 18.9559 3.82266 18.7835Z" fill="white"/>
<path d="M3.24805 19.7889V27.6357C4.13908 27.9519 5.26005 27.8082 6.496 27.0896C9.34155 25.4513 11.6122 21.4847 11.6122 18.208C11.6122 16.6847 11.1236 15.5924 10.3188 15.0176L3.82291 18.7542C3.50673 18.9554 3.24805 19.4152 3.24805 19.7889Z" fill="#E6E6E6"/>
<path d="M26.4149 17.9498L19.4303 34.6782L14.8314 30.9704C14.429 30.6542 13.8254 30.7979 13.5955 31.2578L3.24805 54.0222V57.0977C3.24805 57.4714 3.50673 57.6151 3.82291 57.4426L7.87566 55.0857L30.7263 41.8927C31.0425 41.7202 31.3012 41.2604 31.3012 40.8867V22.8649L27.8233 17.8061C27.4496 17.2887 26.6735 17.375 26.4149 17.9498Z" fill="#E6E6E6"/>
<path d="M39.8184 5.7042L38.8124 5.12934C38.4963 4.95689 37.9789 4.95689 37.6627 5.12934L8.57486 21.9152C8.25869 22.0877 8 22.5476 8 22.9212V66.4668C8 66.8404 8.25869 67.2716 8.57486 67.4728L9.58086 68.0476C9.89703 68.2201 10.4144 68.2201 10.7306 68.0476L39.8184 51.2618C40.1346 51.0893 40.3933 50.6294 40.3933 50.2558V6.7102C40.3933 6.33655 40.1346 5.87666 39.8184 5.7042Z" fill="#27DEBF"/>
<path d="M39.8184 5.7042L38.8124 5.12934C38.4963 4.95689 37.9789 4.95689 37.6627 5.12934L8.57486 21.9152C8.25869 22.0877 8 22.5476 8 22.9212V66.4668C8 66.8404 8.25869 67.2716 8.57486 67.4728L9.58086 68.0476C9.89703 68.2201 10.4144 68.2201 10.7306 68.0476L39.8184 51.2618C40.1346 51.0893 40.3933 50.6294 40.3933 50.2558V6.7102C40.3933 6.33655 40.1346 5.87666 39.8184 5.7042Z" fill="#F5F5F5"/>
<path d="M23.4637 31.1708C23.2625 31.0558 12.915 25.0773 8.17246 22.3467C8.05749 22.5191 8 22.7203 8 22.9215V66.4671C8 66.8408 8.25869 67.2719 8.57486 67.4731L9.58086 68.048C9.89703 68.2204 10.4144 68.2204 10.7306 68.048L23.5212 60.661C23.5787 49.5375 23.6649 31.2857 23.4637 31.1708Z" fill="#E0E0E0"/>
<path d="M39.8183 6.36537L10.7305 23.1512C10.4143 23.3237 10.1556 23.7836 10.1556 24.1573V67.7028C10.1556 68.0765 10.4143 68.2202 10.7305 68.0477L39.8183 51.2618C40.1345 51.0894 40.3932 50.6295 40.3932 50.2558V6.71029C40.3932 6.33663 40.1345 6.19292 39.8183 6.36537Z" fill="#F5F5F5"/>
<path d="M11.8227 23.7835L38.7548 8.23354C39.071 8.06108 39.3297 8.2048 39.3297 8.57845V45.8868C39.3297 46.2605 39.071 46.6916 38.7548 46.8928L11.8227 62.4427C11.5065 62.6152 11.2478 62.4715 11.2478 62.0978V24.7895C11.2478 24.4158 11.5065 23.9559 11.8227 23.7835Z" fill="white"/>
<path d="M11.248 24.7889V32.6357C12.1391 32.9519 13.2601 32.8082 14.496 32.0896C17.3415 30.4513 19.6122 26.4847 19.6122 23.208C19.6122 21.6847 19.1236 20.5924 18.3188 20.0176L11.8229 23.7542C11.5067 23.9554 11.248 24.4152 11.248 24.7889Z" fill="#E6E6E6"/>
<path d="M34.4149 22.9498L27.4303 39.6782L22.8314 35.9704C22.429 35.6542 21.8254 35.7979 21.5955 36.2578L11.248 59.0222V62.0977C11.248 62.4714 11.5067 62.6151 11.8229 62.4426L15.8757 60.0857L38.7263 46.8927C39.0425 46.7202 39.3012 46.2604 39.3012 45.8867V27.8649L35.8233 22.8061C35.4496 22.2887 34.6735 22.375 34.4149 22.9498Z" fill="#E6E6E6"/>
<path d="M47.2635 10.0152L46.2575 9.44038C45.9413 9.26792 45.424 9.26792 45.1078 9.44038L16.0199 26.2263C15.7038 26.3987 15.4451 26.8586 15.4451 27.2323V70.7778C15.4451 71.1515 15.7038 71.5826 16.0199 71.7838L17.0259 72.3587C17.3421 72.5311 17.8595 72.5311 18.1756 72.3587L47.2635 55.5728C47.5797 55.4003 47.8384 54.9404 47.8384 54.5668V11.0212C47.8384 10.6476 47.5797 10.1877 47.2635 10.0152Z" fill="#F5F5F5"/>
<path d="M30.908 35.4818C30.7068 35.3668 20.3594 29.3883 15.6168 26.6577C15.5018 26.8302 15.4443 27.0314 15.4443 27.2326V70.7781C15.4443 71.1518 15.703 71.5829 16.0192 71.7841L17.0252 72.359C17.3414 72.5315 17.8587 72.5315 18.1749 72.359L30.9655 64.9721C31.023 53.8485 31.0805 35.5968 30.908 35.4818Z" fill="#E0E0E0"/>
<path d="M47.2627 10.6764L18.1748 27.4623C17.8587 27.6347 17.6 28.0946 17.6 28.4683V72.0138C17.6 72.3875 17.8587 72.5312 18.1748 72.3588L47.2627 55.5729C47.5789 55.4004 47.8375 54.9405 47.8375 54.5669V11.0213C47.8375 10.6477 47.5789 10.504 47.2627 10.6764Z" fill="#F0F0F0"/>
<path d="M19.2388 28.0935L46.1709 12.5436C46.4871 12.3711 46.7458 12.5149 46.7458 12.8885V50.1968C46.7458 50.5705 46.4871 51.0017 46.1709 51.2029L19.2388 66.7528C18.9226 66.9252 18.6639 66.7815 18.6639 66.4079V29.0995C18.6639 28.7259 18.9226 28.266 19.2388 28.0935Z" fill="white"/>
<path d="M18.6639 29.0721V36.9189C19.555 37.2351 20.6759 37.0914 21.9119 36.3728C24.7574 34.7345 27.0281 30.7679 27.0281 27.4913C27.0281 25.9679 26.5395 24.8756 25.7347 24.3008L19.2388 28.0374C18.9226 28.2673 18.6639 28.7272 18.6639 29.0721Z" fill="#E0E0E0"/>
<path d="M41.8595 27.2614L34.875 43.9897L30.2761 40.2819C29.8737 39.9657 29.2701 40.1095 29.0401 40.5693L18.6639 63.3338V66.4092C18.6639 66.7829 18.9226 66.9266 19.2388 66.7542L23.2916 64.3972L46.1422 51.2042C46.4584 51.0318 46.717 50.5719 46.717 50.1982V32.1477L43.2679 27.1176C42.8942 26.6003 42.1182 26.6865 41.8595 27.2614Z" fill="#E6E6E6"/>
<path d="M53.9885 56.636L52.1489 56.4636V15.936L53.9885 16.1085V56.636Z" fill="#5C5C5C"/>
<path opacity="0.5" d="M24.6422 32.8655L51.5744 17.3156C51.8905 17.1431 52.1492 17.2868 52.1492 17.6605V54.9688C52.1492 55.3425 51.8905 55.7736 51.5744 55.9748L24.6422 71.5248C24.3261 71.6972 24.0674 71.5535 24.0674 71.1798V33.8715C24.0674 33.4978 24.3261 33.038 24.6422 32.8655Z" fill="white"/>
<path d="M47.2629 30.3937L40.2784 47.1221L35.6795 43.4142C35.2771 43.0981 34.6735 43.2418 34.4436 43.7017L24.0674 66.4373V69.5128C24.0674 69.8865 24.3261 70.0302 24.6422 69.8577L28.695 67.5008L51.5456 54.3078C51.8618 54.1354 52.1205 53.6755 52.1205 53.3018V35.28L48.6426 30.25C48.2977 29.7326 47.5216 29.8188 47.2629 30.3937Z" fill="url(#paint0_linear)"/>
<path opacity="0.5" d="M47.2629 30.3937L40.2784 47.1221L35.6795 43.4142C35.2771 43.0981 34.6735 43.2418 34.4436 43.7017L24.0674 66.4373V69.5128C24.0674 69.8865 24.3261 70.0302 24.6422 69.8577L28.695 67.5008L51.5456 54.3078C51.8618 54.1354 52.1205 53.6755 52.1205 53.3018V35.28L48.6426 30.25C48.2977 29.7326 47.5216 29.8188 47.2629 30.3937Z" fill="white"/>
<path d="M50.5105 31.2287L48.3835 30.0215V32.4359L50.5105 31.2287Z" fill="url(#paint1_linear)"/>
<path opacity="0.5" d="M50.5105 31.2287L48.3835 30.0215V32.4359L50.5105 31.2287Z" fill="white"/>
<path d="M37.7203 44.5646L35.5646 43.3286L35.5071 45.743L37.7203 44.5646Z" fill="url(#paint2_linear)"/>
<path opacity="0.5" d="M37.7203 44.5646L35.5646 43.3286L35.5071 45.743L37.7203 44.5646Z" fill="white"/>
<path d="M55.368 15.2759C55.368 15.2472 55.368 15.2184 55.368 15.2184C55.3105 14.9022 55.0805 14.5573 54.8219 14.3849L53.8158 13.81C53.4997 13.6375 52.9823 13.6375 52.6661 13.81L23.5783 30.5671C23.4058 30.6534 23.2621 30.8258 23.1759 30.9983C23.0609 31.1707 23.0034 31.3719 23.0034 31.5731V75.1187C23.0034 75.4924 23.2621 75.9235 23.5783 76.1247L24.5843 76.6996C24.8717 76.872 25.3029 76.872 25.5903 76.757C25.5903 76.757 25.619 76.757 25.619 76.7283C25.6478 76.7283 25.6765 76.6996 25.7053 76.6708L38.4959 69.2839L54.7931 59.8849C55.1093 59.7125 55.368 59.2526 55.368 58.8789V15.3621C55.368 15.3334 55.368 15.3046 55.368 15.2759ZM53.9883 54.74C53.9883 55.1136 53.7296 55.5448 53.4134 55.746L38.5533 64.3401L26.7975 71.0947C26.4813 71.2671 26.2226 71.1234 26.2226 70.7498V33.4414C26.2226 33.269 26.2801 33.0678 26.3951 32.8666C26.5101 32.6941 26.6538 32.5217 26.7975 32.4354L53.4134 17.0867C53.7296 16.9142 53.9883 17.058 53.9883 17.4316V54.74Z" fill="#8E8E8E"/>
<path d="M38.5538 64.3097C38.5538 66.063 38.525 67.7588 38.525 69.3109L25.7344 76.6979C25.7057 76.7266 25.6769 76.7266 25.6482 76.7553C25.6482 76.7553 25.6195 76.7553 25.6195 76.7841C25.3033 76.8991 24.8721 76.8703 24.6135 76.7266L23.6075 76.1517C23.2913 75.9793 23.0326 75.5194 23.0326 75.1457V31.5714C23.0326 31.399 23.0901 31.1978 23.2051 30.9966C23.8374 31.3702 24.556 31.7726 25.3608 32.2325C25.7057 32.4337 26.0793 32.6349 26.453 32.8649C26.338 33.0373 26.2805 33.2385 26.2805 33.4397V70.7481C26.2805 71.1217 26.5392 71.2654 26.8554 71.093L38.5538 64.3097Z" fill="#5C5C5C"/>
<path d="M26.223 33.4412V41.2881C27.1141 41.6042 28.235 41.4605 29.471 40.742C32.3165 39.1036 34.5872 35.1371 34.5872 31.8604C34.5872 30.337 34.0986 29.2448 33.2938 28.6699L26.7979 32.4065C26.4817 32.6364 26.223 33.0676 26.223 33.4412Z" fill="url(#paint3_linear)"/>
<path opacity="0.7" d="M26.223 33.4412V41.2881C27.1141 41.6042 28.235 41.4605 29.471 40.742C32.3165 39.1036 34.5872 35.1371 34.5872 31.8604C34.5872 30.337 34.0986 29.2448 33.2938 28.6699L26.7979 32.4065C26.4817 32.6364 26.223 33.0676 26.223 33.4412Z" fill="white"/>
<path d="M49.4186 31.6304L42.434 48.3588L37.8352 44.6509C37.4328 44.3348 36.8292 44.4785 36.5992 44.9384L26.223 67.674V70.7495C26.223 71.1232 26.4817 71.2669 26.7979 71.0944L30.8506 68.7375L53.3851 55.717C53.7013 55.5445 53.96 55.0846 53.96 54.7109V36.6891L50.7982 31.4867C50.4533 30.9693 49.6773 31.0268 49.4186 31.6304Z" fill="url(#paint4_linear)" stroke="url(#paint5_linear)" stroke-miterlimit="10"/>
<path d="M55.3684 15.2758C55.3684 15.247 55.3684 15.2183 55.3684 15.2183C55.3109 14.9884 55.0809 14.9021 54.8223 15.0458L25.7344 31.8317C25.5619 31.918 25.4182 32.0904 25.332 32.2629C25.217 32.4353 25.1595 32.6365 25.1595 32.8377V76.3833C25.1595 76.6995 25.3607 76.8432 25.5907 76.7857C25.5907 76.7857 25.6194 76.7857 25.6194 76.7569C25.6482 76.7569 25.6769 76.7282 25.7057 76.6995L38.4963 69.3125L54.7935 59.9136C55.1097 59.7411 55.3684 59.2812 55.3684 58.9076V15.362C55.3684 15.3333 55.3684 15.3045 55.3684 15.2758ZM53.9887 54.7399C53.9887 55.1135 53.73 55.5447 53.4139 55.7459L38.5538 64.34L26.7979 71.0946C26.4817 71.267 26.223 71.1233 26.223 70.7497V33.4413C26.223 33.2689 26.2805 33.0677 26.3955 32.8665C26.5105 32.694 26.6542 32.5216 26.7979 32.4353L53.4139 17.0866C53.73 16.9141 53.9887 17.0579 53.9887 17.4315V54.7399Z" fill="#707070"/>
<defs>
<linearGradient id="paint0_linear" x1="27.7992" y1="37.0472" x2="53.873" y2="55.3232" gradientUnits="userSpaceOnUse">
<stop stop-color="#BCEB00"/>
<stop offset="1" stop-color="#00EAEA"/>
</linearGradient>
<linearGradient id="paint1_linear" x1="48.6665" y1="30.4522" x2="50.3264" y2="31.9145" gradientUnits="userSpaceOnUse">
<stop stop-color="#BCEB00"/>
<stop offset="1" stop-color="#00EAEA"/>
</linearGradient>
<linearGradient id="paint2_linear" x1="35.8015" y1="43.7593" x2="37.4685" y2="45.2874" gradientUnits="userSpaceOnUse">
<stop stop-color="#BCEB00"/>
<stop offset="1" stop-color="#00EAEA"/>
</linearGradient>
<linearGradient id="paint3_linear" x1="27.3357" y1="30.9491" x2="35.4512" y2="36.2619" gradientUnits="userSpaceOnUse">
<stop stop-color="#BCEB00"/>
<stop offset="1" stop-color="#00EAEA"/>
</linearGradient>
<linearGradient id="paint4_linear" x1="29.9128" y1="38.2759" x2="55.8885" y2="56.2737" gradientUnits="userSpaceOnUse">
<stop stop-color="#BCEB00"/>
<stop offset="1" stop-color="#00EAEA"/>
</linearGradient>
<linearGradient id="paint5_linear" x1="29.9128" y1="38.2759" x2="55.8885" y2="56.2737" gradientUnits="userSpaceOnUse">
<stop stop-color="#BCEB00"/>
<stop offset="1" stop-color="#00EAEA"/>
</linearGradient>
</defs>
</svg>
