<svg width="72" height="80" viewBox="0 0 72 80" fill="none" xmlns="http://www.w3.org/2000/svg">
<path d="M50.989 59.636L49.1494 59.4636V18.936L50.989 19.1085V59.636Z" fill="#5C5C5C"/>
<path opacity="0.5" d="M21.6427 35.8655L48.5749 20.3156C48.891 20.1431 49.1497 20.2868 49.1497 20.6605V57.9688C49.1497 58.3425 48.891 58.7736 48.5749 58.9748L21.6427 74.5248C21.3266 74.6972 21.0679 74.5535 21.0679 74.1798V36.8715C21.0679 36.4978 21.3266 36.038 21.6427 35.8655Z" fill="white"/>
<path d="M44.2634 33.3937L37.2789 50.1221L32.68 46.4142C32.2776 46.0981 31.674 46.2418 31.4441 46.7017L21.0679 69.4373V72.5128C21.0679 72.8865 21.3266 73.0302 21.6427 72.8577L25.6955 70.5008L48.5461 57.3078C48.8623 57.1354 49.121 56.6755 49.121 56.3018V38.28L45.6431 33.25C45.2982 32.7326 44.5221 32.8188 44.2634 33.3937Z" fill="url(#paint0_linear)"/>
<path opacity="0.5" d="M44.2634 33.3937L37.2789 50.1221L32.68 46.4142C32.2776 46.0981 31.674 46.2418 31.4441 46.7017L21.0679 69.4373V72.5128C21.0679 72.8865 21.3266 73.0302 21.6427 72.8577L25.6955 70.5008L48.5461 57.3078C48.8623 57.1354 49.121 56.6755 49.121 56.3018V38.28L45.6431 33.25C45.2982 32.7326 44.5221 32.8188 44.2634 33.3937Z" fill="white"/>
<path d="M47.511 34.2287L45.384 33.0215V35.4359L47.511 34.2287Z" fill="url(#paint1_linear)"/>
<path opacity="0.5" d="M47.511 34.2287L45.384 33.0215V35.4359L47.511 34.2287Z" fill="white"/>
<path d="M34.7208 47.5641L32.5651 46.3281L32.5076 48.7425L34.7208 47.5641Z" fill="url(#paint2_linear)"/>
<path opacity="0.5" d="M34.7208 47.5641L32.5651 46.3281L32.5076 48.7425L34.7208 47.5641Z" fill="white"/>
<path d="M52.3685 18.2759C52.3685 18.2472 52.3685 18.2184 52.3685 18.2184C52.311 17.9022 52.081 17.5573 51.8223 17.3849L50.8163 16.81C50.5002 16.6375 49.9828 16.6375 49.6666 16.81L20.5788 33.5671C20.4063 33.6534 20.2626 33.8258 20.1764 33.9983C20.0614 34.1707 20.0039 34.3719 20.0039 34.5731V78.1187C20.0039 78.4924 20.2626 78.9235 20.5788 79.1247L21.5848 79.6996C21.8722 79.872 22.3033 79.872 22.5908 79.757C22.5908 79.757 22.6195 79.757 22.6195 79.7283C22.6483 79.7283 22.677 79.6996 22.7057 79.6708L35.4964 72.2839L51.7936 62.8849C52.1098 62.7125 52.3685 62.2526 52.3685 61.8789V18.3621C52.3685 18.3334 52.3685 18.3046 52.3685 18.2759ZM50.9888 57.74C50.9888 58.1136 50.7301 58.5448 50.4139 58.746L35.5538 67.3401L23.798 74.0947C23.4818 74.2671 23.2231 74.1234 23.2231 73.7498V36.4414C23.2231 36.269 23.2806 36.0678 23.3956 35.8666C23.5105 35.6941 23.6543 35.5217 23.798 35.4354L50.4139 20.0867C50.7301 19.9142 50.9888 20.058 50.9888 20.4316V57.74Z" fill="#8E8E8E"/>
<path d="M35.5541 67.3097C35.5541 69.063 35.5254 70.7588 35.5254 72.3109L22.7348 79.6979C22.7061 79.7266 22.6773 79.7266 22.6486 79.7553C22.6486 79.7553 22.6198 79.7553 22.6198 79.7841C22.3037 79.8991 21.8725 79.8703 21.6138 79.7266L20.6078 79.1517C20.2916 78.9793 20.033 78.5194 20.033 78.1457V34.5714C20.033 34.399 20.0904 34.1978 20.2054 33.9966C20.8378 34.3702 21.5563 34.7726 22.3611 35.2325C22.7061 35.4337 23.0797 35.6349 23.4534 35.8649C23.3384 36.0373 23.2809 36.2385 23.2809 36.4397V73.7481C23.2809 74.1217 23.5396 74.2654 23.8558 74.093L35.5541 67.3097Z" fill="#5C5C5C"/>
<path d="M23.2236 36.4412V44.2881C24.1147 44.6042 25.2356 44.4605 26.4716 43.742C29.3171 42.1036 31.5878 38.1371 31.5878 34.8604C31.5878 33.337 31.0992 32.2448 30.2944 31.6699L23.7985 35.4065C23.4823 35.6364 23.2236 36.0676 23.2236 36.4412Z" fill="url(#paint3_linear)"/>
<path d="M46.4192 34.6304L39.4347 51.3588L34.8358 47.6509C34.4334 47.3348 33.8298 47.4785 33.5998 47.9384L23.2236 70.674V73.7495C23.2236 74.1232 23.4823 74.2669 23.7985 74.0944L27.8512 71.7375L50.3857 58.717C50.7019 58.5445 50.9606 58.0846 50.9606 57.7109V39.6891L47.7988 34.4867C47.4539 33.9693 46.6779 34.0268 46.4192 34.6304Z" fill="url(#paint4_linear)" stroke="url(#paint5_linear)" stroke-miterlimit="10"/>
<path d="M52.3687 18.2758C52.3687 18.247 52.3687 18.2183 52.3687 18.2183C52.3113 17.9884 52.0813 17.9021 51.8226 18.0458L22.7348 34.8317C22.5623 34.918 22.4186 35.0904 22.3324 35.2629C22.2174 35.4353 22.1599 35.6365 22.1599 35.8377V79.3833C22.1599 79.6995 22.3611 79.8432 22.5911 79.7857C22.5911 79.7857 22.6198 79.7857 22.6198 79.7569C22.6485 79.7569 22.6773 79.7282 22.706 79.6995L35.4966 72.3125L51.7939 62.9136C52.1101 62.7411 52.3687 62.2812 52.3687 61.9076V18.362C52.3687 18.3333 52.3687 18.3045 52.3687 18.2758ZM50.9891 57.7399C50.9891 58.1135 50.7304 58.5447 50.4142 58.7459L35.5541 67.34L23.7983 74.0946C23.4821 74.267 23.2234 74.1233 23.2234 73.7497V36.4413C23.2234 36.2689 23.2809 36.0677 23.3959 35.8665C23.5108 35.694 23.6545 35.5216 23.7983 35.4353L50.4142 20.0866C50.7304 19.9141 50.9891 20.0579 50.9891 20.4315V57.7399Z" fill="#707070"/>
<defs>
<linearGradient id="paint0_linear" x1="24.7997" y1="40.0472" x2="50.8735" y2="58.3232" gradientUnits="userSpaceOnUse">
<stop stop-color="#BCEB00"/>
<stop offset="1" stop-color="#00EAEA"/>
</linearGradient>
<linearGradient id="paint1_linear" x1="45.667" y1="33.4522" x2="47.3269" y2="34.9145" gradientUnits="userSpaceOnUse">
<stop stop-color="#BCEB00"/>
<stop offset="1" stop-color="#00EAEA"/>
</linearGradient>
<linearGradient id="paint2_linear" x1="32.802" y1="46.7588" x2="34.469" y2="48.2869" gradientUnits="userSpaceOnUse">
<stop stop-color="#BCEB00"/>
<stop offset="1" stop-color="#00EAEA"/>
</linearGradient>
<linearGradient id="paint3_linear" x1="24.3363" y1="33.9491" x2="32.4518" y2="39.2619" gradientUnits="userSpaceOnUse">
<stop stop-color="#BCEB00"/>
<stop offset="1" stop-color="#00EAEA"/>
</linearGradient>
<linearGradient id="paint4_linear" x1="26.9134" y1="41.2759" x2="52.8891" y2="59.2737" gradientUnits="userSpaceOnUse">
<stop stop-color="#BCEB00"/>
<stop offset="1" stop-color="#00EAEA"/>
</linearGradient>
<linearGradient id="paint5_linear" x1="26.9134" y1="41.2759" x2="52.8891" y2="59.2737" gradientUnits="userSpaceOnUse">
<stop stop-color="#BCEB00"/>
<stop offset="1" stop-color="#00EAEA"/>
</linearGradient>
</defs>
</svg>
