<svg width="20" height="20" viewBox="0 0 20 20" fill="none" xmlns="http://www.w3.org/2000/svg">
<path d="M10 20C15.523 20 20 15.523 20 10C20 4.477 15.523 0 10 0C4.477 0 0 4.477 0 10C0 15.523 4.477 20 10 20Z" fill="#00D395"/>
<path fill-rule="evenodd" clip-rule="evenodd" d="M5.77692 13.353C5.47792 13.17 5.29492 12.845 5.29492 12.495V10.541C5.29492 10.309 5.48392 10.121 5.71592 10.122C5.78992 10.122 5.86292 10.142 5.92692 10.179L10.3359 12.75C10.5939 12.9 10.7529 13.176 10.7529 13.475V15.499C10.7539 15.777 10.5289 16.003 10.2509 16.003C10.1579 16.003 10.0659 15.977 9.98692 15.929L5.77692 13.353ZM12.3489 9.64403C12.6069 9.79403 12.7649 10.071 12.7659 10.369V14.477C12.7659 14.598 12.7009 14.71 12.5949 14.769L11.6299 15.312C11.6179 15.319 11.6049 15.324 11.5909 15.328V13.047C11.5909 12.752 11.4359 12.478 11.1819 12.326L7.30992 10.01V7.43503C7.30992 7.20303 7.49892 7.01503 7.73092 7.01603C7.80492 7.01603 7.87792 7.03603 7.94192 7.07303L12.3489 9.64403ZM14.2789 6.61003C14.5379 6.76003 14.6969 7.03703 14.6969 7.33603V13.336C14.6959 13.459 14.6279 13.572 14.5199 13.631L13.6049 14.125V9.94803C13.6049 9.65303 13.4499 9.38003 13.1979 9.22803L9.23992 6.85403V4.41203C9.23992 4.33803 9.25992 4.26503 9.29592 4.20103C9.41292 4.00103 9.66992 3.93303 9.86992 4.04903L14.2789 6.61003Z" fill="#373837"/>
</svg>
