<svg width="14" height="15" viewBox="0 0 14 15" fill="none" xmlns="http://www.w3.org/2000/svg">
<path d="M7 0.96875C3.25391 0.96875 0.21875 4.00391 0.21875 7.75C0.21875 11.4961 3.25391 14.5312 7 14.5312C10.7461 14.5312 13.7812 11.4961 13.7812 7.75C13.7812 4.00391 10.7461 0.96875 7 0.96875ZM8.72266 4.49609C8.94141 4.19531 9.40625 4.16797 9.625 4.49609C9.95312 5.01562 10.0352 5.50781 10.0625 6C10.0352 6.51953 9.95312 7.01172 9.625 7.53125C9.40625 7.83203 8.94141 7.83203 8.72266 7.53125C8.39453 7.01172 8.3125 6.51953 8.3125 6C8.3125 5.50781 8.39453 5.01562 8.72266 4.49609ZM4.34766 4.49609C4.56641 4.19531 5.03125 4.16797 5.25 4.49609C5.57812 5.01562 5.66016 5.50781 5.6875 6C5.66016 6.51953 5.57812 7.01172 5.25 7.53125C5.03125 7.83203 4.56641 7.83203 4.34766 7.53125C4.01953 7.01172 3.9375 6.51953 3.9375 6C3.9375 5.50781 4.01953 5.01562 4.34766 4.49609ZM7 12.5625C5.33203 12.5625 3.30859 11.5234 3.0625 10.0195C3.00781 9.69141 3.30859 9.44531 3.60938 9.52734C4.45703 9.80078 5.6875 9.9375 7 9.9375C8.3125 9.9375 9.51562 9.80078 10.3633 9.52734C10.6641 9.44531 10.9648 9.69141 10.9102 10.0195C10.6641 11.5234 8.64062 12.5625 7 12.5625Z" fill="black"/>
</svg>
