<svg width="20" height="20" viewBox="0 0 20 20" fill="none" xmlns="http://www.w3.org/2000/svg">
<path d="M10 0C15.5234 0 20 4.47754 20 10C20 15.5234 15.5234 20 10 20C4.47754 20 0 15.5229 0 10C0 4.47754 4.47754 0 10 0Z" fill="#F5AC37"/>
<path d="M10.3701 10.7061H14.17C14.251 10.7061 14.2892 10.7061 14.2951 10.5999C14.3261 10.2134 14.3261 9.82458 14.2951 9.43758C14.2951 9.36242 14.2577 9.33137 14.1763 9.33137H6.61394C6.52034 9.33137 6.49514 9.36242 6.49514 9.45018V10.5626C6.49514 10.7061 6.49514 10.7061 6.64499 10.7061H10.3701V10.7061ZM13.8707 8.03131C13.8815 8.00296 13.8815 7.97191 13.8707 7.94401C13.8073 7.80586 13.7321 7.67401 13.6448 7.55026C13.5134 7.33875 13.3586 7.1439 13.1822 6.96885C13.099 6.8631 13.0027 6.76815 12.8946 6.6876C12.3537 6.22724 11.7107 5.90144 11.0195 5.73764C10.6707 5.65934 10.3143 5.62199 9.95702 5.62514H6.60089C6.50729 5.62514 6.49469 5.66249 6.49469 5.74394V7.96246C6.49469 8.05606 6.49469 8.08126 6.61349 8.08126H13.8257C13.8257 8.08126 13.8883 8.06866 13.9009 8.03131H13.8703H13.8707ZM13.8707 12.0062C13.7645 11.9945 13.6574 11.9945 13.5512 12.0062H6.62024C6.52664 12.0062 6.49514 12.0062 6.49514 12.1313V14.3003C6.49514 14.4002 6.49514 14.4254 6.62024 14.4254H9.82022C9.97322 14.4371 10.1262 14.4263 10.2761 14.3944C10.7405 14.3611 11.1972 14.2603 11.6328 14.0942C11.7912 14.0393 11.9442 13.9678 12.0887 13.8818H12.1323C12.8825 13.4917 13.4918 12.8788 13.8761 12.1264C13.8761 12.1264 13.9198 12.0319 13.8707 12.0071V12.0062ZM5.23917 15.55V15.5126V14.0564V13.5628V12.094C5.23917 12.0125 5.23917 12.0004 5.13927 12.0004H3.78296C3.70781 12.0004 3.67676 12.0004 3.67676 11.9004V10.7129H5.12667C5.20767 10.7129 5.23917 10.7129 5.23917 10.6067V9.43173C5.23917 9.35657 5.23917 9.33812 5.13927 9.33812H3.78296C3.70781 9.33812 3.67676 9.33812 3.67676 9.23822V8.13841C3.67676 8.06956 3.67676 8.05111 3.77666 8.05111H5.12037C5.21397 8.05111 5.23917 8.05111 5.23917 7.93231V4.56358C5.23917 4.46368 5.23917 4.43848 5.36427 4.43848H10.0515C10.3917 4.45198 10.7297 4.48933 11.064 4.55098C11.753 4.67833 12.4149 4.92448 13.0202 5.27593C13.4216 5.51219 13.7911 5.79749 14.12 6.12599C14.3675 6.38295 14.5907 6.66105 14.7887 6.95715C14.9854 7.2573 15.1487 7.57816 15.277 7.91341C15.2927 8.00071 15.3764 8.05966 15.4637 8.04481H16.5824C16.726 8.04481 16.726 8.04481 16.7323 8.18251V9.20762C16.7323 9.30752 16.6949 9.33272 16.5946 9.33272H15.7319C15.6446 9.33272 15.6194 9.33272 15.6257 9.44523C15.6599 9.82593 15.6599 10.208 15.6257 10.5887C15.6257 10.6949 15.6257 10.7075 15.745 10.7075H16.7318C16.7755 10.7637 16.7318 10.82 16.7318 10.8767C16.7381 10.9491 16.7381 11.0225 16.7318 11.0949V11.8514C16.7318 11.9576 16.7008 11.9891 16.6067 11.9891H15.4255C15.3431 11.9734 15.263 12.026 15.2441 12.1079C14.9629 12.8392 14.5129 13.4948 13.9315 14.0204C13.7191 14.2117 13.4959 14.3917 13.2628 14.5577C13.0126 14.7017 12.7691 14.8516 12.5126 14.9704C12.0405 15.1828 11.5455 15.3394 11.0375 15.4388C10.5551 15.5252 10.0659 15.5644 9.57497 15.5576H5.23737V15.5513L5.23917 15.55Z" fill="#FEFEFD"/>
</svg>
