<svg width="21" height="19" viewBox="0 0 21 19" fill="none" xmlns="http://www.w3.org/2000/svg">
<path d="M9.75 13.2697C9.75 12.8557 10.086 12.5137 10.5 12.5137C10.914 12.5137 11.25 12.8447 11.25 13.2587V13.2697C11.25 13.6837 10.914 14.0197 10.5 14.0197C10.086 14.0197 9.75 13.6837 9.75 13.2697Z" fill="currentColor"/>
<path d="M3.29535 17.418H17.7774C18.9244 17.358 19.8064 16.381 19.7474 15.234C19.7344 15.002 19.6844 14.773 19.5964 14.559L12.3194 1.82298C11.7634 0.817977 10.4984 0.453977 9.49335 1.01098C9.15135 1.19898 8.86935 1.48098 8.68035 1.82298L1.40335 14.559C0.971352 15.623 1.48335 16.835 2.54635 17.268C2.76235 17.355 2.99035 17.405 3.22235 17.418" stroke="currentColor" stroke-width="1.5" stroke-linecap="round" stroke-linejoin="round"/>
<path d="M10.4902 10.3964V7.29639" stroke="currentColor" stroke-width="1.5" stroke-linecap="round" stroke-linejoin="round"/>
</svg>
