<svg width="17" height="20" viewBox="0 0 17 20" fill="none" xmlns="http://www.w3.org/2000/svg">
<path d="M0 4.60022H16.2" stroke="black" stroke-linejoin="round"/>
<path d="M4.49993 4.6V2.8C4.49993 2.32261 4.68957 1.86477 5.02713 1.52721C5.3647 1.18964 5.82254 1 6.29993 1H9.89993C10.3773 1 10.8352 1.18964 11.1727 1.52721C11.5103 1.86477 11.6999 2.32261 11.6999 2.8V4.6M14.3999 4.6V17.2C14.3999 17.6774 14.2103 18.1352 13.8727 18.4728C13.5352 18.8104 13.0773 19 12.5999 19H3.59993C3.12254 19 2.6647 18.8104 2.32713 18.4728C1.98957 18.1352 1.79993 17.6774 1.79993 17.2V4.6H14.3999Z" stroke="black" stroke-linejoin="round"/>
<path d="M6.29993 9.10022V14.5002" stroke="black" stroke-linejoin="round"/>
<path d="M9.90002 9.10022V14.5002" stroke="black" stroke-linejoin="round"/>
</svg>
