<svg width="50" height="50" viewBox="0 0 50 50" fill="none" xmlns="http://www.w3.org/2000/svg">
<path d="M17 19.6002H33.2" stroke="#FF4949" stroke-linejoin="round"/>
<path d="M21.5 19.6V17.8C21.5 17.3226 21.6896 16.8648 22.0272 16.5272C22.3648 16.1896 22.8226 16 23.3 16H26.9C27.3774 16 27.8352 16.1896 28.1728 16.5272C28.5103 16.8648 28.7 17.3226 28.7 17.8V19.6M31.4 19.6V32.2C31.4 32.6774 31.2103 33.1352 30.8728 33.4728C30.5352 33.8104 30.0774 34 29.6 34H20.6C20.1226 34 19.6648 33.8104 19.3272 33.4728C18.9896 33.1352 18.8 32.6774 18.8 32.2V19.6H31.4Z" stroke="#FF4949" stroke-linejoin="round"/>
<path d="M23.3 24.1002V29.5002" stroke="#FF4949" stroke-linejoin="round"/>
<path d="M26.9001 24.1002V29.5002" stroke="#FF4949" stroke-linejoin="round"/>
<path d="M12 1H38V-1H12V1ZM49 12V38H51V12H49ZM38 49H12V51H38V49ZM1 38V12H-1V38H1ZM12 49C5.92487 49 1 44.0751 1 38H-1C-1 45.1797 4.8203 51 12 51V49ZM49 38C49 44.0751 44.0751 49 38 49V51C45.1797 51 51 45.1797 51 38H49ZM38 1C44.0751 1 49 5.92487 49 12H51C51 4.8203 45.1797 -1 38 -1V1ZM12 -1C4.8203 -1 -1 4.8203 -1 12H1C1 5.92487 5.92487 1 12 1V-1Z" fill="#FF4949" fill-opacity="0.4"/>
</svg>
