<svg width="20" height="23" viewBox="0 0 20 23" fill="none" xmlns="http://www.w3.org/2000/svg">
<path fill-rule="evenodd" clip-rule="evenodd" d="M2.32955 0H17.5568C18.8409 0 19.8864 1.04545 19.8864 2.34091V22.7273L17.4432 20.5682L16.0682 19.2955L14.6136 17.9432L15.2159 20.0455H2.32955C1.04545 20.0455 0 19 0 17.7045V2.34091C0 1.04545 1.04545 0 2.32955 0ZM12.4205 13.9205C12.7614 14.3523 13.1705 14.8409 13.1705 14.8409C15.6818 14.7614 16.6477 13.1136 16.6477 13.1136C16.6477 9.45454 15.0114 6.48864 15.0114 6.48864C13.375 5.26136 11.8182 5.29545 11.8182 5.29545L11.6591 5.47727C13.5909 6.06818 14.4886 6.92045 14.4886 6.92045C13.3068 6.27273 12.1477 5.95455 11.0682 5.82955C10.25 5.73864 9.46591 5.76136 8.77273 5.85227C8.71321 5.85227 8.66235 5.86093 8.60503 5.87069C8.59668 5.87211 8.58821 5.87356 8.57955 5.875C8.18182 5.90909 7.21591 6.05682 6 6.59091C5.57955 6.78409 5.32955 6.92045 5.32955 6.92045C5.32955 6.92045 6.27273 6.02273 8.31818 5.43182L8.20455 5.29545C8.20455 5.29545 6.64773 5.26136 5.01136 6.48864C5.01136 6.48864 3.375 9.45454 3.375 13.1136C3.375 13.1136 4.32955 14.7614 6.84091 14.8409C6.84091 14.8409 7.26136 14.3295 7.60227 13.8977C6.15909 13.4659 5.61364 12.5568 5.61364 12.5568C5.61364 12.5568 5.72727 12.6364 5.93182 12.75C5.94318 12.7614 5.95455 12.7727 5.97727 12.7841C5.99432 12.7955 6.01136 12.804 6.02841 12.8125C6.04545 12.821 6.0625 12.8295 6.07955 12.8409C6.36364 13 6.64773 13.125 6.90909 13.2273C7.375 13.4091 7.93182 13.5909 8.57955 13.7159C9.43182 13.875 10.4318 13.9318 11.5227 13.7273C12.0568 13.6364 12.6023 13.4773 13.1705 13.2386C13.5682 13.0909 14.0114 12.875 14.4773 12.5682C14.4773 12.5682 13.9091 13.5 12.4205 13.9205ZM6.72754 10.7951C6.72754 10.1019 7.2389 9.53369 7.88663 9.53369C8.53436 9.53369 9.05709 10.1019 9.04572 10.7951C9.04572 11.4882 8.53436 12.0564 7.88663 12.0564C7.25027 12.0564 6.72754 11.4882 6.72754 10.7951ZM10.8753 10.7951C10.8753 10.1019 11.3866 9.53369 12.0344 9.53369C12.6821 9.53369 13.1934 10.1019 13.1934 10.7951C13.1934 11.4882 12.6821 12.0564 12.0344 12.0564C11.398 12.0564 10.8753 11.4882 10.8753 10.7951Z" fill="white"/>
</svg>
