<svg width="220" height="220" viewBox="0 0 220 220" fill="none" xmlns="http://www.w3.org/2000/svg">
<path fill-rule="evenodd" clip-rule="evenodd" d="M147.376 2.05025C144.642 -0.683418 140.21 -0.683417 137.476 2.05025L109.662 29.8646L81.8473 2.05025C79.1136 -0.683417 74.6815 -0.683417 71.9478 2.05025C69.2141 4.78392 69.2141 9.21608 71.9478 11.9497L98.6718 38.6737H62.2231C40.5608 38.6737 23 56.2345 23 77.8969V78.6573C30.4736 76.7091 40.0655 76.3645 47.4053 76.1639C76.8074 76.7211 99.8763 86.0279 119.041 104.926C126.295 112.205 130.941 120.99 131.873 131.257C132.828 142.651 128.347 151.803 119.973 159.284C114.206 164.691 106.941 167.678 99.6876 170.298C98.3205 170.794 96.9851 171.289 95.6627 171.779C92.4901 172.956 89.3925 174.105 86.1128 175.159C80.9671 176.749 76.1243 179.097 71.7297 182.1H157.777C179.439 182.1 197 164.539 197 142.877V77.8969C197 56.2345 179.439 38.6737 157.777 38.6737H120.652L147.376 11.9497C150.109 9.21608 150.109 4.78392 147.376 2.05025ZM59.4259 182.002C64.7842 176.711 71.3062 172.684 78.9657 169.777C79.3117 169.637 79.6577 169.498 80.0038 169.358C84.3061 167.625 88.617 165.889 92.9179 163.979C100.113 160.984 106.267 155.919 110.609 149.42C112.325 146.948 113.481 144.127 113.994 141.157C114.508 138.187 114.367 135.139 113.581 132.23C111.588 124.381 106.752 118.038 100.607 112.988C86.2779 100.67 69.5306 94.8722 50.5543 94.5047C41.1415 94.5842 31.8195 96.3013 23 99.5742V119.86C29.1446 116.644 35.8388 114.583 42.7473 113.788C61.1387 111.547 77.6505 116.03 91.5213 128.802C93.4415 130.444 95.0913 132.377 96.4106 134.529C101.11 141.253 100.55 148.724 94.769 154.523C92.0276 157.174 88.9334 159.437 85.5733 161.247C81.5027 163.562 77.2912 165.621 72.9634 167.413C65.8007 170.77 59.4094 175.488 54.1269 181.264C55.8542 181.626 57.6232 181.875 59.4259 182.002ZM23 142.877V141.681C27.9913 137.478 33.9198 134.502 40.3086 133.011C51.3963 130.624 62.9354 131.063 72.7731 137.494C75.7004 139.293 78.2496 141.641 80.2795 144.408C83.8484 149.27 83.087 154.499 78.3999 158.425C76.3136 160.195 73.9715 161.642 71.4526 162.717C62.661 166.613 54.9288 172.455 48.8155 179.749C47.4236 179.242 46.0684 178.66 44.7552 178.005C49.0074 172.954 53.9839 168.525 59.5376 164.863C61.0219 163.811 62.3819 162.598 63.5922 161.247C66.2789 158.403 66.2789 155.366 63.3845 152.703C61.6475 151.037 59.6258 149.686 57.4126 148.714C45.9486 144.421 33.2665 149.729 26.8439 159.832C24.3801 154.7 23 148.95 23 142.877Z" fill="black"/>
</svg>
