<svg width="18" height="18" viewBox="0 0 18 18" fill="none" xmlns="http://www.w3.org/2000/svg">
<path fill-rule="evenodd" clip-rule="evenodd" d="M14.8088 1.17687C14.1253 0.493451 13.0173 0.493452 12.3339 1.17687L1.27679 12.2341C1.00905 12.5018 0.835372 12.8492 0.781824 13.224L0.257545 16.8939C0.224161 17.1276 0.30275 17.3634 0.469672 17.5303C0.636593 17.6973 0.872364 17.7759 1.10606 17.7425L4.77605 17.2183C5.15091 17.1647 5.49829 16.991 5.76605 16.7233L16.8231 5.66609C17.5065 4.98267 17.5065 3.87464 16.8231 3.19122L14.8088 1.17687ZM13.3946 2.23753C13.4922 2.1399 13.6505 2.1399 13.7481 2.23753L15.7625 4.25188C15.8601 4.34951 15.8601 4.5078 15.7625 4.60544L13.7142 6.65373L11.3463 4.28581L13.3946 2.23753ZM10.2856 5.34648L2.33746 13.2947C2.29921 13.333 2.2744 13.3826 2.26675 13.4361L1.88389 16.1162L4.56395 15.7333C4.6175 15.7257 4.66713 15.7009 4.70538 15.6626L12.6535 7.71439L10.2856 5.34648Z" fill="black"/>
</svg>
