<svg width="30" height="30" viewBox="0 0 30 30" fill="none" xmlns="http://www.w3.org/2000/svg">
<rect opacity="0.1" width="30" height="30" rx="15" fill="#6FDD6C"/>
<path d="M20.033 16.0876L21.0165 11.735C21.0793 11.4211 20.8491 11.1072 20.5143 11.1072H12.3112L12.1228 10.1864C12.0601 9.95622 11.8508 9.76788 11.6206 9.76788H9.48612C9.19315 9.76788 8.98389 9.99807 8.98389 10.2701V10.6049C8.98389 10.8979 9.19315 11.1072 9.48612 11.1072H10.93L12.4158 18.3058C12.0601 18.5151 11.8299 18.8918 11.8299 19.3103C11.8299 19.959 12.353 20.4822 13.0017 20.4822C13.6295 20.4822 14.1736 19.959 14.1736 19.3103C14.1736 18.9964 14.0271 18.7034 13.8179 18.4732H18.1915C17.9822 18.7034 17.8567 18.9964 17.8567 19.3103C17.8567 19.959 18.3798 20.4822 19.0285 20.4822C19.6563 20.4822 20.2004 19.959 20.2004 19.3103C20.2004 18.8499 19.9284 18.4523 19.5308 18.264L19.6354 17.7617C19.7191 17.4478 19.468 17.134 19.1541 17.134H13.5458L13.3993 16.4643H19.5308C19.761 16.4643 19.9702 16.3178 20.033 16.0876Z" fill="#6FDD6C"/>
</svg>
