<svg width="14" height="14" viewBox="0 0 14 14" fill="none" xmlns="http://www.w3.org/2000/svg">
<path fill-rule="evenodd" clip-rule="evenodd" d="M11.3934 5.61808L12.8181 5.96773C12.9751 6.00341 13.0893 6.14612 13.0893 6.31024V7.73736C13.0893 7.90148 12.9751 8.04419 12.8181 8.07987L11.3934 8.42952C11.3149 8.67926 11.215 8.92188 11.0937 9.15735L11.8215 10.3704C11.9071 10.5131 11.8857 10.6915 11.7716 10.8057L10.7583 11.8189C10.6441 11.9331 10.4657 11.9545 10.323 11.8689L9.10996 11.1411C8.87449 11.2624 8.63188 11.3623 8.38213 11.4408L8.03962 12.8179C7.99681 12.9749 7.85409 13.0891 7.68997 13.0891H6.26285C6.09873 13.0891 5.95602 12.9749 5.9132 12.8179L5.57069 11.4408C5.32095 11.3623 5.07834 11.2624 4.84286 11.1411L3.6298 11.8689C3.48709 11.9545 3.3087 11.9331 3.19453 11.8189L2.18127 10.8057C2.0671 10.6915 2.0457 10.5131 2.13132 10.3704L2.85916 9.15735C2.73785 8.92188 2.63795 8.67926 2.55946 8.42952L1.18229 8.07987C1.0253 8.04419 0.911133 7.90148 0.911133 7.73736V6.31024C0.911133 6.14612 1.0253 6.00341 1.18229 5.96773L2.55946 5.61808C2.63795 5.36834 2.73785 5.12572 2.85916 4.89025L2.13132 3.67719C2.0457 3.53448 2.0671 3.35609 2.18127 3.24192L3.19453 2.22866C3.3087 2.11449 3.48709 2.09308 3.6298 2.17871L4.84286 2.90655C5.07834 2.78524 5.32095 2.68534 5.57069 2.60685L5.9132 1.1821C5.95602 1.02512 6.09873 0.91095 6.26285 0.91095H7.68997C7.85409 0.91095 7.99681 1.02512 8.03962 1.1821L8.38213 2.60685C8.63188 2.68534 8.87449 2.78524 9.10996 2.90655L10.323 2.17871C10.4657 2.09308 10.6441 2.11449 10.7583 2.22866L11.7716 3.24192C11.8857 3.35609 11.9071 3.53448 11.8215 3.67719L11.0937 4.89025C11.215 5.12572 11.3149 5.36834 11.3934 5.61808ZM7.00023 9.26802C8.2528 9.26802 9.2682 8.25261 9.2682 7.00005C9.2682 5.74748 8.2528 4.73208 7.00023 4.73208C5.74766 4.73208 4.73226 5.74748 4.73226 7.00005C4.73226 8.25261 5.74766 9.26802 7.00023 9.26802Z" fill="#6532BA"/>
</svg>
