<svg width="30" height="30" viewBox="0 0 30 30" fill="none" xmlns="http://www.w3.org/2000/svg">
<rect opacity="0.1" width="30" height="30" rx="15" fill="#FFB23E"/>
<path d="M9.2966 14.7899C9.2966 15.0354 9.43052 15.3703 9.6091 15.5488L14.3189 20.2586C14.743 20.6828 15.435 20.6828 15.8368 20.2586L20.3903 15.7051C20.8145 15.3033 20.8145 14.6113 20.3903 14.1872L15.6805 9.4774C15.502 9.29883 15.1671 9.14258 14.9216 9.14258H10.368C9.76535 9.14258 9.2966 9.63365 9.2966 10.214V14.7899ZM11.7966 10.5711C12.377 10.5711 12.868 11.0622 12.868 11.6426C12.868 12.2453 12.377 12.714 11.7966 12.714C11.1939 12.714 10.7252 12.2453 10.7252 11.6426C10.7252 11.0622 11.1939 10.5711 11.7966 10.5711Z" fill="#FFB23E"/>
</svg>
