<svg width="30" height="30" viewBox="0 0 30 30" fill="none" xmlns="http://www.w3.org/2000/svg">
<rect opacity="0.1" width="30" height="30" rx="15" fill="#6532BA"/>
<path fill-rule="evenodd" clip-rule="evenodd" d="M19.3934 13.6181L20.8181 13.9677C20.9751 14.0034 21.0893 14.1461 21.0893 14.3102V15.7374C21.0893 15.9015 20.9751 16.0442 20.8181 16.0799L19.3934 16.4295C19.3149 16.6793 19.215 16.9219 19.0937 17.1574L19.8215 18.3704C19.9071 18.5131 19.8857 18.6915 19.7716 18.8057L18.7583 19.8189C18.6441 19.9331 18.4657 19.9545 18.323 19.8689L17.11 19.1411C16.8745 19.2624 16.6319 19.3623 16.3821 19.4408L16.0396 20.8179C15.9968 20.9749 15.8541 21.0891 15.69 21.0891H14.2628C14.0987 21.0891 13.956 20.9749 13.9132 20.8179L13.5707 19.4408C13.3209 19.3623 13.0783 19.2624 12.8429 19.1411L11.6298 19.8689C11.4871 19.9545 11.3087 19.9331 11.1945 19.8189L10.1813 18.8057C10.0671 18.6915 10.0457 18.5131 10.1313 18.3704L10.8592 17.1574C10.7379 16.9219 10.638 16.6793 10.5595 16.4295L9.18229 16.0799C9.0253 16.0442 8.91113 15.9015 8.91113 15.7374V14.3102C8.91113 14.1461 9.0253 14.0034 9.18229 13.9677L10.5595 13.6181C10.638 13.3683 10.7379 13.1257 10.8592 12.8902L10.1313 11.6772C10.0457 11.5345 10.0671 11.3561 10.1813 11.2419L11.1945 10.2287C11.3087 10.1145 11.4871 10.0931 11.6298 10.1787L12.8429 10.9065C13.0783 10.7852 13.3209 10.6853 13.5707 10.6068L13.9132 9.1821C13.956 9.02512 14.0987 8.91095 14.2628 8.91095H15.69C15.8541 8.91095 15.9968 9.02512 16.0396 9.1821L16.3821 10.6068C16.6319 10.6853 16.8745 10.7852 17.11 10.9065L18.323 10.1787C18.4657 10.0931 18.6441 10.1145 18.7583 10.2287L19.7716 11.2419C19.8857 11.3561 19.9071 11.5345 19.8215 11.6772L19.0937 12.8902C19.215 13.1257 19.3149 13.3683 19.3934 13.6181ZM15.0002 17.268C16.2528 17.268 17.2682 16.2526 17.2682 15C17.2682 13.7475 16.2528 12.7321 15.0002 12.7321C13.7477 12.7321 12.7323 13.7475 12.7323 15C12.7323 16.2526 13.7477 17.268 15.0002 17.268Z" fill="#6532BA"/>
</svg>
