<svg width="30" height="30" viewBox="0 0 30 30" fill="none" xmlns="http://www.w3.org/2000/svg">
<rect opacity="0.1" width="30" height="30" rx="15" fill="#427FF5"/>
<path d="M12.5002 9.52253C12.2547 9.14307 11.6743 9.03146 11.2949 9.32164C10.0672 10.3038 9.28592 11.777 9.28592 13.4288H15.0002L12.5002 9.52253ZM20.3574 11.2859H19.2859C18.4824 11.2859 17.8574 11.9332 17.8574 12.7145V14.1431H9.28592C9.28592 15.2815 9.79932 16.3082 10.6252 17.0672C9.84396 17.2681 9.28592 17.96 9.28592 18.7859C9.28592 19.7904 10.0672 20.5716 11.0716 20.5716C12.0538 20.5716 12.8574 19.7904 12.8574 18.7859C12.8574 18.6074 12.8127 18.4065 12.7457 18.2279C13.2368 18.3618 13.7502 18.4288 14.2859 18.4288C14.7993 18.4288 15.3127 18.3618 15.8038 18.2279C15.7368 18.4065 15.7145 18.6074 15.7145 18.7859C15.7145 19.7904 16.4957 20.5716 17.5002 20.5716C18.4824 20.5716 19.2859 19.7904 19.2859 18.7859C19.2859 17.96 18.7056 17.2681 17.9243 17.0672C18.7725 16.3082 19.2859 15.2815 19.2859 14.1431V12.7145H20.3574C20.5359 12.7145 20.7145 12.5582 20.7145 12.3574V11.6431C20.7145 11.4645 20.5359 11.2859 20.3574 11.2859ZM11.0716 19.5002C10.6699 19.5002 10.3574 19.1877 10.3574 18.7859C10.3574 18.4065 10.6699 18.0716 11.0716 18.0716C11.4511 18.0716 11.7859 18.4065 11.7859 18.7859C11.7859 19.1877 11.4511 19.5002 11.0716 19.5002ZM18.2145 18.7859C18.2145 19.1877 17.8797 19.5002 17.5002 19.5002C17.0984 19.5002 16.7859 19.1877 16.7859 18.7859C16.7859 18.4065 17.0984 18.0716 17.5002 18.0716C17.8797 18.0716 18.2145 18.4065 18.2145 18.7859Z" fill="#6C9EFF"/>
</svg>
