<svg width="31" height="31" viewBox="0 0 31 31" fill="none" xmlns="http://www.w3.org/2000/svg">
<rect opacity="0.1" x="0.752441" y="0.414551" width="30" height="30" rx="15" fill="#D146F3"/>
<path d="M9.8953 13.1646C9.8953 13.4771 10.1185 13.7003 10.431 13.7003H18.4667V14.7717C18.4667 15.2628 19.0248 15.486 19.3596 15.1512L21.1453 13.3654C21.3685 13.1646 21.3685 12.8297 21.1453 12.6288L19.3596 10.8431C19.0248 10.486 18.4667 10.7315 18.4667 11.2003V12.2717H10.431C10.1185 12.2717 9.8953 12.5172 9.8953 12.8074V13.1646ZM20.7882 16.5574H12.7524V15.486C12.7524 15.0172 12.1721 14.7717 11.8373 15.1288L10.0515 16.9146C9.82833 17.1154 9.82833 17.4503 10.0515 17.6512L11.8373 19.4369C12.1721 19.7717 12.7524 19.5485 12.7524 19.0574V17.986H20.7882C21.0783 17.986 21.3239 17.7628 21.3239 17.4503V17.0931C21.3239 16.8029 21.0783 16.5574 20.7882 16.5574Z" fill="#D146F3"/>
</svg>
