<svg width="16" height="15" viewBox="0 0 16 15" fill="none" xmlns="http://www.w3.org/2000/svg">
<path d="M11.5 6.875V2.5C11.5 1.54297 10.707 0.75 9.75 0.75H1.875C0.890625 0.75 0.125 1.54297 0.125 2.5V6.875C0.125 7.85938 0.890625 8.625 1.875 8.625V10.1289C1.875 10.3477 2.12109 10.457 2.28516 10.3203L4.55469 8.625H9.75C10.707 8.625 11.5 7.85938 11.5 6.875ZM14.125 5.125H12.375V6.875C12.375 8.32422 11.1719 9.5 9.75 9.5H5.375V11.25C5.375 12.2344 6.14062 13 7.125 13H10.543L12.8125 14.7227C12.9766 14.832 13.25 14.7227 13.25 14.5039V13H14.125C15.082 13 15.875 12.2344 15.875 11.25V6.875C15.875 5.91797 15.082 5.125 14.125 5.125Z" fill="black"/>
</svg>
