<svg width="20" height="21" viewBox="0 0 20 21" fill="none" xmlns="http://www.w3.org/2000/svg">
<path fill-rule="evenodd" clip-rule="evenodd" d="M17.0002 3H17.0002H17H11.0002C10.7241 3 10.5002 3.22386 10.5002 3.5C10.5002 3.77614 10.7241 4 11.0002 4H15.793L10.8132 8.97978C10.6179 9.17504 10.6179 9.49162 10.8132 9.68689C11.0085 9.88215 11.325 9.88215 11.5203 9.68689L16.5002 4.70694V9.5C16.5002 9.77614 16.7241 10 17.0002 10C17.2764 10 17.5002 9.77614 17.5002 9.5V3.5V3H17.0002ZM3.50005 7.49991C3.50003 6.67136 4.17149 5.99984 4.99988 5.99988L7.66691 6C7.94305 6 8.16691 5.77614 8.16691 5.5C8.16691 5.22386 7.94305 5 7.66691 5L4.99993 4.99988C3.61907 4.99981 2.50002 6.11923 2.50005 7.49993L2.5002 15.5C2.50023 16.8807 3.61951 18 5.0002 18H13.0002C14.3809 18 15.5002 16.8807 15.5002 15.5V12.8333C15.5002 12.5572 15.2764 12.3333 15.0002 12.3333C14.7241 12.3333 14.5002 12.5572 14.5002 12.8333V15.5C14.5002 16.3284 13.8287 17 13.0002 17H5.0002C4.17178 17 3.50022 16.3284 3.5002 15.5L3.50005 7.49991Z" fill="black"/>
</svg>
