<svg width="20" height="20" viewBox="0 0 20 20" fill="none" xmlns="http://www.w3.org/2000/svg">
<path d="M16.6992 5.29297L10.3008 2.83203C10.2188 2.77734 10.082 2.75 10 2.75C9.89062 2.75 9.75391 2.77734 9.67188 2.83203L3.27344 5.29297C3.10938 5.34766 3 5.51172 3 5.70312V6.6875C3 6.93359 3.19141 7.125 3.4375 7.125H16.5625C16.7812 7.125 17 6.93359 17 6.6875V5.70312C17 5.51172 16.8633 5.34766 16.6992 5.29297ZM4.75 8V12.375H4.3125C4.06641 12.375 3.875 12.5938 3.875 12.8125V14.125H16.125V12.8125C16.125 12.5938 15.9062 12.375 15.6875 12.375H15.25V8H13.5V12.375H10.875V8H9.125V12.375H6.5V8H4.75ZM16.5625 15H3.4375C3.19141 15 3 15.2188 3 15.4375V16.3125C3 16.5586 3.19141 16.75 3.4375 16.75H16.5625C16.7812 16.75 17 16.5586 17 16.3125V15.4375C17 15.2188 16.7812 15 16.5625 15Z" fill="black"/>
</svg>
