<svg width="20" height="20" viewBox="0 0 20 20" fill="none" xmlns="http://www.w3.org/2000/svg">
<mask id="path-1-inside-1" fill="white">
<path fill-rule="evenodd" clip-rule="evenodd" d="M1 9.99995C2.69599 6.43357 6.08985 4 10 4C13.9102 4 17.3041 6.43362 19.0001 10.0001C17.3041 13.5664 13.9102 16 10.0001 16C6.08986 16 2.69597 13.5664 1 9.99995Z"/>
</mask>
<path d="M1 9.99995L0.0969142 9.57049L-0.107312 9.99995L0.0969099 10.4294L1 9.99995ZM19.0001 10.0001L19.9032 10.4295L20.1074 10.0001L19.9032 9.57061L19.0001 10.0001ZM1.90309 10.4294C3.45702 7.16175 6.52797 5 10 5V3C5.65172 3 1.93496 5.70539 0.0969142 9.57049L1.90309 10.4294ZM10 5C13.4721 5 16.5431 7.16179 18.097 10.4295L19.9032 9.57061C18.0652 5.70544 14.3484 3 10 3V5ZM18.097 9.5706C16.5431 12.8383 13.4721 15 10.0001 15V17C14.3484 17 18.0651 14.2946 19.9032 10.4295L18.097 9.5706ZM10.0001 15C6.52799 15 3.45701 12.8382 1.90309 9.5705L0.0969099 10.4294C1.93493 14.2946 5.65173 17 10.0001 17V15Z" fill="black" mask="url(#path-1-inside-1)"/>
<circle cx="10" cy="10" r="3.5" stroke="black"/>
<path d="M2 2L18 18" stroke="black"/>
</svg>
