<svg width="18" height="17" viewBox="0 0 18 17" fill="none" xmlns="http://www.w3.org/2000/svg">
<path d="M18 1.63281C18 1.22656 17.6562 0.882812 17.25 0.882812H13.25C12.5625 0.882812 12.2188 1.69531 12.7188 2.16406L13.8125 3.28906L6.21875 10.9141C5.90625 11.1953 5.90625 11.6641 6.21875 11.9766L6.90625 12.6641C7.21875 12.9766 7.6875 12.9766 7.96875 12.6641L15.5938 5.07031L16.7188 6.16406C17.1875 6.63281 18 6.32031 18 5.63281V1.63281ZM12.7188 9.35156L12.2188 9.85156C12.0938 9.97656 12 10.2266 12 10.3828V14.8828H2V4.88281H10.25C10.4062 4.88281 10.6562 4.78906 10.75 4.66406L11.25 4.16406C11.75 3.69531 11.4062 2.88281 10.75 2.88281H1.5C0.65625 2.88281 0 3.57031 0 4.38281V15.3828C0 16.2266 0.65625 16.8828 1.5 16.8828H12.5C13.3125 16.8828 14 16.2266 14 15.3828V9.88281C14 9.22656 13.1875 8.88281 12.7188 9.35156Z" fill="black" fill-opacity="0.2"/>
</svg>
