<svg width="20" height="20" viewBox="0 0 20 20" fill="none" xmlns="http://www.w3.org/2000/svg">
<rect width="20" height="20" rx="10" fill="url(#paint0_linear_7176:130573)"/>
<path d="M10.01 4.06918C9.91753 6.73114 9.92035 9.59649 10.01 12.2749C10.0893 9.59738 10.092 6.73124 10.01 4.06918Z" fill="white"/>
<path d="M6.90141 18.1769L6.89514 18.1563C7.86814 17.4497 8.8404 16.7409 9.81173 16.0296C9.945 15.9313 10.0552 15.9211 10.1916 16.021C11.1598 16.7264 12.128 17.4317 13.0962 18.1369C13.1042 18.1449 13.111 18.1539 13.1164 18.1637C13.0604 18.1748 13.0282 18.1366 12.9898 18.1174C12.3745 17.8086 11.7253 17.5646 11.0539 17.3899C10.2765 17.1873 9.4984 17.2133 8.73178 17.4496C8.12998 17.6352 7.53924 17.8488 6.98339 18.1392C6.95676 18.1532 6.92856 18.1643 6.90141 18.1769Z" fill="white"/>
<path d="M6.34786 8.2562C6.28634 8.19487 6.25668 8.13721 6.31997 8.06014C7.1739 6.98911 7.56776 5.74521 7.83085 4.45445C7.9988 3.63288 8.09802 2.80289 8.19515 1.97082H8.2268V2.05493C8.23849 4.15071 8.23881 6.2469 8.26544 8.34278C8.28633 9.97681 8.27338 11.6096 8.29364 13.2426C8.29928 13.6854 8.30847 14.1285 8.31578 14.5716C8.32142 14.9101 8.41417 15.2196 8.64875 15.4846C8.72989 15.5763 8.80536 15.6723 8.87476 15.7723C8.9438 15.8722 8.94286 15.9695 8.82954 16.0469C7.94919 16.6487 7.10789 17.2981 6.26294 17.9429C6.2385 17.9548 6.21312 17.9648 6.18701 17.9728C6.34802 17.6301 6.46291 17.3066 6.57772 16.9832L6.57982 16.9773C6.87582 16.1428 7.00397 15.2869 6.99614 14.4078C6.98914 13.6111 6.99342 12.8144 7.00909 12.0177C7.02068 11.4201 7.02966 10.8226 7.00084 10.2251C6.98214 9.83604 6.9366 9.45096 6.81754 9.07658C6.72103 8.77274 6.58076 8.49039 6.34786 8.2562Z" fill="white"/>
<path d="M11.7241 11.3995C11.7557 9.52318 11.7319 7.64633 11.7589 5.76998C11.7769 4.50359 11.7715 3.2374 11.7849 1.96973H11.8253C11.9289 2.94693 12.0511 3.92147 12.2755 4.88243C12.525 5.94959 12.8883 6.97376 13.5566 7.88182C13.7473 8.14056 13.7462 8.14197 13.5546 8.38287L13.5492 8.38964C13.2479 8.76818 13.133 9.21161 13.0659 9.66901C13.018 10.0095 12.9959 10.3527 12.9998 10.6961C13.0045 11.7031 12.9943 12.7087 13.0146 13.7138C13.0266 14.3008 13.0115 14.8888 13.064 15.4747C13.0852 15.7135 13.1447 15.9462 13.2049 16.1781C13.36 16.7785 13.5436 17.369 13.8139 17.9438C13.7402 17.9525 13.7076 17.9091 13.6702 17.8793L13.6312 17.8495C12.8332 17.2388 12.0349 16.628 11.2028 16.0585C11.0789 15.974 11.0597 15.8826 11.1422 15.7667C11.1698 15.7244 11.201 15.6844 11.2356 15.6472C11.608 15.2755 11.7155 14.8225 11.714 14.3275L11.7139 14.3119C11.7108 13.3407 11.7077 12.3698 11.7241 11.3995Z" fill="white"/>
<defs>
<linearGradient id="paint0_linear_7176:130573" x1="10" y1="0" x2="10" y2="20" gradientUnits="userSpaceOnUse">
<stop stop-color="#5D2972"/>
<stop offset="1" stop-color="#232452"/>
</linearGradient>
</defs>
</svg>
