<svg width="50" height="50" viewBox="0 0 50 50" fill="none" xmlns="http://www.w3.org/2000/svg">
<path d="M17 19.5996H33.2" stroke="black" stroke-linejoin="round"/>
<path d="M21.4998 19.6V17.8C21.4998 17.3226 21.6894 16.8648 22.027 16.5272C22.3646 16.1896 22.8224 16 23.2998 16H26.8998C27.3772 16 27.835 16.1896 28.1726 16.5272C28.5102 16.8648 28.6998 17.3226 28.6998 17.8V19.6M31.3998 19.6V32.2C31.3998 32.6774 31.2102 33.1352 30.8726 33.4728C30.535 33.8104 30.0772 34 29.5998 34H20.5998C20.1224 34 19.6646 33.8104 19.327 33.4728C18.9894 33.1352 18.7998 32.6774 18.7998 32.2V19.6H31.3998Z" stroke="black" stroke-linejoin="round"/>
<path d="M23.2998 24.0996V29.4996" stroke="black" stroke-linejoin="round"/>
<path d="M26.9004 24.0996V29.4996" stroke="black" stroke-linejoin="round"/>
<path d="M12 1H38V-1H12V1ZM49 12V38H51V12H49ZM38 49H12V51H38V49ZM1 38V12H-1V38H1ZM12 49C5.92487 49 1 44.0751 1 38H-1C-1 45.1797 4.8203 51 12 51V49ZM49 38C49 44.0751 44.0751 49 38 49V51C45.1797 51 51 45.1797 51 38H49ZM38 1C44.0751 1 49 5.92487 49 12H51C51 4.8203 45.1797 -1 38 -1V1ZM12 -1C4.8203 -1 -1 4.8203 -1 12H1C1 5.92487 5.92487 1 12 1V-1Z" fill="black" fill-opacity="0.1"/>
</svg>
