<svg width="25" height="24" viewBox="0 0 25 24" fill="none" xmlns="http://www.w3.org/2000/svg">
<path d="M10.8125 16.5H11.375V10.875H10.8125C10.5019 10.875 10.25 10.6231 10.25 10.3125V9.9375C10.25 9.62686 10.5019 9.375 10.8125 9.375H13.0625C13.3731 9.375 13.625 9.62686 13.625 9.9375V16.5H14.1875C14.4981 16.5 14.75 16.7519 14.75 17.0625V17.4375C14.75 17.7481 14.4981 18 14.1875 18H10.8125C10.5019 18 10.25 17.7481 10.25 17.4375V17.0625C10.25 16.7519 10.5019 16.5 10.8125 16.5ZM12.5 5.25C11.6716 5.25 11 5.92158 11 6.75C11 7.57842 11.6716 8.25 12.5 8.25C13.3284 8.25 14 7.57842 14 6.75C14 5.92158 13.3284 5.25 12.5 5.25Z" fill="currentColor"/>
<path fill-rule="evenodd" clip-rule="evenodd" d="M12.5008 23.2003C18.6864 23.2003 23.7008 18.1859 23.7008 12.0003C23.7008 5.8147 18.6864 0.800293 12.5008 0.800293C6.31519 0.800293 1.30078 5.8147 1.30078 12.0003C1.30078 18.1859 6.31519 23.2003 12.5008 23.2003Z" stroke="currentColor" stroke-width="1.5" stroke-linecap="round"/>
</svg>
