<svg width="42" height="42" viewBox="0 0 42 42" fill="none" xmlns="http://www.w3.org/2000/svg">
<rect width="42" height="42" rx="21" fill="#FFB23E"/>
<path d="M13.0156 20.7059C13.0156 21.0496 13.2031 21.5184 13.4531 21.7684L20.0469 28.3621C20.6406 28.9559 21.6094 28.9559 22.1719 28.3621L28.5469 21.9871C29.1406 21.4246 29.1406 20.4559 28.5469 19.8621L21.9531 13.2684C21.7031 13.0184 21.2344 12.7996 20.8906 12.7996H14.5156C13.6719 12.7996 13.0156 13.4871 13.0156 14.2996V20.7059ZM16.5156 14.7996C17.3281 14.7996 18.0156 15.4871 18.0156 16.2996C18.0156 17.1434 17.3281 17.7996 16.5156 17.7996C15.6719 17.7996 15.0156 17.1434 15.0156 16.2996C15.0156 15.4871 15.6719 14.7996 16.5156 14.7996Z" fill="white"/>
</svg>
