<svg width="20" height="20" viewBox="0 0 20 20" fill="none" xmlns="http://www.w3.org/2000/svg">
<path fill-rule="evenodd" clip-rule="evenodd" d="M9.75175 2.25C9.55796 2.25 9.3717 2.325 9.232 2.4593L2.59426 8.83979L2.59426 8.8398C1.50855 9.88342 1.46421 11.6062 2.4948 12.7043L2.49481 12.7043L6.88856 17.3859C7.17202 17.6879 7.64666 17.7029 7.94869 17.4195C8.25072 17.136 8.26577 16.6614 7.98231 16.3593L3.58855 11.6777L3.58854 11.6777C3.1201 11.1786 3.14025 10.3956 3.63375 9.92121L3.63376 9.9212L10.0538 3.75H16.2517V10.25C16.2517 10.6642 16.5875 11 17.0017 11C17.416 11 17.7517 10.6642 17.7517 10.25V3C17.7517 2.58579 17.416 2.25 17.0017 2.25H9.75175ZM13.752 7.25C13.752 7.80228 13.3042 8.25 12.752 8.25C12.1997 8.25 11.752 7.80228 11.752 7.25C11.752 6.69772 12.1997 6.25 12.752 6.25C13.3042 6.25 13.752 6.69772 13.752 7.25ZM16.9624 15.2026C16.9624 15.6168 16.6266 15.9526 16.2124 15.9526H14.4624V17.7026C14.4624 18.1168 14.1266 18.4526 13.7124 18.4526C13.2982 18.4526 12.9624 18.1168 12.9624 17.7026V15.9526H11.2124C10.7982 15.9526 10.4624 15.6168 10.4624 15.2026C10.4624 14.7884 10.7982 14.4526 11.2124 14.4526H12.9624V12.7026C12.9624 12.2884 13.2982 11.9526 13.7124 11.9526C14.1266 11.9526 14.4624 12.2884 14.4624 12.7026V14.4526H16.2124C16.6266 14.4526 16.9624 14.7884 16.9624 15.2026Z" fill="black"/>
</svg>
