<svg width="16" height="17" viewBox="0 0 16 17" fill="none" xmlns="http://www.w3.org/2000/svg">
<path d="M0.015625 7.90625C0.015625 8.25 0.203125 8.71875 0.453125 8.96875L7.04688 15.5625C7.64062 16.1562 8.60938 16.1562 9.17188 15.5625L15.5469 9.1875C16.1406 8.625 16.1406 7.65625 15.5469 7.0625L8.95312 0.46875C8.70312 0.21875 8.23438 0 7.89062 0H1.51562C0.671875 0 0.015625 0.6875 0.015625 1.5V7.90625ZM3.51562 2C4.32812 2 5.01562 2.6875 5.01562 3.5C5.01562 4.34375 4.32812 5 3.51562 5C2.67188 5 2.01562 4.34375 2.01562 3.5C2.01562 2.6875 2.67188 2 3.51562 2Z" fill="#FFB23E"/>
</svg>
