<svg width="16" height="16" viewBox="0 0 16 16" fill="none" xmlns="http://www.w3.org/2000/svg">
<path d="M5.26516 2.20023C5.356 1.61241 5.08172 1.05247 4.61122 0.750943C4.34807 0.582318 3.99666 0.711599 3.90719 1.01107L3.49035 2.40638L3.0735 1.01107C2.98403 0.711599 2.63263 0.582287 2.36947 0.750943C1.89897 1.05247 1.62469 1.45604 1.71553 2.04382L2.05844 4.41914C2.1571 5.05748 2.65644 5.53417 3.26094 5.63367L3.2606 5.63592C3.33785 5.64786 3.4146 5.65332 3.49035 5.65301C3.49069 5.65301 3.4911 5.65301 3.49144 5.65301L3.49035 6.34164C3.48891 7.25036 4.10622 8.03211 4.95241 8.24761V7.35417C4.95238 6.87805 4.99572 6.40586 5.07894 5.94523L4.52403 5.21473C4.7296 5.00504 4.87397 4.73154 4.92225 4.41917L5.26516 2.20023Z" fill="black"/>
<path d="M13.6308 0.750943C13.3676 0.582318 13.0162 0.711599 12.9267 1.01107L12.5099 2.40638L12.093 1.01107C12.0036 0.711599 11.6522 0.582287 11.389 0.750943C10.9185 1.05247 10.6442 1.61241 10.7351 2.20022L11.078 4.41916C11.1263 4.73225 11.2713 5.00628 11.4776 5.21616L10.9218 5.94784C11.0047 6.40762 11.0478 6.87897 11.0478 7.35422V8.24828C11.8953 8.03368 12.5138 7.25125 12.5124 6.34165L12.5113 5.65303C12.5866 5.65325 12.6629 5.64781 12.7397 5.63594L12.7393 5.63369C13.3438 5.53419 13.8432 5.0575 13.9418 4.41916L14.2847 2.20022C14.3756 1.61241 14.1013 1.05247 13.6308 0.750943Z" fill="black"/>
<path d="M9.47347 4.38564C9.69753 4.35026 9.86903 4.15683 9.86903 3.92283V3.77205V3.4227C9.86903 3.16361 9.659 2.95358 9.39987 2.95358C9.3885 2.95358 9.37737 2.95449 9.36622 2.95527C9.12287 2.97258 8.93072 3.17499 8.93072 3.4227V3.42289C8.79216 3.2212 8.6425 3.02942 8.48219 2.8492C8.34791 2.6983 8.17662 2.61517 7.99987 2.61517C7.82312 2.61517 7.65184 2.69827 7.51759 2.8492C7.35728 3.02942 7.20759 3.2212 7.06903 3.42292V3.42273C7.06903 3.17499 6.87687 2.97261 6.63353 2.9553C6.62237 2.95452 6.61125 2.95361 6.59987 2.95361C6.34078 2.95361 6.13075 3.16364 6.13075 3.42273V3.77211V3.92289C6.13084 4.15683 6.30237 4.35026 6.52644 4.38564C6.11453 5.28811 5.89062 6.30989 5.89062 7.35401V9.17213C5.89062 9.43132 6.10053 9.64141 6.35972 9.64126C7.16875 9.64082 8.81672 9.64051 9.62006 9.64038C9.87725 9.64035 10.0862 9.43341 10.0888 9.17626C10.0982 8.24963 10.1093 7.35401 10.1093 7.35401C10.1093 6.30992 9.88541 5.28811 9.47347 4.38564Z" fill="black"/>
<path d="M9.01036 14.6346L8.95214 14.5975H7.04757L6.98935 14.6346C6.58907 14.89 6.3501 15.3259 6.3501 15.8007C6.3501 15.8933 6.40863 15.9449 6.43379 15.9628C6.45894 15.9807 6.52694 16.019 6.61441 15.9885L7.89691 15.5414C7.93023 15.5298 7.96507 15.524 7.99985 15.524C8.03466 15.524 8.06948 15.5298 8.10279 15.5414L9.38529 15.9885C9.4727 16.0189 9.54076 15.9807 9.56592 15.9628C9.59108 15.9449 9.64961 15.8933 9.64961 15.8007C9.64961 15.3259 9.41064 14.89 9.01036 14.6346Z" fill="black"/>
<path d="M6.8418 12.8097V13.19H6.84183C6.84183 13.4491 7.05186 13.6592 7.31095 13.6592H8.68917C8.94827 13.6592 9.1583 13.4491 9.1583 13.19V12.8097H6.8418Z" fill="black"/>
<path d="M6.23145 11.4025C6.23145 11.6616 6.44148 11.8716 6.70057 11.8716H9.29888C9.55798 11.8716 9.76804 11.6616 9.76804 11.4025V10.5797H6.23145V11.4025Z" fill="black"/>
<path d="M9.74703 0.180723C9.58762 -0.0235578 9.29281 -0.0599015 9.08856 0.0995047C8.63028 0.45713 8.26272 0.898567 7.99982 1.39407C7.73691 0.898598 7.36935 0.45713 6.9111 0.099536C6.70685 -0.0598703 6.41204 -0.0235265 6.25263 0.180755C6.09323 0.385005 6.1296 0.679817 6.33385 0.839224C6.70638 1.12994 7.00085 1.49282 7.20463 1.90063C7.4456 1.75466 7.71713 1.67713 7.99985 1.67713C8.28253 1.67713 8.55406 1.75463 8.79503 1.9006C8.99878 1.49279 9.29328 1.12991 9.66581 0.839192C9.87006 0.679786 9.90644 0.384973 9.74703 0.180723Z" fill="black"/>
</svg>
