<svg width="20" height="20" viewBox="0 0 20 20" fill="none" xmlns="http://www.w3.org/2000/svg">
<path d="M7.26516 4.20023C7.356 3.61241 7.08172 3.05247 6.61122 2.75094C6.34807 2.58232 5.99666 2.7116 5.90719 3.01107L5.49035 4.40638L5.0735 3.01107C4.98403 2.7116 4.63263 2.58229 4.36947 2.75094C3.89897 3.05247 3.62469 3.45604 3.71553 4.04382L4.05844 6.41914C4.1571 7.05748 4.65644 7.53417 5.26094 7.63367L5.2606 7.63592C5.33785 7.64786 5.4146 7.65332 5.49035 7.65301C5.49069 7.65301 5.4911 7.65301 5.49144 7.65301L5.49035 8.34164C5.48891 9.25036 6.10622 10.0321 6.95241 10.2476V9.35417C6.95238 8.87805 6.99572 8.40586 7.07894 7.94523L6.52403 7.21473C6.7296 7.00504 6.87397 6.73154 6.92225 6.41917L7.26516 4.20023Z" fill="black"/>
<path d="M15.6308 2.75094C15.3676 2.58232 15.0162 2.7116 14.9267 3.01107L14.5099 4.40638L14.093 3.01107C14.0036 2.7116 13.6522 2.58229 13.389 2.75094C12.9185 3.05247 12.6442 3.61241 12.7351 4.20022L13.078 6.41916C13.1263 6.73225 13.2713 7.00628 13.4776 7.21616L12.9218 7.94784C13.0047 8.40762 13.0478 8.87897 13.0478 9.35422V10.2483C13.8953 10.0337 14.5138 9.25125 14.5124 8.34165L14.5113 7.65303C14.5866 7.65325 14.6629 7.64781 14.7397 7.63594L14.7393 7.63369C15.3438 7.53419 15.8432 7.0575 15.9418 6.41916L16.2847 4.20022C16.3756 3.61241 16.1013 3.05247 15.6308 2.75094Z" fill="black"/>
<path d="M11.4735 6.38564C11.6975 6.35026 11.869 6.15683 11.869 5.92283V5.77205V5.4227C11.869 5.16361 11.659 4.95358 11.3999 4.95358C11.3885 4.95358 11.3774 4.95449 11.3662 4.95527C11.1229 4.97258 10.9307 5.17499 10.9307 5.4227V5.42289C10.7922 5.2212 10.6425 5.02942 10.4822 4.8492C10.3479 4.6983 10.1766 4.61517 9.99987 4.61517C9.82312 4.61517 9.65184 4.69827 9.51759 4.8492C9.35728 5.02942 9.20759 5.2212 9.06903 5.42292V5.42273C9.06903 5.17499 8.87687 4.97261 8.63353 4.9553C8.62237 4.95452 8.61125 4.95361 8.59987 4.95361C8.34078 4.95361 8.13075 5.16364 8.13075 5.42273V5.77211V5.92289C8.13084 6.15683 8.30237 6.35026 8.52644 6.38564C8.11453 7.28811 7.89062 8.30989 7.89062 9.35401V11.1721C7.89062 11.4313 8.10053 11.6414 8.35972 11.6413C9.16875 11.6408 10.8167 11.6405 11.6201 11.6404C11.8772 11.6404 12.0862 11.4334 12.0888 11.1763C12.0982 10.2496 12.1093 9.35401 12.1093 9.35401C12.1093 8.30992 11.8854 7.28811 11.4735 6.38564Z" fill="black"/>
<path d="M11.0104 16.6346L10.9521 16.5975H9.04757L8.98935 16.6346C8.58907 16.89 8.3501 17.3259 8.3501 17.8007C8.3501 17.8933 8.40863 17.9449 8.43379 17.9628C8.45894 17.9807 8.52694 18.019 8.61441 17.9885L9.89691 17.5414C9.93023 17.5298 9.96507 17.524 9.99985 17.524C10.0347 17.524 10.0695 17.5298 10.1028 17.5414L11.3853 17.9885C11.4727 18.0189 11.5408 17.9807 11.5659 17.9628C11.5911 17.9449 11.6496 17.8933 11.6496 17.8007C11.6496 17.3259 11.4106 16.89 11.0104 16.6346Z" fill="black"/>
<path d="M8.8418 14.8097V15.19H8.84183C8.84183 15.4491 9.05186 15.6592 9.31095 15.6592H10.6892C10.9483 15.6592 11.1583 15.4491 11.1583 15.19V14.8097H8.8418Z" fill="black"/>
<path d="M8.23145 13.4025C8.23145 13.6616 8.44148 13.8716 8.70057 13.8716H11.2989C11.558 13.8716 11.768 13.6616 11.768 13.4025V12.5797H8.23145V13.4025Z" fill="black"/>
<path d="M11.747 2.18072C11.5876 1.97644 11.2928 1.9401 11.0886 2.0995C10.6303 2.45713 10.2627 2.89857 9.99982 3.39407C9.73691 2.8986 9.36935 2.45713 8.9111 2.09954C8.70685 1.94013 8.41204 1.97647 8.25263 2.18075C8.09323 2.385 8.1296 2.67982 8.33385 2.83922C8.70638 3.12994 9.00085 3.49282 9.20463 3.90063C9.4456 3.75466 9.71713 3.67713 9.99985 3.67713C10.2825 3.67713 10.5541 3.75463 10.795 3.9006C10.9988 3.49279 11.2933 3.12991 11.6658 2.83919C11.8701 2.67979 11.9064 2.38497 11.747 2.18072Z" fill="black"/>
</svg>
