<svg width="20" height="16" viewBox="0 0 20 16" fill="none" xmlns="http://www.w3.org/2000/svg">
<path d="M18.4036 1.8802L20 0.337807V0H14.4714L10.5312 9.909L6.04948 0H0.252604V0.337807L2.11719 2.60556C2.29948 2.77316 2.39323 3.01931 2.36979 3.26547V12.1768C2.42708 12.4989 2.32552 12.8262 2.10156 13.0592L0 15.6334V15.966H5.95312V15.6282L3.85417 13.0619C3.74171 12.9471 3.65711 12.8077 3.60698 12.6546C3.55684 12.5016 3.54251 12.3389 3.5651 12.1794V4.47005L8.79167 15.9712H9.39844L13.8932 4.47005V13.6327C13.8932 13.8736 13.8932 13.9234 13.737 14.0831L12.1198 15.6622V16H19.9635V15.6622L18.4036 14.1198C18.2682 14.0151 18.1979 13.8396 18.2266 13.6694V2.33061C18.2131 2.24646 18.2224 2.16021 18.2536 2.08094C18.2847 2.00167 18.3366 1.93232 18.4036 1.8802Z" fill="white"/>
</svg>
