<svg width="21" height="17" viewBox="0 0 21 17" fill="none" xmlns="http://www.w3.org/2000/svg">
<path d="M18.8885 1.9098L20.5263 0.342961V0H14.8525L10.8088 10.0647L6.20835 0H0.259145V0.342961L2.17237 2.64618C2.35882 2.81638 2.45632 3.06526 2.43151 3.31586V12.3671C2.49053 12.693 2.38447 13.0282 2.15526 13.2651L0 15.8771V16.2158H6.11085V15.8728L3.95559 13.2651C3.7221 13.0274 3.61178 12.6981 3.65882 12.3671V4.53803L9.02303 16.2201H9.64651L14.2589 4.53803V13.8441C14.2589 14.0896 14.2589 14.1401 14.0982 14.3009L12.4389 15.9062V16.25H20.4887V15.907L18.8893 14.3411C18.7491 14.235 18.6764 14.0571 18.7063 13.8843V2.36651C18.6764 2.19289 18.7482 2.015 18.8885 1.9098V1.9098Z" fill="white" fill-opacity="0.4"/>
</svg>
