<svg width="16" height="16" viewBox="0 0 16 16" fill="none" xmlns="http://www.w3.org/2000/svg">
<path d="M4.5 0.53125C4.15625 0 3.34375 -0.15625 2.8125 0.25C1.09375 1.625 0 3.6875 0 6H8L4.5 0.53125ZM15.5 3H14C12.875 3 12 3.90625 12 5V7H0C0 8.59375 0.71875 10.0312 1.875 11.0938C0.78125 11.375 0 12.3438 0 13.5C0 14.9062 1.09375 16 2.5 16C3.875 16 5 14.9062 5 13.5C5 13.25 4.9375 12.9688 4.84375 12.7188C5.53125 12.9062 6.25 13 7 13C7.71875 13 8.4375 12.9062 9.125 12.7188C9.03125 12.9688 9 13.25 9 13.5C9 14.9062 10.0938 16 11.5 16C12.875 16 14 14.9062 14 13.5C14 12.3438 13.1875 11.375 12.0938 11.0938C13.2812 10.0312 14 8.59375 14 7V5H15.5C15.75 5 16 4.78125 16 4.5V3.5C16 3.25 15.75 3 15.5 3ZM2.5 14.5C1.9375 14.5 1.5 14.0625 1.5 13.5C1.5 12.9688 1.9375 12.5 2.5 12.5C3.03125 12.5 3.5 12.9688 3.5 13.5C3.5 14.0625 3.03125 14.5 2.5 14.5ZM12.5 13.5C12.5 14.0625 12.0312 14.5 11.5 14.5C10.9375 14.5 10.5 14.0625 10.5 13.5C10.5 12.9688 10.9375 12.5 11.5 12.5C12.0312 12.5 12.5 12.9688 12.5 13.5Z" fill="#6C9EFF"/>
</svg>
