<svg width="42" height="42" viewBox="0 0 42 42" fill="none" xmlns="http://www.w3.org/2000/svg">
<rect width="42" height="42" rx="21" fill="#6C9EFF"/>
<path d="M17.5002 13.3315C17.1565 12.8003 16.344 12.644 15.8127 13.0503C14.094 14.4253 13.0002 16.4878 13.0002 18.8003H21.0002L17.5002 13.3315ZM28.5002 15.8003H27.0002C25.8752 15.8003 25.0002 16.7065 25.0002 17.8003V19.8003H13.0002C13.0002 21.394 13.719 22.8315 14.8752 23.894C13.7815 24.1753 13.0002 25.144 13.0002 26.3003C13.0002 27.7065 14.094 28.8003 15.5002 28.8003C16.8752 28.8003 18.0002 27.7065 18.0002 26.3003C18.0002 26.0503 17.9377 25.769 17.844 25.519C18.5315 25.7065 19.2502 25.8003 20.0002 25.8003C20.719 25.8003 21.4377 25.7065 22.1252 25.519C22.0315 25.769 22.0002 26.0503 22.0002 26.3003C22.0002 27.7065 23.094 28.8003 24.5002 28.8003C25.8752 28.8003 27.0002 27.7065 27.0002 26.3003C27.0002 25.144 26.1877 24.1753 25.094 23.894C26.2815 22.8315 27.0002 21.394 27.0002 19.8003V17.8003H28.5002C28.7502 17.8003 29.0002 17.5815 29.0002 17.3003V16.3003C29.0002 16.0503 28.7502 15.8003 28.5002 15.8003ZM15.5002 27.3003C14.9377 27.3003 14.5002 26.8628 14.5002 26.3003C14.5002 25.769 14.9377 25.3003 15.5002 25.3003C16.0315 25.3003 16.5002 25.769 16.5002 26.3003C16.5002 26.8628 16.0315 27.3003 15.5002 27.3003ZM25.5002 26.3003C25.5002 26.8628 25.0315 27.3003 24.5002 27.3003C23.9377 27.3003 23.5002 26.8628 23.5002 26.3003C23.5002 25.769 23.9377 25.3003 24.5002 25.3003C25.0315 25.3003 25.5002 25.769 25.5002 26.3003Z" fill="white"/>
</svg>
