<svg width="20" height="20" viewBox="0 0 20 20" fill="none" xmlns="http://www.w3.org/2000/svg">
<path d="M7.65 5C7.42909 5 7.25 5.17909 7.25 5.4V8.34176C7.25 8.48398 7.32892 8.61594 7.44835 8.69316C9.99555 10.34 7.07403 11.9841 5.24892 12.7546C5.09847 12.8181 5 12.9641 5 13.1274V14.6C5 14.8209 5.17909 15 5.4 15H15.85C16.0709 15 16.25 14.8209 16.25 14.6V13.1265C16.25 12.9637 16.147 12.8162 15.9978 12.7511C11.6636 10.8608 13.5333 8.03214 16.6839 7.21692C16.8671 7.16952 17 7.0074 17 6.81821V5.4C17 5.17909 16.8209 5 16.6 5H7.65ZM2.59043 5.71429C2.30754 5.71429 2.115 6.0003 2.25041 6.24867C2.85096 7.35017 3.83961 8.10337 5.28019 8.46895C5.5225 8.53044 5.75 8.34084 5.75 8.09084V6.11429C5.75 5.89337 5.57091 5.71429 5.35 5.71429H2.59043Z" fill="black"/>
</svg>
