<svg width="76" height="76" viewBox="0 0 76 76" fill="none" xmlns="http://www.w3.org/2000/svg">
<path d="M33.5861 0.743324L32.5242 0.136529C32.1905 -0.0455097 31.6444 -0.0455097 31.3106 0.136529L0.606795 17.855C0.273058 18.037 0 18.5224 0 18.9168V64.8816C0 65.276 0.273058 65.7311 0.606795 65.9435L1.66869 66.5503C2.00242 66.7323 2.54854 66.7323 2.88228 66.5503L33.5861 48.8319C33.9199 48.6498 34.1929 48.1644 34.1929 47.77V1.80522C34.1929 1.4108 33.9199 0.925363 33.5861 0.743324Z" fill="#27DEBF"/>
<path d="M33.5861 0.743324L32.5242 0.136529C32.1905 -0.0455097 31.6444 -0.0455097 31.3106 0.136529L0.606795 17.855C0.273058 18.037 0 18.5224 0 18.9168V64.8816C0 65.276 0.273058 65.7311 0.606795 65.9435L1.66869 66.5503C2.00242 66.7323 2.54854 66.7323 2.88228 66.5503L33.5861 48.8319C33.9199 48.6498 34.1929 48.1644 34.1929 47.77V1.80522C34.1929 1.4108 33.9199 0.925363 33.5861 0.743324Z" fill="#F5F5F5"/>
<path d="M16.3228 27.6249C16.1104 27.5035 5.1881 21.1928 0.182039 18.3105C0.0606795 18.4926 0 18.705 0 18.9173V64.8821C0 65.2765 0.273058 65.7316 0.606795 65.944L1.66869 66.5508C2.00242 66.7328 2.54854 66.7328 2.88228 66.5508L16.3835 58.7535C16.4442 47.012 16.5352 27.7462 16.3228 27.6249Z" fill="#E0E0E0"/>
<path d="M33.586 1.44166L2.88219 19.1601C2.54845 19.3421 2.27539 19.8276 2.27539 20.222V66.1867C2.27539 66.5811 2.54845 66.7328 2.88219 66.5508L33.586 48.8324C33.9198 48.6503 34.1928 48.1649 34.1928 47.7705V1.80574C34.1928 1.41132 33.9198 1.25962 33.586 1.44166Z" fill="#F5F5F5"/>
<path d="M4.03551 19.8272L32.4639 3.41334C32.7976 3.2313 33.0707 3.383 33.0707 3.77742V43.1584C33.0707 43.5529 32.7976 44.008 32.4639 44.2203L4.03551 60.6341C3.70177 60.8162 3.42871 60.6645 3.42871 60.2701V20.8891C3.42871 20.4946 3.70177 20.0092 4.03551 19.8272Z" fill="white"/>
<path d="M3.42871 20.8889V29.1717C4.36924 29.5054 5.55249 29.3537 6.8571 28.5952C9.86074 26.8659 12.2576 22.679 12.2576 19.2203C12.2576 17.6122 11.7418 16.4593 10.8923 15.8525L4.03551 19.7967C3.70177 20.0091 3.42871 20.4945 3.42871 20.8889Z" fill="#E6E6E6"/>
<path d="M27.8826 18.9475L20.51 36.6053L15.6556 32.6915C15.2309 32.3577 14.5937 32.5094 14.351 32.9948L3.42871 57.0239V60.2703C3.42871 60.6647 3.70177 60.8164 4.03551 60.6344L8.31341 58.1465L32.4335 44.2206C32.7673 44.0385 33.0403 43.5531 33.0403 43.1587V24.1356L29.3692 18.7958C28.9748 18.2497 28.1556 18.3407 27.8826 18.9475Z" fill="#E6E6E6"/>
<path d="M41.4455 5.29411L40.3836 4.68731C40.0499 4.50527 39.5038 4.50527 39.17 4.68731L8.46617 22.4057C8.13243 22.5878 7.85938 23.0732 7.85938 23.4676V69.4324C7.85938 69.8268 8.13243 70.2819 8.46617 70.4943L9.52806 71.1011C9.8618 71.2831 10.4079 71.2831 10.7417 71.1011L41.4455 53.3826C41.7792 53.2006 42.0523 52.7152 42.0523 52.3208V6.356C42.0523 5.96158 41.7792 5.47614 41.4455 5.29411Z" fill="#F5F5F5"/>
<path d="M24.1812 32.1756C23.9688 32.0543 13.0465 25.7436 8.04044 22.8613C7.91908 23.0434 7.8584 23.2557 7.8584 23.4681V69.4329C7.8584 69.8273 8.13146 70.2824 8.46519 70.4948L9.52709 71.1016C9.86082 71.2836 10.4069 71.2836 10.7407 71.1016L24.2419 63.3042C24.3026 51.5627 24.3632 32.297 24.1812 32.1756Z" fill="#E0E0E0"/>
<path d="M41.4444 5.99244L10.7406 23.7109C10.4068 23.8929 10.1338 24.3783 10.1338 24.7728V70.7375C10.1338 71.1319 10.4068 71.2836 10.7406 71.1016L41.4444 53.3832C41.7782 53.2011 42.0512 52.7157 42.0512 52.3213V6.35652C42.0512 5.9621 41.7782 5.81041 41.4444 5.99244Z" fill="#F0F0F0"/>
<path d="M11.8636 24.377L40.292 7.96315C40.6257 7.78111 40.8988 7.93281 40.8988 8.32722V47.7082C40.8988 48.1027 40.6257 48.5578 40.292 48.7701L11.8636 65.184C11.5299 65.366 11.2568 65.2143 11.2568 64.8199V25.4389C11.2568 25.0444 11.5299 24.559 11.8636 24.377Z" fill="white"/>
<path d="M11.2568 25.4095V33.6922C12.1974 34.0259 13.3806 33.8742 14.6852 33.1158C17.6889 31.3864 20.0857 27.1995 20.0857 23.7408C20.0857 22.1328 19.5699 20.9798 18.7204 20.373L11.8636 24.3172C11.5299 24.5599 11.2568 25.0454 11.2568 25.4095Z" fill="#E0E0E0"/>
<path d="M35.741 23.4983L28.3685 41.1561L23.5141 37.2422C23.0893 36.9085 22.4522 37.0602 22.2095 37.5456L11.2568 61.5747V64.8211C11.2568 65.2155 11.5299 65.3672 11.8636 65.1852L16.1415 62.6973L40.2617 48.7713C40.5954 48.5893 40.8685 48.1039 40.8685 47.7095V28.6561L37.2277 23.3466C36.8333 22.8005 36.0141 22.8915 35.741 23.4983Z" fill="#E6E6E6"/>
<path d="M48.5433 54.5051L46.6016 54.323V11.5439L48.5433 11.726V54.5051Z" fill="#5C5C5C"/>
<path opacity="0.5" d="M17.5668 29.4141L45.9951 13.0003C46.3289 12.8182 46.6019 12.9699 46.6019 13.3643V52.7454C46.6019 53.1398 46.3289 53.5949 45.9951 53.8072L17.5668 70.2211C17.233 70.4031 16.96 70.2514 16.96 69.857V30.476C16.96 30.0815 17.233 29.5961 17.5668 29.4141Z" fill="white"/>
<path d="M41.4442 26.805L34.0716 44.4627L29.2172 40.5489C28.7925 40.2151 28.1553 40.3668 27.9126 40.8523L16.96 64.851V68.0974C16.96 68.4918 17.233 68.6435 17.5668 68.4615L21.8447 65.9736L45.9648 52.0476C46.2985 51.8656 46.5716 51.3802 46.5716 50.9858V31.9627L42.9005 26.6533C42.5364 26.1071 41.7172 26.1982 41.4442 26.805Z" fill="url(#paint0_linear)"/>
<path opacity="0.5" d="M41.4442 26.805L34.0716 44.4627L29.2172 40.5489C28.7925 40.2151 28.1553 40.3668 27.9126 40.8523L16.96 64.851V68.0974C16.96 68.4918 17.233 68.6435 17.5668 68.4615L21.8447 65.9736L45.9648 52.0476C46.2985 51.8656 46.5716 51.3802 46.5716 50.9858V31.9627L42.9005 26.6533C42.5364 26.1071 41.7172 26.1982 41.4442 26.805Z" fill="white"/>
<path d="M44.8721 27.6864L42.627 26.4121V28.9607L44.8721 27.6864Z" fill="url(#paint1_linear)"/>
<path opacity="0.5" d="M44.8721 27.6864L42.627 26.4121V28.9607L44.8721 27.6864Z" fill="white"/>
<path d="M31.3713 41.7626L29.0958 40.458L29.0352 43.0066L31.3713 41.7626Z" fill="url(#paint2_linear)"/>
<path opacity="0.5" d="M31.3713 41.7626L29.0958 40.458L29.0352 43.0066L31.3713 41.7626Z" fill="white"/>
<path d="M49.9995 10.8469C49.9995 10.8166 49.9995 10.7863 49.9995 10.7863C49.9388 10.4525 49.6961 10.0884 49.423 9.90641L48.3611 9.29961C48.0274 9.11758 47.4813 9.11758 47.1476 9.29961L16.4437 26.9877C16.2617 27.0787 16.11 27.2608 16.019 27.4428C15.8976 27.6248 15.8369 27.8372 15.8369 28.0496V74.0144C15.8369 74.4088 16.11 74.8639 16.4437 75.0762L17.5056 75.683C17.809 75.8651 18.2641 75.8651 18.5675 75.7437C18.5675 75.7437 18.5978 75.7437 18.5978 75.7134C18.6282 75.7134 18.6585 75.683 18.6889 75.6527L32.19 67.8554L49.3927 57.9343C49.7264 57.7522 49.9995 57.2668 49.9995 56.8724V10.938C49.9995 10.9076 49.9995 10.8773 49.9995 10.8469ZM48.5432 52.5035C48.5432 52.8979 48.2701 53.353 47.9364 53.5653L32.2507 62.6369L19.8418 69.7668C19.508 69.9488 19.235 69.7971 19.235 69.4027V30.0217C19.235 29.8396 19.2956 29.6273 19.417 29.4149C19.5384 29.2328 19.6901 29.0508 19.8418 28.9598L47.9364 12.7583C48.2701 12.5763 48.5432 12.728 48.5432 13.1224V52.5035Z" fill="#8E8E8E"/>
<path d="M32.2516 62.6052C32.2516 64.4559 32.2213 66.246 32.2213 67.8843L18.7201 75.6816C18.6898 75.712 18.6594 75.712 18.6291 75.7423C18.6291 75.7423 18.5987 75.7423 18.5987 75.7727C18.265 75.894 17.8099 75.8637 17.5369 75.712L16.475 75.1052C16.1412 74.9232 15.8682 74.4377 15.8682 74.0433V28.0482C15.8682 27.8662 15.9288 27.6538 16.0502 27.4414C16.7177 27.8358 17.4762 28.2606 18.3257 28.746C18.6898 28.9584 19.0842 29.1708 19.4786 29.4135C19.3572 29.5955 19.2966 29.8079 19.2966 30.0203V69.4013C19.2966 69.7957 19.5696 69.9474 19.9034 69.7654L32.2516 62.6052Z" fill="#5C5C5C"/>
<path d="M19.2354 30.0218V38.3045C20.1759 38.6382 21.3591 38.4866 22.6637 37.7281C25.6674 35.9987 28.0642 31.8118 28.0642 28.3531C28.0642 26.7451 27.5484 25.5921 26.6989 24.9854L19.8421 28.9295C19.5084 29.1722 19.2354 29.6273 19.2354 30.0218Z" fill="url(#paint3_linear)"/>
<path opacity="0.7" d="M19.2354 30.0218V38.3045C20.1759 38.6382 21.3591 38.4866 22.6637 37.7281C25.6674 35.9987 28.0642 31.8118 28.0642 28.3531C28.0642 26.7451 27.5484 25.5921 26.6989 24.9854L19.8421 28.9295C19.5084 29.1722 19.2354 29.6273 19.2354 30.0218Z" fill="white"/>
<path d="M43.7195 28.1101L36.347 45.7678L31.4926 41.854C31.0679 41.5202 30.4307 41.6719 30.188 42.1574L19.2354 66.1561V69.4025C19.2354 69.7969 19.5084 69.9486 19.8421 69.7666L24.1201 67.2787L47.9064 53.5348C48.2402 53.3527 48.5132 52.8673 48.5132 52.4729V33.4499L45.1759 27.9584C44.8118 27.4122 43.9926 27.4729 43.7195 28.1101Z" fill="url(#paint4_linear)" stroke="url(#paint5_linear)" stroke-miterlimit="10"/>
<path d="M50.0004 10.8472C50.0004 10.8168 50.0004 10.7865 50.0004 10.7865C49.9397 10.5438 49.697 10.4527 49.4239 10.6044L18.7201 28.3229C18.538 28.4139 18.3863 28.5959 18.2953 28.778C18.174 28.96 18.1133 29.1724 18.1133 29.3848V75.3495C18.1133 75.6832 18.3257 75.8349 18.5684 75.7743C18.5684 75.7743 18.5987 75.7743 18.5987 75.7439C18.6291 75.7439 18.6594 75.7136 18.6897 75.6833L32.1909 67.8859L49.3936 57.9648C49.7273 57.7828 50.0004 57.2973 50.0004 56.9029V10.9382C50.0004 10.9078 50.0004 10.8775 50.0004 10.8472ZM48.5441 52.5037C48.5441 52.8981 48.271 53.3532 47.9373 53.5656L32.2516 62.6371L19.8426 69.767C19.5089 69.949 19.2359 69.7973 19.2359 69.4029V30.0219C19.2359 29.8399 19.2965 29.6275 19.4179 29.4151C19.5393 29.2331 19.6909 29.051 19.8426 28.96L47.9373 12.7586C48.271 12.5765 48.5441 12.7282 48.5441 13.1226V52.5037Z" fill="#707070"/>
<defs>
<linearGradient id="paint0_linear" x1="20.8991" y1="33.8281" x2="48.4214" y2="53.1194" gradientUnits="userSpaceOnUse">
<stop stop-color="#BCEB00"/>
<stop offset="1" stop-color="#00EAEA"/>
</linearGradient>
<linearGradient id="paint1_linear" x1="42.9256" y1="26.8667" x2="44.6778" y2="28.4103" gradientUnits="userSpaceOnUse">
<stop stop-color="#BCEB00"/>
<stop offset="1" stop-color="#00EAEA"/>
</linearGradient>
<linearGradient id="paint2_linear" x1="29.3459" y1="40.9126" x2="31.1055" y2="42.5256" gradientUnits="userSpaceOnUse">
<stop stop-color="#BCEB00"/>
<stop offset="1" stop-color="#00EAEA"/>
</linearGradient>
<linearGradient id="paint3_linear" x1="20.4098" y1="27.3912" x2="28.9762" y2="32.9991" gradientUnits="userSpaceOnUse">
<stop stop-color="#BCEB00"/>
<stop offset="1" stop-color="#00EAEA"/>
</linearGradient>
<linearGradient id="paint4_linear" x1="23.1301" y1="35.1248" x2="50.5489" y2="54.1225" gradientUnits="userSpaceOnUse">
<stop stop-color="#BCEB00"/>
<stop offset="1" stop-color="#00EAEA"/>
</linearGradient>
<linearGradient id="paint5_linear" x1="23.1301" y1="35.1248" x2="50.5489" y2="54.1225" gradientUnits="userSpaceOnUse">
<stop stop-color="#BCEB00"/>
<stop offset="1" stop-color="#00EAEA"/>
</linearGradient>
</defs>
</svg>
