<svg width="20" height="20" viewBox="0 0 20 20" fill="none" xmlns="http://www.w3.org/2000/svg">
<path d="M15.25 14.125H6.0625C4.83203 14.125 3.875 13.168 3.875 11.9375V6.25H3.4375C2.69922 6.25 2.125 6.85156 2.125 7.5625V14.5625C2.125 15.3008 2.69922 15.875 3.4375 15.875H13.9375C14.6484 15.875 15.25 15.3008 15.25 14.5625V14.125ZM17.875 11.9375V4.9375C17.875 4.22656 17.2734 3.625 16.5625 3.625H6.0625C5.32422 3.625 4.75 4.22656 4.75 4.9375V11.9375C4.75 12.6758 5.32422 13.25 6.0625 13.25H16.5625C17.2734 13.25 17.875 12.6758 17.875 11.9375ZM9.125 6.25C9.125 6.98828 8.52344 7.5625 7.8125 7.5625C7.07422 7.5625 6.5 6.98828 6.5 6.25C6.5 5.53906 7.07422 4.9375 7.8125 4.9375C8.52344 4.9375 9.125 5.53906 9.125 6.25ZM6.5 10.1875L8.00391 8.68359C8.14062 8.54688 8.33203 8.54688 8.46875 8.68359L9.5625 9.75L13.2539 6.05859C13.3906 5.92188 13.582 5.92188 13.7188 6.05859L16.125 8.4375V11.5H6.5V10.1875Z" fill="black"/>
</svg>
