<svg width="20" height="20" viewBox="0 0 20 20" fill="none" xmlns="http://www.w3.org/2000/svg">
<path d="M10 10.625C12.1602 10.625 13.9375 8.875 13.9375 6.6875C13.9375 4.52734 12.1602 2.75 10 2.75C7.8125 2.75 6.0625 4.52734 6.0625 6.6875C6.0625 8.875 7.8125 10.625 10 10.625ZM13.5 11.5H11.9688C11.3672 11.8008 10.7109 11.9375 10 11.9375C9.28906 11.9375 8.60547 11.8008 8.00391 11.5H6.5C4.55859 11.5 3 13.0859 3 15V15.4375C3 16.1758 3.57422 16.75 4.3125 16.75H15.6875C16.3984 16.75 17 16.1758 17 15.4375V15C17 13.0859 15.4141 11.5 13.5 11.5Z" fill="black"/>
</svg>
