<svg width="43" height="45" viewBox="0 0 43 45" fill="none" xmlns="http://www.w3.org/2000/svg">
<g filter="url(#filter0_d)">
<path d="M20.1794 2.41276C20.8849 1.61111 22.1514 1.61111 22.857 2.41276L25.8298 5.79046C26.26 6.27928 26.9313 6.49328 27.5722 6.34593L32.0006 5.32778C33.0517 5.08613 34.0763 5.81655 34.1669 6.87201L34.5485 11.3191C34.6037 11.9627 35.0185 12.5229 35.6253 12.7733L39.818 14.5036C40.813 14.9143 41.2044 16.0961 40.6454 17.0022L38.29 20.8201C37.9491 21.3726 37.9491 22.0651 38.29 22.6176L40.6454 26.4354C41.2044 27.3415 40.813 28.5234 39.818 28.934L35.6253 30.6643C35.0185 30.9147 34.6037 31.475 34.5485 32.1186L34.1669 36.5656C34.0763 37.6211 33.0517 38.3515 32.0006 38.1099L27.5722 37.0917C26.9313 36.9444 26.26 37.1584 25.8298 37.6472L22.857 41.0249C22.1514 41.8265 20.8849 41.8265 20.1794 41.0249L17.2066 37.6472C16.7764 37.1584 16.1051 36.9444 15.4642 37.0917L11.0357 38.1099C9.98469 38.3515 8.96007 37.6211 8.86951 36.5656L8.48793 32.1186C8.43271 31.475 8.01784 30.9147 7.41109 30.6643L3.21842 28.934C2.22334 28.5234 1.83197 27.3415 2.39099 26.4354L4.74638 22.6176C5.08724 22.0651 5.08724 21.3726 4.74638 20.8201L2.39099 17.0022C1.83197 16.0961 2.22334 14.9143 3.21842 14.5036L7.41109 12.7733C8.01784 12.5229 8.43271 11.9627 8.48793 11.3191L8.86951 6.87201C8.96007 5.81655 9.98469 5.08613 11.0357 5.32778L15.4642 6.34593C16.1051 6.49328 16.7764 6.27928 17.2066 5.79046L20.1794 2.41276Z" fill="white"/>
<path d="M20.1794 2.41276C20.8849 1.61111 22.1514 1.61111 22.857 2.41276L25.8298 5.79046C26.26 6.27928 26.9313 6.49328 27.5722 6.34593L32.0006 5.32778C33.0517 5.08613 34.0763 5.81655 34.1669 6.87201L34.5485 11.3191C34.6037 11.9627 35.0185 12.5229 35.6253 12.7733L39.818 14.5036C40.813 14.9143 41.2044 16.0961 40.6454 17.0022L38.29 20.8201C37.9491 21.3726 37.9491 22.0651 38.29 22.6176L40.6454 26.4354C41.2044 27.3415 40.813 28.5234 39.818 28.934L35.6253 30.6643C35.0185 30.9147 34.6037 31.475 34.5485 32.1186L34.1669 36.5656C34.0763 37.6211 33.0517 38.3515 32.0006 38.1099L27.5722 37.0917C26.9313 36.9444 26.26 37.1584 25.8298 37.6472L22.857 41.0249C22.1514 41.8265 20.8849 41.8265 20.1794 41.0249L17.2066 37.6472C16.7764 37.1584 16.1051 36.9444 15.4642 37.0917L11.0357 38.1099C9.98469 38.3515 8.96007 37.6211 8.86951 36.5656L8.48793 32.1186C8.43271 31.475 8.01784 30.9147 7.41109 30.6643L3.21842 28.934C2.22334 28.5234 1.83197 27.3415 2.39099 26.4354L4.74638 22.6176C5.08724 22.0651 5.08724 21.3726 4.74638 20.8201L2.39099 17.0022C1.83197 16.0961 2.22334 14.9143 3.21842 14.5036L7.41109 12.7733C8.01784 12.5229 8.43271 11.9627 8.48793 11.3191L8.86951 6.87201C8.96007 5.81655 9.98469 5.08613 11.0357 5.32778L15.4642 6.34593C16.1051 6.49328 16.7764 6.27928 17.2066 5.79046L20.1794 2.41276Z" fill="url(#paint0_radial)"/>
</g>
<g filter="url(#filter1_d)">
<path fill-rule="evenodd" clip-rule="evenodd" d="M24.491 6.92482L21.5182 3.54713L18.5454 6.92482C17.685 7.90245 16.3424 8.33045 15.0607 8.03576L10.6322 7.01761L10.2506 11.4647C10.1402 12.7518 9.31043 13.8724 8.09692 14.3732L3.90425 16.1035L6.25963 19.9213C6.94136 21.0263 6.94136 22.4113 6.25963 23.5164L3.90425 27.3342L8.09692 29.0645C9.31043 29.5653 10.1402 30.6858 10.2506 31.973L10.6322 36.42L15.0607 35.4019C16.3424 35.1072 17.685 35.5352 18.5454 36.5128L21.5182 39.8905L24.491 36.5128C25.3514 35.5352 26.6939 35.1072 27.9757 35.4019L32.4042 36.42L32.7858 31.973C32.8962 30.6858 33.726 29.5653 34.9395 29.0645L39.1321 27.3342L36.7768 23.5164C36.095 22.4113 36.095 21.0263 36.7768 19.9213L39.1321 16.1035L34.9395 14.3732C33.726 13.8724 32.8962 12.7518 32.7858 11.4647L32.4042 7.01761L27.9757 8.03576C26.6939 8.33045 25.3514 7.90245 24.491 6.92482ZM22.857 2.41276C22.1514 1.61111 20.8849 1.61111 20.1794 2.41276L17.2066 5.79046C16.7764 6.27928 16.1051 6.49328 15.4642 6.34593L11.0357 5.32778C9.98469 5.08613 8.96007 5.81655 8.86951 6.87201L8.48793 11.3191C8.43271 11.9627 8.01784 12.5229 7.41109 12.7733L3.21842 14.5036C2.22334 14.9143 1.83197 16.0961 2.39099 17.0022L4.74638 20.8201C5.08724 21.3726 5.08724 22.0651 4.74638 22.6176L2.39099 26.4354C1.83197 27.3415 2.22334 28.5234 3.21842 28.934L7.41109 30.6643C8.01784 30.9147 8.43271 31.475 8.48793 32.1186L8.86951 36.5656C8.96007 37.6211 9.98469 38.3515 11.0357 38.1099L15.4642 37.0917C16.1051 36.9444 16.7764 37.1584 17.2066 37.6472L20.1794 41.0249C20.8849 41.8265 22.1514 41.8265 22.857 41.0249L25.8298 37.6472C26.26 37.1584 26.9313 36.9444 27.5722 37.0917L32.0006 38.1099C33.0517 38.3515 34.0763 37.6211 34.1669 36.5656L34.5485 32.1186C34.6037 31.475 35.0185 30.9147 35.6253 30.6643L39.818 28.934C40.813 28.5234 41.2044 27.3415 40.6454 26.4354L38.29 22.6176C37.9491 22.0651 37.9491 21.3726 38.29 20.8201L40.6454 17.0022C41.2044 16.0961 40.813 14.9143 39.818 14.5036L35.6253 12.7733C35.0185 12.5229 34.6037 11.9627 34.5485 11.3191L34.1669 6.87201C34.0763 5.81655 33.0517 5.08613 32.0006 5.32778L27.5722 6.34593C26.9313 6.49328 26.26 6.27928 25.8298 5.79046L22.857 2.41276Z" fill="black" fill-opacity="0.2" style="mix-blend-mode:overlay"/>
</g>
<g filter="url(#filter2_d)">
<path d="M18.9342 29.053H23.7482L29.3763 16.48H24.8278L21.412 24.4938L18.2263 16.48H13.66L18.9342 29.053Z" fill="white"/>
</g>
<defs>
<filter id="filter0_d" x="0.134766" y="0.811523" width="42.7669" height="43.8146" filterUnits="userSpaceOnUse" color-interpolation-filters="sRGB">
<feFlood flood-opacity="0" result="BackgroundImageFix"/>
<feColorMatrix in="SourceAlpha" type="matrix" values="0 0 0 0 0 0 0 0 0 0 0 0 0 0 0 0 0 0 127 0" result="hardAlpha"/>
<feOffset dy="1"/>
<feGaussianBlur stdDeviation="1"/>
<feColorMatrix type="matrix" values="0 0 0 0 0 0 0 0 0 0 0 0 0 0 0 0 0 0 0.05 0"/>
<feBlend mode="normal" in2="BackgroundImageFix" result="effect1_dropShadow"/>
<feBlend mode="normal" in="SourceGraphic" in2="effect1_dropShadow" result="shape"/>
</filter>
<filter id="filter1_d" x="0.134766" y="0.811523" width="42.7669" height="43.8146" filterUnits="userSpaceOnUse" color-interpolation-filters="sRGB">
<feFlood flood-opacity="0" result="BackgroundImageFix"/>
<feColorMatrix in="SourceAlpha" type="matrix" values="0 0 0 0 0 0 0 0 0 0 0 0 0 0 0 0 0 0 127 0" result="hardAlpha"/>
<feOffset dy="1"/>
<feGaussianBlur stdDeviation="1"/>
<feColorMatrix type="matrix" values="0 0 0 0 0 0 0 0 0 0 0 0 0 0 0 0 0 0 0.05 0"/>
<feBlend mode="normal" in2="BackgroundImageFix" result="effect1_dropShadow"/>
<feBlend mode="normal" in="SourceGraphic" in2="effect1_dropShadow" result="shape"/>
</filter>
<filter id="filter2_d" x="11.66" y="15.48" width="19.7163" height="16.573" filterUnits="userSpaceOnUse" color-interpolation-filters="sRGB">
<feFlood flood-opacity="0" result="BackgroundImageFix"/>
<feColorMatrix in="SourceAlpha" type="matrix" values="0 0 0 0 0 0 0 0 0 0 0 0 0 0 0 0 0 0 127 0" result="hardAlpha"/>
<feOffset dy="1"/>
<feGaussianBlur stdDeviation="1"/>
<feColorMatrix type="matrix" values="0 0 0 0 0 0 0 0 0 0 0 0 0 0 0 0 0 0 0.05 0"/>
<feBlend mode="normal" in2="BackgroundImageFix" result="effect1_dropShadow"/>
<feBlend mode="normal" in="SourceGraphic" in2="effect1_dropShadow" result="shape"/>
</filter>
<radialGradient id="paint0_radial" cx="0" cy="0" r="1" gradientUnits="userSpaceOnUse" gradientTransform="translate(21.5167 42.5465) rotate(-90) scale(41.6544 42.1594)">
<stop stop-color="#E39A0A"/>
<stop offset="0.508563" stop-color="#FFE895"/>
<stop offset="1" stop-color="#E7BC25"/>
</radialGradient>
</defs>
</svg>
