<svg width="20" height="20" viewBox="0 0 20 20" fill="none" xmlns="http://www.w3.org/2000/svg">
<path fill-rule="evenodd" clip-rule="evenodd" d="M1.99994 4.75C1.99994 3.23122 3.23116 2 4.74994 2H15.2499C16.7688 2 17.9999 3.23122 17.9999 4.75V15.25C17.9999 16.7688 16.7688 18 15.2499 18H4.74994C3.23116 18 1.99994 16.7688 1.99994 15.25V4.75ZM4.74994 3.5C4.05958 3.5 3.49994 4.05964 3.49994 4.75V15.25C3.49994 15.3468 3.51094 15.441 3.53176 15.5315L10.3017 10.3545C11.3055 9.58689 12.7033 9.6022 13.6901 10.3916L16.4999 12.6395V4.75C16.4999 4.05964 15.9403 3.5 15.2499 3.5H4.74994ZM16.4999 14.5605L12.753 11.5629C12.3045 11.2041 11.6691 11.1971 11.2128 11.5461L4.73473 16.4999C4.73979 16.5 4.74486 16.5 4.74994 16.5H15.2499C15.9403 16.5 16.4999 15.9404 16.4999 15.25V14.5605ZM6.99994 8C7.55222 8 7.99994 7.55228 7.99994 7C7.99994 6.44772 7.55222 6 6.99994 6C6.44765 6 5.99994 6.44772 5.99994 7C5.99994 7.55228 6.44765 8 6.99994 8Z" fill="black"/>
</svg>
