<svg width="54" height="62" viewBox="0 0 54 62" fill="none" xmlns="http://www.w3.org/2000/svg">
<g filter="url(#filter0_dd)">
<path d="M28.3636 12V21.5C28.3636 22.5798 28.7946 23.6154 29.5618 24.3789C30.329 25.1425 31.3696 25.5714 32.4545 25.5714H42V45.9286C42 47.0084 41.569 48.044 40.8018 48.8075C40.0346 49.571 38.9941 50 37.9091 50H16.0909C15.0059 50 13.9654 49.571 13.1982 48.8075C12.431 48.044 12 47.0084 12 45.9286V16.0714C12 14.9916 12.431 13.956 13.1982 13.1925C13.9654 12.429 15.0059 12 16.0909 12H28.3636ZM31.0909 12.1588V21.5C31.0909 21.8599 31.2346 22.2051 31.4903 22.4596C31.746 22.7142 32.0929 22.8571 32.4545 22.8571H41.8405C41.6491 22.194 41.2915 21.5902 40.8014 21.1024L32.8541 13.1943C32.364 12.706 31.7573 12.3496 31.0909 12.1588V12.1588Z" fill="black"/>
</g>
<defs>
<filter id="filter0_dd" x="0.950001" y="0.950001" width="52.1" height="60.1" filterUnits="userSpaceOnUse" color-interpolation-filters="sRGB">
<feFlood flood-opacity="0" result="BackgroundImageFix"/>
<feColorMatrix in="SourceAlpha" type="matrix" values="0 0 0 0 0 0 0 0 0 0 0 0 0 0 0 0 0 0 127 0"/>
<feOffset dx="-2.36364" dy="-2.36364"/>
<feGaussianBlur stdDeviation="4.34318"/>
<feColorMatrix type="matrix" values="0 0 0 0 0.74902 0 0 0 0 0.937255 0 0 0 0 0 0 0 0 1 0"/>
<feBlend mode="normal" in2="BackgroundImageFix" result="effect1_dropShadow"/>
<feColorMatrix in="SourceAlpha" type="matrix" values="0 0 0 0 0 0 0 0 0 0 0 0 0 0 0 0 0 0 127 0"/>
<feOffset dx="2.36364" dy="2.36364"/>
<feGaussianBlur stdDeviation="4.34318"/>
<feColorMatrix type="matrix" values="0 0 0 0 0.364706 0 0 0 0 0.968627 0 0 0 0 0.643137 0 0 0 1 0"/>
<feBlend mode="normal" in2="effect1_dropShadow" result="effect2_dropShadow"/>
<feBlend mode="normal" in="SourceGraphic" in2="effect2_dropShadow" result="shape"/>
</filter>
</defs>
</svg>
