<svg width="59" height="61" viewBox="0 0 59 61" fill="none" xmlns="http://www.w3.org/2000/svg">
<g filter="url(#filter0_dd)">
<path fill-rule="evenodd" clip-rule="evenodd" d="M31.804 10.78C30.4455 9.74 28.5573 9.74 27.1988 10.78L11.0723 23.1072C9.01511 24.6769 10.1201 27.9529 12.6973 27.9659H46.3022C48.8826 27.9529 49.9844 24.6769 47.9304 23.1072L31.804 10.78ZM31.2233 21.5645C30.7662 22.0216 30.1462 22.2784 29.4998 22.2784C28.8533 22.2784 28.2333 22.0216 27.7762 21.5645C27.3191 21.1074 27.0623 20.4874 27.0623 19.8409C27.0623 19.1945 27.3191 18.5745 27.7762 18.1174C28.2333 17.6603 28.8533 17.4035 29.4998 17.4035C30.1462 17.4035 30.7662 17.6603 31.2233 18.1174C31.6804 18.5745 31.9372 19.1945 31.9372 19.8409C31.9372 20.4874 31.6804 21.1074 31.2233 21.5645ZM14.875 40.9659V31.2159H19.75V40.9659H14.875ZM23 31.2159V40.9659H27.875V31.2159H23ZM31.1249 40.9659V31.2159H35.9999V40.9659H31.1249ZM39.2499 31.2159V40.9659H44.1249V31.2159H39.2499ZM14.0625 44.2159C11.82 44.2159 10 46.0359 10 48.2784V49.0908C10 49.5218 10.1712 49.9351 10.4759 50.2399C10.7807 50.5446 11.194 50.7158 11.625 50.7158H47.3748C47.8058 50.7158 48.2191 50.5446 48.5238 50.2399C48.8286 49.9351 48.9998 49.5218 48.9998 49.0908V48.2784C48.9998 46.0359 47.1798 44.2159 44.9373 44.2159H14.0625Z" fill="black"/>
</g>
<defs>
<filter id="filter0_dd" x="0.65" y="0.65" width="57.7" height="59.4158" filterUnits="userSpaceOnUse" color-interpolation-filters="sRGB">
<feFlood flood-opacity="0" result="BackgroundImageFix"/>
<feColorMatrix in="SourceAlpha" type="matrix" values="0 0 0 0 0 0 0 0 0 0 0 0 0 0 0 0 0 0 127 0"/>
<feOffset dx="-2" dy="-2"/>
<feGaussianBlur stdDeviation="3.675"/>
<feColorMatrix type="matrix" values="0 0 0 0 0.74902 0 0 0 0 0.937255 0 0 0 0 0 0 0 0 1 0"/>
<feBlend mode="normal" in2="BackgroundImageFix" result="effect1_dropShadow"/>
<feColorMatrix in="SourceAlpha" type="matrix" values="0 0 0 0 0 0 0 0 0 0 0 0 0 0 0 0 0 0 127 0"/>
<feOffset dx="2" dy="2"/>
<feGaussianBlur stdDeviation="3.675"/>
<feColorMatrix type="matrix" values="0 0 0 0 0.364706 0 0 0 0 0.968627 0 0 0 0 0.643137 0 0 0 1 0"/>
<feBlend mode="normal" in2="effect1_dropShadow" result="effect2_dropShadow"/>
<feBlend mode="normal" in="SourceGraphic" in2="effect2_dropShadow" result="shape"/>
</filter>
</defs>
</svg>
