<svg width="58" height="58" viewBox="0 0 58 58" fill="none" xmlns="http://www.w3.org/2000/svg">
<g filter="url(#filter0_dd)">
<path d="M27.8917 32.6269L28.0669 32.477C28.3343 32.282 28.6561 32.1757 28.9871 32.1731C29.318 32.1704 29.6415 32.2715 29.912 32.4622L30.1083 32.6269L44.7341 46.9824C43.6536 47.6492 42.4086 48.0016 41.1389 48H16.8611C15.5916 48.0022 14.3466 47.6506 13.2659 46.9845L27.8917 32.6269L28.0669 32.477L27.8917 32.6248V32.6269ZM41.1389 10C42.9586 10 44.7037 10.7229 45.9904 12.0096C47.2771 13.2963 48 15.0414 48 16.8611V41.1389C48 42.4625 47.6242 43.6997 46.9761 44.7489L32.3271 30.3659L32.0569 30.121C31.2035 29.4033 30.1248 29.0088 29.0097 29.0065C27.8946 29.0042 26.8143 29.3942 25.9579 30.1083L25.6729 30.368L11.0239 44.7468C10.3526 43.6632 9.99794 42.4135 10 41.1389V16.8611C10 15.0414 10.7229 13.2963 12.0096 12.0096C13.2963 10.7229 15.0414 10 16.8611 10H41.1389ZM36.9209 16.3333C36.2966 16.3333 35.6783 16.4563 35.1015 16.6952C34.5247 16.9341 34.0006 17.2843 33.5591 17.7258C33.1177 18.1673 32.7675 18.6914 32.5286 19.2682C32.2896 19.845 32.1667 20.4632 32.1667 21.0876C32.1667 21.7119 32.2896 22.3301 32.5286 22.9069C32.7675 23.4837 33.1177 24.0078 33.5591 24.4493C34.0006 24.8908 34.5247 25.241 35.1015 25.4799C35.6783 25.7188 36.2966 25.8418 36.9209 25.8418C38.1818 25.8418 39.391 25.3409 40.2826 24.4493C41.1742 23.5577 41.6751 22.3484 41.6751 21.0876C41.6751 19.8267 41.1742 18.6174 40.2826 17.7258C39.391 16.8342 38.1818 16.3333 36.9209 16.3333V16.3333ZM36.9209 19.5C37.1294 19.5 37.3358 19.5411 37.5284 19.6208C37.721 19.7006 37.896 19.8176 38.0435 19.965C38.1909 20.1124 38.3078 20.2874 38.3876 20.48C38.4674 20.6726 38.5084 20.8791 38.5084 21.0876C38.5084 21.296 38.4674 21.5025 38.3876 21.6951C38.3078 21.8877 38.1909 22.0627 38.0435 22.2101C37.896 22.3575 37.721 22.4745 37.5284 22.5543C37.3358 22.634 37.1294 22.6751 36.9209 22.6751C36.4998 22.6751 36.096 22.5078 35.7983 22.2101C35.5006 21.9124 35.3333 21.5086 35.3333 21.0876C35.3333 20.6665 35.5006 20.2627 35.7983 19.965C36.096 19.6673 36.4998 19.5 36.9209 19.5V19.5Z" fill="black"/>
</g>
<defs>
<filter id="filter0_dd" x="0.65" y="0.65" width="56.7" height="56.7" filterUnits="userSpaceOnUse" color-interpolation-filters="sRGB">
<feFlood flood-opacity="0" result="BackgroundImageFix"/>
<feColorMatrix in="SourceAlpha" type="matrix" values="0 0 0 0 0 0 0 0 0 0 0 0 0 0 0 0 0 0 127 0"/>
<feOffset dx="-2" dy="-2"/>
<feGaussianBlur stdDeviation="3.675"/>
<feColorMatrix type="matrix" values="0 0 0 0 0.74902 0 0 0 0 0.937255 0 0 0 0 0 0 0 0 1 0"/>
<feBlend mode="normal" in2="BackgroundImageFix" result="effect1_dropShadow"/>
<feColorMatrix in="SourceAlpha" type="matrix" values="0 0 0 0 0 0 0 0 0 0 0 0 0 0 0 0 0 0 127 0"/>
<feOffset dx="2" dy="2"/>
<feGaussianBlur stdDeviation="3.675"/>
<feColorMatrix type="matrix" values="0 0 0 0 0.364706 0 0 0 0 0.968627 0 0 0 0 0.643137 0 0 0 1 0"/>
<feBlend mode="normal" in2="effect1_dropShadow" result="effect2_dropShadow"/>
<feBlend mode="normal" in="SourceGraphic" in2="effect2_dropShadow" result="shape"/>
</filter>
</defs>
</svg>
