<svg width="30" height="30" viewBox="0 0 30 30" fill="none" xmlns="http://www.w3.org/2000/svg">
<circle cx="15" cy="15" r="14.5" fill="white" stroke="#C857CA"/>
<path d="M20.9141 15.2734C19.9297 15.2734 19.5078 16.0234 18.9922 16.0234C17.5859 16.0234 18.875 11.875 18.875 11.875C18.875 11.875 14.2578 13.75 14.2578 11.8047C14.2578 10.9609 15.125 10.7266 15.125 9.78906C15.125 8.96875 14.4453 8.5 13.6719 8.5C12.8516 8.5 12.125 8.94531 12.125 9.83594C12.125 10.7969 12.8516 11.2188 12.8516 11.7578C12.8516 13.375 8.75 12.4141 8.75 12.4141V20.2188C8.75 20.2188 12.9219 21.2031 12.9219 19.5625C12.9219 19.0234 11.9844 18.625 11.9844 17.6406C11.9844 16.7734 12.6641 16.3281 13.4844 16.3281C14.2578 16.3281 14.9375 16.7734 14.9375 17.6172C14.9375 18.5312 14.0703 18.7891 14.0703 19.6328C14.0703 21.0625 17.1172 20.2188 18.3125 20.2188C18.3125 20.2188 17.5156 17.4062 18.9219 17.4062C19.7656 17.4062 20.0234 18.25 20.9609 18.25C21.7812 18.25 22.25 17.5938 22.25 16.8203C22.25 16.0234 21.8047 15.2734 20.9141 15.2734Z" fill="#C857CA"/>
</svg>
