<svg width="32" height="32" viewBox="0 0 32 32" fill="none" xmlns="http://www.w3.org/2000/svg">
<circle cx="16" cy="16" r="15" fill="white" stroke="#FB8C00"/>
<path d="M16 31C7.71573 31 1 24.2843 1 16C1 7.71573 7.71573 1 16 1" stroke="#C857CA"/>
<path d="M21.9141 16.2734C20.9297 16.2734 20.5078 17.0234 19.9922 17.0234C18.5859 17.0234 19.875 12.875 19.875 12.875C19.875 12.875 15.2578 14.75 15.2578 12.8047C15.2578 11.9609 16.125 11.7266 16.125 10.7891C16.125 9.96875 15.4453 9.5 14.6719 9.5C13.8516 9.5 13.125 9.94531 13.125 10.8359C13.125 11.7969 13.8516 12.2188 13.8516 12.7578C13.8516 14.375 9.75 13.4141 9.75 13.4141V21.2188C9.75 21.2188 13.9219 22.2031 13.9219 20.5625C13.9219 20.0234 12.9844 19.625 12.9844 18.6406C12.9844 17.7734 13.6641 17.3281 14.4844 17.3281C15.2578 17.3281 15.9375 17.7734 15.9375 18.6172C15.9375 19.5312 15.0703 19.7891 15.0703 20.6328C15.0703 22.0625 18.1172 21.2188 19.3125 21.2188C19.3125 21.2188 18.5156 18.4062 19.9219 18.4062C20.7656 18.4062 21.0234 19.25 21.9609 19.25C22.7812 19.25 23.25 18.5938 23.25 17.8203C23.25 17.0234 22.8047 16.2734 21.9141 16.2734Z" fill="url(#paint0_linear)"/>
<defs>
<linearGradient id="paint0_linear" x1="9" y1="17.5" x2="23" y2="17.5" gradientUnits="userSpaceOnUse">
<stop offset="0.388032" stop-color="#C857CA"/>
<stop offset="0.388784" stop-color="#FB8C00"/>
</linearGradient>
</defs>
</svg>
