<svg width="58" height="70" viewBox="0 0 58 70" fill="none" xmlns="http://www.w3.org/2000/svg">
<g filter="url(#filter0_dd)">
<path fill-rule="evenodd" clip-rule="evenodd" d="M48.5498 33.8209C48.5557 35.4444 47.9033 37.001 46.7418 38.1353L39.0582 45.6382C37.9424 46.7278 36.4461 47.3401 34.8866 47.3454L23.797 47.3829C22.2379 47.3882 20.7379 46.7864 19.6149 45.7049L11.8756 38.2524C10.7064 37.1265 10.0433 35.5751 10.0374 33.952L10 23.5621C9.99419 21.9386 10.6465 20.382 11.8081 19.2477L19.4917 11.7447C20.6075 10.6552 22.1037 10.0429 23.6633 10.0376L34.7529 10C36.312 9.99476 37.812 10.5966 38.935 11.6781L46.6743 19.1306C47.8434 20.2564 48.5066 21.8079 48.5124 23.4309L48.5498 33.8209ZM20.8659 34.1421H15.8343V22.4548H20.1471C23.267 22.4548 24.5975 23.5099 24.5975 25.5065C24.5975 26.8051 24.2152 27.6167 23.4352 28.0875C24.3528 28.5257 24.8881 29.3049 24.8881 30.6522C24.8881 32.876 23.6952 34.1421 20.8659 34.1421ZM20.3306 25.4091H19.3518V26.7402H20.3306C20.9423 26.7402 21.1259 26.4967 21.1259 26.0584C21.1259 25.6039 20.9271 25.4091 20.3306 25.4091ZM20.1777 29.5484H19.3518V30.9444H20.1777C21.1259 30.9444 21.2788 30.7009 21.2788 30.2626C21.2788 29.8243 21.1259 29.5484 20.1777 29.5484ZM32.492 34.1421H25.6099V30.6197H27.2769V25.9773H25.6099V22.4548H32.492V25.9773H30.825V30.6197H32.492V34.1421ZM33.646 22.4548V34.1421H37.9435C39.7634 34.1421 41.2469 33.4766 42.088 31.9832C42.5162 31.2203 42.7151 30.2464 42.7151 29.0289V27.568C42.7151 25.117 41.828 23.6723 40.3904 22.9743C39.6563 22.6334 38.8611 22.4548 37.9435 22.4548H33.646ZM37.24 25.6851H37.7293C38.5093 25.6851 39.0293 26.237 39.0293 27.9089V28.6231C39.0293 30.2788 38.5093 30.847 37.7293 30.847H37.24V25.6851ZM32.1964 49.4726H26.3527V57.0694C26.3527 58.6831 27.6609 59.9912 29.2745 59.9912C30.8882 59.9912 32.1964 58.6831 32.1964 57.0694V49.4726Z" fill="white"/>
</g>
<defs>
<filter id="filter0_dd" x="0.65" y="0.65" width="57.2499" height="68.6912" filterUnits="userSpaceOnUse" color-interpolation-filters="sRGB">
<feFlood flood-opacity="0" result="BackgroundImageFix"/>
<feColorMatrix in="SourceAlpha" type="matrix" values="0 0 0 0 0 0 0 0 0 0 0 0 0 0 0 0 0 0 127 0"/>
<feOffset dx="-2" dy="-2"/>
<feGaussianBlur stdDeviation="3.675"/>
<feColorMatrix type="matrix" values="0 0 0 0 0.74902 0 0 0 0 0.937255 0 0 0 0 0 0 0 0 1 0"/>
<feBlend mode="normal" in2="BackgroundImageFix" result="effect1_dropShadow"/>
<feColorMatrix in="SourceAlpha" type="matrix" values="0 0 0 0 0 0 0 0 0 0 0 0 0 0 0 0 0 0 127 0"/>
<feOffset dx="2" dy="2"/>
<feGaussianBlur stdDeviation="3.675"/>
<feColorMatrix type="matrix" values="0 0 0 0 0.364706 0 0 0 0 0.968627 0 0 0 0 0.643137 0 0 0 1 0"/>
<feBlend mode="normal" in2="effect1_dropShadow" result="effect2_dropShadow"/>
<feBlend mode="normal" in="SourceGraphic" in2="effect2_dropShadow" result="shape"/>
</filter>
</defs>
</svg>
