<svg width="76" height="76" viewBox="0 0 76 76" fill="none" xmlns="http://www.w3.org/2000/svg">
<g clip-path="url(#clip0)">
<path opacity="0.2" d="M17.7214 70.2003C14.9748 71.7665 10.4627 71.7665 7.71615 70.2003C4.96962 68.634 4.96962 65.991 7.71615 64.4247C10.4627 62.8584 14.9748 62.8584 17.7214 64.4247C20.4679 65.991 20.4679 68.634 17.7214 70.2003Z" fill="url(#paint0_linear)"/>
<path d="M17.427 66.6055C17.427 66.6055 17.427 66.7034 17.3289 66.8013C17.2308 67.095 16.9366 67.4866 16.5442 67.8781C16.348 68.0739 16.0537 68.2697 15.7595 68.4655C15.3671 68.7592 14.8767 68.9549 14.2881 69.0528C13.9939 69.1507 13.6996 69.1507 13.3072 69.1507C12.7187 69.1507 12.2282 69.1507 11.7378 69.0528C10.5607 68.857 9.77597 68.5634 9.77597 68.5634C9.77597 68.5634 9.57979 65.5287 9.57979 63.2772C9.67788 61.0257 9.87406 57.4038 9.77597 55.6417C9.67788 53.9776 9.57979 53.7818 9.4817 53.7818C9.38361 53.7818 8.89316 53.4881 8.30462 52.9008C7.91226 52.4113 7.81417 52.1176 7.51989 51.7261C7.4218 51.6282 7.32371 51.5303 7.22562 51.3345C7.12753 51.2366 7.02944 51.1387 7.02944 51.0408C6.73517 50.4535 6.93135 49.6704 7.02944 49.4746C7.12753 49.1809 7.5199 48.9851 7.61799 48.3978C7.71608 47.9083 7.61798 47.4189 7.91226 47.0273C8.30462 46.6357 8.5008 46.7336 8.59889 46.3421C8.69698 45.9505 8.69698 45.5589 8.99125 45.3632C9.28552 45.0695 10.1683 44.7758 10.1683 44.7758C10.1683 44.7758 9.38361 43.5032 9.18743 43.3074C9.08934 43.2095 8.99125 43.1117 8.89316 42.9159C8.79507 42.7201 8.69698 42.4264 8.79507 42.1327C8.89316 41.4475 9.67788 41.3496 9.77597 41.3496C9.97215 41.3496 10.5607 41.4475 10.7569 41.6433C10.9531 41.7412 12.4244 43.8948 12.6206 43.9927C12.6206 43.9927 12.7187 43.699 13.3072 43.699C13.8958 43.699 13.9939 44.1885 13.9939 44.4821C13.9939 44.7758 13.9939 45.0695 13.9939 45.0695C13.9939 45.0695 14.9748 46.44 15.1709 46.8315C15.4652 47.2231 15.8576 48.202 15.8576 48.4957C15.8576 48.6915 15.8576 49.4746 15.8576 49.8661C15.8576 50.2577 15.9557 50.943 15.6614 51.4324C15.3671 51.9219 15.3671 52.3134 15.269 52.5092C15.269 52.705 15.269 55.1523 15.269 56.1312C15.3671 57.0122 15.269 62.592 17.427 66.6055Z" fill="#FFE3CF"/>
<path d="M13.8956 53.587C13.8956 53.587 13.6994 53.9786 13.4052 54.2723C13.1109 54.5659 12.4243 55.0554 12.3262 55.1533C12.3262 55.2512 12.4243 55.7406 12.0319 55.9364C11.6395 56.1322 11.051 56.1322 11.051 56.1322C11.051 56.1322 11.051 56.4259 10.8548 57.3069C10.7567 58.1879 12.13 60.7331 11.7376 63.5719C11.4434 65.8234 11.6395 68.1728 11.7376 69.1517C10.5605 68.956 9.77583 68.6623 9.77583 68.6623C9.77583 68.6623 9.57964 65.6277 9.57964 63.3762C9.67773 61.1247 9.87392 57.5027 9.77583 55.7406C9.67773 54.0765 9.57964 53.8807 9.48155 53.8807C9.38346 53.8807 8.89301 53.587 8.30447 52.9997C7.91211 52.5102 7.81402 52.2166 7.51975 51.825C7.42166 51.7271 7.32357 51.6292 7.22548 51.4334C7.12739 51.3355 7.0293 51.2376 7.0293 51.1398C7.81402 50.2587 8.59874 51.2376 9.38346 51.5313C10.1682 51.825 11.4434 52.6081 11.4434 52.6081C11.4434 52.6081 11.7376 53.1955 11.7376 53.2934C11.7376 53.3913 11.4434 54.1744 11.5414 54.3702C11.6395 54.5659 12.0319 54.6638 12.3262 54.5659C12.6204 54.5659 13.7975 53.587 13.8956 53.587Z" fill="#FFE3CF"/>
<path d="M17.231 66.8009C17.1329 67.0946 16.8387 67.4862 16.4463 67.8777C16.2501 68.0735 15.9559 68.2693 15.6616 68.4651C15.4654 68.4651 15.2692 68.2693 15.1711 67.8777C14.975 66.703 13.6017 57.5013 13.5036 56.2287C13.4055 55.054 13.896 53.9772 13.9941 53.8793C14.0922 53.7814 13.7979 53.4877 13.7979 53.4877C13.7979 53.4877 12.6208 54.0751 12.817 53.9772C13.0132 53.8793 13.2093 53.3898 13.2093 53.3898C13.2093 53.3898 13.7979 53.292 14.0922 53.0962C14.3864 52.9004 15.1711 52.9004 15.1711 52.9004C15.1711 52.9004 14.7788 56.7181 15.3673 60.8296C15.9559 64.3537 16.9368 66.3115 17.231 66.8009Z" fill="#FFE3CF"/>
<path d="M12.4246 45.4608C12.4246 45.4608 12.3265 45.6566 12.4246 45.9502C12.5227 46.2439 12.915 46.8313 13.0131 46.9291C13.2093 47.027 13.3074 47.2228 13.3074 47.3207C13.3074 47.4186 13.4055 47.9081 13.4055 47.9081C13.4055 47.9081 11.2475 46.4397 11.1494 45.5587C11.1494 44.5798 12.4246 45.4608 12.4246 45.4608Z" fill="#F6B486"/>
<path d="M15.5634 51.7262C15.5634 51.7262 15.0729 52.803 14.5825 52.9988C14.1901 53.1946 13.3073 53.1946 12.9149 53.0967C12.6206 52.9988 14.3863 50.6494 14.3863 50.6494C14.3863 50.6494 14.8767 51.1389 14.8767 51.2368C14.9748 52.1178 15.5634 51.7262 15.5634 51.7262Z" fill="#F6B486"/>
<path d="M15.8577 50.8451C15.8577 50.8451 15.5635 51.6282 15.2692 51.4325C15.073 51.2367 14.7788 50.7472 14.6807 50.5514C14.5826 50.3557 14.2883 50.2578 14.2883 50.2578C14.2883 50.2578 14.5826 49.5725 14.5826 49.2789C14.5826 48.9852 14.8768 49.0831 14.8768 49.0831C14.8768 49.0831 14.6807 48.2021 14.5826 47.6147C14.4845 47.0274 14.0921 46.7337 13.8959 46.1463C13.7979 45.8527 13.7979 45.3632 13.7979 44.9716C13.7979 44.678 13.7979 44.5801 13.8959 44.5801C13.994 44.678 13.8959 44.8738 14.2883 45.3632C14.6807 45.9506 15.1711 46.6358 15.1711 46.6358C15.1711 46.6358 15.6616 47.321 15.7597 48.202C15.8577 49.0831 15.8577 49.181 15.8577 49.4746C15.8577 49.8662 15.9558 50.3557 15.8577 50.8451Z" fill="#FFE3CF"/>
<path d="M13.8956 45.0701C13.8956 45.0701 13.6994 45.0701 13.5033 44.9722C13.209 44.8744 13.209 44.0912 13.209 43.9933C13.209 43.8954 13.6013 43.8954 13.6994 43.9933C13.7975 44.0912 13.8956 44.1891 13.9937 44.6786C13.9937 45.0701 13.8956 45.0701 13.8956 45.0701Z" fill="#FFE3CF"/>
<path d="M12.7184 44.1885C12.7184 44.1885 12.8165 44.3843 12.7184 44.8737C12.6203 45.3632 12.4241 45.7547 12.3261 45.8526C12.3261 45.9505 12.6203 46.5379 12.6203 46.5379C12.6203 46.5379 12.0318 46.0484 12.0318 45.9505C11.9337 45.8526 11.6394 45.4611 11.7375 45.3632C11.7375 45.1674 12.7184 44.1885 12.7184 44.1885Z" fill="#FCD1B3"/>
<path d="M10.7568 51.6285V53.88C10.7568 54.0758 10.8549 54.2716 10.953 54.3695C11.4435 54.8589 12.2282 54.8589 12.7186 54.3695C12.8167 54.2716 12.9148 54.0758 12.9148 53.88V48.496L10.7568 47.3213V51.6285Z" fill="#707070"/>
<path d="M10.7568 45.3633V35.1826L12.9148 34.791V43.9928V47.419L10.7568 45.3633Z" fill="#707070"/>
<path d="M16.4453 67.8784C15.9549 68.3679 15.1702 68.9552 14.1893 69.0531C13.895 69.151 13.6007 69.151 13.2084 69.151C13.1103 68.9552 13.1103 68.7594 13.1103 68.6615C12.6198 66.6058 12.816 64.0606 12.816 64.0606C12.816 64.0606 12.7179 63.5712 12.816 62.3965C12.9141 61.2218 12.2275 60.145 11.8351 59.3619C11.4427 58.5787 11.4427 56.3272 11.5408 56.2293C11.6389 56.1315 12.2275 56.0336 12.5217 55.8378C12.816 55.642 13.6988 54.6631 13.6988 54.6631C13.6988 54.6631 14.0912 57.404 14.2873 58.383C14.4835 59.4598 15.6606 63.9628 15.6606 64.1585C15.7587 64.3543 16.1511 66.1164 16.4453 67.8784Z" fill="#FFE3CF"/>
<path d="M12.5229 45.265C12.1306 45.9503 11.3459 45.3629 11.2478 45.265C11.1497 45.1671 9.08978 43.0135 8.8936 43.0135C8.79551 42.8177 8.69742 42.5241 8.79551 42.2304C8.8936 41.5452 9.67833 41.4473 9.77642 41.4473C9.9726 41.4473 10.5611 41.5452 10.7573 41.7409C10.9535 41.8388 12.4249 43.9924 12.621 44.0903C12.621 44.0903 13.0134 44.5798 12.5229 45.265Z" fill="#FFE3CF"/>
<path d="M12.6205 44.2863C12.6205 44.2863 12.2281 43.5031 11.7376 43.0137C11.2472 42.5242 10.7567 41.839 10.3644 41.6432C9.97201 41.5453 9.77583 41.3495 9.18729 41.7411C8.59875 42.1326 10.5606 43.8947 10.5606 43.8947L11.3453 44.9715C11.4434 44.9715 12.6205 44.2863 12.6205 44.2863Z" fill="#FFEBDD"/>
<path d="M12.5222 44.1887C12.5222 44.1887 12.1299 43.6992 11.7375 43.7971C11.3452 43.7971 11.2471 44.3845 11.2471 44.5803C11.2471 44.776 11.7375 45.3634 11.7375 45.3634C11.7375 45.3634 12.0318 45.1676 12.3261 44.9718C12.5222 44.6781 12.7184 44.5803 12.5222 44.1887Z" fill="#FEF7F2"/>
<path d="M14.6807 51.8243C14.2884 52.3138 13.896 52.2159 13.896 52.2159C13.896 52.2159 13.9941 52.5095 13.896 52.7053C13.7979 52.999 13.4055 53.1948 12.9151 53.0969C12.3266 52.999 11.9342 52.7053 10.8552 52.3138C9.67811 51.9222 9.28575 51.9222 9.28575 51.9222C8.59912 51.9222 8.01058 51.9222 7.61822 51.8243C7.52013 51.7264 7.42204 51.6285 7.32395 51.4327C6.73541 50.7475 6.93159 49.7686 7.02968 49.5728C7.12777 49.2791 7.52013 49.0833 7.61822 48.496C7.71631 48.0065 7.61822 47.5171 7.91249 47.1255C8.30485 46.734 8.50103 46.8318 8.59912 46.4403C8.69721 46.0487 8.69721 45.6572 8.99148 45.4614C9.28575 45.1677 10.1686 44.874 10.1686 44.874C10.1686 44.874 11.0514 45.2656 11.1495 45.4614C11.3456 45.6572 12.3266 46.8318 12.7189 47.2234C13.1113 47.615 13.7979 48.2023 13.9941 48.5939C14.1903 48.9855 14.2884 49.4749 14.1903 49.8665C14.0922 50.1601 13.6998 50.1601 13.6998 50.1601C13.7979 50.1601 14.4845 50.6496 14.5826 50.7475C14.6807 50.8454 14.975 51.3348 14.6807 51.8243Z" fill="#FFE3CF"/>
<path d="M13.7977 50.2583C13.7977 50.2583 13.3073 50.0625 12.8168 49.6709C12.3264 49.3772 10.9531 48.3983 10.6589 48.2025C10.3646 48.0068 9.1875 47.2236 9.1875 47.2236C9.1875 47.2236 9.57986 47.3215 9.67795 47.4194C9.77604 47.4194 10.3646 47.7131 10.3646 47.811C10.3646 47.811 13.6016 50.0625 13.7977 50.2583Z" fill="#F6B486"/>
<path d="M13.8965 52.2156C13.8965 52.2156 13.2098 51.824 12.8175 51.6282C12.4251 51.4325 9.97286 50.062 9.5805 49.8662C9.18814 49.6704 8.30532 49.2789 8.20723 49.2789C8.10914 49.2789 8.59959 49.181 8.69769 49.2789C8.79578 49.3767 10.7576 50.3557 10.7576 50.3557C10.8557 50.4536 12.7194 51.3346 12.8175 51.4325C12.9156 51.6282 13.7984 52.1177 13.8965 52.2156Z" fill="#F6B486"/>
<path d="M10.0704 50.2578C10.0704 50.2578 9.48181 50.4536 9.48181 50.8452C9.38372 51.2367 9.48181 51.5304 10.3646 51.8241C11.1493 52.1177 11.9341 52.4114 12.1303 52.5093C12.3264 52.6072 12.915 52.9988 13.2092 53.0967C13.5035 53.1945 13.6997 52.9988 13.7978 52.803C13.8959 52.7051 13.2092 51.922 13.2092 51.922C13.2092 51.922 12.1303 51.2367 11.836 51.0409C11.5417 51.0409 10.0704 50.2578 10.0704 50.2578Z" fill="#FFEBDD"/>
<path d="M10.7564 48.2998C10.7564 48.2998 10.2659 48.202 9.97164 48.4956C9.67737 48.7893 9.67737 48.9851 9.77546 49.2788C9.97164 49.6703 10.8545 50.2577 10.8545 50.2577C10.8545 50.2577 12.7182 51.2366 12.8163 51.2366C12.9143 51.3345 13.601 51.8239 13.6991 51.9218C13.7972 52.0197 14.0914 52.0197 14.1895 51.9218C14.2876 51.8239 14.3857 50.7471 14.3857 50.7471C14.3857 50.7471 13.7972 50.3556 13.4048 50.0619C13.2086 49.964 10.9525 48.5935 10.7564 48.2998Z" fill="#FFEBDD"/>
<path d="M12.7181 47.1253C12.7181 47.1253 11.0505 45.4611 10.8543 45.4611C10.6582 45.4611 10.0696 45.3632 9.77535 45.8527C9.38299 46.3421 10.462 47.1253 10.462 47.3211C10.5601 47.4189 11.7372 48.4957 11.8352 48.6915C11.9333 48.8873 13.3066 49.7683 13.3066 49.7683L14.1894 49.0831C14.1894 49.0831 13.8951 48.4957 13.699 48.2021C13.3066 47.8105 12.7181 47.1253 12.7181 47.1253Z" fill="#FFEBDD"/>
<path d="M14.2885 49.0823C14.2885 49.0823 14.0923 48.8865 13.7981 48.9844C13.5038 49.0823 13.3076 49.376 13.3076 49.5718C13.3076 49.7676 13.5038 49.8655 13.5038 49.8655L13.8962 50.1591C13.8962 50.257 14.3866 50.1591 14.2885 49.0823Z" fill="#FEF7F2"/>
<path d="M14.6806 50.943C14.6806 50.943 14.2882 50.5514 13.9939 50.7472C13.7977 50.943 13.6016 51.2367 13.6016 51.5303C13.6016 51.824 14.1901 52.0198 14.1901 52.0198C14.1901 52.0198 14.9748 51.6282 14.6806 50.943Z" fill="#FEF7F2"/>
<path d="M13.8959 52.2158C13.8959 52.2158 13.3074 51.9221 13.2093 52.02C13.1112 52.02 12.915 52.2158 12.915 52.5094C12.915 52.8031 13.1112 52.901 13.2093 52.9989C13.3074 53.0968 13.5036 53.0968 13.5036 53.0968C13.5036 53.0968 13.994 52.6073 13.8959 52.2158Z" fill="#FEF7F2"/>
<path d="M13.6992 40.4689L9.8737 42.6225C9.18707 43.0141 8.40234 42.5246 8.40234 41.7415V38.0216L14.8763 34.3018V38.4132C14.7782 39.2942 14.3858 39.9794 13.6992 40.4689Z" fill="#5C5C5C"/>
<path d="M14.2891 40.6652L10.4635 42.8188C9.77691 43.2104 8.99219 42.7209 8.99219 41.9378V38.2179L15.4661 34.498V38.6095C15.4661 39.4905 14.9757 40.2736 14.2891 40.6652Z" fill="#707070"/>
<path opacity="0.2" d="M51.7176 64.4312C49.1271 65.8988 44.8713 65.8988 42.2808 64.4312C39.6903 62.9636 39.6903 60.4872 42.2808 59.0196C44.8713 57.5521 49.1271 57.5521 51.7176 59.0196C54.3081 60.4872 54.3081 62.8719 51.7176 64.4312Z" fill="url(#paint1_linear)"/>
<path d="M51.2688 60.9276C51.2688 60.9276 51.2688 61.0255 51.1707 61.1234C51.0726 61.417 50.7783 61.8086 50.386 62.2002C50.1898 62.396 49.8955 62.5917 49.6013 62.7875C49.2089 63.0812 48.7185 63.277 48.1299 63.3749C47.8356 63.4728 47.5414 63.4728 47.149 63.4728C46.5605 63.4728 46.07 63.4728 45.5796 63.3749C44.4025 63.1791 43.6178 62.8854 43.6178 62.8854C43.6178 62.8854 43.4216 59.9487 43.4216 57.6972C43.5197 55.4457 43.7159 51.8237 43.6178 50.0617C43.5197 48.3975 43.4216 48.2017 43.3235 48.2017C43.2254 48.2017 42.735 47.908 42.1464 47.3207C41.7541 46.8312 41.656 46.5376 41.3617 46.146C41.2636 46.0481 41.1655 45.9502 41.0674 45.7544C40.9693 45.6565 40.8712 45.5587 40.8712 45.4608C40.577 44.8734 40.7732 44.0903 40.8712 43.8945C40.9693 43.6008 41.3617 43.405 41.4598 42.8177C41.5579 42.3282 41.4598 41.8388 41.754 41.4472C42.1464 41.0557 42.3426 41.1535 42.4407 40.762C42.5388 40.3704 42.5388 39.9789 42.833 39.7831C43.1273 39.4894 44.0101 39.1957 44.0101 39.1957C44.0101 39.1957 43.2254 37.9231 43.0292 37.7274C42.9311 37.6295 42.833 37.5316 42.735 37.3358C42.6369 37.14 42.5388 36.8463 42.6369 36.5527C42.735 35.8674 43.5197 35.7695 43.6178 35.7695C43.8139 35.7695 44.4025 35.8674 44.5987 36.0632C44.7948 36.1611 46.2662 38.3147 46.4624 38.4126C46.4624 38.4126 46.5605 38.1189 47.149 38.1189C47.7376 38.1189 47.8356 38.6084 47.8356 38.902C47.8356 39.1957 47.8356 39.4894 47.8356 39.4894C47.8356 39.4894 48.8165 40.8599 49.0127 41.2514C49.307 41.643 49.6994 42.6219 49.6994 42.9156C49.6994 43.2093 49.6994 43.8945 49.6994 44.2861C49.6994 44.6776 49.7975 45.3629 49.5032 45.8523C49.2089 46.3418 49.2089 46.7333 49.1108 46.9291C49.1108 47.1249 49.1108 49.5722 49.1108 50.5511C49.2089 51.3342 49.1108 56.914 51.2688 60.9276Z" fill="#FFE3CF"/>
<path d="M47.7374 47.9093C47.7374 47.9093 47.5412 48.3009 47.247 48.5945C46.9527 48.8882 46.2661 49.3777 46.168 49.4756C46.168 49.5735 46.2661 50.0629 45.8737 50.2587C45.4813 50.4545 44.8928 50.4545 44.8928 50.4545C44.8928 50.4545 44.8928 50.7481 44.6966 51.6292C44.5985 52.5102 45.9718 55.0554 45.5794 57.8942C45.2852 60.1457 45.4813 62.4951 45.5794 63.474C44.4023 63.2782 43.6176 62.9846 43.6176 62.9846C43.6176 62.9846 43.4214 59.9499 43.4214 57.6984C43.5195 55.4469 43.7157 51.825 43.6176 50.0629C43.5195 48.3988 43.4214 48.203 43.3234 48.203C43.2253 48.203 42.7348 47.9093 42.1463 47.322C41.7539 46.8325 41.6558 46.5388 41.3615 46.1473C41.2635 46.0494 41.1654 45.9515 41.0673 45.7557C40.9692 45.6578 40.8711 45.5599 40.8711 45.462C41.6558 44.581 42.4405 45.5599 43.2253 45.8536C44.01 46.1473 45.2852 46.9304 45.2852 46.9304C45.2852 46.9304 45.5794 47.5177 45.5794 47.6156C45.5794 47.7135 45.2852 48.4966 45.3832 48.6924C45.4813 48.8882 45.8737 48.9861 46.168 48.8882C46.4622 48.8882 47.6393 47.9093 47.7374 47.9093Z" fill="#FFE3CF"/>
<path d="M51.0728 61.1232C50.9747 61.4169 50.6805 61.8085 50.2881 62.2C50.0919 62.3958 49.7977 62.5916 49.5034 62.7874C49.3072 62.7874 49.111 62.5916 49.0129 62.2C48.8168 61.0253 47.4435 51.8235 47.3454 50.551C47.2473 49.3763 47.7378 48.2995 47.8359 48.2016C47.9339 48.1037 47.6397 47.81 47.6397 47.81C47.6397 47.81 46.4626 48.3974 46.6588 48.2995C46.855 48.2016 47.0511 47.7121 47.0511 47.7121C47.0511 47.7121 47.6397 47.6142 47.9339 47.4184C48.2282 47.2227 49.0129 47.2227 49.0129 47.2227C49.0129 47.2227 48.6206 51.0404 49.2091 55.1518C49.7977 58.6759 50.7786 60.5359 51.0728 61.1232Z" fill="#FFE3CF"/>
<path d="M46.2664 39.783C46.2664 39.783 46.1683 39.9788 46.2664 40.2725C46.3645 40.5662 46.7568 41.1535 46.8549 41.2514C47.0511 41.3493 47.1492 41.5451 47.1492 41.643C47.1492 41.7409 47.2473 42.2303 47.2473 42.2303C47.2473 42.2303 45.0893 40.762 44.9912 39.8809C44.9912 38.902 46.2664 39.783 46.2664 39.783Z" fill="#F6B486"/>
<path d="M49.4051 46.0485C49.4051 46.0485 48.9147 47.1253 48.4242 47.3211C48.0319 47.5168 47.1491 47.5168 46.7567 47.419C46.4624 47.3211 48.2281 44.9717 48.2281 44.9717C48.2281 44.9717 48.7185 45.4611 48.7185 45.559C48.8166 46.44 49.4051 46.0485 49.4051 46.0485Z" fill="#F6B486"/>
<path d="M49.6995 45.1674C49.6995 45.1674 49.4053 45.9505 49.111 45.7547C48.9148 45.5589 48.6205 45.0695 48.5225 44.8737C48.4244 44.6779 48.1301 44.58 48.1301 44.58C48.1301 44.58 48.4244 43.8948 48.4244 43.6011C48.4244 43.3075 48.7186 43.4053 48.7186 43.4053C48.7186 43.4053 48.5225 42.5243 48.4244 41.937C48.3263 41.3496 47.9339 41.056 47.7377 40.4686C47.6397 40.1749 47.6396 39.6855 47.6396 39.2939C47.6396 39.0002 47.6397 38.9023 47.7377 38.9023C47.8358 39.0002 47.7377 39.196 48.1301 39.6855C48.5225 40.2728 49.0129 40.9581 49.0129 40.9581C49.0129 40.9581 49.5034 41.6433 49.6014 42.5243C49.6995 43.4053 49.6995 43.5032 49.6995 43.7969C49.6995 44.1885 49.7976 44.6779 49.6995 45.1674Z" fill="#FFE3CF"/>
<path d="M47.7374 39.3924C47.7374 39.3924 47.5412 39.3924 47.3451 39.2945C47.0508 39.1966 47.0508 38.4135 47.0508 38.3156C47.0508 38.2177 47.4431 38.2177 47.5412 38.3156C47.6393 38.4135 47.7374 38.5114 47.8355 39.0008C47.8355 39.3924 47.7374 39.3924 47.7374 39.3924Z" fill="#FFE3CF"/>
<path d="M46.5611 38.5107C46.5611 38.5107 46.6592 38.7065 46.5611 39.196C46.463 39.6854 46.2668 40.077 46.1687 40.1749C46.1687 40.2728 46.463 40.8601 46.463 40.8601C46.463 40.8601 45.7764 40.2728 45.6783 40.1749C45.5802 40.077 45.2859 39.6854 45.384 39.5875C45.5802 39.4897 46.5611 38.5107 46.5611 38.5107Z" fill="#FCD1B3"/>
<path d="M44.5986 45.9508V48.2023C44.5986 48.3981 44.6967 48.5938 44.7948 48.6917C45.2853 49.1812 46.07 49.1812 46.5604 48.6917C46.6585 48.5938 46.7566 48.3981 46.7566 48.2023V42.8182L44.5986 41.6436V45.9508Z" fill="#707070"/>
<path d="M44.5986 39.6855V29.5048L46.7566 29.1133V38.3151V41.7413L44.5986 39.6855Z" fill="#707070"/>
<path d="M50.2881 62.1997C49.7977 62.6892 49.0129 63.2765 48.032 63.3744C47.7378 63.4723 47.4435 63.4723 47.0511 63.4723C46.953 63.2765 46.953 63.0807 46.953 62.9828C46.4626 60.9271 46.6588 58.3819 46.6588 58.3819C46.6588 58.3819 46.5607 57.8925 46.6588 56.7178C46.7569 55.5431 46.0702 54.4663 45.6779 53.6832C45.2855 52.9 45.2855 50.6485 45.3836 50.5506C45.4817 50.4527 46.0702 50.3548 46.3645 50.1591C46.6588 49.9633 47.5416 48.9844 47.5416 48.9844C47.5416 48.9844 47.9339 51.7253 48.1301 52.7042C48.3263 53.781 49.5034 58.284 49.5034 58.4798C49.6015 58.6756 49.9938 60.4377 50.2881 62.1997Z" fill="#FFE3CF"/>
<path d="M46.3647 39.5873C45.9724 40.2725 45.1877 39.6852 45.0896 39.5873C44.9915 39.4894 42.9316 37.3358 42.7354 37.3358C42.6373 37.14 42.5392 36.8463 42.6373 36.5527C42.7354 35.8674 43.5201 35.7695 43.6182 35.7695C43.8144 35.7695 44.4029 35.8674 44.5991 36.0632C44.7953 36.1611 46.2666 38.3147 46.4628 38.4126C46.4628 38.4126 46.8552 38.9021 46.3647 39.5873Z" fill="#FFE3CF"/>
<path d="M46.4622 38.6085C46.4622 38.6085 46.0699 37.8254 45.5794 37.3359C45.089 36.8465 44.5985 36.1612 44.2062 35.9655C43.8138 35.8676 43.6176 35.6718 43.0291 36.0634C42.4405 36.4549 44.4024 38.217 44.4024 38.217L45.1871 39.2938C45.2852 39.2938 46.4622 38.6085 46.4622 38.6085Z" fill="#FFEBDD"/>
<path d="M46.364 38.511C46.364 38.511 45.9717 38.0215 45.5793 38.1194C45.187 38.2173 45.0889 38.7067 45.0889 38.9025C45.0889 39.0983 45.5793 39.6857 45.5793 39.6857C45.5793 39.6857 45.8736 39.4899 46.1679 39.2941C46.364 39.0004 46.5602 38.9025 46.364 38.511Z" fill="#FEF7F2"/>
<path d="M48.5225 46.1466C48.1301 46.636 47.7378 46.5381 47.7378 46.5381C47.7378 46.5381 47.8359 46.8318 47.7378 47.0276C47.6397 47.3213 47.2473 47.517 46.7569 47.4192C46.1683 47.3213 45.776 47.0276 44.697 46.636C43.5199 46.2445 43.1275 46.2445 43.1275 46.2445C42.4409 46.2445 41.8524 46.2445 41.46 46.1466C41.3619 46.0487 41.2638 45.9508 41.1657 45.755C40.5772 45.0698 40.7734 44.0908 40.8715 43.8951C40.9696 43.6014 41.3619 43.4056 41.46 42.8183C41.5581 42.3288 41.46 41.8394 41.7543 41.4478C42.1466 41.0562 42.3428 41.1541 42.4409 40.7625C42.539 40.371 42.539 39.9794 42.8333 39.7836C43.1275 39.49 44.0104 39.1963 44.0104 39.1963C44.0104 39.1963 44.8932 39.5879 44.9913 39.7836C45.1874 39.9794 46.1683 41.1541 46.5607 41.5457C46.9531 41.9372 47.6397 42.5246 47.8359 42.9162C48.0321 43.3077 48.1301 43.7972 48.0321 44.1887C47.934 44.4824 47.5416 44.4824 47.5416 44.4824C47.6397 44.4824 48.3263 44.9719 48.4244 45.0698C48.5225 45.1677 48.8168 45.6571 48.5225 46.1466Z" fill="#FFE3CF"/>
<path d="M47.6395 44.5805C47.6395 44.5805 47.1491 44.3847 46.6586 43.9932C46.1682 43.6995 44.7949 42.7206 44.5006 42.5248C44.2064 42.329 43.0293 41.5459 43.0293 41.5459C43.0293 41.5459 43.4217 41.6438 43.4217 41.7417C43.5197 41.7417 44.1083 42.0354 44.1083 42.1332C44.2064 42.1332 47.4434 44.3847 47.6395 44.5805Z" fill="#F6B486"/>
<path d="M47.6396 46.5379C47.6396 46.5379 46.953 46.1463 46.5606 45.9505C46.1683 45.7547 43.716 44.3843 43.3237 44.1885C42.9313 43.9927 42.0485 43.6011 41.9504 43.6011C41.8523 43.6011 42.3428 43.5032 42.4408 43.6011C42.5389 43.699 44.5007 44.6779 44.5007 44.6779C44.5988 44.7758 46.4625 45.6568 46.5606 45.7547C46.7568 45.9505 47.6396 46.44 47.6396 46.5379Z" fill="#F6B486"/>
<path d="M43.8135 44.5801C43.8135 44.5801 43.225 44.7759 43.225 45.1674C43.1269 45.559 43.225 45.8527 44.1078 46.1463C44.8925 46.44 45.6772 46.7337 45.8734 46.8316C46.0696 46.9295 46.6581 47.321 46.9524 47.4189C47.2467 47.5168 47.4429 47.321 47.5409 47.1253C47.639 47.0274 46.9524 46.2442 46.9524 46.2442C46.9524 46.2442 45.8734 45.559 45.5791 45.3632C45.383 45.2653 43.8135 44.5801 43.8135 44.5801Z" fill="#FFEBDD"/>
<path d="M44.5982 42.6221C44.5982 42.6221 44.1077 42.5242 43.8134 42.8179C43.5192 43.1116 43.5192 43.3073 43.6173 43.601C43.8134 43.9926 44.6963 44.5799 44.6963 44.5799C44.6963 44.5799 46.56 45.5588 46.6581 45.5588C46.7561 45.6567 47.4428 46.1462 47.5409 46.2441C47.639 46.342 47.9332 46.342 48.0313 46.2441C48.1294 46.1462 48.2275 45.0694 48.2275 45.0694C48.2275 45.0694 47.639 44.6778 47.2466 44.3842C47.0504 44.1884 44.7943 42.9158 44.5982 42.6221Z" fill="#FFEBDD"/>
<path d="M46.5608 41.4475C46.5608 41.4475 44.8933 39.7834 44.6971 39.7834C44.5009 39.7834 43.9124 39.6855 43.6181 40.1749C43.2258 40.6644 44.3048 41.4475 44.3048 41.6433C44.4029 41.7412 45.5799 42.818 45.678 43.0138C45.7761 43.2096 47.1494 44.0906 47.1494 44.0906L48.0322 43.4054C48.0322 43.4054 47.7379 42.818 47.5417 42.5243C47.1494 42.1328 46.5608 41.4475 46.5608 41.4475Z" fill="#FFEBDD"/>
<path d="M48.1303 43.4046C48.1303 43.4046 47.9341 43.2088 47.6399 43.3067C47.3456 43.4046 47.1494 43.6983 47.1494 43.8941C47.1494 44.0898 47.3456 44.1877 47.3456 44.1877L47.738 44.4814C47.738 44.4814 48.2284 44.4814 48.1303 43.4046Z" fill="#FEF7F2"/>
<path d="M48.5224 45.2652C48.5224 45.2652 48.13 44.8737 47.8357 45.0695C47.6395 45.2653 47.4434 45.5589 47.4434 45.8526C47.4434 46.1463 48.0319 46.3421 48.0319 46.3421C48.0319 46.3421 48.8166 45.9505 48.5224 45.2652Z" fill="#FEF7F2"/>
<path d="M47.6401 46.538C47.6401 46.538 47.0515 46.2444 46.9534 46.3422C46.8554 46.3422 46.6592 46.538 46.6592 46.8317C46.6592 47.1254 46.8554 47.2233 46.9534 47.3212C47.0515 47.3212 47.2477 47.419 47.2477 47.419C47.2477 47.419 47.8363 46.9296 47.6401 46.538Z" fill="#FEF7F2"/>
<path d="M53.1602 25.47L54.4454 24.6988L54.6511 12.5664L37.7891 22.3341V34.6721L53.1602 25.47Z" fill="url(#paint2_linear)"/>
<path d="M44.3798 24.9889C44.2531 24.8854 44.0964 24.8432 43.9201 24.8555C44.2772 24.441 44.4928 23.9194 44.4928 23.3935C44.4928 23.1699 44.453 22.9833 44.3697 22.8403C44.2847 22.6945 44.1577 22.5999 43.9986 22.559C43.6909 22.4801 43.2795 22.6054 42.8183 22.8814L40.8076 24.0367L40.7574 24.0656V24.1234V29.3549V29.5208L40.9041 29.4433L42.9766 28.3484L42.9766 28.3484L42.9805 28.3462C44.037 27.726 44.6757 26.7851 44.6757 25.8267C44.6757 25.4501 44.582 25.1539 44.3798 24.9889ZM42.858 26.0349L42.858 26.035L42.8593 26.0342C43.0074 25.9455 43.1373 25.8848 43.2477 25.8498C43.359 25.8145 43.4443 25.8074 43.5063 25.8186C43.5648 25.8292 43.6046 25.8562 43.6324 25.8996C43.6622 25.9463 43.6832 26.0202 43.6832 26.1309C43.6832 26.566 43.3533 27.0258 42.7572 27.3829L41.7498 27.965V26.6752L42.858 26.0349ZM41.7498 25.6534V24.4853L42.8553 23.8466C43.0941 23.7278 43.2617 23.6982 43.3603 23.7255C43.4047 23.7378 43.4362 23.7618 43.4589 23.8004C43.4831 23.8418 43.5004 23.906 43.5004 24.0018C43.5004 24.3789 43.228 24.7772 42.7565 25.0718L41.7498 25.6534Z" fill="white" stroke="white" stroke-width="0.2"/>
<path d="M46.3211 20.96V20.7927L46.1738 20.8719L45.3814 21.2977L45.3287 21.326V21.3858V26.6172V26.7845L45.476 26.7053L46.2685 26.2795L46.3211 26.2512V26.1914V20.96Z" fill="white" stroke="white" stroke-width="0.2"/>
<path d="M47.3404 25.5836V25.7571L47.4906 25.6701L49.3792 24.5757C49.3793 24.5757 49.3795 24.5756 49.3797 24.5755C50.8125 23.7669 51.8073 22.0307 51.8073 20.4738C51.8073 19.6969 51.5578 19.133 51.0909 18.8873C50.6262 18.6428 49.9918 18.7384 49.279 19.1712L47.3903 20.2656L47.3404 20.2945V20.3521V25.5836ZM49.3785 20.0746L49.3786 20.0748L49.384 20.0713C49.7943 19.8081 50.1494 19.7801 50.3942 19.915C50.6388 20.05 50.8148 20.3708 50.8148 20.8996C50.8148 21.4275 50.6529 21.9732 50.3861 22.4391C50.1191 22.9056 49.7512 23.2847 49.3463 23.4867L49.3462 23.4865L49.341 23.4896L48.3328 24.0721V20.6544L49.3785 20.0746Z" fill="white" stroke="white" stroke-width="0.2"/>
<path d="M54.65 12.5666L37.788 22.3343L36.1943 21.4089L53.0564 11.5898L54.65 12.5666Z" fill="url(#paint3_linear)" fill-opacity="0.5"/>
<path d="M37.788 22.3342L36.1943 21.3574V33.6955L37.788 34.6209V22.3342Z" fill="url(#paint4_linear)"/>
<path opacity="0.2" d="M37.7546 74.4579C34.2175 76.514 28.5397 76.514 24.9096 74.4579C21.3726 72.4017 21.3726 69.0371 24.9096 67.0744C28.4466 65.0182 34.1245 65.0182 37.7546 67.0744C41.1985 69.0371 41.1985 72.4017 37.7546 74.4579Z" fill="url(#paint5_linear)"/>
<path d="M37.1435 69.8357C37.1435 69.8357 37.0454 69.9336 36.9473 70.1294C36.7512 70.423 36.3588 71.0104 35.8683 71.5977C35.5741 71.8914 35.2798 72.1851 34.8874 72.3809C34.2989 72.7724 33.6123 73.0661 32.8275 73.164C32.4352 73.2619 31.9447 73.2619 31.5524 73.2619C30.7677 73.2619 30.081 73.2619 29.3944 73.164C27.8249 72.9682 26.746 72.5766 26.746 72.5766C26.746 72.5766 26.4517 68.4652 26.4517 65.4306C26.5498 62.3959 26.9421 57.4035 26.746 55.152C26.5498 52.8026 26.4517 52.6068 26.3536 52.6068C26.2555 52.6068 25.5689 52.2153 24.7841 51.4321C24.1956 50.8448 24.0975 50.4532 23.7052 49.8659C23.6071 49.6701 23.4109 49.5722 23.3128 49.3764C23.2147 49.2785 23.1166 49.0827 23.0185 48.9848C22.6262 48.2017 22.8223 47.1249 23.0185 46.8312C23.1166 46.4397 23.6071 46.146 23.8032 45.4608C23.9013 44.7755 23.8032 44.1882 24.2937 43.6008C24.7841 43.0135 25.0784 43.2093 25.2746 42.6219C25.4708 42.0346 25.4708 41.643 25.8631 41.2514C26.2555 40.8599 27.4326 40.4683 27.4326 40.4683C27.4326 40.4683 26.3536 38.7063 26.1574 38.5105C26.0593 38.4126 25.8631 38.2168 25.765 37.9231C25.667 37.6295 25.5689 37.2379 25.667 36.8463C25.8631 35.9653 26.844 35.7695 27.0402 35.7695C27.2364 35.7695 28.1192 35.8674 28.4135 36.0632C28.7078 36.259 30.7677 39.0978 30.8657 39.2936C30.8657 39.2936 30.9638 38.902 31.7486 38.902C32.5333 38.902 32.7295 39.5873 32.7295 39.881C32.7295 40.2725 32.7295 40.6641 32.7295 40.6641C32.7295 40.6641 34.0046 42.524 34.397 43.0135C34.6913 43.5029 35.2798 44.8734 35.2798 45.1671C35.2798 45.4608 35.1817 46.4397 35.2798 46.9291C35.3779 47.4186 35.3779 48.3975 35.0836 49.0827C34.6913 49.768 34.6913 50.3553 34.5932 50.5511C34.5932 50.7469 34.4951 54.0752 34.5932 55.4457C34.2989 56.8161 34.2989 64.3538 37.1435 69.8357Z" fill="#FFE3CF"/>
<path d="M32.3372 52.1169C32.3372 52.1169 32.043 52.7042 31.6506 53.0958C31.2582 53.4873 30.2773 54.1726 30.2773 54.2705C30.1792 54.3684 30.4735 55.0536 29.885 55.3473C29.2964 55.641 28.5117 55.5431 28.5117 55.5431C28.5117 55.5431 28.4136 55.9346 28.3155 57.1093C28.1194 58.284 29.9831 61.8081 29.4926 65.6259C29.0022 68.6605 29.3945 71.793 29.5907 73.1635C28.0213 72.9677 26.9423 72.5761 26.9423 72.5761C26.9423 72.5761 26.648 68.4647 26.648 65.4301C26.7461 62.3954 27.1385 57.403 26.9423 55.1515C26.7461 52.8021 26.648 52.6063 26.5499 52.6063C26.4518 52.6063 25.7652 52.2148 24.9805 51.4316C24.3919 50.8443 24.2938 50.4527 23.9015 49.8654C23.8034 49.6696 23.6072 49.5717 23.5091 49.3759C23.411 49.278 23.3129 49.0822 23.2148 48.9844C24.1957 47.8097 25.3728 49.1801 26.4518 49.5717C27.5308 49.9633 29.1983 50.9422 29.1983 50.9422C29.1983 50.9422 29.6888 51.8232 29.5907 51.8232C29.5907 51.9211 29.1983 53.0958 29.3945 53.2916C29.5907 53.5852 30.0812 53.6831 30.3754 53.5852C30.6697 53.4873 32.2391 52.2148 32.3372 52.1169Z" fill="#FFE3CF"/>
<path d="M36.9468 70.1301C36.7506 70.4238 36.3582 71.0111 35.8678 71.5985C35.5735 71.8921 35.2792 72.1858 34.8869 72.3816C34.5926 72.3816 34.2983 72.0879 34.2002 71.5006C33.906 69.9343 32.0423 57.4042 31.9442 55.7401C31.8461 54.0759 32.4346 52.7054 32.5327 52.5097C32.7289 52.3139 32.3365 52.0202 32.3365 52.0202C32.3365 52.0202 30.7671 52.8033 30.9633 52.6075C31.1594 52.5097 31.5518 51.8244 31.5518 51.8244C31.5518 51.8244 32.3365 51.7265 32.7289 51.5307C33.1212 51.335 34.2002 51.335 34.2002 51.335C34.2002 51.335 33.6117 56.5232 34.3964 62.103C35.083 66.8018 36.4563 69.347 36.9468 70.1301Z" fill="#FFE3CF"/>
<path d="M30.2777 41.1544C30.2777 41.1544 30.0815 41.3501 30.2777 41.8396C30.4739 42.2312 30.8663 43.0143 31.0624 43.2101C31.2586 43.4059 31.4548 43.6016 31.5529 43.6995C31.5529 43.8953 31.7491 44.3848 31.7491 44.3848C31.7491 44.3848 28.8064 42.3291 28.7083 41.1544C28.6102 40.0776 30.2777 41.1544 30.2777 41.1544Z" fill="#F6B486"/>
<path d="M34.5937 49.6703C34.5937 49.6703 33.9071 51.1387 33.3185 51.4323C32.8281 51.726 31.5529 51.6281 31.1606 51.6281C30.6701 51.5302 33.1224 48.2998 33.1224 48.2998C33.1224 48.2998 33.7109 48.8872 33.809 49.0829C33.809 50.1597 34.5937 49.6703 34.5937 49.6703Z" fill="#F6B486"/>
<path d="M34.9852 48.4962C34.9852 48.4962 34.4948 49.573 34.2005 49.3772C33.9062 49.1814 33.5139 48.3983 33.3177 48.2025C33.2196 48.0068 32.7292 47.811 32.7292 47.811C32.7292 47.811 33.1215 46.8321 33.1215 46.4405C33.1215 46.0489 33.5139 46.1468 33.5139 46.1468C33.5139 46.1468 33.2196 44.9721 33.1215 44.189C33.0234 43.4059 32.4349 43.0143 32.2387 42.2312C32.1406 41.8396 32.1406 41.1544 32.1406 40.6649C32.1406 40.3712 32.2387 40.0776 32.2387 40.1755C32.3368 40.2733 32.2387 40.4691 32.8273 41.2523C33.4158 42.0354 34.0043 43.0143 34.0043 43.0143C34.0043 43.0143 34.691 43.9932 34.7891 45.07C34.9852 46.2447 34.9852 46.4405 34.8872 46.7342C34.9852 47.1257 35.0833 47.811 34.9852 48.4962Z" fill="#FFE3CF"/>
<path d="M32.3376 40.6646C32.3376 40.6646 32.1414 40.6646 31.749 40.4689C31.3567 40.2731 31.2586 39.2942 31.3567 39.0984C31.3567 38.9026 31.9452 39.0005 32.0433 39.0984C32.1414 39.1963 32.3376 39.3921 32.3376 39.9794C32.4357 40.6646 32.3376 40.6646 32.3376 40.6646Z" fill="#FFE3CF"/>
<path d="M30.7675 39.4893C30.7675 39.4893 30.8655 39.685 30.8655 40.3703C30.7675 41.0555 30.4732 41.545 30.3751 41.7408C30.3751 41.9365 30.7675 42.7197 30.7675 42.7197C30.7675 42.7197 29.8846 41.9365 29.7866 41.8386C29.6885 41.6429 29.198 41.1534 29.2961 40.9576C29.3942 40.7618 30.7675 39.4893 30.7675 39.4893Z" fill="#FCD1B3"/>
<path d="M28.1191 49.4741V52.5087C28.1191 52.8024 28.2172 52.9981 28.4134 53.1939C29.1 53.8792 30.179 53.8792 30.7676 53.1939C30.9638 52.9981 31.0619 52.7045 31.0619 52.5087V45.2647L28.1191 43.6006V49.4741Z" fill="#707070"/>
<path d="M28.1191 41.0558V27.351L31.0619 26.7637V39.2938V43.8946L28.1191 41.0558Z" fill="#707070"/>
<path d="M35.8683 71.5975C35.1817 72.2827 34.2008 72.9679 32.8275 73.2616C32.4352 73.3595 31.9447 73.3595 31.5523 73.3595C31.4542 73.0658 31.4542 72.87 31.3562 72.6743C30.7676 69.9333 30.9638 66.4092 30.9638 66.4092C30.9638 66.4092 30.8657 65.724 30.9638 64.1577C31.0619 62.5915 30.1791 61.1231 29.5905 60.1442C29.002 59.1653 29.1001 56.0327 29.1982 55.9349C29.2963 55.837 30.081 55.6412 30.5714 55.4454C30.9638 55.2496 32.1409 53.7812 32.1409 53.7812C32.1409 53.7812 32.7294 57.4032 33.0237 58.8716C33.318 60.34 34.8874 66.5071 34.8874 66.7029C34.8874 66.8008 35.3779 69.1502 35.8683 71.5975Z" fill="#FFE3CF"/>
<path d="M30.572 40.958C29.9834 41.839 29.0025 41.0559 28.9045 40.958C28.7083 40.8601 25.9617 37.8255 25.5694 37.8255C25.4713 37.5318 25.3732 37.1402 25.4713 36.7487C25.6675 35.8677 26.6484 35.6719 26.8446 35.6719C27.0407 35.6719 27.9235 35.7698 28.2178 35.9655C28.5121 36.1613 30.572 39.0002 30.6701 39.196C30.6701 39.196 31.1605 40.077 30.572 40.958Z" fill="#FFE3CF"/>
<path d="M30.6699 39.5876C30.6699 39.5876 30.1794 38.5108 29.4928 37.9235C28.8062 37.2383 28.2176 36.2593 27.7272 36.1614C27.2367 35.9657 26.9425 35.7699 26.0597 36.2593C25.1768 36.7488 27.9234 39.1961 27.9234 39.1961C27.9234 39.1961 29.0024 40.5666 29.0024 40.6644C29.1005 40.5666 30.6699 39.5876 30.6699 39.5876Z" fill="#FFEBDD"/>
<path d="M30.4736 39.4897C30.4736 39.4897 29.9832 38.9023 29.3946 38.9023C28.9042 39.0002 28.708 39.7834 28.708 39.9792C28.708 40.2728 29.3946 41.056 29.3946 41.056C29.3946 41.056 29.787 40.8602 30.1794 40.4686C30.5717 40.1749 30.6698 40.077 30.4736 39.4897Z" fill="#FEF7F2"/>
<path d="M33.4167 49.7687C32.9262 50.4539 32.3377 50.356 32.3377 50.356C32.3377 50.356 32.4358 50.7476 32.3377 51.0412C32.2396 51.3349 31.7491 51.7265 30.9644 51.5307C30.1797 51.4328 29.6892 51.0412 28.1198 50.4539C26.5504 49.9644 26.0599 49.8665 26.0599 49.8665C25.079 49.8665 24.3924 49.8665 23.8038 49.7687C23.7057 49.5729 23.5095 49.475 23.4115 49.2792C22.6267 48.3982 22.921 47.1256 23.1172 46.734C23.2153 46.3425 23.7057 46.0488 23.9019 45.3635C24 44.6783 23.9019 44.091 24.3924 43.5036C24.8828 42.9163 25.1771 43.112 25.3733 42.5247C25.5694 41.9374 25.5694 41.5458 25.9618 41.1542C26.3542 40.7627 27.5313 40.3711 27.5313 40.3711C27.5313 40.3711 28.7083 40.8606 28.9045 41.1542C29.1988 41.4479 30.5721 43.0142 31.0625 43.6015C31.651 44.091 32.5339 44.972 32.8281 45.4614C33.1224 45.9509 33.2205 46.734 33.0243 47.2235C32.6319 47.7129 32.2396 47.615 32.1415 47.615C32.2396 47.615 33.2205 48.3003 33.3186 48.3982C33.4167 48.4961 33.9071 49.0834 33.4167 49.7687Z" fill="#FFE3CF"/>
<path d="M32.1411 47.6141C32.1411 47.6141 31.4544 47.3205 30.7678 46.831C30.0812 46.3415 28.2174 45.069 27.8251 44.8732C27.4327 44.6774 25.8633 43.6006 25.8633 43.6006C25.8633 43.6006 26.4518 43.7964 26.5499 43.7964C26.648 43.7964 27.4327 44.1879 27.5308 44.2858C27.6289 44.3837 31.9449 47.5162 32.1411 47.6141Z" fill="#F6B486"/>
<path d="M32.3368 50.3559C32.3368 50.3559 31.3559 49.8664 30.8655 49.5727C30.375 49.377 27.0399 47.517 26.4514 47.2234C25.8629 46.9297 24.7839 46.4402 24.5877 46.3423C24.4896 46.3423 25.1762 46.2444 25.2743 46.3423C25.3724 46.4402 28.0209 47.8107 28.1189 47.9086C28.217 48.0065 30.7674 49.2791 30.8655 49.4749C31.0616 49.5727 32.2387 50.258 32.3368 50.3559Z" fill="#F6B486"/>
<path d="M27.1381 47.7119C27.1381 47.7119 26.4515 48.0056 26.3534 48.495C26.2553 48.9845 26.4515 49.474 27.5305 49.7676C28.6094 50.1592 29.6884 50.5508 29.8846 50.7465C30.0808 50.9423 30.8655 51.4318 31.2579 51.5297C31.6502 51.6276 31.9445 51.3339 32.0426 51.1381C32.1407 50.9423 31.2579 49.9634 31.2579 49.9634C31.2579 49.9634 29.7865 48.9845 29.3942 48.7887C29.0999 48.6908 27.1381 47.7119 27.1381 47.7119Z" fill="#FFEBDD"/>
<path d="M28.1189 45.0685C28.1189 45.0685 27.5303 44.8727 27.0399 45.2643C26.6475 45.6558 26.6475 45.8516 26.8437 46.3411C27.0399 46.8305 28.3151 47.6137 28.3151 47.6137C28.3151 47.6137 30.8654 48.8862 30.9635 48.9841C31.0616 49.082 32.0425 49.8652 32.2387 49.963C32.4348 50.0609 32.8272 50.0609 32.9253 49.963C33.0234 49.8652 33.2196 48.3968 33.2196 48.3968C33.2196 48.3968 32.3368 47.8094 31.9444 47.5158C31.4539 47.2221 28.3151 45.46 28.1189 45.0685Z" fill="#FFEBDD"/>
<path d="M30.7678 43.4051C30.7678 43.4051 28.5117 41.1536 28.2175 41.1536C27.9232 41.1536 27.2366 41.0557 26.7461 41.643C26.2557 42.2304 27.6289 43.4051 27.727 43.6009C27.8251 43.7966 29.3946 45.1671 29.5907 45.4608C29.7869 45.6566 31.5525 46.9292 31.5525 46.9292L32.7296 45.9503C32.7296 45.9503 32.3373 45.1671 32.043 44.7756C31.6506 44.384 30.7678 43.4051 30.7678 43.4051Z" fill="#FFEBDD"/>
<path d="M32.8279 46.1457C32.8279 46.1457 32.5336 45.852 32.1412 46.0478C31.7489 46.2436 31.5527 46.5372 31.4546 46.8309C31.3565 47.1246 31.6508 47.2225 31.6508 47.2225C31.6508 47.2225 32.1412 47.614 32.2393 47.614C32.3374 47.614 32.9259 47.5161 32.8279 46.1457Z" fill="#FEF7F2"/>
<path d="M33.4153 48.5933C33.4153 48.5933 32.8267 48.1039 32.5324 48.3975C32.2382 48.6912 32.042 49.0828 32.042 49.4744C32.042 49.8659 32.7286 50.1596 32.7286 50.1596C32.7286 50.1596 33.9057 49.5722 33.4153 48.5933Z" fill="#FEF7F2"/>
<path d="M32.3371 50.3552C32.3371 50.3552 31.4543 50.0615 31.3562 50.0615C31.2581 50.0615 30.9639 50.3552 30.9639 50.7468C30.9639 51.1383 31.2581 51.3341 31.3562 51.3341C31.4543 51.3341 31.7486 51.432 31.7486 51.432C31.7486 51.432 32.5333 50.9425 32.3371 50.3552Z" fill="#FEF7F2"/>
<path d="M32.043 34.3996L26.9423 37.3364C26.0595 37.8258 24.9805 37.2385 24.9805 36.1617V31.1692L33.7105 26.1768V31.6587C33.6124 32.8334 33.0239 33.8123 32.043 34.3996Z" fill="#5C5C5C"/>
<path d="M32.9258 34.7912L27.8251 37.728C26.9423 38.2174 25.8633 37.6301 25.8633 36.5533V31.5608L34.5933 26.5684V32.0503C34.4952 33.1271 33.9067 34.2039 32.9258 34.7912Z" fill="#707070"/>
<path d="M19.0927 33.4504L20.539 32.5826L20.7705 18.9287L1.79395 29.9212V43.8065L19.0927 33.4504Z" fill="url(#paint6_linear)"/>
<path d="M9.20425 32.9187C9.05741 32.7987 8.8735 32.753 8.66503 32.774C9.07722 32.3058 9.32676 31.7119 9.32676 31.1135C9.32676 30.8632 9.28217 30.6557 9.1899 30.4973C9.09599 30.3361 8.95588 30.2317 8.78 30.1865C8.43885 30.099 7.97967 30.2377 7.4612 30.548L5.19823 31.8483L5.14805 31.8771V31.935V37.8225V37.9884L5.29476 37.9109L7.62711 36.6786L7.62716 36.6787L7.63102 36.6765C8.81748 35.98 9.53255 34.9247 9.53255 33.8519C9.53255 33.4295 9.4274 33.1009 9.20425 32.9187ZM7.49322 34.0754L7.49323 34.0754L7.49457 34.0746C7.66171 33.9745 7.80883 33.9056 7.9343 33.8659C8.0606 33.8259 8.15886 33.8173 8.23138 33.8304C8.30035 33.843 8.34825 33.8752 8.38152 33.9272C8.41689 33.9824 8.44077 34.0682 8.44077 34.1941C8.44077 34.6903 8.06499 35.2112 7.39247 35.6141L6.23983 36.28V34.7995L7.49322 34.0754ZM6.23983 33.6786V32.335L7.49055 31.6124C7.75996 31.4783 7.95241 31.443 8.06817 31.4751C8.12112 31.4898 8.15937 31.5188 8.18652 31.5652C8.21527 31.6142 8.23498 31.689 8.23498 31.7981C8.23498 32.2286 7.9244 32.6803 7.39169 33.0131L6.23983 33.6786Z" fill="white" stroke="white" stroke-width="0.2"/>
<path d="M11.3853 28.376V28.2087L11.238 28.2879L10.3462 28.7671L10.2936 28.7954V28.8552V34.7427V34.91L10.4409 34.8308L11.3327 34.3516L11.3853 34.3233V34.2635V28.376Z" fill="white" stroke="white" stroke-width="0.2"/>
<path d="M12.5572 33.5787V33.7522L12.7074 33.6652L14.8329 32.4335C14.8331 32.4334 14.8332 32.4333 14.8334 32.4332C16.4421 31.5255 17.5591 29.5758 17.5591 27.8281C17.5591 26.9558 17.279 26.3271 16.7597 26.0538C16.2424 25.7816 15.5335 25.8867 14.7327 26.3729L12.6071 27.6047L12.5572 27.6336V27.6912V33.5787ZM14.8323 27.3679L14.8324 27.3681L14.8378 27.3646C15.3015 27.0671 15.7064 27.0333 15.9874 27.1883C16.2683 27.3432 16.4673 27.7098 16.4673 28.3073C16.4673 28.9039 16.2844 29.5202 15.9832 30.0461C15.6817 30.5726 15.2661 31.0013 14.8077 31.2301L14.8076 31.2299L14.8023 31.233L13.649 31.8993V28.0239L14.8323 27.3679Z" fill="white" stroke="white" stroke-width="0.2"/>
<path d="M20.7701 18.9293L1.79352 29.9219L0 28.8805L18.9766 17.8301L20.7701 18.9293Z" fill="url(#paint7_linear)" fill-opacity="0.5"/>
<path d="M1.79352 29.9215L0 28.8223V42.7076L1.79352 43.749V29.9215Z" fill="url(#paint8_linear)"/>
<path d="M41.9009 24.071L44.1297 22.7338L44.4864 1.69434L15.2451 18.6329V40.0289L41.9009 24.071Z" fill="url(#paint9_linear)"/>
<path d="M26.8056 23.1838C26.5897 23.0075 26.3197 22.9397 26.0141 22.9692C26.6204 22.2785 26.9873 21.4033 26.9873 20.5213C26.9873 20.1517 26.9215 19.8449 26.785 19.6106C26.6461 19.3721 26.4387 19.2176 26.1785 19.1509C25.674 19.0214 24.9955 19.2265 24.2302 19.6846L20.8901 21.6038L20.8148 21.647V21.7338V30.4237V30.6726L21.0349 30.5563L24.4774 28.7375L24.4775 28.7376L24.4833 28.7342C26.2349 27.7059 27.2911 26.1477 27.2911 24.5631C27.2911 23.9394 27.1358 23.4535 26.8056 23.1838ZM24.2799 24.8951L24.2799 24.8951L24.2819 24.8939C24.5285 24.7462 24.7455 24.6447 24.9304 24.5861C25.1166 24.5271 25.2612 24.5145 25.3677 24.5338C25.4689 24.5522 25.539 24.5994 25.5878 24.6755C25.6396 24.7565 25.6748 24.8827 25.6748 25.0683C25.6748 25.7994 25.1211 26.5675 24.1288 27.162L22.4311 28.1429V25.9632L24.2799 24.8951ZM22.4311 24.3032V22.3256L24.2759 21.2598C24.6734 21.062 24.9567 21.0103 25.1266 21.0574C25.2042 21.0789 25.2601 21.1213 25.2999 21.1892C25.342 21.2611 25.3711 21.371 25.3711 21.5318C25.3711 22.166 24.9135 22.8321 24.1276 23.323L22.4311 24.3032Z" fill="white" stroke="white" stroke-width="0.3"/>
<path d="M30.0248 16.4805V16.2296L29.8038 16.3483L28.4876 17.0556L28.4086 17.0981V17.1878V25.8776V26.1285L28.6296 26.0097L29.9458 25.3024L30.0248 25.26V25.1703V16.4805Z" fill="white" stroke="white" stroke-width="0.3"/>
<path d="M31.7494 24.1593V24.4196L31.9746 24.2891L35.1119 22.4711C35.1121 22.471 35.1124 22.4709 35.1126 22.4707C37.4877 21.1306 39.1369 18.2519 39.1369 15.6716C39.1369 14.3837 38.7234 13.4546 37.9557 13.0506C37.191 12.6482 36.1438 12.8039 34.9616 13.5217L31.8242 15.3397L31.7494 15.383V15.4695V24.1593ZM35.1109 14.9944L35.111 14.9947L35.1192 14.9895C35.8032 14.5506 36.3998 14.5011 36.8135 14.7293C37.2271 14.9574 37.5206 15.4974 37.5206 16.3789C37.5206 17.2589 37.2507 18.1681 36.8064 18.9441C36.3616 19.7209 35.7485 20.3533 35.0724 20.6906L35.0723 20.6904L35.0644 20.6949L33.3657 21.6764V15.962L35.1109 14.9944Z" fill="white" stroke="white" stroke-width="0.3"/>
<path d="M44.4864 1.69385L15.2451 18.6324L12.4814 17.0277L41.7227 0L44.4864 1.69385Z" fill="url(#paint10_linear)" fill-opacity="0.5"/>
<path d="M15.2451 18.6323L12.4814 16.9385V38.3345L15.2451 39.9392V18.6323Z" fill="url(#paint11_linear)"/>
</g>
<defs>
<linearGradient id="paint0_linear" x1="8.22451" y1="60.7694" x2="14.229" y2="73.1007" gradientUnits="userSpaceOnUse">
<stop stop-color="#CFC2BA"/>
<stop offset="0.6" stop-color="#BAAEA8"/>
<stop offset="1" stop-color="#B3A7A1"/>
</linearGradient>
<linearGradient id="paint1_linear" x1="42.7603" y1="55.5947" x2="48.3634" y2="67.178" gradientUnits="userSpaceOnUse">
<stop stop-color="#CFC2BA"/>
<stop offset="0.6" stop-color="#BAAEA8"/>
<stop offset="1" stop-color="#B3A7A1"/>
</linearGradient>
<linearGradient id="paint2_linear" x1="40.4835" y1="16.5098" x2="53.9127" y2="30.9774" gradientUnits="userSpaceOnUse">
<stop stop-color="#C6EE27"/>
<stop offset="1" stop-color="#28F7F7"/>
</linearGradient>
<linearGradient id="paint3_linear" x1="38.6494" y1="13.5065" x2="45.1249" y2="24.6294" gradientUnits="userSpaceOnUse">
<stop stop-color="#BCEB00"/>
<stop offset="1" stop-color="#00EAEA"/>
</linearGradient>
<linearGradient id="paint4_linear" x1="36.4063" y1="23.7234" x2="38.5839" y2="23.9851" gradientUnits="userSpaceOnUse">
<stop stop-color="#BCEB00"/>
<stop offset="1" stop-color="#00EAEA"/>
</linearGradient>
<linearGradient id="paint5_linear" x1="25.5443" y1="62.3364" x2="33.311" y2="78.1838" gradientUnits="userSpaceOnUse">
<stop stop-color="#CFC2BA"/>
<stop offset="0.6" stop-color="#BAAEA8"/>
<stop offset="1" stop-color="#B3A7A1"/>
</linearGradient>
<linearGradient id="paint6_linear" x1="4.82628" y1="23.3666" x2="19.9395" y2="39.6485" gradientUnits="userSpaceOnUse">
<stop stop-color="#C6EE27"/>
<stop offset="1" stop-color="#28F7F7"/>
</linearGradient>
<linearGradient id="paint7_linear" x1="2.76296" y1="19.9871" x2="10.0504" y2="32.5048" gradientUnits="userSpaceOnUse">
<stop stop-color="#BCEB00"/>
<stop offset="1" stop-color="#00EAEA"/>
</linearGradient>
<linearGradient id="paint8_linear" x1="0.238584" y1="31.485" x2="2.68918" y2="31.7794" gradientUnits="userSpaceOnUse">
<stop stop-color="#BCEB00"/>
<stop offset="1" stop-color="#00EAEA"/>
</linearGradient>
<linearGradient id="paint9_linear" x1="19.9177" y1="8.5327" x2="43.2059" y2="33.6218" gradientUnits="userSpaceOnUse">
<stop stop-color="#C6EE27"/>
<stop offset="1" stop-color="#28F7F7"/>
</linearGradient>
<linearGradient id="paint10_linear" x1="16.7389" y1="3.32376" x2="27.9683" y2="22.6125" gradientUnits="userSpaceOnUse">
<stop stop-color="#BCEB00"/>
<stop offset="1" stop-color="#00EAEA"/>
</linearGradient>
<linearGradient id="paint11_linear" x1="12.8491" y1="21.0415" x2="16.6252" y2="21.4952" gradientUnits="userSpaceOnUse">
<stop stop-color="#BCEB00"/>
<stop offset="1" stop-color="#00EAEA"/>
</linearGradient>
<clipPath id="clip0">
<rect width="76" height="76" fill="white"/>
</clipPath>
</defs>
</svg>
