<svg width="29" height="21" viewBox="0 0 29 21" fill="none" xmlns="http://www.w3.org/2000/svg">
<path d="M28.222 9.86506C26.9405 4.14518 25.0119 1.09227 22.151 0.258355C21.5496 0.0842047 20.9258 -0.0027989 20.2991 6.8632e-05C19.4707 6.8632e-05 18.7493 0.199301 17.9862 0.410463C17.0666 0.665171 16.0219 0.954475 14.4988 0.954475C12.9756 0.954475 11.9303 0.665767 11.0089 0.41106C10.2452 0.199301 9.52437 6.8632e-05 8.69842 6.8632e-05C8.05037 -0.00214982 7.40515 0.0845767 6.78129 0.257758C3.9355 1.08809 2.0081 4.13981 0.707858 9.86148C-0.690264 16.0186 -0.00207874 19.906 2.63768 20.8079C2.99952 20.9338 3.38024 20.9988 3.76391 21C5.57228 21 7.02237 19.5129 8.01326 18.2955C9.13284 16.9175 10.4434 16.2184 14.4988 16.2184C18.1209 16.2184 19.62 16.7034 20.9148 18.2955C21.7286 19.2964 22.4978 19.9967 23.2651 20.4375C24.2856 21.0233 25.3055 21.1533 26.2958 20.8175C27.8558 20.292 28.7501 18.9027 28.9543 16.6873C29.1096 14.9884 28.8703 12.7569 28.222 9.86506ZM11.5986 9.54414H9.66514V11.4529C9.66514 11.7061 9.56329 11.9488 9.382 12.1278C9.2007 12.3068 8.95481 12.4074 8.69842 12.4074C8.44203 12.4074 8.19614 12.3068 8.01485 12.1278C7.83355 11.9488 7.7317 11.7061 7.7317 11.4529V9.54414H5.79826C5.54186 9.54414 5.29598 9.44358 5.11468 9.2646C4.93338 9.08561 4.83153 8.84285 4.83153 8.58973C4.83153 8.33661 4.93338 8.09385 5.11468 7.91486C5.29598 7.73588 5.54186 7.63532 5.79826 7.63532H7.7317V5.72651C7.7317 5.47338 7.83355 5.23063 8.01485 5.05164C8.19614 4.87266 8.44203 4.7721 8.69842 4.7721C8.95481 4.7721 9.2007 4.87266 9.382 5.05164C9.56329 5.23063 9.66514 5.47338 9.66514 5.72651V7.63532H11.5986C11.855 7.63532 12.1009 7.73588 12.2822 7.91486C12.4635 8.09385 12.5653 8.33661 12.5653 8.58973C12.5653 8.84285 12.4635 9.08561 12.2822 9.2646C12.1009 9.44358 11.855 9.54414 11.5986 9.54414ZM16.6739 9.78274C16.4349 9.78274 16.2012 9.71277 16.0025 9.58168C15.8038 9.45059 15.6489 9.26427 15.5575 9.04627C15.466 8.82828 15.4421 8.58841 15.4887 8.35699C15.5353 8.12556 15.6504 7.91299 15.8194 7.74615C15.9884 7.5793 16.2037 7.46568 16.4381 7.41964C16.6725 7.37361 16.9155 7.39724 17.1363 7.48753C17.3571 7.57783 17.5459 7.73074 17.6786 7.92693C17.8114 8.12312 17.8823 8.35378 17.8823 8.58973C17.8823 8.90613 17.755 9.20958 17.5284 9.43331C17.3017 9.65705 16.9944 9.78274 16.6739 9.78274ZM19.3324 12.4074C19.0932 12.4074 18.8595 12.3373 18.6607 12.2061C18.4619 12.0749 18.307 11.8884 18.2157 11.6702C18.1243 11.452 18.1005 11.212 18.1474 10.9805C18.1943 10.749 18.3097 10.5364 18.479 10.3697C18.6483 10.203 18.8639 10.0896 19.0985 10.0439C19.3331 9.99821 19.5761 10.0223 19.7969 10.113C20.0177 10.2038 20.2062 10.3571 20.3386 10.5537C20.471 10.7503 20.5414 10.9812 20.5408 11.2173C20.54 11.5332 20.4123 11.8359 20.1858 12.059C19.9592 12.2821 19.6523 12.4074 19.3324 12.4074ZM19.3324 7.15812C19.0934 7.15812 18.8597 7.08815 18.661 6.95706C18.4623 6.82597 18.3074 6.63965 18.2159 6.42166C18.1245 6.20366 18.1006 5.96379 18.1472 5.73237C18.1938 5.50095 18.3089 5.28837 18.4779 5.12153C18.6469 4.95468 18.8622 4.84106 19.0966 4.79503C19.331 4.74899 19.574 4.77262 19.7948 4.86292C20.0156 4.95321 20.2043 5.10612 20.3371 5.30231C20.4699 5.4985 20.5408 5.72916 20.5408 5.96511C20.5408 6.28152 20.4135 6.58496 20.1868 6.8087C19.9602 7.03243 19.6529 7.15812 19.3324 7.15812ZM21.9909 9.78274C21.7519 9.78274 21.5182 9.71277 21.3195 9.58168C21.1208 9.45059 20.9659 9.26427 20.8744 9.04627C20.783 8.82828 20.759 8.58841 20.8057 8.35699C20.8523 8.12556 20.9674 7.91299 21.1364 7.74615C21.3054 7.5793 21.5207 7.46568 21.7551 7.41964C21.9895 7.37361 22.2325 7.39724 22.4533 7.48753C22.6741 7.57783 22.8628 7.73074 22.9956 7.92693C23.1284 8.12312 23.1993 8.35378 23.1993 8.58973C23.1993 8.90613 23.0719 9.20958 22.8453 9.43331C22.6187 9.65705 22.3113 9.78274 21.9909 9.78274Z" fill="white"/>
</svg>
