<svg width="16" height="15" viewBox="0 0 16 15" fill="none" xmlns="http://www.w3.org/2000/svg">
<path d="M14.3164 8.65234C13.168 8.65234 12.6758 9.52734 12.0742 9.52734C10.4336 9.52734 11.9375 4.6875 11.9375 4.6875C11.9375 4.6875 6.55078 6.875 6.55078 4.60547C6.55078 3.62109 7.5625 3.34766 7.5625 2.25391C7.5625 1.29688 6.76953 0.75 5.86719 0.75C4.91016 0.75 4.0625 1.26953 4.0625 2.30859C4.0625 3.42969 4.91016 3.92188 4.91016 4.55078C4.91016 6.4375 0.125 5.31641 0.125 5.31641V14.4219C0.125 14.4219 4.99219 15.5703 4.99219 13.6562C4.99219 13.0273 3.89844 12.5625 3.89844 11.4141C3.89844 10.4023 4.69141 9.88281 5.64844 9.88281C6.55078 9.88281 7.34375 10.4023 7.34375 11.3867C7.34375 12.4531 6.33203 12.7539 6.33203 13.7383C6.33203 15.4062 9.88672 14.4219 11.2812 14.4219C11.2812 14.4219 10.3516 11.1406 11.9922 11.1406C12.9766 11.1406 13.2773 12.125 14.3711 12.125C15.3281 12.125 15.875 11.3594 15.875 10.457C15.875 9.52734 15.3555 8.65234 14.3164 8.65234Z" fill="black"/>
</svg>
