<svg width="18" height="16" viewBox="0 0 18 16" fill="none" xmlns="http://www.w3.org/2000/svg">
<path d="M16.5156 9.4375L17.9844 2.9375C18.0781 2.46875 17.7344 2 17.2344 2H4.98438L4.70312 0.625C4.60938 0.28125 4.29688 0 3.95312 0H0.765625C0.328125 0 0.015625 0.34375 0.015625 0.75V1.25C0.015625 1.6875 0.328125 2 0.765625 2H2.92188L5.14062 12.75C4.60938 13.0625 4.26562 13.625 4.26562 14.25C4.26562 15.2188 5.04688 16 6.01562 16C6.95312 16 7.76562 15.2188 7.76562 14.25C7.76562 13.7812 7.54688 13.3438 7.23438 13H13.7656C13.4531 13.3438 13.2656 13.7812 13.2656 14.25C13.2656 15.2188 14.0469 16 15.0156 16C15.9531 16 16.7656 15.2188 16.7656 14.25C16.7656 13.5625 16.3594 12.9688 15.7656 12.6875L15.9219 11.9375C16.0469 11.4688 15.6719 11 15.2031 11H6.82812L6.60938 10H15.7656C16.1094 10 16.4219 9.78125 16.5156 9.4375Z" fill="#4ED04B"/>
</svg>
