<svg width="16" height="15" viewBox="0 0 16 15" fill="none" xmlns="http://www.w3.org/2000/svg">
<path d="M13.3867 0.75H11.1992L13.0859 5.125H15.875L13.3867 0.75ZM9.88672 0.75H6.08594L4.19922 5.125H11.7734L9.88672 0.75ZM2.58594 0.75L0.125 5.125H2.88672L4.77344 0.75H2.58594ZM0.125 6L6.08594 12.9727C6.16797 13.0547 6.27734 12.9727 6.22266 12.8906L2.85938 6H0.125ZM4.17188 6L7.91797 14.7227C7.94531 14.7773 8.02734 14.7773 8.05469 14.7227L11.8008 6H4.17188ZM9.75 12.8906C9.69531 12.9727 9.83203 13.0547 9.88672 12.9727L15.875 6H13.1133L9.75 12.8906Z" fill="black"/>
</svg>
