<svg width="20" height="20" viewBox="0 0 20 20" fill="none" xmlns="http://www.w3.org/2000/svg">
<path d="M2 4.60022H18.2" stroke="#FF4949" stroke-linejoin="round"/>
<path d="M6.49997 4.6V2.8C6.49997 2.32261 6.68962 1.86477 7.02718 1.52721C7.36475 1.18964 7.82258 1 8.29997 1H11.9C12.3774 1 12.8352 1.18964 13.1728 1.52721C13.5103 1.86477 13.7 2.32261 13.7 2.8V4.6M16.4 4.6V17.2C16.4 17.6774 16.2103 18.1352 15.8728 18.4728C15.5352 18.8104 15.0774 19 14.6 19H5.59997C5.12258 19 4.66475 18.8104 4.32718 18.4728C3.98961 18.1352 3.79997 17.6774 3.79997 17.2V4.6H16.4Z" stroke="#FF4949" stroke-linejoin="round"/>
<path d="M8.29997 9.10022V14.5002" stroke="#FF4949" stroke-linejoin="round"/>
<path d="M11.9001 9.10022V14.5002" stroke="#FF4949" stroke-linejoin="round"/>
</svg>
