<svg width="17" height="20" viewBox="0 0 17 20" fill="none" xmlns="http://www.w3.org/2000/svg">
<path d="M0 4.60022H16.2" stroke="#FF4949" stroke-linejoin="round"/>
<path d="M4.4998 4.6V2.8C4.4998 2.32261 4.68945 1.86477 5.02701 1.52721C5.36458 1.18964 5.82241 1 6.2998 1H9.8998C10.3772 1 10.835 1.18964 11.1726 1.52721C11.5102 1.86477 11.6998 2.32261 11.6998 2.8V4.6M14.3998 4.6V17.2C14.3998 17.6774 14.2102 18.1352 13.8726 18.4728C13.535 18.8104 13.0772 19 12.5998 19H3.5998C3.12241 19 2.66458 18.8104 2.32701 18.4728C1.98945 18.1352 1.7998 17.6774 1.7998 17.2V4.6H14.3998Z" stroke="#FF4949" stroke-linejoin="round"/>
<path d="M6.2998 9.10022V14.5002" stroke="#FF4949" stroke-linejoin="round"/>
<path d="M9.8999 9.10022V14.5002" stroke="#FF4949" stroke-linejoin="round"/>
</svg>
