<svg width="16" height="16" viewBox="0 0 16 16" fill="none" xmlns="http://www.w3.org/2000/svg">
<path fill-rule="evenodd" clip-rule="evenodd" d="M7.66667 1.75C6.46035 1.75 5.75 2.52474 5.75 3.18182V3.25H10.25V3.18182C10.25 2.52474 9.53965 1.75 8.33333 1.75H7.66667ZM11.75 3.25V3.18182C11.75 1.42892 10.0726 0.25 8.33333 0.25H7.66667C5.92738 0.25 4.25 1.42892 4.25 3.18182V3.25H3.00904C3.00359 3.24994 2.99813 3.24994 2.99266 3.25H1C0.585786 3.25 0.25 3.58579 0.25 4C0.25 4.41421 0.585786 4.75 1 4.75H2.31213L3.05389 13.3174C3.17282 14.691 4.31889 15.75 5.6987 15.75H10.3013C11.6811 15.75 12.8272 14.691 12.9461 13.3174L12.9461 13.3174L13.6879 4.75H15C15.4142 4.75 15.75 4.41421 15.75 4C15.75 3.58579 15.4142 3.25 15 3.25H13.0073C13.0019 3.24994 12.9964 3.24994 12.991 3.25H11.75ZM11 4.75H5H3.81774L4.5483 13.188C4.60055 13.7916 5.10248 14.25 5.6987 14.25H10.3013C10.8975 14.25 11.3994 13.7916 11.4516 13.1881L11.4517 13.188L12.1823 4.75H11ZM6.5 7.25C6.91421 7.25 7.25 7.58579 7.25 8V11C7.25 11.4142 6.91421 11.75 6.5 11.75C6.08579 11.75 5.75 11.4142 5.75 11V8C5.75 7.58579 6.08579 7.25 6.5 7.25ZM10.25 8C10.25 7.58579 9.91421 7.25 9.5 7.25C9.08579 7.25 8.75 7.58579 8.75 8V11C8.75 11.4142 9.08579 11.75 9.5 11.75C9.91421 11.75 10.25 11.4142 10.25 11V8Z" fill="currentColor"/>
</svg>
