<svg width="14" height="14" viewBox="0 0 14 14" fill="none" xmlns="http://www.w3.org/2000/svg">
<path d="M1 1L1 0.5L0.500002 0.5L0.500002 1L1 1ZM13.5 3L14 3L14 2.5L13.5 2.5L13.5 3ZM13.5 11L13.5 11.5L14 11.5L14 11L13.5 11ZM9 3L9 3.5L9 3ZM1.5 14L1.5 1L0.500002 1L0.5 14L1.5 14ZM1 1.5L7 1.5L7 0.5L1 0.5L1 1.5ZM9 3.5L13.5 3.5L13.5 2.5L9 2.5L9 3.5ZM13 3L13 11L14 11L14 3L13 3ZM13.5 10.5L9 10.5L9 11.5L13.5 11.5L13.5 10.5ZM7 8.5L2.5 8.5L2.5 9.5L7 9.5L7 8.5ZM9 10.5C8.72386 10.5 8.5 10.2761 8.5 10L7.5 10C7.5 10.8284 8.17158 11.5 9 11.5L9 10.5ZM7.5 2C7.5 2.82843 8.17157 3.5 9 3.5L9 2.5C8.72386 2.5 8.5 2.27614 8.5 2L7.5 2ZM8.5 10C8.5 9.17157 7.82843 8.5 7 8.5L7 9.5C7.27614 9.5 7.5 9.72386 7.5 10L8.5 10ZM7 1.5C7.27614 1.5 7.5 1.72386 7.5 2L8.5 2C8.5 1.17157 7.82843 0.5 7 0.5L7 1.5Z" fill="#FF4949"/>
</svg>
