<svg width="42" height="42" viewBox="0 0 42 42" fill="none" xmlns="http://www.w3.org/2000/svg">
<rect width="42" height="42" rx="21" fill="#6FDD6C"/>
<path d="M26.6311 22.4937L28.0081 16.3999C28.0667 16.1851 28.0276 15.9897 27.8909 15.814C27.7542 15.6382 27.5686 15.5503 27.3342 15.5503H15.8206L15.5569 14.2319C15.5178 14.0757 15.4299 13.9487 15.2932 13.8511C15.176 13.7339 15.0393 13.6753 14.8831 13.6753H11.8655C11.6702 13.6753 11.5042 13.7437 11.3674 13.8804C11.2307 14.0171 11.1624 14.1831 11.1624 14.3784V14.8472C11.1624 15.0425 11.2307 15.2085 11.3674 15.3452C11.5042 15.4819 11.6702 15.5503 11.8655 15.5503H13.9163L15.967 25.5991C15.7131 25.7554 15.5081 25.9604 15.3518 26.2144C15.2151 26.4683 15.1467 26.7417 15.1467 27.0347C15.1467 27.4839 15.303 27.8647 15.6155 28.1772C15.9475 28.5093 16.3381 28.6753 16.7874 28.6753C17.2366 28.6753 17.6174 28.5093 17.9299 28.1772C18.262 27.8647 18.428 27.4741 18.428 27.0054C18.428 26.5562 18.262 26.1753 17.9299 25.8628H24.0823C23.7502 26.1753 23.5842 26.5562 23.5842 27.0054C23.5842 27.4741 23.7405 27.8647 24.053 28.1772C24.385 28.5093 24.7756 28.6753 25.2249 28.6753C25.6741 28.6753 26.0549 28.5093 26.3674 28.1772C26.6995 27.8647 26.8655 27.4839 26.8655 27.0347C26.8655 26.7222 26.7776 26.439 26.6018 26.1851C26.4456 25.9116 26.2209 25.7065 25.928 25.5698L26.1038 24.8374C26.1428 24.6226 26.094 24.4272 25.9573 24.2515C25.8206 24.0757 25.6448 23.9878 25.4299 23.9878H17.5491L17.3733 23.0503H25.9573C26.1135 23.0503 26.2502 23.0015 26.3674 22.9038C26.5042 22.8062 26.592 22.6694 26.6311 22.4937Z" fill="white"/>
</svg>
