<svg width="16" height="16" viewBox="0 0 16 16" fill="none" xmlns="http://www.w3.org/2000/svg">
<path d="M13 0.5H3C2.33696 0.5 1.70107 0.763392 1.23223 1.23223C0.763392 1.70107 0.5 2.33696 0.5 3V13C0.5 13.663 0.763392 14.2989 1.23223 14.7678C1.70107 15.2366 2.33696 15.5 3 15.5H13C13.663 15.5 14.2989 15.2366 14.7678 14.7678C15.2366 14.2989 15.5 13.663 15.5 13V3C15.5 2.33696 15.2366 1.70107 14.7678 1.23223C14.2989 0.763392 13.663 0.5 13 0.5ZM3 2.16667H13C13.221 2.16667 13.433 2.25446 13.5893 2.41074C13.7455 2.56702 13.8333 2.77899 13.8333 3V9.96667L11.1667 7.69167C10.7535 7.3517 10.2351 7.16583 9.7 7.16583C9.16494 7.16583 8.6465 7.3517 8.23333 7.69167L2.16667 12.75V3C2.16667 2.77899 2.25446 2.56702 2.41074 2.41074C2.56702 2.25446 2.77899 2.16667 3 2.16667Z" fill="black"/>
<path d="M4.66675 6.33325C5.3571 6.33325 5.91675 5.77361 5.91675 5.08325C5.91675 4.3929 5.3571 3.83325 4.66675 3.83325C3.97639 3.83325 3.41675 4.3929 3.41675 5.08325C3.41675 5.77361 3.97639 6.33325 4.66675 6.33325Z" fill="black"/>
</svg>
