<svg width="20" height="20" viewBox="0 0 20 20" fill="none" xmlns="http://www.w3.org/2000/svg">
<path d="M18.0948 8.73277L16.2337 8.17721C16.105 7.72794 15.9281 7.29393 15.7059 6.88277L16.6171 5.17721C16.6512 5.11283 16.6638 5.03915 16.6528 4.96709C16.6417 4.89503 16.6078 4.82845 16.5559 4.77721L15.2282 3.44388C15.1769 3.39203 15.1103 3.35808 15.0383 3.34707C14.9662 3.33606 14.8925 3.34858 14.8282 3.38277L13.1337 4.28832C12.7185 4.05536 12.2788 3.86904 11.8226 3.73277L11.2671 1.89388C11.2436 1.82611 11.1992 1.76754 11.1403 1.72661C11.0814 1.68568 11.011 1.66449 10.9393 1.6661H9.0615C8.98936 1.66644 8.9192 1.68979 8.86125 1.73275C8.8033 1.77572 8.76057 1.83606 8.73928 1.90499L8.18372 3.73832C7.72373 3.87387 7.28026 4.0602 6.8615 4.29388L5.19483 3.39388C5.13046 3.35969 5.05677 3.34717 4.98471 3.35818C4.91266 3.36919 4.84607 3.40314 4.79483 3.45499L3.44483 4.77166C3.39298 4.82289 3.35904 4.88948 3.34803 4.96153C3.33702 5.03359 3.34954 5.10728 3.38372 5.17166L4.28372 6.83832C4.05042 7.25532 3.8641 7.69691 3.72817 8.15499L1.88928 8.71055C1.82035 8.73183 1.76001 8.77456 1.71704 8.83252C1.67408 8.89047 1.65073 8.96063 1.65039 9.03277V10.9105C1.65073 10.9827 1.67408 11.0528 1.71704 11.1108C1.76001 11.1688 1.82035 11.2115 1.88928 11.2328L3.73928 11.7883C3.87669 12.2388 4.06299 12.6728 4.29484 13.0828L3.38372 14.8272C3.34954 14.8916 3.33702 14.9653 3.34803 15.0373C3.35904 15.1094 3.39298 15.176 3.44483 15.2272L4.77261 16.555C4.82385 16.6068 4.89043 16.6408 4.96249 16.6518C5.03455 16.6628 5.10823 16.6503 5.17261 16.6161L6.88928 15.6994C7.29537 15.9186 7.72373 16.0936 8.16706 16.2217L8.72261 18.0939C8.7439 18.1628 8.78663 18.2232 8.84458 18.2661C8.90254 18.3091 8.97269 18.3324 9.04484 18.3328H10.9226C10.9948 18.3324 11.0649 18.3091 11.1229 18.2661C11.1808 18.2232 11.2235 18.1628 11.2448 18.0939L11.8004 16.2161C12.2399 16.0874 12.6645 15.9124 13.0671 15.6939L14.7948 16.6161C14.8592 16.6503 14.9329 16.6628 15.005 16.6518C15.077 16.6408 15.1436 16.6068 15.1948 16.555L16.5226 15.2272C16.5745 15.176 16.6084 15.1094 16.6194 15.0373C16.6304 14.9653 16.6179 14.8916 16.5837 14.8272L15.6615 13.105C15.8823 12.7009 16.0592 12.2744 16.1893 11.8328L18.0615 11.2772C18.1304 11.2559 18.1908 11.2132 18.2337 11.1552C18.2767 11.0973 18.3001 11.0271 18.3004 10.955V9.06055C18.3037 8.99146 18.2857 8.92303 18.249 8.86444C18.2122 8.80585 18.1584 8.7599 18.0948 8.73277ZM10.0004 13.055C9.39606 13.055 8.8053 12.8758 8.30281 12.54C7.80033 12.2043 7.40869 11.7271 7.17743 11.1687C6.94616 10.6104 6.88565 9.99605 7.00355 9.40333C7.12145 8.81061 7.41246 8.26616 7.83979 7.83883C8.26711 7.4115 8.81156 7.12049 9.40428 7.00259C9.997 6.88469 10.6114 6.9452 11.1697 7.17647C11.728 7.40774 12.2052 7.79938 12.541 8.30186C12.8767 8.80434 13.0559 9.3951 13.0559 9.99944C13.0559 10.8098 12.734 11.587 12.161 12.16C11.588 12.7331 10.8108 13.055 10.0004 13.055Z" fill="white"/>
</svg>
