<svg width="18" height="18" viewBox="0 0 18 18" fill="none" xmlns="http://www.w3.org/2000/svg">
<path d="M17.0948 7.73277L15.2337 7.17721C15.105 6.72794 14.9281 6.29393 14.7059 5.88277L15.6171 4.17721C15.6512 4.11283 15.6638 4.03915 15.6528 3.96709C15.6417 3.89503 15.6078 3.82845 15.5559 3.77721L14.2282 2.44388C14.1769 2.39203 14.1103 2.35808 14.0383 2.34707C13.9662 2.33606 13.8925 2.34858 13.8282 2.38277L12.1337 3.28832C11.7185 3.05536 11.2788 2.86904 10.8226 2.73277L10.2671 0.893879C10.2436 0.82611 10.1992 0.767545 10.1403 0.726613C10.0814 0.685681 10.011 0.664494 9.93928 0.666101H8.0615C7.98936 0.666437 7.9192 0.689787 7.86125 0.732752C7.8033 0.775718 7.76057 0.836058 7.73928 0.90499L7.18372 2.73832C6.72373 2.87387 6.28026 3.0602 5.8615 3.29388L4.19483 2.39388C4.13046 2.35969 4.05677 2.34717 3.98471 2.35818C3.91266 2.36919 3.84607 2.40314 3.79483 2.45499L2.44483 3.77166C2.39298 3.82289 2.35904 3.88948 2.34803 3.96153C2.33702 4.03359 2.34954 4.10728 2.38372 4.17166L3.28372 5.83832C3.05042 6.25532 2.8641 6.69691 2.72817 7.15499L0.88928 7.71055C0.820348 7.73183 0.760008 7.77456 0.717042 7.83252C0.674076 7.89047 0.650726 7.96063 0.650391 8.03277V9.91055C0.650726 9.98269 0.674076 10.0528 0.717042 10.1108C0.760008 10.1688 0.820348 10.2115 0.88928 10.2328L2.73928 10.7883C2.87669 11.2388 3.06299 11.6728 3.29484 12.0828L2.38372 13.8272C2.34954 13.8916 2.33702 13.9653 2.34803 14.0373C2.35904 14.1094 2.39298 14.176 2.44483 14.2272L3.77261 15.555C3.82385 15.6068 3.89043 15.6408 3.96249 15.6518C4.03455 15.6628 4.10823 15.6503 4.17261 15.6161L5.88928 14.6994C6.29537 14.9186 6.72373 15.0936 7.16706 15.2217L7.72261 17.0939C7.7439 17.1628 7.78663 17.2232 7.84458 17.2661C7.90254 17.3091 7.97269 17.3324 8.04484 17.3328H9.92261C9.99476 17.3324 10.0649 17.3091 10.1229 17.2661C10.1808 17.2232 10.2235 17.1628 10.2448 17.0939L10.8004 15.2161C11.2399 15.0874 11.6645 14.9124 12.0671 14.6939L13.7948 15.6161C13.8592 15.6503 13.9329 15.6628 14.005 15.6518C14.077 15.6408 14.1436 15.6068 14.1948 15.555L15.5226 14.2272C15.5745 14.176 15.6084 14.1094 15.6194 14.0373C15.6304 13.9653 15.6179 13.8916 15.5837 13.8272L14.6615 12.105C14.8823 11.7009 15.0592 11.2744 15.1893 10.8328L17.0615 10.2772C17.1304 10.2559 17.1908 10.2132 17.2337 10.1552C17.2767 10.0973 17.3001 10.0271 17.3004 9.95499V8.06055C17.3037 7.99146 17.2857 7.92303 17.249 7.86444C17.2122 7.80585 17.1584 7.7599 17.0948 7.73277ZM9.00039 12.055C8.39606 12.055 7.8053 11.8758 7.30281 11.54C6.80033 11.2043 6.40869 10.7271 6.17743 10.1687C5.94616 9.61042 5.88565 8.99605 6.00355 8.40333C6.12145 7.81061 6.41246 7.26616 6.83979 6.83883C7.26711 6.4115 7.81156 6.12049 8.40428 6.00259C8.997 5.88469 9.61137 5.9452 10.1697 6.17647C10.728 6.40774 11.2052 6.79938 11.541 7.30186C11.8767 7.80434 12.0559 8.3951 12.0559 8.99944C12.0559 9.80982 11.734 10.587 11.161 11.16C10.588 11.7331 9.81077 12.055 9.00039 12.055Z" fill="black"/>
</svg>
