<svg width="17" height="14" viewBox="0 0 17 14" fill="none" xmlns="http://www.w3.org/2000/svg">
<path d="M8.00021 4.54059L8.0496 5.03815L8.50021 4.99342V4.54059H8.00021ZM8.00021 9.4999H8.50021V9.04641L8.04887 9.00228L8.00021 9.4999ZM8.67717 13.125L8.36482 12.7346L8.67717 13.125ZM0.503947 12.5812L1.00373 12.5961L0.503947 12.5812ZM0.653445 12.6337L0.261576 12.3232L0.653445 12.6337ZM15.9268 7.32526L16.2392 7.7157L15.9268 7.32526ZM15.9268 6.67454L16.2392 6.28411L15.9268 6.67454ZM8.67717 0.874802L8.36482 1.26524L8.67717 0.874802ZM7.50021 1.20016V4.54059H8.50021V1.20016H7.50021ZM7.95082 4.04304C3.57337 4.47755 0.136624 8.10679 0.00416765 12.5664L1.00373 12.5961C1.12116 8.64237 4.16897 5.42334 8.0496 5.03815L7.95082 4.04304ZM1.04531 12.9443C2.6606 10.906 5.24757 9.7331 7.95155 9.99753L8.04887 9.00228C4.99487 8.70362 2.08041 10.0281 0.261576 12.3232L1.04531 12.9443ZM7.50021 9.4999V12.7996H8.50021V9.4999H7.50021ZM8.98951 13.5154L16.2392 7.7157L15.6145 6.93483L8.36482 12.7346L8.98951 13.5154ZM16.2392 6.28411L8.98951 0.484367L8.36482 1.26524L15.6145 7.06498L16.2392 6.28411ZM7.50021 12.7996C7.50021 13.5683 8.38931 13.9956 8.98951 13.5154L8.36482 12.7346C8.37415 12.7271 8.39072 12.7193 8.41044 12.7175C8.428 12.7159 8.44233 12.7194 8.45298 12.7245C8.46362 12.7296 8.47535 12.7386 8.48505 12.7533C8.49596 12.7699 8.50021 12.7877 8.50021 12.7996H7.50021ZM0.00416765 12.5664C-0.013401 13.1579 0.715432 13.3605 1.04531 12.9443L0.261576 12.3232C0.491786 12.0327 1.01653 12.165 1.00373 12.5961L0.00416765 12.5664ZM16.2392 7.7157C16.6979 7.34873 16.6979 6.65107 16.2392 6.28411L15.6145 7.06498C15.5728 7.03161 15.5728 6.96819 15.6145 6.93483L16.2392 7.7157ZM8.50021 1.20016C8.50021 1.21211 8.49596 1.22993 8.48505 1.24646C8.47535 1.26118 8.46362 1.27016 8.45298 1.27527C8.44233 1.28039 8.428 1.28394 8.41044 1.28232C8.39072 1.28051 8.37415 1.2727 8.36482 1.26524L8.98951 0.484367C8.38932 0.00420874 7.50021 0.431531 7.50021 1.20016H8.50021Z" fill="#272727"/>
</svg>
