<svg width="20" height="20" viewBox="0 0 20 20" fill="none" xmlns="http://www.w3.org/2000/svg">
<path d="M9.99997 7.54108L10.0494 8.03864L10.5 7.99391V7.54108H9.99997ZM9.99997 12.5004H10.5V12.0469L10.0486 12.0028L9.99997 12.5004ZM10.6769 16.1255L10.3646 15.7351L10.6769 16.1255ZM2.5037 15.5817L2.00392 15.5669L2.5037 15.5817ZM2.6532 15.6342L3.04507 15.9448L2.6532 15.6342ZM10.6769 3.87529L10.9978 3.49167L10.9893 3.48486L10.6769 3.87529ZM17.5426 9.61795L17.8634 9.23442L17.5426 9.61795ZM9.49997 4.20065V7.54108H10.5V4.20065H9.49997ZM9.95058 7.04353C5.57312 7.47804 2.13638 11.1073 2.00392 15.5669L3.00348 15.5965C3.12091 11.6429 6.16873 8.42383 10.0494 8.03864L9.95058 7.04353ZM3.04507 15.9448C4.66036 13.9065 7.24733 12.7336 9.9513 12.998L10.0486 12.0028C6.99463 11.7041 4.08016 13.0286 2.26133 15.3237L3.04507 15.9448ZM9.49997 12.5004V15.8001H10.5V12.5004H9.49997ZM17.8634 9.23442L10.9977 3.49176L10.3561 4.25882L17.2219 10.0015L17.8634 9.23442ZM9.49997 15.8001C9.49997 16.5688 10.3891 16.9961 10.9893 16.5159L10.3646 15.7351C10.3739 15.7276 10.3905 15.7198 10.4102 15.718C10.4278 15.7164 10.4421 15.7199 10.4527 15.725C10.4634 15.7301 10.4751 15.7391 10.4848 15.7538C10.4957 15.7704 10.5 15.7882 10.5 15.8001H9.49997ZM2.00392 15.5669C1.98636 16.1583 2.71518 16.361 3.04507 15.9448L2.26133 15.3237C2.49155 15.0332 3.01629 15.1655 3.00348 15.5965L2.00392 15.5669ZM10.5 4.20065C10.5 4.2126 10.4957 4.23042 10.4848 4.24695C10.4751 4.26167 10.4634 4.27065 10.4527 4.27576C10.4421 4.28088 10.4278 4.28443 10.4102 4.28281C10.3905 4.281 10.3739 4.27319 10.3646 4.26572L10.9893 3.48486C10.3891 3.0047 9.49997 3.43202 9.49997 4.20065H10.5ZM10.9893 16.5159C11.6502 15.9872 16.3741 12.0198 17.8668 10.7656L17.2234 10C15.7216 11.262 11.0131 15.2163 10.3646 15.7351L10.9893 16.5159ZM17.2219 10.0015C17.2235 10.0028 17.2231 10.0029 17.2227 10.002C17.2225 10.0015 17.2226 10.0016 17.2226 10.0021C17.2226 10.0027 17.2225 10.0023 17.223 10.0012C17.2233 10.0006 17.2236 10.0001 17.2239 9.99963C17.2243 9.99915 17.2243 9.9993 17.2234 10L17.8668 10.7656C18.3452 10.3636 18.3383 9.63164 17.8634 9.23442L17.2219 10.0015Z" fill="#272727"/>
</svg>
