<svg width="16" height="15" viewBox="0 0 16 15" fill="none" xmlns="http://www.w3.org/2000/svg">
<path opacity="0.2" d="M15.875 1.40625C15.875 1.05078 15.5742 0.75 15.2188 0.75H11.7188C11.1172 0.75 10.8164 1.46094 11.2539 1.87109L12.2109 2.85547L5.56641 9.52734C5.29297 9.77344 5.29297 10.1836 5.56641 10.457L6.16797 11.0586C6.44141 11.332 6.85156 11.332 7.09766 11.0586L13.7695 4.41406L14.7539 5.37109C15.1641 5.78125 15.875 5.50781 15.875 4.90625V1.40625ZM11.2539 8.16016L10.8164 8.59766C10.707 8.70703 10.625 8.92578 10.625 9.0625V13H1.875V4.25H9.09375C9.23047 4.25 9.44922 4.16797 9.53125 4.05859L9.96875 3.62109C10.4062 3.21094 10.1055 2.5 9.53125 2.5H1.4375C0.699219 2.5 0.125 3.10156 0.125 3.8125V13.4375C0.125 14.1758 0.699219 14.75 1.4375 14.75H11.0625C11.7734 14.75 12.375 14.1758 12.375 13.4375V8.625C12.375 8.05078 11.6641 7.75 11.2539 8.16016Z" fill="black"/>
</svg>
