<svg width="42" height="42" viewBox="0 0 42 42" fill="none" xmlns="http://www.w3.org/2000/svg">
<path d="M21 18.5406L21.0494 19.0381L21.5 18.9934V18.5406H21ZM21 23.4999H21.5V23.0464L21.0486 23.0023L21 23.4999ZM21.6769 27.125L21.3646 26.7346L21.6769 27.125ZM13.5037 26.5812L14.0035 26.5961L13.5037 26.5812ZM13.6532 26.6337L13.2613 26.3232L13.6532 26.6337ZM28.9266 21.3253L29.2389 21.7157L28.9266 21.3253ZM28.9266 20.6745L29.2389 20.2841L28.9266 20.6745ZM21.6769 14.8748L21.3646 15.2652L21.6769 14.8748ZM20.5 15.2002V18.5406H21.5V15.2002H20.5ZM20.9506 18.043C16.5731 18.4775 13.1364 22.1068 13.0039 26.5664L14.0035 26.5961C14.1209 22.6424 17.1687 19.4233 21.0494 19.0381L20.9506 18.043ZM14.0451 26.9443C15.6604 24.906 18.2473 23.7331 20.9513 23.9975L21.0486 23.0023C17.9946 22.7036 15.0802 24.0281 13.2613 26.3232L14.0451 26.9443ZM20.5 23.4999V26.7996H21.5V23.4999H20.5ZM21.9893 27.5154L29.2389 21.7157L28.6142 20.9348L21.3646 26.7346L21.9893 27.5154ZM29.2389 20.2841L21.9893 14.4844L21.3646 15.2652L28.6142 21.065L29.2389 20.2841ZM20.5 26.7996C20.5 27.5683 21.3891 27.9956 21.9893 27.5154L21.3646 26.7346C21.3739 26.7271 21.3905 26.7193 21.4102 26.7175C21.4278 26.7159 21.4421 26.7194 21.4527 26.7245C21.4634 26.7296 21.4751 26.7386 21.4848 26.7533C21.4957 26.7699 21.5 26.7877 21.5 26.7996H20.5ZM13.0039 26.5664C12.9864 27.1579 13.7152 27.3605 14.0451 26.9443L13.2613 26.3232C13.4915 26.0327 14.0163 26.165 14.0035 26.5961L13.0039 26.5664ZM29.2389 21.7157C29.6977 21.3487 29.6977 20.6511 29.2389 20.2841L28.6142 21.065C28.5725 21.0316 28.5725 20.9682 28.6142 20.9348L29.2389 21.7157ZM21.5 15.2002C21.5 15.2121 21.4957 15.2299 21.4848 15.2465C21.4751 15.2612 21.4634 15.2702 21.4527 15.2753C21.4421 15.2804 21.4278 15.2839 21.4102 15.2823C21.3905 15.2805 21.3739 15.2727 21.3646 15.2652L21.9893 14.4844C21.3891 14.0042 20.5 14.4315 20.5 15.2002H21.5Z" fill="black"/>
<rect x="0.5" y="0.5" width="41" height="41" rx="11.5" stroke="url(#paint0_linear)"/>
<defs>
<linearGradient id="paint0_linear" x1="5.58709" y1="7.49223" x2="34.695" y2="36.6001" gradientUnits="userSpaceOnUse">
<stop stop-color="#BCEB00"/>
<stop offset="1" stop-color="#00EAEA"/>
</linearGradient>
</defs>
</svg>
