<svg width="20" height="20" viewBox="0 0 20 20" fill="none" xmlns="http://www.w3.org/2000/svg">
<path d="M16.7129 10.2148C16.959 9.96875 16.959 9.55859 16.7129 9.28516L12.1191 4.69141C11.6816 4.28125 10.998 4.58203 10.998 5.15625V7.78125H7.2793C6.89648 7.78125 6.62305 8.08203 6.62305 8.4375V11.0625C6.62305 11.4453 6.89648 11.7188 7.2793 11.7188H10.998V14.3438C10.998 14.9453 11.709 15.2188 12.1191 14.8086L16.7129 10.2148ZM8.37305 14.6719V13.5781C8.37305 13.4141 8.20898 13.25 8.04492 13.25H5.74805C5.25586 13.25 4.87305 12.8672 4.87305 12.375V7.125C4.87305 6.66016 5.25586 6.25 5.74805 6.25H8.04492C8.20898 6.25 8.37305 6.11328 8.37305 5.92188V4.82812C8.37305 4.66406 8.20898 4.5 8.04492 4.5H5.74805C4.29883 4.5 3.12305 5.67578 3.12305 7.125V12.375C3.12305 13.8242 4.29883 15 5.74805 15H8.04492C8.20898 15 8.37305 14.8633 8.37305 14.6719Z" fill="#FF4949"/>
</svg>
