<svg width="20" height="20" viewBox="0 0 20 20" fill="none" xmlns="http://www.w3.org/2000/svg">
<path d="M15.0449 6.27734C14.4434 6.25 13.9512 6.76953 13.9512 7.37109V9.75H13.7324V4.9375C13.7324 4.33594 13.2129 3.81641 12.6113 3.84375C12.0098 3.84375 11.5449 4.33594 11.5449 4.91016V9.75H11.3262V3.87109C11.3262 3.26953 10.8066 2.75 10.2051 2.77734C9.60352 2.77734 9.13867 3.26953 9.13867 3.84375V9.75H8.91992V4.96484C8.91992 4.36328 8.40039 3.84375 7.79883 3.87109C7.19727 3.87109 6.73242 4.36328 6.73242 4.9375V11.3906L5.85742 10.2148C5.50195 9.72266 4.81836 9.61328 4.32617 9.96875C3.83398 10.3242 3.72461 11.0078 4.08008 11.5L7.52539 16.2305C7.74414 16.5312 8.20898 16.75 8.5918 16.75H13.9785C14.5801 16.75 15.127 16.3398 15.2637 15.7383L15.9746 12.6758C16.0566 12.3477 16.1113 11.8008 16.1113 11.4727V7.34375C16.1387 6.76953 15.6465 6.27734 15.0449 6.27734Z" fill="black"/>
</svg>
