<svg width="33" height="64" viewBox="0 0 33 64" fill="none" xmlns="http://www.w3.org/2000/svg">
<path d="M30.989 43.636L29.1494 43.4636V2.93604L30.989 3.10849V43.636Z" fill="#5C5C5C"/>
<path opacity="0.5" d="M1.64273 19.8655L28.5749 4.31557C28.891 4.14311 29.1497 4.28683 29.1497 4.66048V41.9688C29.1497 42.3425 28.891 42.7736 28.5749 42.9748L1.64273 58.5248C1.32656 58.6972 1.06787 58.5535 1.06787 58.1798V20.8715C1.06787 20.4978 1.32656 20.038 1.64273 19.8655Z" fill="white"/>
<path d="M24.2634 17.3937L17.2789 34.1221L12.68 30.4142C12.2776 30.0981 11.674 30.2418 11.4441 30.7017L1.06787 53.4373V56.5128C1.06787 56.8865 1.32656 57.0302 1.64273 56.8577L5.69548 54.5008L28.5461 41.3078C28.8623 41.1354 29.121 40.6755 29.121 40.3018V22.28L25.6431 17.25C25.2982 16.7326 24.5221 16.8188 24.2634 17.3937Z" fill="url(#paint0_linear)"/>
<path opacity="0.5" d="M24.2634 17.3937L17.2789 34.1221L12.68 30.4142C12.2776 30.0981 11.674 30.2418 11.4441 30.7017L1.06787 53.4373V56.5128C1.06787 56.8865 1.32656 57.0302 1.64273 56.8577L5.69548 54.5008L28.5461 41.3078C28.8623 41.1354 29.121 40.6755 29.121 40.3018V22.28L25.6431 17.25C25.2982 16.7326 24.5221 16.8188 24.2634 17.3937Z" fill="white"/>
<path d="M27.511 18.2287L25.384 17.0215V19.4359L27.511 18.2287Z" fill="url(#paint1_linear)"/>
<path opacity="0.5" d="M27.511 18.2287L25.384 17.0215V19.4359L27.511 18.2287Z" fill="white"/>
<path d="M14.7208 31.5641L12.5651 30.3281L12.5076 32.7425L14.7208 31.5641Z" fill="url(#paint2_linear)"/>
<path opacity="0.5" d="M14.7208 31.5641L12.5651 30.3281L12.5076 32.7425L14.7208 31.5641Z" fill="white"/>
<path d="M32.3685 2.2759C32.3685 2.24715 32.3685 2.21841 32.3685 2.21841C32.311 1.90224 32.081 1.55732 31.8223 1.38487L30.8163 0.810007C30.5002 0.63755 29.9828 0.63755 29.6666 0.810007L0.578765 17.5671C0.406307 17.6534 0.262592 17.8258 0.176363 17.9983C0.0613917 18.1707 0.00390625 18.3719 0.00390625 18.5731V62.1187C0.00390625 62.4924 0.262593 62.9235 0.578765 63.1247L1.58477 63.6996C1.8722 63.872 2.30334 63.872 2.59077 63.757C2.59077 63.757 2.61951 63.757 2.61951 63.7283C2.64826 63.7283 2.677 63.6996 2.70574 63.6708L15.4964 56.2839L31.7936 46.8849C32.1098 46.7125 32.3685 46.2526 32.3685 45.8789V2.36213C32.3685 2.33338 32.3685 2.30464 32.3685 2.2759ZM30.9888 41.74C30.9888 42.1136 30.7301 42.5448 30.4139 42.746L15.5538 51.3401L3.79797 58.0947C3.4818 58.2671 3.22312 58.1234 3.22312 57.7498V20.4414C3.22312 20.269 3.2806 20.0678 3.39557 19.8666C3.51054 19.6941 3.65426 19.5217 3.79797 19.4354L30.4139 4.0867C30.7301 3.91424 30.9888 4.05796 30.9888 4.43162V41.74Z" fill="#8E8E8E"/>
<path d="M15.5541 51.3097C15.5541 53.063 15.5254 54.7588 15.5254 56.3109L2.7348 63.6979C2.70605 63.7266 2.67731 63.7266 2.64857 63.7553C2.64857 63.7553 2.61982 63.7553 2.61982 63.7841C2.30365 63.8991 1.87251 63.8703 1.61382 63.7266L0.607818 63.1517C0.291645 62.9793 0.032959 62.5194 0.032959 62.1457V18.5714C0.032959 18.399 0.0904455 18.1978 0.205417 17.9966C0.837762 18.3702 1.55634 18.7726 2.36114 19.2325C2.70605 19.4337 3.07971 19.6349 3.45337 19.8649C3.3384 20.0373 3.28091 20.2385 3.28091 20.4397V57.7481C3.28091 58.1217 3.5396 58.2654 3.85577 58.093L15.5541 51.3097Z" fill="#5C5C5C"/>
<path d="M3.22363 20.4412V28.2881C4.11466 28.6042 5.23564 28.4605 6.47158 27.742C9.31713 26.1036 11.5878 22.1371 11.5878 18.8604C11.5878 17.337 11.0992 16.2448 10.2944 15.6699L3.79849 19.4065C3.48232 19.6364 3.22363 20.0676 3.22363 20.4412Z" fill="url(#paint3_linear)"/>
<path d="M26.4192 18.6304L19.4347 35.3588L14.8358 31.6509C14.4334 31.3348 13.8298 31.4785 13.5998 31.9384L3.22363 54.674V57.7495C3.22363 58.1232 3.48232 58.2669 3.79849 58.0944L7.85125 55.7375L30.3857 42.717C30.7019 42.5445 30.9606 42.0846 30.9606 41.7109V23.6891L27.7988 18.4867C27.4539 17.9693 26.6779 18.0268 26.4192 18.6304Z" fill="url(#paint4_linear)" stroke="url(#paint5_linear)" stroke-miterlimit="10"/>
<path d="M32.3687 2.27579C32.3687 2.24705 32.3687 2.2183 32.3687 2.2183C32.3113 1.98836 32.0813 1.90213 31.8226 2.04585L2.73477 18.8317C2.56231 18.918 2.4186 19.0904 2.33237 19.2629C2.2174 19.4353 2.15991 19.6365 2.15991 19.8377V63.3833C2.15991 63.6995 2.36111 63.8432 2.59106 63.7857C2.59106 63.7857 2.6198 63.7857 2.6198 63.7569C2.64854 63.7569 2.67728 63.7282 2.70603 63.6995L15.4966 56.3125L31.7939 46.9136C32.1101 46.7411 32.3687 46.2812 32.3687 45.9076V2.36202C32.3687 2.33328 32.3687 2.30453 32.3687 2.27579ZM30.9891 41.7399C30.9891 42.1135 30.7304 42.5447 30.4142 42.7459L15.5541 51.34L3.79826 58.0946C3.48209 58.267 3.2234 58.1233 3.2234 57.7497V20.4413C3.2234 20.2689 3.28089 20.0677 3.39586 19.8665C3.51083 19.694 3.65455 19.5216 3.79826 19.4353L30.4142 4.0866C30.7304 3.91414 30.9891 4.05785 30.9891 4.43151V41.7399Z" fill="#707070"/>
<defs>
<linearGradient id="paint0_linear" x1="4.79966" y1="24.0472" x2="30.8735" y2="42.3232" gradientUnits="userSpaceOnUse">
<stop stop-color="#BCEB00"/>
<stop offset="1" stop-color="#00EAEA"/>
</linearGradient>
<linearGradient id="paint1_linear" x1="25.667" y1="17.4522" x2="27.3269" y2="18.9145" gradientUnits="userSpaceOnUse">
<stop stop-color="#BCEB00"/>
<stop offset="1" stop-color="#00EAEA"/>
</linearGradient>
<linearGradient id="paint2_linear" x1="12.802" y1="30.7588" x2="14.469" y2="32.2869" gradientUnits="userSpaceOnUse">
<stop stop-color="#BCEB00"/>
<stop offset="1" stop-color="#00EAEA"/>
</linearGradient>
<linearGradient id="paint3_linear" x1="4.33629" y1="17.9491" x2="12.4518" y2="23.2619" gradientUnits="userSpaceOnUse">
<stop stop-color="#BCEB00"/>
<stop offset="1" stop-color="#00EAEA"/>
</linearGradient>
<linearGradient id="paint4_linear" x1="6.91336" y1="25.2759" x2="32.8891" y2="43.2737" gradientUnits="userSpaceOnUse">
<stop stop-color="#BCEB00"/>
<stop offset="1" stop-color="#00EAEA"/>
</linearGradient>
<linearGradient id="paint5_linear" x1="6.91336" y1="25.2759" x2="32.8891" y2="43.2737" gradientUnits="userSpaceOnUse">
<stop stop-color="#BCEB00"/>
<stop offset="1" stop-color="#00EAEA"/>
</linearGradient>
</defs>
</svg>
