<svg width="27" height="28" viewBox="0 0 27 28" fill="none" xmlns="http://www.w3.org/2000/svg">
<g filter="url(#filter0_d_3981:1788)">
<path d="M13.0366 1.87644C13.4355 1.41455 14.1514 1.41455 14.5503 1.87644L16.2309 3.82257C16.4741 4.10421 16.8536 4.22751 17.2159 4.14261L19.7194 3.55599C20.3136 3.41676 20.8928 3.8376 20.944 4.44572L21.1597 7.00799C21.191 7.3788 21.4255 7.7016 21.7685 7.84588L24.1387 8.84282C24.7012 9.07943 24.9225 9.76037 24.6065 10.2824L23.2749 12.4822C23.0822 12.8005 23.0822 13.1995 23.2749 13.5178L24.6065 15.7176C24.9225 16.2396 24.7012 16.9206 24.1387 17.1572L21.7685 18.1541C21.4255 18.2984 21.191 18.6212 21.1597 18.992L20.944 21.5543C20.8928 22.1624 20.3136 22.5832 19.7194 22.444L17.2159 21.8574C16.8536 21.7725 16.4741 21.8958 16.2309 22.1774L14.5503 24.1236C14.1514 24.5854 13.4355 24.5854 13.0366 24.1236L11.356 22.1774C11.1128 21.8958 10.7333 21.7725 10.371 21.8574L7.8675 22.444C7.27332 22.5832 6.69408 22.1624 6.64289 21.5543L6.42717 18.992C6.39595 18.6212 6.16142 18.2984 5.81841 18.1541L3.44821 17.1572C2.88567 16.9206 2.66442 16.2396 2.98045 15.7176L4.31199 13.5178C4.50469 13.1995 4.50469 12.8005 4.31199 12.4822L2.98044 10.2824C2.66442 9.76037 2.88567 9.07943 3.44821 8.84282L5.81841 7.84588C6.16142 7.7016 6.39595 7.3788 6.42717 7.00799L6.64289 4.44572C6.69408 3.8376 7.27332 3.41676 7.8675 3.55599L10.371 4.14261C10.7333 4.22751 11.1128 4.10421 11.356 3.82257L13.0366 1.87644Z" fill="white"/>
</g>
<path d="M13.9562 17.2101C15.7662 17.2101 16.8862 16.7701 17.4262 16.0201C17.7062 15.6401 17.8362 15.2101 17.8362 14.7001C17.8362 13.6801 17.3462 13.1101 16.3162 12.8001C15.7962 12.6501 15.1662 12.5501 14.3762 12.5101C13.4562 12.4601 12.9162 12.3901 12.6262 12.3101C12.3462 12.2301 12.2662 12.1101 12.2662 11.9401C12.2662 11.6201 12.5662 11.3901 13.5062 11.3901C14.4962 11.3901 15.0962 11.5601 15.2462 12.1601H17.7962C17.3662 10.3101 16.0262 9.62012 13.5762 9.62012C11.1662 9.62012 9.83617 10.5501 9.83617 12.0801C9.83617 13.5501 10.8562 14.1001 13.0262 14.2501C14.3362 14.3301 14.9762 14.3901 15.2262 14.5401C15.3462 14.6101 15.4162 14.7201 15.4162 14.8701C15.4162 15.2501 15.0262 15.4101 14.1162 15.4101C13.1362 15.4101 12.4162 15.2101 12.2462 14.5501H9.57617C9.78617 15.7301 10.3562 16.5201 11.5662 16.9101C12.1862 17.1101 12.9662 17.2101 13.9562 17.2101Z" fill="url(#paint0_radial_3981:1788)"/>
<path d="M13.9562 17.2101C15.7662 17.2101 16.8862 16.7701 17.4262 16.0201C17.7062 15.6401 17.8362 15.2101 17.8362 14.7001C17.8362 13.6801 17.3462 13.1101 16.3162 12.8001C15.7962 12.6501 15.1662 12.5501 14.3762 12.5101C13.4562 12.4601 12.9162 12.3901 12.6262 12.3101C12.3462 12.2301 12.2662 12.1101 12.2662 11.9401C12.2662 11.6201 12.5662 11.3901 13.5062 11.3901C14.4962 11.3901 15.0962 11.5601 15.2462 12.1601H17.7962C17.3662 10.3101 16.0262 9.62012 13.5762 9.62012C11.1662 9.62012 9.83617 10.5501 9.83617 12.0801C9.83617 13.5501 10.8562 14.1001 13.0262 14.2501C14.3362 14.3301 14.9762 14.3901 15.2262 14.5401C15.3462 14.6101 15.4162 14.7201 15.4162 14.8701C15.4162 15.2501 15.0262 15.4101 14.1162 15.4101C13.1362 15.4101 12.4162 15.2101 12.2462 14.5501H9.57617C9.78617 15.7301 10.3562 16.5201 11.5662 16.9101C12.1862 17.1101 12.9662 17.2101 13.9562 17.2101Z" fill="url(#paint1_linear_3981:1788)" fill-opacity="0.5" style="mix-blend-mode:screen"/>
<defs>
<filter id="filter0_d_3981:1788" x="0.835449" y="0.530029" width="25.916" height="26.9399" filterUnits="userSpaceOnUse" color-interpolation-filters="sRGB">
<feFlood flood-opacity="0" result="BackgroundImageFix"/>
<feColorMatrix in="SourceAlpha" type="matrix" values="0 0 0 0 0 0 0 0 0 0 0 0 0 0 0 0 0 0 127 0" result="hardAlpha"/>
<feOffset dy="1"/>
<feGaussianBlur stdDeviation="1"/>
<feColorMatrix type="matrix" values="0 0 0 0 0 0 0 0 0 0 0 0 0 0 0 0 0 0 0.05 0"/>
<feBlend mode="normal" in2="BackgroundImageFix" result="effect1_dropShadow_3981:1788"/>
<feBlend mode="normal" in="SourceGraphic" in2="effect1_dropShadow_3981:1788" result="shape"/>
</filter>
<radialGradient id="paint0_radial_3981:1788" cx="0" cy="0" r="1" gradientUnits="userSpaceOnUse" gradientTransform="translate(17.2935 17.5001) rotate(-90) scale(8.5 9.84791)">
<stop stop-color="#E0AB44"/>
<stop offset="0.895833" stop-color="#FFD028"/>
</radialGradient>
<linearGradient id="paint1_linear_3981:1788" x1="18.7935" y1="29.0001" x2="19.4675" y2="-3.9861" gradientUnits="userSpaceOnUse">
<stop offset="0.395833"/>
<stop offset="0.546875" stop-color="white"/>
</linearGradient>
</defs>
</svg>
