<svg width="72" height="80" viewBox="0 0 72 80" fill="none" xmlns="http://www.w3.org/2000/svg">
<path d="M35.8184 3.7042L34.8124 3.12934C34.4963 2.95689 33.9789 2.95689 33.6627 3.12934L4.57486 19.9152C4.25869 20.0877 4 20.5476 4 20.9212V64.4668C4 64.8404 4.25869 65.2716 4.57486 65.4728L5.58086 66.0476C5.89703 66.2201 6.41441 66.2201 6.73058 66.0476L35.8184 49.2618C36.1346 49.0893 36.3933 48.6294 36.3933 48.2558V4.7102C36.3933 4.33655 36.1346 3.87666 35.8184 3.7042Z" fill="#27DEBF"/>
<path d="M35.8184 3.7042L34.8124 3.12934C34.4963 2.95689 33.9789 2.95689 33.6627 3.12934L4.57486 19.9152C4.25869 20.0877 4 20.5476 4 20.9212V64.4668C4 64.8404 4.25869 65.2716 4.57486 65.4728L5.58086 66.0476C5.89703 66.2201 6.41441 66.2201 6.73058 66.0476L35.8184 49.2618C36.1346 49.0893 36.3933 48.6294 36.3933 48.2558V4.7102C36.3933 4.33655 36.1346 3.87666 35.8184 3.7042Z" fill="#F5F5F5"/>
<path d="M19.4637 29.1708C19.2625 29.0558 8.91504 23.0773 4.17246 20.3467C4.05749 20.5191 4 20.7203 4 20.9215V64.4671C4 64.8408 4.25869 65.2719 4.57486 65.4731L5.58086 66.048C5.89703 66.2204 6.41441 66.2204 6.73058 66.048L19.5212 58.661C19.5787 47.5375 19.6649 29.2857 19.4637 29.1708Z" fill="#E0E0E0"/>
<path d="M35.8183 4.36537L6.7305 21.1512C6.41433 21.3237 6.15564 21.7836 6.15564 22.1573V65.7028C6.15564 66.0765 6.41433 66.2202 6.7305 66.0477L35.8183 49.2618C36.1345 49.0894 36.3932 48.6295 36.3932 48.2558V4.71029C36.3932 4.33663 36.1345 4.19292 35.8183 4.36537Z" fill="#F5F5F5"/>
<path d="M7.82266 21.7835L34.7548 6.23354C35.071 6.06108 35.3297 6.2048 35.3297 6.57845V43.8868C35.3297 44.2605 35.071 44.6916 34.7548 44.8928L7.82266 60.4427C7.50649 60.6152 7.2478 60.4715 7.2478 60.0978V22.7895C7.2478 22.4158 7.50649 21.9559 7.82266 21.7835Z" fill="white"/>
<path d="M7.24805 22.7889V30.6357C8.13908 30.9519 9.26005 30.8082 10.496 30.0896C13.3415 28.4513 15.6122 24.4847 15.6122 21.208C15.6122 19.6847 15.1236 18.5924 14.3188 18.0176L7.82291 21.7542C7.50673 21.9554 7.24805 22.4152 7.24805 22.7889Z" fill="#E6E6E6"/>
<path d="M30.4149 20.9498L23.4303 37.6782L18.8314 33.9704C18.429 33.6542 17.8254 33.7979 17.5955 34.2578L7.24805 57.0222V60.0977C7.24805 60.4714 7.50673 60.6151 7.82291 60.4426L11.8757 58.0857L34.7263 44.8927C35.0425 44.7202 35.3012 44.2604 35.3012 43.8867V25.8649L31.8233 20.8061C31.4496 20.2887 30.6735 20.375 30.4149 20.9498Z" fill="#E6E6E6"/>
<path d="M43.8184 8.7042L42.8124 8.12934C42.4963 7.95689 41.9789 7.95689 41.6627 8.12934L12.5749 24.9152C12.2587 25.0877 12 25.5476 12 25.9212V69.4668C12 69.8404 12.2587 70.2716 12.5749 70.4728L13.5809 71.0476C13.897 71.2201 14.4144 71.2201 14.7306 71.0476L43.8184 54.2618C44.1346 54.0893 44.3933 53.6294 44.3933 53.2558V9.7102C44.3933 9.33655 44.1346 8.87666 43.8184 8.7042Z" fill="#27DEBF"/>
<path d="M43.8184 8.7042L42.8124 8.12934C42.4963 7.95689 41.9789 7.95689 41.6627 8.12934L12.5749 24.9152C12.2587 25.0877 12 25.5476 12 25.9212V69.4668C12 69.8404 12.2587 70.2716 12.5749 70.4728L13.5809 71.0476C13.897 71.2201 14.4144 71.2201 14.7306 71.0476L43.8184 54.2618C44.1346 54.0893 44.3933 53.6294 44.3933 53.2558V9.7102C44.3933 9.33655 44.1346 8.87666 43.8184 8.7042Z" fill="#F5F5F5"/>
<path d="M27.4637 34.1708C27.2625 34.0558 16.915 28.0773 12.1725 25.3467C12.0575 25.5191 12 25.7203 12 25.9215V69.4671C12 69.8408 12.2587 70.2719 12.5749 70.4731L13.5809 71.048C13.897 71.2204 14.4144 71.2204 14.7306 71.048L27.5212 63.661C27.5787 52.5375 27.6649 34.2857 27.4637 34.1708Z" fill="#E0E0E0"/>
<path d="M43.8183 9.36537L14.7305 26.1512C14.4143 26.3237 14.1556 26.7836 14.1556 27.1573V70.7028C14.1556 71.0765 14.4143 71.2202 14.7305 71.0477L43.8183 54.2618C44.1345 54.0894 44.3932 53.6295 44.3932 53.2558V9.71029C44.3932 9.33663 44.1345 9.19292 43.8183 9.36537Z" fill="#F5F5F5"/>
<path d="M15.8227 26.7835L42.7548 11.2335C43.071 11.0611 43.3297 11.2048 43.3297 11.5785V48.8868C43.3297 49.2605 43.071 49.6916 42.7548 49.8928L15.8227 65.4427C15.5065 65.6152 15.2478 65.4715 15.2478 65.0978V27.7895C15.2478 27.4158 15.5065 26.9559 15.8227 26.7835Z" fill="white"/>
<path d="M15.248 27.7889V35.6357C16.1391 35.9519 17.2601 35.8082 18.496 35.0896C21.3415 33.4513 23.6122 29.4847 23.6122 26.208C23.6122 24.6847 23.1236 23.5924 22.3188 23.0176L15.8229 26.7542C15.5067 26.9554 15.248 27.4152 15.248 27.7889Z" fill="#E6E6E6"/>
<path d="M38.4149 25.9498L31.4303 42.6782L26.8314 38.9704C26.429 38.6542 25.8254 38.7979 25.5955 39.2578L15.248 62.0222V65.0977C15.248 65.4714 15.5067 65.6151 15.8229 65.4426L19.8757 63.0857L42.7263 49.8927C43.0425 49.7202 43.3012 49.2604 43.3012 48.8867V30.8649L39.8233 25.8061C39.4496 25.2887 38.6735 25.375 38.4149 25.9498Z" fill="#E6E6E6"/>
<path d="M51.2635 13.0152L50.2575 12.4404C49.9413 12.2679 49.424 12.2679 49.1078 12.4404L20.0199 29.2263C19.7038 29.3987 19.4451 29.8586 19.4451 30.2323V73.7778C19.4451 74.1515 19.7038 74.5826 20.0199 74.7838L21.0259 75.3587C21.3421 75.5311 21.8595 75.5311 22.1756 75.3587L51.2635 58.5728C51.5797 58.4003 51.8384 57.9404 51.8384 57.5668V14.0212C51.8384 13.6476 51.5797 13.1877 51.2635 13.0152Z" fill="#F5F5F5"/>
<path d="M34.908 38.4818C34.7068 38.3668 24.3594 32.3883 19.6168 29.6577C19.5018 29.8302 19.4443 30.0314 19.4443 30.2326V73.7781C19.4443 74.1518 19.703 74.5829 20.0192 74.7841L21.0252 75.359C21.3414 75.5315 21.8587 75.5315 22.1749 75.359L34.9655 67.9721C35.023 56.8485 35.0805 38.5968 34.908 38.4818Z" fill="#E0E0E0"/>
<path d="M51.2627 13.6764L22.1748 30.4623C21.8587 30.6347 21.6 31.0946 21.6 31.4683V75.0138C21.6 75.3875 21.8587 75.5312 22.1748 75.3588L51.2627 58.5729C51.5789 58.4004 51.8375 57.9405 51.8375 57.5669V14.0213C51.8375 13.6477 51.5789 13.504 51.2627 13.6764Z" fill="#F0F0F0"/>
<path d="M23.2388 31.0935L50.1709 15.5436C50.4871 15.3711 50.7458 15.5149 50.7458 15.8885V53.1968C50.7458 53.5705 50.4871 54.0017 50.1709 54.2029L23.2388 69.7528C22.9226 69.9252 22.6639 69.7815 22.6639 69.4079V32.0995C22.6639 31.7259 22.9226 31.266 23.2388 31.0935Z" fill="white"/>
<path d="M22.6639 32.0721V39.9189C23.555 40.2351 24.6759 40.0914 25.9119 39.3728C28.7574 37.7345 31.0281 33.7679 31.0281 30.4913C31.0281 28.9679 30.5395 27.8756 29.7347 27.3008L23.2388 31.0374C22.9226 31.2673 22.6639 31.7272 22.6639 32.0721Z" fill="#E0E0E0"/>
<path d="M45.8595 30.2614L38.875 46.9897L34.2761 43.2819C33.8737 42.9657 33.2701 43.1095 33.0401 43.5693L22.6639 66.3338V69.4092C22.6639 69.7829 22.9226 69.9266 23.2388 69.7542L27.2916 67.3972L50.1422 54.2042C50.4584 54.0318 50.717 53.5719 50.717 53.1982V35.1477L47.2679 30.1176C46.8942 29.6003 46.1182 29.6865 45.8595 30.2614Z" fill="#E6E6E6"/>
<path d="M57.9885 59.636L56.1489 59.4636V18.936L57.9885 19.1085V59.636Z" fill="#5C5C5C"/>
<path opacity="0.5" d="M28.6422 35.8655L55.5744 20.3156C55.8905 20.1431 56.1492 20.2868 56.1492 20.6605V57.9688C56.1492 58.3425 55.8905 58.7736 55.5744 58.9748L28.6422 74.5248C28.3261 74.6972 28.0674 74.5535 28.0674 74.1798V36.8715C28.0674 36.4978 28.3261 36.038 28.6422 35.8655Z" fill="white"/>
<path d="M51.2629 33.3937L44.2784 50.1221L39.6795 46.4142C39.2771 46.0981 38.6735 46.2418 38.4436 46.7017L28.0674 69.4373V72.5128C28.0674 72.8865 28.3261 73.0302 28.6422 72.8577L32.695 70.5008L55.5456 57.3078C55.8618 57.1354 56.1205 56.6755 56.1205 56.3018V38.28L52.6426 33.25C52.2977 32.7326 51.5216 32.8188 51.2629 33.3937Z" fill="url(#paint0_linear)"/>
<path opacity="0.5" d="M51.2629 33.3937L44.2784 50.1221L39.6795 46.4142C39.2771 46.0981 38.6735 46.2418 38.4436 46.7017L28.0674 69.4373V72.5128C28.0674 72.8865 28.3261 73.0302 28.6422 72.8577L32.695 70.5008L55.5456 57.3078C55.8618 57.1354 56.1205 56.6755 56.1205 56.3018V38.28L52.6426 33.25C52.2977 32.7326 51.5216 32.8188 51.2629 33.3937Z" fill="white"/>
<path d="M54.5105 34.2287L52.3835 33.0215V35.4359L54.5105 34.2287Z" fill="url(#paint1_linear)"/>
<path opacity="0.5" d="M54.5105 34.2287L52.3835 33.0215V35.4359L54.5105 34.2287Z" fill="white"/>
<path d="M41.7203 47.5646L39.5646 46.3286L39.5071 48.743L41.7203 47.5646Z" fill="url(#paint2_linear)"/>
<path opacity="0.5" d="M41.7203 47.5646L39.5646 46.3286L39.5071 48.743L41.7203 47.5646Z" fill="white"/>
<path d="M59.368 18.2759C59.368 18.2472 59.368 18.2184 59.368 18.2184C59.3105 17.9022 59.0805 17.5573 58.8219 17.3849L57.8158 16.81C57.4997 16.6375 56.9823 16.6375 56.6661 16.81L27.5783 33.5671C27.4058 33.6534 27.2621 33.8258 27.1759 33.9983C27.0609 34.1707 27.0034 34.3719 27.0034 34.5731V78.1187C27.0034 78.4924 27.2621 78.9235 27.5783 79.1247L28.5843 79.6996C28.8717 79.872 29.3029 79.872 29.5903 79.757C29.5903 79.757 29.619 79.757 29.619 79.7283C29.6478 79.7283 29.6765 79.6996 29.7053 79.6708L42.4959 72.2839L58.7931 62.8849C59.1093 62.7125 59.368 62.2526 59.368 61.8789V18.3621C59.368 18.3334 59.368 18.3046 59.368 18.2759ZM57.9883 57.74C57.9883 58.1136 57.7296 58.5448 57.4134 58.746L42.5533 67.3401L30.7975 74.0947C30.4813 74.2671 30.2226 74.1234 30.2226 73.7498V36.4414C30.2226 36.269 30.2801 36.0678 30.3951 35.8666C30.5101 35.6941 30.6538 35.5217 30.7975 35.4354L57.4134 20.0867C57.7296 19.9142 57.9883 20.058 57.9883 20.4316V57.74Z" fill="#8E8E8E"/>
<path d="M42.5538 67.3097C42.5538 69.063 42.525 70.7588 42.525 72.3109L29.7344 79.6979C29.7057 79.7266 29.6769 79.7266 29.6482 79.7553C29.6482 79.7553 29.6195 79.7553 29.6195 79.7841C29.3033 79.8991 28.8721 79.8703 28.6135 79.7266L27.6075 79.1517C27.2913 78.9793 27.0326 78.5194 27.0326 78.1457V34.5714C27.0326 34.399 27.0901 34.1978 27.2051 33.9966C27.8374 34.3702 28.556 34.7726 29.3608 35.2325C29.7057 35.4337 30.0793 35.6349 30.453 35.8649C30.338 36.0373 30.2805 36.2385 30.2805 36.4397V73.7481C30.2805 74.1217 30.5392 74.2654 30.8554 74.093L42.5538 67.3097Z" fill="#5C5C5C"/>
<path d="M30.223 36.4412V44.2881C31.1141 44.6042 32.235 44.4605 33.471 43.742C36.3165 42.1036 38.5872 38.1371 38.5872 34.8604C38.5872 33.337 38.0986 32.2448 37.2938 31.6699L30.7979 35.4065C30.4817 35.6364 30.223 36.0676 30.223 36.4412Z" fill="url(#paint3_linear)"/>
<path opacity="0.7" d="M30.223 36.4412V44.2881C31.1141 44.6042 32.235 44.4605 33.471 43.742C36.3165 42.1036 38.5872 38.1371 38.5872 34.8604C38.5872 33.337 38.0986 32.2448 37.2938 31.6699L30.7979 35.4065C30.4817 35.6364 30.223 36.0676 30.223 36.4412Z" fill="white"/>
<path d="M53.4186 34.6304L46.434 51.3588L41.8352 47.6509C41.4328 47.3348 40.8292 47.4785 40.5992 47.9384L30.223 70.674V73.7495C30.223 74.1232 30.4817 74.2669 30.7979 74.0944L34.8506 71.7375L57.3851 58.717C57.7013 58.5445 57.96 58.0846 57.96 57.7109V39.6891L54.7982 34.4867C54.4533 33.9693 53.6773 34.0268 53.4186 34.6304Z" fill="url(#paint4_linear)" stroke="url(#paint5_linear)" stroke-miterlimit="10"/>
<path d="M59.3684 18.2758C59.3684 18.247 59.3684 18.2183 59.3684 18.2183C59.3109 17.9884 59.0809 17.9021 58.8223 18.0458L29.7344 34.8317C29.5619 34.918 29.4182 35.0904 29.332 35.2629C29.217 35.4353 29.1595 35.6365 29.1595 35.8377V79.3833C29.1595 79.6995 29.3607 79.8432 29.5907 79.7857C29.5907 79.7857 29.6194 79.7857 29.6194 79.7569C29.6482 79.7569 29.6769 79.7282 29.7057 79.6995L42.4963 72.3125L58.7935 62.9136C59.1097 62.7411 59.3684 62.2812 59.3684 61.9076V18.362C59.3684 18.3333 59.3684 18.3045 59.3684 18.2758ZM57.9887 57.7399C57.9887 58.1135 57.73 58.5447 57.4139 58.7459L42.5538 67.34L30.7979 74.0946C30.4817 74.267 30.223 74.1233 30.223 73.7497V36.4413C30.223 36.2689 30.2805 36.0677 30.3955 35.8665C30.5105 35.694 30.6542 35.5216 30.7979 35.4353L57.4139 20.0866C57.73 19.9141 57.9887 20.0579 57.9887 20.4315V57.7399Z" fill="#707070"/>
<defs>
<linearGradient id="paint0_linear" x1="31.7992" y1="40.0472" x2="57.873" y2="58.3232" gradientUnits="userSpaceOnUse">
<stop stop-color="#BCEB00"/>
<stop offset="1" stop-color="#00EAEA"/>
</linearGradient>
<linearGradient id="paint1_linear" x1="52.6665" y1="33.4522" x2="54.3264" y2="34.9145" gradientUnits="userSpaceOnUse">
<stop stop-color="#BCEB00"/>
<stop offset="1" stop-color="#00EAEA"/>
</linearGradient>
<linearGradient id="paint2_linear" x1="39.8015" y1="46.7593" x2="41.4685" y2="48.2874" gradientUnits="userSpaceOnUse">
<stop stop-color="#BCEB00"/>
<stop offset="1" stop-color="#00EAEA"/>
</linearGradient>
<linearGradient id="paint3_linear" x1="31.3357" y1="33.9491" x2="39.4512" y2="39.2619" gradientUnits="userSpaceOnUse">
<stop stop-color="#BCEB00"/>
<stop offset="1" stop-color="#00EAEA"/>
</linearGradient>
<linearGradient id="paint4_linear" x1="33.9128" y1="41.2759" x2="59.8885" y2="59.2737" gradientUnits="userSpaceOnUse">
<stop stop-color="#BCEB00"/>
<stop offset="1" stop-color="#00EAEA"/>
</linearGradient>
<linearGradient id="paint5_linear" x1="33.9128" y1="41.2759" x2="59.8885" y2="59.2737" gradientUnits="userSpaceOnUse">
<stop stop-color="#BCEB00"/>
<stop offset="1" stop-color="#00EAEA"/>
</linearGradient>
</defs>
</svg>
