<svg width="20" height="20" viewBox="0 0 20 20" fill="none" xmlns="http://www.w3.org/2000/svg">
<g clip-path="url(#clip0)">
<path fill-rule="evenodd" clip-rule="evenodd" d="M11.0607 0.454038C13.2078 2.60115 16.6885 2.60192 18.8365 0.456352L18.8388 0.454038L19.546 1.16114C17.3981 3.30903 17.3981 6.79144 19.546 8.93932L18.8388 9.64643C17.2014 8.00893 16.6202 5.71512 17.0953 3.61175L11.0607 9.64643L10.3536 8.93932L16.3882 2.90465C14.2849 3.37981 11.9911 2.79864 10.3536 1.16114L11.0607 0.454038Z" fill="white"/>
<path fill-rule="evenodd" clip-rule="evenodd" d="M8.93933 19.546C6.79222 17.3988 3.31154 17.3981 1.16347 19.5436L1.16115 19.546L0.454047 18.8389C2.60193 16.691 2.60193 13.2086 0.454048 11.0607L1.16115 10.3536C2.79865 11.9911 3.37982 14.2849 2.90466 16.3882L8.93933 10.3536L9.64644 11.0607L3.61176 17.0954C5.71513 16.6202 8.00894 17.2014 9.64643 18.8389L8.93933 19.546Z" fill="white"/>
</g>
<defs>
<clipPath id="clip0">
<path d="M0 0H20V20H0V0Z" fill="white"/>
</clipPath>
</defs>
</svg>
