<svg width="42" height="42" viewBox="0 0 42 42" fill="none" xmlns="http://www.w3.org/2000/svg">
<path fill-rule="evenodd" clip-rule="evenodd" d="M25.5 15.0005C25.5 18.0381 27.9624 20.5005 31 20.5005V21.5005C27.9624 21.5005 25.5 23.9629 25.5 27.0005H24.5C24.5 24.6847 25.711 22.6518 27.5343 21.5005H11V20.5005L27.5343 20.5005C25.711 19.3492 24.5 17.3163 24.5 15.0005H25.5Z" fill="white"/>
<path d="M12 1.00049H30V-0.999512H12V1.00049ZM41 12.0005V30.0005H43V12.0005H41ZM30 41.0005H12V43.0005H30V41.0005ZM1 30.0005V12.0005H-1V30.0005H1ZM12 41.0005C5.92487 41.0005 1 36.0756 1 30.0005H-1C-1 37.1802 4.8203 43.0005 12 43.0005V41.0005ZM41 30.0005C41 36.0756 36.0751 41.0005 30 41.0005V43.0005C37.1797 43.0005 43 37.1802 43 30.0005H41ZM30 1.00049C36.0751 1.00049 41 5.92536 41 12.0005H43C43 4.82079 37.1797 -0.999512 30 -0.999512V1.00049ZM12 -0.999512C4.8203 -0.999512 -1 4.82079 -1 12.0005H1C1 5.92536 5.92487 1.00049 12 1.00049V-0.999512Z" fill="url(#paint0_linear)"/>
<defs>
<linearGradient id="paint0_linear" x1="5.58709" y1="7.49271" x2="34.695" y2="36.6006" gradientUnits="userSpaceOnUse">
<stop stop-color="#BCEB00"/>
<stop offset="1" stop-color="#00EAEA"/>
</linearGradient>
</defs>
</svg>
