<svg width="10" height="10" viewBox="0 0 10 10" fill="none" xmlns="http://www.w3.org/2000/svg">
<path d="M5 5C4.6762 5 4.3524 4.94255 4.1 4.82764L0.542308 3.20529C0.379567 3.13125 0 2.91466 0 2.50577C0 2.09688 0.379567 1.88077 0.542789 1.80577L4.13125 0.169471C4.62572 -0.0564904 5.37187 -0.0564904 5.86659 0.169471L9.45721 1.80577C9.62043 1.88005 10 2.09663 10 2.50577C10 2.9149 9.62043 3.13077 9.45721 3.20553L5.89952 4.82764C5.6476 4.94255 5.3238 5 5 5Z" fill="black" fill-opacity="0.4"/>
<path d="M9.45577 4.29822L9.09303 4.13452L8.16106 4.56096L5.90144 5.59462C5.64904 5.71 5.32452 5.76745 5.00144 5.76745C4.67837 5.76745 4.35409 5.71 4.10192 5.59462L1.84063 4.56096L0.908414 4.13452L0.542548 4.29894C0.379567 4.37322 0 4.59125 0 4.99991C0 5.40856 0.379567 5.62683 0.542308 5.70111L4.1 7.32683C4.35096 7.44221 4.67524 7.49991 5 7.49991C5.32476 7.49991 5.6476 7.44221 5.9 7.32707L9.45457 5.70183C9.61827 5.62755 10 5.41072 10 4.99991C10 4.58909 9.62091 4.37322 9.45577 4.29822Z" fill="black" fill-opacity="0.4"/>
<path d="M9.45577 6.79798L9.09303 6.63452L8.16106 7.06072L5.90144 8.09318C5.64904 8.20808 5.32452 8.26577 5.00144 8.26577C4.67837 8.26577 4.35409 8.20832 4.10192 8.09318L1.84063 7.05952L0.908414 6.63452L0.542548 6.79894C0.379567 6.87322 0 7.09125 0 7.49991C0 7.90856 0.379567 8.12659 0.542308 8.20063L4.1 9.82539C4.35096 9.94029 4.67644 9.99991 5 9.99991C5.32356 9.99991 5.64615 9.94029 5.89856 9.82515L9.45433 8.20087C9.61827 8.12683 10 7.91 10 7.49991C10 7.08981 9.62091 6.87322 9.45577 6.79798Z" fill="black" fill-opacity="0.4"/>
</svg>
