<svg width="16" height="18" viewBox="0 0 16 18" fill="none" xmlns="http://www.w3.org/2000/svg">
<path fill-rule="evenodd" clip-rule="evenodd" d="M9.75049 3.58333C9.75049 2.01853 11.019 0.75 12.5838 0.75C14.1486 0.75 15.4172 2.01853 15.4172 3.58333C15.4172 5.14813 14.1486 6.41667 12.5838 6.41667C11.7692 6.41667 11.0349 6.07291 10.5181 5.52254L6.13048 8.18083C6.20864 8.44012 6.25065 8.71507 6.25065 8.99984C6.25065 9.25763 6.21622 9.50739 6.15171 9.74475L10.6132 12.3811C11.1231 11.8874 11.818 11.5835 12.5838 11.5835C14.1486 11.5835 15.4172 12.852 15.4172 14.4168C15.4172 15.9816 14.1486 17.2502 12.5838 17.2502C11.019 17.2502 9.75049 15.9816 9.75049 14.4168C9.75049 14.1591 9.7849 13.9094 9.84939 13.6721L5.38786 11.0357C4.87794 11.5294 4.18311 11.8332 3.41732 11.8332C1.85252 11.8332 0.583984 10.5646 0.583984 8.99984C0.583984 7.43504 1.85252 6.1665 3.41732 6.1665C4.15532 6.1665 4.82742 6.44867 5.33163 6.911L9.81643 4.19383C9.77325 3.9972 9.75049 3.79292 9.75049 3.58333ZM12.5838 2.25C11.8475 2.25 11.2505 2.84696 11.2505 3.58333C11.2505 4.3197 11.8475 4.91667 12.5838 4.91667C13.3202 4.91667 13.9172 4.3197 13.9172 3.58333C13.9172 2.84696 13.3202 2.25 12.5838 2.25ZM3.41732 7.6665C2.68095 7.6665 2.08398 8.26347 2.08398 8.99984C2.08398 9.73621 2.68095 10.3332 3.41732 10.3332C4.15369 10.3332 4.75065 9.73621 4.75065 8.99984C4.75065 8.26347 4.15369 7.6665 3.41732 7.6665ZM11.2505 14.4168C11.2505 13.6805 11.8475 13.0835 12.5838 13.0835C13.3202 13.0835 13.9172 13.6805 13.9172 14.4168C13.9172 15.1532 13.3202 15.7502 12.5838 15.7502C11.8475 15.7502 11.2505 15.1532 11.2505 14.4168Z" fill="black"/>
</svg>
