<svg width="20" height="20" viewBox="0 0 20 20" fill="none" xmlns="http://www.w3.org/2000/svg">
<path d="M13.5 8C13.5 5.59375 10.9297 3.625 7.8125 3.625C4.66797 3.625 2.125 5.59375 2.125 8C2.125 8.95703 2.50781 9.80469 3.16406 10.5156C2.78125 11.3633 2.17969 12.0195 2.17969 12.0195C2.125 12.0742 2.09766 12.1836 2.125 12.2656C2.17969 12.3477 2.23438 12.375 2.34375 12.375C3.32812 12.375 4.14844 12.0469 4.75 11.6914C5.625 12.1289 6.69141 12.375 7.8125 12.375C10.9297 12.375 13.5 10.4336 13.5 8ZM16.8359 14.0156C17.4648 13.3047 17.875 12.457 17.875 11.5C17.875 9.69531 16.3984 8.10938 14.3203 7.45312C14.3477 7.64453 14.375 7.83594 14.375 8C14.375 10.8984 11.4219 13.25 7.8125 13.25C7.51172 13.25 7.21094 13.25 6.9375 13.2227C7.78516 14.7812 9.80859 15.875 12.1875 15.875C13.3086 15.875 14.3477 15.6289 15.2227 15.1914C15.8242 15.5469 16.6445 15.875 17.6562 15.875C17.7383 15.875 17.8203 15.8477 17.8477 15.7656C17.875 15.6836 17.875 15.5742 17.793 15.5195C17.793 15.5195 17.1914 14.8633 16.8359 14.0156Z" fill="black"/>
</svg>
