<svg width="36" height="37" viewBox="0 0 36 37" fill="none" xmlns="http://www.w3.org/2000/svg">
<path d="M8 21.0493H12L17 26.0493V10.0493L12 15.0493H8V21.0493ZM19 14.0493V22.0493C20.48 21.3693 21.5 19.8193 21.5 18.0493C21.5 16.3093 20.48 14.7893 19 14.0493ZM19 11.3393C21.89 12.1993 24 14.8793 24 18.0493C24 21.2193 21.89 23.8993 19 24.7593V26.8193C23.01 25.9093 26 22.3293 26 18.0493C26 13.7693 23.01 10.1893 19 9.2793V11.3393Z" fill="white"/>
<path d="M9.25047 9.0498L7.98047 10.3198L24.7105 27.0498L25.9805 25.7798L9.25047 9.0498Z" fill="white"/>
</svg>
