<svg width="20" height="20" viewBox="0 0 20 20" fill="none" xmlns="http://www.w3.org/2000/svg">
<g clip-path="url(#clip0_7176:130162)">
<path d="M4.16634 1.91675L19.6663 12.5001L15.833 18.1667L0.333008 7.50008L4.16634 1.91675Z" fill="url(#paint0_linear_7176:130162)"/>
<path d="M19.666 12.5C18.3327 14.4167 13.8327 13.6667 9.58271 10.6667C5.24937 7.75002 2.91604 3.83335 4.16604 1.91669C5.49937 1.98625e-05 9.99937 0.75002 14.2494 3.75002C18.5827 6.58335 20.916 10.5834 19.666 12.5Z" fill="url(#paint1_linear_7176:130162)"/>
<path d="M15.8331 18.0834C14.4998 20 9.99978 19.25 5.74978 16.25C1.49978 13.25 -0.916884 9.41669 0.41645 7.41669C1.74978 5.50002 6.24978 6.25002 10.4998 9.25002C14.7498 12.25 17.0831 16.1667 15.8331 18.0834Z" fill="url(#paint2_linear_7176:130162)"/>
<path d="M19.6665 12.4999L15.8332 18.1665C14.4998 20.0832 9.99984 19.2499 5.74984 16.3332C4.9165 15.7499 4.1665 15.1665 3.4165 14.4999C3.99984 14.4165 4.74984 14.0832 5.49984 13.2499C6.83317 11.8332 7.49984 11.4999 8.08317 11.5832C8.6665 11.5832 9.33317 12.1665 10.4165 13.5832C11.4998 14.9999 12.9998 15.4165 13.9165 14.6665C13.9998 14.5832 14.0832 14.5832 14.1665 14.4999C14.9165 13.9165 15.1665 13.6665 16.5832 10.9999C16.9165 10.3332 18.0832 9.24985 19.6665 9.74985C20.0832 10.8332 20.0832 11.7499 19.6665 12.4999Z" fill="#0E0F23"/>
<path fill-rule="evenodd" clip-rule="evenodd" d="M19.0833 12.1667C17.9166 13.8334 13.8333 13 9.91665 10.25C5.91665 7.50002 3.58332 4.00002 4.74998 2.33336C5.91665 0.666691 9.99998 1.50002 13.9166 4.25002C17.8333 7.00002 20.1666 10.5 19.0833 12.1667ZM15.4166 9.66669C14.8333 10.5 12.8333 10.0834 10.8333 8.75002C8.91665 7.41669 7.74998 5.66669 8.33332 4.83336C8.91665 4.00002 10.9166 4.41669 12.9166 5.75002C14.8333 7.08336 16 8.83336 15.4166 9.66669Z" fill="white"/>
<path d="M3.83333 3.83318C3.83333 3.74985 3.75 3.66652 3.66667 3.74985C3.58333 3.83318 3.5 3.83318 3.5 3.91652C3.58333 4.16652 3.66667 4.33318 3.66667 4.49985C3.66667 4.58318 3.75 4.66652 3.83333 4.58318C3.91667 4.58318 4 4.49985 3.91667 4.41652C3.91667 4.24985 3.91667 4.08318 3.83333 3.83318Z" fill="white"/>
<path d="M4.25 5.16668C4.25 5.08335 4.16667 5.00001 4.08333 5.08335C4 5.16668 4 5.16668 4 5.25001C4.91667 7.33335 6.83333 9.58335 9.33333 11.25C9.41667 11.3333 9.5 11.25 9.58333 11.25C9.66667 11.1667 9.58333 11.0833 9.58333 11C7 9.33335 5.16667 7.16668 4.25 5.16668Z" fill="white"/>
<path d="M14.3332 13.3335C14.2498 13.3335 14.1665 13.3335 14.1665 13.4168C14.1665 13.5002 14.1665 13.5835 14.2498 13.5835C14.4998 13.6668 14.8332 13.7502 15.0832 13.8335C15.1665 13.8335 15.2498 13.8335 15.2498 13.7502C15.2498 13.6668 15.2498 13.5835 15.1665 13.5835C14.9165 13.5002 14.5832 13.4168 14.3332 13.3335Z" fill="white"/>
<path d="M15.8332 13.6665C15.7498 13.6665 15.6665 13.7498 15.6665 13.8332C15.6665 13.9165 15.7498 13.9998 15.8332 13.9998C16.4998 14.0832 17.2498 14.1665 17.8332 14.0832C17.9165 14.0832 17.9998 13.9998 17.9998 13.9165C17.9998 13.8332 17.9165 13.7498 17.8332 13.7498C17.1665 13.8332 16.4998 13.7498 15.8332 13.6665Z" fill="white"/>
</g>
<defs>
<linearGradient id="paint0_linear_7176:130162" x1="7.20317" y1="0.411998" x2="10.277" y2="10.9672" gradientUnits="userSpaceOnUse">
<stop stop-color="#03B8FF"/>
<stop offset="1" stop-color="#FA52A0"/>
</linearGradient>
<linearGradient id="paint1_linear_7176:130162" x1="9.73421" y1="-0.325314" x2="12.8081" y2="10.2299" gradientUnits="userSpaceOnUse">
<stop stop-color="#03B8FF"/>
<stop offset="1" stop-color="#FA52A0"/>
</linearGradient>
<linearGradient id="paint2_linear_7176:130162" x1="4.67978" y1="1.14677" x2="7.7537" y2="11.702" gradientUnits="userSpaceOnUse">
<stop stop-color="#03B8FF"/>
<stop offset="1" stop-color="#FA52A0"/>
</linearGradient>
<clipPath id="clip0_7176:130162">
<rect width="20" height="20" fill="white"/>
</clipPath>
</defs>
</svg>
