<svg width="220" height="220" viewBox="0 0 220 220" fill="none" xmlns="http://www.w3.org/2000/svg">
<path fill-rule="evenodd" clip-rule="evenodd" d="M106.8 1.6C108.4 -0.533334 111.6 -0.533333 113.2 1.6L126.2 18.9333C128.178 21.5703 126.296 25.3333 123 25.3333L97 25.3333C93.7038 25.3333 91.8223 21.5703 93.8 18.9333L106.8 1.6ZM113.2 217.067C111.6 219.2 108.4 219.2 106.8 217.067L93.8 199.733C91.8223 197.096 93.7038 193.333 97 193.333H123C126.296 193.333 128.178 197.096 126.2 199.733L113.2 217.067ZM57.3641 77.4504C56.4968 77.4504 55.6088 77.4648 54.704 77.4951L54.7658 77.4849C60.9742 66.4857 70.3606 57.594 81.7091 51.9614C93.0576 46.3288 105.845 44.2149 118.416 45.8936C130.986 47.5723 142.76 52.9662 152.213 61.3766C161.665 69.7869 168.36 80.8263 171.431 93.0647C181.293 94.5717 190.219 99.7276 196.422 107.5C202.625 115.273 205.648 125.089 204.884 134.983C204.12 144.877 199.628 154.119 192.305 160.859C184.982 167.6 175.369 171.341 165.391 171.333H82.68C85.7457 169.58 89.01 168.158 92.4214 167.105C95.3918 166.15 98.1972 165.109 101.071 164.044C102.268 163.6 103.478 163.151 104.716 162.702C111.285 160.33 117.865 157.624 123.088 152.728C130.672 145.953 134.732 137.664 133.866 127.345C133.022 118.047 128.814 110.091 122.245 103.498C104.887 86.3837 83.9935 77.9551 57.3641 77.4504ZM85.9483 162.23C79.994 164.49 74.7986 167.497 70.3773 171.333H64.6774C69.2126 166.691 74.5691 162.872 80.5118 160.087C84.4315 158.464 88.2458 156.599 91.9325 154.502C94.9758 152.863 97.7782 150.814 100.261 148.413C105.497 143.161 106.004 136.395 101.748 130.306C100.553 128.356 99.0588 126.606 97.3197 125.118C84.7569 113.552 69.8022 109.492 53.1452 111.522C47.2038 112.205 24.7317 115.717 16.1684 134.564C15.4674 131.496 15.0718 128.346 15 125.157C15.752 97.2458 51.8694 94.1311 60.2161 94.0606C77.4029 94.3935 92.5709 99.6439 105.549 110.8C111.114 115.374 115.494 121.118 117.299 128.226C118.011 130.861 118.139 133.621 117.673 136.311C117.208 139.001 116.162 141.555 114.607 143.795C110.675 149.68 105.101 154.267 98.5847 156.98C94.6895 158.709 90.7852 160.282 86.8886 161.851L85.9483 162.23ZM27.3957 155.933C27.8837 156.465 28.385 156.987 28.8993 157.498C30.5642 159.154 32.3399 160.674 34.2092 162.052C37.8193 146.162 54.5087 138.696 66.4258 143.158C68.4303 144.038 70.2613 145.261 71.8345 146.77C74.456 149.182 74.456 151.933 72.0226 154.508C70.9265 155.732 69.6947 156.83 68.3504 157.783C62.9845 161.321 58.2135 165.65 54.1991 170.609C55.6859 170.871 57.189 171.063 58.7037 171.184C64.2306 164.613 71.2109 159.349 79.1435 155.834C81.4249 154.86 83.5461 153.55 85.4357 151.946C89.6807 148.391 90.3703 143.655 87.138 139.252C85.2995 136.746 82.9907 134.62 80.3394 132.991C71.4295 127.166 60.9786 126.769 50.9365 128.931C44.3737 130.462 31.1762 135.743 27.3957 155.933Z" fill="black"/>
</svg>
