<svg width="20" height="20" viewBox="0 0 20 20" fill="none" xmlns="http://www.w3.org/2000/svg">
<path fill-rule="evenodd" clip-rule="evenodd" d="M14.5 2C14.5 3.933 16.067 5.5 18 5.5V6.5C16.067 6.5 14.5 8.067 14.5 10H13.5C13.5 8.58637 14.1518 7.32498 15.1713 6.5H2V5.5L15.1713 5.5C14.1518 4.67502 13.5 3.41363 13.5 2H14.5Z" fill="black"/>
<path fill-rule="evenodd" clip-rule="evenodd" d="M5.5 18C5.5 16.068 3.93458 14.5016 2.00292 14.5L2.00051 14.5C2.00034 14.5 2.00017 14.5 2 14.5L2 13.5C3.933 13.5 5.5 11.933 5.5 10L6.5 10C6.5 11.4136 5.84817 12.675 4.82867 13.5L18 13.5L18 14.5L4.82867 14.5C5.84817 15.325 6.5 16.5864 6.5 18L5.5 18Z" fill="black"/>
</svg>
