<svg width="23" height="19" viewBox="0 0 23 19" fill="none" xmlns="http://www.w3.org/2000/svg">
<path d="M7.14977 18.4666C15.724 18.4666 20.415 11.3612 20.415 5.20132C20.415 5.00157 20.4106 4.79738 20.4017 4.59763C21.3143 3.93768 22.1018 3.12025 22.7273 2.18374C21.8774 2.56187 20.975 2.80882 20.051 2.91616C21.0239 2.33299 21.7524 1.41686 22.1014 0.337594C21.1861 0.880009 20.1852 1.26264 19.1415 1.46907C18.4383 0.721869 17.5085 0.22713 16.4959 0.0613479C15.4833 -0.104434 14.4443 0.0679762 13.5395 0.551921C12.6347 1.03587 11.9146 1.80439 11.4904 2.73868C11.0662 3.67296 10.9616 4.72097 11.1927 5.72067C9.33948 5.62767 7.52645 5.14625 5.87119 4.30761C4.21593 3.46896 2.75539 2.29183 1.58425 0.852509C0.989015 1.87877 0.806872 3.09316 1.07484 4.24889C1.34281 5.40461 2.04078 6.41494 3.0269 7.07454C2.28658 7.05104 1.56248 6.85172 0.914418 6.49304V6.55075C0.913754 7.62773 1.28608 8.6717 1.9681 9.50521C2.65012 10.3387 3.59974 10.9103 4.65554 11.1228C3.96975 11.3105 3.24998 11.3378 2.55194 11.2027C2.84986 12.1289 3.42952 12.939 4.21001 13.5199C4.9905 14.1009 5.93288 14.4236 6.90563 14.4432C5.25419 15.7404 3.21418 16.444 1.11417 16.4407C0.741749 16.4401 0.369696 16.4173 0 16.3723C2.13339 17.741 4.61509 18.4679 7.14977 18.4666Z" fill="white"/>
</svg>
