<svg width="40" height="40" viewBox="0 0 40 40" fill="none" xmlns="http://www.w3.org/2000/svg">
<circle cx="20" cy="20" r="20" fill="black"/>
<mask id="mask0" mask-type="alpha" maskUnits="userSpaceOnUse" x="4" y="4" width="32" height="32">
<path fill-rule="evenodd" clip-rule="evenodd" d="M20 36C28.8366 36 36 28.8366 36 20C36 11.1634 28.8366 4 20 4C11.1634 4 4 11.1634 4 20C4 28.8366 11.1634 36 20 36ZM26.8363 17.0648C24.6813 17.102 22.9351 15.3557 22.9351 13.2007C22.9351 12.5319 23.1208 11.8631 23.4181 11.3058C22.3406 10.8971 21.1888 10.6742 19.9998 10.6742C14.8353 10.6742 10.674 14.8727 10.674 20.0372C10.674 25.2017 14.8725 29.363 20.037 29.3259C25.2015 29.2887 29.3628 25.1274 29.3257 19.9629C29.3257 18.7739 29.1027 17.6221 28.694 16.5818C28.1367 16.9162 27.5051 17.0648 26.8363 17.0648ZM29.7358 13.1633C29.7358 14.7646 28.4376 16.0628 26.8363 16.0628C25.2349 16.0628 23.9367 14.7646 23.9367 13.1633C23.9367 11.5619 25.2349 10.2638 26.8363 10.2638C28.4376 10.2638 29.7358 11.5619 29.7358 13.1633Z" fill="#C4C4C4"/>
</mask>
<g mask="url(#mask0)">
<g filter="url(#filter0_f)">
<path d="M31.3765 20.0847C31.3765 26.4083 26.2501 31.5347 19.9265 31.5347C13.6029 31.5347 8.47656 26.4083 8.47656 20.0847C8.47656 13.7611 13.6029 8.63477 19.9265 8.63477C26.2501 8.63477 31.3765 13.7611 31.3765 20.0847Z" fill="url(#paint0_linear)"/>
</g>
</g>
<defs>
<filter id="filter0_f" x="3.45498" y="3.61319" width="32.9431" height="32.9431" filterUnits="userSpaceOnUse" color-interpolation-filters="sRGB">
<feFlood flood-opacity="0" result="BackgroundImageFix"/>
<feBlend mode="normal" in="SourceGraphic" in2="BackgroundImageFix" result="shape"/>
<feGaussianBlur stdDeviation="2.51079" result="effect1_foregroundBlur"/>
</filter>
<linearGradient id="paint0_linear" x1="11.5228" y1="12.7198" x2="27.3935" y2="28.5904" gradientUnits="userSpaceOnUse">
<stop stop-color="#BFEF00"/>
<stop offset="1" stop-color="#00EAEA"/>
</linearGradient>
</defs>
</svg>
