<svg width="192" height="71" viewBox="0 0 192 71" fill="none" xmlns="http://www.w3.org/2000/svg">
<mask id="mask0" mask-type="alpha" maskUnits="userSpaceOnUse" x="0" y="0" width="71" height="71">
<path fill-rule="evenodd" clip-rule="evenodd" d="M35.1004 70.2009C54.4859 70.2009 70.2009 54.4859 70.2009 35.1004C70.2009 15.715 54.4859 0 35.1004 0C15.715 0 0 15.715 0 35.1004C0 54.4859 15.715 70.2009 35.1004 70.2009ZM50.0973 28.6609C45.3698 28.7424 41.5388 24.9114 41.5388 20.1839C41.5388 18.7167 41.9464 17.2496 42.5985 16.0269C40.2347 15.1303 37.7079 14.6413 35.0996 14.6413C23.7698 14.6413 14.6408 23.8518 14.6408 35.1816C14.6408 46.5114 23.8513 55.6404 35.1811 55.5589C46.5109 55.4774 55.6399 46.3484 55.5584 35.0186C55.5584 32.4103 55.0694 29.8835 54.1728 27.6013C52.9501 28.3348 51.5645 28.6609 50.0973 28.6609ZM56.4586 20.1027C56.4586 23.6157 53.6107 26.4635 50.0977 26.4635C46.5847 26.4635 43.7368 23.6157 43.7368 20.1027C43.7368 16.5896 46.5847 13.7418 50.0977 13.7418C53.6107 13.7418 56.4586 16.5896 56.4586 20.1027Z" fill="#C4C4C4"/>
</mask>
<g mask="url(#mask0)">
<g filter="url(#filter0_f)">
<path d="M60.0596 35.2847C60.0596 49.1573 48.8136 60.4033 34.9409 60.4033C21.0683 60.4033 9.82227 49.1573 9.82227 35.2847C9.82227 21.412 21.0683 10.166 34.9409 10.166C48.8136 10.166 60.0596 21.412 60.0596 35.2847Z" fill="url(#paint0_linear)"/>
</g>
</g>
<path d="M76.2306 51.2033L79.8564 54.9867H80.014L83.7368 51.1912V57.7637H85.192V49.1419H83.8459L79.9776 53.1435L76.2064 49.1419H74.7755V57.7637H76.2306V51.2033ZM88.0667 49.6754C88.7336 49.6754 89.061 49.3601 89.061 48.7053C89.061 48.002 88.7215 47.7473 88.0545 47.7473C87.3997 47.7473 87.0602 48.002 87.0602 48.7053C87.0602 49.4086 87.3512 49.6754 88.0667 49.6754ZM87.2542 57.7637H88.8064V50.8395H87.2542V57.7637ZM92.3815 57.7637V54.7078C92.3815 52.8283 93.3759 51.7975 95.2312 51.7975C96.4802 51.7975 97.1957 52.2462 97.5231 53.0223C97.705 53.4103 97.7777 53.8711 97.7777 54.3926V57.7637H99.2935V54.0651C99.2935 52.6706 98.7357 51.5914 97.6686 51.0093C97.1351 50.7183 96.4924 50.5728 95.692 50.5728C94.0186 50.5728 92.8423 51.3489 92.3088 52.5857L92.1754 50.8395H90.8536V57.7637H92.3815ZM106.565 57.7637V56.4419H105.607C104.492 56.4419 103.934 56.2843 103.692 55.6658C103.582 55.3384 103.522 54.8776 103.522 54.247V52.1249H106.565V50.8395H103.522V48.9115H102.273C102.273 49.3359 102.261 49.8573 102.176 50.2332C102.079 50.694 101.982 50.8153 101.424 50.8759C101.266 50.8881 100.927 50.9002 100.599 50.9123H100.211V52.1249H102.091V54.4774C102.091 56.1145 102.442 57.0361 103.364 57.4605C103.825 57.6545 104.443 57.7637 105.244 57.7637H106.565ZM108.968 49.6754C109.635 49.6754 109.962 49.3601 109.962 48.7053C109.962 48.002 109.623 47.7473 108.956 47.7473C108.301 47.7473 107.961 48.002 107.961 48.7053C107.961 49.4086 108.253 49.6754 108.968 49.6754ZM108.156 57.7637H109.708V50.8395H108.156V57.7637ZM113.283 57.7637V54.7078C113.283 52.8283 114.277 51.7975 116.133 51.7975C117.382 51.7975 118.097 52.2462 118.424 53.0223C118.606 53.4103 118.679 53.8711 118.679 54.3926V57.7637H120.195V54.0651C120.195 52.6706 119.637 51.5914 118.57 51.0093C118.036 50.7183 117.394 50.5728 116.593 50.5728C114.92 50.5728 113.744 51.3489 113.21 52.5857L113.077 50.8395H111.755V57.7637H113.283ZM125.608 60.9408H126.069C128.3 60.9408 129.585 60.5285 130.191 59.813C130.483 59.4371 130.64 59.0248 130.64 58.5398V58.5034C130.64 57.0603 129.585 56.5025 127.257 56.5025H124.953C123.425 56.5147 122.976 56.2964 122.976 55.9447C122.976 55.6416 123.195 55.4354 123.874 55.302C124.213 55.2535 124.698 55.2171 125.329 55.2171H126.178C128.821 55.2171 130.191 54.5745 130.191 53.0102C130.191 51.6763 129.282 51.0214 127.427 50.8881C128.579 50.8759 129.27 50.8153 129.658 50.5728C130.046 50.3424 130.155 49.9179 130.155 49.154V49.0812H128.518V49.1661C128.518 49.9665 128.312 50.3666 127.693 50.5243C127.39 50.6091 126.966 50.6455 126.408 50.6577C126.056 50.6698 125.62 50.6698 125.377 50.7183C123.049 50.7789 121.861 51.652 121.861 52.998C121.861 54.1864 122.625 54.7321 124.068 54.9261C122.382 54.9867 121.667 55.5931 121.667 56.3934C121.667 57.2544 122.37 57.5818 123.765 57.6303C122.237 57.7879 121.485 58.2609 121.485 59.2067C121.485 59.9585 121.97 60.48 123.182 60.7346C123.789 60.8801 124.589 60.9408 125.608 60.9408ZM126.032 54.1985C124.298 54.1985 123.352 53.956 123.352 53.0102C123.352 52.2098 123.959 51.8218 125.389 51.7611C125.632 51.7126 125.947 51.7126 126.141 51.7126C127.997 51.7126 128.736 52.1249 128.736 52.998C128.736 53.8954 127.863 54.1985 126.032 54.1985ZM126.226 59.7403H125.838C123.825 59.7403 123.013 59.425 123.013 58.7095C123.013 57.9334 123.837 57.6424 125.208 57.6303H127.087C128.239 57.6303 128.809 57.7637 129.052 58.0426C129.185 58.176 129.234 58.3579 129.234 58.564V58.6004C129.234 59.0369 128.942 59.4007 128.069 59.5947C127.633 59.6918 127.027 59.7403 126.226 59.7403Z" fill="black" fill-opacity="0.5"/>
<path d="M82.869 41.1614C86.1181 41.1614 88.4388 40.1322 89.69 37.6702C90.3156 36.419 90.6183 34.8247 90.6183 32.8067V26.3691H87.0666V32.7058C87.0666 35.3494 86.4813 36.8024 85.2301 37.428C84.6045 37.7509 83.8578 37.9124 82.9094 37.9124C81.0528 37.9124 79.7814 37.3069 79.1356 35.7934C78.8127 35.0265 78.6513 33.9973 78.6513 32.7058V26.3691H75.0995V32.8067C75.0995 36.863 76.2901 39.2241 78.6109 40.334C79.7814 40.8789 81.1738 41.1614 82.869 41.1614ZM96.6039 40.7578V35.632C96.6039 32.9076 97.7542 31.5151 100.438 31.5151C103.001 31.5151 103.849 32.8874 103.849 35.2485V40.7578H107.32V34.4211C107.32 32.1004 106.391 30.385 104.696 29.4567C103.829 28.9724 102.799 28.7504 101.589 28.7504C99.0458 28.7504 97.3102 29.8805 96.3819 31.6967L96.0994 29.1742H93.1127V40.7578H96.6039ZM111.76 27.3983C113.253 27.3983 113.98 26.7727 113.98 25.3197C113.98 23.8062 113.193 23.2815 111.76 23.2815C110.347 23.2815 109.54 23.8062 109.54 25.3197C109.54 26.8938 110.186 27.3983 111.76 27.3983ZM109.924 40.7578H113.455V29.1742H109.924V40.7578ZM121.055 40.7578H124.304L130.944 29.1742H127.109L122.771 37.2868L118.553 29.1742H114.759L121.055 40.7578ZM146.255 37.3069H142.481C141.916 38.094 140.907 38.4976 138.788 38.4976C135.983 38.4976 134.691 37.7106 134.287 36.197H146.396V34.966C146.396 32.3627 145.165 30.5061 142.884 29.4971C141.714 28.9926 140.382 28.7504 138.768 28.7504C135.296 28.7504 133.056 30.0218 131.886 31.9995C131.321 32.9681 131.038 34.0175 131.038 35.188C131.038 37.5491 131.906 39.3654 134.106 40.3946C135.216 40.8789 136.669 41.1412 138.505 41.1412C142.339 41.1412 145.003 40.1726 146.255 37.3069ZM138.868 31.3739C141.351 31.3739 142.622 32.06 143.005 33.7552H134.368C134.852 32.2416 136.305 31.3739 138.868 31.3739ZM148.471 40.7578H151.962V36.9235C151.962 34.6431 152.386 33.3919 153.678 32.8269C154.324 32.5242 155.252 32.4031 156.463 32.4031H158.017V29.0531H156.543C153.859 29.0531 152.447 30.3245 151.821 32.4031L151.438 29.1742H148.471V40.7578ZM166.995 41.1412C171.516 41.1412 173.816 39.4461 173.816 37.1253C173.816 35.9145 173.473 35.0871 172.464 34.5422C171.495 33.9772 169.82 33.6946 167.177 33.5937C165.24 33.513 164.15 33.4121 163.585 33.2507C163.02 33.069 162.919 32.8269 162.919 32.4838C162.919 32.06 163.221 31.6564 164.109 31.4142C164.574 31.273 165.199 31.2326 166.047 31.2326C168.206 31.2326 169.619 31.5958 169.942 32.7865H173.655C172.807 29.9814 170.446 28.7504 166.087 28.7504C163.141 28.7504 161.264 29.4971 160.315 30.7079C159.831 31.2931 159.609 31.9793 159.609 32.7663C159.609 35.0669 161.405 36.0154 166.006 36.1566C167.944 36.2172 169.094 36.2979 169.679 36.4594C170.264 36.6006 170.426 36.8226 170.426 37.206C170.426 38.0133 169.699 38.5178 167.177 38.5178C164.493 38.5178 163.504 38.0536 163.121 36.9235H159.185C159.771 39.7891 162.233 41.1412 166.995 41.1412ZM190.695 37.3069H186.921C186.356 38.094 185.347 38.4976 183.228 38.4976C180.423 38.4976 179.132 37.7106 178.728 36.197H190.836V34.966C190.836 32.3627 189.605 30.5061 187.325 29.4971C186.154 28.9926 184.823 28.7504 183.208 28.7504C179.737 28.7504 177.497 30.0218 176.327 31.9995C175.761 32.9681 175.479 34.0175 175.479 35.188C175.479 37.5491 176.347 39.3654 178.546 40.3946C179.656 40.8789 181.109 41.1412 182.946 41.1412C186.78 41.1412 189.444 40.1726 190.695 37.3069ZM183.309 31.3739C185.791 31.3739 187.063 32.06 187.446 33.7552H178.809C179.293 32.2416 180.746 31.3739 183.309 31.3739Z" fill="black"/>
<defs>
<filter id="filter0_f" x="-1.17273" y="-0.828976" width="72.2273" height="72.2273" filterUnits="userSpaceOnUse" color-interpolation-filters="sRGB">
<feFlood flood-opacity="0" result="BackgroundImageFix"/>
<feBlend mode="normal" in="SourceGraphic" in2="BackgroundImageFix" result="shape"/>
<feGaussianBlur stdDeviation="5.4975" result="effect1_foregroundBlur"/>
</filter>
<linearGradient id="paint0_linear" x1="16.5051" y1="19.1277" x2="51.3218" y2="53.9443" gradientUnits="userSpaceOnUse">
<stop stop-color="#BFEF00"/>
<stop offset="1" stop-color="#00EAEA"/>
</linearGradient>
</defs>
</svg>
