<svg width="192" height="71" viewBox="0 0 192 71" fill="none" xmlns="http://www.w3.org/2000/svg">
<mask id="mask0" mask-type="alpha" maskUnits="userSpaceOnUse" x="0" y="0" width="71" height="71">
<path fill-rule="evenodd" clip-rule="evenodd" d="M35.1004 70.2009C54.4859 70.2009 70.2009 54.4859 70.2009 35.1004C70.2009 15.715 54.4859 0 35.1004 0C15.715 0 0 15.715 0 35.1004C0 54.4859 15.715 70.2009 35.1004 70.2009ZM50.0973 28.6609C45.3698 28.7424 41.5388 24.9114 41.5388 20.1839C41.5388 18.7167 41.9464 17.2496 42.5985 16.0269C40.2347 15.1303 37.7079 14.6413 35.0996 14.6413C23.7698 14.6413 14.6408 23.8518 14.6408 35.1816C14.6408 46.5114 23.8513 55.6404 35.1811 55.5589C46.5109 55.4774 55.6399 46.3484 55.5584 35.0186C55.5584 32.4103 55.0694 29.8835 54.1728 27.6013C52.9501 28.3348 51.5645 28.6609 50.0973 28.6609ZM56.4586 20.1027C56.4586 23.6157 53.6107 26.4635 50.0977 26.4635C46.5847 26.4635 43.7368 23.6157 43.7368 20.1027C43.7368 16.5896 46.5847 13.7418 50.0977 13.7418C53.6107 13.7418 56.4586 16.5896 56.4586 20.1027Z" fill="#C4C4C4"/>
</mask>
<g mask="url(#mask0)">
<g filter="url(#filter0_f)">
<path d="M60.0596 35.2847C60.0596 49.1573 48.8136 60.4033 34.9409 60.4033C21.0683 60.4033 9.82227 49.1573 9.82227 35.2847C9.82227 21.412 21.0683 10.166 34.9409 10.166C48.8136 10.166 60.0596 21.412 60.0596 35.2847Z" fill="url(#paint0_linear)"/>
</g>
</g>
<path d="M81.6147 55.6052L82.7303 57.7637H84.331L79.7836 49.1419H78.2193L73.7447 57.7637H75.3696L76.4489 55.6052H81.6147ZM78.9954 50.5121L80.9841 54.3683H77.0673L78.9954 50.5121ZM91.6624 55.9447L91.7958 57.7637H93.0933V50.8395H91.5654V54.0166C91.5654 55.7265 90.6074 56.7329 88.9461 56.7329C87.1393 56.7329 86.3996 55.872 86.3996 54.2592V50.8395H84.8838V54.5381C84.8838 56.7208 86.0479 57.9941 88.3762 57.9941C90.0617 57.9941 91.2016 57.218 91.6624 55.9447ZM103.86 54.817H102.248C101.969 56.1145 101.047 56.7329 99.3252 56.7329C97.2637 56.7329 96.2451 55.9447 96.2451 54.3319C96.2451 52.6221 97.4456 51.7975 99.3252 51.7975C100.986 51.7975 101.981 52.4281 102.235 53.7135H103.86C103.557 51.6763 101.932 50.5728 99.3131 50.5728C97.5062 50.5728 96.0753 51.167 95.2992 52.3068C94.8991 52.8646 94.7051 53.5316 94.7051 54.3319C94.7051 56.6359 96.0753 57.9941 99.2767 57.9941C102.017 57.9941 103.606 56.8299 103.86 54.817ZM110.888 57.7637V56.4419H109.93C108.814 56.4419 108.256 56.2843 108.014 55.6658C107.905 55.3384 107.844 54.8776 107.844 54.247V52.1249H110.888V50.8395H107.844V48.9115H106.595C106.595 49.3359 106.583 49.8573 106.498 50.2332C106.401 50.694 106.304 50.8153 105.746 50.8759C105.589 50.8881 105.249 50.9002 104.922 50.9123H104.534V52.1249H106.413V54.4774C106.413 56.1145 106.765 57.0361 107.686 57.4605C108.147 57.6545 108.766 57.7637 109.566 57.7637H110.888ZM113.29 49.6754C113.957 49.6754 114.285 49.3601 114.285 48.7053C114.285 48.002 113.945 47.7473 113.278 47.7473C112.623 47.7473 112.284 48.002 112.284 48.7053C112.284 49.4086 112.575 49.6754 113.29 49.6754ZM112.478 57.7637H114.03V50.8395H112.478V57.7637ZM120.213 57.9941C123.354 57.9941 124.882 56.5874 124.882 54.3319C124.882 52.7191 124.069 51.5914 122.675 51.0093C121.971 50.7183 121.183 50.5728 120.261 50.5728C118.455 50.5728 117.048 51.167 116.248 52.3068C115.86 52.8646 115.666 53.5316 115.666 54.3319C115.666 56.6359 117.048 57.9941 120.213 57.9941ZM120.249 56.7329C118.224 56.7329 117.206 55.9447 117.206 54.3319C117.206 52.6221 118.406 51.7975 120.286 51.7975C122.214 51.7975 123.342 52.6706 123.342 54.3319C123.342 55.9447 122.335 56.7329 120.249 56.7329ZM128.062 57.7637V54.7078C128.062 52.8283 129.056 51.7975 130.911 51.7975C132.16 51.7975 132.876 52.2462 133.203 53.0223C133.385 53.4103 133.458 53.8711 133.458 54.3926V57.7637H134.974V54.0651C134.974 52.6706 134.416 51.5914 133.349 51.0093C132.815 50.7183 132.173 50.5728 131.372 50.5728C129.699 50.5728 128.523 51.3489 127.989 52.5857L127.856 50.8395H126.534V57.7637H128.062ZM140.847 57.9941C142.678 57.9941 143.855 57.5575 144.424 56.8542C144.716 56.5147 144.861 56.1145 144.861 55.6779C144.861 54.72 144.412 54.1985 143.26 53.9196C142.678 53.7741 141.902 53.6892 140.896 53.6529C139.307 53.5922 138.531 53.4831 138.24 53.2406C138.095 53.1072 138.022 52.9495 138.022 52.7434C138.022 52.3553 138.276 52.0279 138.931 51.8339C139.271 51.7369 139.707 51.6884 140.277 51.6884C141.817 51.6884 142.836 52.0279 143.139 52.9859H144.764C144.243 51.3003 142.8 50.5728 140.277 50.5728C137.779 50.5728 136.554 51.5307 136.554 52.8525C136.554 53.7499 137.04 54.2834 138.179 54.5623C138.749 54.6957 139.477 54.7685 140.399 54.8049C142.023 54.8534 142.8 54.9625 143.127 55.205C143.285 55.3142 143.369 55.4961 143.369 55.7022C143.369 56.1266 143.103 56.4662 142.387 56.6602C142.036 56.7572 141.551 56.8057 140.92 56.8057C139.283 56.8057 138.252 56.5147 137.961 55.4233H136.239C136.615 57.2544 138.252 57.9941 140.847 57.9941Z" fill="black" fill-opacity="0.5"/>
<path d="M82.869 41.1614C86.1181 41.1614 88.4388 40.1322 89.69 37.6702C90.3156 36.419 90.6183 34.8247 90.6183 32.8067V26.3691H87.0666V32.7058C87.0666 35.3494 86.4813 36.8024 85.2301 37.428C84.6045 37.7509 83.8578 37.9124 82.9094 37.9124C81.0528 37.9124 79.7814 37.3069 79.1356 35.7934C78.8127 35.0265 78.6513 33.9973 78.6513 32.7058V26.3691H75.0995V32.8067C75.0995 36.863 76.2901 39.2241 78.6109 40.334C79.7814 40.8789 81.1738 41.1614 82.869 41.1614ZM96.6039 40.7578V35.632C96.6039 32.9076 97.7542 31.5151 100.438 31.5151C103.001 31.5151 103.849 32.8874 103.849 35.2485V40.7578H107.32V34.4211C107.32 32.1004 106.391 30.385 104.696 29.4567C103.829 28.9724 102.799 28.7504 101.589 28.7504C99.0458 28.7504 97.3102 29.8805 96.3819 31.6967L96.0994 29.1742H93.1127V40.7578H96.6039ZM111.76 27.3983C113.253 27.3983 113.98 26.7727 113.98 25.3197C113.98 23.8062 113.193 23.2815 111.76 23.2815C110.347 23.2815 109.54 23.8062 109.54 25.3197C109.54 26.8938 110.186 27.3983 111.76 27.3983ZM109.924 40.7578H113.455V29.1742H109.924V40.7578ZM121.055 40.7578H124.304L130.944 29.1742H127.109L122.771 37.2868L118.553 29.1742H114.759L121.055 40.7578ZM146.255 37.3069H142.481C141.916 38.094 140.907 38.4976 138.788 38.4976C135.983 38.4976 134.691 37.7106 134.287 36.197H146.396V34.966C146.396 32.3627 145.165 30.5061 142.884 29.4971C141.714 28.9926 140.382 28.7504 138.768 28.7504C135.296 28.7504 133.056 30.0218 131.886 31.9995C131.321 32.9681 131.038 34.0175 131.038 35.188C131.038 37.5491 131.906 39.3654 134.106 40.3946C135.216 40.8789 136.669 41.1412 138.505 41.1412C142.339 41.1412 145.003 40.1726 146.255 37.3069ZM138.868 31.3739C141.351 31.3739 142.622 32.06 143.005 33.7552H134.368C134.852 32.2416 136.305 31.3739 138.868 31.3739ZM148.471 40.7578H151.962V36.9235C151.962 34.6431 152.386 33.3919 153.678 32.8269C154.324 32.5242 155.252 32.4031 156.463 32.4031H158.017V29.0531H156.543C153.859 29.0531 152.447 30.3245 151.821 32.4031L151.438 29.1742H148.471V40.7578ZM166.995 41.1412C171.516 41.1412 173.816 39.4461 173.816 37.1253C173.816 35.9145 173.473 35.0871 172.464 34.5422C171.495 33.9772 169.82 33.6946 167.177 33.5937C165.24 33.513 164.15 33.4121 163.585 33.2507C163.02 33.069 162.919 32.8269 162.919 32.4838C162.919 32.06 163.221 31.6564 164.109 31.4142C164.574 31.273 165.199 31.2326 166.047 31.2326C168.206 31.2326 169.619 31.5958 169.942 32.7865H173.655C172.807 29.9814 170.446 28.7504 166.087 28.7504C163.141 28.7504 161.264 29.4971 160.315 30.7079C159.831 31.2931 159.609 31.9793 159.609 32.7663C159.609 35.0669 161.405 36.0154 166.006 36.1566C167.944 36.2172 169.094 36.2979 169.679 36.4594C170.264 36.6006 170.426 36.8226 170.426 37.206C170.426 38.0133 169.699 38.5178 167.177 38.5178C164.493 38.5178 163.504 38.0536 163.121 36.9235H159.185C159.771 39.7891 162.233 41.1412 166.995 41.1412ZM190.695 37.3069H186.921C186.356 38.094 185.347 38.4976 183.228 38.4976C180.423 38.4976 179.132 37.7106 178.728 36.197H190.836V34.966C190.836 32.3627 189.605 30.5061 187.325 29.4971C186.154 28.9926 184.823 28.7504 183.208 28.7504C179.737 28.7504 177.497 30.0218 176.327 31.9995C175.761 32.9681 175.479 34.0175 175.479 35.188C175.479 37.5491 176.347 39.3654 178.546 40.3946C179.656 40.8789 181.109 41.1412 182.946 41.1412C186.78 41.1412 189.444 40.1726 190.695 37.3069ZM183.309 31.3739C185.791 31.3739 187.063 32.06 187.446 33.7552H178.809C179.293 32.2416 180.746 31.3739 183.309 31.3739Z" fill="black"/>
<defs>
<filter id="filter0_f" x="-1.17273" y="-0.828976" width="72.2273" height="72.2273" filterUnits="userSpaceOnUse" color-interpolation-filters="sRGB">
<feFlood flood-opacity="0" result="BackgroundImageFix"/>
<feBlend mode="normal" in="SourceGraphic" in2="BackgroundImageFix" result="shape"/>
<feGaussianBlur stdDeviation="5.4975" result="effect1_foregroundBlur"/>
</filter>
<linearGradient id="paint0_linear" x1="16.5051" y1="19.1277" x2="51.3218" y2="53.9443" gradientUnits="userSpaceOnUse">
<stop stop-color="#BFEF00"/>
<stop offset="1" stop-color="#00EAEA"/>
</linearGradient>
</defs>
</svg>
