<svg width="20" height="20" viewBox="0 0 20 20" fill="none" xmlns="http://www.w3.org/2000/svg">
<path d="M10 20C15.5417 20 20 15.5417 20 10C20 4.4583 15.5417 0 10 0C4.4583 0 0 4.4583 0 10C0 15.5417 4.4583 20 10 20Z" fill="#2775CA"/>
<path d="M12.7503 11.5835C12.7503 10.1252 11.8753 9.62519 10.1253 9.41689C8.87529 9.25019 8.62529 8.91689 8.62529 8.3335C8.62529 7.7501 9.04199 7.3752 9.87529 7.3752C10.6253 7.3752 11.042 7.6252 11.2503 8.25019C11.292 8.37519 11.417 8.4585 11.542 8.4585H12.2086C12.3753 8.4585 12.5003 8.33349 12.5003 8.16689V8.1252C12.3336 7.2085 11.5836 6.5002 10.6253 6.4169V5.4169C10.6253 5.2502 10.5003 5.1252 10.292 5.0835H9.66699C9.50029 5.0835 9.37529 5.2085 9.33359 5.4169V6.3752C8.08359 6.5419 7.29199 7.3752 7.29199 8.41689C7.29199 9.79189 8.12529 10.3335 9.87529 10.5419C11.042 10.7502 11.417 11.0002 11.417 11.6669C11.417 12.3336 10.8336 12.7919 10.042 12.7919C8.95859 12.7919 8.58359 12.3335 8.45859 11.7085C8.41699 11.5419 8.29199 11.4585 8.16699 11.4585H7.45859C7.29199 11.4585 7.16699 11.5835 7.16699 11.7502V11.7919C7.33359 12.8335 8.00029 13.5835 9.37529 13.7919V14.7919C9.37529 14.9585 9.50029 15.0835 9.70859 15.1252H10.3336C10.5003 15.1252 10.6253 15.0002 10.667 14.7919V13.7919C11.917 13.5835 12.7503 12.7085 12.7503 11.5835V11.5835Z" fill="white"/>
<path d="M7.87484 15.9583C4.62484 14.7917 2.95814 11.1667 4.16654 7.95835C4.79154 6.20835 6.16654 4.87505 7.87484 4.25005C8.04154 4.16675 8.12484 4.04175 8.12484 3.83335V3.25005C8.12484 3.08335 8.04154 2.95835 7.87484 2.91675C7.83314 2.91675 7.74984 2.91675 7.70814 2.95835C3.74984 4.20835 1.58314 8.41675 2.83314 12.375C3.58314 14.7083 5.37484 16.5 7.70814 17.25C7.87484 17.3333 8.04154 17.25 8.08314 17.0833C8.12484 17.0417 8.12484 17.0001 8.12484 16.9168V16.3333C8.12484 16.2083 7.99984 16.0417 7.87484 15.9583ZM12.2915 2.95835C12.1248 2.87505 11.9581 2.95835 11.9165 3.12505C11.8748 3.16675 11.8748 3.20835 11.8748 3.29175V3.87505C11.8748 4.04175 11.9998 4.20835 12.1248 4.29175C15.3748 5.45835 17.0415 9.08335 15.8331 12.2917C15.2081 14.0417 13.8331 15.375 12.1248 16C11.9581 16.0833 11.8748 16.2084 11.8748 16.4168V17C11.8748 17.1667 11.9581 17.2917 12.1248 17.3333C12.1665 17.3333 12.2498 17.3334 12.2915 17.2918C16.2498 16.0418 18.4165 11.8333 17.1665 7.87505C16.4165 5.50005 14.5831 3.70835 12.2915 2.95835V2.95835Z" fill="white"/>
</svg>
