<svg width="14" height="10" viewBox="0 0 14 10" fill="none" xmlns="http://www.w3.org/2000/svg">
<path d="M9.66683 7.83333C9.66683 8.40797 9.43856 8.95907 9.03223 9.3654C8.6259 9.77173 8.0748 10 7.50016 10H2.50016C1.92553 10 1.37443 9.77173 0.968098 9.3654C0.561769 8.95907 0.333496 8.40797 0.333496 7.83333V2.16667C0.333496 1.59203 0.561769 1.04093 0.968098 0.634602C1.37443 0.228273 1.92553 0 2.50016 0H7.50016C8.0748 0 8.6259 0.228273 9.03223 0.634602C9.43856 1.04093 9.66683 1.59203 9.66683 2.16667V7.83333ZM13.5082 0.928667C13.6107 1.04927 13.6669 1.2024 13.6668 1.36067V8.63933C13.6669 8.76664 13.6305 8.89131 13.5619 8.99858C13.4934 9.10585 13.3955 9.19126 13.28 9.24469C13.1644 9.29812 13.036 9.31734 12.9098 9.30009C12.7837 9.28284 12.6651 9.22983 12.5682 9.14733L10.3335 7.24667V2.752L12.5682 0.852667C12.6349 0.795913 12.7121 0.752858 12.7954 0.725961C12.8788 0.699064 12.9666 0.688853 13.0539 0.695911C13.1412 0.702969 13.2263 0.727157 13.3042 0.767094C13.3821 0.807031 13.4514 0.861935 13.5082 0.928667Z" fill="white"/>
</svg>
