<svg width="20" height="20" viewBox="0 0 20 20" fill="none" xmlns="http://www.w3.org/2000/svg">
<g clip-path="url(#clip0_7176:130203)">
<circle cx="10" cy="10" r="10" fill="white"/>
<path d="M16.3079 4.19738L15.7588 4.74653C17.0691 6.1795 17.7958 8.05097 17.7958 9.99273C17.7958 11.9345 17.0691 13.806 15.7588 15.2389L16.3079 15.7881C17.7652 14.2074 18.5743 12.1362 18.5743 9.98633C18.5743 7.83642 17.7652 5.76524 16.3079 4.18457V4.19738Z" fill="#5A5564"/>
<path d="M4.75923 4.24491C6.1922 2.93455 8.06367 2.20788 10.0054 2.20788C11.9472 2.20788 13.8187 2.93455 15.2516 4.24491L15.8008 3.69576C14.2201 2.2385 12.1489 1.42944 9.99902 1.42944C7.84911 1.42944 5.77793 2.2385 4.19727 3.69576L4.75923 4.24491Z" fill="#5A5564"/>
<path d="M4.24515 15.2446C2.93634 13.8119 2.21064 11.9416 2.21064 10.0011C2.21064 8.06062 2.93634 6.19029 4.24515 4.75764L3.696 4.2085C2.23874 5.78916 1.42969 7.86034 1.42969 10.0103C1.42969 12.1602 2.23874 14.2313 3.696 15.812L4.24515 15.2446Z" fill="#5A5564"/>
<path d="M15.2442 15.7515C13.8112 17.0618 11.9397 17.7885 9.99799 17.7885C8.05622 17.7885 6.18476 17.0618 4.75179 15.7515L4.20264 16.3006C5.7833 17.7579 7.85448 18.5669 10.0044 18.5669C12.1543 18.5669 14.2255 17.7579 15.8062 16.3006L15.2442 15.7515Z" fill="#5A5564"/>
<path d="M13.4671 8.16772C13.3573 7.02183 12.3688 6.63742 11.1186 6.52027V4.94238H10.1521V6.49098C9.89763 6.49098 9.6377 6.49098 9.3796 6.49098V4.94238H8.42042V6.53125H6.45996V7.56548C6.45996 7.56548 7.17385 7.55267 7.16287 7.56548C7.29159 7.55132 7.42078 7.58768 7.52322 7.6669C7.62566 7.74612 7.69335 7.86202 7.71202 7.99016V12.3394C7.70927 12.3846 7.69749 12.4288 7.67736 12.4694C7.65724 12.5099 7.62919 12.546 7.59487 12.5756C7.56119 12.6056 7.52178 12.6286 7.479 12.6431C7.43622 12.6576 7.39095 12.6632 7.34592 12.6598C7.35873 12.6707 6.64301 12.6598 6.64301 12.6598L6.45996 13.8148H8.40212V15.4293H9.36862V13.8386H10.1411V15.422H11.1094V13.8258C12.7422 13.7269 13.8808 13.3242 14.0236 11.7958C14.1389 10.5657 13.5605 10.0165 12.6361 9.79503C13.198 9.51862 13.5458 9.00608 13.4671 8.16772ZM12.1125 11.6054C12.1125 12.8062 10.0551 12.6689 9.39974 12.6689V10.5382C10.0551 10.54 12.1125 10.3515 12.1125 11.6054ZM11.6641 8.60338C11.6641 9.70167 9.94706 9.56805 9.40157 9.56805V7.63138C9.94706 7.63138 11.6641 7.45932 11.6641 8.60338Z" fill="#F09242"/>
<path d="M9.99817 20C8.02052 19.9996 6.08737 19.4129 4.44316 18.3139C2.79895 17.215 1.51751 15.6532 0.760859 13.826C0.00420949 11.9988 -0.19367 9.98829 0.192241 8.04865C0.578152 6.10901 1.53052 4.32735 2.92894 2.92894C4.32735 1.53052 6.10901 0.578152 8.04865 0.192241C9.98829 -0.19367 11.9988 0.00420949 13.826 0.760859C15.6532 1.51751 17.215 2.79895 18.3139 4.44316C19.4129 6.08737 19.9996 8.02052 20 9.99817C20.0002 11.3117 19.7417 12.6124 19.2391 13.826C18.7366 15.0396 17.9999 16.1423 17.0711 17.0711C16.1423 17.9999 15.0396 18.7366 13.826 19.2391C12.6124 19.7417 11.3117 20.0002 9.99817 20V20ZM9.99817 0.779796C8.17614 0.781244 6.39544 1.32282 4.88113 2.33606C3.36682 3.3493 2.18688 4.78874 1.49046 6.47242C0.794033 8.1561 0.612381 10.0085 0.968463 11.7954C1.32454 13.5823 2.20237 15.2235 3.491 16.5116C4.77963 17.7997 6.4212 18.6769 8.20824 19.0323C9.99528 19.3876 11.8476 19.2052 13.531 18.5081C15.2144 17.8111 16.6533 16.6305 17.666 15.1158C18.6786 13.6011 19.2195 11.8202 19.2202 9.99817C19.2207 8.78716 18.9825 7.58792 18.5191 6.46904C18.0558 5.35016 17.3765 4.33358 16.52 3.47743C15.6635 2.62128 14.6467 1.94235 13.5276 1.47947C12.4085 1.01659 11.2092 0.778833 9.99817 0.779796V0.779796Z" fill="#282138"/>
</g>
<defs>
<clipPath id="clip0_7176:130203">
<rect width="20" height="20" fill="white"/>
</clipPath>
</defs>
</svg>
