<?xml version="1.0" encoding="UTF-8"?>
<svg xmlns="http://www.w3.org/2000/svg" xmlns:xlink="http://www.w3.org/1999/xlink" width="24px" height="24px" viewBox="0 0 24 24" version="1.1">
<g id="surface1">
<path style=" stroke:none;fill-rule:evenodd;fill:rgb(0%,0%,0%);fill-opacity:1;" d="M 12 20.230469 C 12.105469 20.230469 12.316406 20.183594 12.636719 19.871094 C 12.964844 19.546875 13.320312 19.015625 13.648438 18.246094 C 13.984375 17.46875 14.261719 16.511719 14.453125 15.429688 L 9.546875 15.429688 C 9.738281 16.511719 10.015625 17.46875 10.351562 18.246094 C 10.679688 19.015625 11.035156 19.546875 11.363281 19.871094 C 11.679688 20.183594 11.894531 20.230469 12 20.230469 Z M 9.359375 14.058594 C 9.292969 13.402344 9.257812 12.714844 9.257812 12 C 9.257812 11.285156 9.292969 10.597656 9.359375 9.941406 L 14.640625 9.941406 C 14.707031 10.597656 14.742188 11.285156 14.742188 12 C 14.742188 12.714844 14.707031 13.402344 14.640625 14.058594 Z M 15.84375 15.429688 C 15.546875 17.246094 15.019531 18.796875 14.34375 19.890625 C 16.628906 19.210938 18.5 17.566406 19.480469 15.429688 Z M 19.96875 14.058594 L 16.019531 14.058594 C 16.082031 13.394531 16.113281 12.707031 16.113281 12 C 16.113281 11.292969 16.082031 10.605469 16.019531 9.941406 L 19.96875 9.941406 C 20.136719 10.601562 20.226562 11.289062 20.226562 12 C 20.226562 12.710938 20.136719 13.398438 19.96875 14.058594 Z M 7.980469 14.058594 L 4.03125 14.058594 C 3.859375 13.398438 3.769531 12.710938 3.769531 12 C 3.769531 11.289062 3.859375 10.601562 4.03125 9.941406 L 7.980469 9.941406 C 7.917969 10.605469 7.886719 11.292969 7.886719 12 C 7.886719 12.707031 7.917969 13.394531 7.980469 14.058594 Z M 4.515625 15.429688 L 8.15625 15.429688 C 8.453125 17.246094 8.980469 18.796875 9.65625 19.890625 C 7.367188 19.210938 5.5 17.566406 4.515625 15.429688 Z M 9.546875 8.570312 L 14.453125 8.570312 C 14.261719 7.488281 13.984375 6.53125 13.648438 5.753906 C 13.320312 4.984375 12.964844 4.453125 12.636719 4.128906 C 12.316406 3.816406 12.105469 3.769531 12 3.769531 C 11.894531 3.769531 11.679688 3.816406 11.363281 4.128906 C 11.035156 4.453125 10.679688 4.984375 10.351562 5.753906 C 10.015625 6.53125 9.738281 7.488281 9.546875 8.570312 Z M 15.84375 8.570312 L 19.484375 8.570312 C 18.5 6.433594 16.628906 4.789062 14.34375 4.109375 C 15.019531 5.203125 15.546875 6.753906 15.84375 8.570312 Z M 9.65625 4.109375 C 8.980469 5.203125 8.453125 6.753906 8.15625 8.570312 L 4.515625 8.570312 C 5.5 6.433594 7.371094 4.789062 9.65625 4.109375 Z M 12 2.398438 C 17.300781 2.398438 21.601562 6.699219 21.601562 12 C 21.601562 17.300781 17.300781 21.601562 12 21.601562 C 6.699219 21.601562 2.398438 17.300781 2.398438 12 C 2.398438 6.699219 6.699219 2.398438 12 2.398438 Z M 12 2.398438 "/>
</g>
</svg>
