<svg width="20" height="20" viewBox="0 0 20 20" fill="none" xmlns="http://www.w3.org/2000/svg">
<path d="M5.60636 19.8361C10.6334 19.8361 10.6334 19.7612 11.4858 19.5082C12.5997 19.1775 8.34076 16.2295 5.60636 16.2295C2.87195 16.2295 0.655273 17.0368 0.655273 18.0328C0.655273 19.0287 2.87206 19.8361 5.60636 19.8361Z" fill="black"/>
<path d="M17.0214 4.50137L17.2527 4.75055L17.0505 5.02385C10.4943 13.8883 6.71755 17.9019 5.1151 17.3636C4.13904 17.0357 3.1602 16.0496 2.18133 14.6177C1.83726 14.1144 1.51417 13.5845 1.22032 13.0571C1.02464 12.7059 0.859015 12.3855 0.773019 12.2051C0.663321 11.975 0.617007 11.8332 0.580263 11.647C0.578021 11.6356 0.578021 11.6356 0.575891 11.6246C0.560555 11.5456 0.555249 11.5206 0.543785 11.4774C0.346507 10.7339 0.245605 9.96356 0.245605 9.18028C0.245605 4.24593 4.24568 0.24585 9.18003 0.24585C10.7259 0.24585 12.2156 0.639278 13.5358 1.37781L13.5699 1.39914C14.6508 2.15169 15.8006 3.18575 17.0214 4.50137ZM13.1182 2.0834C11.9238 1.41913 10.578 1.06552 9.18003 1.06552C4.69838 1.06552 1.06528 4.69862 1.06528 9.18028C1.06528 9.89244 1.15692 10.5921 1.33604 11.2672C1.35376 11.334 1.36177 11.3717 1.38056 11.4685C1.38253 11.4787 1.38253 11.4787 1.38443 11.4883C1.40814 11.6085 1.43316 11.6851 1.51293 11.8524C1.59138 12.017 1.74904 12.3219 1.93635 12.6581C2.21878 13.165 2.52914 13.6741 2.858 14.1552C3.74239 15.4488 4.61948 16.3324 5.37611 16.5866C6.38527 16.9256 10.1843 12.904 16.1881 4.81099C15.0981 3.66047 14.0742 2.75126 13.1182 2.0834Z" fill="black"/>
<path d="M13.1183 2.08331C11.9239 1.41904 10.5782 1.06543 9.18018 1.06543C4.69853 1.06543 1.06543 4.69853 1.06543 9.18018C1.06543 9.89235 1.15708 10.592 1.3362 11.2671C1.35391 11.3339 1.36192 11.3716 1.38071 11.4684C1.38268 11.4786 1.38268 11.4786 1.38458 11.4882C1.40829 11.6084 1.43331 11.685 1.51309 11.8523C1.59154 12.0169 1.74919 12.3218 1.9365 12.658C2.21893 13.1649 2.5293 13.674 2.85815 14.1551C3.74254 15.4487 4.61963 16.3323 5.37627 16.5865C6.38542 16.9255 10.1845 12.9039 16.1883 4.8109C15.0983 3.66037 14.0744 2.75117 13.1183 2.08331Z" fill="#EC1C79"/>
<path d="M10.8192 19.7541C5.88484 19.7541 1.88477 15.754 1.88477 10.8197C1.88477 5.88533 5.88484 1.88525 10.8192 1.88525C15.7535 1.88525 19.7536 5.88533 19.7536 10.8197C19.7536 15.754 15.7535 19.7541 10.8192 19.7541ZM10.8192 18.9344C15.3008 18.9344 18.9339 15.3013 18.9339 10.8197C18.9339 6.33803 15.3008 2.70493 10.8192 2.70493C6.33754 2.70493 2.70444 6.33803 2.70444 10.8197C2.70444 15.3013 6.33754 18.9344 10.8192 18.9344Z" fill="black"/>
<path d="M10.8198 18.9343C15.3015 18.9343 18.9346 15.3012 18.9346 10.8196C18.9346 6.33793 15.3015 2.70483 10.8198 2.70483C6.33818 2.70483 2.70508 6.33793 2.70508 10.8196C2.70508 15.3012 6.33818 18.9343 10.8198 18.9343Z" fill="white"/>
<path fill-rule="evenodd" clip-rule="evenodd" d="M4.74939 12.4821L3.67529 9.246H4.61628L5.17628 11.105L5.79595 9.23682H6.56251L7.18218 11.105L7.74218 9.246H8.6648L7.5907 12.4821H6.81496L6.16775 10.6322L5.52513 12.4821H4.74939ZM9.01824 12.4591V9.246H11.6025V10.0034H9.89956V10.4899H11.4419V11.1922H9.89956V11.7017H11.6255V12.4591H9.01824ZM12.8648 12.4591V10.0263H11.9009V9.246H14.7192V10.0263H13.7553V12.4591H12.8648ZM15.1094 12.4591V9.246H15.9999V10.4486H17.1428V9.246H18.0333V12.4591H17.1428V11.2381H15.9999V12.4591H15.1094Z" fill="black"/>
<path d="M0.778253 8.27934C0.551508 8.16597 0.459602 7.89025 0.572974 7.66351C0.686346 7.43676 0.962065 7.34486 1.18881 7.45823L2.50028 8.11397C2.72703 8.22734 2.81894 8.50306 2.70556 8.7298C2.59219 8.95654 2.31647 9.04845 2.08973 8.93508L0.778253 8.27934Z" fill="black"/>
<path d="M0.627133 10.454C0.396956 10.3478 0.296477 10.0751 0.402706 9.84491C0.508936 9.61473 0.781647 9.51425 1.01182 9.62048L2.3233 10.2257C2.55348 10.332 2.65396 10.6047 2.54773 10.8349C2.4415 11.065 2.16879 11.1655 1.93861 11.0593L0.627133 10.454Z" fill="black"/>
</svg>
