<svg width="25" height="25" viewBox="0 0 25 25" fill="none" xmlns="http://www.w3.org/2000/svg">
<circle cx="13" cy="13" r="8.5" stroke="#E4B613"/>
<path d="M12 16.005C12 15.8737 12.0259 15.7436 12.0761 15.6223C12.1264 15.501 12.2 15.3908 12.2929 15.2979C12.3858 15.205 12.496 15.1314 12.6173 15.0811C12.7386 15.0309 12.8687 15.005 13 15.005C13.1313 15.005 13.2614 15.0309 13.3827 15.0811C13.504 15.1314 13.6142 15.205 13.7071 15.2979C13.8 15.3908 13.8736 15.501 13.9239 15.6223C13.9741 15.7436 14 15.8737 14 16.005C14 16.2702 13.8946 16.5246 13.7071 16.7121C13.5196 16.8996 13.2652 17.005 13 17.005C12.7348 17.005 12.4804 16.8996 12.2929 16.7121C12.1054 16.5246 12 16.2702 12 16.005ZM12.098 10C12.0847 9.87384 12.098 9.74629 12.1372 9.62563C12.1764 9.50496 12.2405 9.39388 12.3253 9.29959C12.4102 9.20529 12.5139 9.12989 12.6298 9.07828C12.7457 9.02667 12.8711 9 12.998 9C13.1249 9 13.2503 9.02667 13.3662 9.07828C13.4821 9.12989 13.5858 9.20529 13.6707 9.29959C13.7555 9.39388 13.8196 9.50496 13.8588 9.62563C13.898 9.74629 13.9113 9.87384 13.898 10L13.548 13.507C13.5338 13.643 13.4697 13.7688 13.3681 13.8603C13.2666 13.9518 13.1347 14.0025 12.998 14.0025C12.8613 14.0025 12.7294 13.9518 12.6279 13.8603C12.5263 13.7688 12.4622 13.643 12.448 13.507L12.098 10Z" fill="#E4B613"/>
</svg>
