<svg width="22" height="16" viewBox="0 0 22 16" fill="none" xmlns="http://www.w3.org/2000/svg">
<path d="M21.332 2.38626C21.081 1.45316 20.3453 0.717606 19.4123 0.466351C17.7079 0 10.8901 0 10.8901 0C10.8901 0 4.0726 0 2.36818 0.44867C1.45316 0.69966 0.699527 1.45329 0.448537 2.38626C0 4.09054 0 7.625 0 7.625C0 7.625 0 11.1773 0.448537 12.8637C0.699792 13.7967 1.43521 14.5323 2.36831 14.7835C4.09054 15.25 10.8904 15.25 10.8904 15.25C10.8904 15.25 17.7079 15.25 19.4123 14.8013C20.3454 14.5502 21.081 13.8147 21.3322 12.8817C21.7806 11.1773 21.7806 7.64295 21.7806 7.64295C21.7806 7.64295 21.7986 4.09054 21.332 2.38626V2.38626ZM8.71949 10.8903V4.35974L14.3888 7.625L8.71949 10.8903Z" fill="white" fill-opacity="0.4"/>
</svg>
