<svg width="154" height="56" viewBox="0 0 154 56" fill="none" xmlns="http://www.w3.org/2000/svg">
<mask id="mask0" mask-type="alpha" maskUnits="userSpaceOnUse" x="0" y="0" width="56" height="56">
<path fill-rule="evenodd" clip-rule="evenodd" d="M28 56C43.464 56 56 43.464 56 28C56 12.536 43.464 0 28 0C12.536 0 0 12.536 0 28C0 43.464 12.536 56 28 56ZM39.9636 22.8631C36.1923 22.9281 33.1364 19.8721 33.1364 16.1009C33.1364 14.9305 33.4615 13.7602 33.9816 12.7849C32.096 12.0696 30.0804 11.6795 27.9997 11.6795C18.9618 11.6795 11.6795 19.0269 11.6795 28.0647C11.6795 37.1026 19.0269 44.385 28.0647 44.3199C37.1026 44.2549 44.385 36.9726 44.3199 27.9347C44.3199 25.854 43.9298 23.8384 43.2146 22.0178C42.2393 22.603 41.1339 22.8631 39.9636 22.8631ZM45.0377 16.0359C45.0377 18.8383 42.766 21.1101 39.9636 21.1101C37.1612 21.1101 34.8894 18.8383 34.8894 16.0359C34.8894 13.2335 37.1612 10.9618 39.9636 10.9618C42.766 10.9618 45.0377 13.2335 45.0377 16.0359Z" fill="#C4C4C4"/>
</mask>
<g mask="url(#mask0)">
<g filter="url(#filter0_f)">
<path d="M47.9098 28.1468C47.9098 39.2131 38.9387 48.1842 27.8724 48.1842C16.806 48.1842 7.83496 39.2131 7.83496 28.1468C7.83496 17.0804 16.806 8.10938 27.8724 8.10937C38.9387 8.10937 47.9098 17.0804 47.9098 28.1468Z" fill="url(#paint0_linear)"/>
</g>
</g>
<path d="M66.106 33.4743C68.6978 33.4743 70.5491 32.6533 71.5472 30.6893C72.0463 29.6912 72.2877 28.4195 72.2877 26.8096V21.6743H69.4544V26.7291C69.4544 28.838 68.9876 29.9971 67.9895 30.4961C67.4905 30.7537 66.8948 30.8825 66.1382 30.8825C64.6572 30.8825 63.643 30.3995 63.1278 29.1922C62.8703 28.5804 62.7415 27.7594 62.7415 26.7291V21.6743H59.9082V26.8096C59.9082 30.0454 60.858 31.9289 62.7093 32.8143C63.643 33.2489 64.7538 33.4743 66.106 33.4743ZM77.0625 33.1523V29.0634C77.0625 26.8901 77.9801 25.7794 80.1212 25.7794C82.1656 25.7794 82.8418 26.874 82.8418 28.7575V33.1523H85.6107V28.0975C85.6107 26.2462 84.8701 24.8779 83.5179 24.1373C82.8257 23.751 82.0046 23.5739 81.0388 23.5739C79.0104 23.5739 77.6259 24.4754 76.8854 25.9242L76.66 23.912H74.2775V33.1523H77.0625ZM89.1528 22.4953C90.344 22.4953 90.9236 21.9963 90.9236 20.8372C90.9236 19.6298 90.2957 19.2113 89.1528 19.2113C88.0259 19.2113 87.382 19.6298 87.382 20.8372C87.382 22.0929 87.8971 22.4953 89.1528 22.4953ZM87.6878 33.1523H90.505V23.912H87.6878V33.1523ZM96.5675 33.1523H99.1593L104.456 23.912H101.397L97.9359 30.3834L94.5713 23.912H91.5449L96.5675 33.1523ZM116.669 30.3995H113.659C113.208 31.0274 112.403 31.3493 110.713 31.3493C108.475 31.3493 107.445 30.7215 107.123 29.5141H116.782V28.5322C116.782 26.4555 115.8 24.9744 113.981 24.1695C113.047 23.7671 111.985 23.5739 110.697 23.5739C107.928 23.5739 106.141 24.5881 105.207 26.1657C104.757 26.9384 104.531 27.7755 104.531 28.7092C104.531 30.5927 105.223 32.0416 106.978 32.8626C107.864 33.2489 109.023 33.4582 110.488 33.4582C113.546 33.4582 115.671 32.6855 116.669 30.3995ZM110.777 25.6667C112.757 25.6667 113.772 26.214 114.077 27.5663H107.187C107.574 26.3589 108.733 25.6667 110.777 25.6667ZM118.438 33.1523H121.223V30.0937C121.223 28.2746 121.561 27.2765 122.591 26.8257C123.106 26.5843 123.847 26.4877 124.812 26.4877H126.052V23.8154H124.877C122.736 23.8154 121.609 24.8296 121.11 26.4877L120.804 23.912H118.438V33.1523ZM133.214 33.4582C136.82 33.4582 138.656 32.106 138.656 30.2547C138.656 29.2888 138.382 28.6287 137.577 28.1941C136.804 27.7433 135.468 27.518 133.359 27.4375C131.814 27.3731 130.945 27.2926 130.494 27.1638C130.043 27.0189 129.963 26.8257 129.963 26.5521C129.963 26.214 130.204 25.892 130.912 25.6989C131.283 25.5862 131.782 25.554 132.458 25.554C134.18 25.554 135.307 25.8437 135.565 26.7935H138.527C137.851 24.5559 135.967 23.5739 132.49 23.5739C130.14 23.5739 128.642 24.1695 127.886 25.1354C127.5 25.6023 127.322 26.1496 127.322 26.7774C127.322 28.6126 128.755 29.3693 132.426 29.4819C133.971 29.5302 134.889 29.5946 135.355 29.7234C135.822 29.8361 135.951 30.0132 135.951 30.3191C135.951 30.963 135.372 31.3654 133.359 31.3654C131.218 31.3654 130.429 30.9952 130.124 30.0937H126.984C127.451 32.3796 129.415 33.4582 133.214 33.4582ZM152.12 30.3995H149.11C148.659 31.0274 147.854 31.3493 146.164 31.3493C143.926 31.3493 142.896 30.7215 142.574 29.5141H152.233V28.5322C152.233 26.4555 151.251 24.9744 149.432 24.1695C148.498 23.7671 147.435 23.5739 146.148 23.5739C143.379 23.5739 141.592 24.5881 140.658 26.1657C140.207 26.9384 139.982 27.7755 139.982 28.7092C139.982 30.5927 140.674 32.0416 142.429 32.8626C143.314 33.2489 144.473 33.4582 145.938 33.4582C148.997 33.4582 151.122 32.6855 152.12 30.3995ZM146.228 25.6667C148.208 25.6667 149.222 26.214 149.528 27.5663H142.638C143.024 26.3589 144.184 25.6667 146.228 25.6667Z" fill="black"/>
<defs>
<filter id="filter0_f" x="-0.935861" y="-0.661447" width="57.6165" height="57.6165" filterUnits="userSpaceOnUse" color-interpolation-filters="sRGB">
<feFlood flood-opacity="0" result="BackgroundImageFix"/>
<feBlend mode="normal" in="SourceGraphic" in2="BackgroundImageFix" result="shape"/>
<feGaussianBlur stdDeviation="4.38541" result="effect1_foregroundBlur"/>
</filter>
<linearGradient id="paint0_linear" x1="13.166" y1="15.2582" x2="40.9396" y2="43.0318" gradientUnits="userSpaceOnUse">
<stop stop-color="#BFEF00"/>
<stop offset="1" stop-color="#00EAEA"/>
</linearGradient>
</defs>
</svg>
