<svg width="20" height="20" viewBox="0 0 20 20" fill="none" xmlns="http://www.w3.org/2000/svg">
<path d="M10.875 6.46875V2.75H5.40625C5.02344 2.75 4.75 3.05078 4.75 3.40625V16.0938C4.75 16.4766 5.02344 16.75 5.40625 16.75H14.5938C14.9492 16.75 15.25 16.4766 15.25 16.0938V7.125H11.5312C11.1484 7.125 10.875 6.85156 10.875 6.46875ZM12.625 12.9219C12.625 13.1133 12.4609 13.25 12.2969 13.25H7.70312C7.51172 13.25 7.375 13.1133 7.375 12.9219V12.7031C7.375 12.5391 7.51172 12.375 7.70312 12.375H12.2969C12.4609 12.375 12.625 12.5391 12.625 12.7031V12.9219ZM12.625 11.1719C12.625 11.3633 12.4609 11.5 12.2969 11.5H7.70312C7.51172 11.5 7.375 11.3633 7.375 11.1719V10.9531C7.375 10.7891 7.51172 10.625 7.70312 10.625H12.2969C12.4609 10.625 12.625 10.7891 12.625 10.9531V11.1719ZM12.625 9.20312V9.42188C12.625 9.61328 12.4609 9.75 12.2969 9.75H7.70312C7.51172 9.75 7.375 9.61328 7.375 9.42188V9.20312C7.375 9.03906 7.51172 8.875 7.70312 8.875H12.2969C12.4609 8.875 12.625 9.03906 12.625 9.20312ZM15.25 6.08594C15.25 5.92188 15.168 5.75781 15.0586 5.62109L12.3789 2.94141C12.2422 2.83203 12.0781 2.75 11.9141 2.75H11.75V6.25H15.25V6.08594Z" fill="black"/>
</svg>
