<svg width="20" height="20" viewBox="0 0 20 20" fill="none" xmlns="http://www.w3.org/2000/svg">
<path d="M18.0391 6.00391L16.2617 3.16016C16.0977 2.91406 15.8242 2.75 15.5234 2.75H4.47656C4.17578 2.75 3.875 2.91406 3.71094 3.16016L1.96094 6.00391C1.03125 7.48047 1.85156 9.50391 3.54688 9.72266C3.68359 9.75 3.79297 9.75 3.92969 9.75C4.75 9.75 5.46094 9.39453 5.95312 8.84766C6.44531 9.39453 7.15625 9.75 7.97656 9.75C8.76953 9.75 9.48047 9.39453 9.97266 8.84766C10.4648 9.39453 11.2031 9.75 11.9961 9.75C12.8164 9.75 13.5273 9.39453 14.0195 8.84766C14.5117 9.39453 15.2227 9.75 16.043 9.75C16.1797 9.75 16.2891 9.75 16.4258 9.72266C18.1211 9.50391 18.9414 7.48047 18.0391 6.00391ZM16.043 10.625C15.7695 10.625 15.4961 10.5977 15.25 10.543V13.25H4.75V10.543C4.47656 10.5977 4.20312 10.625 3.92969 10.625C3.76562 10.625 3.60156 10.625 3.4375 10.5977C3.27344 10.5703 3.13672 10.543 3 10.5156V15.875C3 16.3672 3.38281 16.75 3.875 16.75H16.125C16.5898 16.75 17 16.3672 17 15.875V10.5156C16.8359 10.543 16.6992 10.5977 16.5352 10.5977C16.3711 10.625 16.207 10.625 16.043 10.625Z" fill="black"/>
</svg>
