<svg width="68" height="65" viewBox="0 0 68 65" fill="none" xmlns="http://www.w3.org/2000/svg">
<g filter="url(#filter0_dd)">
<path d="M30.9432 23.1336V16.3336H32.5112C32.9129 16.3336 33.2982 16.174 33.5822 15.89C33.8663 15.6059 34.0259 15.2206 34.0259 14.8189V11.4483C34.0259 11.0465 33.8663 10.6613 33.5822 10.3772C33.2982 10.0932 32.9129 9.93359 32.5112 9.93359H16.9859C16.7872 9.93359 16.5905 9.97281 16.4071 10.049C16.2236 10.1252 16.057 10.2368 15.9168 10.3776C15.7765 10.5183 15.6655 10.6853 15.5899 10.869C15.5144 11.0528 15.4759 11.2496 15.4766 11.4483V14.8189C15.4759 15.0176 15.5144 15.2144 15.5899 15.3982C15.6655 15.5819 15.7765 15.7489 15.9168 15.8896C16.057 16.0303 16.2236 16.142 16.4071 16.2182C16.5905 16.2944 16.7872 16.3336 16.9859 16.3336H18.5326V34.4669H16.9859C16.7872 34.4669 16.5905 34.5061 16.4071 34.5823C16.2236 34.6585 16.057 34.7701 15.9168 34.9109C15.7765 35.0516 15.6655 35.2186 15.5899 35.4023C15.5144 35.5861 15.4759 35.7829 15.4766 35.9816V39.3522C15.4759 39.5509 15.5144 39.7477 15.5899 39.9315C15.6655 40.1152 15.7765 40.2822 15.9168 40.4229C16.057 40.5637 16.2236 40.6753 16.4071 40.7515C16.5905 40.8277 16.7872 40.8669 16.9859 40.8669H32.5112C32.9129 40.8669 33.2982 40.7073 33.5822 40.4233C33.8663 40.1392 34.0259 39.7539 34.0259 39.3522V35.9816C34.0259 35.5799 33.8663 35.1946 33.5822 34.9105C33.2982 34.6265 32.9129 34.4669 32.5112 34.4669H30.9432V27.6669H55.7325C56.3337 27.6669 56.9102 27.4281 57.3353 27.003C57.7604 26.5779 57.9992 26.0014 57.9992 25.4002C57.9992 24.7991 57.7604 24.2226 57.3353 23.7975C56.9102 23.3724 56.3337 23.1336 55.7325 23.1336H30.9432Z" fill="black"/>
<path d="M34.9013 46.2002H14.6027C13.382 46.2002 12.2113 46.6851 11.3481 47.5483C10.4849 48.4115 10 49.5822 10 50.8029V54.7335H39.4986V50.8029C39.4993 50.1987 39.3809 49.6003 39.1502 49.0419C38.9195 48.4835 38.581 47.9761 38.154 47.5486C37.727 47.1211 37.22 46.782 36.6619 46.5507C36.1037 46.3193 35.5055 46.2002 34.9013 46.2002V46.2002Z" fill="black"/>
</g>
<defs>
<filter id="filter0_dd" x="-0.35" y="-2.35" width="68.7" height="68.7" filterUnits="userSpaceOnUse" color-interpolation-filters="sRGB">
<feFlood flood-opacity="0" result="BackgroundImageFix"/>
<feColorMatrix in="SourceAlpha" type="matrix" values="0 0 0 0 0 0 0 0 0 0 0 0 0 0 0 0 0 0 127 0"/>
<feOffset dx="-2" dy="-2"/>
<feGaussianBlur stdDeviation="3.675"/>
<feColorMatrix type="matrix" values="0 0 0 0 0.74902 0 0 0 0 0.937255 0 0 0 0 0 0 0 0 1 0"/>
<feBlend mode="normal" in2="BackgroundImageFix" result="effect1_dropShadow"/>
<feColorMatrix in="SourceAlpha" type="matrix" values="0 0 0 0 0 0 0 0 0 0 0 0 0 0 0 0 0 0 127 0"/>
<feOffset dx="2" dy="2"/>
<feGaussianBlur stdDeviation="3.675"/>
<feColorMatrix type="matrix" values="0 0 0 0 0.364706 0 0 0 0 0.968627 0 0 0 0 0.643137 0 0 0 1 0"/>
<feBlend mode="normal" in2="effect1_dropShadow" result="effect2_dropShadow"/>
<feBlend mode="normal" in="SourceGraphic" in2="effect2_dropShadow" result="shape"/>
</filter>
</defs>
</svg>
