<svg width="48" height="72" viewBox="0 0 48 72" fill="none" xmlns="http://www.w3.org/2000/svg">
<path d="M31.8184 0.704202L30.8124 0.129343C30.4963 -0.0431144 29.9789 -0.0431144 29.6627 0.129343L0.574859 16.9152C0.258686 17.0877 0 17.5476 0 17.9212V61.4668C0 61.8404 0.258686 62.2716 0.574859 62.4728L1.58086 63.0476C1.89703 63.2201 2.41441 63.2201 2.73058 63.0476L31.8184 46.2618C32.1346 46.0893 32.3933 45.6294 32.3933 45.2558V1.7102C32.3933 1.33655 32.1346 0.87666 31.8184 0.704202Z" fill="#27DEBF"/>
<path d="M31.8184 0.704202L30.8124 0.129343C30.4963 -0.0431144 29.9789 -0.0431144 29.6627 0.129343L0.574859 16.9152C0.258686 17.0877 0 17.5476 0 17.9212V61.4668C0 61.8404 0.258686 62.2716 0.574859 62.4728L1.58086 63.0476C1.89703 63.2201 2.41441 63.2201 2.73058 63.0476L31.8184 46.2618C32.1346 46.0893 32.3933 45.6294 32.3933 45.2558V1.7102C32.3933 1.33655 32.1346 0.87666 31.8184 0.704202Z" fill="#F5F5F5"/>
<path d="M15.4637 26.1708C15.2625 26.0558 4.91504 20.0773 0.172458 17.3467C0.0574859 17.5191 0 17.7203 0 17.9215V61.4671C0 61.8408 0.258686 62.2719 0.574859 62.4731L1.58086 63.048C1.89703 63.2204 2.41441 63.2204 2.73058 63.048L15.5212 55.661C15.5787 44.5375 15.6649 26.2857 15.4637 26.1708Z" fill="#E0E0E0"/>
<path d="M31.8185 1.36537L2.73062 18.1512C2.41445 18.3237 2.15576 18.7836 2.15576 19.1573V62.7028C2.15576 63.0765 2.41445 63.2202 2.73062 63.0477L31.8185 46.2618C32.1346 46.0894 32.3933 45.6295 32.3933 45.2558V1.71029C32.3933 1.33663 32.1346 1.19292 31.8185 1.36537Z" fill="#F5F5F5"/>
<path d="M3.82242 18.7835L30.7546 3.23354C31.0707 3.06108 31.3294 3.2048 31.3294 3.57845V40.8868C31.3294 41.2605 31.0707 41.6916 30.7546 41.8928L3.82242 57.4427C3.50625 57.6152 3.24756 57.4715 3.24756 57.0978V19.7895C3.24756 19.4158 3.50625 18.9559 3.82242 18.7835Z" fill="white"/>
<path d="M3.24756 19.7894V27.6362C4.13859 27.9524 5.25956 27.8087 6.49551 27.0901C9.34106 25.4518 11.6118 21.4852 11.6118 18.2085C11.6118 16.6852 11.1231 15.5929 10.3183 15.0181L3.82242 18.7547C3.50625 18.9559 3.24756 19.4157 3.24756 19.7894Z" fill="#E6E6E6"/>
<path d="M26.4144 17.9503L19.4298 34.6787L14.831 30.9709C14.4286 30.6547 13.825 30.7984 13.595 31.2583L3.24756 54.0227V57.0982C3.24756 57.4719 3.50625 57.6156 3.82242 57.4431L7.87517 55.0862L30.7258 41.8932C31.042 41.7207 31.3007 41.2608 31.3007 40.8872V22.8654L27.8228 17.8066C27.4491 17.2892 26.6731 17.3755 26.4144 17.9503Z" fill="#E6E6E6"/>
<path d="M39.2633 5.01524L38.2573 4.44038C37.9411 4.26792 37.4237 4.26792 37.1075 4.44038L8.01968 21.2263C7.70351 21.3987 7.44482 21.8586 7.44482 22.2323V65.7778C7.44482 66.1515 7.70351 66.5826 8.01968 66.7838L9.02569 67.3587C9.34186 67.5311 9.85923 67.5311 10.1754 67.3587L39.2633 50.5728C39.5794 50.4003 39.8381 49.9404 39.8381 49.5668V6.02124C39.8381 5.64758 39.5794 5.18769 39.2633 5.01524Z" fill="#F5F5F5"/>
<path d="M22.908 30.4818C22.7068 30.3668 12.3594 24.3883 7.61679 21.6577C7.50182 21.8302 7.44434 22.0314 7.44434 22.2326V65.7781C7.44434 66.1518 7.70302 66.5829 8.01919 66.7841L9.0252 67.359C9.34137 67.5315 9.85874 67.5315 10.1749 67.359L22.9655 59.9721C23.023 48.8485 23.0805 30.5968 22.908 30.4818Z" fill="#E0E0E0"/>
<path d="M39.2628 5.67641L10.175 22.4623C9.85878 22.6347 9.6001 23.0946 9.6001 23.4683V67.0138C9.6001 67.3875 9.85878 67.5312 10.175 67.3588L39.2628 50.5729C39.579 50.4004 39.8377 49.9405 39.8377 49.5669V6.02132C39.8377 5.64767 39.579 5.50395 39.2628 5.67641Z" fill="#F0F0F0"/>
<path d="M11.2389 23.0935L38.1711 7.5436C38.4872 7.37114 38.7459 7.51485 38.7459 7.88851V45.1968C38.7459 45.5705 38.4872 46.0017 38.1711 46.2029L11.2389 61.7528C10.9227 61.9252 10.6641 61.7815 10.6641 61.4079V24.0995C10.6641 23.7259 10.9227 23.266 11.2389 23.0935Z" fill="white"/>
<path d="M10.6641 24.0721V31.9189C11.5551 32.2351 12.6761 32.0914 13.912 31.3728C16.7576 29.7345 19.0283 25.7679 19.0283 22.4913C19.0283 20.9679 18.5396 19.8756 17.7348 19.3008L11.2389 23.0374C10.9227 23.2673 10.6641 23.7272 10.6641 24.0721Z" fill="#E0E0E0"/>
<path d="M33.8596 22.2614L26.8751 38.9897L22.2762 35.2819C21.8738 34.9657 21.2702 35.1095 21.0403 35.5693L10.6641 58.3338V61.4092C10.6641 61.7829 10.9227 61.9266 11.2389 61.7542L15.2917 59.3972L38.1423 46.2042C38.4585 46.0318 38.7172 45.5719 38.7172 45.1982V27.1477L35.268 22.1176C34.8944 21.6003 34.1183 21.6865 33.8596 22.2614Z" fill="#E6E6E6"/>
<path d="M45.9885 51.636L44.1489 51.4636V10.936L45.9885 11.1085V51.636Z" fill="#5C5C5C"/>
<path opacity="0.5" d="M16.6422 27.8655L43.5744 12.3156C43.8905 12.1431 44.1492 12.2868 44.1492 12.6605V49.9688C44.1492 50.3425 43.8905 50.7736 43.5744 50.9748L16.6422 66.5248C16.3261 66.6972 16.0674 66.5535 16.0674 66.1798V28.8715C16.0674 28.4978 16.3261 28.038 16.6422 27.8655Z" fill="white"/>
<path d="M39.2629 25.3937L32.2784 42.1221L27.6795 38.4142C27.2771 38.0981 26.6735 38.2418 26.4436 38.7017L16.0674 61.4373V64.5128C16.0674 64.8865 16.3261 65.0302 16.6422 64.8577L20.695 62.5008L43.5456 49.3078C43.8618 49.1354 44.1205 48.6755 44.1205 48.3018V30.28L40.6426 25.25C40.2977 24.7326 39.5216 24.8188 39.2629 25.3937Z" fill="url(#paint0_linear)"/>
<path opacity="0.5" d="M39.2629 25.3937L32.2784 42.1221L27.6795 38.4142C27.2771 38.0981 26.6735 38.2418 26.4436 38.7017L16.0674 61.4373V64.5128C16.0674 64.8865 16.3261 65.0302 16.6422 64.8577L20.695 62.5008L43.5456 49.3078C43.8618 49.1354 44.1205 48.6755 44.1205 48.3018V30.28L40.6426 25.25C40.2977 24.7326 39.5216 24.8188 39.2629 25.3937Z" fill="white"/>
<path d="M42.5108 26.2287L40.3838 25.0215V27.4359L42.5108 26.2287Z" fill="url(#paint1_linear)"/>
<path opacity="0.5" d="M42.5108 26.2287L40.3838 25.0215V27.4359L42.5108 26.2287Z" fill="white"/>
<path d="M29.7205 39.5646L27.5648 38.3286L27.5073 40.743L29.7205 39.5646Z" fill="url(#paint2_linear)"/>
<path opacity="0.5" d="M29.7205 39.5646L27.5648 38.3286L27.5073 40.743L29.7205 39.5646Z" fill="white"/>
<path d="M47.368 10.2759C47.368 10.2472 47.368 10.2184 47.368 10.2184C47.3105 9.90224 47.0805 9.55732 46.8219 9.38487L45.8158 8.81001C45.4997 8.63755 44.9823 8.63755 44.6661 8.81001L15.5783 25.5671C15.4058 25.6534 15.2621 25.8258 15.1759 25.9983C15.0609 26.1707 15.0034 26.3719 15.0034 26.5731V70.1187C15.0034 70.4924 15.2621 70.9235 15.5783 71.1247L16.5843 71.6996C16.8717 71.872 17.3029 71.872 17.5903 71.757C17.5903 71.757 17.619 71.757 17.619 71.7283C17.6478 71.7283 17.6765 71.6996 17.7053 71.6708L30.4959 64.2839L46.7931 54.8849C47.1093 54.7125 47.368 54.2526 47.368 53.8789V10.3621C47.368 10.3334 47.368 10.3046 47.368 10.2759ZM45.9883 49.74C45.9883 50.1136 45.7296 50.5448 45.4134 50.746L30.5533 59.3401L18.7975 66.0947C18.4813 66.2671 18.2226 66.1234 18.2226 65.7498V28.4414C18.2226 28.269 18.2801 28.0678 18.3951 27.8666C18.5101 27.6941 18.6538 27.5217 18.7975 27.4354L45.4134 12.0867C45.7296 11.9142 45.9883 12.058 45.9883 12.4316V49.74Z" fill="#8E8E8E"/>
<path d="M30.5539 59.3097C30.5539 61.063 30.5252 62.7588 30.5252 64.3109L17.7346 71.6979C17.7058 71.7266 17.6771 71.7266 17.6483 71.7553C17.6483 71.7553 17.6196 71.7553 17.6196 71.7841C17.3034 71.8991 16.8723 71.8703 16.6136 71.7266L15.6076 71.1517C15.2914 70.9793 15.0327 70.5194 15.0327 70.1457V26.5714C15.0327 26.399 15.0902 26.1978 15.2052 25.9966C15.8375 26.3702 16.5561 26.7726 17.3609 27.2325C17.7058 27.4337 18.0795 27.6349 18.4531 27.8649C18.3382 28.0373 18.2807 28.2385 18.2807 28.4397V65.7481C18.2807 66.1217 18.5394 66.2654 18.8555 66.093L30.5539 59.3097Z" fill="#5C5C5C"/>
<path d="M18.2231 28.4412V36.2881C19.1142 36.6042 20.2351 36.4605 21.4711 35.742C24.3166 34.1036 26.5873 30.1371 26.5873 26.8604C26.5873 25.337 26.0987 24.2448 25.2939 23.6699L18.798 27.4065C18.4818 27.6364 18.2231 28.0676 18.2231 28.4412Z" fill="url(#paint3_linear)"/>
<path opacity="0.7" d="M18.2231 28.4412V36.2881C19.1142 36.6042 20.2351 36.4605 21.4711 35.742C24.3166 34.1036 26.5873 30.1371 26.5873 26.8604C26.5873 25.337 26.0987 24.2448 25.2939 23.6699L18.798 27.4065C18.4818 27.6364 18.2231 28.0676 18.2231 28.4412Z" fill="white"/>
<path d="M41.4187 26.6304L34.4342 43.3588L29.8353 39.6509C29.4329 39.3348 28.8293 39.4785 28.5993 39.9384L18.2231 62.674V65.7495C18.2231 66.1232 18.4818 66.2669 18.798 66.0944L22.8508 63.7375L45.3852 50.717C45.7014 50.5445 45.9601 50.0846 45.9601 49.7109V31.6891L42.7984 26.4867C42.4534 25.9693 41.6774 26.0268 41.4187 26.6304Z" fill="url(#paint4_linear)" stroke="url(#paint5_linear)" stroke-miterlimit="10"/>
<path d="M47.3685 10.2758C47.3685 10.247 47.3685 10.2183 47.3685 10.2183C47.311 9.98836 47.0811 9.90213 46.8224 10.0458L17.7345 26.8317C17.5621 26.918 17.4184 27.0904 17.3321 27.2629C17.2172 27.4353 17.1597 27.6365 17.1597 27.8377V71.3833C17.1597 71.6995 17.3609 71.8432 17.5908 71.7857C17.5908 71.7857 17.6196 71.7857 17.6196 71.7569C17.6483 71.7569 17.677 71.7282 17.7058 71.6995L30.4964 64.3125L46.7936 54.9136C47.1098 54.7411 47.3685 54.2812 47.3685 53.9076V10.362C47.3685 10.3333 47.3685 10.3045 47.3685 10.2758ZM45.9888 49.7399C45.9888 50.1135 45.7302 50.5447 45.414 50.7459L30.5539 59.34L18.798 66.0946C18.4818 66.267 18.2232 66.1233 18.2232 65.7497V28.4413C18.2232 28.2689 18.2806 28.0677 18.3956 27.8665C18.5106 27.694 18.6543 27.5216 18.798 27.4353L45.414 12.0866C45.7302 11.9141 45.9888 12.0579 45.9888 12.4315V49.7399Z" fill="#707070"/>
<defs>
<linearGradient id="paint0_linear" x1="19.7992" y1="32.0472" x2="45.873" y2="50.3232" gradientUnits="userSpaceOnUse">
<stop stop-color="#BCEB00"/>
<stop offset="1" stop-color="#00EAEA"/>
</linearGradient>
<linearGradient id="paint1_linear" x1="40.6667" y1="25.4522" x2="42.3267" y2="26.9145" gradientUnits="userSpaceOnUse">
<stop stop-color="#BCEB00"/>
<stop offset="1" stop-color="#00EAEA"/>
</linearGradient>
<linearGradient id="paint2_linear" x1="27.8017" y1="38.7593" x2="29.4687" y2="40.2874" gradientUnits="userSpaceOnUse">
<stop stop-color="#BCEB00"/>
<stop offset="1" stop-color="#00EAEA"/>
</linearGradient>
<linearGradient id="paint3_linear" x1="19.3358" y1="25.9491" x2="27.4514" y2="31.2619" gradientUnits="userSpaceOnUse">
<stop stop-color="#BCEB00"/>
<stop offset="1" stop-color="#00EAEA"/>
</linearGradient>
<linearGradient id="paint4_linear" x1="21.9129" y1="33.2759" x2="47.8886" y2="51.2737" gradientUnits="userSpaceOnUse">
<stop stop-color="#BCEB00"/>
<stop offset="1" stop-color="#00EAEA"/>
</linearGradient>
<linearGradient id="paint5_linear" x1="21.9129" y1="33.2759" x2="47.8886" y2="51.2737" gradientUnits="userSpaceOnUse">
<stop stop-color="#BCEB00"/>
<stop offset="1" stop-color="#00EAEA"/>
</linearGradient>
</defs>
</svg>
