<svg width="52" height="72" viewBox="0 0 52 72" fill="none" xmlns="http://www.w3.org/2000/svg">
<path opacity="0.2" d="M16.789 66.5054C14.187 67.9892 9.91234 67.9892 7.31037 66.5054C4.70839 65.0215 4.70839 62.5176 7.31037 61.0338C9.91234 59.5499 14.187 59.5499 16.789 61.0338C19.391 62.5176 19.391 65.0215 16.789 66.5054Z" fill="url(#paint0_linear)"/>
<path d="M16.5103 63.1006C16.5103 63.1006 16.5103 63.1934 16.4173 63.2861C16.3244 63.5643 16.0456 63.9353 15.6739 64.3062C15.4881 64.4917 15.2093 64.6772 14.9305 64.8627C14.5588 65.1409 14.0941 65.3264 13.5366 65.4191C13.2578 65.5119 12.979 65.5118 12.6073 65.5118C12.0497 65.5118 11.5851 65.5119 11.1205 65.4191C10.0053 65.2336 9.26191 64.9554 9.26191 64.9554C9.26191 64.9554 9.07605 62.0805 9.07605 59.9475C9.16898 57.8145 9.35484 54.3832 9.26191 52.7139C9.16898 51.1373 9.07605 50.9518 8.98313 50.9518C8.8902 50.9518 8.42556 50.6736 7.868 50.1172C7.49628 49.6535 7.40336 49.3753 7.12457 49.0043C7.03165 48.9116 6.93872 48.8188 6.84579 48.6333C6.75286 48.5406 6.65994 48.4479 6.65994 48.3551C6.38115 47.7987 6.56701 47.0568 6.65994 46.8713C6.75286 46.5931 7.12457 46.4076 7.2175 45.8512C7.31043 45.3875 7.2175 44.9238 7.49628 44.5528C7.86799 44.1819 8.05385 44.2746 8.14678 43.9036C8.2397 43.5327 8.2397 43.1617 8.51849 42.9763C8.79727 42.698 9.63362 42.4198 9.63362 42.4198C9.63362 42.4198 8.8902 41.2142 8.70434 41.0287C8.61142 40.936 8.51849 40.8433 8.42556 40.6578C8.33263 40.4723 8.23971 40.1941 8.33263 39.9159C8.42556 39.2667 9.16898 39.174 9.26191 39.174C9.44776 39.174 10.0053 39.2667 10.1912 39.4522C10.377 39.5449 11.771 41.5852 11.9568 41.6779C11.9568 41.6779 12.0497 41.3997 12.6073 41.3997C13.1649 41.3997 13.2578 41.8634 13.2578 42.1416C13.2578 42.4198 13.2578 42.698 13.2578 42.698C13.2578 42.698 14.1871 43.9964 14.3729 44.3673C14.6517 44.7383 15.0234 45.6657 15.0234 45.9439C15.0234 46.1294 15.0234 46.8713 15.0234 47.2423C15.0234 47.6132 15.1163 48.2624 14.8376 48.7261C14.5588 49.1898 14.5588 49.5607 14.4659 49.7462C14.4659 49.9317 14.4659 52.2502 14.4659 53.1776C14.5588 54.0122 14.4659 59.2983 16.5103 63.1006Z" fill="#FFE3CF"/>
<path d="M13.1646 50.7664C13.1646 50.7664 12.9787 51.1374 12.7 51.4156C12.4212 51.6938 11.7707 52.1575 11.6778 52.2502C11.6778 52.343 11.7707 52.8067 11.399 52.9921C11.0273 53.1776 10.4697 53.1776 10.4697 53.1776C10.4697 53.1776 10.4697 53.4558 10.2838 54.2905C10.1909 55.1251 11.4919 57.5364 11.1202 60.2258C10.8414 62.3588 11.0273 64.5845 11.1202 65.5119C10.0051 65.3264 9.26164 65.0482 9.26164 65.0482C9.26164 65.0482 9.07579 62.1733 9.07579 60.0403C9.16871 57.9073 9.35457 54.476 9.26164 52.8067C9.16871 51.2301 9.07579 51.0446 8.98286 51.0446C8.88993 51.0446 8.42529 50.7664 7.86773 50.21C7.49602 49.7463 7.40309 49.4681 7.12431 49.0971C7.03138 49.0044 6.93845 48.9116 6.84552 48.7261C6.7526 48.6334 6.65967 48.5407 6.65967 48.4479C7.40309 47.6133 8.14651 48.5407 8.88993 48.8189C9.63335 49.0971 10.8414 49.839 10.8414 49.839C10.8414 49.839 11.1202 50.3954 11.1202 50.4882C11.1202 50.5809 10.8414 51.3228 10.9343 51.5083C11.0273 51.6938 11.399 51.7865 11.6778 51.6938C11.9565 51.6938 13.0717 50.7664 13.1646 50.7664Z" fill="#FFE3CF"/>
<path d="M16.3242 63.2854C16.2313 63.5636 15.9525 63.9346 15.5808 64.3055C15.3949 64.491 15.1162 64.6765 14.8374 64.862C14.6515 64.862 14.4657 64.6765 14.3727 64.3055C14.1869 63.1926 12.8859 54.4752 12.793 53.2696C12.7 52.1567 13.1647 51.1366 13.2576 51.0438C13.3505 50.9511 13.0718 50.6729 13.0718 50.6729C13.0718 50.6729 11.9566 51.2293 12.1425 51.1366C12.3283 51.0438 12.5142 50.5801 12.5142 50.5801C12.5142 50.5801 13.0718 50.4874 13.3505 50.3019C13.6293 50.1165 14.3727 50.1165 14.3727 50.1165C14.3727 50.1165 14.001 53.7333 14.5586 57.6283C15.1162 60.9669 16.0454 62.8217 16.3242 63.2854Z" fill="#FFE3CF"/>
<path d="M11.771 43.0686C11.771 43.0686 11.6781 43.2541 11.771 43.5323C11.864 43.8105 12.2357 44.367 12.3286 44.4597C12.5145 44.5524 12.6074 44.7379 12.6074 44.8307C12.6074 44.9234 12.7003 45.3871 12.7003 45.3871C12.7003 45.3871 10.6559 43.996 10.563 43.1614C10.563 42.234 11.771 43.0686 11.771 43.0686Z" fill="#F6B486"/>
<path d="M14.7445 49.0043C14.7445 49.0043 14.2799 50.0244 13.8152 50.2099C13.4435 50.3953 12.6072 50.3953 12.2354 50.3026C11.9567 50.2099 13.6294 47.9841 13.6294 47.9841C13.6294 47.9841 14.094 48.4478 14.094 48.5406C14.1869 49.3752 14.7445 49.0043 14.7445 49.0043Z" fill="#F6B486"/>
<path d="M15.0237 48.1695C15.0237 48.1695 14.745 48.9114 14.4662 48.7259C14.2803 48.5404 14.0015 48.0767 13.9086 47.8913C13.8157 47.7058 13.5369 47.6131 13.5369 47.6131C13.5369 47.6131 13.8157 46.9639 13.8157 46.6857C13.8157 46.4074 14.0945 46.5002 14.0945 46.5002C14.0945 46.5002 13.9086 45.6655 13.8157 45.1091C13.7228 44.5527 13.351 44.2744 13.1652 43.718C13.0723 43.4398 13.0723 42.9761 13.0723 42.6051C13.0723 42.3269 13.0723 42.2342 13.1652 42.2342C13.2581 42.3269 13.1652 42.5124 13.5369 42.9761C13.9086 43.5325 14.3733 44.1817 14.3733 44.1817C14.3733 44.1817 14.8379 44.8309 14.9308 45.6655C15.0237 46.5002 15.0237 46.5929 15.0237 46.8711C15.0237 47.2421 15.1167 47.7058 15.0237 48.1695Z" fill="#FFE3CF"/>
<path d="M13.1647 42.698C13.1647 42.698 12.9788 42.698 12.7929 42.6052C12.5142 42.5125 12.5142 41.7706 12.5142 41.6778C12.5142 41.5851 12.8859 41.5851 12.9788 41.6778C13.0717 41.7706 13.1647 41.8633 13.2576 42.327C13.2576 42.698 13.1647 42.698 13.1647 42.698Z" fill="#FFE3CF"/>
<path d="M12.0495 41.8627C12.0495 41.8627 12.1425 42.0482 12.0495 42.5119C11.9566 42.9756 11.7708 43.3466 11.6778 43.4393C11.6778 43.532 11.9566 44.0885 11.9566 44.0885C11.9566 44.0885 11.399 43.6248 11.399 43.532C11.3061 43.4393 11.0273 43.0683 11.1203 42.9756C11.1203 42.7901 12.0495 41.8627 12.0495 41.8627Z" fill="#FCD1B3"/>
<path d="M10.1914 48.911V51.044C10.1914 51.2295 10.2843 51.415 10.3773 51.5077C10.8419 51.9714 11.5853 51.9714 12.05 51.5077C12.1429 51.415 12.2358 51.2295 12.2358 51.044V45.9434L10.1914 44.8305V48.911Z" fill="#707070"/>
<path d="M10.1914 42.9759V33.331L12.2358 32.9601V41.6776V44.9234L10.1914 42.9759Z" fill="#707070"/>
<path d="M15.5808 64.3063C15.1162 64.77 14.3728 65.3265 13.4435 65.4192C13.1647 65.5119 12.8859 65.5119 12.5142 65.5119C12.4213 65.3265 12.4213 65.141 12.4213 65.0483C11.9566 63.1007 12.1425 60.6895 12.1425 60.6895C12.1425 60.6895 12.0496 60.2258 12.1425 59.1129C12.2354 58.0001 11.5849 56.9799 11.2132 56.238C10.8415 55.4961 10.8415 53.3631 10.9344 53.2704C11.0274 53.1776 11.5849 53.0849 11.8637 52.8994C12.1425 52.714 12.9788 51.7866 12.9788 51.7866C12.9788 51.7866 13.3506 54.3833 13.5364 55.3106C13.7223 56.3308 14.8374 60.5968 14.8374 60.7823C14.9303 60.9677 15.302 62.637 15.5808 64.3063Z" fill="#FFE3CF"/>
<path d="M11.8637 42.8832C11.492 43.5324 10.7486 42.976 10.6556 42.8832C10.5627 42.7905 8.61122 40.7502 8.42536 40.7502C8.33244 40.5648 8.23951 40.2865 8.33244 40.0083C8.42537 39.3592 9.16879 39.2664 9.26171 39.2664C9.44757 39.2664 10.0051 39.3592 10.191 39.5446C10.3768 39.6374 11.7708 41.6776 11.9566 41.7704C11.9566 41.7704 12.3283 42.2341 11.8637 42.8832Z" fill="#FFE3CF"/>
<path d="M11.9569 41.9559C11.9569 41.9559 11.5852 41.214 11.1206 40.7503C10.6559 40.2866 10.1913 39.6374 9.81957 39.4519C9.44786 39.3592 9.26201 39.1737 8.70444 39.5447C8.14688 39.9156 10.0054 41.5849 10.0054 41.5849L10.7488 42.6051C10.8418 42.6051 11.9569 41.9559 11.9569 41.9559Z" fill="#FFEBDD"/>
<path d="M11.8638 41.863C11.8638 41.863 11.4921 41.3993 11.1204 41.492C10.7487 41.492 10.6558 42.0484 10.6558 42.2339C10.6558 42.4194 11.1204 42.9758 11.1204 42.9758C11.1204 42.9758 11.3992 42.7903 11.678 42.6049C11.8638 42.3266 12.0497 42.2339 11.8638 41.863Z" fill="#FEF7F2"/>
<path d="M13.9084 49.0969C13.5367 49.5606 13.165 49.4679 13.165 49.4679C13.165 49.4679 13.2579 49.7461 13.165 49.9316C13.072 50.2098 12.7003 50.3953 12.2357 50.3025C11.6781 50.2098 11.3064 49.9316 10.2842 49.5606C9.16907 49.1897 8.79736 49.1897 8.79736 49.1897C8.14687 49.1897 7.5893 49.1897 7.21759 49.0969C7.12467 49.0042 7.03174 48.9114 6.93881 48.726C6.38125 48.0768 6.5671 47.1494 6.66003 46.9639C6.75296 46.6857 7.12467 46.5002 7.21759 45.9438C7.31052 45.4801 7.21759 45.0164 7.49638 44.6454C7.86809 44.2745 8.05394 44.3672 8.14687 43.9963C8.2398 43.6253 8.2398 43.2544 8.51858 43.0689C8.79736 42.7907 9.63371 42.5125 9.63371 42.5125C9.63371 42.5125 10.4701 42.8834 10.563 43.0689C10.7488 43.2544 11.6781 44.3672 12.0498 44.7382C12.4215 45.1091 13.072 45.6656 13.2579 46.0365C13.4437 46.4075 13.5367 46.8712 13.4437 47.2421C13.3508 47.5204 12.9791 47.5204 12.9791 47.5204C13.072 47.5204 13.7225 47.9841 13.8155 48.0768C13.9084 48.1695 14.1872 48.6332 13.9084 49.0969Z" fill="#FFE3CF"/>
<path d="M13.0722 47.613C13.0722 47.613 12.6075 47.4275 12.1429 47.0566C11.6783 46.7784 10.3773 45.851 10.0985 45.6655C9.81972 45.48 8.70459 44.7381 8.70459 44.7381C8.70459 44.7381 9.0763 44.8308 9.16923 44.9236C9.26216 44.9236 9.81972 45.2018 9.81972 45.2945C9.81972 45.2945 12.8863 47.4275 13.0722 47.613Z" fill="#F6B486"/>
<path d="M13.1652 49.4675C13.1652 49.4675 12.5147 49.0966 12.143 48.9111C11.7713 48.7256 9.4481 47.4273 9.07639 47.2418C8.70468 47.0563 7.86833 46.6854 7.7754 46.6854C7.68248 46.6854 8.14711 46.5926 8.24004 46.6854C8.33297 46.7781 10.1915 47.7055 10.1915 47.7055C10.2844 47.7982 12.0501 48.6329 12.143 48.7256C12.2359 48.9111 13.0723 49.3748 13.1652 49.4675Z" fill="#F6B486"/>
<path d="M9.5407 47.6126C9.5407 47.6126 8.98313 47.7981 8.98313 48.169C8.8902 48.54 8.98313 48.8182 9.81948 49.0964C10.5629 49.3747 11.3063 49.6529 11.4922 49.7456C11.678 49.8383 12.2356 50.2093 12.5144 50.302C12.7932 50.3948 12.979 50.2093 13.0719 50.0238C13.1649 49.9311 12.5144 49.1892 12.5144 49.1892C12.5144 49.1892 11.4922 48.54 11.2134 48.3545C10.9346 48.3545 9.5407 47.6126 9.5407 47.6126Z" fill="#FFEBDD"/>
<path d="M10.1914 45.7583C10.1914 45.7583 9.72676 45.6656 9.44798 45.9438C9.16919 46.222 9.16919 46.4075 9.26212 46.6857C9.44798 47.0567 10.2843 47.6131 10.2843 47.6131C10.2843 47.6131 12.0499 48.5405 12.1429 48.5405C12.2358 48.6332 12.8863 49.0969 12.9792 49.1897C13.0722 49.2824 13.3509 49.2824 13.4439 49.1897C13.5368 49.0969 13.6297 48.0768 13.6297 48.0768C13.6297 48.0768 13.0722 47.7058 12.7004 47.4276C12.5146 47.3349 10.3773 46.0365 10.1914 45.7583Z" fill="#FFEBDD"/>
<path d="M12.0494 44.645C12.0494 44.645 10.4696 43.0685 10.2838 43.0685C10.0979 43.0685 9.54034 42.9757 9.26156 43.4394C8.88985 43.9031 9.91205 44.645 9.91205 44.8305C10.005 44.9233 11.1201 45.9434 11.213 46.1289C11.306 46.3144 12.6069 47.149 12.6069 47.149L13.4433 46.4998C13.4433 46.4998 13.1645 45.9434 12.9787 45.6652C12.607 45.2942 12.0494 44.645 12.0494 44.645Z" fill="#FFEBDD"/>
<path d="M13.5372 46.4996C13.5372 46.4996 13.3513 46.3141 13.0725 46.4069C12.7938 46.4996 12.6079 46.7778 12.6079 46.9633C12.6079 47.1488 12.7938 47.2415 12.7938 47.2415L13.1655 47.5198C13.1655 47.6125 13.6301 47.5198 13.5372 46.4996Z" fill="#FEF7F2"/>
<path d="M13.9084 48.262C13.9084 48.262 13.5367 47.8911 13.2579 48.0765C13.0721 48.262 12.8862 48.5402 12.8862 48.8184C12.8862 49.0967 13.4438 49.2821 13.4438 49.2821C13.4438 49.2821 14.1872 48.9112 13.9084 48.262Z" fill="#FEF7F2"/>
<path d="M13.1651 49.4677C13.1651 49.4677 12.6076 49.1895 12.5146 49.2822C12.4217 49.2822 12.2358 49.4677 12.2358 49.7459C12.2358 50.0241 12.4217 50.1169 12.5146 50.2096C12.6076 50.3024 12.7934 50.3024 12.7934 50.3024C12.7934 50.3024 13.258 49.8387 13.1651 49.4677Z" fill="#FEF7F2"/>
<path d="M12.979 38.3391L9.35485 40.3793C8.70436 40.7503 7.96094 40.2866 7.96094 39.5447V36.0206L14.0942 32.4965V36.3916C14.0012 37.2262 13.6295 37.8754 12.979 38.3391Z" fill="#5C5C5C"/>
<path d="M13.5376 38.5246L9.91345 40.5649C9.26295 40.9358 8.51953 40.4721 8.51953 39.7302V36.2062L14.6528 32.6821V36.5771C14.6528 37.4118 14.1881 38.1537 13.5376 38.5246Z" fill="#707070"/>
<path d="M46.0171 28.8425L42.3929 30.8828C41.7424 31.2537 40.999 30.79 40.999 30.0481V26.524L47.1322 22.9999V26.895C47.0393 27.7296 46.6676 28.3788 46.0171 28.8425Z" fill="#5C5C5C"/>
<path d="M46.5757 29.028L42.9515 31.0683C42.301 31.4393 41.5576 30.9756 41.5576 30.2337V26.7096L47.6908 23.1855V27.0805C47.6908 27.9152 47.2262 28.6571 46.5757 29.028Z" fill="#707070"/>
<path opacity="0.2" d="M49.9956 62.0401C47.5415 63.4304 43.5096 63.4304 41.0555 62.0401C38.6013 60.6498 38.6013 58.3037 41.0555 56.9133C43.5096 55.523 47.5415 55.523 49.9956 56.9133C52.4498 58.3037 52.4498 60.5629 49.9956 62.0401Z" fill="url(#paint1_linear)"/>
<path d="M49.5703 58.7211C49.5703 58.7211 49.5703 58.8138 49.4774 58.9066C49.3845 59.1848 49.1057 59.5557 48.734 59.9267C48.5481 60.1122 48.2693 60.2977 47.9905 60.4831C47.6188 60.7613 47.1542 60.9468 46.5966 61.0396C46.3178 61.1323 46.0391 61.1323 45.6674 61.1323C45.1098 61.1323 44.6452 61.1323 44.1805 61.0396C43.0654 60.8541 42.322 60.5759 42.322 60.5759C42.322 60.5759 42.1361 57.7937 42.1361 55.6607C42.229 53.5277 42.4149 50.0964 42.322 48.4271C42.229 46.8505 42.1361 46.665 42.0432 46.665C41.9503 46.665 41.4856 46.3868 40.9281 45.8304C40.5563 45.3667 40.4634 45.0884 40.1846 44.7175C40.0917 44.6247 39.9988 44.532 39.9058 44.3465C39.8129 44.2538 39.72 44.1611 39.72 44.0683C39.4412 43.5119 39.6271 42.77 39.72 42.5845C39.8129 42.3063 40.1846 42.1208 40.2776 41.5644C40.3705 41.1007 40.2776 40.637 40.5563 40.266C40.928 39.8951 41.1139 39.9878 41.2068 39.6168C41.2998 39.2459 41.2998 38.8749 41.5785 38.6894C41.8573 38.4112 42.6937 38.133 42.6937 38.133C42.6937 38.133 41.9503 36.9274 41.7644 36.7419C41.6715 36.6492 41.5785 36.5564 41.4856 36.371C41.3927 36.1855 41.2998 35.9073 41.3927 35.6291C41.4856 34.9799 42.229 34.8871 42.322 34.8871C42.5078 34.8871 43.0654 34.9799 43.2512 35.1654C43.4371 35.2581 44.831 37.2984 45.0169 37.3911C45.0169 37.3911 45.1098 37.1129 45.6674 37.1129C46.2249 37.1129 46.3178 37.5766 46.3178 37.8548C46.3178 38.133 46.3178 38.4112 46.3178 38.4112C46.3178 38.4112 47.2471 39.7096 47.433 40.0805C47.7118 40.4515 48.0835 41.3789 48.0835 41.6571C48.0835 41.9353 48.0835 42.5845 48.0835 42.9554C48.0835 43.3264 48.1764 43.9756 47.8976 44.4393C47.6188 44.903 47.6188 45.2739 47.5259 45.4594C47.5259 45.6449 47.5259 47.9634 47.5259 48.8907C47.6188 49.6327 47.5259 54.9188 49.5703 58.7211Z" fill="#FFE3CF"/>
<path d="M46.2252 46.3875C46.2252 46.3875 46.0393 46.7584 45.7605 47.0367C45.4817 47.3149 44.8312 47.7786 44.7383 47.8713C44.7383 47.9641 44.8312 48.4278 44.4595 48.6132C44.0878 48.7987 43.5302 48.7987 43.5302 48.7987C43.5302 48.7987 43.5302 49.0769 43.3444 49.9116C43.2515 50.7462 44.5525 53.1574 44.1807 55.8469C43.902 57.9799 44.0878 60.2056 44.1807 61.133C43.0656 60.9475 42.3222 60.6693 42.3222 60.6693C42.3222 60.6693 42.1363 57.7944 42.1363 55.6614C42.2293 53.5284 42.4151 50.0971 42.3222 48.4278C42.2293 46.8512 42.1363 46.6657 42.0434 46.6657C41.9505 46.6657 41.4858 46.3875 40.9283 45.8311C40.5566 45.3674 40.4636 45.0891 40.1849 44.7182C40.0919 44.6254 39.999 44.5327 39.9061 44.3472C39.8131 44.2545 39.7202 44.1618 39.7202 44.069C40.4636 43.2344 41.2071 44.1618 41.9505 44.44C42.6939 44.7182 43.902 45.4601 43.902 45.4601C43.902 45.4601 44.1807 46.0165 44.1807 46.1093C44.1807 46.202 43.902 46.9439 43.9949 47.1294C44.0878 47.3149 44.4595 47.4076 44.7383 47.3149C45.0171 47.3149 46.1322 46.3875 46.2252 46.3875Z" fill="#FFE3CF"/>
<path d="M49.3848 58.9062C49.2918 59.1844 49.0131 59.5554 48.6413 59.9263C48.4555 60.1118 48.1767 60.2973 47.8979 60.4828C47.7121 60.4828 47.5262 60.2973 47.4333 59.9263C47.2474 58.8135 45.9464 50.096 45.8535 48.8904C45.7606 47.7775 46.2252 46.7574 46.3182 46.6646C46.4111 46.5719 46.1323 46.2937 46.1323 46.2937C46.1323 46.2937 45.0172 46.8501 45.203 46.7574C45.3889 46.6646 45.5747 46.2009 45.5747 46.2009C45.5747 46.2009 46.1323 46.1082 46.4111 45.9227C46.6899 45.7372 47.4333 45.7372 47.4333 45.7372C47.4333 45.7372 47.0616 49.3541 47.6191 53.2491C48.1767 56.5877 49.106 58.3498 49.3848 58.9062Z" fill="#FFE3CF"/>
<path d="M44.8306 38.6896C44.8306 38.6896 44.7377 38.8751 44.8306 39.1533C44.9235 39.4315 45.2953 39.9879 45.3882 40.0807C45.574 40.1734 45.667 40.3589 45.667 40.4516C45.667 40.5444 45.7599 41.0081 45.7599 41.0081C45.7599 41.0081 43.7155 39.617 43.6226 38.7823C43.6226 37.8549 44.8306 38.6896 44.8306 38.6896Z" fill="#F6B486"/>
<path d="M47.8045 44.6251C47.8045 44.6251 47.3399 45.6452 46.8753 45.8307C46.5036 46.0161 45.6672 46.0161 45.2955 45.9234C45.0167 45.8307 46.6894 43.6049 46.6894 43.6049C46.6894 43.6049 47.1541 44.0686 47.1541 44.1614C47.247 44.996 47.8045 44.6251 47.8045 44.6251Z" fill="#F6B486"/>
<path d="M48.0838 43.7902C48.0838 43.7902 47.805 44.5321 47.5262 44.3467C47.3404 44.1612 47.0616 43.6975 46.9687 43.512C46.8757 43.3265 46.597 43.2338 46.597 43.2338C46.597 43.2338 46.8757 42.5846 46.8757 42.3064C46.8757 42.0282 47.1545 42.1209 47.1545 42.1209C47.1545 42.1209 46.9687 41.2863 46.8757 40.7298C46.7828 40.1734 46.4111 39.8952 46.2253 39.3387C46.1323 39.0605 46.1323 38.5968 46.1323 38.2259C46.1323 37.9477 46.1323 37.8549 46.2253 37.8549C46.3182 37.9477 46.2253 38.1331 46.597 38.5968C46.9687 39.1533 47.4333 39.8024 47.4333 39.8024C47.4333 39.8024 47.8979 40.4516 47.9909 41.2863C48.0838 42.1209 48.0838 42.2137 48.0838 42.4919C48.0838 42.8628 48.1767 43.3265 48.0838 43.7902Z" fill="#FFE3CF"/>
<path d="M46.2252 38.3186C46.2252 38.3186 46.0393 38.3186 45.8535 38.2259C45.5747 38.1331 45.5747 37.3912 45.5747 37.2985C45.5747 37.2058 45.9464 37.2058 46.0393 37.2985C46.1323 37.3912 46.2252 37.484 46.3181 37.9477C46.3181 38.3186 46.2252 38.3186 46.2252 38.3186Z" fill="#FFE3CF"/>
<path d="M45.1099 37.4838C45.1099 37.4838 45.2028 37.6693 45.1099 38.133C45.017 38.5967 44.8311 38.9677 44.7382 39.0604C44.7382 39.1531 45.017 39.7096 45.017 39.7096C45.017 39.7096 44.3665 39.1531 44.2736 39.0604C44.1806 38.9677 43.9018 38.5967 43.9948 38.504C44.1806 38.4112 45.1099 37.4838 45.1099 37.4838Z" fill="#FCD1B3"/>
<path d="M43.2515 44.5321V46.6651C43.2515 46.8506 43.3444 47.0361 43.4373 47.1288C43.902 47.5925 44.6454 47.5925 45.11 47.1288C45.2029 47.0361 45.2959 46.8506 45.2959 46.6651V41.5645L43.2515 40.4516V44.5321Z" fill="#707070"/>
<path d="M43.2515 38.5968V28.9519L45.2959 28.581V37.2985V40.5443L43.2515 38.5968Z" fill="#707070"/>
<path d="M48.6409 59.9264C48.1762 60.3901 47.4328 60.9466 46.5035 61.0393C46.2248 61.1321 45.946 61.1321 45.5743 61.1321C45.4813 60.9466 45.4813 60.7611 45.4813 60.6684C45.0167 58.7208 45.2026 56.3096 45.2026 56.3096C45.2026 56.3096 45.1096 55.8459 45.2026 54.7331C45.2955 53.6202 44.645 52.6001 44.2733 51.8582C43.9016 51.1162 43.9016 48.9832 43.9945 48.8905C44.0874 48.7978 44.645 48.705 44.9238 48.5195C45.2026 48.3341 46.0389 47.4067 46.0389 47.4067C46.0389 47.4067 46.4106 50.0034 46.5965 50.9308C46.7823 51.9509 47.8975 56.2169 47.8975 56.4024C47.9904 56.5878 48.3621 58.2571 48.6409 59.9264Z" fill="#FFE3CF"/>
<path d="M44.9237 38.504C44.552 39.1531 43.8086 38.5967 43.7157 38.504C43.6228 38.4112 41.6713 36.371 41.4854 36.371C41.3925 36.1855 41.2996 35.9073 41.3925 35.6291C41.4854 34.9799 42.2288 34.8871 42.3218 34.8871C42.5076 34.8871 43.0652 34.9799 43.251 35.1654C43.4369 35.2581 44.8308 37.2984 45.0167 37.3911C45.0167 37.3911 45.3884 37.8548 44.9237 38.504Z" fill="#FFE3CF"/>
<path d="M45.0175 37.5769C45.0175 37.5769 44.6457 36.835 44.1811 36.3713C43.7165 35.9076 43.2518 35.2584 42.8801 35.073C42.5084 34.9802 42.3226 34.7948 41.765 35.1657C41.2074 35.5367 43.066 37.206 43.066 37.206L43.8094 38.2261C43.9023 38.2261 45.0175 37.5769 45.0175 37.5769Z" fill="#FFEBDD"/>
<path d="M44.9244 37.4837C44.9244 37.4837 44.5527 37.02 44.1809 37.1128C43.8092 37.2055 43.7163 37.6692 43.7163 37.8547C43.7163 38.0402 44.1809 38.5966 44.1809 38.5966C44.1809 38.5966 44.4597 38.4111 44.7385 38.2257C44.9244 37.9474 45.1102 37.8547 44.9244 37.4837Z" fill="#FEF7F2"/>
<path d="M46.9679 44.7177C46.5962 45.1814 46.2245 45.0887 46.2245 45.0887C46.2245 45.0887 46.3175 45.3669 46.2245 45.5524C46.1316 45.8306 45.7599 46.0161 45.2953 45.9233C44.7377 45.8306 44.366 45.5524 43.3438 45.1814C42.2286 44.8105 41.8569 44.8105 41.8569 44.8105C41.2064 44.8105 40.6489 44.8105 40.2772 44.7177C40.1842 44.625 40.0913 44.5322 39.9984 44.3468C39.4408 43.6976 39.6267 42.7702 39.7196 42.5847C39.8125 42.3065 40.1842 42.121 40.2772 41.5646C40.3701 41.1009 40.2772 40.6372 40.5559 40.2662C40.9277 39.8953 41.1135 39.988 41.2064 39.6171C41.2994 39.2461 41.2994 38.8752 41.5782 38.6897C41.8569 38.4115 42.6933 38.1332 42.6933 38.1332C42.6933 38.1332 43.5296 38.5042 43.6226 38.6897C43.8084 38.8752 44.7377 39.988 45.1094 40.359C45.4811 40.7299 46.1316 41.2864 46.3175 41.6573C46.5033 42.0283 46.5962 42.492 46.5033 42.8629C46.4104 43.1412 46.0387 43.1412 46.0387 43.1412C46.1316 43.1412 46.7821 43.6048 46.875 43.6976C46.9679 43.7903 47.2467 44.254 46.9679 44.7177Z" fill="#FFE3CF"/>
<path d="M46.1318 43.2337C46.1318 43.2337 45.6671 43.0483 45.2025 42.6773C44.7378 42.3991 43.4369 41.4717 43.1581 41.2862C42.8793 41.1007 41.7642 40.3588 41.7642 40.3588C41.7642 40.3588 42.1359 40.4516 42.1359 40.5443C42.2288 40.5443 42.7864 40.8225 42.7864 40.9153C42.8793 40.9153 45.9459 43.0483 46.1318 43.2337Z" fill="#F6B486"/>
<path d="M46.132 45.0885C46.132 45.0885 45.4815 44.7175 45.1098 44.532C44.7381 44.3465 42.4149 43.0482 42.0432 42.8627C41.6715 42.6772 40.8351 42.3063 40.7422 42.3063C40.6493 42.3063 41.1139 42.2136 41.2068 42.3063C41.2998 42.399 43.1583 43.3264 43.1583 43.3264C43.2512 43.4192 45.0169 44.2538 45.1098 44.3465C45.2957 44.532 46.132 44.9957 46.132 45.0885Z" fill="#F6B486"/>
<path d="M42.508 43.2333C42.508 43.2333 41.9504 43.4188 41.9504 43.7898C41.8575 44.1607 41.9504 44.4389 42.7868 44.7172C43.5302 44.9954 44.2736 45.2736 44.4595 45.3663C44.6453 45.4591 45.2029 45.83 45.4817 45.9228C45.7604 46.0155 45.9463 45.83 46.0392 45.6446C46.1322 45.5518 45.4817 44.8099 45.4817 44.8099C45.4817 44.8099 44.4595 44.1607 44.1807 43.9752C43.9948 43.8825 42.508 43.2333 42.508 43.2333Z" fill="#FFEBDD"/>
<path d="M43.251 41.379C43.251 41.379 42.7863 41.2863 42.5075 41.5645C42.2288 41.8427 42.2288 42.0282 42.3217 42.3064C42.5075 42.6774 43.3439 43.2338 43.3439 43.2338C43.3439 43.2338 45.1095 44.1612 45.2024 44.1612C45.2954 44.2539 45.9459 44.7176 46.0388 44.8104C46.1317 44.9031 46.4105 44.9031 46.5034 44.8104C46.5964 44.7176 46.6893 43.6975 46.6893 43.6975C46.6893 43.6975 46.1317 43.3266 45.76 43.0483C45.5742 42.8629 43.4368 41.6573 43.251 41.379Z" fill="#FFEBDD"/>
<path d="M45.1099 40.2657C45.1099 40.2657 43.5302 38.6891 43.3443 38.6891C43.1584 38.6891 42.6009 38.5964 42.3221 39.0601C41.9504 39.5238 42.9726 40.2657 42.9726 40.4512C43.0655 40.5439 44.1807 41.5641 44.2736 41.7495C44.3665 41.935 45.6675 42.7697 45.6675 42.7697L46.5038 42.1205C46.5038 42.1205 46.2251 41.5641 46.0392 41.2858C45.6675 40.9149 45.1099 40.2657 45.1099 40.2657Z" fill="#FFEBDD"/>
<path d="M46.5968 42.1206C46.5968 42.1206 46.4109 41.9351 46.1321 42.0279C45.8533 42.1206 45.6675 42.3988 45.6675 42.5843C45.6675 42.7698 45.8533 42.8625 45.8533 42.8625L46.225 43.1407C46.225 43.1407 46.6897 43.1407 46.5968 42.1206Z" fill="#FEF7F2"/>
<path d="M46.969 43.8829C46.969 43.8829 46.5973 43.5119 46.3185 43.6974C46.1326 43.8829 45.9468 44.1611 45.9468 44.4393C45.9468 44.7175 46.5043 44.903 46.5043 44.903C46.5043 44.903 47.2478 44.532 46.969 43.8829Z" fill="#FEF7F2"/>
<path d="M46.1319 45.0886C46.1319 45.0886 45.5743 44.8104 45.4814 44.9031C45.3885 44.9031 45.2026 45.0886 45.2026 45.3668C45.2026 45.6451 45.3885 45.7378 45.4814 45.8305C45.5743 45.8305 45.7602 45.9233 45.7602 45.9233C45.7602 45.9233 46.3178 45.4596 46.1319 45.0886Z" fill="#FEF7F2"/>
<path d="M50.3615 24.1288L51.579 23.3983L51.7739 11.9044L35.7993 21.158V32.8467L50.3615 24.1288Z" fill="#707070"/>
<path d="M42.0474 23.669C41.929 23.5724 41.7837 23.5318 41.6206 23.5408C41.9548 23.1488 42.1563 22.6573 42.1563 22.1617C42.1563 21.9493 42.1185 21.7716 42.039 21.635C41.9578 21.4956 41.8363 21.4051 41.6842 21.3661C41.3905 21.2907 40.9992 21.4104 40.5621 21.672L38.6572 22.7665L38.607 22.7954V22.8532V27.8094V27.9753L38.7537 27.8978L40.7171 26.8605L40.7172 26.8605L40.721 26.8583C41.723 26.2701 42.3296 25.3773 42.3296 24.4669C42.3296 24.1094 42.2407 23.8269 42.0474 23.669ZM40.6049 24.6687L40.605 24.6687L40.6063 24.6679C40.7463 24.5841 40.869 24.5267 40.9731 24.4938C41.078 24.4605 41.158 24.454 41.2156 24.4644C41.2696 24.4742 41.306 24.499 41.3315 24.5388C41.359 24.5818 41.3789 24.6508 41.3789 24.755C41.3789 25.1646 41.0682 25.5988 40.5042 25.9367L39.5577 26.4835V25.2738L40.6049 24.6687ZM39.5577 24.2936V23.1991L40.6023 22.5956C40.8282 22.4832 40.9854 22.456 41.0768 22.4814C41.1175 22.4927 41.1463 22.5145 41.167 22.5499C41.1893 22.588 41.2056 22.6478 41.2056 22.738C41.2056 23.0927 40.9493 23.4686 40.5034 23.7472L39.5577 24.2936Z" fill="white" stroke="white" stroke-width="0.2"/>
<path d="M43.8888 19.8564V19.6892L43.7415 19.7684L42.9908 20.1718L42.9381 20.2001V20.2599V25.216V25.3832L43.0854 25.3041L43.8361 24.9007L43.8888 24.8724V24.8126V19.8564Z" fill="white" stroke="white" stroke-width="0.2"/>
<path d="M44.8438 24.2364V24.4099L44.994 24.3229L46.7831 23.2862C46.7833 23.2861 46.7835 23.286 46.7836 23.2859C48.1427 22.519 49.0861 20.8724 49.0861 19.3955C49.0861 18.6586 48.8494 18.1219 48.4047 17.8879C47.962 17.655 47.3589 17.7466 46.683 18.1569L44.8937 19.1937L44.8438 19.2226V19.2803V24.2364ZM46.7825 19.0219L46.7826 19.0221L46.788 19.0187C47.1758 18.7699 47.5101 18.7442 47.7396 18.8708C47.969 18.9973 48.1354 19.2989 48.1354 19.7989C48.1354 20.298 47.9823 20.8141 47.73 21.2548C47.4773 21.696 47.1295 22.0543 46.7471 22.2451L46.747 22.245L46.7417 22.248L45.7946 22.7953V19.5697L46.7825 19.0219Z" fill="white" stroke="white" stroke-width="0.2"/>
<path d="M51.7734 11.9048L35.7989 21.1584L34.2891 20.2818L50.2636 10.9795L51.7734 11.9048Z" fill="#9A9A9A"/>
<path d="M35.7989 21.1583L34.2891 20.233V31.9217L35.7989 32.7983V21.1583Z" fill="#9A9A9A"/>
<path opacity="0.2" d="M35.768 70.5391C32.4171 72.4871 27.0381 72.4871 23.5991 70.5391C20.2482 68.5912 20.2482 65.4036 23.5991 63.5442C26.9499 61.5963 32.329 61.5963 35.768 63.5442C39.0307 65.4036 39.0307 68.5912 35.768 70.5391Z" fill="url(#paint2_linear)"/>
<path d="M35.1894 66.1604C35.1894 66.1604 35.0965 66.2531 35.0036 66.4386C34.8177 66.7168 34.446 67.2733 33.9814 67.8297C33.7026 68.1079 33.4238 68.3862 33.0521 68.5716C32.4945 68.9426 31.8441 69.2208 31.1006 69.3135C30.7289 69.4063 30.2643 69.4063 29.8926 69.4063C29.1492 69.4063 28.4987 69.4063 27.8482 69.3135C26.3613 69.1281 25.3391 68.7571 25.3391 68.7571C25.3391 68.7571 25.0603 64.8621 25.0603 61.9871C25.1533 59.1122 25.525 54.3825 25.3391 52.2495C25.1533 50.0238 25.0603 49.8383 24.9674 49.8383C24.8745 49.8383 24.224 49.4674 23.4806 48.7255C22.923 48.169 22.8301 47.7981 22.4584 47.2416C22.3654 47.0562 22.1796 46.9634 22.0867 46.7779C21.9937 46.6852 21.9008 46.4997 21.8079 46.407C21.4362 45.6651 21.622 44.6449 21.8079 44.3667C21.9008 43.9958 22.3654 43.7175 22.5513 43.0684C22.6442 42.4192 22.5513 41.8628 23.0159 41.3063C23.4806 40.7499 23.7593 40.9354 23.9452 40.3789C24.1311 39.8225 24.1311 39.4516 24.5028 39.0806C24.8745 38.7096 25.9896 38.3387 25.9896 38.3387C25.9896 38.3387 24.9674 36.6694 24.7816 36.4839C24.6886 36.3912 24.5028 36.2057 24.4098 35.9275C24.3169 35.6492 24.224 35.2783 24.3169 34.9073C24.5028 34.0727 25.432 33.8872 25.6179 33.8872C25.8038 33.8872 26.6401 33.9799 26.9189 34.1654C27.1977 34.3509 29.1492 37.0403 29.2421 37.2258C29.2421 37.2258 29.335 36.8549 30.0784 36.8549C30.8218 36.8549 31.0077 37.504 31.0077 37.7822C31.0077 38.1532 31.0077 38.5242 31.0077 38.5242C31.0077 38.5242 32.2158 40.2862 32.5875 40.7499C32.8663 41.2136 33.4238 42.5119 33.4238 42.7902C33.4238 43.0684 33.3309 43.9958 33.4238 44.4595C33.5167 44.9232 33.5167 45.8505 33.238 46.4997C32.8663 47.1489 32.8663 47.7053 32.7733 47.8908C32.7733 48.0763 32.6804 51.2294 32.7733 52.5278C32.4945 53.8261 32.4945 60.967 35.1894 66.1604Z" fill="#FFE3CF"/>
<path d="M30.6359 49.3743C30.6359 49.3743 30.3571 49.9308 29.9854 50.3017C29.6137 50.6727 28.6844 51.3218 28.6844 51.4146C28.5915 51.5073 28.8703 52.1565 28.3127 52.4347C27.7552 52.7129 27.0117 52.6202 27.0117 52.6202C27.0117 52.6202 26.9188 52.9911 26.8259 54.104C26.64 55.2169 28.4057 58.5555 27.941 62.1723C27.4764 65.0472 27.8481 68.0149 28.0339 69.3132C26.5471 69.1277 25.5249 68.7568 25.5249 68.7568C25.5249 68.7568 25.2461 64.8617 25.2461 61.9868C25.339 59.1119 25.7108 54.3822 25.5249 52.2492C25.339 50.0235 25.2461 49.838 25.1532 49.838C25.0603 49.838 24.4098 49.4671 23.6663 48.7252C23.1088 48.1687 23.0159 47.7978 22.6441 47.2413C22.5512 47.0558 22.3654 46.9631 22.2724 46.7776C22.1795 46.6849 22.0866 46.4994 21.9937 46.4067C22.9229 45.2938 24.0381 46.5922 25.0603 46.9631C26.0825 47.3341 27.6622 48.2615 27.6622 48.2615C27.6622 48.2615 28.1269 49.0961 28.0339 49.0961C28.0339 49.1888 27.6622 50.3017 27.8481 50.4872C28.0339 50.7654 28.4986 50.8581 28.7774 50.7654C29.0561 50.6727 30.543 49.4671 30.6359 49.3743Z" fill="#FFE3CF"/>
<path d="M35.0035 66.4389C34.8177 66.7171 34.4459 67.2736 33.9813 67.83C33.7025 68.1082 33.4237 68.3864 33.052 68.5719C32.7732 68.5719 32.4945 68.2937 32.4015 67.7372C32.1228 66.2534 30.3571 54.3828 30.2642 52.8063C30.1713 51.2297 30.7288 49.9313 30.8218 49.7459C31.0076 49.5604 30.6359 49.2822 30.6359 49.2822C30.6359 49.2822 29.1491 50.0241 29.3349 49.8386C29.5208 49.7459 29.8925 49.0967 29.8925 49.0967C29.8925 49.0967 30.6359 49.004 31.0076 48.8185C31.3793 48.633 32.4015 48.633 32.4015 48.633C32.4015 48.633 31.844 53.5482 32.5874 58.8343C33.2379 63.2858 34.5389 65.697 35.0035 66.4389Z" fill="#FFE3CF"/>
<path d="M28.6846 38.9882C28.6846 38.9882 28.4988 39.1737 28.6846 39.6374C28.8705 40.0083 29.2422 40.7502 29.4281 40.9357C29.6139 41.1212 29.7998 41.3067 29.8927 41.3994C29.8927 41.5849 30.0785 42.0486 30.0785 42.0486C30.0785 42.0486 27.2907 40.101 27.1978 38.9882C27.1049 37.9681 28.6846 38.9882 28.6846 38.9882Z" fill="#F6B486"/>
<path d="M32.7734 47.056C32.7734 47.056 32.1229 48.4471 31.5653 48.7253C31.1007 49.0035 29.8926 48.9108 29.5209 48.9108C29.0563 48.818 31.3795 45.7576 31.3795 45.7576C31.3795 45.7576 31.937 46.3141 32.03 46.4995C32.03 47.5197 32.7734 47.056 32.7734 47.056Z" fill="#F6B486"/>
<path d="M33.1451 45.9437C33.1451 45.9437 32.6805 46.9638 32.4017 46.7783C32.1229 46.5929 31.7512 45.8509 31.5653 45.6655C31.4724 45.48 31.0078 45.2945 31.0078 45.2945C31.0078 45.2945 31.3795 44.3671 31.3795 43.9962C31.3795 43.6252 31.7512 43.7179 31.7512 43.7179C31.7512 43.7179 31.4724 42.6051 31.3795 41.8632C31.2865 41.1212 30.729 40.7503 30.5431 40.0084C30.4502 39.6374 30.4502 38.9882 30.4502 38.5246C30.4502 38.2463 30.5431 37.9681 30.5431 38.0609C30.636 38.1536 30.5431 38.3391 31.1007 39.081C31.6583 39.8229 32.2158 40.7503 32.2158 40.7503C32.2158 40.7503 32.8663 41.6777 32.9592 42.6978C33.1451 43.8107 33.1451 43.9962 33.0522 44.2744C33.1451 44.6453 33.238 45.2945 33.1451 45.9437Z" fill="#FFE3CF"/>
<path d="M30.6361 38.5243C30.6361 38.5243 30.4503 38.5243 30.0786 38.3388C29.7069 38.1533 29.6139 37.2259 29.7069 37.0404C29.7069 36.855 30.2644 36.9477 30.3574 37.0404C30.4503 37.1332 30.6361 37.3187 30.6361 37.8751C30.7291 38.5243 30.6361 38.5243 30.6361 38.5243Z" fill="#FFE3CF"/>
<path d="M29.1488 37.4114C29.1488 37.4114 29.2417 37.5969 29.2417 38.2461C29.1488 38.8953 28.87 39.359 28.7771 39.5444C28.7771 39.7299 29.1488 40.4718 29.1488 40.4718C29.1488 40.4718 28.3125 39.7299 28.2195 39.6372C28.1266 39.4517 27.662 38.988 27.7549 38.8025C27.8478 38.617 29.1488 37.4114 29.1488 37.4114Z" fill="#FCD1B3"/>
<path d="M26.6401 46.8707V49.7456C26.6401 50.0238 26.7331 50.2093 26.9189 50.3948C27.5694 51.0439 28.5916 51.0439 29.1492 50.3948C29.335 50.2093 29.428 49.9311 29.428 49.7456V42.8829L26.6401 41.3063V46.8707Z" fill="#707070"/>
<path d="M26.6401 38.8951V25.9117L29.428 25.3552V37.2258V41.5846L26.6401 38.8951Z" fill="#707070"/>
<path d="M33.9811 67.8296C33.3306 68.4788 32.4014 69.128 31.1004 69.4062C30.7287 69.4989 30.264 69.4989 29.8923 69.4989C29.7994 69.2207 29.7994 69.0352 29.7065 68.8498C29.1489 66.2531 29.3347 62.9145 29.3347 62.9145C29.3347 62.9145 29.2418 62.2653 29.3347 60.7815C29.4277 59.2976 28.5913 57.9065 28.0338 56.9792C27.4762 56.0518 27.5691 53.0841 27.662 52.9914C27.755 52.8986 28.4984 52.7132 28.963 52.5277C29.3347 52.3422 30.4499 50.9511 30.4499 50.9511C30.4499 50.9511 31.0074 54.3825 31.2862 55.7735C31.565 57.1646 33.0518 63.0072 33.0518 63.1927C33.0518 63.2854 33.5165 65.5111 33.9811 67.8296Z" fill="#FFE3CF"/>
<path d="M28.9635 38.8026C28.4059 39.6373 27.4767 38.8954 27.3837 38.8026C27.1979 38.7099 24.5959 35.835 24.2242 35.835C24.1313 35.5568 24.0383 35.1858 24.1313 34.8149C24.3171 33.9802 25.2464 33.7947 25.4322 33.7947C25.6181 33.7947 26.4545 33.8875 26.7332 34.073C27.012 34.2584 28.9635 36.9479 29.0564 37.1333C29.0564 37.1333 29.5211 37.968 28.9635 38.8026Z" fill="#FFE3CF"/>
<path d="M29.0567 37.5039C29.0567 37.5039 28.5921 36.4838 27.9416 35.9273C27.2911 35.2782 26.7335 34.3508 26.2689 34.258C25.8043 34.0726 25.5255 33.8871 24.6891 34.3508C23.8528 34.8145 26.4547 37.133 26.4547 37.133C26.4547 37.133 27.477 38.4313 27.477 38.524C27.5699 38.4313 29.0567 37.5039 29.0567 37.5039Z" fill="#FFEBDD"/>
<path d="M28.8705 37.4114C28.8705 37.4114 28.4058 36.855 27.8482 36.855C27.3836 36.9477 27.1978 37.6896 27.1978 37.8751C27.1978 38.1533 27.8482 38.8952 27.8482 38.8952C27.8482 38.8952 28.22 38.7098 28.5917 38.3388C28.9634 38.0606 29.0563 37.9679 28.8705 37.4114Z" fill="#FEF7F2"/>
<path d="M31.6584 47.149C31.1937 47.7982 30.6362 47.7054 30.6362 47.7054C30.6362 47.7054 30.7291 48.0764 30.6362 48.3546C30.5433 48.6328 30.0786 49.0038 29.3352 48.8183C28.5918 48.7255 28.1271 48.3546 26.6403 47.7982C25.1535 47.3345 24.6888 47.2417 24.6888 47.2417C23.7595 47.2417 23.109 47.2417 22.5515 47.149C22.4585 46.9635 22.2727 46.8708 22.1798 46.6853C21.4363 45.8506 21.7151 44.645 21.901 44.2741C21.9939 43.9031 22.4585 43.6249 22.6444 42.9757C22.7373 42.3266 22.6444 41.7701 23.109 41.2137C23.5737 40.6572 23.8525 40.8427 24.0383 40.2863C24.2242 39.7299 24.2242 39.3589 24.5959 38.9879C24.9676 38.617 26.0827 38.246 26.0827 38.246C26.0827 38.246 27.1979 38.7097 27.3837 38.9879C27.6625 39.2662 28.9635 40.75 29.4281 41.3064C29.9857 41.7701 30.822 42.6048 31.1008 43.0685C31.3796 43.5322 31.4725 44.2741 31.2867 44.7378C30.915 45.2015 30.5433 45.1087 30.4503 45.1087C30.5433 45.1087 31.4725 45.7579 31.5655 45.8506C31.6584 45.9434 32.123 46.4998 31.6584 47.149Z" fill="#FFE3CF"/>
<path d="M30.4503 45.1086C30.4503 45.1086 29.7998 44.8304 29.1493 44.3667C28.4988 43.903 26.7332 42.6974 26.3615 42.5119C25.9898 42.3265 24.5029 41.3063 24.5029 41.3063C24.5029 41.3063 25.0605 41.4918 25.1534 41.4918C25.2464 41.4918 25.9898 41.8628 26.0827 41.9555C26.1756 42.0482 30.2644 45.0159 30.4503 45.1086Z" fill="#F6B486"/>
<path d="M30.636 47.7056C30.636 47.7056 29.7067 47.2419 29.2421 46.9637C28.7774 46.7782 25.6179 45.0162 25.0603 44.738C24.5028 44.4598 23.4806 43.9961 23.2947 43.9033C23.2018 43.9033 23.8523 43.8106 23.9452 43.9033C24.0381 43.9961 26.5472 45.2944 26.6401 45.3872C26.733 45.4799 29.1491 46.6855 29.2421 46.871C29.4279 46.9637 30.5431 47.6129 30.636 47.7056Z" fill="#F6B486"/>
<path d="M25.7109 45.2012C25.7109 45.2012 25.0604 45.4794 24.9674 45.9431C24.8745 46.4068 25.0604 46.8705 26.0826 47.1487C27.1048 47.5197 28.127 47.8906 28.3128 48.0761C28.4987 48.2616 29.2421 48.7253 29.6138 48.818C29.9855 48.9107 30.2643 48.6325 30.3572 48.447C30.4502 48.2616 29.6138 47.3342 29.6138 47.3342C29.6138 47.3342 28.2199 46.4068 27.8482 46.2213C27.5694 46.1286 25.7109 45.2012 25.7109 45.2012Z" fill="#FFEBDD"/>
<path d="M26.6402 42.6971C26.6402 42.6971 26.0826 42.5116 25.618 42.8825C25.2463 43.2535 25.2463 43.439 25.4321 43.9027C25.618 44.3664 26.8261 45.1083 26.8261 45.1083C26.8261 45.1083 29.2422 46.3139 29.3351 46.4066C29.428 46.4994 30.3573 47.2413 30.5432 47.334C30.729 47.4268 31.1007 47.4268 31.1937 47.334C31.2866 47.2413 31.4724 45.8502 31.4724 45.8502C31.4724 45.8502 30.6361 45.2938 30.2644 45.0155C29.7997 44.7373 26.8261 43.068 26.6402 42.6971Z" fill="#FFEBDD"/>
<path d="M29.1492 41.1209C29.1492 41.1209 27.0119 38.9879 26.7331 38.9879C26.4543 38.9879 25.8038 38.8951 25.3392 39.4515C24.8746 40.008 26.1756 41.1209 26.2685 41.3063C26.3614 41.4918 27.8482 42.7902 28.0341 43.0684C28.22 43.2539 29.8927 44.4595 29.8927 44.4595L31.0078 43.5321C31.0078 43.5321 30.6361 42.7902 30.3573 42.4192C29.9856 42.0482 29.1492 41.1209 29.1492 41.1209Z" fill="#FFEBDD"/>
<path d="M31.1007 43.7175C31.1007 43.7175 30.8219 43.4393 30.4502 43.6248C30.0785 43.8103 29.8927 44.0885 29.7997 44.3667C29.7068 44.6449 29.9856 44.7377 29.9856 44.7377C29.9856 44.7377 30.4502 45.1086 30.5431 45.1086C30.6361 45.1086 31.1936 45.0159 31.1007 43.7175Z" fill="#FEF7F2"/>
<path d="M31.6579 46.0364C31.6579 46.0364 31.1004 45.5727 30.8216 45.8509C30.5428 46.1291 30.3569 46.5001 30.3569 46.8711C30.3569 47.242 31.0074 47.5202 31.0074 47.5202C31.0074 47.5202 32.1226 46.9638 31.6579 46.0364Z" fill="#FEF7F2"/>
<path d="M30.636 47.7051C30.636 47.7051 29.7996 47.4269 29.7067 47.4269C29.6137 47.4269 29.335 47.7051 29.335 48.0761C29.335 48.447 29.6137 48.6325 29.7067 48.6325C29.7996 48.6325 30.0784 48.7252 30.0784 48.7252C30.0784 48.7252 30.8218 48.2615 30.636 47.7051Z" fill="#FEF7F2"/>
<path d="M30.3578 32.5893L25.5255 35.3715C24.6892 35.8352 23.667 35.2788 23.667 34.2586V29.529L31.9375 24.7993V29.9926C31.8446 31.1055 31.2871 32.0329 30.3578 32.5893Z" fill="url(#paint3_linear)"/>
<path d="M31.1942 32.96L26.362 35.7422C25.5256 36.2059 24.5034 35.6494 24.5034 34.6293V29.8996L32.774 25.1699V30.3633C32.681 31.3834 32.1235 32.4036 31.1942 32.96Z" fill="url(#paint4_linear)"/>
<path d="M18.0875 31.6899L19.4577 30.8678L19.677 17.9326L1.69922 28.3465V41.501L18.0875 31.6899Z" fill="#707070"/>
<path d="M8.72251 31.182C8.58516 31.0699 8.41417 31.0258 8.221 31.0426C8.60705 30.5998 8.8405 30.0401 8.8405 29.4759C8.8405 29.2383 8.79816 29.0406 8.71013 28.8895C8.62045 28.7356 8.48654 28.6358 8.31856 28.5927C7.99321 28.5092 7.5566 28.6416 7.0652 28.9357L4.92137 30.1675L4.87119 30.1963V30.2542V35.8319V35.9978L5.01791 35.9203L7.2275 34.7529L7.22755 34.7529L7.23141 34.7507C8.35649 34.0902 9.03546 33.089 9.03546 32.0702C9.03546 31.6694 8.93573 31.3561 8.72251 31.182ZM7.10084 32.2865L7.10084 32.2865L7.10218 32.2857C7.2603 32.191 7.39929 32.126 7.51765 32.0885C7.63684 32.0507 7.72901 32.0428 7.79656 32.0551C7.86057 32.0667 7.90464 32.0965 7.93531 32.1444C7.96808 32.1956 7.99062 32.2758 7.99062 32.3945C7.99062 32.8618 7.6365 33.3539 7.00008 33.7351L5.91603 34.3615V32.971L7.10084 32.2865ZM5.91603 31.8969V30.6362L7.09816 29.9532C7.35312 29.8264 7.53383 29.7938 7.64148 29.8236C7.69036 29.8372 7.72546 29.8638 7.75047 29.9065C7.77708 29.9519 7.79565 30.0217 7.79565 30.1245C7.79565 30.5298 7.50313 30.9563 6.9993 31.271L5.91603 31.8969Z" fill="white" stroke="white" stroke-width="0.2"/>
<path d="M10.7905 26.8818V26.7145L10.6432 26.7937L9.79837 27.2477L9.7457 27.276V27.3358V32.9134V33.0807L9.89304 33.0015L10.7379 32.5475L10.7905 32.5192V32.4594V26.8818Z" fill="white" stroke="white" stroke-width="0.2"/>
<path d="M11.8902 31.811V31.9845L12.0404 31.8975L14.054 30.7307C14.0542 30.7306 14.0543 30.7305 14.0545 30.7304C15.5802 29.8695 16.6394 28.0206 16.6394 26.3631C16.6394 25.5358 16.3738 24.9377 15.8792 24.6775C15.3867 24.4183 14.7131 24.519 13.9538 24.9799L11.9401 26.1468L11.8902 26.1757V26.2333V31.811ZM14.0534 25.9317L14.0535 25.9318L14.0589 25.9284C14.4973 25.6471 14.8787 25.616 15.1426 25.7615C15.4064 25.907 15.5946 26.252 15.5946 26.817C15.5946 27.3812 15.4215 27.9641 15.1366 28.4617C14.8514 28.9599 14.4583 29.3651 14.0252 29.5812L14.0251 29.5811L14.0198 29.5841L12.9351 30.2109V26.5517L14.0534 25.9317Z" fill="white" stroke="white" stroke-width="0.2"/>
<path d="M19.6769 17.9328L1.69912 28.3467L0 27.3601L17.9778 16.8914L19.6769 17.9328Z" fill="#9A9A9A"/>
<path d="M1.69912 28.3467L0 27.3053V40.4598L1.69912 41.4464V28.3467Z" fill="#9A9A9A"/>
<path d="M39.6953 22.8039L41.8067 21.5371L42.1446 1.60498L14.4424 17.652V37.922L39.6953 22.8039Z" fill="url(#paint5_linear)"/>
<path d="M25.3992 21.9576C25.1973 21.7927 24.9464 21.7273 24.6632 21.7507C25.231 21.0974 25.5742 20.2726 25.5742 19.4413C25.5742 19.0903 25.5117 18.7981 25.3815 18.5745C25.2488 18.3468 25.0506 18.1991 24.8021 18.1353C24.3209 18.0118 23.6757 18.2077 22.9503 18.6418L19.7861 20.4599L19.7108 20.5032V20.59V28.8224V29.0713L19.9309 28.9551L23.1922 27.232L23.1923 27.2321L23.1981 27.2287C24.8592 26.2536 25.862 24.7752 25.862 23.2703C25.862 22.6785 25.7147 22.2152 25.3992 21.9576ZM23.0053 23.5917L23.0054 23.5917L23.0074 23.5905C23.2406 23.4508 23.4456 23.3549 23.6201 23.2996C23.7958 23.244 23.9314 23.2324 24.0306 23.2504C24.1245 23.2674 24.1889 23.311 24.2338 23.3811C24.2818 23.4561 24.315 23.574 24.315 23.749C24.315 24.4375 23.7932 25.1631 22.8542 25.7256L21.2578 26.648V24.6013L23.0053 23.5917ZM21.2578 23.0104V21.1552L23.0013 20.1478C23.3775 19.9607 23.6435 19.913 23.8015 19.9568C23.8731 19.9766 23.9243 20.0155 23.9609 20.078C23.9999 20.1445 24.0273 20.2471 24.0273 20.3985C24.0273 20.9955 23.5963 21.6245 22.853 22.0887L21.2578 23.0104Z" fill="white" stroke="white" stroke-width="0.3"/>
<path d="M28.4521 15.613V15.3621L28.2311 15.4808L26.9842 16.1509L26.9052 16.1934V16.2831V24.5155V24.7664L27.1262 24.6476L28.3731 23.9776L28.4521 23.9351V23.8454V15.613Z" fill="white" stroke="white" stroke-width="0.3"/>
<path d="M30.0702 22.8877V23.148L30.2954 23.0175L33.2675 21.2953C33.2677 21.2952 33.268 21.295 33.2682 21.2949C35.5208 20.0239 37.0847 17.2941 37.0847 14.8467C37.0847 13.6253 36.6925 12.7414 35.9614 12.3567C35.2334 11.9736 34.2381 12.1227 33.1172 12.8032L30.145 14.5255L30.0702 14.5688V14.6553V22.8877ZM33.2665 14.2121L33.2666 14.2124L33.2748 14.2072C33.9215 13.7922 34.4834 13.7468 34.8719 13.961C35.2601 14.1751 35.5377 14.6832 35.5377 15.5168C35.5377 16.349 35.2824 17.209 34.8621 17.9431C34.4413 18.6781 33.8614 19.2758 33.2227 19.5945L33.2226 19.5943L33.2146 19.5989L31.6172 20.5219V15.1265L33.2665 14.2121Z" fill="white" stroke="white" stroke-width="0.3"/>
<path d="M42.1447 1.6047L14.4424 17.6517L11.8242 16.1315L39.5265 0L42.1447 1.6047Z" fill="url(#paint6_linear)" fill-opacity="0.5"/>
<path d="M14.4424 17.6518L11.8242 16.0471V36.317L14.4424 37.8372V17.6518Z" fill="url(#paint7_linear)"/>
<defs>
<linearGradient id="paint0_linear" x1="7.79198" y1="57.5709" x2="13.4805" y2="69.2531" gradientUnits="userSpaceOnUse">
<stop stop-color="#CFC2BA"/>
<stop offset="0.6" stop-color="#BAAEA8"/>
<stop offset="1" stop-color="#B3A7A1"/>
</linearGradient>
<linearGradient id="paint1_linear" x1="41.5097" y1="53.6687" x2="46.8179" y2="64.6423" gradientUnits="userSpaceOnUse">
<stop stop-color="#CFC2BA"/>
<stop offset="0.6" stop-color="#BAAEA8"/>
<stop offset="1" stop-color="#B3A7A1"/>
</linearGradient>
<linearGradient id="paint2_linear" x1="24.2004" y1="59.0556" x2="31.5583" y2="74.0689" gradientUnits="userSpaceOnUse">
<stop stop-color="#CFC2BA"/>
<stop offset="0.6" stop-color="#BAAEA8"/>
<stop offset="1" stop-color="#B3A7A1"/>
</linearGradient>
<linearGradient id="paint3_linear" x1="24.7672" y1="26.7147" x2="31.9623" y2="32.2567" gradientUnits="userSpaceOnUse">
<stop stop-color="#BCEB00"/>
<stop offset="1" stop-color="#00EAEA"/>
</linearGradient>
<linearGradient id="paint4_linear" x1="25.825" y1="27.0854" x2="32.343" y2="34.176" gradientUnits="userSpaceOnUse">
<stop stop-color="#C6EE27"/>
<stop offset="1" stop-color="#28F7F7"/>
</linearGradient>
<linearGradient id="paint5_linear" x1="18.869" y1="8.08343" x2="40.9315" y2="31.852" gradientUnits="userSpaceOnUse">
<stop stop-color="#C6EE27"/>
<stop offset="1" stop-color="#28F7F7"/>
</linearGradient>
<linearGradient id="paint6_linear" x1="15.8576" y1="3.14883" x2="26.496" y2="21.4224" gradientUnits="userSpaceOnUse">
<stop stop-color="#BCEB00"/>
<stop offset="1" stop-color="#00EAEA"/>
</linearGradient>
<linearGradient id="paint7_linear" x1="12.1725" y1="19.9341" x2="15.7499" y2="20.364" gradientUnits="userSpaceOnUse">
<stop stop-color="#BCEB00"/>
<stop offset="1" stop-color="#00EAEA"/>
</linearGradient>
</defs>
</svg>
