<svg width="64" height="65" viewBox="0 0 64 65" fill="none" xmlns="http://www.w3.org/2000/svg">
<path d="M50.089 20.6381C49.6278 20.6381 49.1791 20.3987 48.932 19.9706C48.5634 19.3322 48.7821 18.516 49.4205 18.1475L50.7229 17.3955C52.9095 16.1331 54.2678 13.7803 54.2678 11.2555C54.2678 7.77997 56.1375 4.54159 59.1474 2.80384L61.998 1.15797C62.6363 0.78959 63.4525 1.00809 63.8211 1.64647C64.1898 2.28484 63.971 3.10109 63.3326 3.46959L60.482 5.11547C58.2954 6.37784 56.9371 8.73059 56.9371 11.2555C56.9371 14.731 55.0674 17.9695 52.0575 19.7071L50.7551 20.4591C50.545 20.5803 50.3155 20.6381 50.089 20.6381Z" fill="url(#paint0_linear)"/>
<path d="M50.7648 21.0584C52.0259 21.0584 53.0482 20.0361 53.0482 18.7751C53.0482 17.514 52.0259 16.4917 50.7648 16.4917C49.5037 16.4917 48.4814 17.514 48.4814 18.7751C48.4814 20.0361 49.5037 21.0584 50.7648 21.0584Z" fill="url(#paint1_linear)"/>
<path d="M49.7605 8.83651C49.7605 8.83651 46.546 6.97151 46.494 6.94676L38.8673 3.31738C38.304 3.04926 37.607 3.12901 36.8893 3.54338L1.37438 24.0479C0.615375 24.4861 0 25.6619 0 26.6739V61.639C0 62.187 0.181375 62.5726 0.46725 62.7434L0.466625 62.7441L0.488375 62.7566C0.493875 62.7596 0.499125 62.7631 0.504625 62.766L3.56913 64.5353L49.7605 8.83651Z" fill="url(#paint2_linear)"/>
<path d="M46.4949 6.94676L38.8681 3.31738C38.3049 3.04926 37.608 3.12901 36.8901 3.54338L30.1191 7.45263L33.2406 9.25488L49.7615 8.83651C49.7614 8.83651 46.5469 6.97151 46.4949 6.94676Z" fill="url(#paint3_linear)"/>
<path d="M46.0038 24.3195C47.2954 23.5738 48.3425 21.5732 48.3425 19.8509C48.3425 18.1288 47.2954 17.3372 46.0038 18.0829C44.7122 18.8287 43.665 20.8293 43.665 22.5515C43.665 24.2738 44.7122 25.0653 46.0038 24.3195Z" fill="url(#paint4_linear)"/>
<path d="M49.615 8.74949L41.9882 5.12012C41.425 4.85199 40.728 4.93174 40.0102 5.34612L4.49547 25.8506C3.73634 26.2889 3.12109 27.4646 3.12109 28.4766V63.4417C3.12109 64.4539 3.73647 64.919 4.49547 64.4807L40.0102 43.9762C40.7281 43.5617 41.425 42.8367 41.9882 41.9182L49.615 29.4824C50.0401 28.7892 50.288 27.9635 50.288 27.2412V10.2135C50.2881 9.49112 50.0401 8.95174 49.615 8.74949ZM46.0035 23.8865C44.8911 24.5287 43.9893 23.847 43.9893 22.3639C43.9893 20.8807 44.8911 19.1577 46.0035 18.5155C47.1158 17.8732 48.0176 18.555 48.0176 20.0381C48.0176 21.5212 47.1158 23.2442 46.0035 23.8865Z" fill="url(#paint5_linear)"/>
<path d="M46.6636 21.9388C45.9356 21.9388 44.625 21.2172 44.6144 20.4869C44.6036 19.7499 45.1922 19.1436 45.9292 19.1329C46.5125 19.1244 47.803 19.1024 48.3082 18.8108L50.3954 17.6058C51.0337 17.2373 51.8499 17.4559 52.2185 18.0943C52.5871 18.7326 52.3684 19.5489 51.73 19.9174L49.6427 21.1225C48.744 21.6413 47.7209 21.9235 46.6835 21.9386C46.677 21.9388 45.955 21.802 46.6636 21.9388Z" fill="url(#paint6_linear)"/>
<path d="M23.9139 32.2553C23.9139 31.1212 24.6846 30.1092 25.854 29.4341C26.765 28.9081 28.01 28.5976 29.2821 28.5044C30.8831 28.3871 32.2507 27.3076 32.7062 25.7683C33.277 23.8393 31.5195 22.0192 29.5752 22.5358C29.0206 22.6832 28.4511 22.8804 27.8741 23.1291V20.0692C27.8741 19.1296 26.8569 18.5422 26.043 19.0121C24.9886 19.6209 24.3391 20.7458 24.3391 21.9633V25.2056C21.4194 27.5301 19.4439 29.0457 18.941 32.4052H18.8105V35.8044C18.8105 44.5937 28.6186 36.3792 28.6186 40.5967C28.6186 41.9079 27.7149 43.1386 26.2795 43.9672C25.152 44.6182 23.7015 44.9292 22.3086 44.8613C20.889 44.7921 19.5797 43.4969 18.8636 44.6681H18.3447V48.3291H18.3485C18.3331 49.7654 19.5329 51.0099 21.0676 50.9316C22.1082 50.8783 23.2156 50.6324 24.3391 50.1909V53.0248L27.8741 50.9838V48.1854C31.2232 45.6492 33.722 41.6549 33.722 37.2958C33.722 28.3646 23.9139 36.3663 23.9139 32.2553Z" fill="url(#paint7_linear)"/>
<path d="M24.3142 49.0154V49.9133C24.3142 50.3998 24.5877 50.7901 24.9636 50.9899L24.9621 50.9913L27.823 52.6353V46.7739C27.8228 46.7739 23.6428 48.3882 24.3142 49.0154Z" fill="url(#paint8_linear)"/>
<path d="M32.2398 29.7492C30.8544 28.821 28.7263 29.3481 26.9649 29.6872L26.1377 31.107L29.8996 33.3987L35.0568 31.3647L32.2389 29.7463C32.2389 29.7462 32.2396 29.7481 32.2398 29.7492Z" fill="url(#paint9_linear)"/>
<path d="M28.5935 36.9755C28.5935 38.2866 27.6896 39.5172 26.2545 40.346C25.127 40.997 23.6765 41.308 22.2836 41.24C20.5363 41.1547 18.9561 42.2717 18.4435 43.9444L18.4347 43.9731C18.0516 45.2232 18.6596 46.4705 19.7106 47.0209L19.7093 47.0212L22.5525 48.662L34.5702 38.1546C34.059 37.5969 28.5935 34.731 28.5935 36.9755Z" fill="url(#paint10_linear)"/>
<path d="M18.7852 32.183C18.7852 34.5046 19.4698 35.6394 20.477 36.1306L20.4764 36.131L23.3393 37.7885L27.5302 22.9915L24.3138 21.584C20.9115 24.2927 18.7852 28.2492 18.7852 32.183Z" fill="url(#paint11_linear)"/>
<path d="M27.2605 15.4037V15.4051C26.9013 15.1878 26.4337 15.1511 26.0183 15.3909C24.964 15.9997 24.3145 17.1247 24.3145 18.3422V21.5844L27.3048 23.3085L29.4136 18.8559C29.3348 18.5315 30.2361 17.1191 30.2361 17.1191L27.2605 15.4037Z" fill="url(#paint12_linear)"/>
<path d="M31.6136 19.245L31.614 19.2467C31.1716 18.9556 30.6371 18.7972 30.0684 18.8312L30.8394 21.232L32.9142 21.9307C33.8814 21.3153 34.5231 20.9181 34.5231 20.9181L31.6136 19.245Z" fill="url(#paint13_linear)"/>
<path d="M30.8385 46.2885V49.7432C30.8385 50.9607 30.189 52.0857 29.1346 52.6945C28.3207 53.1643 27.3035 52.577 27.3035 51.6373V48.294C26.18 48.7355 25.0726 48.9813 24.032 49.0345C22.2392 49.1261 20.898 47.4136 21.4241 45.6973L21.433 45.6686C21.9456 43.9961 23.5258 42.879 25.2731 42.9642C26.666 43.0322 28.1165 42.7211 29.244 42.0702C30.6792 41.2416 31.5831 40.011 31.5831 38.6997C31.5831 34.4822 21.775 42.6967 21.775 33.9075C21.775 29.9737 23.9013 26.0172 27.3036 23.3086V20.0663C27.3036 18.8488 27.9531 17.7238 29.0075 17.1151C29.8213 16.6452 30.8386 17.2326 30.8386 18.1723V21.2322C31.4156 20.9835 31.9851 20.7863 32.5398 20.639C34.4841 20.1225 36.2416 21.9425 35.6707 23.8715C35.2152 25.4108 33.8477 26.4903 32.2466 26.6076C30.9746 26.7008 29.7295 27.0113 28.8185 27.5372C27.6491 28.2123 26.8783 29.2245 26.8783 30.3585C26.8783 34.4695 36.6865 26.4678 36.6865 35.3986C36.6863 39.7581 34.1876 43.7523 30.8385 46.2885Z" fill="url(#paint14_linear)"/>
<defs>
<linearGradient id="paint0_linear" x1="49.5453" y1="5.64629" x2="59.7958" y2="8.93871" gradientUnits="userSpaceOnUse">
<stop stop-color="#9D9D9D"/>
<stop offset="0.9916" stop-color="#E6E6E6"/>
</linearGradient>
<linearGradient id="paint1_linear" x1="49.0889" y1="17.3063" x2="52.2539" y2="20.4713" gradientUnits="userSpaceOnUse">
<stop stop-color="#BCEB00"/>
<stop offset="1" stop-color="#00EAEA"/>
</linearGradient>
<linearGradient id="paint2_linear" x1="43.8007" y1="-0.0983323" x2="7.809" y2="86.1326" gradientUnits="userSpaceOnUse">
<stop stop-color="#BCEB00"/>
<stop offset="0.203093" stop-color="#55EB2F"/>
<stop offset="1" stop-color="#00EAEA"/>
</linearGradient>
<linearGradient id="paint3_linear" x1="42.3511" y1="6.75263" x2="39.8963" y2="8.17001" gradientUnits="userSpaceOnUse">
<stop stop-color="#28C59C"/>
<stop offset="1" stop-color="#CBF8DC" stop-opacity="0"/>
</linearGradient>
<linearGradient id="paint4_linear" x1="47.7503" y1="23.5974" x2="43.6872" y2="20.4848" gradientUnits="userSpaceOnUse">
<stop stop-color="#C1F100"/>
<stop offset="1" stop-color="#28B7B7"/>
</linearGradient>
<linearGradient id="paint5_linear" x1="9.39551" y1="15.6107" x2="49.6379" y2="47.4147" gradientUnits="userSpaceOnUse">
<stop stop-color="#BCEB00"/>
<stop offset="1" stop-color="#00EAEA"/>
</linearGradient>
<linearGradient id="paint6_linear" x1="45.6961" y1="18.498" x2="49.3854" y2="20.8914" gradientUnits="userSpaceOnUse">
<stop stop-color="#9D9D9D"/>
<stop offset="0.9916" stop-color="#E6E6E6"/>
</linearGradient>
<linearGradient id="paint7_linear" x1="26.0334" y1="71.4579" x2="26.0334" y2="19.7272" gradientUnits="userSpaceOnUse">
<stop offset="0.0319" stop-color="#2ECB73"/>
<stop offset="1" stop-color="#4DA93A" stop-opacity="0"/>
</linearGradient>
<linearGradient id="paint8_linear" x1="27.2038" y1="48.6832" x2="24.9556" y2="52.5772" gradientUnits="userSpaceOnUse">
<stop stop-color="#9D9D9D"/>
<stop offset="0.324" stop-color="#B5B4B8"/>
<stop offset="0.9916" stop-color="#E6E6E6"/>
</linearGradient>
<linearGradient id="paint9_linear" x1="33.5151" y1="30.5866" x2="31.9949" y2="33.9711" gradientUnits="userSpaceOnUse">
<stop stop-color="#9D9D9D"/>
<stop offset="0.9916" stop-color="#E6E6E6"/>
</linearGradient>
<linearGradient id="paint10_linear" x1="27.6232" y1="39.0174" x2="22.3877" y2="48.0856" gradientUnits="userSpaceOnUse">
<stop stop-color="#9C9C9C"/>
<stop offset="0.324" stop-color="#E2DFEC"/>
<stop offset="0.6743" stop-color="#F7F7F7"/>
<stop offset="1" stop-color="#A5A5A5"/>
</linearGradient>
<linearGradient id="paint11_linear" x1="21.107" y1="33.3069" x2="26.6183" y2="23.761" gradientUnits="userSpaceOnUse">
<stop stop-color="#A5A5A5"/>
<stop offset="0.9916" stop-color="#E2E8ED"/>
</linearGradient>
<linearGradient id="paint12_linear" x1="27.2753" y1="15.2261" x2="27.2753" y2="23.3085" gradientUnits="userSpaceOnUse">
<stop stop-color="#DEE4E8"/>
<stop offset="0.843744" stop-color="#C1C3C5"/>
</linearGradient>
<linearGradient id="paint13_linear" x1="33.7531" y1="19.8378" x2="33.1157" y2="22.4306" gradientUnits="userSpaceOnUse">
<stop stop-color="#9D9D9D"/>
<stop offset="0.324" stop-color="#B5B4B8"/>
<stop offset="0.9916" stop-color="#E6E6E6"/>
</linearGradient>
<linearGradient id="paint14_linear" x1="28.9975" y1="78.3015" x2="28.9975" y2="23.9491" gradientUnits="userSpaceOnUse">
<stop stop-color="#DFDAEF"/>
<stop offset="1" stop-color="white"/>
</linearGradient>
</defs>
</svg>
