<svg width="16" height="16" viewBox="0 0 16 16" fill="none" xmlns="http://www.w3.org/2000/svg">
<path d="M0 7.90239C0 8.24597 0.187775 8.71449 0.438142 8.96437L7.04157 15.5549C7.63619 16.1484 8.60636 16.1484 9.16968 15.5549L15.554 9.18302C16.1487 8.62079 16.1487 7.65251 15.554 7.05905L8.95061 0.468521C8.70024 0.218643 8.23081 0 7.88655 0H1.5022C0.657213 0 0 0.687164 0 1.49927V7.90239ZM3.50513 1.99902C4.31883 1.99902 5.00734 2.68619 5.00734 3.49829C5.00734 4.34163 4.31883 4.99756 3.50513 4.99756C2.66015 4.99756 2.00293 4.34163 2.00293 3.49829C2.00293 2.68619 2.66015 1.99902 3.50513 1.99902Z" fill="white"/>
</svg>
