<svg width="33" height="64" viewBox="0 0 33 64" fill="none" xmlns="http://www.w3.org/2000/svg">
<path opacity="0.5" d="M1.63882 19.8655L28.571 4.31557C28.8871 4.14311 29.1458 4.28683 29.1458 4.66048V41.9688C29.1458 42.3425 28.8871 42.7736 28.571 42.9748L1.63882 58.5248C1.32265 58.6972 1.06396 58.5535 1.06396 58.1798V20.8715C1.06396 20.4978 1.32265 20.038 1.63882 19.8655Z" fill="white"/>
<path d="M24.2595 17.3937L17.275 34.1221L12.6761 30.4142C12.2737 30.0981 11.6701 30.2418 11.4402 30.7017L1.06396 53.4373V56.5128C1.06396 56.8865 1.32265 57.0302 1.63882 56.8577L5.69158 54.5008L28.5422 41.3078C28.8584 41.1354 29.1171 40.6755 29.1171 40.3018V22.28L25.6392 17.25C25.2943 16.7326 24.5182 16.8188 24.2595 17.3937Z" fill="url(#paint0_linear)"/>
<path opacity="0.5" d="M24.2595 17.3937L17.275 34.1221L12.6761 30.4142C12.2737 30.0981 11.6701 30.2418 11.4402 30.7017L1.06396 53.4373V56.5128C1.06396 56.8865 1.32265 57.0302 1.63882 56.8577L5.69158 54.5008L28.5422 41.3078C28.8584 41.1354 29.1171 40.6755 29.1171 40.3018V22.28L25.6392 17.25C25.2943 16.7326 24.5182 16.8188 24.2595 17.3937Z" fill="white"/>
<path d="M27.5073 18.2287L25.3804 17.0215V19.4359L27.5073 18.2287Z" fill="url(#paint1_linear)"/>
<path opacity="0.5" d="M27.5073 18.2287L25.3804 17.0215V19.4359L27.5073 18.2287Z" fill="white"/>
<path d="M14.7171 31.5646L12.5614 30.3286L12.5039 32.743L14.7171 31.5646Z" fill="url(#paint2_linear)"/>
<path opacity="0.5" d="M14.7171 31.5646L12.5614 30.3286L12.5039 32.743L14.7171 31.5646Z" fill="white"/>
<path d="M32.3646 2.2759C32.3646 2.24715 32.3646 2.21841 32.3646 2.21841C32.3071 1.90224 32.0771 1.55732 31.8184 1.38487L30.8124 0.810007C30.4963 0.63755 29.9789 0.63755 29.6627 0.810007L0.574859 17.5671C0.402401 17.6534 0.258686 17.8258 0.172457 17.9983C0.0574854 18.1707 0 18.3719 0 18.5731V62.1187C0 62.4924 0.258686 62.9235 0.574859 63.1247L1.58086 63.6996C1.86829 63.872 2.29944 63.872 2.58686 63.757C2.58686 63.757 2.61561 63.757 2.61561 63.7283C2.64435 63.7283 2.67309 63.6996 2.70184 63.6708L15.4924 56.2839L31.7897 46.8849C32.1059 46.7125 32.3646 46.2526 32.3646 45.8789V2.36213C32.3646 2.33338 32.3646 2.30464 32.3646 2.2759ZM30.9849 41.74C30.9849 42.1136 30.7262 42.5448 30.41 42.746L15.5499 51.3401L3.79407 58.0947C3.4779 58.2671 3.21921 58.1234 3.21921 57.7498V20.4414C3.21921 20.269 3.27669 20.0678 3.39167 19.8666C3.50664 19.6941 3.65035 19.5217 3.79407 19.4354L30.41 4.0867C30.7262 3.91424 30.9849 4.05796 30.9849 4.43162V41.74Z" fill="#8E8E8E"/>
<path d="M15.5505 51.3097C15.5505 53.063 15.5217 54.7588 15.5217 56.3109L2.73113 63.6979C2.70239 63.7266 2.67365 63.7266 2.64491 63.7553C2.64491 63.7553 2.61616 63.7553 2.61616 63.7841C2.29999 63.8991 1.86884 63.8703 1.61016 63.7266L0.604156 63.1517C0.287983 62.9793 0.0292969 62.5194 0.0292969 62.1457V18.5714C0.0292969 18.399 0.0867834 18.1978 0.201755 17.9966C0.8341 18.3702 1.55267 18.7726 2.35748 19.2325C2.70239 19.4337 3.07605 19.6349 3.44971 19.8649C3.33473 20.0373 3.27725 20.2385 3.27725 20.4397V57.7481C3.27725 58.1217 3.53594 58.2654 3.85211 58.093L15.5505 51.3097Z" fill="#5C5C5C"/>
<path d="M3.21973 20.4412V28.2881C4.11076 28.6042 5.23173 28.4605 6.46768 27.742C9.31323 26.1036 11.5839 22.1371 11.5839 18.8604C11.5839 17.337 11.0953 16.2448 10.2905 15.6699L3.79459 19.4065C3.47841 19.6364 3.21973 20.0676 3.21973 20.4412Z" fill="url(#paint3_linear)"/>
<path opacity="0.7" d="M3.21973 20.4412V28.2881C4.11076 28.6042 5.23173 28.4605 6.46768 27.742C9.31323 26.1036 11.5839 22.1371 11.5839 18.8604C11.5839 17.337 11.0953 16.2448 10.2905 15.6699L3.79459 19.4065C3.47841 19.6364 3.21973 20.0676 3.21973 20.4412Z" fill="white"/>
<path d="M26.4153 18.6304L19.4307 35.3588L14.8319 31.6509C14.4295 31.3348 13.8259 31.4785 13.5959 31.9384L3.21973 54.674V57.7495C3.21973 58.1232 3.47841 58.2669 3.79459 58.0944L7.84734 55.7375L30.3818 42.717C30.698 42.5445 30.9567 42.0846 30.9567 41.7109V23.6891L27.7949 18.4867C27.45 17.9693 26.674 18.0268 26.4153 18.6304Z" fill="url(#paint4_linear)" stroke="url(#paint5_linear)" stroke-miterlimit="10"/>
<path d="M32.3651 2.27579C32.3651 2.24705 32.3651 2.2183 32.3651 2.2183C32.3076 1.98836 32.0776 1.90213 31.819 2.04585L2.73111 18.8317C2.55865 18.918 2.41494 19.0904 2.32871 19.2629C2.21374 19.4353 2.15625 19.6365 2.15625 19.8377V63.3833C2.15625 63.6995 2.35745 63.8432 2.58739 63.7857C2.58739 63.7857 2.61614 63.7857 2.61614 63.7569C2.64488 63.7569 2.67362 63.7282 2.70237 63.6995L15.493 56.3125L31.7902 46.9136C32.1064 46.7411 32.3651 46.2812 32.3651 45.9076V2.36202C32.3651 2.33328 32.3651 2.30453 32.3651 2.27579ZM30.9854 41.7399C30.9854 42.1135 30.7267 42.5447 30.4106 42.7459L15.5505 51.34L3.7946 58.0946C3.47843 58.267 3.21974 58.1233 3.21974 57.7497V20.4413C3.21974 20.2689 3.27722 20.0677 3.3922 19.8665C3.50717 19.694 3.65088 19.5216 3.7946 19.4353L30.4106 4.0866C30.7267 3.91414 30.9854 4.05785 30.9854 4.43151V41.7399Z" fill="#707070"/>
<defs>
<linearGradient id="paint0_linear" x1="4.79575" y1="24.0472" x2="30.8695" y2="42.3232" gradientUnits="userSpaceOnUse">
<stop stop-color="#BCEB00"/>
<stop offset="1" stop-color="#00EAEA"/>
</linearGradient>
<linearGradient id="paint1_linear" x1="25.6633" y1="17.4522" x2="27.3233" y2="18.9145" gradientUnits="userSpaceOnUse">
<stop stop-color="#BCEB00"/>
<stop offset="1" stop-color="#00EAEA"/>
</linearGradient>
<linearGradient id="paint2_linear" x1="12.7983" y1="30.7593" x2="14.4653" y2="32.2874" gradientUnits="userSpaceOnUse">
<stop stop-color="#BCEB00"/>
<stop offset="1" stop-color="#00EAEA"/>
</linearGradient>
<linearGradient id="paint3_linear" x1="4.33238" y1="17.9491" x2="12.4479" y2="23.2619" gradientUnits="userSpaceOnUse">
<stop stop-color="#BCEB00"/>
<stop offset="1" stop-color="#00EAEA"/>
</linearGradient>
<linearGradient id="paint4_linear" x1="6.90946" y1="25.2759" x2="32.8852" y2="43.2737" gradientUnits="userSpaceOnUse">
<stop stop-color="#BCEB00"/>
<stop offset="1" stop-color="#00EAEA"/>
</linearGradient>
<linearGradient id="paint5_linear" x1="6.90946" y1="25.2759" x2="32.8852" y2="43.2737" gradientUnits="userSpaceOnUse">
<stop stop-color="#BCEB00"/>
<stop offset="1" stop-color="#00EAEA"/>
</linearGradient>
</defs>
</svg>
