<svg width="40" height="40" viewBox="0 0 40 40" fill="none" xmlns="http://www.w3.org/2000/svg">
<path d="M20.0001 39.4001C30.7144 39.4001 39.4001 30.7144 39.4001 20.0001C39.4001 9.28577 30.7144 0.600098 20.0001 0.600098C9.28577 0.600098 0.600098 9.28577 0.600098 20.0001C0.600098 30.7144 9.28577 39.4001 20.0001 39.4001Z" fill="url(#paint0_linear_9478_11456)"/>
<path d="M28.4904 27.7304L21.9304 11.8704C21.5604 11.0504 21.0104 10.6504 20.2854 10.6504H19.7054C18.9804 10.6504 18.4304 11.0504 18.0604 11.8704L15.2054 18.7804H13.0454C12.4004 18.7854 11.8754 19.3054 11.8704 19.9554V19.9704C11.8754 20.6154 12.4004 21.1404 13.0454 21.1454H14.2054L11.4804 27.7304C11.4304 27.8754 11.4004 28.0254 11.4004 28.1804C11.4004 28.5504 11.5154 28.8404 11.7204 29.0654C11.9254 29.2904 12.2204 29.4004 12.5904 29.4004C12.8354 29.3954 13.0704 29.3204 13.2654 29.1754C13.4754 29.0304 13.6204 28.8204 13.7354 28.5804L16.7354 21.1404H18.8154C19.4604 21.1354 19.9854 20.6154 19.9904 19.9654V19.9354C19.9854 19.2904 19.4604 18.7654 18.8154 18.7604H17.7054L19.9954 13.0554L26.2354 28.5754C26.3504 28.8154 26.4954 29.0254 26.7054 29.1704C26.9004 29.3154 27.1404 29.3904 27.3804 29.3954C27.7504 29.3954 28.0404 29.2854 28.2504 29.0604C28.4604 28.8354 28.5704 28.5454 28.5704 28.1754C28.5754 28.0254 28.5504 27.8704 28.4904 27.7304Z" fill="white"/>
<defs>
<linearGradient id="paint0_linear_9478_11456" x1="34.4645" y1="7.82942" x2="5.59726" y2="32.1182" gradientUnits="userSpaceOnUse">
<stop stop-color="#B6509E"/>
<stop offset="1" stop-color="#2EBAC6"/>
</linearGradient>
</defs>
</svg>
