<svg width="40" height="40" viewBox="0 0 40 40" fill="none" xmlns="http://www.w3.org/2000/svg">
<path d="M20 40C31.046 40 40 31.046 40 20C40 8.954 31.046 0 20 0C8.954 0 0 8.954 0 20C0 31.046 8.954 40 20 40Z" fill="#00D395"/>
<path fill-rule="evenodd" clip-rule="evenodd" d="M11.5538 26.7061C10.9558 26.3401 10.5898 25.6901 10.5898 24.9901V21.0821C10.5898 20.6181 10.9678 20.2421 11.4318 20.2441C11.5798 20.2441 11.7258 20.2841 11.8538 20.3581L20.6718 25.5001C21.1878 25.8001 21.5058 26.3521 21.5058 26.9501V30.9981C21.5078 31.5541 21.0578 32.0061 20.5018 32.0061C20.3158 32.0061 20.1318 31.9541 19.9738 31.8581L11.5538 26.7061ZM24.6978 19.2881C25.2138 19.5881 25.5298 20.1421 25.5318 20.7381V28.9541C25.5318 29.1961 25.4018 29.4201 25.1898 29.5381L23.2598 30.6241C23.2358 30.6381 23.2098 30.6481 23.1818 30.6561V26.0941C23.1818 25.5041 22.8718 24.9561 22.3638 24.6521L14.6198 20.0201V14.8701C14.6198 14.4061 14.9978 14.0301 15.4618 14.0321C15.6098 14.0321 15.7558 14.0721 15.8838 14.1461L24.6978 19.2881ZM28.5578 13.2201C29.0758 13.5201 29.3938 14.0741 29.3938 14.6721V26.6721C29.3918 26.9181 29.2558 27.1441 29.0398 27.2621L27.2098 28.2501V19.8961C27.2098 19.3061 26.8998 18.7601 26.3958 18.4561L18.4798 13.7081V8.82406C18.4798 8.67606 18.5198 8.53006 18.5918 8.40206C18.8258 8.00206 19.3398 7.86606 19.7398 8.09806L28.5578 13.2201Z" fill="#373837"/>
</svg>
