<svg width="40" height="40" viewBox="0 0 40 40" fill="none" xmlns="http://www.w3.org/2000/svg">
<path d="M20 0C31.0467 0 40 8.95509 40 20C40 31.0467 31.0467 40 20 40C8.95509 40 0 31.0458 0 20C0 8.95509 8.95509 0 20 0Z" fill="#F5AC37"/>
<path d="M20.7402 21.4123H28.3399C28.5019 21.4123 28.5784 21.4123 28.5901 21.1999C28.6522 20.4268 28.6522 19.6492 28.5901 18.8751C28.5901 18.7248 28.5154 18.6627 28.3525 18.6627H13.2279C13.0407 18.6627 12.9903 18.7248 12.9903 18.9004V21.1252C12.9903 21.4123 12.9903 21.4123 13.29 21.4123H20.7402V21.4123ZM27.7414 16.0626C27.763 16.0059 27.763 15.9438 27.7414 15.888C27.6145 15.6117 27.4642 15.348 27.2896 15.1005C27.0268 14.6775 26.7172 14.2878 26.3644 13.9377C26.1979 13.7262 26.0053 13.5363 25.7893 13.3752C24.7075 12.4545 23.4214 11.8029 22.039 11.4753C21.3415 11.3187 20.6286 11.244 19.914 11.2503H13.2018C13.0146 11.2503 12.9894 11.325 12.9894 11.4879V15.9249C12.9894 16.1121 12.9894 16.1625 13.227 16.1625H27.6514C27.6514 16.1625 27.7765 16.1373 27.8017 16.0626H27.7405H27.7414ZM27.7414 24.0124C27.529 23.989 27.3148 23.989 27.1024 24.0124H13.2405C13.0533 24.0124 12.9903 24.0124 12.9903 24.2626V28.6006C12.9903 28.8004 12.9903 28.8508 13.2405 28.8508H19.6404C19.9464 28.8742 20.2524 28.8526 20.5521 28.7887C21.481 28.7221 22.3945 28.5205 23.2657 28.1884C23.5825 28.0786 23.8885 27.9355 24.1774 27.7636H24.2647C25.765 26.9833 26.9836 25.7575 27.7522 24.2527C27.7522 24.2527 27.8395 24.0637 27.7414 24.0142V24.0124ZM10.4783 31.1V31.0253V28.1128V27.1255V24.1879C10.4783 24.025 10.4783 24.0007 10.2785 24.0007H7.56592C7.41562 24.0007 7.35352 24.0007 7.35352 23.8009V21.4258H10.2533C10.4153 21.4258 10.4783 21.4258 10.4783 21.2134V18.8634C10.4783 18.7131 10.4783 18.6762 10.2785 18.6762H7.56592C7.41562 18.6762 7.35352 18.6762 7.35352 18.4764V16.2768C7.35352 16.1391 7.35352 16.1022 7.55332 16.1022H10.2407C10.4279 16.1022 10.4783 16.1022 10.4783 15.8646V9.12716C10.4783 8.92735 10.4783 8.87695 10.7285 8.87695H20.103C20.7834 8.90395 21.4594 8.97865 22.1281 9.10196C23.506 9.35666 24.8299 9.84896 26.0404 10.5519C26.8432 11.0244 27.5821 11.595 28.24 12.252C28.735 12.7659 29.1814 13.3221 29.5774 13.9143C29.9707 14.5146 30.2974 15.1563 30.5539 15.8268C30.5854 16.0014 30.7528 16.1193 30.9274 16.0896H33.1649C33.452 16.0896 33.452 16.0896 33.4646 16.365V18.4152C33.4646 18.615 33.3899 18.6654 33.1892 18.6654H31.4639C31.2893 18.6654 31.2389 18.6654 31.2515 18.8904C31.3199 19.6519 31.3199 20.416 31.2515 21.1774C31.2515 21.3898 31.2514 21.415 31.49 21.415H33.4637C33.551 21.5275 33.4637 21.64 33.4637 21.7534C33.4763 21.8983 33.4763 22.045 33.4637 22.1899V23.7028C33.4637 23.9152 33.4016 23.9782 33.2135 23.9782H30.8509C30.6862 23.9467 30.526 24.052 30.4882 24.2158C29.9257 25.6783 29.0257 26.9896 27.8629 28.0408C27.4381 28.4233 26.9917 28.7833 26.5255 29.1154C26.0251 29.4035 25.5382 29.7032 25.0252 29.9408C24.0811 30.3656 23.0911 30.6788 22.075 30.8777C21.1102 31.0505 20.1318 31.1288 19.1499 31.1153H10.4747V31.1027L10.4783 31.1Z" fill="#FEFEFD"/>
</svg>
