<svg width="40" height="40" viewBox="0 0 40 40" fill="none" xmlns="http://www.w3.org/2000/svg">
<rect width="40" height="40" rx="20" fill="url(#paint0_linear_9478_11470)"/>
<path d="M20.0194 8.13836C19.8346 13.4623 19.8402 19.193 20.0194 24.5498C20.1782 19.1948 20.1834 13.4625 20.0194 8.13836Z" fill="white"/>
<path d="M13.8023 36.3538L13.7898 36.3125C15.7358 34.8994 17.6803 33.4818 19.623 32.0592C19.8895 31.8626 20.1099 31.8422 20.3827 32.0419C22.3191 33.4528 24.2555 34.8634 26.1918 36.2737C26.2079 36.2898 26.2215 36.3078 26.2324 36.3274C26.1204 36.3496 26.0559 36.2731 25.9792 36.2349C24.7484 35.6172 23.4501 35.1292 22.1073 34.7798C20.5525 34.3746 18.9963 34.4267 17.4631 34.8992C16.2595 35.2704 15.078 35.6975 13.9663 36.2785C13.913 36.3064 13.8566 36.3286 13.8023 36.3538Z" fill="white"/>
<path d="M12.6952 16.5124C12.5722 16.3897 12.5129 16.2744 12.6394 16.1203C14.3473 13.9782 15.135 11.4904 15.6612 8.90891C15.9971 7.26577 16.1955 5.60578 16.3898 3.94163H16.4531V4.10985C16.4765 8.30142 16.4771 12.4938 16.5304 16.6856C16.5722 19.9536 16.5463 23.2191 16.5868 26.4852C16.5981 27.3709 16.6165 28.2569 16.6311 29.1432C16.6424 29.8202 16.8278 30.4392 17.297 30.9692C17.4593 31.1525 17.6102 31.3447 17.749 31.5446C17.8871 31.7443 17.8852 31.9391 17.6586 32.0938C15.8979 33.2973 14.2153 34.5963 12.5254 35.8858C12.4765 35.9095 12.4258 35.9296 12.3735 35.9456C12.6955 35.2603 12.9253 34.6131 13.1549 33.9664L13.1592 33.9545C13.7511 32.2856 14.0075 30.5737 13.9918 28.8157C13.9778 27.2223 13.9864 25.6288 14.0177 24.0354C14.0409 22.8403 14.0588 21.6451 14.0012 20.4502C13.9638 19.6721 13.8727 18.9019 13.6346 18.1532C13.4416 17.5455 13.161 16.9808 12.6952 16.5124Z" fill="white"/>
<path d="M23.4477 22.7991C23.511 19.0464 23.4634 15.2927 23.5173 11.54C23.5534 9.00719 23.5425 6.47481 23.5693 3.93945H23.6501C23.8573 5.89387 24.1017 7.84294 24.5504 9.76486C25.0494 11.8992 25.7762 13.9475 27.1126 15.7636C27.4941 16.2811 27.4918 16.2839 27.1088 16.7657L27.098 16.7793C26.4954 17.5364 26.2656 18.4232 26.1313 19.338C26.0356 20.0189 25.9914 20.7054 25.999 21.3923C26.0084 23.4061 25.9882 25.4174 26.0287 27.4275C26.0527 28.6017 26.0224 29.7776 26.1275 30.9494C26.1699 31.4269 26.289 31.8923 26.4093 32.3562C26.7195 33.5571 27.0867 34.738 27.6273 35.8875C27.4798 35.905 27.4147 35.8182 27.3399 35.7586L27.262 35.6989C25.6659 34.4776 24.0694 33.256 22.4051 32.117C22.1574 31.948 22.119 31.7651 22.284 31.5333C22.3391 31.4489 22.4016 31.3689 22.4707 31.2944C23.2154 30.5509 23.4306 29.6451 23.4274 28.655L23.4273 28.6239C23.4211 26.6814 23.4149 24.7395 23.4477 22.7991Z" fill="white"/>
<defs>
<linearGradient id="paint0_linear_9478_11470" x1="20" y1="0" x2="20" y2="40" gradientUnits="userSpaceOnUse">
<stop stop-color="#5D2972"/>
<stop offset="1" stop-color="#232452"/>
</linearGradient>
</defs>
</svg>
