<svg width="40" height="40" viewBox="0 0 40 40" fill="none" xmlns="http://www.w3.org/2000/svg">
<path d="M19.9978 39.9957C31.0423 39.9957 39.9957 31.0423 39.9957 19.9978C39.9957 8.95334 31.0423 0 19.9978 0C8.95334 0 0 8.95334 0 19.9978C0 31.0423 8.95334 39.9957 19.9978 39.9957Z" fill="url(#paint0_linear_9478_11464)"/>
<path d="M13.4106 15.0258C13.2507 14.8274 13.0082 14.7172 12.7491 14.7172H7.4079C7.3638 14.7172 7.32522 14.7006 7.29214 14.6731C7.26458 14.6455 7.24805 14.6124 7.24805 14.5738V10.9745C7.24805 10.9359 7.26458 10.9028 7.29214 10.8752C7.32522 10.8422 7.3638 10.8256 7.4079 10.8311H13.0523C14.4744 10.8311 15.7036 11.4154 16.7399 12.5785L18.1124 14.2541L15.439 17.5118L13.4106 15.0258ZM23.2772 12.5619C24.3079 11.4099 25.5427 10.8311 26.9813 10.8311H32.6091C32.6477 10.8256 32.6863 10.8422 32.7139 10.8642C32.7414 10.8918 32.7525 10.9304 32.7469 10.9745V14.5738C32.7469 14.6124 32.7359 14.6455 32.7139 14.6731C32.6863 14.7061 32.6477 14.7227 32.6091 14.7172H27.2679C27.0144 14.7117 26.7719 14.8274 26.6065 15.0258L22.6709 19.8158L26.623 24.6389C26.7829 24.8208 27.0199 24.9311 27.2624 24.9255H32.6036C32.6422 24.92 32.6863 24.9421 32.7084 24.9696C32.7304 25.0027 32.7469 25.0468 32.7414 25.0854V28.6848C32.7414 28.7234 32.7304 28.7564 32.7084 28.784C32.6808 28.8171 32.6422 28.8336 32.6036 28.8281H26.9813C25.5427 28.8281 24.319 28.2438 23.2937 27.0808L20.0195 23.0845L16.7454 27.0808C15.7146 28.2438 14.4799 28.8281 13.0412 28.8281H7.4079C7.36931 28.8336 7.32522 28.8116 7.30317 28.784C7.27561 28.7509 7.26458 28.7068 7.27009 28.6682V25.0689C7.27009 25.0303 7.28112 24.9972 7.30317 24.9696C7.33073 24.9366 7.36931 24.92 7.4079 24.9255H12.7491C13.0027 24.9255 13.2452 24.8098 13.4106 24.6169L17.2745 19.8985L23.2772 12.5619Z" fill="#00D1FF"/>
<defs>
<linearGradient id="paint0_linear_9478_11464" x1="20.0006" y1="-0.000115754" x2="20.0006" y2="10.5831" gradientUnits="userSpaceOnUse">
<stop stop-color="#090220"/>
<stop offset="1" stop-color="#170659"/>
</linearGradient>
</defs>
</svg>
