<svg width="40" height="40" viewBox="0 0 40 40" fill="none" xmlns="http://www.w3.org/2000/svg">
<g clip-path="url(#clip0_9478_11458)">
<path d="M8.33317 3.8335L39.3332 25.0002L31.6665 36.3335L0.666504 15.0002L8.33317 3.8335Z" fill="url(#paint0_linear_9478_11458)"/>
<path d="M39.3326 25C36.6659 28.8334 27.6659 27.3334 19.1659 21.3334C10.4992 15.5 5.83257 7.66671 8.33257 3.83337C10.9992 3.9725e-05 19.9992 1.50004 28.4992 7.50004C37.1659 13.1667 41.8326 21.1667 39.3326 25Z" fill="url(#paint1_linear_9478_11458)"/>
<path d="M31.6662 36.1667C28.9996 40 19.9996 38.5 11.4996 32.5C2.99957 26.5 -1.83377 18.8334 0.832899 14.8334C3.49957 11 12.4996 12.5 20.9996 18.5C29.4996 24.5 34.1662 32.3334 31.6662 36.1667Z" fill="url(#paint2_linear_9478_11458)"/>
<path d="M39.333 24.9997L31.6663 36.333C28.9997 40.1664 19.9997 38.4997 11.4997 32.6664C9.83301 31.4997 8.33301 30.333 6.83301 28.9997C7.99967 28.833 9.49967 28.1664 10.9997 26.4997C13.6663 23.6664 14.9997 22.9997 16.1663 23.1664C17.333 23.1664 18.6663 24.333 20.833 27.1664C22.9997 29.9997 25.9997 30.833 27.833 29.333C27.9997 29.1664 28.1663 29.1664 28.333 28.9997C29.833 27.833 30.333 27.333 33.1663 21.9997C33.833 20.6664 36.1663 18.4997 39.333 19.4997C40.1663 21.6664 40.1663 23.4997 39.333 24.9997Z" fill="#0E0F23"/>
<path fill-rule="evenodd" clip-rule="evenodd" d="M38.1661 24.3334C35.8328 27.6667 27.6661 26 19.8328 20.5C11.8328 15 7.16614 8.00005 9.49948 4.66671C11.8328 1.33338 19.9995 3.00005 27.8328 8.50005C35.6661 14 40.3328 21 38.1661 24.3334ZM30.8328 19.3334C29.6661 21 25.6661 20.1667 21.6661 17.5C17.8328 14.8334 15.4995 11.3334 16.6661 9.66671C17.8328 8.00005 21.8328 8.83338 25.8328 11.5C29.6661 14.1667 31.9995 17.6667 30.8328 19.3334Z" fill="white"/>
<path d="M7.66618 7.66637C7.66618 7.4997 7.49951 7.33303 7.33285 7.4997C7.16618 7.66637 6.99951 7.66637 6.99951 7.83303C7.16618 8.33303 7.33285 8.66637 7.33285 8.9997C7.33285 9.16637 7.49951 9.33303 7.66618 9.16637C7.83284 9.16637 7.99951 8.9997 7.83284 8.83303C7.83284 8.4997 7.83284 8.16637 7.66618 7.66637Z" fill="white"/>
<path d="M8.49951 10.3334C8.49951 10.1667 8.33284 10 8.16618 10.1667C7.99951 10.3334 7.99951 10.3334 7.99951 10.5C9.83285 14.6667 13.6662 19.1667 18.6662 22.5C18.8328 22.6667 18.9995 22.5 19.1662 22.5C19.3328 22.3334 19.1662 22.1667 19.1662 22C13.9995 18.6667 10.3328 14.3334 8.49951 10.3334Z" fill="white"/>
<path d="M28.6663 26.667C28.4997 26.667 28.333 26.667 28.333 26.8337C28.333 27.0003 28.333 27.167 28.4997 27.167C28.9997 27.3337 29.6663 27.5003 30.1663 27.667C30.333 27.667 30.4997 27.667 30.4997 27.5003C30.4997 27.3337 30.4997 27.167 30.333 27.167C29.833 27.0003 29.1663 26.8337 28.6663 26.667Z" fill="white"/>
<path d="M31.6663 27.333C31.4997 27.333 31.333 27.4997 31.333 27.6663C31.333 27.833 31.4997 27.9997 31.6663 27.9997C32.9997 28.1663 34.4997 28.333 35.6663 28.1663C35.833 28.1663 35.9997 27.9997 35.9997 27.833C35.9997 27.6663 35.833 27.4997 35.6663 27.4997C34.333 27.6663 32.9997 27.4997 31.6663 27.333Z" fill="white"/>
</g>
<defs>
<linearGradient id="paint0_linear_9478_11458" x1="14.4068" y1="0.823996" x2="20.5545" y2="21.9343" gradientUnits="userSpaceOnUse">
<stop stop-color="#03B8FF"/>
<stop offset="1" stop-color="#FA52A0"/>
</linearGradient>
<linearGradient id="paint1_linear_9478_11458" x1="19.4689" y1="-0.650627" x2="25.6167" y2="20.4599" gradientUnits="userSpaceOnUse">
<stop stop-color="#03B8FF"/>
<stop offset="1" stop-color="#FA52A0"/>
</linearGradient>
<linearGradient id="paint2_linear_9478_11458" x1="9.35957" y1="2.29354" x2="15.5074" y2="23.404" gradientUnits="userSpaceOnUse">
<stop stop-color="#03B8FF"/>
<stop offset="1" stop-color="#FA52A0"/>
</linearGradient>
<clipPath id="clip0_9478_11458">
<rect width="40" height="40" fill="white"/>
</clipPath>
</defs>
</svg>
