<svg width="40" height="40" viewBox="0 0 40 40" fill="none" xmlns="http://www.w3.org/2000/svg">
<path d="M20 40C31.0834 40 40 31.0834 40 20C40 8.9166 31.0834 0 20 0C8.9166 0 0 8.9166 0 20C0 31.0834 8.9166 40 20 40Z" fill="#2775CA"/>
<path d="M25.5001 23.167C25.5001 20.2504 23.7501 19.2504 20.2501 18.8338C17.7501 18.5004 17.2501 17.8338 17.2501 16.667C17.2501 15.5002 18.0835 14.7504 19.7501 14.7504C21.2501 14.7504 22.0835 15.2504 22.5001 16.5004C22.5835 16.7504 22.8335 16.917 23.0835 16.917H24.4167C24.7501 16.917 25.0001 16.667 25.0001 16.3338V16.2504C24.6667 14.417 23.1667 13.0004 21.2501 12.8338V10.8338C21.2501 10.5004 21.0001 10.2504 20.5835 10.167H19.3335C19.0001 10.167 18.7501 10.417 18.6667 10.8338V12.7504C16.1667 13.0838 14.5835 14.7504 14.5835 16.8338C14.5835 19.5838 16.2501 20.667 19.7501 21.0838C22.0835 21.5004 22.8335 22.0004 22.8335 23.3338C22.8335 24.6672 21.6667 25.5838 20.0835 25.5838C17.9167 25.5838 17.1667 24.667 16.9167 23.417C16.8335 23.0838 16.5835 22.917 16.3335 22.917H14.9167C14.5835 22.917 14.3335 23.167 14.3335 23.5004V23.5838C14.6667 25.667 16.0001 27.167 18.7501 27.5838V29.5838C18.7501 29.917 19.0001 30.167 19.4167 30.2504H20.6667C21.0001 30.2504 21.2501 30.0004 21.3335 29.5838V27.5838C23.8335 27.167 25.5001 25.417 25.5001 23.167V23.167Z" fill="white"/>
<path d="M15.7497 31.9167C9.24967 29.5835 5.91627 22.3335 8.33307 15.9167C9.58307 12.4167 12.3331 9.7501 15.7497 8.5001C16.0831 8.3335 16.2497 8.0835 16.2497 7.6667V6.5001C16.2497 6.1667 16.0831 5.9167 15.7497 5.8335C15.6663 5.8335 15.4997 5.8335 15.4163 5.9167C7.49967 8.4167 3.16627 16.8335 5.66627 24.7501C7.16627 29.4167 10.7497 33.0001 15.4163 34.5001C15.7497 34.6667 16.0831 34.5001 16.1663 34.1667C16.2497 34.0835 16.2497 34.0001 16.2497 33.8335V32.6667C16.2497 32.4167 15.9997 32.0835 15.7497 31.9167ZM24.5831 5.9167C24.2497 5.7501 23.9163 5.9167 23.8331 6.2501C23.7497 6.3335 23.7497 6.4167 23.7497 6.5835V7.7501C23.7497 8.0835 23.9997 8.4167 24.2497 8.5835C30.7497 10.9167 34.0831 18.1667 31.6663 24.5835C30.4163 28.0835 27.6663 30.7501 24.2497 32.0001C23.9163 32.1667 23.7497 32.4167 23.7497 32.8335V34.0001C23.7497 34.3335 23.9163 34.5835 24.2497 34.6667C24.3331 34.6667 24.4997 34.6667 24.5831 34.5835C32.4997 32.0835 36.8331 23.6667 34.3331 15.7501C32.8331 11.0001 29.1663 7.4167 24.5831 5.9167V5.9167Z" fill="white"/>
</svg>
