<svg width="40" height="40" viewBox="0 0 40 40" fill="none" xmlns="http://www.w3.org/2000/svg">
<path d="M11.2132 39.6721C21.2673 39.6721 21.2673 39.5224 22.972 39.0164C25.1999 38.355 16.682 32.459 11.2132 32.459C5.74439 32.459 1.31104 34.0737 1.31104 36.0655C1.31104 38.0574 5.74461 39.6721 11.2132 39.6721Z" fill="black"/>
<path d="M34.0429 9.00274L34.5053 9.50109L34.101 10.0477C20.9887 27.7766 13.4351 35.8038 10.2302 34.7272C8.27808 34.0714 6.32039 32.0992 4.36266 29.2355C3.67452 28.2289 3.02834 27.1689 2.44063 26.1141C2.04928 25.4117 1.71803 24.7711 1.54604 24.4103C1.32664 23.95 1.23401 23.6664 1.16053 23.294C1.15604 23.2712 1.15604 23.2712 1.15178 23.2493C1.12111 23.0912 1.1105 23.0412 1.08757 22.9548C0.693013 21.4678 0.491211 19.9271 0.491211 18.3606C0.491211 8.49186 8.49137 0.491699 18.3601 0.491699C21.4518 0.491699 24.4312 1.27856 27.0716 2.75562L27.1398 2.79828C29.3017 4.30338 31.6012 6.3715 34.0429 9.00274ZM26.2363 4.1668C23.8476 2.83827 21.1561 2.13104 18.3601 2.13104C9.39675 2.13104 2.13056 9.39724 2.13056 18.3606C2.13056 19.7849 2.31385 21.1842 2.67209 22.5344C2.70751 22.6679 2.72353 22.7433 2.76112 22.937C2.76506 22.9573 2.76506 22.9573 2.76885 22.9766C2.81628 23.217 2.86632 23.3702 3.02587 23.7049C3.18277 24.034 3.49807 24.6438 3.8727 25.3162C4.43756 26.33 5.05829 27.3482 5.71599 28.3103C7.48477 30.8977 9.23895 32.6648 10.7522 33.1732C12.7705 33.8512 20.3686 25.8081 32.3763 9.62198C30.1963 7.32093 28.1484 5.50252 26.2363 4.1668Z" fill="black"/>
<path d="M26.2366 4.16662C23.8479 2.83808 21.1564 2.13086 18.3604 2.13086C9.39706 2.13086 2.13086 9.39706 2.13086 18.3604C2.13086 19.7847 2.31415 21.184 2.67239 22.5342C2.70782 22.6677 2.72384 22.7432 2.76142 22.9369C2.76536 22.9572 2.76536 22.9572 2.76916 22.9765C2.81659 23.2168 2.86662 23.37 3.02617 23.7047C3.18307 24.0339 3.49838 24.6437 3.873 25.316C4.43786 26.3298 5.05859 27.3481 5.71629 28.3101C7.48508 30.8975 9.23926 32.6646 10.7525 33.173C12.7708 33.851 20.3689 25.8079 32.3766 9.6218C30.1966 7.32075 28.1487 5.50233 26.2366 4.16662Z" fill="#EC1C79"/>
<path d="M21.6389 39.5082C11.7702 39.5082 3.77002 31.5081 3.77002 21.6394C3.77002 11.7707 11.7702 3.77051 21.6389 3.77051C31.5076 3.77051 39.5077 11.7707 39.5077 21.6394C39.5077 31.5081 31.5076 39.5082 21.6389 39.5082ZM21.6389 37.8689C30.6022 37.8689 37.8684 30.6027 37.8684 21.6394C37.8684 12.6761 30.6022 5.40985 21.6389 5.40985C12.6756 5.40985 5.40936 12.6761 5.40936 21.6394C5.40936 30.6027 12.6756 37.8689 21.6389 37.8689Z" fill="black"/>
<path d="M21.6392 37.8687C30.6025 37.8687 37.8687 30.6025 37.8687 21.6392C37.8687 12.6759 30.6025 5.40967 21.6392 5.40967C12.6759 5.40967 5.40967 12.6759 5.40967 21.6392C5.40967 30.6025 12.6759 37.8687 21.6392 37.8687Z" fill="white"/>
<path fill-rule="evenodd" clip-rule="evenodd" d="M9.49829 24.9641L7.3501 18.492H9.23206L10.3521 22.21L11.5914 18.4736H13.1245L14.3639 22.21L15.4839 18.492H17.3291L15.1809 24.9641H13.6294L12.335 21.2644L11.0498 24.9641H9.49829ZM18.036 24.9182V18.492H23.2045V20.0067H19.7986V20.9799H22.8832V22.3844H19.7986V23.4035H23.2504V24.9182H18.036ZM25.7291 24.9182V20.0526H23.8012V18.492H29.438V20.0526H27.5101V24.9182H25.7291ZM30.2183 24.9182V18.492H31.9993V20.8972H34.2852V18.492H36.0662V24.9182H34.2852V22.4763H31.9993V24.9182H30.2183Z" fill="black"/>
<path d="M1.55602 16.5587C1.10253 16.3319 0.918716 15.7805 1.14546 15.327C1.3722 14.8735 1.92364 14.6897 2.37713 14.9165L5.00008 16.2279C5.45357 16.4547 5.63738 17.0061 5.41064 17.4596C5.18389 17.9131 4.63246 18.0969 4.17897 17.8702L1.55602 16.5587Z" fill="black"/>
<path d="M1.25475 20.908C0.794401 20.6956 0.593442 20.1502 0.805901 19.6898C1.01836 19.2295 1.56378 19.0285 2.02414 19.241L4.64709 20.4515C5.10744 20.6639 5.3084 21.2094 5.09594 21.6697C4.88348 22.1301 4.33806 22.331 3.8777 22.1186L1.25475 20.908Z" fill="black"/>
</svg>
