<svg width="16" height="16" viewBox="0 0 16 16" fill="none" xmlns="http://www.w3.org/2000/svg">
<path fill-rule="evenodd" clip-rule="evenodd" d="M1.4502 3.8002C1.4502 2.50233 2.50233 1.4502 3.8002 1.4502H5.8002C6.21441 1.4502 6.5502 1.78598 6.5502 2.2002C6.5502 2.61441 6.21441 2.9502 5.8002 2.9502H3.8002C3.33075 2.9502 2.9502 3.33075 2.9502 3.8002V12.2002C2.9502 12.6697 3.33075 13.0502 3.8002 13.0502H12.2002C12.6697 13.0502 13.0502 12.6697 13.0502 12.2002V10.2002C13.0502 9.78598 13.386 9.4502 13.8002 9.4502C14.2144 9.4502 14.5502 9.78598 14.5502 10.2002V12.2002C14.5502 13.4981 13.4981 14.5502 12.2002 14.5502H3.8002C2.50233 14.5502 1.4502 13.4981 1.4502 12.2002V3.8002ZM9.4502 2.2002C9.4502 1.78598 9.78598 1.4502 10.2002 1.4502H13.8002C14.2144 1.4502 14.5502 1.78598 14.5502 2.2002V5.8002C14.5502 6.21441 14.2144 6.5502 13.8002 6.5502C13.386 6.5502 13.0502 6.21441 13.0502 5.8002V4.01086L8.33053 8.73053C8.03763 9.02342 7.56276 9.02342 7.26987 8.73053C6.97697 8.43763 6.97697 7.96276 7.26987 7.66986L11.9895 2.9502H10.2002C9.78598 2.9502 9.4502 2.61441 9.4502 2.2002Z" fill="#4D66EB"/>
</svg>
