<svg width="20" height="20" viewBox="0 0 20 20" fill="none" xmlns="http://www.w3.org/2000/svg">
<path fill-rule="evenodd" clip-rule="evenodd" d="M7.49966 6C7.49966 4.61929 8.61895 3.5 9.99966 3.5C11.3804 3.5 12.4997 4.61929 12.4997 6C12.4997 7.38071 11.3804 8.5 9.99966 8.5C8.61895 8.5 7.49966 7.38071 7.49966 6ZM9.99966 2C7.79052 2 5.99966 3.79086 5.99966 6C5.99966 8.20914 7.79052 10 9.99966 10C12.2088 10 13.9997 8.20914 13.9997 6C13.9997 3.79086 12.2088 2 9.99966 2ZM9.99987 11.25C7.85458 11.25 6.25266 11.7185 5.06375 12.4282C3.87424 13.1383 3.14198 14.0636 2.69593 14.9081C2.28216 15.6916 2.41762 16.5089 2.88835 17.1C3.33917 17.6662 4.06891 18 4.84737 18H15.1524C15.9308 18 16.6606 17.6662 17.1114 17.1C17.5821 16.5089 17.7176 15.6916 17.3039 14.9082L17.3039 14.9081C16.8578 14.0636 16.1255 13.1383 14.936 12.4282C13.7471 11.7185 12.1452 11.25 9.99987 11.25ZM4.02231 15.6087C4.36069 14.9679 4.9148 14.264 5.83257 13.7162C6.75093 13.168 8.07718 12.75 9.99987 12.75C11.9226 12.75 13.2488 13.168 14.1672 13.7162C15.0849 14.264 15.6391 14.9679 15.9775 15.6087C16.0969 15.8349 16.0592 16.0134 15.938 16.1656C15.7968 16.3429 15.5158 16.5 15.1524 16.5H4.84737C4.48391 16.5 4.20289 16.3429 4.06175 16.1656C3.94051 16.0134 3.9028 15.8349 4.0223 15.6087L4.02231 15.6087Z" fill="currentColor"/>
</svg>
