<svg width="20" height="20" viewBox="0 0 20 20" fill="none" xmlns="http://www.w3.org/2000/svg">
<path fill-rule="evenodd" clip-rule="evenodd" d="M8 4.5C7.17157 4.5 6.5 5.17157 6.5 6C6.5 6.82843 7.17157 7.5 8 7.5C8.82843 7.5 9.5 6.82843 9.5 6C9.5 5.17157 8.82843 4.5 8 4.5ZM2.75 6.75H5.09451C5.42755 8.04392 6.60212 9 8 9C9.39788 9 10.5725 8.04392 10.9055 6.75H17.25C17.6642 6.75 18 6.41421 18 6C18 5.58579 17.6642 5.25 17.25 5.25H10.9055C10.5725 3.95608 9.39788 3 8 3C6.60212 3 5.42755 3.95608 5.09451 5.25H2.75C2.33579 5.25 2 5.58579 2 6C2 6.41421 2.33579 6.75 2.75 6.75ZM2 14C2 13.5858 2.33579 13.25 2.75 13.25H10.0945C10.4275 11.9561 11.6021 11 13 11C14.3979 11 15.5725 11.9561 15.9055 13.25H17.25C17.6642 13.25 18 13.5858 18 14C18 14.4142 17.6642 14.75 17.25 14.75H15.9055C15.5725 16.0439 14.3979 17 13 17C11.6021 17 10.4275 16.0439 10.0945 14.75H2.75C2.33579 14.75 2 14.4142 2 14ZM11.5 14C11.5 13.1716 12.1716 12.5 13 12.5C13.8284 12.5 14.5 13.1716 14.5 14C14.5 14.8284 13.8284 15.5 13 15.5C12.1716 15.5 11.5 14.8284 11.5 14Z" fill="currentColor"/>
</svg>
