<svg width="20" height="20" viewBox="0 0 20 20" fill="none" xmlns="http://www.w3.org/2000/svg">
<path fill-rule="evenodd" clip-rule="evenodd" d="M4.75 2C3.23122 2 2 3.23122 2 4.75V5.75V9V15.25C2 16.7688 3.23122 18 4.75 18H15.25C16.7688 18 18 16.7688 18 15.25V7.75C18 6.23122 16.7688 5 15.25 5H12.0816L11.227 3.43322C10.7451 2.54965 9.81902 2 8.8127 2H4.75ZM10.3729 5L9.91008 4.15145L9.91005 4.15138C9.69109 3.74989 9.27018 3.5 8.8127 3.5H4.75C4.05964 3.5 3.5 4.05964 3.5 4.75V5H10.3729ZM3.5 6.5V9V15.25C3.5 15.9404 4.05964 16.5 4.75 16.5H15.25C15.9404 16.5 16.5 15.9404 16.5 15.25V7.75C16.5 7.05964 15.9404 6.5 15.25 6.5H3.5Z" fill="currentColor"/>
</svg>
