<svg width="20" height="20" viewBox="0 0 20 20" fill="none" xmlns="http://www.w3.org/2000/svg">
<path d="M3.3137 12.8791L3.05634 13.5836L3.3137 12.8791ZM10.8791 4.6863L11.5836 4.94366L10.8791 4.6863ZM10.8791 16.6863L10.1747 16.4289L10.8791 16.6863ZM15.3137 12.8791L15.5711 12.1747L15.3137 12.8791ZM7.12086 16.6863L7.82532 16.4289L7.12086 16.6863ZM11.5836 4.94366C11.6915 4.64836 11.75 4.33017 11.75 4H10.25C10.25 4.15205 10.2232 4.29616 10.1747 4.42895L11.5836 4.94366ZM13 4.25H11.0792V5.75H13V4.25ZM15.75 7C15.75 5.48122 14.5188 4.25 13 4.25V5.75C13.6904 5.75 14.25 6.30964 14.25 7H15.75ZM15.75 8.92082V7H14.25V8.92082H15.75ZM16 8.25C15.6698 8.25 15.3516 8.30852 15.0563 8.4164L15.5711 9.82532C15.7038 9.77681 15.848 9.75 16 9.75V8.25ZM18.75 11C18.75 9.48122 17.5188 8.25 16 8.25V9.75C16.6904 9.75 17.25 10.3096 17.25 11H18.75ZM16 13.75C17.5188 13.75 18.75 12.5188 18.75 11H17.25C17.25 11.6904 16.6904 12.25 16 12.25V13.75ZM15.0563 13.5836C15.3516 13.6915 15.6698 13.75 16 13.75V12.25C15.848 12.25 15.7038 12.2232 15.5711 12.1747L15.0563 13.5836ZM15.75 15V13.0792H14.25V15H15.75ZM13 17.75C14.5188 17.75 15.75 16.5188 15.75 15H14.25C14.25 15.6904 13.6904 16.25 13 16.25V17.75ZM11.0792 17.75H13V16.25H11.0792V17.75ZM10.25 16C10.25 16.152 10.2232 16.2962 10.1747 16.4289L11.5836 16.9437C11.6915 16.6484 11.75 16.3302 11.75 16H10.25ZM9 14.75C9.69036 14.75 10.25 15.3096 10.25 16H11.75C11.75 14.4812 10.5188 13.25 9 13.25V14.75ZM7.75 16C7.75 15.3096 8.30964 14.75 9 14.75V13.25C7.48122 13.25 6.25 14.4812 6.25 16H7.75ZM7.82532 16.4289C7.77681 16.2962 7.75 16.152 7.75 16H6.25C6.25 16.3302 6.30852 16.6484 6.4164 16.9437L7.82532 16.4289ZM5 17.75H6.92082V16.25H5V17.75ZM2.25 15C2.25 16.5188 3.48122 17.75 5 17.75V16.25C4.30964 16.25 3.75 15.6904 3.75 15H2.25ZM2.25 13.0792V15H3.75V13.0792H2.25ZM4 12.25C3.84795 12.25 3.70384 12.2232 3.57105 12.1747L3.05634 13.5836C3.35164 13.6915 3.66982 13.75 4 13.75V12.25ZM5.25 11C5.25 11.6904 4.69036 12.25 4 12.25V13.75C5.51878 13.75 6.75 12.5188 6.75 11H5.25ZM4 9.75C4.69036 9.75 5.25 10.3096 5.25 11H6.75C6.75 9.48122 5.51878 8.25 4 8.25V9.75ZM3.57105 9.82532C3.70384 9.77681 3.84795 9.75 4 9.75V8.25C3.66983 8.25 3.35164 8.30852 3.05635 8.4164L3.57105 9.82532ZM2.25 7V8.92082H3.75V7H2.25ZM5 4.25C3.48122 4.25 2.25 5.48122 2.25 7H3.75C3.75 6.30964 4.30964 5.75 5 5.75V4.25ZM6.92082 4.25H5V5.75H6.92082V4.25ZM6.25 4C6.25 4.33017 6.30852 4.64836 6.4164 4.94366L7.82532 4.42895C7.77681 4.29616 7.75 4.15205 7.75 4H6.25ZM9 1.25C7.48122 1.25 6.25 2.48122 6.25 4H7.75C7.75 3.30964 8.30964 2.75 9 2.75V1.25ZM11.75 4C11.75 2.48122 10.5188 1.25 9 1.25V2.75C9.69036 2.75 10.25 3.30964 10.25 4H11.75ZM6.92082 5.75C7.69129 5.75 8.02286 4.96968 7.82532 4.42895L6.4164 4.94366C6.35838 4.78484 6.38567 4.62385 6.46077 4.50256C6.53947 4.37548 6.70116 4.25 6.92082 4.25V5.75ZM3.75 13.0792C3.75 13.2988 3.62453 13.4605 3.49744 13.5392C3.37615 13.6143 3.21516 13.6416 3.05634 13.5836L3.57105 12.1747C3.03032 11.9771 2.25 12.3087 2.25 13.0792H3.75ZM3.05635 8.4164C3.21516 8.35838 3.37615 8.38567 3.49744 8.46077C3.62453 8.53947 3.75 8.70116 3.75 8.92082H2.25C2.25 9.69129 3.03032 10.0229 3.57105 9.82532L3.05635 8.4164ZM10.1747 4.42895C9.97714 4.96968 10.3087 5.75 11.0792 5.75V4.25C11.2988 4.25 11.4605 4.37547 11.5392 4.50256C11.6143 4.62385 11.6416 4.78484 11.5836 4.94366L10.1747 4.42895ZM11.0792 16.25C11.2988 16.25 11.4605 16.3755 11.5392 16.5026C11.6143 16.6239 11.6416 16.7848 11.5836 16.9437L10.1747 16.4289C9.97714 16.9697 10.3087 17.75 11.0792 17.75V16.25ZM15.5711 12.1747C15.0303 11.9771 14.25 12.3087 14.25 13.0792H15.75C15.75 13.2988 15.6245 13.4605 15.4974 13.5392C15.3761 13.6143 15.2152 13.6416 15.0563 13.5836L15.5711 12.1747ZM14.25 8.92082C14.25 9.69129 15.0303 10.0229 15.5711 9.82532L15.0563 8.4164C15.2152 8.35838 15.3761 8.38567 15.4974 8.46077C15.6245 8.53947 15.75 8.70116 15.75 8.92082H14.25ZM6.4164 16.9437C6.35838 16.7848 6.38567 16.6239 6.46077 16.5026C6.53947 16.3755 6.70116 16.25 6.92082 16.25V17.75C7.69129 17.75 8.02286 16.9697 7.82532 16.4289L6.4164 16.9437Z" fill="currentColor"/>
</svg>
