<svg width="20" height="20" viewBox="0 0 20 20" fill="none" xmlns="http://www.w3.org/2000/svg">
<path fill-rule="evenodd" clip-rule="evenodd" d="M2 2.375C2 1.96079 2.33579 1.625 2.75 1.625H5C5.34415 1.625 5.64414 1.85922 5.72761 2.1931L6.33558 4.625H17.25C17.4791 4.625 17.6957 4.72973 17.8379 4.90935C17.9802 5.08896 18.0325 5.32375 17.9801 5.54678L16.3429 12.5049L16.3429 12.5049C16.0505 13.747 14.9422 14.625 13.666 14.625H9.5395C8.2917 14.625 7.20032 13.7849 6.88103 12.5787L6.88103 12.5787L5.0254 5.56854L5.02299 5.55925L5.02239 5.5569L5.02223 5.55627L4.41442 3.125H2.75C2.33579 3.125 2 2.78921 2 2.375ZM6.72436 6.125L8.33109 12.1949L8.33109 12.1949C8.47622 12.7431 8.97231 13.125 9.5395 13.125H13.666C14.246 13.125 14.7499 12.726 14.8827 12.1613L16.303 6.125H6.72436ZM8 17.8739C8.68975 17.8739 9.24891 17.3148 9.24891 16.625C9.24891 15.9352 8.68975 15.3761 8 15.3761C7.31025 15.3761 6.75109 15.9352 6.75109 16.625C6.75109 17.3148 7.31025 17.8739 8 17.8739ZM16.25 16.6251C16.25 17.3154 15.6904 17.875 15.0001 17.875C14.3098 17.875 13.7502 17.3154 13.7502 16.6251C13.7502 15.9348 14.3098 15.3752 15.0001 15.3752C15.6904 15.3752 16.25 15.9348 16.25 16.6251Z" fill="currentColor"/>
</svg>
