<svg width="20" height="20" viewBox="0 0 20 20" fill="none" xmlns="http://www.w3.org/2000/svg">
<path fill-rule="evenodd" clip-rule="evenodd" d="M10.75 1.5C10.75 1.08579 10.4142 0.75 10 0.75C9.58579 0.75 9.25 1.08579 9.25 1.5V2.75H8.2C6.01848 2.75 4.25 4.51848 4.25 6.7V6.8C4.25 8.98152 6.01848 10.75 8.2 10.75H9.25L9.25 15.75H8.2C6.8469 15.75 5.75 14.6531 5.75 13.3V13C5.75 12.5858 5.41421 12.25 5 12.25C4.58579 12.25 4.25 12.5858 4.25 13V13.3C4.25 15.4815 6.01848 17.25 8.2 17.25H9.25V18.5C9.25 18.9142 9.58579 19.25 10 19.25C10.4142 19.25 10.75 18.9142 10.75 18.5V17.25H11.8C13.9815 17.25 15.75 15.4815 15.75 13.3V13.2C15.75 11.0185 13.9815 9.25 11.8 9.25H10.75L10.75 4.25H11.8C13.1531 4.25 14.25 5.3469 14.25 6.7V7C14.25 7.41421 14.5858 7.75 15 7.75C15.4142 7.75 15.75 7.41421 15.75 7V6.7C15.75 4.51848 13.9815 2.75 11.8 2.75H10.75V1.5ZM9.25 4.25H8.2C6.8469 4.25 5.75 5.3469 5.75 6.7V6.8C5.75 8.1531 6.8469 9.25 8.2 9.25H9.25L9.25 4.25ZM10.75 10.75L10.75 15.75H11.8C13.1531 15.75 14.25 14.6531 14.25 13.3V13.2C14.25 11.8469 13.1531 10.75 11.8 10.75H10.75Z" fill="currentColor"/>
</svg>
