<svg width="20" height="20" viewBox="0 0 20 20" fill="none" xmlns="http://www.w3.org/2000/svg">
<path fill-rule="evenodd" clip-rule="evenodd" d="M7.33334 18.7505C7.3242 18.7505 7.31509 18.7503 7.30602 18.75H4.00016C2.48138 18.75 1.25016 17.5188 1.25016 16V12.7123C1.24925 12.6971 1.24878 12.6818 1.24878 12.6664C1.24878 12.6509 1.24925 12.6356 1.25016 12.6204V7.37865C1.24925 7.36345 1.24878 7.34812 1.24878 7.33269C1.24878 7.31726 1.24925 7.30194 1.25016 7.28674V4.00001C1.25016 2.48123 2.48138 1.25001 4.00016 1.25001H7.29635C7.3086 1.24942 7.32094 1.24911 7.33334 1.24911C7.34575 1.24911 7.35808 1.24942 7.37034 1.25001H12.63C12.6423 1.24942 12.6546 1.24911 12.667 1.24911C12.6794 1.24911 12.6917 1.24942 12.704 1.25001H16.0002C17.5189 1.25001 18.7502 2.48123 18.7502 4.00001V7.33269V12.6663V16C18.7502 17.5188 17.5189 18.75 16.0002 18.75H12.6943C12.6853 18.7503 12.6761 18.7505 12.667 18.7505C12.6579 18.7505 12.6487 18.7503 12.6397 18.75H7.36066C7.35159 18.7503 7.34249 18.7505 7.33334 18.7505ZM17.2502 6.58269V4.00001C17.2502 3.30966 16.6905 2.75001 16.0002 2.75001H13.417V6.58269L17.2502 6.58269ZM13.417 8.08269L17.2502 8.08269V11.9163H13.417V8.08269ZM11.917 6.58269V2.75001H8.08334V6.58269L11.917 6.58269ZM6.58334 6.58269V2.75001H4.00016C3.30981 2.75001 2.75016 3.30966 2.75016 4.00001V6.58269L6.58334 6.58269ZM2.75016 8.08269L6.58334 8.08269V11.9164L2.75016 11.9164V8.08269ZM8.08334 8.08269L11.917 8.08269V11.9164H8.08334V8.08269ZM8.08334 13.4164H11.917V17.25H8.08334L8.08334 13.4164ZM13.417 13.4163V17.25H16.0002C16.6905 17.25 17.2502 16.6904 17.2502 16V13.4163H13.417ZM2.75016 13.4164L6.58334 13.4164L6.58334 17.25H4.00016C3.30981 17.25 2.75016 16.6904 2.75016 16V13.4164Z" fill="currentColor" />
</svg>
