<svg width="20" height="20" viewBox="0 0 20 20" fill="none" xmlns="http://www.w3.org/2000/svg">
<path d="M10.0001 5.99375C7.7833 5.99375 5.99423 7.78281 5.99423 9.99961C5.99423 12.2164 7.7833 14.0055 10.0001 14.0055C12.2169 14.0055 14.006 12.2164 14.006 9.99961C14.006 7.78281 12.2169 5.99375 10.0001 5.99375ZM10.0001 12.6031C8.5665 12.6031 7.39658 11.4332 7.39658 9.99961C7.39658 8.56601 8.5665 7.39609 10.0001 7.39609C11.4337 7.39609 12.6036 8.56601 12.6036 9.99961C12.6036 11.4332 11.4337 12.6031 10.0001 12.6031ZM14.17 4.89609C13.6524 4.89609 13.2345 5.31406 13.2345 5.83164C13.2345 6.34921 13.6524 6.76718 14.17 6.76718C14.6876 6.76718 15.1056 6.35117 15.1056 5.83164C15.1057 5.70873 15.0816 5.58701 15.0347 5.47344C14.9877 5.35986 14.9188 5.25666 14.8319 5.16976C14.745 5.08286 14.6418 5.01395 14.5282 4.96699C14.4146 4.92003 14.2929 4.89593 14.17 4.89609ZM17.8087 9.99961C17.8087 8.92148 17.8185 7.85312 17.7579 6.77695C17.6974 5.52695 17.4122 4.41757 16.4981 3.50351C15.5821 2.58749 14.4747 2.30429 13.2247 2.24374C12.1466 2.1832 11.0782 2.19296 10.002 2.19296C8.92392 2.19296 7.85556 2.1832 6.77939 2.24374C5.52939 2.30429 4.42001 2.58945 3.50595 3.50351C2.58994 4.41953 2.30673 5.52695 2.24619 6.77695C2.18564 7.85507 2.19541 8.92343 2.19541 9.99961C2.19541 11.0758 2.18564 12.1461 2.24619 13.2223C2.30673 14.4723 2.59189 15.5816 3.50595 16.4957C4.42197 17.4117 5.52939 17.6949 6.77939 17.7555C7.85751 17.816 8.92587 17.8062 10.002 17.8062C11.0802 17.8062 12.1485 17.816 13.2247 17.7555C14.4747 17.6949 15.5841 17.4098 16.4981 16.4957C17.4142 15.5797 17.6974 14.4723 17.7579 13.2223C17.8204 12.1461 17.8087 11.0777 17.8087 9.99961ZM16.0899 14.6051C15.9474 14.9605 15.7755 15.2262 15.5001 15.4996C15.2247 15.775 14.961 15.9469 14.6056 16.0894C13.5782 16.4977 11.1388 16.4059 10.0001 16.4059C8.86142 16.4059 6.42001 16.4977 5.39267 16.0914C5.0372 15.9488 4.77158 15.7769 4.49814 15.5016C4.22275 15.2262 4.05087 14.9625 3.9083 14.607C3.50205 13.5777 3.59384 11.1383 3.59384 9.99961C3.59384 8.86093 3.50205 6.41953 3.9083 5.39218C4.05087 5.03671 4.22275 4.77109 4.49814 4.49765C4.77353 4.22421 5.0372 4.05039 5.39267 3.90781C6.42001 3.50156 8.86142 3.59335 10.0001 3.59335C11.1388 3.59335 13.5802 3.50156 14.6075 3.90781C14.963 4.05039 15.2286 4.22226 15.502 4.49765C15.7774 4.77304 15.9493 5.03671 16.0919 5.39218C16.4981 6.41953 16.4063 8.86093 16.4063 9.99961C16.4063 11.1383 16.4981 13.5777 16.0899 14.6051Z" fill="currentColor"/>
</svg>
