<svg width="21" height="20" viewBox="0 0 21 20" fill="none" xmlns="http://www.w3.org/2000/svg">
<path fill-rule="evenodd" clip-rule="evenodd" d="M10.5 0.25C10.9142 0.25 11.25 0.585786 11.25 1V2.25H11.9C13.7501 2.25 15.25 3.74985 15.25 5.6V5.85714C15.25 6.27136 14.9142 6.60714 14.5 6.60714C14.0858 6.60714 13.75 6.27136 13.75 5.85714V5.6C13.75 4.57827 12.9217 3.75 11.9 3.75H11.25V7.25H12C13.7949 7.25 15.25 8.70507 15.25 10.5C15.25 12.2949 13.7949 13.75 12 13.75H11.25V15C11.25 15.4142 10.9142 15.75 10.5 15.75C10.0858 15.75 9.74998 15.4142 9.74998 15V13.75H9.09998C7.24983 13.75 5.74998 12.2502 5.74998 10.4V10.1429C5.74998 9.72864 6.08577 9.39286 6.49998 9.39286C6.9142 9.39286 7.24998 9.72864 7.24998 10.1429V10.4C7.24998 11.4217 8.07825 12.25 9.09998 12.25H9.74998V8.75H8.99998C7.20506 8.75 5.74998 7.29493 5.74998 5.5C5.74998 3.70507 7.20506 2.25 8.99998 2.25H9.74998V1C9.74998 0.585786 10.0858 0.25 10.5 0.25ZM8.99998 3.75H9.74998V7.25H8.99998C8.03348 7.25 7.24998 6.4665 7.24998 5.5C7.24998 4.5335 8.03348 3.75 8.99998 3.75ZM11.25 12.25V8.75H12C12.9665 8.75 13.75 9.5335 13.75 10.5C13.75 11.4665 12.9665 12.25 12 12.25H11.25ZM2.83539 14.3292C2.46491 14.1439 2.0144 14.2941 1.82916 14.6646C1.64392 15.0351 1.79409 15.4856 2.16457 15.6708L10.1646 19.6708C10.3757 19.7764 10.6242 19.7764 10.8354 19.6708L18.8354 15.6708C19.2059 15.4856 19.356 15.0351 19.1708 14.6646C18.9856 14.2941 18.5351 14.1439 18.1646 14.3292L10.5 18.1615L2.83539 14.3292Z" fill="currentColor" />
</svg>
