<svg width="20" height="20" viewBox="0 0 20 20" fill="none" xmlns="http://www.w3.org/2000/svg">
<path fill-rule="evenodd" clip-rule="evenodd" d="M7.49954 6C7.49954 4.61929 8.61883 3.5 9.99954 3.5C11.3802 3.5 12.4995 4.61929 12.4995 6C12.4995 7.38071 11.3802 8.5 9.99954 8.5C8.61883 8.5 7.49954 7.38071 7.49954 6ZM9.99954 2C7.7904 2 5.99954 3.79086 5.99954 6C5.99954 8.20914 7.7904 10 9.99954 10C12.2087 10 13.9995 8.20914 13.9995 6C13.9995 3.79086 12.2087 2 9.99954 2ZM9.99975 11.25C7.85446 11.25 6.25254 11.7185 5.06363 12.4282C3.87412 13.1383 3.14185 14.0636 2.69581 14.9081C2.28203 15.6916 2.41749 16.5089 2.88822 17.1C3.33905 17.6662 4.06879 18 4.84725 18H15.1523C15.9307 18 16.6604 17.6662 17.1113 17.1C17.582 16.5089 17.7175 15.6916 17.3038 14.9082L17.3037 14.9081C16.8577 14.0636 16.1254 13.1383 14.9359 12.4282C13.747 11.7185 12.1451 11.25 9.99975 11.25ZM4.02218 15.6087C4.36057 14.9679 4.91468 14.264 5.83245 13.7162C6.75081 13.168 8.07706 12.75 9.99975 12.75C11.9225 12.75 13.2487 13.168 14.1671 13.7162C15.0848 14.264 15.639 14.9679 15.9774 15.6087C16.0968 15.8349 16.0591 16.0134 15.9379 16.1656C15.7967 16.3429 15.5157 16.5 15.1523 16.5H4.84725C4.48379 16.5 4.20277 16.3429 4.06163 16.1656C3.94039 16.0134 3.90268 15.8349 4.02218 15.6087L4.02218 15.6087Z" fill="currentColor"/>
</svg>
