<svg width="20" height="20" viewBox="0 0 20 20" fill="none" xmlns="http://www.w3.org/2000/svg">
<path fill-rule="evenodd" clip-rule="evenodd" d="M2 4.75C2 3.23122 3.23122 2 4.75 2H15.25C16.7688 2 18 3.23122 18 4.75V15.25C18 16.7688 16.7688 18 15.25 18H4.75C3.23122 18 2 16.7688 2 15.25V4.75ZM4.75 3.5C4.05964 3.5 3.5 4.05964 3.5 4.75V15.25C3.5 15.3468 3.511 15.441 3.53182 15.5315L10.3017 10.3545C11.3055 9.58689 12.7033 9.6022 13.6901 10.3916L16.5 12.6395V4.75C16.5 4.05964 15.9404 3.5 15.25 3.5H4.75ZM16.5 14.5605L12.7531 11.5629C12.3045 11.2041 11.6692 11.1971 11.2129 11.5461L4.73479 16.4999C4.73985 16.5 4.74492 16.5 4.75 16.5H15.25C15.9404 16.5 16.5 15.9404 16.5 15.25V14.5605ZM7 8C7.55228 8 8 7.55228 8 7C8 6.44772 7.55228 6 7 6C6.44772 6 6 6.44772 6 7C6 7.55228 6.44772 8 7 8Z" fill="currentColor"/>
</svg>
