<svg width="21" height="20" viewBox="0 0 21 20" fill="none" xmlns="http://www.w3.org/2000/svg">
<path fill-rule="evenodd" clip-rule="evenodd" d="M6.03033 2.46967C6.32322 2.76256 6.32322 3.23744 6.03033 3.53033L4.31066 5.25H18.5C18.9142 5.25 19.25 5.58579 19.25 6C19.25 6.41421 18.9142 6.75 18.5 6.75H4.31066L6.03033 8.46967C6.32322 8.76256 6.32322 9.23744 6.03033 9.53033C5.73744 9.82322 5.26256 9.82322 4.96967 9.53033L1.96967 6.53033C1.67678 6.23744 1.67678 5.76256 1.96967 5.46967L4.96967 2.46967C5.26256 2.17678 5.73744 2.17678 6.03033 2.46967ZM14.9697 10.4697C15.2626 10.1768 15.7374 10.1768 16.0303 10.4697L19.0303 13.4697C19.3232 13.7626 19.3232 14.2374 19.0303 14.5303L16.0303 17.5303C15.7374 17.8232 15.2626 17.8232 14.9697 17.5303C14.6768 17.2374 14.6768 16.7626 14.9697 16.4697L16.6893 14.75H2.5C2.08579 14.75 1.75 14.4142 1.75 14C1.75 13.5858 2.08579 13.25 2.5 13.25H16.6893L14.9697 11.5303C14.6768 11.2374 14.6768 10.7626 14.9697 10.4697Z" fill="currentColor"/>
</svg>
