<svg width="20" height="20" viewBox="0 0 20 20" fill="none" xmlns="http://www.w3.org/2000/svg">
<path fill-rule="evenodd" clip-rule="evenodd" d="M9.66667 3.75C8.46035 3.75 7.75 4.52474 7.75 5.18182V5.25H12.25V5.18182C12.25 4.52474 11.5396 3.75 10.3333 3.75H9.66667ZM13.75 5.25V5.18182C13.75 3.42892 12.0726 2.25 10.3333 2.25H9.66667C7.92738 2.25 6.25 3.42892 6.25 5.18182V5.25H5.00904C5.00359 5.24994 4.99813 5.24994 4.99266 5.25H3C2.58579 5.25 2.25 5.58579 2.25 6C2.25 6.41421 2.58579 6.75 3 6.75H4.31213L5.05389 15.3174C5.17282 16.691 6.31889 17.75 7.6987 17.75H12.3013C13.6811 17.75 14.8272 16.691 14.9461 15.3174L14.9461 15.3174L15.6879 6.75H17C17.4142 6.75 17.75 6.41421 17.75 6C17.75 5.58579 17.4142 5.25 17 5.25H15.0073C15.0019 5.24994 14.9964 5.24994 14.991 5.25H13.75ZM13 6.75H7H5.81774L6.5483 15.188C6.60055 15.7916 7.10248 16.25 7.6987 16.25H12.3013C12.8975 16.25 13.3994 15.7916 13.4516 15.1881L13.4517 15.188L14.1823 6.75H13ZM8.5 9.25C8.91421 9.25 9.25 9.58579 9.25 10V13C9.25 13.4142 8.91421 13.75 8.5 13.75C8.08579 13.75 7.75 13.4142 7.75 13V10C7.75 9.58579 8.08579 9.25 8.5 9.25ZM12.25 10C12.25 9.58579 11.9142 9.25 11.5 9.25C11.0858 9.25 10.75 9.58579 10.75 10V13C10.75 13.4142 11.0858 13.75 11.5 13.75C11.9142 13.75 12.25 13.4142 12.25 13V10Z" fill="currentColor" />
</svg>
