<svg width="20" height="20" viewBox="0 0 20 20" fill="none" xmlns="http://www.w3.org/2000/svg">
<path fill-rule="evenodd" clip-rule="evenodd" d="M10.5496 2.23966C10.4077 2.08684 10.2086 2 10 2C9.79145 2 9.59231 2.08684 9.45041 2.23966L6.20041 5.73966C5.91855 6.04319 5.93613 6.51774 6.23966 6.7996C6.54319 7.08145 7.01774 7.06387 7.29959 6.76034L9.25 4.6599V12.25C9.25 12.6642 9.58579 13 10 13C10.4142 13 10.75 12.6642 10.75 12.25V4.6599L12.7004 6.76034C12.9823 7.06387 13.4568 7.08145 13.7603 6.7996C14.0639 6.51774 14.0814 6.04319 13.7996 5.73966L10.5496 2.23966ZM2.75 12C3.16421 12 3.5 12.3358 3.5 12.75V14.25C3.5 15.4927 4.50736 16.5 5.75 16.5H14.25C15.4927 16.5 16.5 15.4927 16.5 14.25V12.75C16.5 12.3358 16.8358 12 17.25 12C17.6642 12 18 12.3358 18 12.75V14.25C18 16.3211 16.3211 18 14.25 18H5.75C3.67894 18 2 16.3211 2 14.25V12.75C2 12.3358 2.33579 12 2.75 12Z" fill="white"/>
</svg>
