<svg width="14" height="14" viewBox="0 0 14 14" fill="none" xmlns="http://www.w3.org/2000/svg">
<path d="M12.4141 7.27344C11.4297 7.27344 11.0078 8.02344 10.4922 8.02344C9.08594 8.02344 10.375 3.875 10.375 3.875C10.375 3.875 5.75781 5.75 5.75781 3.80469C5.75781 2.96094 6.625 2.72656 6.625 1.78906C6.625 0.96875 5.94531 0.5 5.17188 0.5C4.35156 0.5 3.625 0.945312 3.625 1.83594C3.625 2.79688 4.35156 3.21875 4.35156 3.75781C4.35156 5.375 0.25 4.41406 0.25 4.41406V12.2188C0.25 12.2188 4.42188 13.2031 4.42188 11.5625C4.42188 11.0234 3.48438 10.625 3.48438 9.64062C3.48438 8.77344 4.16406 8.32812 4.98438 8.32812C5.75781 8.32812 6.4375 8.77344 6.4375 9.61719C6.4375 10.5312 5.57031 10.7891 5.57031 11.6328C5.57031 13.0625 8.61719 12.2188 9.8125 12.2188C9.8125 12.2188 9.01562 9.40625 10.4219 9.40625C11.2656 9.40625 11.5234 10.25 12.4609 10.25C13.2812 10.25 13.75 9.59375 13.75 8.82031C13.75 8.02344 13.3047 7.27344 12.4141 7.27344Z" fill="black"/>
</svg>
