<svg width="20" height="20" viewBox="0 0 20 20" fill="none" xmlns="http://www.w3.org/2000/svg">
<path d="M4.01172 10.4297C4.01172 10.6875 4.15234 11.0391 4.33984 11.2266L9.28516 16.1719C9.73047 16.6172 10.457 16.6172 10.8789 16.1719L15.6602 11.3906C16.1055 10.9688 16.1055 10.2422 15.6602 9.79688L10.7148 4.85156C10.5273 4.66406 10.1758 4.5 9.91797 4.5H5.13672C4.50391 4.5 4.01172 5.01562 4.01172 5.625V10.4297ZM6.63672 6C7.24609 6 7.76172 6.51562 7.76172 7.125C7.76172 7.75781 7.24609 8.25 6.63672 8.25C6.00391 8.25 5.51172 7.75781 5.51172 7.125C5.51172 6.51562 6.00391 6 6.63672 6Z" fill="black"/>
</svg>
