<svg width="20" height="20" viewBox="0 0 20 20" fill="none" xmlns="http://www.w3.org/2000/svg">
<path d="M14 4H6C5.46957 4 4.96086 4.21071 4.58579 4.58579C4.21071 4.96086 4 5.46957 4 6V14C4 14.5304 4.21071 15.0391 4.58579 15.4142C4.96086 15.7893 5.46957 16 6 16H14C14.5304 16 15.0391 15.7893 15.4142 15.4142C15.7893 15.0391 16 14.5304 16 14V6C16 5.46957 15.7893 4.96086 15.4142 4.58579C15.0391 4.21071 14.5304 4 14 4ZM7.33333 6.66667C7.53111 6.66667 7.72445 6.72532 7.8889 6.8352C8.05335 6.94508 8.18153 7.10126 8.25721 7.28398C8.3329 7.46671 8.3527 7.66778 8.31412 7.86176C8.27553 8.05574 8.18029 8.23392 8.04044 8.37377C7.90059 8.51363 7.7224 8.60887 7.52842 8.64745C7.33444 8.68604 7.13338 8.66623 6.95065 8.59055C6.76792 8.51486 6.61175 8.38669 6.50186 8.22224C6.39198 8.05779 6.33333 7.86445 6.33333 7.66667C6.33333 7.40145 6.43869 7.1471 6.62623 6.95956C6.81376 6.77202 7.06812 6.66667 7.33333 6.66667ZM14.6667 13.8867C14.6814 14.0784 14.6195 14.2682 14.4945 14.4144C14.3696 14.5606 14.1917 14.6514 14 14.6667H6L11.0467 10.12C11.1314 10.0427 11.242 9.99985 11.3567 9.99985C11.4714 9.99985 11.5819 10.0427 11.6667 10.12L14.6667 13.1067V13.8867Z" fill="black"/>
</svg>
