<svg width="20" height="20" viewBox="0 0 20 20" fill="none" xmlns="http://www.w3.org/2000/svg">
<path d="M16.6562 11.3672C16.8906 10.9922 16.6094 10.5 16.1641 10.5H6.8125C6.32031 10.5 5.73438 10.8516 5.5 11.25L3.8125 14.1562C3.57812 14.5312 3.85938 15 4.30469 15H13.6562C14.1484 15 14.7344 14.6719 14.9688 14.2734L16.6562 11.3672ZM6.8125 9.75H14.5V8.625C14.5 8.01562 13.9844 7.5 13.375 7.5H9.625L8.125 6H4.375C3.74219 6 3.25 6.51562 3.25 7.125V13.6641L4.86719 10.875C5.26562 10.1953 5.99219 9.75 6.8125 9.75Z" fill="black"/>
</svg>
