<svg width="20" height="20" viewBox="0 0 20 20" fill="none" xmlns="http://www.w3.org/2000/svg">
<path d="M15.6367 11.5781L16.7383 6.70312C16.8086 6.35156 16.5508 6 16.1758 6H6.98828L6.77734 4.96875C6.70703 4.71094 6.47266 4.5 6.21484 4.5H3.82422C3.49609 4.5 3.26172 4.75781 3.26172 5.0625V5.4375C3.26172 5.76562 3.49609 6 3.82422 6H5.44141L7.10547 14.0625C6.70703 14.2969 6.44922 14.7188 6.44922 15.1875C6.44922 15.9141 7.03516 16.5 7.76172 16.5C8.46484 16.5 9.07422 15.9141 9.07422 15.1875C9.07422 14.8359 8.91016 14.5078 8.67578 14.25H13.5742C13.3398 14.5078 13.1992 14.8359 13.1992 15.1875C13.1992 15.9141 13.7852 16.5 14.5117 16.5C15.2148 16.5 15.8242 15.9141 15.8242 15.1875C15.8242 14.6719 15.5195 14.2266 15.0742 14.0156L15.1914 13.4531C15.2852 13.1016 15.0039 12.75 14.6523 12.75H8.37109L8.20703 12H15.0742C15.332 12 15.5664 11.8359 15.6367 11.5781Z" fill="black"/>
</svg>
