<svg width="20" height="20" viewBox="0 0 20 20" fill="none" xmlns="http://www.w3.org/2000/svg">
<path d="M13.3333 4.00005H16C16.5523 4.00005 17 4.44777 17 5.00005V13.9583C17 14.5106 16.5523 14.9583 16 14.9583H13.3627C12.4792 14.9583 11.6205 15.2509 10.9207 15.7903L10 16.5L9.06667 15.8C8.37428 15.2807 7.53215 15 6.66667 15H4C3.44772 15 3 14.5523 3 14V5.00001C3 4.44772 3.44772 4 4.00001 4.00001L6.66673 4.00004C7.53217 4.00005 8.37427 4.28074 9.06663 4.8L10 5.5L10.9333 4.80001C11.6257 4.28075 12.4678 4.00005 13.3333 4.00005Z" stroke="white" stroke-linejoin="round"/>
<path d="M10 5.5L10 16" stroke="white"/>
</svg>
