<svg width="18" height="18" viewBox="0 0 18 18" fill="none" xmlns="http://www.w3.org/2000/svg">
<path d="M11.1875 6.8125C11.0312 6.65625 10.75 6.40625 10.5625 6.28125C10.3438 6.125 10.0938 6.15625 9.90625 6.3125L9.25 6.96875C9 7.25 8.875 7.59375 8.875 7.90625C8.875 8.0625 9 8.21875 9.09375 8.3125C9.1875 8.375 9.3125 8.46875 9.4375 8.5625C10.3125 9.46875 10.3125 10.875 9.4375 11.75L7.3125 13.8438C6.4375 14.75 5 14.75 4.125 13.8438C3.25 12.9688 3.28125 11.5312 4.15625 10.6562L4.5625 10.25C4.71875 10.125 4.75 9.90625 4.6875 9.71875C4.5 9.1875 4.40625 8.625 4.375 8.09375C4.375 7.65625 3.84375 7.4375 3.53125 7.75L2.375 8.90625C0.53125 10.75 0.53125 13.7812 2.375 15.625C4.21875 17.4688 7.25 17.4688 9.09375 15.625L11.1875 13.5312C11.1875 13.5312 11.1875 13.5312 11.1875 13.5C13.0312 11.6875 13.0625 8.6875 11.1875 6.8125ZM15.5938 2.40625C13.75 0.5625 10.7188 0.5625 8.875 2.40625L6.78125 4.5C6.78125 4.5 6.78125 4.5 6.78125 4.53125C4.9375 6.34375 4.90625 9.34375 6.78125 11.2188C6.9375 11.375 7.21875 11.625 7.40625 11.75C7.625 11.9062 7.875 11.875 8.0625 11.7188L8.71875 11.0625C8.96875 10.7812 9.09375 10.4375 9.09375 10.125C9.09375 9.96875 8.96875 9.8125 8.875 9.71875C8.78125 9.65625 8.65625 9.5625 8.53125 9.46875C7.65625 8.5625 7.65625 7.15625 8.53125 6.28125L10.6562 4.1875C11.5312 3.28125 12.9688 3.28125 13.8438 4.1875C14.7188 5.0625 14.6875 6.5 13.8125 7.375L13.4062 7.78125C13.25 7.90625 13.2188 8.125 13.2812 8.3125C13.4688 8.84375 13.5625 9.40625 13.5938 9.9375C13.5938 10.375 14.125 10.5938 14.4375 10.2812L15.5938 9.125C17.4375 7.28125 17.4375 4.25 15.5938 2.40625Z" fill="black"/>
</svg>
