<svg width="15" height="14" viewBox="0 0 15 14" fill="none" xmlns="http://www.w3.org/2000/svg">
<path d="M12.9141 7.27344C11.9297 7.27344 11.5078 8.02344 10.9922 8.02344C9.58594 8.02344 10.875 3.875 10.875 3.875C10.875 3.875 6.25781 5.75 6.25781 3.80469C6.25781 2.96094 7.125 2.72656 7.125 1.78906C7.125 0.96875 6.44531 0.5 5.67188 0.5C4.85156 0.5 4.125 0.945312 4.125 1.83594C4.125 2.79688 4.85156 3.21875 4.85156 3.75781C4.85156 5.375 0.75 4.41406 0.75 4.41406V12.2188C0.75 12.2188 4.92188 13.2031 4.92188 11.5625C4.92188 11.0234 3.98438 10.625 3.98438 9.64062C3.98438 8.77344 4.66406 8.32812 5.48438 8.32812C6.25781 8.32812 6.9375 8.77344 6.9375 9.61719C6.9375 10.5312 6.07031 10.7891 6.07031 11.6328C6.07031 13.0625 9.11719 12.2188 10.3125 12.2188C10.3125 12.2188 9.51562 9.40625 10.9219 9.40625C11.7656 9.40625 12.0234 10.25 12.9609 10.25C13.7812 10.25 14.25 9.59375 14.25 8.82031C14.25 8.02344 13.8047 7.27344 12.9141 7.27344Z" fill="#1E88E5"/>
</svg>
