<svg width="16" height="14" viewBox="0 0 16 14" fill="none" xmlns="http://www.w3.org/2000/svg">
<path d="M14.3594 3.75C14.9844 3.28125 15.5469 2.71875 15.9844 2.0625C15.4219 2.3125 14.7656 2.5 14.1094 2.5625C14.7969 2.15625 15.2969 1.53125 15.5469 0.75C14.9219 1.125 14.2031 1.40625 13.4844 1.5625C12.8594 0.90625 12.0156 0.53125 11.0781 0.53125C9.26562 0.53125 7.79688 2 7.79688 3.8125C7.79688 4.0625 7.82812 4.3125 7.89062 4.5625C5.17188 4.40625 2.73438 3.09375 1.10938 1.125C0.828125 1.59375 0.671875 2.15625 0.671875 2.78125C0.671875 3.90625 1.23438 4.90625 2.14062 5.5C1.60938 5.46875 1.07812 5.34375 0.640625 5.09375V5.125C0.640625 6.71875 1.76562 8.03125 3.26562 8.34375C3.01562 8.40625 2.70312 8.46875 2.42188 8.46875C2.20312 8.46875 2.01562 8.4375 1.79688 8.40625C2.20312 9.71875 3.42188 10.6562 4.85938 10.6875C3.73438 11.5625 2.32812 12.0938 0.796875 12.0938C0.515625 12.0938 0.265625 12.0625 0.015625 12.0312C1.45312 12.9688 3.17188 13.5 5.04688 13.5C11.0781 13.5 14.3594 8.53125 14.3594 4.1875C14.3594 4.03125 14.3594 3.90625 14.3594 3.75Z" fill="black"/>
</svg>
