<svg width="10" height="12" viewBox="0 0 10 12" fill="none" xmlns="http://www.w3.org/2000/svg">
<path d="M9.74983 1.01205C9.74978 0.949052 9.73502 0.886935 9.70672 0.830652C9.67842 0.774368 9.63736 0.725475 9.58682 0.687869C9.53628 0.650263 9.47765 0.624985 9.41561 0.614049C9.35356 0.603114 9.28983 0.606824 9.22947 0.624884L3.83718 2.24257C3.75385 2.2675 3.68079 2.31864 3.62882 2.38838C3.57685 2.45812 3.54875 2.54276 3.54869 2.62974V7.95571C3.19889 7.71216 2.77694 7.5942 2.35155 7.62102C1.92616 7.64784 1.52238 7.81787 1.20593 8.10342C0.889491 8.38897 0.679025 8.77323 0.608801 9.19364C0.538577 9.61405 0.612731 10.0459 0.81919 10.4187C1.02565 10.7916 1.35225 11.0837 1.74583 11.2473C2.13941 11.4109 2.57679 11.4365 2.98676 11.3198C3.39672 11.2032 3.75514 10.9512 4.00365 10.6049C4.25216 10.2586 4.37613 9.83843 4.35538 9.4127C4.35684 9.39855 4.35756 9.38433 4.35754 9.3701V5.08754L8.94098 3.71251V6.87779C8.59118 6.63424 8.16924 6.51628 7.74385 6.5431C7.31846 6.56992 6.91467 6.73995 6.59823 7.0255C6.28178 7.31105 6.07132 7.69531 6.00109 8.11572C5.93087 8.53613 6.00502 8.96793 6.21148 9.34083C6.41794 9.71372 6.74455 10.0058 7.13813 10.1694C7.53171 10.333 7.96908 10.3586 8.37905 10.2419C8.78902 10.1253 9.14743 9.87332 9.39594 9.52702C9.64445 9.18073 9.76842 8.76051 9.74767 8.33478C9.74914 8.32045 9.74986 8.30605 9.74983 8.29165V1.01205Z" fill="white" fill-opacity="0.7"/>
</svg>
