<svg width="42" height="42" viewBox="0 0 42 42" fill="none" xmlns="http://www.w3.org/2000/svg">
<circle cx="20.9993" cy="21.262" r="20.3665" fill="white"/>
<path d="M0.65625 21.25C0.65625 32.4883 9.76172 41.5938 21 41.5938C32.2383 41.5938 41.3438 32.4883 41.3438 21.25C41.3438 10.0117 32.2383 0.90625 21 0.90625C9.76172 0.90625 0.65625 10.0117 0.65625 21.25ZM24.6094 30.7656C24.6094 31.3398 24.1172 31.75 23.625 31.75H18.375C17.8008 31.75 17.3906 31.3398 17.3906 30.7656V21.25H11.5664C10.6641 21.25 10.2539 20.2656 10.8281 19.6094L20.2617 10.2578C20.6719 9.84766 21.2461 9.84766 21.6562 10.2578L31.0898 19.6094C31.7461 20.1836 31.2539 21.25 30.3516 21.25H24.6094V30.7656Z" fill="black" fill-opacity="0.2"/>
</svg>
