<svg width="12" height="12" viewBox="0 0 12 12" fill="none" xmlns="http://www.w3.org/2000/svg">
<path d="M6 6C5.61144 6 5.22288 5.93106 4.92 5.79317L0.650769 3.84635C0.455481 3.7575 0 3.4976 0 3.00692C0 2.51625 0.455481 2.25692 0.651346 2.16692L4.9575 0.203365C5.55087 -0.0677885 6.44625 -0.0677885 7.0399 0.203365L11.3487 2.16692C11.5445 2.25606 12 2.51596 12 3.00692C12 3.49788 11.5445 3.75692 11.3487 3.84663L7.07942 5.79317C6.77712 5.93106 6.38856 6 6 6Z" fill="white"/>
<path d="M11.3469 5.15787L10.9116 4.96143L9.79327 5.47316L7.08173 6.71354C6.77885 6.852 6.38942 6.92094 6.00173 6.92094C5.61404 6.92094 5.2249 6.852 4.92231 6.71354L2.20875 5.47316L1.0901 4.96143L0.651058 5.15873C0.455481 5.24787 0 5.5095 0 5.99989C0 6.49027 0.455481 6.7522 0.650769 6.84133L4.92 8.79219C5.22115 8.93066 5.61029 8.99989 6 8.99989C6.38971 8.99989 6.77712 8.93066 7.08 8.79248L11.3455 6.8422C11.5419 6.75306 12 6.49287 12 5.99989C12 5.50691 11.5451 5.24787 11.3469 5.15787Z" fill="white"/>
<path d="M11.3469 8.15758L10.9116 7.96143L9.79327 8.47287L7.08173 9.71181C6.77885 9.84969 6.38942 9.91893 6.00173 9.91893C5.61404 9.91893 5.2249 9.84998 4.92231 9.71181L2.20875 8.47143L1.0901 7.96143L0.651058 8.15873C0.455481 8.24787 0 8.5095 0 8.99989C0 9.49027 0.455481 9.75191 0.650769 9.84075L4.92 11.7905C5.22115 11.9283 5.61173 11.9999 6 11.9999C6.38827 11.9999 6.77538 11.9283 7.07827 11.7902L11.3452 9.84104C11.5419 9.7522 12 9.492 12 8.99989C12 8.50777 11.5451 8.24787 11.3469 8.15758Z" fill="white"/>
</svg>
