<svg width="16" height="16" viewBox="0 0 16 16" fill="none" xmlns="http://www.w3.org/2000/svg">
<path d="M8 8C7.54668 8 7.09337 7.91957 6.74 7.7587L1.75923 5.4874C1.53139 5.38375 1 5.08053 1 4.50808C1 3.93563 1.53139 3.63308 1.7599 3.52808L6.78375 1.23726C7.47601 0.920913 8.52062 0.920913 9.21322 1.23726L14.2401 3.52808C14.4686 3.63207 15 3.93529 15 4.50808C15 5.08087 14.4686 5.38308 14.2401 5.48774L9.25933 7.7587C8.90664 7.91957 8.45332 8 8 8Z" stroke="black"/>
<path d="M14.2381 7.01807C14.4693 7.12307 15 7.42528 15 8.00042C15 8.57557 14.4656 8.87912 14.2364 8.98312L9.26 11.2585C8.90663 11.4197 8.45466 11.5004 8 11.5004C7.54534 11.5004 7.09135 11.4197 6.74 11.2581L1.75923 8.98211C1.53139 8.87812 1 8.57254 1 8.00042C1 7.42831 1.53139 7.12307 1.75957 7.01908" stroke="black"/>
<path d="M14.2381 10.5177C14.4693 10.623 15 10.9263 15 11.5004C15 12.0745 14.4656 12.3781 14.2361 12.4817L9.25798 14.7557C8.90462 14.9169 8.45298 15.0004 8 15.0004C7.54702 15.0004 7.09135 14.9169 6.74 14.7561L1.75923 12.4814C1.53139 12.3777 1 12.0725 1 11.5004C1 10.9283 1.53139 10.623 1.75957 10.519" stroke="black"/>
</svg>
