<svg width="14" height="9" viewBox="0 0 14 9" fill="none" xmlns="http://www.w3.org/2000/svg">
<path d="M13.6562 5.36719C13.8906 4.99219 13.6094 4.5 13.1641 4.5H3.8125C3.32031 4.5 2.73438 4.85156 2.5 5.25L0.8125 8.15625C0.578125 8.53125 0.859375 9 1.30469 9H10.6562C11.1484 9 11.7344 8.67188 11.9688 8.27344L13.6562 5.36719ZM3.8125 3.75H11.5V2.625C11.5 2.01562 10.9844 1.5 10.375 1.5H6.625L5.125 0H1.375C0.742188 0 0.25 0.515625 0.25 1.125V7.66406L1.86719 4.875C2.26562 4.19531 2.99219 3.75 3.8125 3.75Z" fill="black"/>
</svg>
