<svg width="12" height="13" viewBox="0 0 12 13" fill="none" xmlns="http://www.w3.org/2000/svg">
<path d="M0.0117188 6.42969C0.0117188 6.6875 0.152344 7.03906 0.339844 7.22656L5.28516 12.1719C5.73047 12.6172 6.45703 12.6172 6.87891 12.1719L11.6602 7.39062C12.1055 6.96875 12.1055 6.24219 11.6602 5.79688L6.71484 0.851562C6.52734 0.664062 6.17578 0.5 5.91797 0.5H1.13672C0.503906 0.5 0.0117188 1.01562 0.0117188 1.625V6.42969ZM2.63672 2C3.24609 2 3.76172 2.51562 3.76172 3.125C3.76172 3.75781 3.24609 4.25 2.63672 4.25C2.00391 4.25 1.51172 3.75781 1.51172 3.125C1.51172 2.51562 2.00391 2 2.63672 2Z" fill="black"/>
</svg>
