<svg width="14" height="13" viewBox="0 0 14 13" fill="none" xmlns="http://www.w3.org/2000/svg">
<path d="M12.6367 7.57812L13.7383 2.70312C13.8086 2.35156 13.5508 2 13.1758 2H3.98828L3.77734 0.96875C3.70703 0.710938 3.47266 0.5 3.21484 0.5H0.824219C0.496094 0.5 0.261719 0.757812 0.261719 1.0625V1.4375C0.261719 1.76562 0.496094 2 0.824219 2H2.44141L4.10547 10.0625C3.70703 10.2969 3.44922 10.7188 3.44922 11.1875C3.44922 11.9141 4.03516 12.5 4.76172 12.5C5.46484 12.5 6.07422 11.9141 6.07422 11.1875C6.07422 10.8359 5.91016 10.5078 5.67578 10.25H10.5742C10.3398 10.5078 10.1992 10.8359 10.1992 11.1875C10.1992 11.9141 10.7852 12.5 11.5117 12.5C12.2148 12.5 12.8242 11.9141 12.8242 11.1875C12.8242 10.6719 12.5195 10.2266 12.0742 10.0156L12.1914 9.45312C12.2852 9.10156 12.0039 8.75 11.6523 8.75H5.37109L5.20703 8H12.0742C12.332 8 12.5664 7.83594 12.6367 7.57812Z" fill="black"/>
</svg>
