<svg width="20" height="20" viewBox="0 0 20 20" fill="none" xmlns="http://www.w3.org/2000/svg">
<g opacity="0.4">
<path d="M13.3333 3.99999H16C16.5523 3.99999 17 4.44771 17 4.99999V13.9583C17 14.5106 16.5523 14.9583 16 14.9583H13.3627C12.4792 14.9583 11.6205 15.2508 10.9207 15.7902L10 16.4999L9.06667 15.7999C8.37428 15.2807 7.53215 14.9999 6.66667 14.9999H4C3.44772 14.9999 3 14.5522 3 13.9999V4.99995C3 4.44766 3.44772 3.99994 4.00001 3.99995L6.66673 3.99998C7.53217 3.99999 8.37427 4.28068 9.06663 4.79994L10 5.49994L10.9333 4.79995C11.6257 4.28069 12.4678 3.99999 13.3333 3.99999Z" stroke="black" stroke-linejoin="round"/>
<path d="M10 5.5L10 16" stroke="black"/>
</g>
</svg>
