<svg width="60" height="60" viewBox="0 0 60 60" fill="none" xmlns="http://www.w3.org/2000/svg">
<g filter="url(#filter0_dd)">
<path d="M30 10C18.9554 10 10 18.9554 10 30C10 41.0446 18.9554 50 30 50C41.0446 50 50 41.0446 50 30C50 18.9554 41.0446 10 30 10ZM37.8795 36.1473L36.6027 37.8884C36.5749 37.9263 36.5399 37.9584 36.4997 37.9827C36.4595 38.007 36.4149 38.0232 36.3685 38.0303C36.322 38.0373 36.2746 38.0351 36.229 38.0238C36.1834 38.0125 36.1404 37.9923 36.1027 37.9643L28.7188 32.5804C28.6727 32.5473 28.6354 32.5037 28.6097 32.4532C28.5841 32.4027 28.571 32.3468 28.5714 32.2902V20C28.5714 19.8036 28.7321 19.6429 28.9286 19.6429H31.0759C31.2723 19.6429 31.433 19.8036 31.433 20V31.0491L37.7991 35.6518C37.9598 35.7634 37.9955 35.9866 37.8795 36.1473Z" fill="white"/>
</g>
<defs>
<filter id="filter0_dd" x="0.65" y="0.65" width="58.7" height="58.7" filterUnits="userSpaceOnUse" color-interpolation-filters="sRGB">
<feFlood flood-opacity="0" result="BackgroundImageFix"/>
<feColorMatrix in="SourceAlpha" type="matrix" values="0 0 0 0 0 0 0 0 0 0 0 0 0 0 0 0 0 0 127 0"/>
<feOffset dx="-2" dy="-2"/>
<feGaussianBlur stdDeviation="3.675"/>
<feColorMatrix type="matrix" values="0 0 0 0 0.74902 0 0 0 0 0.937255 0 0 0 0 0 0 0 0 1 0"/>
<feBlend mode="normal" in2="BackgroundImageFix" result="effect1_dropShadow"/>
<feColorMatrix in="SourceAlpha" type="matrix" values="0 0 0 0 0 0 0 0 0 0 0 0 0 0 0 0 0 0 127 0"/>
<feOffset dx="2" dy="2"/>
<feGaussianBlur stdDeviation="3.675"/>
<feColorMatrix type="matrix" values="0 0 0 0 0.364706 0 0 0 0 0.968627 0 0 0 0 0.643137 0 0 0 1 0"/>
<feBlend mode="normal" in2="effect1_dropShadow" result="effect2_dropShadow"/>
<feBlend mode="normal" in="SourceGraphic" in2="effect2_dropShadow" result="shape"/>
</filter>
</defs>
</svg>
