<svg width="68" height="65" viewBox="0 0 68 65" fill="none" xmlns="http://www.w3.org/2000/svg">
<g filter="url(#filter0_dd)">
<path d="M30.944 23.1336V16.3336H32.5119C32.9137 16.3336 33.2989 16.174 33.583 15.89C33.867 15.6059 34.0266 15.2206 34.0266 14.8189V11.4483C34.0266 11.0465 33.867 10.6613 33.583 10.3772C33.2989 10.0932 32.9137 9.93359 32.5119 9.93359H16.9866C16.788 9.93359 16.5913 9.97281 16.4078 10.049C16.2243 10.1252 16.0577 10.2368 15.9175 10.3776C15.7773 10.5183 15.6662 10.6853 15.5907 10.869C15.5151 11.0528 15.4766 11.2496 15.4773 11.4483V14.8189C15.4766 15.0176 15.5151 15.2144 15.5907 15.3982C15.6662 15.5819 15.7773 15.7489 15.9175 15.8896C16.0577 16.0303 16.2243 16.142 16.4078 16.2182C16.5913 16.2944 16.788 16.3336 16.9866 16.3336H18.5333V34.4669H16.9866C16.788 34.4669 16.5913 34.5061 16.4078 34.5823C16.2243 34.6585 16.0577 34.7701 15.9175 34.9109C15.7773 35.0516 15.6662 35.2186 15.5907 35.4023C15.5151 35.5861 15.4766 35.7829 15.4773 35.9816V39.3522C15.4766 39.5509 15.5151 39.7477 15.5907 39.9315C15.6662 40.1152 15.7773 40.2822 15.9175 40.4229C16.0577 40.5637 16.2243 40.6753 16.4078 40.7515C16.5913 40.8277 16.788 40.8669 16.9866 40.8669H32.5119C32.9137 40.8669 33.2989 40.7073 33.583 40.4233C33.867 40.1392 34.0266 39.7539 34.0266 39.3522V35.9816C34.0266 35.5799 33.867 35.1946 33.583 34.9105C33.2989 34.6265 32.9137 34.4669 32.5119 34.4669H30.944V27.6669H55.7333C56.3344 27.6669 56.9109 27.4281 57.336 27.003C57.7611 26.5779 57.9999 26.0014 57.9999 25.4002C57.9999 24.7991 57.7611 24.2226 57.336 23.7975C56.9109 23.3724 56.3344 23.1336 55.7333 23.1336H30.944Z" fill="black"/>
<path d="M34.9013 46.2002H14.6027C13.382 46.2002 12.2113 46.6851 11.3481 47.5483C10.4849 48.4115 10 49.5822 10 50.8029V54.7335H39.4986V50.8029C39.4993 50.1987 39.3809 49.6003 39.1502 49.0419C38.9195 48.4835 38.581 47.9761 38.154 47.5486C37.727 47.1211 37.22 46.782 36.6619 46.5507C36.1037 46.3193 35.5055 46.2002 34.9013 46.2002Z" fill="black"/>
</g>
<defs>
<filter id="filter0_dd" x="-0.35" y="-2.35" width="68.7" height="68.7" filterUnits="userSpaceOnUse" color-interpolation-filters="sRGB">
<feFlood flood-opacity="0" result="BackgroundImageFix"/>
<feColorMatrix in="SourceAlpha" type="matrix" values="0 0 0 0 0 0 0 0 0 0 0 0 0 0 0 0 0 0 127 0"/>
<feOffset dx="-2" dy="-2"/>
<feGaussianBlur stdDeviation="3.675"/>
<feColorMatrix type="matrix" values="0 0 0 0 0.74902 0 0 0 0 0.937255 0 0 0 0 0 0 0 0 1 0"/>
<feBlend mode="normal" in2="BackgroundImageFix" result="effect1_dropShadow"/>
<feColorMatrix in="SourceAlpha" type="matrix" values="0 0 0 0 0 0 0 0 0 0 0 0 0 0 0 0 0 0 127 0"/>
<feOffset dx="2" dy="2"/>
<feGaussianBlur stdDeviation="3.675"/>
<feColorMatrix type="matrix" values="0 0 0 0 0.364706 0 0 0 0 0.968627 0 0 0 0 0.643137 0 0 0 1 0"/>
<feBlend mode="normal" in2="effect1_dropShadow" result="effect2_dropShadow"/>
<feBlend mode="normal" in="SourceGraphic" in2="effect2_dropShadow" result="shape"/>
</filter>
</defs>
</svg>
