<svg width="30" height="30" viewBox="0 0 30 30" fill="none" xmlns="http://www.w3.org/2000/svg">
<rect opacity="0.1" width="30" height="30" rx="15" fill="#D74101"/>
<path d="M20.4701 16.1968C20.3097 14.1089 19.3376 12.8004 18.48 11.6458C17.6859 10.5769 17 9.65383 17 8.29217C17 8.18279 16.9387 8.08282 16.8416 8.0327C16.7442 7.98228 16.6271 7.99054 16.5386 8.0549C15.2506 8.97655 14.1759 10.5299 13.8005 12.0121C13.5399 13.0439 13.5054 14.204 13.5006 14.9701C12.3111 14.7161 12.0417 12.9369 12.0388 12.9175C12.0254 12.8252 11.969 12.7449 11.887 12.701C11.8041 12.6577 11.7067 12.6546 11.6227 12.6962C11.5603 12.7264 10.0917 13.4726 10.0063 16.452C10.0003 16.5511 10 16.6505 10 16.7499C10 19.6444 12.3553 21.9996 15.25 21.9996C15.254 21.9998 15.2583 22.0004 15.2617 21.9996C15.2628 21.9996 15.2639 21.9996 15.2654 21.9996C18.153 21.9913 20.5 19.6393 20.5 16.7499C20.5 16.6044 20.4701 16.1968 20.4701 16.1968ZM15.25 21.4163C14.285 21.4163 13.5 20.5801 13.5 19.5522C13.5 19.5172 13.4997 19.4818 13.5023 19.4385C13.5139 19.0051 13.5963 18.7091 13.6866 18.5123C13.8558 18.8758 14.1582 19.2098 14.6496 19.2098C14.8108 19.2098 14.9413 19.0794 14.9413 18.9182C14.9413 18.5029 14.9498 18.0239 15.0532 17.5915C15.1452 17.2082 15.3651 16.8003 15.6437 16.4734C15.7676 16.8977 16.0091 17.2412 16.245 17.5764C16.5825 18.056 16.9314 18.5519 16.9926 19.3975C16.9963 19.4476 17.0001 19.4981 17.0001 19.5522C17 20.58 16.215 21.4163 15.25 21.4163Z" fill="#D74101"/>
</svg>
