<svg width="20" height="20" viewBox="0 0 20 20" fill="none" xmlns="http://www.w3.org/2000/svg">
<path d="M10 2.96875C6.25391 2.96875 3.21875 6.00391 3.21875 9.75C3.21875 13.4961 6.25391 16.5312 10 16.5312C13.7461 16.5312 16.7812 13.4961 16.7812 9.75C16.7812 6.00391 13.7461 2.96875 10 2.96875ZM11.7227 6.49609C11.9414 6.19531 12.4062 6.16797 12.625 6.49609C12.9531 7.01562 13.0352 7.50781 13.0625 8C13.0352 8.51953 12.9531 9.01172 12.625 9.53125C12.4062 9.83203 11.9414 9.83203 11.7227 9.53125C11.3945 9.01172 11.3125 8.51953 11.3125 8C11.3125 7.50781 11.3945 7.01562 11.7227 6.49609ZM7.34766 6.49609C7.56641 6.19531 8.03125 6.16797 8.25 6.49609C8.57812 7.01562 8.66016 7.50781 8.6875 8C8.66016 8.51953 8.57812 9.01172 8.25 9.53125C8.03125 9.83203 7.56641 9.83203 7.34766 9.53125C7.01953 9.01172 6.9375 8.51953 6.9375 8C6.9375 7.50781 7.01953 7.01562 7.34766 6.49609ZM10 14.5625C8.33203 14.5625 6.30859 13.5234 6.0625 12.0195C6.00781 11.6914 6.30859 11.4453 6.60938 11.5273C7.45703 11.8008 8.6875 11.9375 10 11.9375C11.3125 11.9375 12.5156 11.8008 13.3633 11.5273C13.6641 11.4453 13.9648 11.6914 13.9102 12.0195C13.6641 13.5234 11.6406 14.5625 10 14.5625Z" fill="black"/>
</svg>
