<svg width="20" height="20" viewBox="0 0 20 20" fill="none" xmlns="http://www.w3.org/2000/svg">
<circle cx="10" cy="10" r="8.5" stroke="#E4B613"/>
<path d="M9 13.005C9 12.8737 9.02587 12.7436 9.07612 12.6223C9.12638 12.501 9.20003 12.3908 9.29289 12.2979C9.38575 12.205 9.49599 12.1314 9.61732 12.0811C9.73864 12.0309 9.86868 12.005 10 12.005C10.1313 12.005 10.2614 12.0309 10.3827 12.0811C10.504 12.1314 10.6142 12.205 10.7071 12.2979C10.8 12.3908 10.8736 12.501 10.9239 12.6223C10.9741 12.7436 11 12.8737 11 13.005C11 13.2702 10.8946 13.5246 10.7071 13.7121C10.5196 13.8996 10.2652 14.005 10 14.005C9.73478 14.005 9.48043 13.8996 9.29289 13.7121C9.10536 13.5246 9 13.2702 9 13.005ZM9.098 7C9.08468 6.87384 9.09804 6.74629 9.1372 6.62563C9.17636 6.50496 9.24045 6.39388 9.32532 6.29959C9.41018 6.20529 9.51392 6.12989 9.62981 6.07828C9.7457 6.02667 9.87114 6 9.998 6C10.1249 6 10.2503 6.02667 10.3662 6.07828C10.4821 6.12989 10.5858 6.20529 10.6707 6.29959C10.7555 6.39388 10.8196 6.50496 10.8588 6.62563C10.898 6.74629 10.9113 6.87384 10.898 7L10.548 10.507C10.5338 10.643 10.4697 10.7688 10.3681 10.8603C10.2666 10.9518 10.1347 11.0025 9.998 11.0025C9.86129 11.0025 9.72943 10.9518 9.62787 10.8603C9.5263 10.7688 9.46222 10.643 9.448 10.507L9.098 7Z" fill="#E4B613"/>
</svg>
