<svg width="66" height="53" viewBox="0 0 66 53" fill="none" xmlns="http://www.w3.org/2000/svg">
<g filter="url(#filter0_dd)">
<path d="M54.7659 25.5022C52.7332 16.5138 49.674 11.7164 45.136 10.406C44.1821 10.1323 43.1926 9.9956 42.1986 10.0001C40.8846 10.0001 39.7403 10.3132 38.5298 10.645C37.0712 11.0453 35.4141 11.4999 32.998 11.4999C30.5819 11.4999 28.9239 11.0462 27.4624 10.646C26.251 10.3132 25.1076 10.0001 23.7975 10.0001C22.7696 9.99662 21.7461 10.1329 20.7565 10.405C16.2425 11.7099 13.1853 16.5054 11.1228 25.4966C8.9051 35.1721 9.9967 41.2809 14.1839 42.6982C14.7579 42.896 15.3618 42.9981 15.9703 43C18.8388 43 21.1389 40.6632 22.7107 38.75C24.4866 36.5847 26.5653 35.4861 32.998 35.4861C38.7436 35.4861 41.1213 36.2482 43.1752 38.75C44.4661 40.3229 45.6861 41.4234 46.9033 42.1161C48.522 43.0366 50.1398 43.2409 51.7106 42.7132C54.1851 41.8874 55.6035 39.7042 55.9275 36.2229C56.1738 33.5532 55.7943 30.0466 54.7659 25.5022ZM28.3978 24.9979H25.3309V27.9975C25.3309 28.3953 25.1694 28.7767 24.8818 29.058C24.5942 29.3393 24.2042 29.4973 23.7975 29.4973C23.3908 29.4973 23.0008 29.3393 22.7132 29.058C22.4256 28.7767 22.2641 28.3953 22.2641 27.9975V24.9979H19.1972C18.7905 24.9979 18.4005 24.8399 18.1129 24.5587C17.8254 24.2774 17.6638 23.8959 17.6638 23.4981C17.6638 23.1004 17.8254 22.7189 18.1129 22.4376C18.4005 22.1564 18.7905 21.9984 19.1972 21.9984H22.2641V18.9988C22.2641 18.601 22.4256 18.2196 22.7132 17.9383C23.0008 17.657 23.3908 17.499 23.7975 17.499C24.2042 17.499 24.5942 17.657 24.8818 17.9383C25.1694 18.2196 25.3309 18.601 25.3309 18.9988V21.9984H28.3978C28.8044 21.9984 29.1945 22.1564 29.4821 22.4376C29.7696 22.7189 29.9312 23.1004 29.9312 23.4981C29.9312 23.8959 29.7696 24.2774 29.4821 24.5587C29.1945 24.8399 28.8044 24.9979 28.3978 24.9979ZM36.4482 25.3729C36.0691 25.3729 35.6985 25.2629 35.3833 25.0569C35.0681 24.8509 34.8224 24.5581 34.6774 24.2156C34.5323 23.873 34.4943 23.4961 34.5683 23.1324C34.6422 22.7687 34.8248 22.4347 35.0929 22.1725C35.3609 21.9103 35.7025 21.7318 36.0743 21.6594C36.4461 21.5871 36.8315 21.6242 37.1817 21.7661C37.532 21.908 37.8313 22.1483 38.042 22.4566C38.2526 22.7649 38.365 23.1274 38.365 23.4981C38.365 23.9954 38.1631 24.4722 37.8036 24.8238C37.4441 25.1754 36.9566 25.3729 36.4482 25.3729ZM40.6651 29.4973C40.2858 29.4973 39.915 29.3872 39.5997 29.181C39.2844 28.9748 39.0387 28.6817 38.8938 28.3389C38.7489 27.9961 38.7112 27.6189 38.7855 27.2551C38.8599 26.8913 39.0429 26.5573 39.3115 26.2953C39.58 26.0333 39.922 25.8551 40.2941 25.7833C40.6663 25.7115 41.0518 25.7493 41.402 25.8919C41.7521 26.0345 42.0512 26.2755 42.2612 26.5844C42.4712 26.8933 42.5829 27.2562 42.5819 27.6272C42.5806 28.1236 42.3781 28.5993 42.0188 28.9498C41.6595 29.3004 41.1727 29.4973 40.6651 29.4973ZM40.6651 21.2485C40.286 21.2485 39.9154 21.1385 39.6002 20.9325C39.285 20.7265 39.0393 20.4337 38.8943 20.0912C38.7492 19.7486 38.7112 19.3717 38.7852 19.008C38.8591 18.6443 39.0417 18.3103 39.3098 18.0481C39.5778 17.7859 39.9194 17.6074 40.2912 17.535C40.663 17.4627 41.0484 17.4998 41.3987 17.6417C41.7489 17.7836 42.0483 18.0239 42.2589 18.3322C42.4695 18.6405 42.5819 19.003 42.5819 19.3737C42.5819 19.871 42.38 20.3478 42.0205 20.6994C41.661 21.051 41.1735 21.2485 40.6651 21.2485ZM44.882 25.3729C44.5029 25.3729 44.1324 25.2629 43.8171 25.0569C43.5019 24.8509 43.2562 24.5581 43.1112 24.2156C42.9661 23.873 42.9281 23.4961 43.0021 23.1324C43.0761 22.7687 43.2586 22.4347 43.5267 22.1725C43.7947 21.9103 44.1363 21.7318 44.5081 21.6594C44.8799 21.5871 45.2653 21.6242 45.6156 21.7661C45.9658 21.908 46.2652 22.1483 46.4758 22.4566C46.6864 22.7649 46.7988 23.1274 46.7988 23.4981C46.7988 23.9954 46.5969 24.4722 46.2374 24.8238C45.8779 25.1754 45.3904 25.3729 44.882 25.3729Z" fill="black"/>
</g>
<defs>
<filter id="filter0_dd" x="0.65" y="0.65" width="64.7" height="51.7" filterUnits="userSpaceOnUse" color-interpolation-filters="sRGB">
<feFlood flood-opacity="0" result="BackgroundImageFix"/>
<feColorMatrix in="SourceAlpha" type="matrix" values="0 0 0 0 0 0 0 0 0 0 0 0 0 0 0 0 0 0 127 0"/>
<feOffset dx="-2" dy="-2"/>
<feGaussianBlur stdDeviation="3.675"/>
<feColorMatrix type="matrix" values="0 0 0 0 0.74902 0 0 0 0 0.937255 0 0 0 0 0 0 0 0 1 0"/>
<feBlend mode="normal" in2="BackgroundImageFix" result="effect1_dropShadow"/>
<feColorMatrix in="SourceAlpha" type="matrix" values="0 0 0 0 0 0 0 0 0 0 0 0 0 0 0 0 0 0 127 0"/>
<feOffset dx="2" dy="2"/>
<feGaussianBlur stdDeviation="3.675"/>
<feColorMatrix type="matrix" values="0 0 0 0 0.364706 0 0 0 0 0.968627 0 0 0 0 0.643137 0 0 0 1 0"/>
<feBlend mode="normal" in2="effect1_dropShadow" result="effect2_dropShadow"/>
<feBlend mode="normal" in="SourceGraphic" in2="effect2_dropShadow" result="shape"/>
</filter>
</defs>
</svg>
