<svg width="54" height="54" viewBox="0 0 54 54" fill="none" xmlns="http://www.w3.org/2000/svg">
<g filter="url(#filter0_dd)">
<path d="M39.0464 14.9498C32.4002 8.30568 21.6262 8.30728 14.9821 14.9535C8.33791 21.5997 8.3395 32.3736 14.9857 39.0178C21.6319 45.6619 32.4059 45.6603 39.05 39.0141C42.2409 35.8222 44.033 31.4935 44.032 26.9802C44.0311 22.4676 42.2377 18.1402 39.0464 14.9498ZM35.7702 33.6709C35.7694 33.6716 35.7687 33.6724 35.7679 33.6732V33.6675L34.9058 34.524C33.7907 35.6531 32.1668 36.1176 30.6234 35.7491C29.0683 35.3329 27.5901 34.6703 26.2446 33.7866C24.9946 32.9877 23.8362 32.0539 22.7903 31.0016C21.8281 30.0464 20.9636 28.9975 20.2096 27.8707C19.3848 26.6582 18.732 25.3373 18.2697 23.9457C17.7398 22.3108 18.1789 20.5169 19.4042 19.3117L20.4138 18.3021C20.6945 18.0201 21.1506 18.0191 21.4325 18.2998C21.4332 18.3005 21.434 18.3013 21.4347 18.3021L24.6224 21.4897C24.9043 21.7704 24.9053 22.2265 24.6246 22.5084C24.6239 22.5091 24.6232 22.5099 24.6224 22.5107L22.7506 24.3824C22.2135 24.9136 22.146 25.7578 22.5918 26.3676C23.2688 27.2967 24.018 28.171 24.8323 28.9825C25.7402 29.8943 26.7272 30.7237 27.7817 31.4611C28.391 31.8861 29.2171 31.8145 29.7442 31.291L31.5535 29.4533C31.8342 29.1713 32.2903 29.1703 32.5722 29.451C32.573 29.4517 32.5737 29.4525 32.5745 29.4533L35.7679 32.6523C36.0499 32.9329 36.0509 33.3889 35.7702 33.6709Z" fill="white"/>
</g>
<defs>
<filter id="filter0_dd" x="0.65" y="0.617773" width="52.732" height="52.7321" filterUnits="userSpaceOnUse" color-interpolation-filters="sRGB">
<feFlood flood-opacity="0" result="BackgroundImageFix"/>
<feColorMatrix in="SourceAlpha" type="matrix" values="0 0 0 0 0 0 0 0 0 0 0 0 0 0 0 0 0 0 127 0"/>
<feOffset dx="-2" dy="-2"/>
<feGaussianBlur stdDeviation="3.675"/>
<feColorMatrix type="matrix" values="0 0 0 0 0.74902 0 0 0 0 0.937255 0 0 0 0 0 0 0 0 1 0"/>
<feBlend mode="normal" in2="BackgroundImageFix" result="effect1_dropShadow"/>
<feColorMatrix in="SourceAlpha" type="matrix" values="0 0 0 0 0 0 0 0 0 0 0 0 0 0 0 0 0 0 127 0"/>
<feOffset dx="2" dy="2"/>
<feGaussianBlur stdDeviation="3.675"/>
<feColorMatrix type="matrix" values="0 0 0 0 0.364706 0 0 0 0 0.968627 0 0 0 0 0.643137 0 0 0 1 0"/>
<feBlend mode="normal" in2="effect1_dropShadow" result="effect2_dropShadow"/>
<feBlend mode="normal" in="SourceGraphic" in2="effect2_dropShadow" result="shape"/>
</filter>
</defs>
</svg>
