<svg width="20" height="20" viewBox="0 0 20 20" fill="none" xmlns="http://www.w3.org/2000/svg">
<rect x="6" y="6" width="8" height="9" fill="black"/>
<path d="M10 17C11.8565 17 13.637 16.2625 14.9497 14.9497C16.2625 13.637 17 11.8565 17 10C17 8.14348 16.2625 6.36301 14.9497 5.05025C13.637 3.7375 11.8565 3 10 3C8.14348 3 6.36301 3.7375 5.05025 5.05025C3.7375 6.36301 3 8.14348 3 10C3 11.8565 3.7375 13.637 5.05025 14.9497C6.36301 16.2625 8.14348 17 10 17ZM10.8138 8.7645L9.93875 12.8814C9.8775 13.1789 9.96413 13.3477 10.2048 13.3477C10.3745 13.3477 10.6309 13.2865 10.805 13.1325L10.728 13.4965C10.4769 13.7993 9.923 14.0197 9.44613 14.0197C8.831 14.0197 8.56938 13.6505 8.73913 12.8656L9.38487 9.83113C9.44088 9.57475 9.39013 9.482 9.13375 9.41988L8.73913 9.349L8.81087 9.01562L10.8146 8.7645H10.8138ZM10 7.8125C9.76794 7.8125 9.54538 7.72031 9.38128 7.55622C9.21719 7.39212 9.125 7.16956 9.125 6.9375C9.125 6.70544 9.21719 6.48288 9.38128 6.31878C9.54538 6.15469 9.76794 6.0625 10 6.0625C10.2321 6.0625 10.4546 6.15469 10.6187 6.31878C10.7828 6.48288 10.875 6.70544 10.875 6.9375C10.875 7.16956 10.7828 7.39212 10.6187 7.55622C10.4546 7.72031 10.2321 7.8125 10 7.8125Z" fill="#E6E6E6"/>
</svg>
