<svg width="30" height="30" viewBox="0 0 30 30" fill="none" xmlns="http://www.w3.org/2000/svg">
<rect opacity="0.1" width="30" height="30" rx="15" fill="#FFB23E"/>
<path d="M9.29684 14.7899C9.29684 15.0354 9.43077 15.3703 9.60934 15.5488L14.3192 20.2586C14.7433 20.6828 15.4352 20.6828 15.837 20.2586L20.3906 15.7051C20.8147 15.3033 20.8147 14.6113 20.3906 14.1872L15.6808 9.4774C15.5022 9.29883 15.1674 9.14258 14.9218 9.14258H10.3683C9.76559 9.14258 9.29684 9.63365 9.29684 10.214V14.7899ZM11.7968 10.5711C12.3772 10.5711 12.8683 11.0622 12.8683 11.6426C12.8683 12.2453 12.3772 12.714 11.7968 12.714C11.1942 12.714 10.7254 12.2453 10.7254 11.6426C10.7254 11.0622 11.1942 10.5711 11.7968 10.5711Z" fill="#FFB23E"/>
</svg>
