<svg width="60" height="60" viewBox="0 0 60 60" fill="none" xmlns="http://www.w3.org/2000/svg">
<g filter="url(#filter0_dd)">
<path d="M47.1963 15.5963C48.056 16.1411 48.7638 16.8945 49.2541 17.7865C49.7443 18.6784 50.0009 19.6799 50 20.6977V40.2326C50 45.6279 45.6279 50 40.2326 50H20.6977C19.6792 50.0006 18.6772 49.7437 17.7846 49.2532C16.8921 48.7627 16.138 48.0545 15.5926 47.1944L15.8195 47.2056L16.0465 47.2093H40.2326C42.0829 47.2093 43.8575 46.4743 45.1659 45.1659C46.4743 43.8575 47.2093 42.0829 47.2093 40.2326V16.0465C47.2092 15.8963 47.2048 15.7462 47.1963 15.5963ZM28.4781 30.7405L28.6512 30.8856L42.4707 44.454C41.5183 45.0409 40.4211 45.3508 39.3023 45.3488H16.0465C14.9277 45.3508 13.8306 45.0409 12.8781 44.454L26.6958 30.8856L26.8521 30.7554C27.0573 30.6055 27.2995 30.5145 27.5526 30.4922C27.8057 30.4699 28.0601 30.5172 28.2884 30.6288L28.4781 30.7405ZM39.3023 10C40.0964 10 40.8826 10.1564 41.6162 10.4603C42.3498 10.7641 43.0164 11.2095 43.5779 11.771C44.1393 12.3325 44.5847 12.999 44.8886 13.7326C45.1924 14.4662 45.3488 15.2525 45.3488 16.0465V39.3023C45.3488 40.4688 45.0177 41.5591 44.4465 42.4837L30.6065 28.8949L30.3684 28.6772C29.6163 28.0448 28.6656 27.6971 27.683 27.695C26.7003 27.693 25.7482 28.0367 24.9935 28.666L24.7423 28.8949L10.9023 42.4819C10.3107 41.527 9.99818 40.4256 10 39.3023V16.0465C10 14.4429 10.637 12.9049 11.771 11.771C12.9049 10.637 14.4429 10 16.0465 10H39.3023ZM35.1163 17.907C34.8055 17.8982 34.4961 17.9518 34.2063 18.0647C33.9166 18.1775 33.6525 18.3474 33.4295 18.5641C33.2065 18.7808 33.0293 19.0401 32.9083 19.3265C32.7873 19.6129 32.7249 19.9207 32.7249 20.2316C32.7249 20.5426 32.7873 20.8503 32.9083 21.1368C33.0293 21.4232 33.2065 21.6824 33.4295 21.8992C33.6525 22.1159 33.9166 22.2857 34.2063 22.3986C34.4961 22.5115 34.8055 22.5651 35.1163 22.5563C35.7214 22.5392 36.2961 22.2867 36.718 21.8526C37.14 21.4186 37.3761 20.837 37.3761 20.2316C37.3761 19.6262 37.14 19.0447 36.718 18.6106C36.2961 18.1765 35.7214 17.9241 35.1163 17.907Z" fill="white"/>
</g>
<defs>
<filter id="filter0_dd" x="0.65" y="0.65" width="58.7" height="58.7" filterUnits="userSpaceOnUse" color-interpolation-filters="sRGB">
<feFlood flood-opacity="0" result="BackgroundImageFix"/>
<feColorMatrix in="SourceAlpha" type="matrix" values="0 0 0 0 0 0 0 0 0 0 0 0 0 0 0 0 0 0 127 0"/>
<feOffset dx="-2" dy="-2"/>
<feGaussianBlur stdDeviation="3.675"/>
<feColorMatrix type="matrix" values="0 0 0 0 0.74902 0 0 0 0 0.937255 0 0 0 0 0 0 0 0 1 0"/>
<feBlend mode="normal" in2="BackgroundImageFix" result="effect1_dropShadow"/>
<feColorMatrix in="SourceAlpha" type="matrix" values="0 0 0 0 0 0 0 0 0 0 0 0 0 0 0 0 0 0 127 0"/>
<feOffset dx="2" dy="2"/>
<feGaussianBlur stdDeviation="3.675"/>
<feColorMatrix type="matrix" values="0 0 0 0 0.364706 0 0 0 0 0.968627 0 0 0 0 0.643137 0 0 0 1 0"/>
<feBlend mode="normal" in2="effect1_dropShadow" result="effect2_dropShadow"/>
<feBlend mode="normal" in="SourceGraphic" in2="effect2_dropShadow" result="shape"/>
</filter>
</defs>
</svg>
