<svg width="20" height="20" viewBox="0 0 20 20" fill="none" xmlns="http://www.w3.org/2000/svg">
<path d="M16.7812 8.21875L16.1797 7.58984C15.9062 7.34375 15.4961 7.34375 15.25 7.58984L15.0859 7.75391L11.9961 4.66406L12.1602 4.5C12.4062 4.25391 12.4062 3.84375 12.1602 3.57031L11.5312 2.96875C11.2852 2.69531 10.875 2.69531 10.6016 2.96875L7.21094 6.35938C6.9375 6.60547 6.9375 7.04297 7.21094 7.28906L7.8125 7.91797C8.08594 8.16406 8.49609 8.16406 8.74219 7.91797L8.90625 7.75391L10 8.82031L7.78516 11.0625L7.62109 10.8984C7.26562 10.543 6.71875 10.543 6.39062 10.8984L3.24609 14.043C2.89062 14.3711 2.89062 14.918 3.24609 15.2734L4.47656 16.5039C4.83203 16.8594 5.37891 16.8594 5.70703 16.5039L8.85156 13.3594C9.20703 13.0312 9.20703 12.4844 8.85156 12.1289L8.6875 11.9648L10.9297 9.75L11.9961 10.8438L11.832 11.0078C11.5859 11.2539 11.5859 11.6641 11.832 11.9375L12.4609 12.5391C12.707 12.8125 13.1445 12.8125 13.3906 12.5391L16.7812 9.14844C17.0547 8.875 17.0547 8.46484 16.7812 8.21875Z" fill="black"/>
</svg>
