<svg width="63" height="60" viewBox="0 0 63 60" fill="none" xmlns="http://www.w3.org/2000/svg">
<g filter="url(#filter0_dd)">
<path d="M53 28.7526C53 39.1094 43.3734 47.5051 31.5 47.5051C29.3706 47.508 27.25 47.2324 25.1924 46.6854C23.6229 47.4784 20.019 49 13.956 49.9912C13.4185 50.0769 13.01 49.5197 13.2223 49.0214C14.1737 46.7818 15.0337 43.7975 15.2917 41.0757C11.9995 37.7806 10 33.4675 10 28.7526C10 18.3958 19.6266 10 31.5 10C43.3734 10 53 18.3958 53 28.7526ZM23.4375 28.7526C23.4375 28.0421 23.1544 27.3607 22.6503 26.8583C22.1463 26.3559 21.4628 26.0736 20.75 26.0736C20.0372 26.0736 19.3537 26.3559 18.8497 26.8583C18.3456 27.3607 18.0625 28.0421 18.0625 28.7526C18.0625 29.4631 18.3456 30.1445 18.8497 30.6469C19.3537 31.1493 20.0372 31.4315 20.75 31.4315C21.4628 31.4315 22.1463 31.1493 22.6503 30.6469C23.1544 30.1445 23.4375 29.4631 23.4375 28.7526ZM34.1875 28.7526C34.1875 28.0421 33.9044 27.3607 33.4003 26.8583C32.8963 26.3559 32.2128 26.0736 31.5 26.0736C30.7872 26.0736 30.1037 26.3559 29.5997 26.8583C29.0956 27.3607 28.8125 28.0421 28.8125 28.7526C28.8125 29.4631 29.0956 30.1445 29.5997 30.6469C30.1037 31.1493 30.7872 31.4315 31.5 31.4315C32.2128 31.4315 32.8963 31.1493 33.4003 30.6469C33.9044 30.1445 34.1875 29.4631 34.1875 28.7526ZM42.25 31.4315C42.9628 31.4315 43.6463 31.1493 44.1503 30.6469C44.6544 30.1445 44.9375 29.4631 44.9375 28.7526C44.9375 28.0421 44.6544 27.3607 44.1503 26.8583C43.6463 26.3559 42.9628 26.0736 42.25 26.0736C41.5372 26.0736 40.8537 26.3559 40.3497 26.8583C39.8456 27.3607 39.5625 28.0421 39.5625 28.7526C39.5625 29.4631 39.8456 30.1445 40.3497 30.6469C40.8537 31.1493 41.5372 31.4315 42.25 31.4315Z" fill="black"/>
</g>
<defs>
<filter id="filter0_dd" x="0.65" y="0.65" width="61.7" height="58.7" filterUnits="userSpaceOnUse" color-interpolation-filters="sRGB">
<feFlood flood-opacity="0" result="BackgroundImageFix"/>
<feColorMatrix in="SourceAlpha" type="matrix" values="0 0 0 0 0 0 0 0 0 0 0 0 0 0 0 0 0 0 127 0"/>
<feOffset dx="-2" dy="-2"/>
<feGaussianBlur stdDeviation="3.675"/>
<feColorMatrix type="matrix" values="0 0 0 0 0.74902 0 0 0 0 0.937255 0 0 0 0 0 0 0 0 1 0"/>
<feBlend mode="normal" in2="BackgroundImageFix" result="effect1_dropShadow"/>
<feColorMatrix in="SourceAlpha" type="matrix" values="0 0 0 0 0 0 0 0 0 0 0 0 0 0 0 0 0 0 127 0"/>
<feOffset dx="2" dy="2"/>
<feGaussianBlur stdDeviation="3.675"/>
<feColorMatrix type="matrix" values="0 0 0 0 0.364706 0 0 0 0 0.968627 0 0 0 0 0.643137 0 0 0 1 0"/>
<feBlend mode="normal" in2="effect1_dropShadow" result="effect2_dropShadow"/>
<feBlend mode="normal" in="SourceGraphic" in2="effect2_dropShadow" result="shape"/>
</filter>
</defs>
</svg>
