<svg width="20" height="20" viewBox="0 0 20 20" fill="none" xmlns="http://www.w3.org/2000/svg">
<path d="M16.3164 10.6523C15.168 10.6523 14.6758 11.5273 14.0742 11.5273C12.4336 11.5273 13.9375 6.6875 13.9375 6.6875C13.9375 6.6875 8.55078 8.875 8.55078 6.60547C8.55078 5.62109 9.5625 5.34766 9.5625 4.25391C9.5625 3.29688 8.76953 2.75 7.86719 2.75C6.91016 2.75 6.0625 3.26953 6.0625 4.30859C6.0625 5.42969 6.91016 5.92188 6.91016 6.55078C6.91016 8.4375 2.125 7.31641 2.125 7.31641V16.4219C2.125 16.4219 6.99219 17.5703 6.99219 15.6562C6.99219 15.0273 5.89844 14.5625 5.89844 13.4141C5.89844 12.4023 6.69141 11.8828 7.64844 11.8828C8.55078 11.8828 9.34375 12.4023 9.34375 13.3867C9.34375 14.4531 8.33203 14.7539 8.33203 15.7383C8.33203 17.4062 11.8867 16.4219 13.2812 16.4219C13.2812 16.4219 12.3516 13.1406 13.9922 13.1406C14.9766 13.1406 15.2773 14.125 16.3711 14.125C17.3281 14.125 17.875 13.3594 17.875 12.457C17.875 11.5273 17.3555 10.6523 16.3164 10.6523Z" fill="black"/>
</svg>
