<svg width="20" height="20" viewBox="0 0 20 20" fill="none" xmlns="http://www.w3.org/2000/svg">
<path fill-rule="evenodd" clip-rule="evenodd" d="M16.4999 2C16.4999 3.37974 17.6176 4.49842 18.997 4.5L18.9999 4.5V5.5C17.6192 5.5 16.4999 6.61929 16.4999 8H15.4999C15.4999 7.02066 15.9022 6.13526 16.5504 5.5L14.0213 5.5C13.0886 5.5 12.2335 6.01916 11.8032 6.84663L8.28389 13.6147C7.6815 14.7732 6.48435 15.5 5.17863 15.5H1V14.5H5.17863C6.11128 14.5 6.96639 13.9808 7.39667 13.1534L10.916 6.38528C11.5184 5.22682 12.7156 4.5 14.0213 4.5L16.5504 4.5C15.9022 3.86474 15.4999 2.97934 15.4999 2H16.4999Z" fill="black"/>
<path fill-rule="evenodd" clip-rule="evenodd" d="M16.5 18C16.5 16.62 17.6181 15.5012 18.9978 15.5L19 15.5V14.5C17.6193 14.5 16.5 13.3807 16.5 12H15.5C15.5 12.9793 15.9022 13.8647 16.5505 14.5L14.6986 14.5C13.8204 14.5 13.0067 14.0393 12.5548 13.2862L8.30266 6.19926C7.67012 5.14505 6.53085 4.5 5.30143 4.5L1 4.5V5.5L5.30143 5.5C6.17959 5.5 6.99335 5.96075 7.44516 6.71376L11.6974 13.8007C12.3299 14.855 13.4692 15.5 14.6986 15.5L16.5505 15.5C15.9022 16.1353 15.5 17.0207 15.5 18H16.5Z" fill="black"/>
</svg>
