<svg width="30" height="30" viewBox="0 0 30 30" fill="none" xmlns="http://www.w3.org/2000/svg">
<rect opacity="0.1" width="30" height="30" rx="15" fill="#6532BA"/>
<path fill-rule="evenodd" clip-rule="evenodd" d="M19.3931 13.6183L20.8179 13.9679C20.9748 14.0036 21.089 14.1463 21.089 14.3104V15.7375C21.089 15.9017 20.9748 16.0444 20.8179 16.0801L19.3931 16.4297C19.3146 16.6794 19.2147 16.9221 19.0934 17.1575L19.8213 18.3706C19.9069 18.5133 19.8855 18.6917 19.7713 18.8059L18.758 19.8191C18.6439 19.9333 18.4655 19.9547 18.3228 19.8691L17.1097 19.1412C16.8742 19.2625 16.6316 19.3624 16.3819 19.4409L16.0394 20.8181C15.9966 20.9751 15.8538 21.0893 15.6897 21.0893H14.2626C14.0985 21.0893 13.9558 20.9751 13.913 20.8181L13.5705 19.4409C13.3207 19.3624 13.0781 19.2625 12.8426 19.1412L11.6296 19.8691C11.4868 19.9547 11.3085 19.9333 11.1943 19.8191L10.181 18.8059C10.0669 18.6917 10.0455 18.5133 10.1311 18.3706L10.8589 17.1575C10.7376 16.9221 10.6377 16.6794 10.5592 16.4297L9.18204 16.0801C9.02506 16.0444 8.91089 15.9017 8.91089 15.7375V14.3104C8.91089 14.1463 9.02506 14.0036 9.18204 13.9679L10.5592 13.6183C10.6377 13.3685 10.7376 13.1259 10.8589 12.8904L10.1311 11.6774C10.0455 11.5347 10.0669 11.3563 10.181 11.2421L11.1943 10.2288C11.3085 10.1147 11.4868 10.0933 11.6296 10.1789L12.8426 10.9067C13.0781 10.7854 13.3207 10.6855 13.5705 10.607L13.913 9.18229C13.9558 9.0253 14.0985 8.91113 14.2626 8.91113H15.6897C15.8538 8.91113 15.9966 9.0253 16.0394 9.18229L16.3819 10.607C16.6316 10.6855 16.8742 10.7854 17.1097 10.9067L18.3228 10.1789C18.4655 10.0933 18.6439 10.1147 18.758 10.2288L19.7713 11.2421C19.8855 11.3563 19.9069 11.5347 19.8213 11.6774L19.0934 12.8904C19.2147 13.1259 19.3146 13.3685 19.3931 13.6183ZM15 17.2682C16.2526 17.2682 17.268 16.2528 17.268 15.0002C17.268 13.7477 16.2526 12.7323 15 12.7323C13.7474 12.7323 12.732 13.7477 12.732 15.0002C12.732 16.2528 13.7474 17.2682 15 17.2682Z" fill="#6532BA"/>
</svg>
