<svg width="20" height="20" viewBox="0 0 20 20" fill="none" xmlns="http://www.w3.org/2000/svg">
<path d="M9.99997 7.54059L10.0494 8.03815L10.5 7.99342V7.54059H9.99997ZM9.99997 12.4999H10.5V12.0464L10.0486 12.0023L9.99997 12.4999ZM10.6769 16.125L10.3646 15.7346L10.6769 16.125ZM2.5037 15.5812L3.00348 15.5961L2.5037 15.5812ZM2.6532 15.6337L2.26133 15.3232L2.6532 15.6337ZM17.9266 10.3253L18.2389 10.7157L17.9266 10.3253ZM17.9266 9.67454L18.2389 9.28411L17.9266 9.67454ZM10.6769 3.8748L10.3646 4.26524L10.6769 3.8748ZM9.49997 4.20016V7.54059H10.5V4.20016H9.49997ZM9.95058 7.04304C5.57312 7.47755 2.13638 11.1068 2.00392 15.5664L3.00348 15.5961C3.12091 11.6424 6.16873 8.42334 10.0494 8.03815L9.95058 7.04304ZM3.04507 15.9443C4.66036 13.906 7.24733 12.7331 9.9513 12.9975L10.0486 12.0023C6.99463 11.7036 4.08016 13.0281 2.26133 15.3232L3.04507 15.9443ZM9.49997 12.4999V15.7996H10.5V12.4999H9.49997ZM10.9893 16.5154L18.2389 10.7157L17.6142 9.93483L10.3646 15.7346L10.9893 16.5154ZM18.2389 9.28411L10.9893 3.48437L10.3646 4.26524L17.6142 10.065L18.2389 9.28411ZM9.49997 15.7996C9.49997 16.5683 10.3891 16.9956 10.9893 16.5154L10.3646 15.7346C10.3739 15.7271 10.3905 15.7193 10.4102 15.7175C10.4278 15.7159 10.4421 15.7194 10.4527 15.7245C10.4634 15.7296 10.4751 15.7386 10.4848 15.7533C10.4957 15.7699 10.5 15.7877 10.5 15.7996H9.49997ZM2.00392 15.5664C1.98635 16.1579 2.71519 16.3605 3.04507 15.9443L2.26133 15.3232C2.49154 15.0327 3.01629 15.165 3.00348 15.5961L2.00392 15.5664ZM18.2389 10.7157C18.6977 10.3487 18.6977 9.65107 18.2389 9.28411L17.6142 10.065C17.5725 10.0316 17.5725 9.96819 17.6142 9.93483L18.2389 10.7157ZM10.5 4.20016C10.5 4.21211 10.4957 4.22993 10.4848 4.24646C10.4751 4.26118 10.4634 4.27016 10.4527 4.27527C10.4421 4.28039 10.4278 4.28394 10.4102 4.28232C10.3905 4.28051 10.3739 4.2727 10.3646 4.26524L10.9893 3.48437C10.3891 3.00421 9.49997 3.43153 9.49997 4.20016H10.5Z" fill="#272727"/>
</svg>
