<svg width="20" height="20" viewBox="0 0 20 20" fill="none" xmlns="http://www.w3.org/2000/svg">
<g clip-path="url(#clip0)">
<path fill-rule="evenodd" clip-rule="evenodd" d="M11.0605 0.454099C13.2077 2.60121 16.6883 2.60198 18.8364 0.456413L18.8387 0.454099L19.5458 1.16121C17.3979 3.30909 17.3979 6.7915 19.5458 8.93938L18.8387 9.64649C17.2012 8.00899 16.6201 5.71518 17.0952 3.61181L11.0605 9.64649L10.3534 8.93938L16.3881 2.90471C14.2847 3.37987 11.9909 2.7987 10.3534 1.16121L11.0605 0.454099Z" fill="black"/>
<path fill-rule="evenodd" clip-rule="evenodd" d="M8.93945 19.5459C6.79234 17.3988 3.31166 17.398 1.16359 19.5436L1.16128 19.5459L0.454169 18.8388C2.60205 16.6909 2.60205 13.2085 0.45417 11.0606L1.16128 10.3535C2.79877 11.991 3.37994 14.2848 2.90478 16.3882L8.93945 10.3535L9.64656 11.0606L3.61189 17.0953C5.71525 16.6201 8.00906 17.2013 9.64656 18.8388L8.93945 19.5459Z" fill="black"/>
</g>
<defs>
<clipPath id="clip0">
<path d="M0 0H20V20H0V0Z" fill="white"/>
</clipPath>
</defs>
</svg>
