<svg width="20" height="20" viewBox="0 0 20 20" fill="none" xmlns="http://www.w3.org/2000/svg">
<g clip-path="url(#clip0)">
<path fill-rule="evenodd" clip-rule="evenodd" d="M0.854188 10.0823C3.00185 12.23 6.48376 12.2302 8.63169 10.083L8.63236 10.0823L8.98591 10.4359L9.34014 10.7888L9.33947 10.7894C9.33445 10.7945 9.32945 10.7995 9.32446 10.8045C7.1916 12.9536 7.1966 16.4247 9.33947 18.5676L8.63236 19.2747C6.99798 17.6403 6.41591 15.3521 6.88616 13.2521L1.61218 18.546L0.903736 17.8403L6.19371 12.5302C4.08708 13.0103 1.78768 12.43 0.147081 10.7894L0.854188 10.0823Z" fill="black"/>
<path fill-rule="evenodd" clip-rule="evenodd" d="M18.5673 9.33967C16.4247 7.19705 12.9541 7.1918 10.805 9.32389L10.7891 9.33967L10.7885 9.34034L10.4359 8.98647L10.082 8.63256C12.2299 6.48468 12.2299 3.00227 10.082 0.854384L10.7891 0.147277C12.4298 1.7879 13.01 4.08735 12.5299 6.19401L17.8402 0.903928L18.546 1.61238L13.2519 6.88633C15.3519 6.41613 17.6401 6.9982 19.2744 8.63256L18.5673 9.33967Z" fill="black"/>
</g>
<defs>
<clipPath id="clip0">
<path d="M0 0H20V20H0V0Z" fill="white"/>
</clipPath>
</defs>
</svg>
