<svg width="20" height="20" viewBox="0 0 20 20" fill="none" xmlns="http://www.w3.org/2000/svg">
<path d="M10 2.96875C6.25391 2.96875 3.21875 6.03125 3.21875 9.75C3.21875 13.4961 6.25391 16.5312 10 16.5312C13.7188 16.5312 16.7812 13.4961 16.7812 9.75C16.7812 6.03125 13.7188 2.96875 10 2.96875ZM10 5.97656C10.6289 5.97656 11.1484 6.49609 11.1484 7.125C11.1484 7.78125 10.6289 8.27344 10 8.27344C9.34375 8.27344 8.85156 7.78125 8.85156 7.125C8.85156 6.49609 9.34375 5.97656 10 5.97656ZM11.5312 12.9219C11.5312 13.1133 11.3672 13.25 11.2031 13.25H8.79688C8.60547 13.25 8.46875 13.1133 8.46875 12.9219V12.2656C8.46875 12.1016 8.60547 11.9375 8.79688 11.9375H9.125V10.1875H8.79688C8.60547 10.1875 8.46875 10.0508 8.46875 9.85938V9.20312C8.46875 9.03906 8.60547 8.875 8.79688 8.875H10.5469C10.7109 8.875 10.875 9.03906 10.875 9.20312V11.9375H11.2031C11.3672 11.9375 11.5312 12.1016 11.5312 12.2656V12.9219Z" fill="black"/>
</svg>
