<svg width="20" height="20" viewBox="0 0 20 20" fill="none" xmlns="http://www.w3.org/2000/svg">
<path d="M3.875 8.875C4.83203 8.875 5.625 8.10938 5.625 7.125C5.625 6.16797 4.83203 5.375 3.875 5.375C2.89062 5.375 2.125 6.16797 2.125 7.125C2.125 8.10938 2.89062 8.875 3.875 8.875ZM16.125 8.875C17.082 8.875 17.875 8.10938 17.875 7.125C17.875 6.16797 17.082 5.375 16.125 5.375C15.1406 5.375 14.375 6.16797 14.375 7.125C14.375 8.10938 15.1406 8.875 16.125 8.875ZM17 9.75H15.25C14.7578 9.75 14.3203 9.96875 13.9922 10.2695C15.1133 10.8711 15.8789 11.9648 16.0703 13.25H17.875C18.3398 13.25 18.75 12.8672 18.75 12.375V11.5C18.75 10.543 17.957 9.75 17 9.75ZM10 9.75C11.668 9.75 13.0625 8.38281 13.0625 6.6875C13.0625 5.01953 11.668 3.625 10 3.625C8.30469 3.625 6.9375 5.01953 6.9375 6.6875C6.9375 8.38281 8.30469 9.75 10 9.75ZM12.0781 10.625H11.8594C11.2852 10.8984 10.6562 11.0625 10 11.0625C9.31641 11.0625 8.6875 10.8984 8.11328 10.625H7.89453C6.14453 10.625 4.75 12.0469 4.75 13.7969V14.5625C4.75 15.3008 5.32422 15.875 6.0625 15.875H13.9375C14.6484 15.875 15.25 15.3008 15.25 14.5625V13.7969C15.25 12.0469 13.8281 10.625 12.0781 10.625ZM5.98047 10.2695C5.65234 9.96875 5.21484 9.75 4.75 9.75H3C2.01562 9.75 1.25 10.543 1.25 11.5V12.375C1.25 12.8672 1.63281 13.25 2.125 13.25H3.90234C4.09375 11.9648 4.85938 10.8711 5.98047 10.2695Z" fill="black"/>
</svg>
