<svg width="30" height="30" viewBox="0 0 30 30" fill="none" xmlns="http://www.w3.org/2000/svg">
<rect opacity="0.1" width="30" height="30" rx="15" fill="#6FDD6C"/>
<path d="M20.0223 16.0669L21.0058 11.7142C21.0477 11.5608 21.0198 11.4212 20.9221 11.2957C20.8245 11.1701 20.6919 11.1074 20.5245 11.1074H12.3005L12.1121 10.1657C12.0842 10.0541 12.0214 9.96338 11.9238 9.89362C11.8401 9.80992 11.7424 9.76807 11.6308 9.76807H9.47541C9.3359 9.76807 9.21732 9.81689 9.11966 9.91455C9.02201 10.0122 8.97318 10.1308 8.97318 10.2703V10.6051C8.97318 10.7446 9.02201 10.8632 9.11966 10.9609C9.21732 11.0585 9.3359 11.1074 9.47541 11.1074H10.9403L12.4051 18.2851C12.2237 18.3967 12.0773 18.5432 11.9656 18.7245C11.868 18.9059 11.8192 19.1012 11.8192 19.3105C11.8192 19.6313 11.9308 19.9034 12.154 20.1266C12.3911 20.3638 12.6702 20.4824 12.991 20.4824C13.3119 20.4824 13.5839 20.3638 13.8072 20.1266C14.0443 19.9034 14.1629 19.6244 14.1629 19.2896C14.1629 18.9687 14.0443 18.6966 13.8072 18.4734H18.2017C17.9645 18.6966 17.8459 18.9687 17.8459 19.2896C17.8459 19.6244 17.9576 19.9034 18.1808 20.1266C18.4179 20.3638 18.697 20.4824 19.0178 20.4824C19.3387 20.4824 19.6107 20.3638 19.8339 20.1266C20.0711 19.9034 20.1897 19.6313 20.1897 19.3105C20.1897 19.0873 20.1269 18.885 20.0014 18.7036C19.8898 18.5083 19.7293 18.3618 19.5201 18.2642L19.6456 17.741C19.6735 17.5875 19.6386 17.448 19.541 17.3225C19.4433 17.1969 19.3178 17.1341 19.1643 17.1341H13.5351L13.4096 16.4645H19.541C19.6526 16.4645 19.7502 16.4296 19.8339 16.3599C19.9316 16.2901 19.9944 16.1925 20.0223 16.0669Z" fill="#6FDD6C"/>
</svg>
