<svg width="20" height="20" viewBox="0 0 20 20" fill="none" xmlns="http://www.w3.org/2000/svg">
<path d="M12.625 9.75H7.375V11.5H12.625V9.75ZM15.0586 5.62109L12.3789 2.94141C12.2422 2.83203 12.0781 2.75 11.9141 2.75H11.75V6.25H15.25V6.08594C15.25 5.92188 15.168 5.75781 15.0586 5.62109ZM10.875 6.46875V2.75H5.40625C5.02344 2.75 4.75 3.05078 4.75 3.40625V16.0938C4.75 16.4766 5.02344 16.75 5.40625 16.75H14.5938C14.9492 16.75 15.25 16.4766 15.25 16.0938V7.125H11.5312C11.1484 7.125 10.875 6.85156 10.875 6.46875ZM6.5 4.71875C6.5 4.60938 6.58203 4.5 6.71875 4.5H8.90625C9.01562 4.5 9.125 4.60938 9.125 4.71875V5.15625C9.125 5.29297 9.01562 5.375 8.90625 5.375H6.71875C6.58203 5.375 6.5 5.29297 6.5 5.15625V4.71875ZM6.5 6.46875C6.5 6.35938 6.58203 6.25 6.71875 6.25H8.90625C9.01562 6.25 9.125 6.35938 9.125 6.46875V6.90625C9.125 7.04297 9.01562 7.125 8.90625 7.125H6.71875C6.58203 7.125 6.5 7.04297 6.5 6.90625V6.46875ZM13.5 14.7812C13.5 14.918 13.3906 15 13.2812 15H11.0938C10.957 15 10.875 14.918 10.875 14.7812V14.3438C10.875 14.2344 10.957 14.125 11.0938 14.125H13.2812C13.3906 14.125 13.5 14.2344 13.5 14.3438V14.7812ZM13.5 9.3125V11.9375C13.5 12.1836 13.2812 12.375 13.0625 12.375H6.9375C6.69141 12.375 6.5 12.1836 6.5 11.9375V9.3125C6.5 9.09375 6.69141 8.875 6.9375 8.875H13.0625C13.2812 8.875 13.5 9.09375 13.5 9.3125Z" fill="black"/>
</svg>
