<svg width="20" height="20" viewBox="0 0 20 20" fill="none" xmlns="http://www.w3.org/2000/svg">
<path d="M15.7012 11.9375C14.3613 11.9375 13.2949 13.0312 13.2949 14.3438C13.2949 15.6836 14.3613 16.75 15.7012 16.75C17.0137 16.75 18.1074 15.6836 18.1074 14.3438C18.1074 13.0312 17.0137 11.9375 15.7012 11.9375ZM15.7012 15C15.3184 15 15.0449 14.7266 15.0449 14.3438C15.0449 13.9883 15.3184 13.6875 15.7012 13.6875C16.0566 13.6875 16.3574 13.9883 16.3574 14.3438C16.3574 14.7266 16.0566 15 15.7012 15ZM17.8887 7.125H16.1387V6.03125C16.1387 5.64844 16.248 5.29297 16.4941 4.96484C16.6035 4.82812 16.5762 4.58203 16.4395 4.44531L15.8652 3.78906C15.6738 3.57031 15.3457 3.59766 15.1816 3.81641C14.6621 4.41797 14.3887 5.21094 14.3887 6.03125V7.125H11.5723L10.041 3.57031C9.84961 3.13281 9.30273 2.75 8.83789 2.75H5.20117C4.46289 2.75 3.88867 3.35156 3.88867 4.0625V8.08203C3.64258 7.89062 3.31445 7.91797 3.0957 8.10938L2.24805 8.98438C2.00195 9.20312 2.00195 9.58594 2.24805 9.83203L2.38477 9.96875C2.24805 10.2148 2.13867 10.4883 2.05664 10.7344H1.86523C1.50977 10.7344 1.26367 11.0078 1.26367 11.3359V12.5391C1.26367 12.8945 1.50977 13.1406 1.86523 13.1406H2.05664C2.13867 13.4141 2.24805 13.6875 2.38477 13.9336L2.2207 14.0703C2.00195 14.3164 2.00195 14.6992 2.2207 14.918L3.0957 15.7656C3.31445 16.0117 3.69727 16.0117 3.94336 15.7656L4.08008 15.6289C4.32617 15.7656 4.59961 15.875 4.8457 15.957V16.1484C4.8457 16.5039 5.11914 16.75 5.44727 16.75H6.65039C7.00586 16.75 7.25195 16.5039 7.25195 16.1484V15.957C7.52539 15.875 7.79883 15.7656 8.04492 15.6289L8.18164 15.793C8.42773 16.0117 8.81055 16.0117 9.0293 15.793L9.87695 14.918C10.123 14.6992 10.123 14.3164 9.87695 14.0703L9.74023 13.9336C9.87695 13.6875 9.98633 13.4141 10.0684 13.168H10.2871C10.6152 13.168 10.8887 12.8945 10.8887 12.5664V12.4023H13.0762C13.6777 11.6094 14.6074 11.0898 15.7012 11.0898C16.1934 11.0898 16.6855 11.1992 17.0957 11.418L18.4902 10.0234C18.6543 9.85938 18.7363 9.64062 18.7363 9.39453V8C18.7637 7.53516 18.3535 7.125 17.8887 7.125ZM6.07617 14.125C4.8457 14.125 3.88867 13.168 3.88867 11.9375C3.88867 10.7344 4.8457 9.75 6.07617 9.75C7.2793 9.75 8.26367 10.7344 8.26367 11.9375C8.26367 13.168 7.2793 14.125 6.07617 14.125ZM6.67773 7.125H5.63867V4.5H8.53711L9.68555 7.125H6.67773Z" fill="black"/>
</svg>
