<svg width="20" height="20" viewBox="0 0 20 20" fill="none" xmlns="http://www.w3.org/2000/svg">
<path d="M14.5954 7.00654C14.0788 6.98305 13.6561 7.4292 13.6561 7.9458V9.9887H13.4682V5.85594C13.4682 5.33934 13.0221 4.89319 12.5055 4.91667C11.9889 4.91667 11.5897 5.33934 11.5897 5.83245V9.9887H11.4019V4.94015C11.4019 4.42356 10.9557 3.97741 10.4391 4.00089C9.92252 4.00089 9.52333 4.42356 9.52333 4.91667V9.9887H9.33548V5.87942C9.33548 5.36282 8.88932 4.91667 8.37273 4.94015C7.85613 4.94015 7.45695 5.36282 7.45695 5.85594V11.3976L6.70553 10.3879C6.40027 9.96522 5.81323 9.87129 5.39056 10.1766C4.96789 10.4818 4.87397 11.0689 5.17923 11.4915L8.13791 15.5538C8.32577 15.8121 8.72495 16 9.0537 16H13.6796C14.1962 16 14.6658 15.6478 14.7832 15.1312L15.3937 12.5012C15.4642 12.2195 15.5111 11.7498 15.5111 11.468V7.92232C15.5346 7.4292 15.112 7.00654 14.5954 7.00654Z" fill="#38D3E9"/>
</svg>
