<svg width="20" height="20" viewBox="0 0 20 20" fill="none" xmlns="http://www.w3.org/2000/svg">
<rect width="20" height="20" rx="10" fill="#38D3E9"/>
<path d="M12.5494 7.68223C12.2057 7.66661 11.9244 7.96348 11.9244 8.30723V9.66661H11.7994V6.91661C11.7994 6.57286 11.5026 6.27598 11.1588 6.29161C10.8151 6.29161 10.5494 6.57286 10.5494 6.90098V9.66661H10.4244V6.30723C10.4244 5.96348 10.1276 5.66661 9.78381 5.68223C9.44006 5.68223 9.17444 5.96348 9.17444 6.29161V9.66661H9.04944V6.93223C9.04944 6.58848 8.75256 6.29161 8.40881 6.30723C8.06506 6.30723 7.79944 6.58848 7.79944 6.91661V10.6041L7.29944 9.93223C7.09631 9.65098 6.70569 9.58848 6.42444 9.79161C6.14319 9.99473 6.08069 10.3854 6.28381 10.6666L8.25256 13.3697C8.37756 13.5416 8.64319 13.6666 8.86194 13.6666H11.9401C12.2838 13.6666 12.5963 13.4322 12.6744 13.0885L13.0807 11.3385C13.1276 11.151 13.1588 10.8385 13.1588 10.651V8.29161C13.1744 7.96348 12.8932 7.68223 12.5494 7.68223Z" fill="white"/>
</svg>
