<svg width="20" height="20" viewBox="0 0 20 20" fill="none" xmlns="http://www.w3.org/2000/svg">
<path d="M14.4744 11.0256C14.3369 9.23592 13.5036 8.11442 12.7685 7.12474C12.0879 6.20853 11.5 5.41732 11.5 4.25018C11.5 4.15643 11.4475 4.07075 11.3642 4.02779C11.2807 3.98457 11.1804 3.99164 11.1045 4.04682C10.0005 4.8368 9.07935 6.16826 8.75758 7.43867C8.53419 8.32313 8.50464 9.31744 8.50049 9.97413C7.48096 9.75638 7.25001 8.23135 7.24757 8.21473C7.23608 8.13563 7.18776 8.06679 7.11744 8.0292C7.04641 7.9921 6.9629 7.9894 6.89087 8.02505C6.83741 8.05092 5.57861 8.69053 5.50537 11.2443C5.50023 11.3293 5.5 11.4145 5.5 11.4997C5.5 13.9807 7.51879 15.9994 10 15.9994C10.0034 15.9996 10.0071 16.0001 10.01 15.9994C10.011 15.9994 10.012 15.9994 10.0132 15.9994C12.4883 15.9923 14.5 13.9763 14.5 11.4997C14.5 11.3749 14.4744 11.0256 14.4744 11.0256ZM10 15.4994C9.17284 15.4994 8.5 14.7827 8.5 13.9016C8.5 13.8716 8.49976 13.8413 8.50194 13.8042C8.51195 13.4327 8.58252 13.179 8.65991 13.0103C8.80494 13.3218 9.06421 13.6082 9.48536 13.6082C9.62354 13.6082 9.73536 13.4964 9.73536 13.3582C9.73536 13.0023 9.7427 12.5917 9.83132 12.2211C9.91018 11.8925 10.0986 11.5429 10.3374 11.2626C10.4436 11.6264 10.6507 11.9208 10.8528 12.2081C11.1421 12.6192 11.4412 13.0443 11.4937 13.7691C11.4969 13.812 11.5 13.8552 11.5 13.9016C11.5 14.7826 10.8272 15.4994 10 15.4994Z" fill="#E04300"/>
</svg>
