<svg width="20" height="20" viewBox="0 0 20 20" fill="none" xmlns="http://www.w3.org/2000/svg">
<rect width="20" height="20" rx="10" fill="#E04300"/>
<path d="M13.4801 10.7978C13.3731 9.40583 12.7251 8.53354 12.1533 7.7638C11.6239 7.05118 11.1667 6.4358 11.1667 5.52803C11.1667 5.45511 11.1258 5.38847 11.0611 5.35505C10.9961 5.32144 10.9181 5.32694 10.859 5.36985C10.0004 5.98429 9.28394 7.01987 9.03367 8.00796C8.85993 8.69587 8.83694 9.46923 8.83371 9.97999C8.04075 9.81062 7.86112 8.62449 7.85922 8.61156C7.85029 8.55004 7.8127 8.4965 7.75801 8.46726C7.70276 8.43841 7.63781 8.43631 7.58179 8.46404C7.54021 8.48416 6.56114 8.98163 6.50417 10.9679C6.50018 11.034 6.5 11.1003 6.5 11.1665C6.5 13.0962 8.07017 14.6663 10 14.6663C10.0027 14.6665 10.0055 14.6669 10.0078 14.6663C10.0085 14.6663 10.0093 14.6663 10.0102 14.6663C11.9353 14.6608 13.5 13.0928 13.5 11.1665C13.5 11.0695 13.4801 10.7978 13.4801 10.7978ZM10 14.2774C9.35665 14.2774 8.83333 13.72 8.83333 13.0347C8.83333 13.0114 8.83315 12.9878 8.83485 12.9589C8.84263 12.67 8.89752 12.4727 8.95771 12.3415C9.07051 12.5838 9.27216 12.8065 9.59972 12.8065C9.7072 12.8065 9.79417 12.7195 9.79417 12.612C9.79417 12.3352 9.79988 12.0158 9.8688 11.7276C9.93014 11.472 10.0767 11.2001 10.2624 10.9822C10.345 11.2651 10.5061 11.4941 10.6633 11.7175C10.8883 12.0373 11.1209 12.3679 11.1618 12.9316C11.1642 12.965 11.1667 12.9986 11.1667 13.0347C11.1667 13.7199 10.6433 14.2774 10 14.2774Z" fill="white"/>
</svg>
