<svg width="20" height="20" viewBox="0 0 20 20" fill="none" xmlns="http://www.w3.org/2000/svg">
<path d="M4 9.92642C4 10.1846 4.14083 10.5367 4.32861 10.7245L9.28117 15.677C9.72714 16.123 10.4548 16.123 10.8773 15.677L15.6655 10.8888C16.1115 10.4663 16.1115 9.73865 15.6655 9.29268L10.713 4.34012C10.5252 4.15234 10.1731 3.98804 9.91491 3.98804H5.12665C4.49291 3.98804 4 4.50442 4 5.11469V9.92642ZM6.62885 5.49024C7.23912 5.49024 7.7555 6.00662 7.7555 6.61689C7.7555 7.25063 7.23912 7.74354 6.62885 7.74354C5.99511 7.74354 5.5022 7.25063 5.5022 6.61689C5.5022 6.00662 5.99511 5.49024 6.62885 5.49024Z" fill="#FFB23E"/>
</svg>
