<svg width="20" height="20" viewBox="0 0 20 20" fill="none" xmlns="http://www.w3.org/2000/svg">
<rect width="20" height="20" rx="10" fill="#FFB23E"/>
<path d="M6.19775 9.85985C6.19775 10.0235 6.28704 10.2468 6.40609 10.3658L9.54597 13.5057C9.82871 13.7884 10.29 13.7884 10.5579 13.5057L13.5936 10.47C13.8763 10.2021 13.8763 9.7408 13.5936 9.45807L10.4537 6.31819C10.3347 6.19914 10.1114 6.09497 9.94775 6.09497H6.91204C6.51025 6.09497 6.19775 6.42235 6.19775 6.80926V9.85985ZM7.86442 7.04735C8.25133 7.04735 8.57871 7.37473 8.57871 7.76164C8.57871 8.16342 8.25133 8.47592 7.86442 8.47592C7.46263 8.47592 7.15013 8.16342 7.15013 7.76164C7.15013 7.37473 7.46263 7.04735 7.86442 7.04735Z" fill="white"/>
</svg>
