<svg width="20" height="20" viewBox="0 0 20 20" fill="none" xmlns="http://www.w3.org/2000/svg">
<rect width="20" height="20" fill="#E5E5E5"/>
<rect id="Rectangle 40274" x="-13506" y="-2687" width="17272" height="14363" fill="#DCDCDC" stroke="#BFBFBF" stroke-width="10"/>
<path id="Rectangle 40603" d="M-722 -2163H2661V1341H-722V-2163Z" fill="#C9C9C9" stroke="#BFBFBF" stroke-width="10"/>
<g id="Transaction filters">
<rect width="1440" height="225" transform="translate(-427 -102)" fill="white"/>
<g id="Frame 48096589">
<g id="tag/inactive">
<rect x="-8" y="-6" width="87" height="32" rx="16" fill="#F05ABD"/>
<g id="Icon / Offer (Small)">
<path id="&#239;&#141;&#155;" d="M4.1875 10.5C4.1875 13.7109 6.78906 16.3125 10 16.3125C13.2109 16.3125 15.8125 13.7109 15.8125 10.5C15.8125 7.28906 13.2109 4.6875 10 4.6875C6.78906 4.6875 4.1875 7.28906 4.1875 10.5ZM11.0312 13.2188C11.0312 13.3828 10.8906 13.5 10.75 13.5H9.25C9.08594 13.5 8.96875 13.3828 8.96875 13.2188V10.5H7.30469C7.04688 10.5 6.92969 10.2188 7.09375 10.0312L9.78906 7.35938C9.90625 7.24219 10.0703 7.24219 10.1875 7.35938L12.8828 10.0312C13.0703 10.1953 12.9297 10.5 12.6719 10.5H11.0312V13.2188Z" fill="white"/>
</g>
<rect x="-7.5" y="-5.5" width="86" height="31" rx="15.5" stroke="black" stroke-opacity="0.1"/>
</g>
</g>
</g>
</svg>
