<svg width="20" height="20" viewBox="0 0 20 20" fill="none" xmlns="http://www.w3.org/2000/svg">
<rect width="20" height="20" fill="#E5E5E5"/>
<rect x="-13298" y="-2687" width="17272" height="14363" fill="#DCDCDC" stroke="#BFBFBF" stroke-width="10"/>
<path d="M-514 -2163H2869V1341H-514V-2163Z" fill="#C9C9C9" stroke="#BFBFBF" stroke-width="10"/>
<rect width="1440" height="225" transform="translate(-219 -102)" fill="white"/>
<rect x="-8" y="-6" width="82" height="32" rx="16" fill="#6FDD6C"/>
<path d="M15.0019 10.9374L15.9812 6.60336C16.0229 6.45056 15.9951 6.31165 15.8979 6.18662C15.8007 6.0616 15.6687 5.99909 15.502 5.99909H7.31308L7.12554 5.06143C7.09776 4.9503 7.03525 4.86001 6.93801 4.79055C6.85466 4.7072 6.75742 4.66553 6.64629 4.66553H4.50009C4.36117 4.66553 4.2431 4.71415 4.14586 4.81139C4.04862 4.90863 4 5.0267 4 5.16561V5.49901C4 5.63792 4.04862 5.75599 4.14586 5.85323C4.2431 5.95047 4.36117 5.99909 4.50009 5.99909H5.95867L7.41726 13.1462C7.23667 13.2573 7.09081 13.4032 6.97968 13.5837C6.88244 13.7643 6.83383 13.9588 6.83383 14.1672C6.83383 14.4867 6.94496 14.7576 7.16722 14.9798C7.40337 15.216 7.68119 15.334 8.00069 15.334C8.32019 15.334 8.59107 15.216 8.81334 14.9798C9.04949 14.7576 9.16756 14.4797 9.16756 14.1463C9.16756 13.8268 9.04949 13.556 8.81334 13.3337H13.1891C12.9529 13.556 12.8349 13.8268 12.8349 14.1463C12.8349 14.4797 12.946 14.7576 13.1683 14.9798C13.4044 15.216 13.6822 15.334 14.0017 15.334C14.3212 15.334 14.5921 15.216 14.8144 14.9798C15.0505 14.7576 15.1686 14.4867 15.1686 14.1672C15.1686 13.9449 15.1061 13.7435 14.9811 13.5629C14.8699 13.3684 14.7102 13.2226 14.5018 13.1253L14.6268 12.6044C14.6546 12.4516 14.6199 12.3127 14.5227 12.1877C14.4254 12.0626 14.3004 12.0001 14.1476 12.0001H8.54246L8.41743 11.3334H14.5227C14.6338 11.3334 14.731 11.2986 14.8144 11.2292C14.9116 11.1597 14.9741 11.0625 15.0019 10.9374Z" fill="white"/>
<rect x="-7.5" y="-5.5" width="81" height="31" rx="15.5" stroke="black" stroke-opacity="0.1"/>
</svg>
