<svg width="20" height="20" viewBox="0 0 20 20" fill="none" xmlns="http://www.w3.org/2000/svg">
<rect width="20" height="20" rx="10" fill="#D146F3"/>
<path d="M6.19055 8.83328C6.19055 9.04161 6.33936 9.19042 6.54769 9.19042H11.9048V9.90471C11.9048 10.2321 12.2769 10.3809 12.5001 10.1577L13.6905 8.96721C13.8394 8.83328 13.8394 8.61007 13.6905 8.47614L12.5001 7.28566C12.2769 7.04757 11.9048 7.21126 11.9048 7.52376V8.23804H6.54769C6.33936 8.23804 6.19055 8.40173 6.19055 8.59519V8.83328ZM13.4525 11.0952H8.09531V10.3809C8.09531 10.0684 7.7084 9.90471 7.48519 10.1428L6.29471 11.3333C6.1459 11.4672 6.1459 11.6904 6.29471 11.8244L7.48519 13.0148C7.7084 13.238 8.09531 13.0892 8.09531 12.7619V12.0476H13.4525C13.6459 12.0476 13.8096 11.8988 13.8096 11.6904V11.4523C13.8096 11.2589 13.6459 11.0952 13.4525 11.0952Z" fill="white"/>
</svg>
