<svg width="20" height="20" viewBox="0 0 20 20" fill="none" xmlns="http://www.w3.org/2000/svg">
<path d="M4.01171 7.93311C4.01171 8.26092 4.24585 8.49506 4.57366 8.49506H13.0029V9.61897C13.0029 10.1341 13.5883 10.3682 13.9395 10.017L15.8127 8.14384C16.0468 7.93311 16.0468 7.58189 15.8127 7.37116L13.9395 5.49799C13.5883 5.12336 13.0029 5.38092 13.0029 5.87263V6.99653H4.57366C4.24585 6.99653 4.01171 7.25409 4.01171 7.55848V7.93311ZM15.438 11.4921H7.00878V10.3682C7.00878 9.87653 6.4 9.61897 6.04878 9.9936L4.17561 11.8668C3.94146 12.0775 3.94146 12.4287 4.17561 12.6395L6.04878 14.5126C6.4 14.8638 7.00878 14.6297 7.00878 14.1146V12.9907H15.438C15.7424 12.9907 16 12.7565 16 12.4287V12.0541C16 11.7497 15.7424 11.4921 15.438 11.4921Z" fill="#D146F3"/>
</svg>
