<svg width="18" height="16" viewBox="0 0 18 16" fill="none" xmlns="http://www.w3.org/2000/svg">
<path d="M14 7.5625C14 7.25 13.5938 7.0625 13.3438 7.3125L12.5938 8.0625C12.5312 8.125 12.5 8.21875 12.5 8.3125V14.3125C12.5 14.4375 12.4062 14.5 12.3125 14.5H1.6875C1.5625 14.5 1.5 14.4375 1.5 14.3125V3.6875C1.5 3.59375 1.5625 3.5 1.6875 3.5H11.3438C11.4375 3.5 11.5625 3.46875 11.625 3.40625L12.375 2.65625C12.625 2.40625 12.4375 2 12.0938 2H1.5C0.65625 2 0 2.6875 0 3.5V14.5C0 15.3438 0.65625 16 1.5 16H12.5C13.3125 16 14 15.3438 14 14.5V7.5625ZM17.625 0H13.375C13.0312 0 12.8438 0.40625 13.0938 0.65625L14.5938 2.15625L6.09375 10.6562C5.9375 10.8125 5.9375 11.0625 6.09375 11.1875L6.8125 11.9062C6.9375 12.0625 7.1875 12.0625 7.34375 11.9062L15.8438 3.40625L17.3438 4.90625C17.5938 5.125 18 4.96875 18 4.625V0.375C18 0.1875 17.8125 0 17.625 0Z" fill="black"/>
</svg>
