<svg width="30" height="30" viewBox="0 0 30 30" fill="none" xmlns="http://www.w3.org/2000/svg">
<g clip-path="url(#clip0)">
<path fill-rule="evenodd" clip-rule="evenodd" d="M5.49902 26.9957C5.49668 23.9601 3.03515 21.5 -0.000976803 21.5L-0.000976847 20.5C2.31479 20.5 4.34771 21.711 5.49902 23.5343L5.49902 3L6.49902 3L6.49902 23.5343C7.65034 21.711 9.68326 20.5 11.999 20.5L11.999 21.5C8.96146 21.5 6.49902 23.9624 6.49902 27L5.49902 27C5.49902 26.9986 5.49902 26.9971 5.49902 26.9957ZM14.9998 9.49989L17.9998 9.49989L17.9998 8.49989L14.9998 8.49989L14.9998 9.49989ZM21.9998 13.4999L14.9998 13.4999L14.9998 12.4999L21.9998 12.4999L21.9998 13.4999ZM14.9998 17.4999L25.9998 17.4999L25.9998 16.4999L14.9998 16.4999L14.9998 17.4999ZM29.9998 21.4999L14.9998 21.4999L14.9998 20.4999L29.9998 20.4999L29.9998 21.4999Z" fill="black"/>
</g>
<defs>
<clipPath id="clip0">
<rect width="30" height="30" fill="white" transform="translate(0 30) rotate(-90)"/>
</clipPath>
</defs>
</svg>
