<svg width="27" height="21" viewBox="0 0 27 21" fill="none" xmlns="http://www.w3.org/2000/svg">
<path d="M8.96739 6.06187C8.73539 6.06187 8.50339 5.97306 8.32576 5.79725L5.34239 2.81206L2.35902 5.79725C2.00558 6.15068 1.43102 6.15068 1.07758 5.79725C0.724141 5.44381 0.724141 4.86925 1.07758 4.51581L4.70258 0.89081C5.05602 0.537373 5.63058 0.537373 5.98401 0.89081L9.60901 4.51581C9.96245 4.86925 9.96245 5.44381 9.60901 5.79725C9.43139 5.97306 9.19939 6.06187 8.96739 6.06187Z" fill="black"/>
<path d="M5.34375 20.5625C4.8435 20.5625 4.4375 20.1565 4.4375 19.6562V1.53125C4.4375 1.031 4.8435 0.625 5.34375 0.625C5.844 0.625 6.25 1.031 6.25 1.53125V19.6562C6.25 20.1565 5.844 20.5625 5.34375 20.5625Z" fill="black"/>
<path d="M14.4062 4.25H12.5938C12.0935 4.25 11.6875 3.844 11.6875 3.34375C11.6875 2.8435 12.0935 2.4375 12.5938 2.4375H14.4062C14.9065 2.4375 15.3125 2.8435 15.3125 3.34375C15.3125 3.844 14.9065 4.25 14.4062 4.25Z" fill="black"/>
<path d="M18.0312 9.6875H12.5938C12.0935 9.6875 11.6875 9.2815 11.6875 8.78125C11.6875 8.281 12.0935 7.875 12.5938 7.875H18.0312C18.5315 7.875 18.9375 8.281 18.9375 8.78125C18.9375 9.2815 18.5315 9.6875 18.0312 9.6875Z" fill="black"/>
<path d="M21.6562 15.125H12.5938C12.0935 15.125 11.6875 14.719 11.6875 14.2188C11.6875 13.7185 12.0935 13.3125 12.5938 13.3125H21.6562C22.1565 13.3125 22.5625 13.7185 22.5625 14.2188C22.5625 14.719 22.1565 15.125 21.6562 15.125Z" fill="black"/>
<path d="M25.2812 20.5625H12.5938C12.0935 20.5625 11.6875 20.1565 11.6875 19.6562C11.6875 19.156 12.0935 18.75 12.5938 18.75H25.2812C25.7815 18.75 26.1875 19.156 26.1875 19.6562C26.1875 20.1565 25.7815 20.5625 25.2812 20.5625Z" fill="black"/>
</svg>
