<svg width="30" height="24" viewBox="0 0 30 24" fill="none" xmlns="http://www.w3.org/2000/svg">
<path fill-rule="evenodd" clip-rule="evenodd" d="M5.49902 23.9957C5.49668 20.9601 3.03515 18.5 -0.000976803 18.5L-0.000976847 17.5C2.31479 17.5 4.34771 18.711 5.49902 20.5343L5.49902 -2.40413e-07L6.49902 -2.84124e-07L6.49902 20.5343C7.65034 18.711 9.68326 17.5 11.999 17.5L11.999 18.5C8.96146 18.5 6.49902 20.9624 6.49902 24L5.49902 24C5.49902 23.9986 5.49902 23.9971 5.49902 23.9957ZM14.9998 6.49989L17.9998 6.49989L17.9998 5.49989L14.9998 5.49989L14.9998 6.49989ZM21.9998 10.4999L14.9998 10.4999L14.9998 9.49989L21.9998 9.49989L21.9998 10.4999ZM14.9998 14.4999L25.9998 14.4999L25.9998 13.4999L14.9998 13.4999L14.9998 14.4999ZM29.9998 18.4999L14.9998 18.4999L14.9998 17.4999L29.9998 17.4999L29.9998 18.4999Z" fill="black"/>
</svg>
