<svg width="27" height="21" viewBox="0 0 27 21" fill="none" xmlns="http://www.w3.org/2000/svg">
<path d="M1.72011 15.1256C1.95211 15.1256 2.18411 15.2144 2.36174 15.3903L5.34511 18.3754L8.32848 15.3903C8.68192 15.0368 9.25648 15.0368 9.60992 15.3903C9.96336 15.7437 9.96336 16.3183 9.60992 16.6717L5.98492 20.2967C5.63148 20.6501 5.05692 20.6501 4.70349 20.2967L1.07849 16.6717C0.725048 16.3183 0.725048 15.7437 1.07849 15.3903C1.25611 15.2144 1.48811 15.1256 1.72011 15.1256Z" fill="black"/>
<path d="M5.34375 0.625C5.844 0.625 6.25 1.031 6.25 1.53125L6.25 19.6562C6.25 20.1565 5.844 20.5625 5.34375 20.5625C4.8435 20.5625 4.4375 20.1565 4.4375 19.6562L4.4375 1.53125C4.4375 1.031 4.8435 0.625 5.34375 0.625Z" fill="black"/>
<path d="M14.4063 18.75L12.5938 18.75C12.0935 18.75 11.6875 19.156 11.6875 19.6562C11.6875 20.1565 12.0935 20.5625 12.5938 20.5625L14.4062 20.5625C14.9065 20.5625 15.3125 20.1565 15.3125 19.6563C15.3125 19.156 14.9065 18.75 14.4063 18.75Z" fill="black"/>
<path d="M18.0313 13.3125L12.5938 13.3125C12.0935 13.3125 11.6875 13.7185 11.6875 14.2187C11.6875 14.719 12.0935 15.125 12.5938 15.125L18.0312 15.125C18.5315 15.125 18.9375 14.719 18.9375 14.2188C18.9375 13.7185 18.5315 13.3125 18.0313 13.3125Z" fill="black"/>
<path d="M21.6563 7.875L12.5938 7.875C12.0935 7.875 11.6875 8.281 11.6875 8.78125C11.6875 9.2815 12.0935 9.6875 12.5938 9.6875L21.6562 9.6875C22.1565 9.6875 22.5625 9.2815 22.5625 8.78125C22.5625 8.281 22.1565 7.875 21.6563 7.875Z" fill="black"/>
<path d="M25.2813 2.4375L12.5938 2.4375C12.0935 2.4375 11.6875 2.8435 11.6875 3.34375C11.6875 3.844 12.0935 4.25 12.5938 4.25L25.2812 4.25C25.7815 4.25 26.1875 3.844 26.1875 3.34375C26.1875 2.8435 25.7815 2.4375 25.2813 2.4375Z" fill="black"/>
</svg>
