<svg width="30" height="24" viewBox="0 0 30 24" fill="none" xmlns="http://www.w3.org/2000/svg">
<path fill-rule="evenodd" clip-rule="evenodd" d="M-8.08661e-07 5.5C3.03757 5.5 5.5 3.03757 5.5 -2.40413e-07L6.5 -2.84124e-07C6.5 3.03757 8.96243 5.5 12 5.5L12 6.5C9.68423 6.5 7.65131 5.28898 6.5 3.46569L6.5 24L5.5 24L5.5 3.46568C4.34869 5.28898 2.31577 6.5 -7.64949e-07 6.5L-8.08661e-07 5.5ZM15 6.5L18 6.5L18 5.5L15 5.5L15 6.5ZM22 10.5L15 10.5L15 9.5L22 9.5L22 10.5ZM15 14.5L26 14.5L26 13.5L15 13.5L15 14.5ZM30 18.5L15 18.5L15 17.5L30 17.5L30 18.5Z" fill="black"/>
</svg>
