<svg width="8" height="10" viewBox="0 0 8 10" fill="none" xmlns="http://www.w3.org/2000/svg">
<path d="M7.48005 5.79803C7.37314 4.40607 6.72506 3.53379 6.15332 2.76404C5.62391 2.05143 5.16666 1.43605 5.16666 0.528274C5.16666 0.455357 5.12583 0.388711 5.06108 0.355297C4.99613 0.321682 4.91809 0.327188 4.85905 0.370099C4.00038 0.984531 3.28394 2.02011 3.03367 3.0082C2.85993 3.69612 2.83694 4.46947 2.83371 4.98024C2.04075 4.81087 1.86112 3.62473 1.85922 3.61181C1.85029 3.55029 1.8127 3.49675 1.75801 3.46751C1.70276 3.43865 1.63781 3.43655 1.58179 3.46428C1.54021 3.48441 0.561141 3.98188 0.504174 5.96815C0.500182 6.03423 0.5 6.10051 0.5 6.16677C0.5 8.09646 2.07017 9.66653 4 9.66653C4.00266 9.66671 4.0055 9.6671 4.00778 9.66653C4.00855 9.66653 4.0093 9.66653 4.01024 9.66653C5.93533 9.66101 7.5 8.09305 7.5 6.16677C7.5 6.06974 7.48005 5.79803 7.48005 5.79803ZM4 9.27767C3.35665 9.27767 2.83333 8.7202 2.83333 8.03495C2.83333 8.0116 2.83315 7.98805 2.83485 7.95919C2.84263 7.6702 2.89752 7.47293 2.95771 7.34171C3.07051 7.584 3.27216 7.80672 3.59972 7.80672C3.7072 7.80672 3.79417 7.71975 3.79417 7.61229C3.79417 7.33546 3.79988 7.01609 3.8688 6.72785C3.93014 6.47227 4.07673 6.20037 4.26244 5.9824C4.34504 6.26532 4.50608 6.49429 4.6633 6.71778C4.88832 7.03752 5.12093 7.36811 5.16176 7.93185C5.16422 7.96526 5.1667 7.99887 5.1667 8.03495C5.16667 8.72018 4.64334 9.27767 4 9.27767Z" fill="white"/>
</svg>
