<svg width="10" height="12" viewBox="0 0 10 12" fill="none" xmlns="http://www.w3.org/2000/svg">
<path d="M9.47435 7.02583C9.33689 5.23617 8.50364 4.11466 7.76855 3.12499C7.08788 2.20877 6.5 1.41757 6.5 0.250428C6.5 0.156678 6.4475 0.0709907 6.36425 0.0280298C6.28074 -0.015189 6.1804 -0.00811086 6.10449 0.047061C5.00049 0.837045 4.07935 2.16851 3.75758 3.43891C3.53419 4.32337 3.50464 5.31768 3.50049 5.97438C2.48096 5.75662 2.25001 4.23159 2.24757 4.21497C2.23608 4.13587 2.18776 4.06704 2.11744 4.02944C2.04641 3.99234 1.9629 3.98965 1.89087 4.02529C1.83741 4.05117 0.578609 4.69078 0.505367 7.24455C0.500234 7.32951 0.5 7.41473 0.5 7.49993C0.5 9.98095 2.51879 11.9996 5 11.9996C5.00342 11.9999 5.00708 12.0003 5.01 11.9996C5.01099 11.9996 5.01195 11.9996 5.01317 11.9996C7.48829 11.9925 9.49999 9.97656 9.49999 7.49993C9.49999 7.37517 9.47435 7.02583 9.47435 7.02583ZM5 11.4997C4.17284 11.4997 3.5 10.7829 3.5 9.90187C3.5 9.87185 3.49976 9.84156 3.50194 9.80446C3.51195 9.43291 3.58252 9.17927 3.65991 9.01056C3.80494 9.32207 4.06421 9.60843 4.48536 9.60843C4.62354 9.60843 4.73536 9.49661 4.73536 9.35845C4.73536 9.00253 4.7427 8.5919 4.83132 8.22131C4.91018 7.89271 5.09865 7.54312 5.33743 7.26288C5.44362 7.62663 5.65067 7.92103 5.85282 8.20837C6.14213 8.61946 6.44119 9.0445 6.49369 9.76931C6.49686 9.81227 6.50004 9.85549 6.50004 9.90187C6.5 10.7829 5.82715 11.4997 5 11.4997Z" fill="#E04300"/>
</svg>
