<svg width="12" height="14" viewBox="0 0 12 14" fill="none" xmlns="http://www.w3.org/2000/svg">
<path d="M0 6.92667C0 7.18486 0.140831 7.53694 0.328606 7.72471L5.28117 12.6773C5.72714 13.1232 6.45477 13.1232 6.87726 12.6773L11.6655 7.88902C12.1115 7.46652 12.1115 6.73889 11.6655 6.29293L6.71296 1.34036C6.52518 1.15258 6.17311 0.988281 5.91491 0.988281H1.12665C0.492909 0.988281 0 1.50466 0 2.11493V6.92667ZM2.62885 2.49048C3.23912 2.49048 3.7555 3.00686 3.7555 3.61713C3.7555 4.25087 3.23912 4.74378 2.62885 4.74378C1.99511 4.74378 1.5022 4.25087 1.5022 3.61713C1.5022 3.00686 1.99511 2.49048 2.62885 2.49048Z" fill="#FFB23E"/>
</svg>
