<svg width="8" height="8" viewBox="0 0 8 8" fill="none" xmlns="http://www.w3.org/2000/svg">
<path d="M0.199219 3.8601C0.199219 4.02379 0.288504 4.247 0.407552 4.36605L3.54743 7.50593C3.83017 7.78867 4.29148 7.78867 4.55934 7.50593L7.59505 4.47021C7.87779 4.20236 7.87779 3.74105 7.59505 3.45831L4.45517 0.318429C4.33612 0.199382 4.11291 0.0952148 3.94922 0.0952148H0.913504C0.511719 0.0952148 0.199219 0.422596 0.199219 0.809501V3.8601ZM1.86589 1.0476C2.25279 1.0476 2.58017 1.37498 2.58017 1.76188C2.58017 2.16367 2.25279 2.47617 1.86589 2.47617C1.4641 2.47617 1.1516 2.16367 1.1516 1.76188C1.1516 1.37498 1.4641 1.0476 1.86589 1.0476Z" fill="white"/>
</svg>
