<svg width="12" height="12" viewBox="0 0 12 12" fill="none" xmlns="http://www.w3.org/2000/svg">
<path d="M10.3375 3.00654C9.82095 2.98305 9.39828 3.4292 9.39828 3.9458V5.9887H9.21043V1.85594C9.21043 1.33934 8.76428 0.893189 8.24768 0.916671C7.73109 0.916671 7.3319 1.33934 7.3319 1.83245V5.9887H7.14405V0.940152C7.14405 0.423556 6.6979 -0.0225947 6.1813 0.0008869C5.6647 0.0008869 5.26552 0.423556 5.26552 0.916671V5.9887H5.07766V1.87942C5.07766 1.36282 4.63151 0.916671 4.11492 0.940152C3.59832 0.940152 3.19913 1.36282 3.19913 1.85594V7.3976L2.44772 6.38789C2.14246 5.96522 1.55542 5.87129 1.13275 6.17656C0.710081 6.48182 0.616154 7.06886 0.921415 7.49153L3.8801 11.5538C4.06795 11.8121 4.46714 12 4.79588 12H9.42176C9.93836 12 10.408 11.6478 10.5254 11.1312L11.1359 8.50124C11.2064 8.21946 11.2533 7.74983 11.2533 7.46805V3.92232C11.2768 3.4292 10.8541 3.00654 10.3375 3.00654Z" fill="#38D3E9"/>
</svg>
