<svg width="8" height="9" viewBox="0 0 8 9" fill="none" xmlns="http://www.w3.org/2000/svg">
<path d="M6.54895 2.68223C6.2052 2.66661 5.92395 2.96348 5.92395 3.30723V4.66661H5.79895V1.91661C5.79895 1.57286 5.50207 1.27598 5.15832 1.29161C4.81457 1.29161 4.54895 1.57286 4.54895 1.90098V4.66661H4.42395V1.30723C4.42395 0.963481 4.12707 0.666606 3.78332 0.682231C3.43957 0.682231 3.17395 0.963481 3.17395 1.29161V4.66661H3.04895V1.93223C3.04895 1.58848 2.75207 1.29161 2.40832 1.30723C2.06457 1.30723 1.79895 1.58848 1.79895 1.91661V5.60411L1.29895 4.93223C1.09582 4.65098 0.705198 4.58848 0.423948 4.79161C0.142698 4.99473 0.0801982 5.38536 0.283323 5.66661L2.25207 8.36973C2.37707 8.54161 2.6427 8.66661 2.86145 8.66661H5.93957C6.28332 8.66661 6.59582 8.43223 6.67395 8.08848L7.0802 6.33848C7.12707 6.15098 7.15832 5.83848 7.15832 5.65098V3.29161C7.17395 2.96348 6.8927 2.68223 6.54895 2.68223Z" fill="white"/>
</svg>
