<svg width="9" height="8" viewBox="0 0 9 8" fill="none" xmlns="http://www.w3.org/2000/svg">
<path d="M7.68248 4.71143L8.33817 1.80964C8.36607 1.70733 8.34747 1.61433 8.28237 1.53062C8.21726 1.44692 8.12891 1.40506 8.0173 1.40506H2.5346L2.40904 0.777274C2.39044 0.702869 2.34859 0.642415 2.28348 0.595912C2.22768 0.540109 2.16257 0.512207 2.08817 0.512207H0.651228C0.558222 0.512207 0.479167 0.544759 0.414062 0.609863C0.348958 0.674967 0.316406 0.754022 0.316406 0.847028V1.07024C0.316406 1.16325 0.348958 1.2423 0.414062 1.30741C0.479167 1.37251 0.558222 1.40506 0.651228 1.40506H1.62779L2.60435 6.19022C2.48344 6.26463 2.38579 6.36228 2.31138 6.48319C2.24628 6.6041 2.21373 6.7343 2.21373 6.87381C2.21373 7.08773 2.28813 7.26909 2.43694 7.4179C2.59505 7.57601 2.78106 7.65506 2.99498 7.65506C3.20889 7.65506 3.39025 7.57601 3.53906 7.4179C3.69717 7.26909 3.77623 7.08308 3.77623 6.85986C3.77623 6.64595 3.69717 6.46459 3.53906 6.31578H6.46875C6.31064 6.46459 6.23159 6.64595 6.23159 6.85986C6.23159 7.08308 6.30599 7.26909 6.4548 7.4179C6.61291 7.57601 6.79892 7.65506 7.01283 7.65506C7.22675 7.65506 7.40811 7.57601 7.55692 7.4179C7.71503 7.26909 7.79408 7.08773 7.79408 6.87381C7.79408 6.725 7.75223 6.59015 7.66853 6.46924C7.59412 6.33903 7.48716 6.24137 7.34766 6.17627L7.43136 5.8275C7.44996 5.72519 7.42671 5.63218 7.36161 5.54848C7.2965 5.46477 7.2128 5.42292 7.11049 5.42292H3.3577L3.274 4.97649H7.36161C7.43601 4.97649 7.50112 4.95324 7.55692 4.90674C7.62202 4.86024 7.66388 4.79513 7.68248 4.71143Z" fill="white"/>
</svg>
