<svg width="12" height="12" viewBox="0 0 12 12" fill="none" xmlns="http://www.w3.org/2000/svg">
<path d="M11.0019 6.93745L11.9812 2.60336C12.0229 2.45056 11.9951 2.31165 11.8979 2.18662C11.8007 2.0616 11.6687 1.99909 11.502 1.99909H3.31308L3.12554 1.06143C3.09776 0.950299 3.03525 0.860005 2.93801 0.790549C2.85466 0.707201 2.75742 0.665527 2.64629 0.665527H0.500087C0.361174 0.665527 0.243098 0.714147 0.145859 0.811386C0.0486195 0.908625 0 1.0267 0 1.16561V1.49901C0 1.63792 0.0486195 1.75599 0.145859 1.85323C0.243098 1.95047 0.361174 1.99909 0.500087 1.99909H1.95867L3.41726 9.14617C3.23667 9.2573 3.09081 9.40315 2.97968 9.58374C2.88244 9.76433 2.83383 9.95881 2.83383 10.1672C2.83383 10.4867 2.94496 10.7576 3.16722 10.9798C3.40337 11.216 3.68119 11.334 4.00069 11.334C4.32019 11.334 4.59107 11.216 4.81334 10.9798C5.04949 10.7576 5.16756 10.4797 5.16756 10.1463C5.16756 9.82684 5.04949 9.55596 4.81334 9.3337H9.18909C8.95294 9.55596 8.83487 9.82684 8.83487 10.1463C8.83487 10.4797 8.946 10.7576 9.16826 10.9798C9.40441 11.216 9.68224 11.334 10.0017 11.334C10.3212 11.334 10.5921 11.216 10.8144 10.9798C11.0505 10.7576 11.1686 10.4867 11.1686 10.1672C11.1686 9.94491 11.1061 9.74349 10.9811 9.5629C10.8699 9.36843 10.7102 9.22257 10.5018 9.12533L10.6268 8.6044C10.6546 8.4516 10.6199 8.31269 10.5227 8.18767C10.4254 8.06264 10.3004 8.00013 10.1476 8.00013H4.54246L4.41743 7.33335H10.5227C10.6338 7.33335 10.731 7.29862 10.8144 7.22917C10.9116 7.15971 10.9741 7.06247 11.0019 6.93745Z" fill="#6FDD6C"/>
</svg>
