<svg width="12" height="10" viewBox="0 0 12 10" fill="none" xmlns="http://www.w3.org/2000/svg">
<path d="M0.0117073 2.93311C0.0117073 3.26092 0.245854 3.49506 0.573659 3.49506H9.00293V4.61897C9.00293 5.13409 9.58829 5.36823 9.93951 5.01701L11.8127 3.14384C12.0468 2.93311 12.0468 2.58189 11.8127 2.37116L9.93951 0.497991C9.58829 0.123357 9.00293 0.380918 9.00293 0.872625V1.99653H0.573659C0.245854 1.99653 0.0117073 2.25409 0.0117073 2.55848V2.93311ZM11.438 6.49214H3.00878V5.36823C3.00878 4.87653 2.4 4.61897 2.04878 4.9936L0.17561 6.86677C-0.0585366 7.0775 -0.0585366 7.42872 0.17561 7.63945L2.04878 9.51262C2.4 9.86384 3.00878 9.6297 3.00878 9.11458V7.99067H11.438C11.7424 7.99067 12 7.75653 12 7.42872V7.05409C12 6.7497 11.7424 6.49214 11.438 6.49214Z" fill="#D146F3"/>
</svg>
