<svg width="8" height="7" viewBox="0 0 8 7" fill="none" xmlns="http://www.w3.org/2000/svg">
<path d="M0.191034 1.83352C0.191034 2.04186 0.339844 2.19067 0.548177 2.19067H5.90532V2.90495C5.90532 3.23233 6.27734 3.38114 6.50056 3.15793L7.69103 1.96745C7.83984 1.83352 7.83984 1.61031 7.69103 1.47638L6.50056 0.285906C6.27734 0.0478106 5.90532 0.211501 5.90532 0.524001V1.23829H0.548177C0.339844 1.23829 0.191034 1.40198 0.191034 1.59543V1.83352ZM7.45294 4.09543H2.0958V3.38114C2.0958 3.06864 1.70889 2.90495 1.48568 3.14305L0.295201 4.33352C0.146391 4.46745 0.146391 4.69067 0.295201 4.8246L1.48568 6.01507C1.70889 6.23829 2.0958 6.08948 2.0958 5.7621V5.04781H7.45294C7.64639 5.04781 7.81008 4.899 7.81008 4.69067V4.45257C7.81008 4.25912 7.64639 4.09543 7.45294 4.09543Z" fill="white"/>
</svg>
