<svg width="18" height="16" viewBox="0 0 18 16" fill="none" xmlns="http://www.w3.org/2000/svg">
<path d="M15.6312 9.49365L17.0081 3.3999C17.0667 3.18506 17.0276 2.98975 16.8909 2.81396C16.7542 2.63818 16.5687 2.55029 16.3343 2.55029H4.82061L4.55693 1.23193C4.51787 1.07568 4.42998 0.94873 4.29326 0.851074C4.17608 0.733887 4.03936 0.675293 3.88311 0.675293H0.865528C0.670215 0.675293 0.5042 0.743652 0.367481 0.880371C0.230762 1.01709 0.162403 1.18311 0.162403 1.37842V1.84717C0.162403 2.04248 0.230762 2.2085 0.367481 2.34521C0.5042 2.48193 0.670215 2.55029 0.865528 2.55029H2.91631L4.96709 12.5991C4.71318 12.7554 4.50811 12.9604 4.35186 13.2144C4.21514 13.4683 4.14678 13.7417 4.14678 14.0347C4.14678 14.4839 4.30303 14.8647 4.61553 15.1772C4.94756 15.5093 5.33818 15.6753 5.7874 15.6753C6.23662 15.6753 6.61748 15.5093 6.92998 15.1772C7.26201 14.8647 7.42803 14.4741 7.42803 14.0054C7.42803 13.5562 7.26201 13.1753 6.92998 12.8628H13.0823C12.7503 13.1753 12.5843 13.5562 12.5843 14.0054C12.5843 14.4741 12.7405 14.8647 13.053 15.1772C13.3851 15.5093 13.7757 15.6753 14.2249 15.6753C14.6741 15.6753 15.055 15.5093 15.3675 15.1772C15.6995 14.8647 15.8655 14.4839 15.8655 14.0347C15.8655 13.7222 15.7776 13.439 15.6019 13.1851C15.4456 12.9116 15.221 12.7065 14.928 12.5698L15.1038 11.8374C15.1429 11.6226 15.094 11.4272 14.9573 11.2515C14.8206 11.0757 14.6448 10.9878 14.43 10.9878H6.54912L6.37334 10.0503H14.9573C15.1136 10.0503 15.2503 10.0015 15.3675 9.90381C15.5042 9.80615 15.5921 9.66943 15.6312 9.49365Z" fill="white"/>
</svg>
