<svg width="16" height="18" viewBox="0 0 16 18" fill="none" xmlns="http://www.w3.org/2000/svg">
<path d="M14.3539 5.13282C13.632 5.10001 13.0414 5.72344 13.0414 6.44532V9.30001H12.7789V3.52501C12.7789 2.80313 12.1555 2.17969 11.4336 2.21251C10.7117 2.21251 10.1539 2.80313 10.1539 3.49219V9.30001H9.89141V2.24532C9.89141 1.52344 9.26797 0.900006 8.5461 0.932819C7.82422 0.932819 7.26641 1.52344 7.26641 2.21251V9.30001H7.00391V3.55782C7.00391 2.83594 6.38047 2.21251 5.6586 2.24532C4.93672 2.24532 4.37891 2.83594 4.37891 3.52501V11.2688L3.32891 9.85782C2.90235 9.26719 2.08203 9.13594 1.49141 9.56251C0.900783 9.98907 0.769533 10.8094 1.1961 11.4L5.33047 17.0766C5.59297 17.4375 6.15078 17.7 6.61016 17.7H13.0742C13.7961 17.7 14.4523 17.2078 14.6164 16.4859L15.4695 12.8109C15.568 12.4172 15.6336 11.7609 15.6336 11.3672V6.41251C15.6664 5.72344 15.0758 5.13282 14.3539 5.13282Z" fill="white"/>
</svg>
