<svg width="16" height="17" viewBox="0 0 16 17" fill="none" xmlns="http://www.w3.org/2000/svg">
<path d="M0.0155754 8.70581C0.0155754 9.04956 0.203075 9.51831 0.453075 9.76831L7.04683 16.3621C7.64058 16.9558 8.60932 16.9558 9.17182 16.3621L15.5468 9.98706C16.1406 9.42456 16.1406 8.45581 15.5468 7.86206L8.95307 1.26831C8.70307 1.01831 8.23432 0.799561 7.89057 0.799561H1.51558C0.671825 0.799561 0.0155754 1.48706 0.0155754 2.29956V8.70581ZM3.51558 2.79956C4.32807 2.79956 5.01558 3.48706 5.01558 4.29956C5.01558 5.14331 4.32807 5.79956 3.51558 5.79956C2.67183 5.79956 2.01558 5.14331 2.01558 4.29956C2.01558 3.48706 2.67183 2.79956 3.51558 2.79956Z" fill="white"/>
</svg>
