<svg width="14" height="14" viewBox="0 0 14 14" fill="none" xmlns="http://www.w3.org/2000/svg">
<path d="M0.21875 7C0.21875 10.7461 3.25391 13.7812 7 13.7812C10.7461 13.7812 13.7812 10.7461 13.7812 7C13.7812 3.25391 10.7461 0.21875 7 0.21875C3.25391 0.21875 0.21875 3.25391 0.21875 7ZM8.20312 10.1719C8.20312 10.3633 8.03906 10.5 7.875 10.5H6.125C5.93359 10.5 5.79688 10.3633 5.79688 10.1719V7H3.85547C3.55469 7 3.41797 6.67188 3.60938 6.45312L6.75391 3.33594C6.89062 3.19922 7.08203 3.19922 7.21875 3.33594L10.3633 6.45312C10.582 6.64453 10.418 7 10.1172 7H8.20312V10.1719Z" fill="white"/>
</svg>
