<svg width="16" height="17" viewBox="0 0 16 17" fill="none" xmlns="http://www.w3.org/2000/svg">
<path d="M4.50029 1.3316C4.15654 0.800347 3.34404 0.644097 2.81279 1.05035C1.09404 2.42535 0.000293732 4.48785 0.000293732 6.80035H8.00029L4.50029 1.3316ZM15.5003 3.80035H14.0003C12.8753 3.80035 12.0003 4.7066 12.0003 5.80035V7.80035H0.000293732C0.000293732 9.3941 0.719044 10.8316 1.87529 11.8941C0.781544 12.1753 0.000293732 13.1441 0.000293732 14.3003C0.000293732 15.7066 1.09404 16.8003 2.50029 16.8003C3.87529 16.8003 5.00029 15.7066 5.00029 14.3003C5.00029 14.0503 4.93779 13.7691 4.84404 13.5191C5.53154 13.7066 6.25029 13.8003 7.00029 13.8003C7.71904 13.8003 8.43779 13.7066 9.12529 13.5191C9.03154 13.7691 9.00029 14.0503 9.00029 14.3003C9.00029 15.7066 10.094 16.8003 11.5003 16.8003C12.8753 16.8003 14.0003 15.7066 14.0003 14.3003C14.0003 13.1441 13.1878 12.1753 12.094 11.8941C13.2815 10.8316 14.0003 9.3941 14.0003 7.80035V5.80035H15.5003C15.7503 5.80035 16.0003 5.5816 16.0003 5.30035V4.30035C16.0003 4.05035 15.7503 3.80035 15.5003 3.80035ZM2.50029 15.3003C1.93779 15.3003 1.50029 14.8628 1.50029 14.3003C1.50029 13.7691 1.93779 13.3003 2.50029 13.3003C3.03154 13.3003 3.50029 13.7691 3.50029 14.3003C3.50029 14.8628 3.03154 15.3003 2.50029 15.3003ZM12.5003 14.3003C12.5003 14.8628 12.0315 15.3003 11.5003 15.3003C10.9378 15.3003 10.5003 14.8628 10.5003 14.3003C10.5003 13.7691 10.9378 13.3003 11.5003 13.3003C12.0315 13.3003 12.5003 13.7691 12.5003 14.3003Z" fill="white"/>
</svg>
