<svg width="20" height="20" viewBox="0 0 20 20" fill="none" xmlns="http://www.w3.org/2000/svg">
<g opacity="0.4">
<path d="M10 10C9.54668 10 9.09337 9.91957 8.74 9.7587L3.75923 7.4874C3.53139 7.38375 3 7.08053 3 6.50808C3 5.93563 3.53139 5.63308 3.7599 5.52808L8.78375 3.23726C9.47601 2.92091 10.5206 2.92091 11.2132 3.23726L16.2401 5.52808C16.4686 5.63207 17 5.93529 17 6.50808C17 7.08087 16.4686 7.38308 16.2401 7.48774L11.2593 9.7587C10.9066 9.91957 10.4533 10 10 10Z" stroke="black"/>
<path d="M16.2381 9.01855C16.4693 9.12355 17 9.42577 17 10.0009C17 10.5761 16.4656 10.8796 16.2364 10.9836L11.26 13.2589C10.9066 13.4201 10.4547 13.5009 10 13.5009C9.54534 13.5009 9.09135 13.4201 8.74 13.2586L3.75923 10.9826C3.53139 10.8786 3 10.573 3 10.0009C3 9.4288 3.53139 9.12355 3.75957 9.01956" stroke="black"/>
<path d="M16.2381 12.5176C16.4693 12.6229 17 12.9261 17 13.5003C17 14.0744 16.4656 14.378 16.2361 14.4816L11.258 16.7556C10.9046 16.9168 10.453 17.0003 10 17.0003C9.54702 17.0003 9.09135 16.9168 8.74 16.7559L3.75923 14.4813C3.53139 14.3776 3 14.0724 3 13.5003C3 12.9282 3.53139 12.6229 3.75957 12.5189" stroke="black"/>
</g>
</svg>
