<svg width="20" height="20" viewBox="0 0 20 20" fill="none" xmlns="http://www.w3.org/2000/svg">
<path fill-rule="evenodd" clip-rule="evenodd" d="M10.6293 2.35298C10.3951 2.21567 10.1049 2.21567 9.87071 2.35298L2.62071 6.60298C2.39108 6.73759 2.25 6.98382 2.25 7.25C2.25 7.51618 2.39108 7.76241 2.62071 7.89702L9.87071 12.147C10.1049 12.2843 10.3951 12.2843 10.6293 12.147L17.8793 7.89702C18.1089 7.76241 18.25 7.51618 18.25 7.25C18.25 6.98382 18.1089 6.73759 17.8793 6.60298L10.6293 2.35298ZM10.25 10.6306L4.48304 7.25L10.25 3.86937L16.017 7.25L10.25 10.6306ZM5.9301 12.1144C6.26943 11.8769 6.35196 11.4092 6.11442 11.0699C5.87689 10.7306 5.40924 10.648 5.0699 10.8856L2.5699 12.6356C2.36065 12.7821 2.24033 13.025 2.25061 13.2802C2.26089 13.5354 2.40035 13.7678 2.62071 13.897L9.87071 18.147C10.1049 18.2843 10.3951 18.2843 10.6293 18.147L17.8793 13.897C18.0996 13.7678 18.2391 13.5354 18.2494 13.2802C18.2597 13.025 18.1394 12.7821 17.9301 12.6356L15.4301 10.8856C15.0908 10.648 14.6231 10.7306 14.3856 11.0699C14.148 11.4092 14.2306 11.8769 14.5699 12.1144L16.1123 13.1941L10.25 16.6306L4.38769 13.1941L5.9301 12.1144Z" fill="white"/>
</svg>
