<svg width="72" height="72" viewBox="0 0 72 72" fill="none" xmlns="http://www.w3.org/2000/svg">
<g clip-path="url(#clip0_923_53594)">
<path opacity="0.2" d="M26.7895 66.5054C24.1875 67.9892 19.9128 67.9892 17.3109 66.5054C14.7089 65.0215 14.7089 62.5176 17.3109 61.0338C19.9128 59.5499 24.1875 59.5499 26.7895 61.0338C29.3914 62.5176 29.3914 65.0215 26.7895 66.5054Z" fill="url(#paint0_linear_923_53594)"/>
<path d="M26.5112 63.1005C26.5112 63.1005 26.5112 63.1932 26.4183 63.286C26.3254 63.5642 26.0466 63.9352 25.6749 64.3061C25.489 64.4916 25.2103 64.6771 24.9315 64.8626C24.5598 65.1408 24.0951 65.3263 23.5376 65.419C23.2588 65.5117 22.98 65.5117 22.6083 65.5117C22.0507 65.5117 21.5861 65.5117 21.1214 65.419C20.0063 65.2335 19.2629 64.9553 19.2629 64.9553C19.2629 64.9553 19.077 62.0804 19.077 59.9474C19.17 57.8144 19.3558 54.383 19.2629 52.7137C19.17 51.1372 19.077 50.9517 18.9841 50.9517C18.8912 50.9517 18.4265 50.6735 17.869 50.117C17.4973 49.6533 17.4043 49.3751 17.1255 49.0042C17.0326 48.9114 16.9397 48.8187 16.8468 48.6332C16.7538 48.5405 16.6609 48.4477 16.6609 48.355C16.3821 47.7986 16.568 47.0567 16.6609 46.8712C16.7538 46.593 17.1256 46.4075 17.2185 45.851C17.3114 45.3873 17.2185 44.9237 17.4973 44.5527C17.869 44.1817 18.0548 44.2745 18.1478 43.9035C18.2407 43.5326 18.2407 43.1616 18.5195 42.9761C18.7982 42.6979 19.6346 42.4197 19.6346 42.4197C19.6346 42.4197 18.8912 41.2141 18.7053 41.0286C18.6124 40.9359 18.5195 40.8431 18.4265 40.6577C18.3336 40.4722 18.2407 40.194 18.3336 39.9157C18.4265 39.2666 19.17 39.1738 19.2629 39.1738C19.4487 39.1738 20.0063 39.2666 20.1922 39.452C20.378 39.5448 21.7719 41.585 21.9578 41.6778C21.9578 41.6778 22.0507 41.3996 22.6083 41.3996C23.1658 41.3996 23.2588 41.8633 23.2588 42.1415C23.2588 42.4197 23.2588 42.6979 23.2588 42.6979C23.2588 42.6979 24.188 43.9963 24.3739 44.3672C24.6527 44.7382 25.0244 45.6656 25.0244 45.9438C25.0244 46.1293 25.0244 46.8712 25.0244 47.2421C25.0244 47.6131 25.1173 48.2623 24.8385 48.726C24.5598 49.1897 24.5598 49.5606 24.4668 49.7461C24.4668 49.9316 24.4668 52.25 24.4668 53.1774C24.5598 54.0121 24.4668 59.2982 26.5112 63.1005Z" fill="#FFE3CF"/>
<path d="M23.1661 50.7665C23.1661 50.7665 22.9802 51.1374 22.7014 51.4156C22.4226 51.6939 21.7722 52.1575 21.6792 52.2503C21.6792 52.343 21.7722 52.8067 21.4004 52.9922C21.0287 53.1777 20.4712 53.1777 20.4712 53.1777C20.4712 53.1777 20.4712 53.4559 20.2853 54.2905C20.1924 55.1252 21.4934 57.5364 21.1217 60.2258C20.8429 62.3588 21.0287 64.5846 21.1217 65.512C20.0065 65.3265 19.2631 65.0483 19.2631 65.0483C19.2631 65.0483 19.0773 62.1734 19.0773 60.0404C19.1702 57.9074 19.356 54.476 19.2631 52.8067C19.1702 51.2302 19.0773 51.0447 18.9843 51.0447C18.8914 51.0447 18.4268 50.7665 17.8692 50.21C17.4975 49.7463 17.4046 49.4681 17.1258 49.0972C17.0328 49.0044 16.9399 48.9117 16.847 48.7262C16.7541 48.6335 16.6611 48.5407 16.6611 48.448C17.4046 47.6133 18.148 48.5407 18.8914 48.8189C19.6348 49.0972 20.8429 49.8391 20.8429 49.8391C20.8429 49.8391 21.1217 50.3955 21.1217 50.4882C21.1217 50.581 20.8429 51.3229 20.9358 51.5084C21.0287 51.6939 21.4004 51.7866 21.6792 51.6939C21.958 51.6939 23.0731 50.7665 23.1661 50.7665Z" fill="#FFE3CF"/>
<path d="M26.3257 63.2851C26.2328 63.5634 25.954 63.9343 25.5823 64.3053C25.3964 64.4907 25.1176 64.6762 24.8388 64.8617C24.653 64.8617 24.4671 64.6762 24.3742 64.3053C24.1884 63.1924 22.8874 54.4749 22.7944 53.2693C22.7015 52.1565 23.1661 51.1363 23.2591 51.0436C23.352 50.9509 23.0732 50.6726 23.0732 50.6726C23.0732 50.6726 21.9581 51.2291 22.1439 51.1363C22.3298 51.0436 22.5157 50.5799 22.5157 50.5799C22.5157 50.5799 23.0732 50.4872 23.352 50.3017C23.6308 50.1162 24.3742 50.1162 24.3742 50.1162C24.3742 50.1162 24.0025 53.733 24.5601 57.6281C25.1176 60.9667 26.0469 62.8214 26.3257 63.2851Z" fill="#FFE3CF"/>
<path d="M21.7715 43.0686C21.7715 43.0686 21.6786 43.254 21.7715 43.5323C21.8645 43.8105 22.2362 44.3669 22.3291 44.4596C22.515 44.5524 22.6079 44.7379 22.6079 44.8306C22.6079 44.9233 22.7008 45.387 22.7008 45.387C22.7008 45.387 20.6564 43.996 20.5635 43.1613C20.5635 42.2339 21.7715 43.0686 21.7715 43.0686Z" fill="#F6B486"/>
<path d="M24.7455 49.004C24.7455 49.004 24.2808 50.0241 23.8162 50.2096C23.4445 50.3951 22.6081 50.3951 22.2364 50.3024C21.9576 50.2096 23.6303 47.9839 23.6303 47.9839C23.6303 47.9839 24.095 48.4476 24.095 48.5403C24.1879 49.375 24.7455 49.004 24.7455 49.004Z" fill="#F6B486"/>
<path d="M25.0247 48.1692C25.0247 48.1692 24.7459 48.9111 24.4672 48.7256C24.2813 48.5401 24.0025 48.0764 23.9096 47.891C23.8167 47.7055 23.5379 47.6127 23.5379 47.6127C23.5379 47.6127 23.8167 46.9636 23.8167 46.6854C23.8167 46.4071 24.0954 46.4999 24.0954 46.4999C24.0954 46.4999 23.9096 45.6652 23.8167 45.1088C23.7237 44.5524 23.352 44.2741 23.1662 43.7177C23.0732 43.4395 23.0732 42.9758 23.0732 42.6048C23.0732 42.3266 23.0732 42.2339 23.1662 42.2339C23.2591 42.3266 23.1662 42.5121 23.5379 42.9758C23.9096 43.5322 24.3742 44.1814 24.3742 44.1814C24.3742 44.1814 24.8389 44.8306 24.9318 45.6652C25.0247 46.4999 25.0247 46.5926 25.0247 46.8708C25.0247 47.2418 25.1176 47.7055 25.0247 48.1692Z" fill="#FFE3CF"/>
<path d="M23.1661 42.6976C23.1661 42.6976 22.9803 42.6976 22.7944 42.6048C22.5156 42.5121 22.5156 41.7702 22.5156 41.6775C22.5156 41.5847 22.8873 41.5847 22.9803 41.6775C23.0732 41.7702 23.1661 41.8629 23.259 42.3266C23.259 42.6976 23.1661 42.6976 23.1661 42.6976Z" fill="#FFE3CF"/>
<path d="M22.0505 41.8628C22.0505 41.8628 22.1434 42.0483 22.0505 42.512C21.9576 42.9757 21.7717 43.3466 21.6788 43.4394C21.6788 43.5321 21.9576 44.0885 21.9576 44.0885C21.9576 44.0885 21.4 43.6248 21.4 43.5321C21.3071 43.4394 21.0283 43.0684 21.1212 42.9757C21.1212 42.7902 22.0505 41.8628 22.0505 41.8628Z" fill="#FCD1B3"/>
<path d="M20.1924 48.9111V51.0441C20.1924 51.2296 20.2853 51.415 20.3782 51.5078C20.8429 51.9715 21.5863 51.9715 22.0509 51.5078C22.1439 51.415 22.2368 51.2296 22.2368 51.0441V45.9434L20.1924 44.8306V48.9111Z" fill="#707070"/>
<path d="M20.1924 42.9758V33.3309L22.2368 32.96V41.6774V44.9233L20.1924 42.9758Z" fill="#707070"/>
<path d="M25.5818 64.3064C25.1172 64.7701 24.3737 65.3265 23.4445 65.4193C23.1657 65.512 22.8869 65.512 22.5152 65.512C22.4223 65.3265 22.4223 65.1411 22.4223 65.0483C21.9576 63.1008 22.1435 60.6896 22.1435 60.6896C22.1435 60.6896 22.0505 60.2259 22.1435 59.113C22.2364 58.0001 21.5859 56.98 21.2142 56.2381C20.8425 55.4962 20.8425 53.3632 20.9354 53.2704C21.0283 53.1777 21.5859 53.085 21.8647 52.8995C22.1435 52.714 22.9798 51.7866 22.9798 51.7866C22.9798 51.7866 23.3515 54.3833 23.5374 55.3107C23.7232 56.3308 24.8384 60.5968 24.8384 60.7823C24.9313 60.9678 25.303 62.6371 25.5818 64.3064Z" fill="#FFE3CF"/>
<path d="M21.8647 42.8829C21.493 43.5321 20.7495 42.9757 20.6566 42.8829C20.5637 42.7902 18.6122 40.7499 18.4263 40.7499C18.3334 40.5645 18.2405 40.2862 18.3334 40.008C18.4263 39.3589 19.1698 39.2661 19.2627 39.2661C19.4485 39.2661 20.0061 39.3589 20.192 39.5443C20.3778 39.6371 21.7717 41.6773 21.9576 41.7701C21.9576 41.7701 22.3293 42.2338 21.8647 42.8829Z" fill="#FFE3CF"/>
<path d="M21.9584 41.9559C21.9584 41.9559 21.5867 41.214 21.122 40.7503C20.6574 40.2866 20.1927 39.6374 19.821 39.4519C19.4493 39.3592 19.2635 39.1737 18.7059 39.5447C18.1483 39.9156 20.0069 41.5849 20.0069 41.5849L20.7503 42.6051C20.8432 42.6051 21.9584 41.9559 21.9584 41.9559Z" fill="#FFEBDD"/>
<path d="M21.8653 41.8627C21.8653 41.8627 21.4936 41.399 21.1219 41.4918C20.7502 41.4918 20.6572 42.0482 20.6572 42.2337C20.6572 42.4191 21.1219 42.9756 21.1219 42.9756C21.1219 42.9756 21.4006 42.7901 21.6794 42.6046C21.8653 42.3264 22.0511 42.2337 21.8653 41.8627Z" fill="#FEF7F2"/>
<path d="M23.9089 49.0967C23.5372 49.5604 23.1655 49.4676 23.1655 49.4676C23.1655 49.4676 23.2584 49.7459 23.1655 49.9313C23.0725 50.2096 22.7008 50.395 22.2362 50.3023C21.6786 50.2095 21.3069 49.9313 20.2847 49.5604C19.1696 49.1894 18.7979 49.1894 18.7979 49.1894C18.1474 49.1894 17.5898 49.1894 17.2181 49.0967C17.1252 49.0039 17.0322 48.9112 16.9393 48.7257C16.3817 48.0766 16.5676 47.1492 16.6605 46.9637C16.7534 46.6855 17.1252 46.5 17.2181 45.9436C17.311 45.4799 17.2181 45.0162 17.4969 44.6452C17.8686 44.2742 18.0544 44.367 18.1474 43.996C18.2403 43.6251 18.2403 43.2541 18.5191 43.0686C18.7979 42.7904 19.6342 42.5122 19.6342 42.5122C19.6342 42.5122 20.4705 42.8832 20.5635 43.0686C20.7493 43.2541 21.6786 44.367 22.0503 44.7379C22.422 45.1089 23.0725 45.6653 23.2584 46.0363C23.4442 46.4072 23.5372 46.8709 23.4442 47.2419C23.3513 47.5201 22.9796 47.5201 22.9796 47.5201C23.0725 47.5201 23.723 47.9838 23.8159 48.0766C23.9089 48.1693 24.1877 48.633 23.9089 49.0967Z" fill="#FFE3CF"/>
<path d="M23.0727 47.6127C23.0727 47.6127 22.608 47.4272 22.1434 47.0563C21.6788 46.7781 20.3778 45.8507 20.099 45.6652C19.8202 45.4797 18.7051 44.7378 18.7051 44.7378C18.7051 44.7378 19.0768 44.8305 19.1697 44.9233C19.2626 44.9233 19.8202 45.2015 19.8202 45.2942C19.8202 45.2942 22.8868 47.4272 23.0727 47.6127Z" fill="#F6B486"/>
<path d="M23.1667 49.4674C23.1667 49.4674 22.5162 49.0965 22.1445 48.911C21.7728 48.7255 19.4496 47.4272 19.0779 47.2417C18.7061 47.0562 17.8698 46.6853 17.7769 46.6853C17.6839 46.6853 18.1486 46.5925 18.2415 46.6853C18.3344 46.778 20.193 47.7054 20.193 47.7054C20.2859 47.7981 22.0515 48.6328 22.1445 48.7255C22.2374 48.911 23.0737 49.3747 23.1667 49.4674Z" fill="#F6B486"/>
<path d="M19.5417 47.6123C19.5417 47.6123 18.9841 47.7978 18.9841 48.1687C18.8912 48.5397 18.9841 48.8179 19.8205 49.0961C20.5639 49.3743 21.3073 49.6526 21.4932 49.7453C21.679 49.838 22.2366 50.209 22.5154 50.3017C22.7941 50.3945 22.98 50.209 23.0729 50.0235C23.1659 49.9308 22.5154 49.1889 22.5154 49.1889C22.5154 49.1889 21.4932 48.5397 21.2144 48.3542C20.9356 48.3542 19.5417 47.6123 19.5417 47.6123Z" fill="#FFEBDD"/>
<path d="M20.1919 45.758C20.1919 45.758 19.7272 45.6653 19.4485 45.9435C19.1697 46.2217 19.1697 46.4072 19.2626 46.6854C19.4485 47.0564 20.2848 47.6128 20.2848 47.6128C20.2848 47.6128 22.0504 48.5402 22.1434 48.5402C22.2363 48.6329 22.8868 49.0966 22.9797 49.1894C23.0726 49.2821 23.3514 49.2821 23.4444 49.1894C23.5373 49.0966 23.6302 48.0765 23.6302 48.0765C23.6302 48.0765 23.0726 47.7055 22.7009 47.4273C22.5151 47.3346 20.3777 46.0362 20.1919 45.758Z" fill="#FFEBDD"/>
<path d="M22.0508 44.6447C22.0508 44.6447 20.4711 43.0681 20.2852 43.0681C20.0994 43.0681 19.5418 42.9754 19.263 43.4391C18.8913 43.9028 19.9135 44.6447 19.9135 44.8302C20.0064 44.9229 21.1216 45.943 21.2145 46.1285C21.3074 46.314 22.6084 47.1486 22.6084 47.1486L23.4448 46.4995C23.4448 46.4995 23.166 45.943 22.9801 45.6648C22.6084 45.2939 22.0508 44.6447 22.0508 44.6447Z" fill="#FFEBDD"/>
<path d="M23.5377 46.4996C23.5377 46.4996 23.3518 46.3141 23.073 46.4068C22.7943 46.4996 22.6084 46.7778 22.6084 46.9633C22.6084 47.1487 22.7943 47.2415 22.7943 47.2415L23.166 47.5197C23.166 47.6124 23.6306 47.5197 23.5377 46.4996Z" fill="#FEF7F2"/>
<path d="M23.9099 48.2618C23.9099 48.2618 23.5382 47.8909 23.2594 48.0763C23.0736 48.2618 22.8877 48.54 22.8877 48.8183C22.8877 49.0965 23.4453 49.282 23.4453 49.282C23.4453 49.282 24.1887 48.911 23.9099 48.2618Z" fill="#FEF7F2"/>
<path d="M23.1656 49.4676C23.1656 49.4676 22.608 49.1894 22.5151 49.2821C22.4222 49.2821 22.2363 49.4676 22.2363 49.7458C22.2363 50.024 22.4222 50.1168 22.5151 50.2095C22.608 50.3022 22.7939 50.3022 22.7939 50.3022C22.7939 50.3022 23.2585 49.8385 23.1656 49.4676Z" fill="#FEF7F2"/>
<path d="M22.98 38.3391L19.3558 40.3794C18.7053 40.7504 17.9619 40.2867 17.9619 39.5447V36.0207L24.0951 32.4966V36.3916C24.0022 37.2263 23.6305 37.8754 22.98 38.3391Z" fill="#5C5C5C"/>
<path d="M23.5386 38.5247L19.9144 40.5649C19.2639 40.9359 18.5205 40.4722 18.5205 39.7303V36.2062L24.6537 32.6821V36.5772C24.6537 37.4118 24.1891 38.1537 23.5386 38.5247Z" fill="#707070"/>
<path d="M56.0181 28.8426L52.3939 30.8828C51.7434 31.2538 51 30.7901 51 30.0482V26.5241L57.1332 23V26.895C57.0403 27.7297 56.6686 28.3789 56.0181 28.8426Z" fill="#5C5C5C"/>
<path d="M56.5767 29.0281L52.9525 31.0684C52.302 31.4393 51.5586 30.9756 51.5586 30.2337V26.7096L57.6918 23.1855V27.0806C57.6918 27.9152 57.2272 28.6572 56.5767 29.0281Z" fill="#707070"/>
<path opacity="0.2" d="M59.9956 62.0401C57.5415 63.4304 53.5096 63.4304 51.0555 62.0401C48.6013 60.6498 48.6013 58.3037 51.0555 56.9133C53.5096 55.523 57.5415 55.523 59.9956 56.9133C62.4498 58.3037 62.4498 60.5629 59.9956 62.0401Z" fill="url(#paint1_linear_923_53594)"/>
<path d="M59.5708 58.7211C59.5708 58.7211 59.5708 58.8139 59.4779 58.9066C59.3849 59.1848 59.1062 59.5558 58.7345 59.9268C58.5486 60.1122 58.2698 60.2977 57.991 60.4832C57.6193 60.7614 57.1547 60.9469 56.5971 61.0396C56.3183 61.1324 56.0396 61.1324 55.6678 61.1324C55.1103 61.1324 54.6456 61.1324 54.181 61.0396C53.0659 60.8541 52.3225 60.5759 52.3225 60.5759C52.3225 60.5759 52.1366 57.7938 52.1366 55.6608C52.2295 53.5278 52.4154 50.0964 52.3225 48.4271C52.2295 46.8505 52.1366 46.6651 52.0437 46.6651C51.9507 46.6651 51.4861 46.3869 50.9285 45.8304C50.5568 45.3667 50.4639 45.0885 50.1851 44.7175C50.0922 44.6248 49.9993 44.5321 49.9063 44.3466C49.8134 44.2539 49.7205 44.1611 49.7205 44.0684C49.4417 43.5119 49.6276 42.77 49.7205 42.5845C49.8134 42.3063 50.1851 42.1209 50.278 41.5644C50.371 41.1007 50.278 40.637 50.5568 40.2661C50.9285 39.8951 51.1144 39.9879 51.2073 39.6169C51.3002 39.2459 51.3003 38.875 51.579 38.6895C51.8578 38.4113 52.6942 38.1331 52.6942 38.1331C52.6942 38.1331 51.9507 36.9275 51.7649 36.742C51.672 36.6492 51.579 36.5565 51.4861 36.371C51.3932 36.1856 51.3002 35.9073 51.3932 35.6291C51.4861 34.9799 52.2295 34.8872 52.3225 34.8872C52.5083 34.8872 53.0659 34.9799 53.2517 35.1654C53.4376 35.2582 54.8315 37.2984 55.0173 37.3912C55.0173 37.3912 55.1103 37.1129 55.6678 37.1129C56.2254 37.1129 56.3183 37.5766 56.3183 37.8549C56.3183 38.1331 56.3183 38.4113 56.3183 38.4113C56.3183 38.4113 57.2476 39.7096 57.4335 40.0806C57.7123 40.4516 58.084 41.3789 58.084 41.6572C58.084 41.9354 58.084 42.5845 58.084 42.9555C58.084 43.3265 58.1769 43.9756 57.8981 44.4393C57.6193 44.903 57.6193 45.274 57.5264 45.4595C57.5264 45.6449 57.5264 47.9634 57.5264 48.8908C57.6193 49.6327 57.5264 54.9188 59.5708 58.7211Z" fill="#FFE3CF"/>
<path d="M56.2256 46.3876C56.2256 46.3876 56.0398 46.7585 55.761 47.0367C55.4822 47.3149 54.8317 47.7786 54.7388 47.8714C54.7388 47.9641 54.8317 48.4278 54.46 48.6133C54.0883 48.7988 53.5307 48.7988 53.5307 48.7988C53.5307 48.7988 53.5307 49.077 53.3449 49.9116C53.252 50.7463 54.5529 53.1575 54.1812 55.8469C53.9024 57.9799 54.0883 60.2057 54.1812 61.1331C53.0661 60.9476 52.3227 60.6694 52.3227 60.6694C52.3227 60.6694 52.1368 57.7945 52.1368 55.6615C52.2297 53.5285 52.4156 50.0971 52.3227 48.4278C52.2297 46.8512 52.1368 46.6658 52.0439 46.6658C51.951 46.6658 51.4863 46.3876 50.9288 45.8311C50.5571 45.3674 50.4641 45.0892 50.1853 44.7182C50.0924 44.6255 49.9995 44.5328 49.9066 44.3473C49.8136 44.2546 49.7207 44.1618 49.7207 44.0691C50.4641 43.2344 51.2075 44.1618 51.951 44.44C52.6944 44.7183 53.9024 45.4602 53.9024 45.4602C53.9024 45.4602 54.1812 46.0166 54.1812 46.1093C54.1812 46.2021 53.9024 46.944 53.9954 47.1295C54.0883 47.3149 54.46 47.4077 54.7388 47.3149C55.0176 47.3149 56.1327 46.3876 56.2256 46.3876Z" fill="#FFE3CF"/>
<path d="M59.3853 58.9062C59.2923 59.1845 59.0135 59.5554 58.6418 59.9264C58.456 60.1119 58.1772 60.2973 57.8984 60.4828C57.7126 60.4828 57.5267 60.2973 57.4338 59.9264C57.2479 58.8135 55.9469 50.096 55.854 48.8904C55.7611 47.7776 56.2257 46.7574 56.3186 46.6647C56.4116 46.572 56.1328 46.2937 56.1328 46.2937C56.1328 46.2937 55.0177 46.8502 55.2035 46.7574C55.3894 46.6647 55.5752 46.201 55.5752 46.201C55.5752 46.201 56.1328 46.1083 56.4116 45.9228C56.6904 45.7373 57.4338 45.7373 57.4338 45.7373C57.4338 45.7373 57.0621 49.3541 57.6196 53.2492C58.1772 56.5878 59.1065 58.3498 59.3853 58.9062Z" fill="#FFE3CF"/>
<path d="M54.8311 38.6897C54.8311 38.6897 54.7382 38.8751 54.8311 39.1534C54.924 39.4316 55.2957 39.988 55.3887 40.0807C55.5745 40.1735 55.6675 40.359 55.6675 40.4517C55.6675 40.5444 55.7604 41.0081 55.7604 41.0081C55.7604 41.0081 53.716 39.617 53.623 38.7824C53.623 37.855 54.8311 38.6897 54.8311 38.6897Z" fill="#F6B486"/>
<path d="M57.805 44.6251C57.805 44.6251 57.3404 45.6452 56.8758 45.8307C56.504 46.0162 55.6677 46.0162 55.296 45.9235C55.0172 45.8307 56.6899 43.605 56.6899 43.605C56.6899 43.605 57.1545 44.0687 57.1545 44.1614C57.2475 44.9961 57.805 44.6251 57.805 44.6251Z" fill="#F6B486"/>
<path d="M58.0843 43.7903C58.0843 43.7903 57.8055 44.5322 57.5267 44.3467C57.3409 44.1612 57.0621 43.6975 56.9692 43.5121C56.8762 43.3266 56.5974 43.2338 56.5974 43.2338C56.5974 43.2338 56.8762 42.5847 56.8762 42.3065C56.8762 42.0282 57.155 42.121 57.155 42.121C57.155 42.121 56.9692 41.2863 56.8762 40.7299C56.7833 40.1735 56.4116 39.8952 56.2257 39.3388C56.1328 39.0606 56.1328 38.5969 56.1328 38.2259C56.1328 37.9477 56.1328 37.855 56.2257 37.855C56.3187 37.9477 56.2257 38.1332 56.5974 38.5969C56.9692 39.1533 57.4338 39.8025 57.4338 39.8025C57.4338 39.8025 57.8984 40.4517 57.9914 41.2863C58.0843 42.121 58.0843 42.2137 58.0843 42.4919C58.0843 42.8629 58.1772 43.3266 58.0843 43.7903Z" fill="#FFE3CF"/>
<path d="M56.2257 38.3187C56.2257 38.3187 56.0398 38.3187 55.854 38.2259C55.5752 38.1332 55.5752 37.3913 55.5752 37.2986C55.5752 37.2058 55.9469 37.2058 56.0398 37.2986C56.1328 37.3913 56.2257 37.484 56.3186 37.9477C56.3186 38.3187 56.2257 38.3187 56.2257 38.3187Z" fill="#FFE3CF"/>
<path d="M55.1104 37.4839C55.1104 37.4839 55.2033 37.6694 55.1104 38.1331C55.0175 38.5968 54.8316 38.9677 54.7387 39.0605C54.7387 39.1532 55.0175 39.7096 55.0175 39.7096C55.0175 39.7096 54.367 39.1532 54.274 39.0605C54.1811 38.9677 53.9023 38.5968 53.9953 38.504C54.1811 38.4113 55.1104 37.4839 55.1104 37.4839Z" fill="#FCD1B3"/>
<path d="M53.252 44.5322V46.6652C53.252 46.8507 53.3449 47.0361 53.4378 47.1289C53.9024 47.5926 54.6459 47.5926 55.1105 47.1289C55.2034 47.0361 55.2964 46.8507 55.2964 46.6652V41.5645L53.252 40.4517V44.5322Z" fill="#707070"/>
<path d="M53.252 38.5969V28.952L55.2964 28.5811V37.2985V40.5444L53.252 38.5969Z" fill="#707070"/>
<path d="M58.6414 59.9265C58.1767 60.3902 57.4333 60.9466 56.504 61.0394C56.2252 61.1321 55.9465 61.1321 55.5748 61.1321C55.4818 60.9466 55.4818 60.7612 55.4818 60.6684C55.0172 58.7209 55.203 56.3097 55.203 56.3097C55.203 56.3097 55.1101 55.846 55.203 54.7331C55.296 53.6203 54.6455 52.6001 54.2738 51.8582C53.9021 51.1163 53.9021 48.9833 53.995 48.8906C54.0879 48.7978 54.6455 48.7051 54.9243 48.5196C55.203 48.3341 56.0394 47.4067 56.0394 47.4067C56.0394 47.4067 56.4111 50.0034 56.597 50.9308C56.7828 51.951 57.8979 56.2169 57.8979 56.4024C57.9909 56.5879 58.3626 58.2572 58.6414 59.9265Z" fill="#FFE3CF"/>
<path d="M54.9242 38.504C54.5525 39.1532 53.8091 38.5968 53.7162 38.504C53.6232 38.4113 51.6718 36.371 51.4859 36.371C51.393 36.1856 51.3001 35.9073 51.393 35.6291C51.4859 34.9799 52.2293 34.8872 52.3223 34.8872C52.5081 34.8872 53.0657 34.9799 53.2515 35.1654C53.4374 35.2582 54.8313 37.2984 55.0172 37.3912C55.0172 37.3912 55.3889 37.8549 54.9242 38.504Z" fill="#FFE3CF"/>
<path d="M55.0179 37.577C55.0179 37.577 54.6462 36.8351 54.1816 36.3714C53.717 35.9077 53.2523 35.2585 52.8806 35.073C52.5089 34.9803 52.323 34.7948 51.7655 35.1658C51.2079 35.5367 53.0665 37.206 53.0665 37.206L53.8099 38.2262C53.9028 38.2262 55.0179 37.577 55.0179 37.577Z" fill="#FFEBDD"/>
<path d="M54.9248 37.4838C54.9248 37.4838 54.5531 37.0201 54.1814 37.1128C53.8097 37.2056 53.7168 37.6693 53.7168 37.8548C53.7168 38.0402 54.1814 38.5967 54.1814 38.5967C54.1814 38.5967 54.4602 38.4112 54.739 38.2257C54.9248 37.9475 55.1107 37.8548 54.9248 37.4838Z" fill="#FEF7F2"/>
<path d="M56.9684 44.7178C56.5967 45.1815 56.225 45.0887 56.225 45.0887C56.225 45.0887 56.3179 45.367 56.225 45.5524C56.1321 45.8306 55.7604 46.0161 55.2957 45.9234C54.7382 45.8306 54.3665 45.5524 53.3443 45.1815C52.2291 44.8105 51.8574 44.8105 51.8574 44.8105C51.2069 44.8105 50.6494 44.8105 50.2777 44.7178C50.1847 44.625 50.0918 44.5323 49.9989 44.3468C49.4413 43.6976 49.6272 42.7703 49.7201 42.5848C49.813 42.3066 50.1847 42.1211 50.2777 41.5646C50.3706 41.101 50.2777 40.6373 50.5564 40.2663C50.9281 39.8953 51.114 39.9881 51.2069 39.6171C51.2999 39.2462 51.2999 38.8752 51.5786 38.6897C51.8574 38.4115 52.6938 38.1333 52.6938 38.1333C52.6938 38.1333 53.5301 38.5043 53.623 38.6897C53.8089 38.8752 54.7382 39.9881 55.1099 40.359C55.4816 40.73 56.1321 41.2864 56.3179 41.6574C56.5038 42.0283 56.5967 42.492 56.5038 42.863C56.4109 43.1412 56.0392 43.1412 56.0392 43.1412C56.1321 43.1412 56.7826 43.6049 56.8755 43.6976C56.9684 43.7904 57.2472 44.2541 56.9684 44.7178Z" fill="#FFE3CF"/>
<path d="M56.1322 43.2338C56.1322 43.2338 55.6676 43.0483 55.203 42.6774C54.7383 42.3991 53.4373 41.4718 53.1586 41.2863C52.8798 41.1008 51.7646 40.3589 51.7646 40.3589C51.7646 40.3589 52.1364 40.4516 52.1364 40.5444C52.2293 40.5444 52.7869 40.8226 52.7869 40.9153C52.8798 40.9153 55.9464 43.0483 56.1322 43.2338Z" fill="#F6B486"/>
<path d="M56.1325 45.0885C56.1325 45.0885 55.482 44.7176 55.1103 44.5321C54.7386 44.3466 52.4154 43.0483 52.0437 42.8628C51.672 42.6773 50.8356 42.3064 50.7427 42.3064C50.6498 42.3064 51.1144 42.2136 51.2073 42.3064C51.3003 42.3991 53.1588 43.3265 53.1588 43.3265C53.2517 43.4192 55.0174 44.2539 55.1103 44.3466C55.2961 44.5321 56.1325 44.9958 56.1325 45.0885Z" fill="#F6B486"/>
<path d="M52.5085 43.2334C52.5085 43.2334 51.9509 43.4189 51.9509 43.7898C51.858 44.1608 51.9509 44.439 52.7873 44.7172C53.5307 44.9954 54.2741 45.2737 54.4599 45.3664C54.6458 45.4591 55.2034 45.8301 55.4821 45.9228C55.7609 46.0156 55.9468 45.8301 56.0397 45.6446C56.1326 45.5519 55.4821 44.81 55.4821 44.81C55.4821 44.81 54.4599 44.1608 54.1812 43.9753C53.9953 43.8826 52.5085 43.2334 52.5085 43.2334Z" fill="#FFEBDD"/>
<path d="M53.2515 41.3791C53.2515 41.3791 52.7868 41.2864 52.508 41.5646C52.2293 41.8428 52.2293 42.0283 52.3222 42.3065C52.508 42.6774 53.3444 43.2339 53.3444 43.2339C53.3444 43.2339 55.11 44.1613 55.2029 44.1613C55.2959 44.254 55.9464 44.7177 56.0393 44.8104C56.1322 44.9032 56.411 44.9032 56.5039 44.8104C56.5969 44.7177 56.6898 43.6976 56.6898 43.6976C56.6898 43.6976 56.1322 43.3266 55.7605 43.0484C55.5746 42.8629 53.4373 41.6573 53.2515 41.3791Z" fill="#FFEBDD"/>
<path d="M55.1104 40.2658C55.1104 40.2658 53.5306 38.6892 53.3448 38.6892C53.1589 38.6892 52.6014 38.5965 52.3226 39.0602C51.9509 39.5239 52.9731 40.2658 52.9731 40.4513C53.066 40.544 54.1811 41.5641 54.2741 41.7496C54.367 41.9351 55.668 42.7697 55.668 42.7697L56.5043 42.1206C56.5043 42.1206 56.2255 41.5641 56.0397 41.2859C55.668 40.9149 55.1104 40.2658 55.1104 40.2658Z" fill="#FFEBDD"/>
<path d="M56.5972 42.1207C56.5972 42.1207 56.4114 41.9352 56.1326 42.0279C55.8538 42.1207 55.668 42.3989 55.668 42.5844C55.668 42.7698 55.8538 42.8626 55.8538 42.8626L56.2255 43.1408C56.2255 43.1408 56.6902 43.1408 56.5972 42.1207Z" fill="#FEF7F2"/>
<path d="M56.9695 43.8829C56.9695 43.8829 56.5978 43.512 56.319 43.6974C56.1331 43.8829 55.9473 44.1611 55.9473 44.4394C55.9473 44.7176 56.5048 44.9031 56.5048 44.9031C56.5048 44.9031 57.2483 44.5321 56.9695 43.8829Z" fill="#FEF7F2"/>
<path d="M56.1324 45.0887C56.1324 45.0887 55.5748 44.8105 55.4819 44.9032C55.389 44.9032 55.2031 45.0887 55.2031 45.3669C55.2031 45.6451 55.389 45.7379 55.4819 45.8306C55.5748 45.8306 55.7607 45.9233 55.7607 45.9233C55.7607 45.9233 56.3183 45.4596 56.1324 45.0887Z" fill="#FEF7F2"/>
<path d="M60.3619 24.1287L61.5795 23.3982L61.7744 11.9043L45.7998 21.1579V32.8466L60.3619 24.1287Z" fill="#707070"/>
<path d="M52.0474 23.669C51.929 23.5724 51.7837 23.5318 51.6206 23.5408C51.9548 23.1488 52.1563 22.6573 52.1563 22.1617C52.1563 21.9493 52.1185 21.7716 52.039 21.635C51.9578 21.4956 51.8363 21.4051 51.6842 21.3661C51.3905 21.2907 50.9992 21.4104 50.5621 21.672L48.6572 22.7665L48.607 22.7954V22.8532V27.8094V27.9753L48.7537 27.8978L50.7171 26.8605L50.7172 26.8605L50.721 26.8583C51.723 26.2701 52.3296 25.3773 52.3296 24.4669C52.3296 24.1094 52.2407 23.8269 52.0474 23.669ZM50.6049 24.6687L50.605 24.6687L50.6063 24.6679C50.7463 24.5841 50.869 24.5267 50.9731 24.4938C51.078 24.4605 51.158 24.454 51.2156 24.4644C51.2696 24.4742 51.306 24.499 51.3315 24.5388C51.359 24.5818 51.3789 24.6508 51.3789 24.755C51.3789 25.1646 51.0682 25.5988 50.5042 25.9367L49.5577 26.4835V25.2738L50.6049 24.6687ZM49.5577 24.2936V23.1991L50.6023 22.5956C50.8282 22.4832 50.9854 22.456 51.0768 22.4814C51.1175 22.4927 51.1463 22.5145 51.167 22.5499C51.1893 22.588 51.2056 22.6478 51.2056 22.738C51.2056 23.0927 50.9493 23.4686 50.5034 23.7472L49.5577 24.2936Z" fill="white" stroke="white" stroke-width="0.2"/>
<path d="M53.8888 19.8564V19.6892L53.7415 19.7684L52.9908 20.1718L52.9381 20.2001V20.2599V25.216V25.3832L53.0854 25.3041L53.8361 24.9007L53.8888 24.8724V24.8126V19.8564Z" fill="white" stroke="white" stroke-width="0.2"/>
<path d="M54.8434 24.2363V24.4099L54.9935 24.3229L56.7826 23.2861C56.7828 23.286 56.783 23.2859 56.7831 23.2858C58.1422 22.5189 59.0856 20.8724 59.0856 19.3955C59.0856 18.6585 58.849 18.1219 58.4042 17.8878C57.9615 17.6549 57.3584 17.7465 56.6825 18.1569L54.8932 19.1937L54.8434 19.2226V19.2802V24.2363ZM56.782 19.0219L56.7821 19.0221L56.7875 19.0186C57.1753 18.7698 57.5096 18.7441 57.7391 18.8707C57.9685 18.9972 58.1349 19.2988 58.1349 19.7989C58.1349 20.298 57.9818 20.8141 57.7295 21.2547C57.4768 21.696 57.129 22.0543 56.7466 22.2451L56.7465 22.2449L56.7412 22.248L55.7941 22.7952V19.5696L56.782 19.0219Z" fill="white" stroke="white" stroke-width="0.2"/>
<path d="M61.7734 11.9048L45.7989 21.1584L44.2891 20.2818L60.2636 10.9795L61.7734 11.9048Z" fill="#9A9A9A"/>
<path d="M45.7989 21.1583L44.2891 20.2329V31.9216L45.7989 32.7983V21.1583Z" fill="#9A9A9A"/>
<path opacity="0.2" d="M45.768 70.5394C42.4171 72.4873 37.0381 72.4873 33.5991 70.5394C30.2482 68.5914 30.2482 65.4039 33.5991 63.5445C36.9499 61.5965 42.329 61.5965 45.768 63.5445C49.0307 65.4039 49.0307 68.5914 45.768 70.5394Z" fill="url(#paint2_linear_923_53594)"/>
<path d="M45.189 66.1604C45.189 66.1604 45.096 66.2531 45.0031 66.4386C44.8172 66.7168 44.4455 67.2733 43.9809 67.8297C43.7021 68.1079 43.4233 68.3862 43.0516 68.5716C42.4941 68.9426 41.8436 69.2208 41.1001 69.3135C40.7284 69.4063 40.2638 69.4063 39.8921 69.4063C39.1487 69.4063 38.4982 69.4063 37.8477 69.3135C36.3608 69.1281 35.3386 68.7571 35.3386 68.7571C35.3386 68.7571 35.0598 64.8621 35.0598 61.9871C35.1528 59.1122 35.5245 54.3825 35.3386 52.2495C35.1528 50.0238 35.0598 49.8383 34.9669 49.8383C34.874 49.8383 34.2235 49.4674 33.4801 48.7255C32.9225 48.169 32.8296 47.7981 32.4579 47.2416C32.3649 47.0562 32.1791 46.9634 32.0862 46.7779C31.9932 46.6852 31.9003 46.4997 31.8074 46.407C31.4357 45.6651 31.6215 44.6449 31.8074 44.3667C31.9003 43.9958 32.3649 43.7175 32.5508 43.0684C32.6437 42.4192 32.5508 41.8628 33.0154 41.3063C33.4801 40.7499 33.7589 40.9354 33.9447 40.3789C34.1306 39.8225 34.1306 39.4516 34.5023 39.0806C34.874 38.7096 35.9891 38.3387 35.9891 38.3387C35.9891 38.3387 34.9669 36.6694 34.7811 36.4839C34.6881 36.3912 34.5023 36.2057 34.4094 35.9275C34.3164 35.6492 34.2235 35.2783 34.3164 34.9073C34.5023 34.0727 35.4316 33.8872 35.6174 33.8872C35.8033 33.8872 36.6396 33.9799 36.9184 34.1654C37.1972 34.3509 39.1487 37.0403 39.2416 37.2258C39.2416 37.2258 39.3345 36.8549 40.0779 36.8549C40.8214 36.8549 41.0072 37.504 41.0072 37.7822C41.0072 38.1532 41.0072 38.5242 41.0072 38.5242C41.0072 38.5242 42.2153 40.2862 42.587 40.7499C42.8658 41.2136 43.4233 42.5119 43.4233 42.7902C43.4233 43.0684 43.3304 43.9958 43.4233 44.4595C43.5163 44.9232 43.5163 45.8505 43.2375 46.4997C42.8658 47.1489 42.8658 47.7053 42.7728 47.8908C42.7728 48.0763 42.6799 51.2294 42.7728 52.5278C42.4941 53.8261 42.4941 60.967 45.189 66.1604Z" fill="#FFE3CF"/>
<path d="M40.6354 49.3748C40.6354 49.3748 40.3566 49.9312 39.9849 50.3021C39.6132 50.6731 38.6839 51.3223 38.6839 51.415C38.591 51.5078 38.8698 52.1569 38.3122 52.4351C37.7547 52.7134 37.0113 52.6206 37.0113 52.6206C37.0113 52.6206 36.9183 52.9916 36.8254 54.1044C36.6395 55.2173 38.4052 58.5559 37.9405 62.1727C37.4759 65.0477 37.8476 68.0153 38.0335 69.3136C36.5466 69.1282 35.5244 68.7572 35.5244 68.7572C35.5244 68.7572 35.2456 64.8622 35.2456 61.9873C35.3386 59.1124 35.7103 54.3827 35.5244 52.2497C35.3386 50.0239 35.2456 49.8384 35.1527 49.8384C35.0598 49.8384 34.4093 49.4675 33.6659 48.7256C33.1083 48.1691 33.0154 47.7982 32.6437 47.2418C32.5507 47.0563 32.3649 46.9635 32.2719 46.7781C32.179 46.6853 32.0861 46.4998 31.9932 46.4071C32.9224 45.2942 34.0376 46.5926 35.0598 46.9635C36.082 47.3345 37.6617 48.2619 37.6617 48.2619C37.6617 48.2619 38.1264 49.0965 38.0335 49.0965C38.0335 49.1893 37.6617 50.3021 37.8476 50.4876C38.0335 50.7658 38.4981 50.8586 38.7769 50.7658C39.0557 50.6731 40.5425 49.4675 40.6354 49.3748Z" fill="#FFE3CF"/>
<path d="M45.003 66.4392C44.8172 66.7174 44.4455 67.2739 43.9808 67.8303C43.702 68.1085 43.4233 68.3867 43.0515 68.5722C42.7728 68.5722 42.494 68.294 42.401 67.7376C42.1223 66.2537 40.3566 54.3831 40.2637 52.8066C40.1708 51.23 40.7284 49.9316 40.8213 49.7462C41.0071 49.5607 40.6354 49.2825 40.6354 49.2825C40.6354 49.2825 39.1486 50.0244 39.3344 49.8389C39.5203 49.7462 39.892 49.097 39.892 49.097C39.892 49.097 40.6354 49.0043 41.0071 48.8188C41.3788 48.6333 42.401 48.6333 42.401 48.6333C42.401 48.6333 41.8435 53.5485 42.5869 58.8346C43.2374 63.2861 44.5384 65.6973 45.003 66.4392Z" fill="#FFE3CF"/>
<path d="M38.6841 38.9885C38.6841 38.9885 38.4983 39.174 38.6841 39.6377C38.87 40.0087 39.2417 40.7506 39.4276 40.9361C39.6134 41.1215 39.7993 41.307 39.8922 41.3998C39.8922 41.5852 40.0781 42.0489 40.0781 42.0489C40.0781 42.0489 37.2902 40.1014 37.1973 38.9885C37.1044 37.9684 38.6841 38.9885 38.6841 38.9885Z" fill="#F6B486"/>
<path d="M42.7729 47.0562C42.7729 47.0562 42.1224 48.4472 41.5648 48.7255C41.1002 49.0037 39.8921 48.9109 39.5204 48.9109C39.0558 48.8182 41.379 45.7578 41.379 45.7578C41.379 45.7578 41.9365 46.3142 42.0295 46.4997C42.0295 47.5199 42.7729 47.0562 42.7729 47.0562Z" fill="#F6B486"/>
<path d="M43.1441 45.944C43.1441 45.944 42.6795 46.9641 42.4007 46.7786C42.1219 46.5932 41.7502 45.8512 41.5644 45.6658C41.4714 45.4803 41.0068 45.2948 41.0068 45.2948C41.0068 45.2948 41.3785 44.3674 41.3785 43.9965C41.3785 43.6255 41.7502 43.7182 41.7502 43.7182C41.7502 43.7182 41.4714 42.6054 41.3785 41.8635C41.2856 41.1216 40.728 40.7506 40.5421 40.0087C40.4492 39.6377 40.4492 38.9886 40.4492 38.5249C40.4492 38.2466 40.5421 37.9684 40.5421 38.0612C40.6351 38.1539 40.5421 38.3394 41.0997 39.0813C41.6573 39.8232 42.2148 40.7506 42.2148 40.7506C42.2148 40.7506 42.8653 41.678 42.9583 42.6981C43.1441 43.811 43.1441 43.9965 43.0512 44.2747C43.1441 44.6456 43.237 45.2948 43.1441 45.944Z" fill="#FFE3CF"/>
<path d="M40.6356 38.5245C40.6356 38.5245 40.4498 38.5245 40.0781 38.339C39.7064 38.1535 39.6134 37.2262 39.7064 37.0407C39.7064 36.8552 40.2639 36.9479 40.3569 37.0407C40.4498 37.1334 40.6356 37.3189 40.6356 37.8753C40.7286 38.5245 40.6356 38.5245 40.6356 38.5245Z" fill="#FFE3CF"/>
<path d="M39.1483 37.4116C39.1483 37.4116 39.2412 37.5971 39.2412 38.2463C39.1483 38.8954 38.8695 39.3591 38.7766 39.5446C38.7766 39.7301 39.1483 40.472 39.1483 40.472C39.1483 40.472 38.312 39.7301 38.219 39.6374C38.1261 39.4519 37.6615 38.9882 37.7544 38.8027C37.8473 38.6172 39.1483 37.4116 39.1483 37.4116Z" fill="#FCD1B3"/>
<path d="M36.6396 46.871V49.7459C36.6396 50.0241 36.7326 50.2096 36.9184 50.3951C37.5689 51.0442 38.5911 51.0442 39.1487 50.3951C39.3346 50.2096 39.4275 49.9314 39.4275 49.7459V42.8832L36.6396 41.3066V46.871Z" fill="#707070"/>
<path d="M36.6396 38.8954V25.9119L39.4275 25.3555V37.2261V41.5848L36.6396 38.8954Z" fill="#707070"/>
<path d="M43.9811 67.8297C43.3306 68.4789 42.4014 69.128 41.1004 69.4062C40.7287 69.499 40.264 69.499 39.8923 69.499C39.7994 69.2208 39.7994 69.0353 39.7065 68.8498C39.1489 66.2531 39.3347 62.9145 39.3347 62.9145C39.3347 62.9145 39.2418 62.2653 39.3347 60.7815C39.4277 59.2977 38.5913 57.9066 38.0338 56.9792C37.4762 56.0518 37.5691 53.0842 37.662 52.9914C37.755 52.8987 38.4984 52.7132 38.963 52.5277C39.3347 52.3423 40.4499 50.9512 40.4499 50.9512C40.4499 50.9512 41.0074 54.3825 41.2862 55.7736C41.565 57.1647 43.0518 63.0073 43.0518 63.1927C43.0518 63.2855 43.5165 65.5112 43.9811 67.8297Z" fill="#FFE3CF"/>
<path d="M38.9625 38.8028C38.405 39.6375 37.4757 38.8956 37.3828 38.8028C37.1969 38.7101 34.5949 35.8352 34.2232 35.8352C34.1303 35.557 34.0374 35.186 34.1303 34.8151C34.3161 33.9804 35.2454 33.7949 35.4313 33.7949C35.6171 33.7949 36.4535 33.8877 36.7323 34.0731C37.011 34.2586 38.9625 36.948 39.0554 37.1335C39.0554 37.1335 39.5201 37.9682 38.9625 38.8028Z" fill="#FFE3CF"/>
<path d="M39.0557 37.5042C39.0557 37.5042 38.5911 36.4841 37.9406 35.9276C37.2901 35.2785 36.7326 34.3511 36.2679 34.2583C35.8033 34.0729 35.5245 33.8874 34.6881 34.3511C33.8518 34.8148 36.4538 37.1333 36.4538 37.1333C36.4538 37.1333 37.476 38.4316 37.476 38.5243C37.5689 38.4316 39.0557 37.5042 39.0557 37.5042Z" fill="#FFEBDD"/>
<path d="M38.87 37.4119C38.87 37.4119 38.4053 36.8555 37.8478 36.8555C37.3831 36.9482 37.1973 37.6901 37.1973 37.8756C37.1973 38.1538 37.8478 38.8957 37.8478 38.8957C37.8478 38.8957 38.2195 38.7103 38.5912 38.3393C38.9629 38.0611 39.0558 37.9683 38.87 37.4119Z" fill="#FEF7F2"/>
<path d="M41.6579 47.149C41.1933 47.7982 40.6357 47.7055 40.6357 47.7055C40.6357 47.7055 40.7286 48.0764 40.6357 48.3547C40.5428 48.6329 40.0781 49.0038 39.3347 48.8183C38.5913 48.7256 38.1266 48.3547 36.6398 47.7982C35.153 47.3345 34.6883 47.2418 34.6883 47.2418C33.759 47.2418 33.1086 47.2418 32.551 47.149C32.4581 46.9636 32.2722 46.8708 32.1793 46.6853C31.4359 45.8507 31.7146 44.6451 31.9005 44.2741C31.9934 43.9032 32.4581 43.625 32.6439 42.9758C32.7368 42.3266 32.6439 41.7702 33.1086 41.2137C33.5732 40.6573 33.852 40.8428 34.0378 40.2864C34.2237 39.7299 34.2237 39.359 34.5954 38.988C34.9671 38.6171 36.0822 38.2461 36.0822 38.2461C36.0822 38.2461 37.1974 38.7098 37.3832 38.988C37.662 39.2662 38.963 40.7501 39.4276 41.3065C39.9852 41.7702 40.8216 42.6048 41.1003 43.0685C41.3791 43.5322 41.472 44.2741 41.2862 44.7378C40.9145 45.2015 40.5428 45.1088 40.4498 45.1088C40.5428 45.1088 41.472 45.758 41.565 45.8507C41.6579 45.9434 42.1225 46.4999 41.6579 47.149Z" fill="#FFE3CF"/>
<path d="M40.4503 45.1089C40.4503 45.1089 39.7998 44.8307 39.1493 44.367C38.4988 43.9033 36.7332 42.6977 36.3615 42.5122C35.9898 42.3268 34.5029 41.3066 34.5029 41.3066C34.5029 41.3066 35.0605 41.4921 35.1534 41.4921C35.2464 41.4921 35.9898 41.8631 36.0827 41.9558C36.1756 42.0486 40.2644 45.0162 40.4503 45.1089Z" fill="#F6B486"/>
<path d="M40.6355 47.7058C40.6355 47.7058 39.7062 47.2421 39.2416 46.9639C38.7769 46.7784 35.6174 45.0164 35.0598 44.7382C34.5023 44.46 33.4801 43.9963 33.2942 43.9035C33.2013 43.9035 33.8518 43.8108 33.9447 43.9035C34.0376 43.9963 36.5467 45.2946 36.6396 45.3873C36.7325 45.4801 39.1487 46.6857 39.2416 46.8712C39.4274 46.9639 40.5426 47.6131 40.6355 47.7058Z" fill="#F6B486"/>
<path d="M35.7099 45.2017C35.7099 45.2017 35.0594 45.4799 34.9665 45.9436C34.8735 46.4073 35.0594 46.871 36.0816 47.1492C37.1038 47.5201 38.126 47.8911 38.3118 48.0766C38.4977 48.2621 39.2411 48.7257 39.6128 48.8185C39.9845 48.9112 40.2633 48.633 40.3563 48.4475C40.4492 48.262 39.6128 47.3347 39.6128 47.3347C39.6128 47.3347 38.2189 46.4073 37.8472 46.2218C37.5684 46.1291 35.7099 45.2017 35.7099 45.2017Z" fill="#FFEBDD"/>
<path d="M36.6397 42.6972C36.6397 42.6972 36.0821 42.5118 35.6175 42.8827C35.2458 43.2537 35.2458 43.4392 35.4316 43.9029C35.6175 44.3666 36.8256 45.1085 36.8256 45.1085C36.8256 45.1085 39.2417 46.3141 39.3346 46.4068C39.4275 46.4996 40.3568 47.2415 40.5427 47.3342C40.7285 47.427 41.1002 47.427 41.1932 47.3342C41.2861 47.2415 41.4719 45.8504 41.4719 45.8504C41.4719 45.8504 40.6356 45.2939 40.2639 45.0157C39.7992 44.7375 36.8256 43.0682 36.6397 42.6972Z" fill="#FFEBDD"/>
<path d="M39.1492 41.1212C39.1492 41.1212 37.0119 38.9882 36.7331 38.9882C36.4543 38.9882 35.8038 38.8955 35.3392 39.4519C34.8746 40.0083 36.1756 41.1212 36.2685 41.3067C36.3614 41.4922 37.8482 42.7905 38.0341 43.0687C38.22 43.2542 39.8927 44.4598 39.8927 44.4598L41.0078 43.5324C41.0078 43.5324 40.6361 42.7905 40.3573 42.4196C39.9856 42.0486 39.1492 41.1212 39.1492 41.1212Z" fill="#FFEBDD"/>
<path d="M41.1002 43.7175C41.1002 43.7175 40.8214 43.4393 40.4497 43.6248C40.078 43.8103 39.8922 44.0885 39.7992 44.3667C39.7063 44.6449 39.9851 44.7377 39.9851 44.7377C39.9851 44.7377 40.4497 45.1086 40.5427 45.1086C40.6356 45.1086 41.1932 45.0159 41.1002 43.7175Z" fill="#FEF7F2"/>
<path d="M41.6574 46.0366C41.6574 46.0366 41.0999 45.5729 40.8211 45.8511C40.5423 46.1293 40.3564 46.5003 40.3564 46.8712C40.3564 47.2422 41.0069 47.5204 41.0069 47.5204C41.0069 47.5204 42.1221 46.964 41.6574 46.0366Z" fill="#FEF7F2"/>
<path d="M40.636 47.7055C40.636 47.7055 39.7996 47.4272 39.7067 47.4272C39.6137 47.4272 39.335 47.7055 39.335 48.0764C39.335 48.4474 39.6137 48.6329 39.7067 48.6329C39.7996 48.6329 40.0784 48.7256 40.0784 48.7256C40.0784 48.7256 40.8218 48.2619 40.636 47.7055Z" fill="#FEF7F2"/>
<path d="M40.3568 32.5894L35.5246 35.3716C34.6882 35.8353 33.666 35.2788 33.666 34.2587V29.529L41.9366 24.7993V29.9927C41.8436 31.1056 41.2861 32.033 40.3568 32.5894Z" fill="url(#paint3_linear_923_53594)"/>
<path d="M41.1937 32.96L36.3615 35.7422C35.5251 36.2059 34.5029 35.6494 34.5029 34.6293V29.8996L42.7735 25.1699V30.3633C42.6806 31.3834 42.123 32.4036 41.1937 32.96Z" fill="url(#paint4_linear_923_53594)"/>
<path d="M28.0875 31.69L29.4577 30.8679L29.677 17.9326L11.6992 28.3466V41.5011L28.0875 31.69Z" fill="#707070"/>
<path d="M18.723 31.1819C18.5857 31.0698 18.4147 31.0257 18.2215 31.0425C18.6075 30.5997 18.841 30.0399 18.841 29.4758C18.841 29.2382 18.7987 29.0405 18.7106 28.8894C18.6209 28.7355 18.487 28.6357 18.319 28.5926C17.9937 28.5091 17.5571 28.6415 17.0657 28.9356L14.9219 30.1674L14.8717 30.1962V30.2541V35.8317V35.9977L15.0184 35.9201L17.228 34.7527L17.228 34.7528L17.2319 34.7506C18.357 34.0901 19.0359 33.0889 19.0359 32.0701C19.0359 31.6693 18.9362 31.356 18.723 31.1819ZM17.1013 32.2864L17.1013 32.2864L17.1027 32.2856C17.2608 32.1909 17.3998 32.1259 17.5181 32.0884C17.6373 32.0506 17.7295 32.0427 17.7971 32.055C17.8611 32.0666 17.9051 32.0963 17.9358 32.1443C17.9686 32.1954 17.9911 32.2756 17.9911 32.3944C17.9911 32.8617 17.637 33.3537 17.0006 33.735L15.9165 34.3613V32.9709L17.1013 32.2864ZM15.9165 31.8968V30.6361L17.0987 29.9531C17.3536 29.8263 17.5343 29.7937 17.642 29.8235C17.6909 29.8371 17.7259 29.8637 17.751 29.9064C17.7776 29.9518 17.7961 30.0216 17.7961 30.1244C17.7961 30.5296 17.5036 30.9562 16.9998 31.2709L15.9165 31.8968Z" fill="white" stroke="white" stroke-width="0.2"/>
<path d="M20.7905 26.8818V26.7146L20.6432 26.7937L19.7984 27.2477L19.7457 27.276V27.3358V32.9135V33.0807L19.893 33.0015L20.7379 32.5476L20.7905 32.5193V32.4595V26.8818Z" fill="white" stroke="white" stroke-width="0.2"/>
<path d="M21.8902 31.811V31.9846L22.0404 31.8976L24.054 30.7307C24.0542 30.7306 24.0543 30.7305 24.0545 30.7304C25.5802 29.8696 26.6394 28.0207 26.6394 26.3631C26.6394 25.5359 26.3738 24.9378 25.8792 24.6775C25.3867 24.4184 24.7131 24.519 23.9538 24.98L21.9401 26.1469L21.8902 26.1758V26.2334V31.811ZM24.0534 25.9317L24.0535 25.9319L24.0589 25.9284C24.4973 25.6471 24.8787 25.616 25.1426 25.7616C25.4064 25.9071 25.5946 26.252 25.5946 26.8171C25.5946 27.3812 25.4215 27.9642 25.1366 28.4618C24.8514 28.9599 24.4583 29.3652 24.0252 29.5813L24.0251 29.5811L24.0198 29.5842L22.9351 30.2109V26.5517L24.0534 25.9317Z" fill="white" stroke="white" stroke-width="0.2"/>
<path d="M29.6769 17.933L11.6991 28.347L10 27.3604L27.9778 16.8916L29.6769 17.933Z" fill="#9A9A9A"/>
<path d="M11.6991 28.3471L10 27.3057V40.4602L11.6991 41.4467V28.3471Z" fill="#9A9A9A"/>
<path d="M49.6953 22.8039L51.8067 21.5371L52.1446 1.60498L24.4424 17.652V37.922L49.6953 22.8039Z" fill="url(#paint5_linear_923_53594)"/>
<path d="M35.3997 21.9577C35.1978 21.7928 34.9469 21.7275 34.6637 21.7509C35.2315 21.0976 35.5747 20.2728 35.5747 19.4414C35.5747 19.0904 35.5122 18.7982 35.382 18.5747C35.2493 18.3469 35.0511 18.1992 34.8026 18.1354C34.3214 18.0119 33.6762 18.2078 32.9508 18.6419L29.7866 20.4601L29.7113 20.5033V20.5901V28.8226V29.0715L29.9314 28.9552L33.1927 27.2321L33.1928 27.2323L33.1986 27.2289C34.8597 26.2537 35.8625 24.7753 35.8625 23.2704C35.8625 22.6786 35.7152 22.2153 35.3997 21.9577ZM33.0058 23.5918L33.0058 23.5918L33.0079 23.5906C33.2411 23.4509 33.4461 23.355 33.6206 23.2998C33.7963 23.2441 33.9319 23.2325 34.0311 23.2505C34.1249 23.2675 34.1894 23.3111 34.2343 23.3812C34.2823 23.4563 34.3155 23.5741 34.3155 23.7491C34.3155 24.4377 33.7937 25.1632 32.8547 25.7258L31.2583 26.6481V24.6015L33.0058 23.5918ZM31.2583 23.0105V21.1553L33.0018 20.148C33.378 19.9608 33.644 19.9131 33.802 19.9569C33.8735 19.9767 33.9248 20.0156 33.9614 20.0781C34.0004 20.1447 34.0278 20.2472 34.0278 20.3987C34.0278 20.9956 33.5968 21.6246 32.8535 22.0889L31.2583 23.0105Z" fill="white" stroke="white" stroke-width="0.3"/>
<path d="M38.4526 15.6133V15.3624L38.2316 15.4812L36.9847 16.1512L36.9057 16.1937V16.2834V24.5158V24.7667L37.1267 24.648L38.3736 23.9779L38.4526 23.9354V23.8457V15.6133Z" fill="white" stroke="white" stroke-width="0.3"/>
<path d="M40.0707 22.888V23.1483L40.2959 23.0178L43.2679 21.2956C43.2682 21.2954 43.2684 21.2953 43.2687 21.2951C45.5213 20.0241 47.0852 17.2944 47.0852 14.847C47.0852 13.6256 46.693 12.7417 45.9619 12.357C45.2339 11.9739 44.2386 12.1229 43.1177 12.8034L40.1455 14.5257L40.0707 14.5691V14.6555V22.888ZM43.267 14.2123L43.2671 14.2126L43.2752 14.2074C43.922 13.7925 44.4839 13.747 44.8724 13.9612C45.2606 14.1754 45.5382 14.6835 45.5382 15.5171C45.5382 16.3492 45.2829 17.2093 44.8626 17.9434C44.4418 18.6783 43.8619 19.2761 43.2232 19.5948L43.2231 19.5945L43.2151 19.5991L41.6177 20.5221V15.1268L43.267 14.2123Z" fill="white" stroke="white" stroke-width="0.3"/>
<path d="M52.1447 1.6047L24.4424 17.6517L21.8242 16.1315L49.5265 0L52.1447 1.6047Z" fill="url(#paint6_linear_923_53594)" fill-opacity="0.5"/>
<path d="M24.4424 17.6516L21.8242 16.0469V36.3168L24.4424 37.8371V17.6516Z" fill="url(#paint7_linear_923_53594)"/>
</g>
<defs>
<linearGradient id="paint0_linear_923_53594" x1="17.7925" y1="57.5709" x2="23.4809" y2="69.2531" gradientUnits="userSpaceOnUse">
<stop stop-color="#CFC2BA"/>
<stop offset="0.6" stop-color="#BAAEA8"/>
<stop offset="1" stop-color="#B3A7A1"/>
</linearGradient>
<linearGradient id="paint1_linear_923_53594" x1="51.5097" y1="53.6687" x2="56.8179" y2="64.6423" gradientUnits="userSpaceOnUse">
<stop stop-color="#CFC2BA"/>
<stop offset="0.6" stop-color="#BAAEA8"/>
<stop offset="1" stop-color="#B3A7A1"/>
</linearGradient>
<linearGradient id="paint2_linear_923_53594" x1="34.2004" y1="59.0559" x2="41.5583" y2="74.0692" gradientUnits="userSpaceOnUse">
<stop stop-color="#CFC2BA"/>
<stop offset="0.6" stop-color="#BAAEA8"/>
<stop offset="1" stop-color="#B3A7A1"/>
</linearGradient>
<linearGradient id="paint3_linear_923_53594" x1="34.7662" y1="26.7148" x2="41.9613" y2="32.2567" gradientUnits="userSpaceOnUse">
<stop stop-color="#BCEB00"/>
<stop offset="1" stop-color="#00EAEA"/>
</linearGradient>
<linearGradient id="paint4_linear_923_53594" x1="35.8245" y1="27.0854" x2="42.3425" y2="34.176" gradientUnits="userSpaceOnUse">
<stop stop-color="#C6EE27"/>
<stop offset="1" stop-color="#28F7F7"/>
</linearGradient>
<linearGradient id="paint5_linear_923_53594" x1="28.869" y1="8.08343" x2="50.9315" y2="31.852" gradientUnits="userSpaceOnUse">
<stop stop-color="#C6EE27"/>
<stop offset="1" stop-color="#28F7F7"/>
</linearGradient>
<linearGradient id="paint6_linear_923_53594" x1="25.8576" y1="3.14883" x2="36.496" y2="21.4224" gradientUnits="userSpaceOnUse">
<stop stop-color="#BCEB00"/>
<stop offset="1" stop-color="#00EAEA"/>
</linearGradient>
<linearGradient id="paint7_linear_923_53594" x1="22.1725" y1="19.9339" x2="25.7499" y2="20.3638" gradientUnits="userSpaceOnUse">
<stop stop-color="#BCEB00"/>
<stop offset="1" stop-color="#00EAEA"/>
</linearGradient>
<clipPath id="clip0_923_53594">
<rect width="72" height="72" fill="white"/>
</clipPath>
</defs>
</svg>
