<svg width="72" height="72" viewBox="0 0 72 72" fill="none" xmlns="http://www.w3.org/2000/svg">
<path d="M54.089 23.6381C53.6278 23.6381 53.1791 23.3987 52.932 22.9706C52.5634 22.3322 52.7821 21.516 53.4205 21.1475L54.7229 20.3955C56.9095 19.1331 58.2678 16.7803 58.2678 14.2555C58.2678 10.78 60.1375 7.54159 63.1474 5.80384L65.998 4.15797C66.6363 3.78959 67.4525 4.00809 67.8211 4.64647C68.1898 5.28484 67.971 6.10109 67.3326 6.46959L64.482 8.11547C62.2954 9.37784 60.9371 11.7306 60.9371 14.2555C60.9371 17.731 59.0674 20.9695 56.0575 22.7071L54.7551 23.4591C54.545 23.5803 54.3155 23.6381 54.089 23.6381Z" fill="url(#paint0_linear_2725_70920)"/>
<path d="M54.7648 24.0584C56.0259 24.0584 57.0482 23.0361 57.0482 21.7751C57.0482 20.514 56.0259 19.4917 54.7648 19.4917C53.5037 19.4917 52.4814 20.514 52.4814 21.7751C52.4814 23.0361 53.5037 24.0584 54.7648 24.0584Z" fill="url(#paint1_linear_2725_70920)"/>
<path d="M53.7605 11.8365C53.7605 11.8365 50.546 9.97151 50.494 9.94676L42.8673 6.31738C42.304 6.04926 41.607 6.12901 40.8893 6.54338L5.37438 27.0479C4.61538 27.4861 4 28.6619 4 29.6739V64.639C4 65.187 4.18138 65.5726 4.46725 65.7434L4.46663 65.7441L4.48838 65.7566C4.49388 65.7596 4.49913 65.7631 4.50463 65.766L7.56913 67.5353L53.7605 11.8365Z" fill="url(#paint2_linear_2725_70920)"/>
<path d="M50.4949 9.94676L42.8681 6.31738C42.3049 6.04926 41.608 6.12901 40.8901 6.54338L34.1191 10.4526L37.2406 12.2549L53.7615 11.8365C53.7614 11.8365 50.5469 9.97151 50.4949 9.94676Z" fill="url(#paint3_linear_2725_70920)"/>
<path d="M50.0038 27.3195C51.2954 26.5738 52.3425 24.5732 52.3425 22.8509C52.3425 21.1288 51.2954 20.3372 50.0038 21.0829C48.7122 21.8287 47.665 23.8293 47.665 25.5515C47.665 27.2738 48.7122 28.0653 50.0038 27.3195Z" fill="url(#paint4_linear_2725_70920)"/>
<path d="M53.615 11.7495L45.9882 8.12012C45.425 7.85199 44.728 7.93174 44.0102 8.34612L8.49547 28.8506C7.73634 29.2889 7.12109 30.4646 7.12109 31.4766V66.4417C7.12109 67.4539 7.73647 67.919 8.49547 67.4807L44.0102 46.9762C44.7281 46.5617 45.425 45.8367 45.9882 44.9182L53.615 32.4824C54.0401 31.7892 54.288 30.9635 54.288 30.2412V13.2135C54.2881 12.4911 54.0401 11.9517 53.615 11.7495ZM50.0035 26.8865C48.8911 27.5287 47.9893 26.847 47.9893 25.3639C47.9893 23.8807 48.8911 22.1577 50.0035 21.5155C51.1158 20.8732 52.0176 21.555 52.0176 23.0381C52.0176 24.5212 51.1158 26.2442 50.0035 26.8865Z" fill="url(#paint5_linear_2725_70920)"/>
<path d="M50.6636 24.9388C49.9356 24.9388 48.625 24.2172 48.6144 23.4869C48.6036 22.7499 49.1922 22.1436 49.9292 22.1329C50.5125 22.1244 51.803 22.1024 52.3082 21.8108L54.3954 20.6058C55.0337 20.2373 55.8499 20.4559 56.2185 21.0943C56.5871 21.7326 56.3684 22.5489 55.73 22.9174L53.6427 24.1225C52.744 24.6413 51.7209 24.9235 50.6835 24.9386C50.677 24.9388 49.955 24.802 50.6636 24.9388Z" fill="url(#paint6_linear_2725_70920)"/>
<path d="M27.9139 35.2553C27.9139 34.1212 28.6846 33.1092 29.854 32.4341C30.765 31.9081 32.01 31.5976 33.2821 31.5044C34.8831 31.3871 36.2507 30.3076 36.7062 28.7683C37.277 26.8393 35.5195 25.0192 33.5752 25.5358C33.0206 25.6832 32.4511 25.8804 31.8741 26.1291V23.0692C31.8741 22.1296 30.8569 21.5422 30.043 22.0121C28.9886 22.6209 28.3391 23.7458 28.3391 24.9633V28.2056C25.4194 30.5301 23.4439 32.0457 22.941 35.4052H22.8105V38.8044C22.8105 47.5937 32.6186 39.3792 32.6186 43.5967C32.6186 44.9079 31.7149 46.1386 30.2795 46.9672C29.152 47.6182 27.7015 47.9292 26.3086 47.8613C24.889 47.7921 23.5797 46.4969 22.8636 47.6681H22.3447V51.3291H22.3485C22.3331 52.7654 23.5329 54.0099 25.0676 53.9316C26.1082 53.8783 27.2156 53.6324 28.3391 53.1909V56.0248L31.8741 53.9838V51.1854C35.2232 48.6492 37.722 44.6549 37.722 40.2958C37.722 31.3646 27.9139 39.3663 27.9139 35.2553Z" fill="url(#paint7_linear_2725_70920)"/>
<path d="M28.3142 52.0154V52.9133C28.3142 53.3998 28.5877 53.7901 28.9636 53.9899L28.9621 53.9913L31.823 55.6353V49.7739C31.8228 49.7739 27.6428 51.3882 28.3142 52.0154Z" fill="url(#paint8_linear_2725_70920)"/>
<path d="M36.2398 32.7492C34.8544 31.821 32.7263 32.3481 30.9649 32.6872L30.1377 34.107L33.8996 36.3987L39.0568 34.3647L36.2389 32.7463C36.2389 32.7462 36.2396 32.7481 36.2398 32.7492Z" fill="url(#paint9_linear_2725_70920)"/>
<path d="M32.5935 39.9755C32.5935 41.2866 31.6896 42.5172 30.2545 43.346C29.127 43.997 27.6765 44.308 26.2836 44.24C24.5363 44.1547 22.9561 45.2717 22.4435 46.9444L22.4347 46.9731C22.0516 48.2232 22.6596 49.4705 23.7106 50.0209L23.7093 50.0212L26.5525 51.662L38.5702 41.1546C38.059 40.5969 32.5935 37.731 32.5935 39.9755Z" fill="url(#paint10_linear_2725_70920)"/>
<path d="M22.7852 35.183C22.7852 37.5046 23.4698 38.6394 24.477 39.1306L24.4764 39.131L27.3393 40.7885L31.5302 25.9915L28.3138 24.584C24.9115 27.2927 22.7852 31.2492 22.7852 35.183Z" fill="url(#paint11_linear_2725_70920)"/>
<path d="M31.2605 18.4037V18.4051C30.9013 18.1878 30.4337 18.1511 30.0183 18.3909C28.964 18.9997 28.3145 20.1247 28.3145 21.3422V24.5844L31.3048 26.3085L33.4136 21.8559C33.3348 21.5315 34.2361 20.1191 34.2361 20.1191L31.2605 18.4037Z" fill="url(#paint12_linear_2725_70920)"/>
<path d="M35.6136 22.245L35.614 22.2467C35.1716 21.9556 34.6371 21.7972 34.0684 21.8312L34.8394 24.232L36.9142 24.9307C37.8814 24.3153 38.5231 23.9181 38.5231 23.9181L35.6136 22.245Z" fill="url(#paint13_linear_2725_70920)"/>
<path d="M34.8385 49.2885V52.7432C34.8385 53.9607 34.189 55.0857 33.1346 55.6945C32.3207 56.1643 31.3035 55.577 31.3035 54.6373V51.294C30.18 51.7355 29.0726 51.9813 28.032 52.0345C26.2392 52.1261 24.898 50.4136 25.4241 48.6973L25.433 48.6686C25.9456 46.9961 27.5258 45.879 29.2731 45.9642C30.666 46.0322 32.1165 45.7211 33.244 45.0702C34.6792 44.2416 35.5831 43.011 35.5831 41.6997C35.5831 37.4822 25.775 45.6967 25.775 36.9075C25.775 32.9737 27.9013 29.0172 31.3036 26.3086V23.0663C31.3036 21.8488 31.9531 20.7238 33.0075 20.1151C33.8213 19.6452 34.8386 20.2326 34.8386 21.1723V24.2322C35.4156 23.9835 35.9851 23.7863 36.5398 23.639C38.4841 23.1225 40.2416 24.9425 39.6707 26.8715C39.2152 28.4108 37.8477 29.4903 36.2466 29.6076C34.9746 29.7008 33.7295 30.0113 32.8185 30.5372C31.6491 31.2123 30.8783 32.2245 30.8783 33.3585C30.8783 37.4695 40.6865 29.4678 40.6865 38.3986C40.6863 42.7581 38.1876 46.7523 34.8385 49.2885Z" fill="url(#paint14_linear_2725_70920)"/>
<defs>
<linearGradient id="paint0_linear_2725_70920" x1="53.5453" y1="8.64629" x2="63.7958" y2="11.9387" gradientUnits="userSpaceOnUse">
<stop stop-color="#9D9D9D"/>
<stop offset="0.9916" stop-color="#E6E6E6"/>
</linearGradient>
<linearGradient id="paint1_linear_2725_70920" x1="53.0889" y1="20.3063" x2="56.2539" y2="23.4713" gradientUnits="userSpaceOnUse">
<stop stop-color="#BCEB00"/>
<stop offset="1" stop-color="#00EAEA"/>
</linearGradient>
<linearGradient id="paint2_linear_2725_70920" x1="47.8007" y1="2.90167" x2="11.809" y2="89.1326" gradientUnits="userSpaceOnUse">
<stop stop-color="#BCEB00"/>
<stop offset="0.203093" stop-color="#55EB2F"/>
<stop offset="1" stop-color="#00EAEA"/>
</linearGradient>
<linearGradient id="paint3_linear_2725_70920" x1="46.3511" y1="9.75263" x2="43.8963" y2="11.17" gradientUnits="userSpaceOnUse">
<stop stop-color="#28C59C"/>
<stop offset="1" stop-color="#CBF8DC" stop-opacity="0"/>
</linearGradient>
<linearGradient id="paint4_linear_2725_70920" x1="51.7503" y1="26.5974" x2="47.6872" y2="23.4848" gradientUnits="userSpaceOnUse">
<stop stop-color="#C1F100"/>
<stop offset="1" stop-color="#28B7B7"/>
</linearGradient>
<linearGradient id="paint5_linear_2725_70920" x1="13.3955" y1="18.6107" x2="53.6379" y2="50.4147" gradientUnits="userSpaceOnUse">
<stop stop-color="#BCEB00"/>
<stop offset="1" stop-color="#00EAEA"/>
</linearGradient>
<linearGradient id="paint6_linear_2725_70920" x1="49.6961" y1="21.498" x2="53.3854" y2="23.8914" gradientUnits="userSpaceOnUse">
<stop stop-color="#9D9D9D"/>
<stop offset="0.9916" stop-color="#E6E6E6"/>
</linearGradient>
<linearGradient id="paint7_linear_2725_70920" x1="30.0334" y1="74.4579" x2="30.0334" y2="22.7272" gradientUnits="userSpaceOnUse">
<stop offset="0.0319" stop-color="#2ECB73"/>
<stop offset="1" stop-color="#4DA93A" stop-opacity="0"/>
</linearGradient>
<linearGradient id="paint8_linear_2725_70920" x1="31.2038" y1="51.6832" x2="28.9556" y2="55.5772" gradientUnits="userSpaceOnUse">
<stop stop-color="#9D9D9D"/>
<stop offset="0.324" stop-color="#B5B4B8"/>
<stop offset="0.9916" stop-color="#E6E6E6"/>
</linearGradient>
<linearGradient id="paint9_linear_2725_70920" x1="37.5151" y1="33.5866" x2="35.9949" y2="36.9711" gradientUnits="userSpaceOnUse">
<stop stop-color="#9D9D9D"/>
<stop offset="0.9916" stop-color="#E6E6E6"/>
</linearGradient>
<linearGradient id="paint10_linear_2725_70920" x1="31.6232" y1="42.0174" x2="26.3877" y2="51.0856" gradientUnits="userSpaceOnUse">
<stop stop-color="#9C9C9C"/>
<stop offset="0.324" stop-color="#E2DFEC"/>
<stop offset="0.6743" stop-color="#F7F7F7"/>
<stop offset="1" stop-color="#A5A5A5"/>
</linearGradient>
<linearGradient id="paint11_linear_2725_70920" x1="25.107" y1="36.3069" x2="30.6183" y2="26.761" gradientUnits="userSpaceOnUse">
<stop stop-color="#A5A5A5"/>
<stop offset="0.9916" stop-color="#E2E8ED"/>
</linearGradient>
<linearGradient id="paint12_linear_2725_70920" x1="31.2753" y1="18.2261" x2="31.2753" y2="26.3085" gradientUnits="userSpaceOnUse">
<stop stop-color="#DEE4E8"/>
<stop offset="0.843744" stop-color="#C1C3C5"/>
</linearGradient>
<linearGradient id="paint13_linear_2725_70920" x1="37.7531" y1="22.8378" x2="37.1157" y2="25.4306" gradientUnits="userSpaceOnUse">
<stop stop-color="#9D9D9D"/>
<stop offset="0.324" stop-color="#B5B4B8"/>
<stop offset="0.9916" stop-color="#E6E6E6"/>
</linearGradient>
<linearGradient id="paint14_linear_2725_70920" x1="32.9975" y1="81.3015" x2="32.9975" y2="26.9491" gradientUnits="userSpaceOnUse">
<stop stop-color="#DFDAEF"/>
<stop offset="1" stop-color="white"/>
</linearGradient>
</defs>
</svg>
